<?xml version="1.0" encoding="UTF-8" standalone="no"?>
<!-- Created with Inkscape (http://www.inkscape.org/) -->

<svg
   width="32.316025mm"
   height="36.019733mm"
   viewBox="0 0 32.316025 36.019733"
   version="1.1"
   id="svg15141"
   inkscape:version="1.1-rc (52f87abb86, 2021-05-02)"
   sodipodi:docname="0.svg"
   xmlns:inkscape="http://www.inkscape.org/namespaces/inkscape"
   xmlns:sodipodi="http://sodipodi.sourceforge.net/DTD/sodipodi-0.dtd"
   xmlns="http://www.w3.org/2000/svg"
   xmlns:svg="http://www.w3.org/2000/svg">
  <sodipodi:namedview
     id="namedview15143"
     pagecolor="#ffffff"
     bordercolor="#666666"
     borderopacity="1.0"
     objecttolerance="10.0"
     gridtolerance="10.0"
     guidetolerance="10.0"
     inkscape:pageshadow="2"
     inkscape:pageopacity="0.0"
     inkscape:pagecheckerboard="0"
     inkscape:document-units="mm"
     showgrid="false"
     fit-margin-top="0"
     fit-margin-left="0"
     fit-margin-right="0"
     fit-margin-bottom="0"
     inkscape:zoom="0.94875842"
     inkscape:cx="-521.7345"
     inkscape:cy="-253.48919"
     inkscape:window-width="3840"
     inkscape:window-height="2066"
     inkscape:window-x="2869"
     inkscape:window-y="-11"
     inkscape:window-maximized="1"
     inkscape:current-layer="layer1" />
  <defs
     id="defs15138" />
  <g
     inkscape:label="Layer 1"
     inkscape:groupmode="layer"
     id="layer1"
     transform="translate(-243.19411,-215.6859)">
    <g
       id="g9873"
       transform="translate(101.79618,127.28495)">
      <g
         id="g2274"
         transform="matrix(0.35277777,0,0,-0.35277777,145.87186,98.857452)">
        <path
           d="m 0,0 c -1.322,2.157 -2.955,4.124 -4.831,5.82 -1.003,0.907 -2.144,1.768 -3.482,1.956 -1.621,0.227 -3.338,-0.686 -4.055,-2.156 -0.396,-0.812 -0.471,-1.858 0.089,-2.566 0.424,-0.536 1.124,-0.778 1.802,-0.865 1.538,-0.195 3.149,0.302 4.308,1.331 2.008,-1.211 2.957,-2.468 4.694,-4.823 C -1.025,-0.854 -0.45,-0.45 0,0"
           style="fill:#26597f;fill-opacity:1;fill-rule:nonzero;stroke:none"
           id="path2276" />
      </g>
      <g
         id="g2278"
         transform="matrix(0.35277777,0,0,-0.35277777,169.35088,97.221374)">
        <path
           d="M 0,0 C 0.53,1.94 1.179,3.847 1.94,5.708 2.436,6.921 2.993,8.135 3.868,9.11 4.743,10.084 5.99,10.8 7.299,10.756 8.608,10.711 9.913,9.755 10.089,8.457 10.206,7.593 9.82,6.705 9.188,6.103 8.557,5.501 7.706,5.166 6.844,5.039 5.866,4.894 4.852,5.004 3.928,5.354 2.659,3.222 1.777,0.705 1.51,-1.762 0.956,-1.259 0.554,-0.503 0,0"
           style="fill:#1e496f;fill-opacity:1;fill-rule:nonzero;stroke:none"
           id="path2280" />
      </g>
      <g
         id="g2282"
         transform="matrix(0.35277777,0,0,-0.35277777,163.03841,108.78123)">
        <path
           d="m 0,0 c -0.144,-0.336 -0.3,-0.672 -0.468,-1.008 -0.768,-1.489 -1.717,-2.822 -2.834,-3.963 -0.347,-0.372 -0.719,-0.72 -1.104,-1.044 -1.261,-1.081 -2.665,-1.909 -4.191,-2.449 -0.576,-0.217 -1.164,-0.373 -1.764,-0.493 -0.781,-0.156 -1.585,-0.24 -2.402,-0.24 -0.816,0 -1.621,0.084 -2.401,0.24 -0.601,0.12 -1.189,0.289 -1.765,0.493 -1.512,0.54 -2.929,1.368 -4.178,2.449 -0.384,0.312 -0.756,0.66 -1.117,1.033 -1.092,1.14 -2.041,2.473 -2.821,3.961 -0.156,0.337 -0.312,0.673 -0.457,1.009 -0.636,1.441 -1.104,2.99 -1.368,4.635 -0.048,0.288 -0.084,0.564 -0.12,0.852 h -28.852 c 0.324,-4.07 0.948,-8.116 1.945,-12.042 0.204,-0.805 0.42,-1.609 0.648,-2.414 0.228,-0.744 0.456,-1.489 0.709,-2.221 0.264,-0.804 0.552,-1.597 0.852,-2.389 1.249,-3.23 2.858,-6.376 4.875,-9.209 0.648,-0.937 1.344,-1.849 2.101,-2.702 0.3,-0.348 0.612,-0.696 0.937,-1.033 1.741,-1.848 3.71,-3.481 5.919,-4.814 1.657,-0.997 3.41,-1.837 5.222,-2.497 1.513,-0.565 3.062,-1.009 4.635,-1.333 4.202,-0.901 8.585,-1.045 12.835,-0.517 0.168,0.013 0.349,0.036 0.517,0.061 0.719,0.095 1.44,0.204 2.149,0.336 0.72,0.12 1.429,0.264 2.137,0.42 3.841,0.804 7.624,2.017 11.226,3.566 0.084,0.036 0.18,0.072 0.264,0.108 0.385,0.168 0.768,0.348 1.152,0.517 0.625,0.299 1.238,0.612 1.837,0.924 0.361,0.192 0.721,0.396 1.069,0.6 3.314,1.873 6.292,4.179 8.849,6.844 0.324,0.336 0.637,0.684 0.948,1.032 0.757,0.865 1.477,1.753 2.15,2.678 2.089,2.869 3.746,6.039 4.91,9.473 z m -26.99,10.278 c 0.036,0.288 0.072,0.576 0.12,0.852 0.264,1.645 0.732,3.194 1.368,4.635 0.145,0.336 0.301,0.672 0.469,0.996 0.768,1.489 1.717,2.834 2.821,3.963 0.349,0.372 0.721,0.72 1.105,1.044 1.249,1.081 2.666,1.909 4.178,2.449 0.576,0.204 1.164,0.372 1.765,0.492 0.78,0.157 1.585,0.241 2.401,0.241 0.817,0 1.621,-0.084 2.402,-0.241 0.6,-0.12 1.188,-0.275 1.764,-0.492 1.526,-0.54 2.93,-1.368 4.191,-2.449 0.385,-0.324 0.757,-0.672 1.104,-1.044 1.105,-1.129 2.054,-2.474 2.823,-3.963 0.167,-0.324 0.324,-0.66 0.467,-0.996 C 0.625,14.324 1.093,12.775 1.357,11.13 1.405,10.854 1.441,10.566 1.478,10.278 1.573,9.497 1.621,8.693 1.621,7.876 1.621,7.06 1.573,6.255 1.478,5.475 1.441,5.187 1.405,4.911 1.357,4.623 1.093,2.99 0.637,1.429 0,0 -0.144,-0.336 -0.3,-0.672 -0.468,-1.008 -1.236,-2.497 -2.185,-3.83 -3.302,-4.971 c -0.347,-0.372 -0.719,-0.72 -1.104,-1.044 -1.261,-1.081 -2.665,-1.909 -4.191,-2.449 -0.576,-0.217 -1.164,-0.373 -1.764,-0.493 -0.781,-0.156 -1.585,-0.24 -2.402,-0.24 -0.816,0 -1.621,0.084 -2.401,0.24 -0.601,0.12 -1.189,0.289 -1.765,0.493 -1.512,0.54 -2.929,1.368 -4.178,2.449 -0.384,0.312 -0.756,0.66 -1.117,1.033 -1.092,1.14 -2.041,2.473 -2.821,3.961 -0.156,0.337 -0.312,0.673 -0.457,1.009 -0.636,1.441 -1.104,2.99 -1.368,4.635 -0.048,0.288 -0.084,0.564 -0.12,0.852 -0.097,0.78 -0.145,1.585 -0.145,2.401 0,0.817 0.048,1.621 0.145,2.402 M 30.209,-0.708 c -0.096,1.981 -0.288,4.034 -0.601,6.183 -0.204,1.549 -0.48,3.158 -0.816,4.803 -0.708,3.446 -1.669,7.119 -2.941,10.998 -0.289,0.9 -0.601,1.825 -0.937,2.761 -0.216,0.601 -0.433,1.189 -0.66,1.777 -1.405,3.65 -3.146,7.168 -5.223,10.458 -0.865,1.381 -1.789,2.726 -2.774,4.022 -1.645,2.173 -3.457,4.239 -5.427,6.147 -0.912,0.889 -1.873,1.766 -2.893,2.618 -0.252,0.216 -0.516,0.432 -0.781,0.624 -1.297,1.057 -2.653,1.982 -4.034,2.81 -0.48,0.288 -0.973,0.576 -1.465,0.84 -0.312,0.168 -0.612,0.336 -0.925,0.48 -0.395,0.205 -0.792,0.397 -1.188,0.577 -0.372,0.18 -0.756,0.348 -1.129,0.504 -0.336,0.144 -0.672,0.288 -1.02,0.408 -0.121,0.06 -0.24,0.109 -0.36,0.144 -0.444,0.169 -0.889,0.325 -1.333,0.469 l -0.216,0.072 c -0.337,0.12 -0.684,0.216 -1.033,0.312 -0.384,0.12 -0.756,0.228 -1.14,0.312 -0.132,0.036 -0.252,0.072 -0.384,0.108 -0.301,0.072 -0.601,0.144 -0.901,0.204 -0.36,0.084 -0.732,0.157 -1.092,0.216 -0.012,0.012 -0.025,0.012 -0.037,0.012 -0.42,0.084 -0.84,0.157 -1.26,0.217 -1.597,0.239 -3.194,0.372 -4.803,0.396 -4.971,0.096 -9.93,-0.817 -14.564,-2.642 -1.489,-0.588 -2.942,-1.26 -4.346,-2.041 -4.227,-2.293 -8.057,-5.415 -11.214,-9.269 -1.033,-1.237 -1.982,-2.557 -2.846,-3.95 -1.465,-2.318 -2.714,-4.851 -3.698,-7.576 -0.564,-1.561 -1.093,-3.218 -1.561,-4.971 -0.42,-1.501 -0.793,-3.074 -1.128,-4.731 -0.757,-3.722 -1.297,-7.816 -1.561,-12.306 v -0.109 c -0.097,-1.512 -0.145,-3.073 -0.168,-4.694 -0.036,-2.353 0.012,-4.814 0.132,-7.372 0.084,-1.813 0.288,-3.59 0.6,-5.343 0.252,-1.609 0.613,-3.206 1.069,-4.755 1.272,-4.526 3.254,-8.776 5.823,-12.618 0.889,-1.345 1.849,-2.642 2.905,-3.879 3.182,-3.818 7,-7.107 11.298,-9.665 1.369,-0.828 2.798,-1.573 4.263,-2.245 4.214,-1.921 8.789,-3.194 13.603,-3.674 0.384,-0.049 0.769,-0.084 1.153,-0.108 0.084,-0.012 0.156,-0.012 0.24,-0.012 1.621,-0.133 3.229,-0.168 4.803,-0.108 5.367,0.192 10.494,1.381 15.2,3.41 1.489,0.624 2.93,1.345 4.322,2.137 4.431,2.533 8.357,5.835 11.587,9.725 1.044,1.237 2.005,2.546 2.894,3.914 2.569,3.927 4.465,8.309 5.57,13.015 0.36,1.585 0.637,3.194 0.817,4.851 0.228,2.126 0.288,4.322 0.18,6.544"
           style="fill:#26597f;fill-opacity:1;fill-rule:nonzero;stroke:none"
           id="path2284" />
      </g>
      <g
         id="g2286"
         transform="matrix(0.35277777,0,0,-0.35277777,173.63208,111.33954)">
        <path
           d="m 0,0 c -0.181,-1.657 -0.457,-3.266 -0.817,-4.851 -1.105,-4.706 -3.001,-9.088 -5.571,-13.015 -0.888,-1.368 -1.849,-2.677 -2.893,-3.914 -3.231,-3.89 -7.156,-7.192 -11.587,-9.725 -1.393,-0.792 -2.833,-1.513 -4.322,-2.137 -4.706,-2.029 -9.833,-3.218 -15.201,-3.41 -1.573,-0.06 -3.181,-0.025 -4.802,0.108 -0.084,0 -0.157,0 -0.241,0.012 -0.383,0.024 -0.768,0.059 -1.152,0.108 -4.814,0.48 -9.39,1.753 -13.603,3.674 -1.465,0.672 -2.894,1.417 -4.263,2.245 -4.298,2.558 -8.116,5.847 -11.298,9.665 -1.057,1.237 -2.017,2.534 -2.905,3.879 -2.57,3.841 -4.551,8.092 -5.824,12.618 -0.456,1.549 -0.816,3.146 -1.068,4.755 -0.312,1.753 -0.516,3.53 -0.6,5.343 -0.121,2.558 -0.168,5.019 -0.132,7.372 0.023,1.621 0.071,3.182 0.168,4.694 0.191,-8.128 1.5,-16.268 4.394,-23.76 2.749,-7.108 7.216,-13.772 13.831,-17.758 6.892,-4.154 15.309,-5.355 23.209,-4.286 5.415,0.732 10.758,2.257 15.777,4.43 12.415,5.391 21.047,16.077 22.62,29.68 1.465,12.607 -1.62,26.079 -7.876,37.077 -3.026,5.33 -6.868,10.193 -11.323,14.395 -3.818,3.602 -8.524,6.172 -13.651,7.204 4.214,-0.78 8.345,-2.305 12.223,-4.658 1.381,-0.828 2.737,-1.753 4.034,-2.81 0.265,-0.192 0.528,-0.408 0.78,-0.624 1.021,-0.853 1.982,-1.729 2.894,-2.618 1.97,-1.908 3.782,-3.974 5.427,-6.147 0.985,-1.296 1.909,-2.641 2.774,-4.022 2.077,-3.29 3.817,-6.808 5.223,-10.458 0.227,-0.588 0.444,-1.176 0.66,-1.777 0.336,-0.936 0.648,-1.861 0.936,-2.761 1.273,-3.879 2.234,-7.552 2.942,-10.998 0.336,-1.645 0.612,-3.254 0.816,-4.803 C -0.108,10.578 0.084,8.525 0.18,6.543 0.288,4.322 0.228,2.125 0,0"
           style="fill:#1e496f;fill-opacity:1;fill-rule:nonzero;stroke:none"
           id="path2288" />
      </g>
      <g
         id="g2290"
         transform="matrix(0.35277777,0,0,-0.35277777,157.06635,100.23791)">
        <path
           d="m 0,0 c -1.513,-0.54 -2.93,-1.369 -4.179,-2.449 l -12.967,31.313 c 1.405,0.781 2.858,1.453 4.347,2.041 z"
           style="fill:#4a97cd;fill-opacity:1;fill-rule:nonzero;stroke:none"
           id="path2292" />
      </g>
      <g
         id="g2294"
         transform="matrix(0.35277777,0,0,-0.35277777,153.4659,106.00258)">
        <path
           d="m 0,0 c 0,-0.816 0.048,-1.621 0.145,-2.401 h -29.26 c 0.023,1.621 0.071,3.181 0.168,4.694 V 2.401 H 0.145 C 0.048,1.621 0,0.816 0,0"
           style="fill:#4a97cd;fill-opacity:1;fill-rule:nonzero;stroke:none"
           id="path2296" />
      </g>
      <g
         id="g2298"
         transform="matrix(0.35277777,0,0,-0.35277777,154.04191,108.78536)">
        <path
           d="m 0,0 -27.038,-11.19 -1.909,-0.793 c -0.456,1.549 -0.817,3.146 -1.069,4.755 l 1.62,0.672 27.028,11.19 C -1.104,2.989 -0.636,1.44 0,0"
           style="fill:#4a97cd;fill-opacity:1;fill-rule:nonzero;stroke:none"
           id="path2300" />
      </g>
      <g
         id="g2302"
         transform="matrix(0.35277777,0,0,-0.35277777,154.04191,103.2198)">
        <path
           d="M 0,0 C -0.636,-1.441 -1.104,-2.99 -1.368,-4.634 L -29.02,6.82 c 0.336,1.657 0.708,3.23 1.129,4.73 z"
           style="fill:#4a97cd;fill-opacity:1;fill-rule:nonzero;stroke:none"
           id="path2304" />
      </g>
      <g
         id="g2306"
         transform="matrix(0.35277777,0,0,-0.35277777,155.19842,110.53891)">
        <path
           d="m 0,0 -21.552,-21.552 -1.945,-1.957 c -1.057,1.237 -2.017,2.533 -2.905,3.878 l 1.812,1.813 21.769,21.78 C -2.041,2.473 -1.093,1.141 0,0"
           style="fill:#4a97cd;fill-opacity:1;fill-rule:nonzero;stroke:none"
           id="path2308" />
      </g>
      <g
         id="g2310"
         transform="matrix(0.35277777,0,0,-0.35277777,155.20255,101.47041)">
        <path
           d="m 0,0 c -1.104,-1.129 -2.053,-2.474 -2.821,-3.962 l -23.101,23.1 c 0.864,1.393 1.813,2.714 2.846,3.95 z"
           style="fill:#4a97cd;fill-opacity:1;fill-rule:nonzero;stroke:none"
           id="path2312" />
      </g>
      <g
         id="g2314"
         transform="matrix(0.35277777,0,0,-0.35277777,157.06635,111.76725)">
        <path
           d="m 0,0 -11.07,-26.715 -2.161,-5.222 c -1.465,0.671 -2.894,1.416 -4.263,2.245 l 1.789,4.31 11.526,27.831 C -2.93,1.369 -1.513,0.54 0,0"
           style="fill:#4a97cd;fill-opacity:1;fill-rule:nonzero;stroke:none"
           id="path2316" />
      </g>
      <g
         id="g2318"
         transform="matrix(0.35277777,0,0,-0.35277777,159.38318,88.543182)">
        <path
           d="m 0,0 v -32.658 c -0.78,0.156 -1.585,0.24 -2.401,0.24 -0.817,0 -1.621,-0.084 -2.402,-0.24 V 0.396 C -3.193,0.372 -1.597,0.24 0,0"
           style="fill:#4a97cd;fill-opacity:1;fill-rule:nonzero;stroke:none"
           id="path2320" />
      </g>
      <g
         id="g2322"
         transform="matrix(0.35277777,0,0,-0.35277777,159.38318,111.94106)">
        <path
           d="m 0,0 v -35.347 c -1.573,-0.06 -3.182,-0.025 -4.803,0.108 V 0 c 0.781,-0.156 1.585,-0.24 2.402,-0.24 0.816,0 1.621,0.084 2.401,0.24"
           style="fill:#4a97cd;fill-opacity:1;fill-rule:nonzero;stroke:none"
           id="path2324" />
      </g>
      <g
         id="g2326"
         transform="matrix(0.35277777,0,0,-0.35277777,165.563,91.254138)">
        <path
           d="m 0,0 -0.685,-1.645 -10.878,-26.27 c -1.26,1.081 -2.665,1.909 -4.19,2.449 L -4.431,1.849 -4.034,2.81 C -2.653,1.981 -1.297,1.057 0,0"
           style="fill:#4a97cd;fill-opacity:1;fill-rule:nonzero;stroke:none"
           id="path2328" />
      </g>
      <g
         id="g2330"
         transform="matrix(0.35277777,0,0,-0.35277777,166.27028,122.45395)">
        <path
           d="m 0,0 c -1.393,-0.792 -2.833,-1.513 -4.322,-2.137 l -3.974,9.581 -9.462,22.849 c 1.526,0.54 2.93,1.369 4.191,2.449 L -3.974,9.593 Z"
           style="fill:#4a97cd;fill-opacity:1;fill-rule:nonzero;stroke:none"
           id="path2332" />
      </g>
      <g
         id="g2334"
         transform="matrix(0.35277777,0,0,-0.35277777,169.75223,95.985276)">
        <path
           d="m 0,0 -19.511,-19.511 c -0.768,1.489 -1.718,2.834 -2.822,3.963 l 17.53,17.541 2.029,2.029 C -1.789,2.726 -0.865,1.381 0,0"
           style="fill:#4a97cd;fill-opacity:1;fill-rule:nonzero;stroke:none"
           id="path2336" />
      </g>
      <g
         id="g2338"
         transform="matrix(0.35277777,0,0,-0.35277777,171.37865,117.6422)">
        <path
           d="m 0,0 c -0.889,-1.369 -1.85,-2.677 -2.894,-3.914 l -6.711,6.711 -17.338,17.35 c 1.117,1.141 2.065,2.474 2.834,3.962 L -6.508,6.508 Z"
           style="fill:#4a97cd;fill-opacity:1;fill-rule:nonzero;stroke:none"
           id="path2340" />
      </g>
      <g
         id="g2342"
         transform="matrix(0.35277777,0,0,-0.35277777,172.15793,101.27557)">
        <path
           d="m 0,0 -3.662,-1.513 -20.831,-8.633 c -0.265,1.645 -0.733,3.194 -1.369,4.635 l 20.843,8.633 3.422,1.417 C -1.369,3.95 -1.152,3.362 -0.937,2.761 -0.601,1.825 -0.288,0.9 0,0"
           style="fill:#4a97cd;fill-opacity:1;fill-rule:nonzero;stroke:none"
           id="path2344" />
      </g>
      <g
         id="g2346"
         transform="matrix(0.35277777,0,0,-0.35277777,173.63208,111.33954)">
        <path
           d="m 0,0 c -0.181,-1.657 -0.457,-3.266 -0.817,-4.851 l -7.168,2.966 -22.044,9.137 c 0.636,1.429 1.092,2.99 1.357,4.623 L -6.736,2.786 Z"
           style="fill:#4a97cd;fill-opacity:1;fill-rule:nonzero;stroke:none"
           id="path2348" />
      </g>
      <g
         id="g2350"
         transform="matrix(0.35277777,0,0,-0.35277777,173.4836,106.84974)">
        <path
           d="m 0,0 h -28.131 c 0.096,0.78 0.144,1.585 0.144,2.401 0,0.817 -0.048,1.621 -0.144,2.402 H -0.816 C -0.48,3.158 -0.204,1.549 0,0"
           style="fill:#4a97cd;fill-opacity:1;fill-rule:nonzero;stroke:none"
           id="path2352" />
      </g>
      <g
         id="g2354"
         transform="matrix(0.35277777,0,0,-0.35277777,165.563,91.254138)">
        <path
           d="m 0,0 -0.685,-1.645 c -0.612,0.649 -1.26,1.285 -1.92,1.909 -0.588,0.553 -1.201,1.081 -1.826,1.585 L -4.034,2.81 C -2.653,1.981 -1.297,1.057 0,0"
           style="fill:#3584b5;fill-opacity:1;fill-rule:nonzero;stroke:none"
           id="path2356" />
      </g>
      <g
         id="g2358"
         transform="matrix(0.35277777,0,0,-0.35277777,169.75223,95.985276)">
        <path
           d="m 0,0 -2.294,-2.293 c -0.276,0.528 -0.564,1.056 -0.864,1.573 -0.529,0.924 -1.069,1.824 -1.645,2.713 l 2.029,2.029 C -1.789,2.726 -0.865,1.381 0,0"
           style="fill:#3584b5;fill-opacity:1;fill-rule:nonzero;stroke:none"
           id="path2360" />
      </g>
      <g
         id="g2362"
         transform="matrix(0.35277777,0,0,-0.35277777,172.15793,101.27557)">
        <path
           d="m 0,0 -3.662,-1.513 c -0.384,1.561 -0.841,3.11 -1.357,4.635 l 3.422,1.417 C -1.369,3.95 -1.152,3.362 -0.937,2.761 -0.601,1.825 -0.288,0.9 0,0"
           style="fill:#3584b5;fill-opacity:1;fill-rule:nonzero;stroke:none"
           id="path2364" />
      </g>
      <g
         id="g2366"
         transform="matrix(0.35277777,0,0,-0.35277777,173.4836,106.84974)">
        <path
           d="m 0,0 h -5.511 c -0.011,1.597 -0.095,3.206 -0.252,4.803 h 4.947 C -0.48,3.158 -0.204,1.549 0,0"
           style="fill:#3584b5;fill-opacity:1;fill-rule:nonzero;stroke:none"
           id="path2368" />
      </g>
      <g
         id="g2370"
         transform="matrix(0.35277777,0,0,-0.35277777,143.25393,105.19369)">
        <path
           d="M 0,0 C 0.036,-1.561 0.12,-3.133 0.24,-4.694 H -0.168 C -0.145,-3.073 -0.097,-1.513 0,0"
           style="fill:#3584b5;fill-opacity:1;fill-rule:nonzero;stroke:none"
           id="path2372" />
      </g>
      <g
         id="g2374"
         transform="matrix(0.35277777,0,0,-0.35277777,144.50347,112.73308)">
        <path
           d="m 0,0 -1.909,-0.792 c -0.456,1.548 -0.817,3.146 -1.069,4.754 l 1.621,0.673 C -0.973,3.074 -0.517,1.525 0,0"
           style="fill:#3584b5;fill-opacity:1;fill-rule:nonzero;stroke:none"
           id="path2376" />
      </g>
      <g
         id="g2378"
         transform="matrix(0.35277777,0,0,-0.35277777,147.59543,118.14208)">
        <path
           d="m 0,0 -1.945,-1.957 c -1.057,1.237 -2.017,2.534 -2.906,3.878 l 1.813,1.813 C -2.125,2.414 -1.117,1.165 0,0"
           style="fill:#3584b5;fill-opacity:1;fill-rule:nonzero;stroke:none"
           id="path2380" />
      </g>
      <g
         id="g2382"
         transform="matrix(0.35277777,0,0,-0.35277777,153.16099,121.19167)">
        <path
           d="m 0,0 -2.161,-5.223 c -1.465,0.672 -2.894,1.417 -4.263,2.245 l 1.789,4.311 C -3.122,0.769 -1.573,0.324 0,0"
           style="fill:#3584b5;fill-opacity:1;fill-rule:nonzero;stroke:none"
           id="path2384" />
      </g>
      <g
         id="g2386"
         transform="matrix(0.35277777,0,0,-0.35277777,159.38318,121.08591)">
        <path
           d="m 0,0 v -9.425 c -1.573,-0.059 -3.182,-0.024 -4.803,0.109 v 8.5 c 0.168,0.012 0.349,0.036 0.517,0.06 C -2.846,-0.563 -1.417,-0.312 0,0"
           style="fill:#3584b5;fill-opacity:1;fill-rule:nonzero;stroke:none"
           id="path2388" />
      </g>
      <g
         id="g2390"
         transform="matrix(0.35277777,0,0,-0.35277777,166.27028,122.45395)">
        <path
           d="m 0,0 c -1.393,-0.792 -2.833,-1.513 -4.322,-2.137 l -3.974,9.581 c 0.084,0.036 0.18,0.072 0.264,0.108 1.405,0.613 2.761,1.285 4.058,2.041 z"
           style="fill:#3584b5;fill-opacity:1;fill-rule:nonzero;stroke:none"
           id="path2392" />
      </g>
      <g
         id="g2394"
         transform="matrix(0.35277777,0,0,-0.35277777,171.37865,117.6422)">
        <path
           d="m 0,0 c -0.889,-1.369 -1.85,-2.677 -2.894,-3.914 l -6.711,6.711 c 1.116,1.177 2.149,2.414 3.097,3.711 z"
           style="fill:#3584b5;fill-opacity:1;fill-rule:nonzero;stroke:none"
           id="path2396" />
      </g>
      <g
         id="g2398"
         transform="matrix(0.35277777,0,0,-0.35277777,173.63208,111.33954)">
        <path
           d="m 0,0 c -0.181,-1.657 -0.457,-3.266 -0.817,-4.851 l -7.168,2.966 c 0.516,1.513 0.937,3.062 1.249,4.671 z"
           style="fill:#3584b5;fill-opacity:1;fill-rule:nonzero;stroke:none"
           id="path2400" />
      </g>
      <g
         id="g2402"
         transform="matrix(0.35277777,0,0,-0.35277777,163.6103,106.00258)">
        <path
           d="m 0,0 c 0,-0.816 -0.048,-1.621 -0.144,-2.401 -0.036,-0.288 -0.072,-0.565 -0.12,-0.853 -0.264,-1.633 -0.72,-3.194 -1.357,-4.622 -0.144,-0.336 -0.3,-0.673 -0.468,-1.009 -0.768,-1.489 -1.717,-2.822 -2.834,-3.962 -0.348,-0.372 -0.72,-0.72 -1.104,-1.045 -1.261,-1.08 -2.665,-1.909 -4.191,-2.449 -0.576,-0.216 -1.164,-0.372 -1.764,-0.492 -0.781,-0.156 -1.585,-0.24 -2.402,-0.24 -0.816,0 -1.621,0.084 -2.401,0.24 -0.601,0.12 -1.189,0.288 -1.765,0.492 -1.512,0.54 -2.929,1.369 -4.179,2.449 -0.383,0.312 -0.755,0.661 -1.116,1.033 -1.092,1.141 -2.041,2.473 -2.821,3.962 -0.156,0.336 -0.313,0.672 -0.457,1.009 -0.636,1.44 -1.105,2.989 -1.368,4.634 -0.048,0.288 -0.084,0.565 -0.12,0.853 -0.097,0.78 -0.145,1.585 -0.145,2.401 0,0.816 0.048,1.621 0.145,2.401 0.036,0.288 0.072,0.577 0.12,0.853 0.179,1.104 0.444,2.161 0.804,3.169 0.156,0.505 0.348,0.985 0.564,1.465 0.144,0.337 0.301,0.673 0.469,0.997 0.768,1.489 1.717,2.833 2.821,3.962 0.349,0.372 0.721,0.72 1.104,1.045 1.25,1.08 2.667,1.909 4.179,2.449 0.576,0.204 1.164,0.372 1.765,0.492 0.78,0.156 1.585,0.24 2.401,0.24 0.817,0 1.621,-0.084 2.402,-0.24 0.6,-0.12 1.188,-0.276 1.764,-0.492 1.526,-0.54 2.93,-1.369 4.191,-2.449 0.384,-0.325 0.756,-0.673 1.104,-1.045 0.541,-0.552 1.033,-1.14 1.489,-1.789 0.493,-0.672 0.937,-1.405 1.333,-2.173 0.168,-0.324 0.325,-0.66 0.468,-0.997 0.637,-1.441 1.105,-2.99 1.369,-4.634 C -0.216,2.978 -0.18,2.689 -0.144,2.401 -0.048,1.621 0,0.816 0,0"
           style="fill:#ffffff;fill-opacity:1;fill-rule:nonzero;stroke:none"
           id="path2404" />
      </g>
      <g
         id="g2406"
         transform="matrix(0.35277777,0,0,-0.35277777,161.64283,107.5336)">
        <path
           d="m 0,0 c 0,-5.369 -3.566,-9.722 -7.965,-9.722 -4.398,0 -7.964,4.353 -7.964,9.722 0,5.37 3.566,9.723 7.964,9.723 C -3.566,9.723 0,5.37 0,0"
           style="fill:#373338;fill-opacity:1;fill-rule:nonzero;stroke:none"
           id="path2408" />
      </g>
      <g
         id="g2410"
         transform="matrix(0.35277777,0,0,-0.35277777,159.35044,106.52349)">
        <path
           d="m 0,0 c 0,-2.03 -1.646,-3.675 -3.675,-3.675 -2.03,0 -3.676,1.645 -3.676,3.675 0,2.03 1.646,3.676 3.676,3.676 C -1.646,3.676 0,2.03 0,0"
           style="fill:#ffffff;fill-opacity:1;fill-rule:nonzero;stroke:none"
           id="path2412" />
      </g>
      <g
         id="g2414"
         transform="matrix(0.35277777,0,0,-0.35277777,164.62937,111.87181)">
        <path
           d="m 0,0 c 2.226,-0.223 4.49,-0.763 6.292,-2.088 1.803,-1.325 3.056,-3.564 2.719,-5.775 -0.313,-2.044 -1.974,-3.752 -3.949,-4.36 -1.977,-0.608 -4.187,-0.194 -5.959,0.869 -1.774,1.063 -3.133,2.729 -4.078,4.567 C -2.121,-5.826 -0.801,-2.903 0,0"
           style="fill:#f47481;fill-opacity:1;fill-rule:nonzero;stroke:none"
           id="path2416" />
      </g>
      <g
         id="g2418"
         transform="matrix(0.35277777,0,0,-0.35277777,167.43815,114.34263)">
        <path
           d="m 0,0 c -0.533,-2.18 -3.375,-3.357 -6.348,-2.63 -2.971,0.726 -4.949,3.083 -4.416,5.263 0.534,2.179 3.375,3.357 6.347,2.63 C -1.444,4.536 0.533,2.18 0,0"
           style="fill:#f4889c;fill-opacity:1;fill-rule:nonzero;stroke:none"
           id="path2420" />
      </g>
      <g
         id="g2422"
         transform="matrix(0.35277777,0,0,-0.35277777,156.85517,114.83271)">
        <path
           d="m 0,0 c 4.515,-2.335 10.167,-2.323 14.671,0.032 4.505,2.355 7.74,6.989 8.399,12.03"
           style="fill:none;stroke:#373338;stroke-width:2.401;stroke-linecap:round;stroke-linejoin:round;stroke-miterlimit:10;stroke-dasharray:none;stroke-opacity:1"
           id="path2424" />
      </g>
      <g
         id="g2426"
         transform="matrix(0.35277777,0,0,-0.35277777,164.56323,99.407644)">
        <path
           d="m 0,0 c -0.132,-1.969 -1.236,-3.794 -2.665,-5.163 -1.032,-0.984 -2.222,-1.765 -3.47,-2.473 -0.456,0.648 -0.948,1.237 -1.489,1.789 -0.348,0.372 -0.72,0.72 -1.105,1.044 -1.26,1.081 -2.665,1.909 -4.19,2.449 -0.576,0.217 -1.164,0.373 -1.765,0.493 -0.78,0.156 -1.585,0.24 -2.401,0.24 -0.816,0 -1.621,-0.084 -2.401,-0.24 -0.601,-0.12 -1.189,-0.288 -1.765,-0.493 -1.513,-0.54 -2.93,-1.368 -4.179,-2.449 -0.383,-0.324 -0.756,-0.672 -1.104,-1.044 -1.105,-1.129 -2.053,-2.474 -2.821,-3.963 -0.168,-0.324 -0.325,-0.66 -0.469,-0.996 -0.216,-0.48 -0.408,-0.961 -0.565,-1.465 -1.404,0.048 -2.808,0.373 -3.998,1.117 -1.296,0.816 -2.293,2.197 -2.413,3.734 -0.132,1.945 1.213,3.83 3.014,4.562 1.801,0.745 3.926,0.433 5.607,-0.564 -2.161,2.137 -2.437,6.003 -0.949,8.657 1.478,2.653 4.839,4.106 7.793,3.373 2.953,-0.732 5.247,-3.577 5.318,-6.627 1.261,2.125 3.134,3.77 5.452,4.646 2.305,0.865 5.018,0.769 7.143,-0.468 C -1.284,4.911 0.156,2.473 0,0"
           style="fill:#f47920;fill-opacity:1;fill-rule:nonzero;stroke:none"
           id="path2428" />
      </g>
      <g
         id="g2430"
         transform="matrix(0.35277777,0,0,-0.35277777,163.93553,98.717258)">
        <path
           d="m 0,0 c 0,-2.278 -2.616,-4.125 -5.845,-4.125 -3.227,0 -5.844,1.847 -5.844,4.125 0,2.278 2.617,4.125 5.844,4.125 C -2.616,4.125 0,2.278 0,0"
           style="fill:#f48b20;fill-opacity:1;fill-rule:nonzero;stroke:none"
           id="path2432" />
      </g>
      <g
         id="g2434"
         transform="matrix(0.35277777,0,0,-0.35277777,158.39029,98.096792)">
        <path
           d="m 0,0 c 0,-2.31 -2.477,-4.182 -5.532,-4.182 -3.055,0 -5.531,1.872 -5.531,4.182 0,2.31 2.476,4.182 5.531,4.182 C -2.477,4.182 0,2.31 0,0"
           style="fill:#f48b20;fill-opacity:1;fill-rule:nonzero;stroke:none"
           id="path2436" />
      </g>
      <g
         id="g2438"
         transform="matrix(0.35277777,0,0,-0.35277777,154.4367,101.17929)">
        <path
           d="m 0,0 c 0.44,-1.543 -0.809,-3.253 -2.791,-3.818 -1.982,-0.566 -3.945,0.227 -4.386,1.77 -0.44,1.544 0.81,3.253 2.791,3.819 C -2.403,2.336 -0.439,1.543 0,0"
           style="fill:#f48b20;fill-opacity:1;fill-rule:nonzero;stroke:none"
           id="path2440" />
      </g>
    </g>
  </g>
</svg>
