<?xml version="1.0" encoding="UTF-8" standalone="no"?>
<!-- Created with Inkscape (http://www.inkscape.org/) -->

<svg
   width="24.788153mm"
   height="38.04443mm"
   viewBox="0 0 24.788153 38.04443"
   version="1.1"
   id="svg9935"
   inkscape:version="1.1-rc (52f87abb86, 2021-05-02)"
   sodipodi:docname="1.svg"
   xmlns:inkscape="http://www.inkscape.org/namespaces/inkscape"
   xmlns:sodipodi="http://sodipodi.sourceforge.net/DTD/sodipodi-0.dtd"
   xmlns="http://www.w3.org/2000/svg"
   xmlns:svg="http://www.w3.org/2000/svg">
  <sodipodi:namedview
     id="namedview9937"
     pagecolor="#ffffff"
     bordercolor="#666666"
     borderopacity="1.0"
     objecttolerance="10.0"
     gridtolerance="10.0"
     guidetolerance="10.0"
     inkscape:pageshadow="2"
     inkscape:pageopacity="0.0"
     inkscape:pagecheckerboard="0"
     inkscape:document-units="mm"
     showgrid="false"
     fit-margin-top="0"
     fit-margin-left="0"
     fit-margin-right="0"
     fit-margin-bottom="0"
     inkscape:zoom="0.94875842"
     inkscape:cx="-43.214373"
     inkscape:cy="192.35666"
     inkscape:window-width="3840"
     inkscape:window-height="2066"
     inkscape:window-x="2869"
     inkscape:window-y="-11"
     inkscape:window-maximized="1"
     inkscape:current-layer="layer1" />
  <defs
     id="defs9932" />
  <g
     inkscape:label="Layer 1"
     inkscape:groupmode="layer"
     id="layer1"
     transform="translate(-116.44536,-97.5468)">
    <g
       id="g8949"
       transform="translate(98.852054,53.464681)">
      <g
         id="g842"
         transform="matrix(0.35277777,0,0,-0.35277777,26.354103,46.546082)">
        <path
           d="M 0,0 C 0,0 -0.933,4.538 -5.02,6.827 -5.778,7.251 -6.728,6.776 -6.839,5.913 -7.028,4.45 -7.139,2.126 -6.544,-0.457 Z"
           style="fill:#f46020;fill-opacity:1;fill-rule:nonzero;stroke:none"
           id="path844" />
      </g>
      <g
         id="g846"
         transform="matrix(0.35277777,0,0,-0.35277777,28.946879,46.95227)">
        <path
           d="M 0,0 C 0,0 4.38,5.049 11.969,5.917 13.294,6.068 14.486,5.084 14.497,3.75 14.516,1.378 13.982,-2.711 11.08,-7.947 Z"
           style="fill:#f48b20;fill-opacity:1;fill-rule:nonzero;stroke:none"
           id="path848" />
      </g>
      <g
         id="g850"
         transform="matrix(0.35277777,0,0,-0.35277777,31.45594,48.751825)">
        <path
           d="m 0,0 c 0,0 1.5,4.159 5.21,5.366 0,0 0.377,-4.002 -2.676,-7.184 z"
           style="fill:#fec91e;fill-opacity:1;fill-rule:nonzero;stroke:none"
           id="path852" />
      </g>
      <g
         id="g854"
         transform="matrix(0.35277777,0,0,-0.35277777,42.374835,77.747477)">
        <path
           d="m 0,0 c 0.218,-2.38 -1.486,-4.511 -3.866,-4.822 l -58.659,-7.546 c -3.19,-0.405 -6.059,1.965 -6.256,5.176 l -1.455,24.434 c -0.198,3.191 2.338,5.883 5.539,5.883 h 16.982 l 2.682,35.575 -8.689,-7.92 c -1.559,-1.413 -3.897,-1.548 -5.602,-0.301 l -2.899,2.11 -1.237,0.904 -3.825,2.796 c -1.87,1.361 -2.38,3.928 -1.174,5.903 l 14.623,23.883 c 1.185,1.944 3.398,3.025 5.664,2.754 l 17.731,-2.11 c 2.806,-0.332 4.967,-2.608 5.134,-5.425 l 3.658,-58.502 h 15.486 c 2.297,0 4.219,-1.756 4.427,-4.043 z"
           style="fill:#f48b20;fill-opacity:1;fill-rule:nonzero;stroke:none"
           id="path856" />
      </g>
      <g
         id="g858"
         transform="matrix(0.35277777,0,0,-0.35277777,42.374835,77.747477)">
        <path
           d="m 0,0 c 0.218,-2.38 -1.486,-4.511 -3.866,-4.822 l -58.659,-7.546 c -3.055,-0.384 -5.809,1.767 -6.215,4.77 15.87,0.78 31.668,3.274 47.008,7.463 3.076,0.842 6.267,1.819 8.564,4.032 2.286,2.225 3.346,6.049 1.507,8.658 -1.663,2.359 -4.905,2.868 -7.784,2.941 -2.879,0.073 -5.997,-0.042 -8.346,1.621 -3.368,2.38 -3.638,7.182 -3.565,11.308 0.301,15.475 1.019,30.95 2.13,46.384 0.198,2.723 0.406,5.477 -0.155,8.148 -0.281,1.331 -0.79,2.661 -1.517,3.814 l 0.457,-0.052 c 2.806,-0.332 4.967,-2.608 5.134,-5.425 l 3.658,-58.502 h 15.486 c 2.297,0 4.219,-1.756 4.427,-4.043 z"
           style="fill:#f47920;fill-opacity:1;fill-rule:nonzero;stroke:none"
           id="path860" />
      </g>
      <g
         id="g862"
         transform="matrix(0.35277777,0,0,-0.35277777,42.154843,75.375328)">
        <path
           d="m 0,0 -2.837,1.86 -6.195,-10.019 -3.294,5.551 -3.835,6.454 -4.802,-10.664 -2.006,-4.458 -2.13,3.378 -4.719,7.503 -7.556,-10.237 -0.415,-0.561 -0.292,0.426 -5.186,7.701 -6.692,-9.603 -1.175,-1.694 -0.727,1.445 -5.124,10.102 -4.76,-11.1 -0.936,-2.172 -1.694,1.985 -4.053,4.77 -0.312,5.187 5.176,-6.091 6.34,14.779 6.506,-12.835 7.493,10.746 5.55,-8.242 8.065,10.923 6.184,-9.832 6.028,13.397 0.852,1.881 1.32,-2.213 4.719,-7.941 1.527,-2.567 5.176,8.356 3.44,-2.245 z"
           style="fill:#fec91e;fill-opacity:1;fill-rule:nonzero;stroke:none"
           id="path864" />
      </g>
      <g
         id="g866"
         transform="matrix(0.35277777,0,0,-0.35277777,35.324254,69.706966)">
        <path
           d="m 0,0 -2.775,-5.374 -4.708,13.428 -3.71,-6.911 -5.81,-10.809 -5.488,14.603 -8.511,-12.888 -3.95,8.284 h 3.451 l 0.935,-1.965 1.299,1.965 h 1.549 l 0.197,2.639 5.81,8.782 5.207,-13.895 5.175,9.634 4.449,8.273 L -2.224,2.473 -1.86,3.17 -1.663,0 Z"
           style="fill:#fec91e;fill-opacity:1;fill-rule:nonzero;stroke:none"
           id="path868" />
      </g>
      <g
         id="g870"
         transform="matrix(0.35277777,0,0,-0.35277777,19.197618,73.405947)">
        <path
           d="M 0,0 5.48,10.816 H 1.985 L -0.434,6.043 -2.753,9.347 C -3.609,8.559 -4.212,7.508 -4.442,6.327 Z"
           style="fill:#fec91e;fill-opacity:1;fill-rule:nonzero;stroke:none"
           id="path872" />
      </g>
      <g
         id="g874"
         transform="matrix(0.35277777,0,0,-0.35277777,33.777077,54.311673)">
        <path
           d="m 0,0 -0.011,0.01 -4.968,6.496 -0.862,1.122 -8.813,-18.114 -4.657,14.217 -11.359,-13.781 -2.349,16.224 -6.974,-11.069 -1.736,4.511 2.048,3.346 0.364,-0.945 8.179,12.98 2.547,-17.626 10.476,12.721 4.022,-12.285 7.659,15.735 1.757,-2.296 4.323,-5.654 z"
           style="fill:#fec91e;fill-opacity:1;fill-rule:nonzero;stroke:none"
           id="path876" />
      </g>
      <g
         id="g878"
         transform="matrix(0.35277777,0,0,-0.35277777,34.253715,61.98907)">
        <path
           d="M 0,0 -5.581,8.584 -7.67,4.697 v -0.01 l -6.455,-11.994 -8.688,10.705 0.312,4.168 0.187,0.156 7.66,-9.437 7.327,13.625 1.496,2.785 5.436,-8.366 z"
           style="fill:#fec91e;fill-opacity:1;fill-rule:nonzero;stroke:none"
           id="path880" />
      </g>
      <g
         id="g882"
         transform="matrix(0.35277777,0,0,-0.35277777,19.444951,80.350589)">
        <path
           d="M 0,0 C 0.883,0.052 1.756,0.114 2.629,0.187 L 1.694,-1.985 Z"
           style="fill:#feab1e;fill-opacity:1;fill-rule:nonzero;stroke:none"
           id="path884" />
      </g>
      <g
         id="g886"
         transform="matrix(0.35277777,0,0,-0.35277777,23.859329,79.932688)">
        <path
           d="M 0,0 C 0.634,0.073 1.268,0.156 1.902,0.25 L 0.728,-1.445 Z"
           style="fill:#feab1e;fill-opacity:1;fill-rule:nonzero;stroke:none"
           id="path888" />
      </g>
      <g
         id="g890"
         transform="matrix(0.35277777,0,0,-0.35277777,28.720889,79.173722)">
        <path
           d="M 0,0 C 0.239,0.042 0.468,0.094 0.707,0.135 L 0.292,-0.426 Z"
           style="fill:#feab1e;fill-opacity:1;fill-rule:nonzero;stroke:none"
           id="path892" />
      </g>
      <g
         id="g894"
         transform="matrix(0.35277777,0,0,-0.35277777,34.708269,77.795172)">
        <path
           d="M 0,0 C 0.052,0.01 0.093,0.031 0.146,0.042 L -1.86,-4.417 -3.991,-1.039 C -2.661,-0.707 -1.331,-0.364 0,0"
           style="fill:#feab1e;fill-opacity:1;fill-rule:nonzero;stroke:none"
           id="path896" />
      </g>
      <g
         id="g898"
         transform="matrix(0.35277777,0,0,-0.35277777,33.773267,54.308075)">
        <path
           d="m 0,0 -4.968,6.496 c 0.031,0.624 0.083,1.247 0.125,1.871 0.072,0.956 0.145,1.912 0.176,2.868 l 4.324,-5.653 z"
           style="fill:#feab1e;fill-opacity:1;fill-rule:nonzero;stroke:none"
           id="path900" />
      </g>
      <g
         id="g902"
         transform="matrix(0.35277777,0,0,-0.35277777,34.253715,61.98907)">
        <path
           d="M 0,0 -5.581,8.584 -7.67,4.697 c 0.104,2.411 0.218,4.802 0.343,7.213 l 1.496,2.785 5.436,-8.366 z"
           style="fill:#feab1e;fill-opacity:1;fill-rule:nonzero;stroke:none"
           id="path904" />
      </g>
      <g
         id="g906"
         transform="matrix(0.35277777,0,0,-0.35277777,35.324254,69.706966)">
        <path
           d="m 0,0 -2.775,-5.374 -4.708,13.428 -3.71,-6.911 c -0.187,1.497 -0.198,3.035 -0.177,4.49 0.01,0.623 0.021,1.237 0.041,1.86 L -6.88,15.766 -2.224,2.473 -1.86,3.17 -1.663,0 Z"
           style="fill:#feab1e;fill-opacity:1;fill-rule:nonzero;stroke:none"
           id="path908" />
      </g>
      <g
         id="g910"
         transform="matrix(0.35277777,0,0,-0.35277777,36.317817,71.64294)">
        <path
           d="m 0,0 1.32,-2.213 c -0.707,0.166 -1.445,0.27 -2.172,0.332 z"
           style="fill:#feab1e;fill-opacity:1;fill-rule:nonzero;stroke:none"
           id="path912" />
      </g>
      <g
         id="g914"
         transform="matrix(0.35277777,0,0,-0.35277777,42.154843,75.375328)">
        <path
           d="m 0,0 -2.837,1.86 -6.195,-10.019 -3.294,5.551 c 0.8,0.852 1.444,1.912 1.819,3.034 l 1.527,-2.567 5.176,8.356 3.44,-2.245 z"
           style="fill:#feab1e;fill-opacity:1;fill-rule:nonzero;stroke:none"
           id="path916" />
      </g>
      <g
         id="g918"
         transform="matrix(0.35277777,0,0,-0.35277777,30.719904,51.906681)">
        <path
           d="m 0,0 c 0,-4.824 -3.458,-8.734 -7.725,-8.734 -4.267,0 -7.725,3.91 -7.725,8.734 0,4.823 3.458,8.733 7.725,8.733 C -3.458,8.733 0,4.823 0,0"
           style="fill:#ffffff;fill-opacity:1;fill-rule:nonzero;stroke:none"
           id="path920" />
      </g>
      <g
         id="g922"
         transform="matrix(0.35277777,0,0,-0.35277777,29.697555,52.486825)">
        <path
           d="m 0,0 c 0,-3.287 -2.303,-5.951 -5.144,-5.951 -2.84,0 -5.143,2.664 -5.143,5.951 0,3.287 2.303,5.951 5.143,5.951 C -2.303,5.951 0,3.287 0,0"
           style="fill:#373338;fill-opacity:1;fill-rule:nonzero;stroke:none"
           id="path924" />
      </g>
      <g
         id="g926"
         transform="matrix(0.35277777,0,0,-0.35277777,27.786381,51.687889)">
        <path
           d="m 0,0 c 0,-1.012 -0.891,-1.832 -1.991,-1.832 -1.099,0 -1.99,0.82 -1.99,1.832 0,1.012 0.891,1.832 1.99,1.832 C -0.891,1.832 0,1.012 0,0"
           style="fill:#ffffff;fill-opacity:1;fill-rule:nonzero;stroke:none"
           id="path928" />
      </g>
      <g
         id="g930"
         transform="matrix(0.35277777,0,0,-0.35277777,31.794748,54.738887)">
        <path
           d="m 0,0 c 0,-1.703 -2.357,-3.084 -5.266,-3.084 -2.908,0 -5.266,1.381 -5.266,3.084 0,1.704 2.358,3.084 5.266,3.084 C -2.357,3.084 0,1.704 0,0"
           style="fill:#f4889c;fill-opacity:1;fill-rule:nonzero;stroke:none"
           id="path932" />
      </g>
      <g
         id="g934"
         transform="matrix(0.35277777,0,0,-0.35277777,23.914292,55.070639)">
        <path
           d="m 0,0 c -0.114,-0.27 -0.416,-0.384 -0.675,-0.28 -0.104,0.051 -0.229,0.041 -0.365,-0.032 -0.218,-0.114 -0.415,-0.363 -0.478,-0.613 -0.114,-0.509 0.053,-1.071 0.24,-1.663 l 0.041,-0.135 c 0.218,-0.758 0.405,-1.631 0.042,-2.432 -0.333,-0.717 -1.081,-1.258 -2.162,-1.528 -0.228,-0.062 -0.457,-0.114 -0.686,-0.155 -0.509,-0.104 -0.987,-0.208 -1.403,-0.427 -0.748,-0.384 -1.258,-1.153 -1.787,-1.953 -0.146,-0.219 -0.281,-0.427 -0.427,-0.635 -0.665,-0.945 -1.444,-1.569 -2.234,-1.839 l -1.237,0.904 c 0.031,0.011 0.073,0.011 0.114,0 1.133,-0.208 2.131,1.008 2.505,1.538 0.146,0.198 0.281,0.395 0.416,0.603 0.582,0.883 1.185,1.788 2.172,2.307 0.54,0.281 1.112,0.406 1.673,0.52 0.208,0.042 0.426,0.083 0.634,0.135 0.53,0.145 1.226,0.426 1.476,0.967 0.218,0.478 0.083,1.101 -0.093,1.694 l -0.042,0.135 c -0.198,0.665 -0.426,1.424 -0.249,2.193 0.124,0.55 0.519,1.06 1.018,1.309 0.405,0.208 0.842,0.229 1.237,0.063 C -0.01,0.572 0.114,0.26 0,0"
           style="fill:#373338;fill-opacity:1;fill-rule:nonzero;stroke:none"
           id="path936" />
      </g>
    </g>
  </g>
</svg>
