<?xml version="1.0" encoding="UTF-8" standalone="no"?>
<!-- Created with Inkscape (http://www.inkscape.org/) -->

<svg
   width="25.252382mm"
   height="35.017994mm"
   viewBox="0 0 25.252382 35.017994"
   version="1.1"
   id="svg10346"
   inkscape:version="1.1-rc (52f87abb86, 2021-05-02)"
   sodipodi:docname="2.svg"
   xmlns:inkscape="http://www.inkscape.org/namespaces/inkscape"
   xmlns:sodipodi="http://sodipodi.sourceforge.net/DTD/sodipodi-0.dtd"
   xmlns="http://www.w3.org/2000/svg"
   xmlns:svg="http://www.w3.org/2000/svg">
  <sodipodi:namedview
     id="namedview10348"
     pagecolor="#ffffff"
     bordercolor="#666666"
     borderopacity="1.0"
     objecttolerance="10.0"
     gridtolerance="10.0"
     guidetolerance="10.0"
     inkscape:pageshadow="2"
     inkscape:pageopacity="0.0"
     inkscape:pagecheckerboard="0"
     inkscape:document-units="mm"
     showgrid="false"
     fit-margin-top="0"
     fit-margin-left="0"
     fit-margin-right="0"
     fit-margin-bottom="0"
     inkscape:zoom="0.94875842"
     inkscape:cx="-179.18155"
     inkscape:cy="298.81158"
     inkscape:window-width="3840"
     inkscape:window-height="2066"
     inkscape:window-x="2869"
     inkscape:window-y="-11"
     inkscape:window-maximized="1"
     inkscape:current-layer="layer1" />
  <defs
     id="defs10343">
    <clipPath
       clipPathUnits="userSpaceOnUse"
       id="clipPath964">
      <path
         d="m 116.657,439.325 c -1.991,-2.784 -1.905,-6.555 0.184,-9.265 v 0 l 7.465,-9.69 c 2.041,-2.649 5.951,-2.81 8.25,-0.38 v 0 c 1.86,1.965 4.251,4.166 6.967,5.915 v 0 c 8.744,5.63 20.034,-2.79 16.903,-12.706 v 0 c -2.131,-6.747 -9.09,-14.515 -27.495,-20.238 v 0 c -3.684,-1.145 -6.177,-4.587 -6.136,-8.445 v 0 l 0.199,-18.689 c 0.026,-2.448 2.018,-4.419 4.466,-4.419 v 0 h 54.896 c 2.453,0 4.441,1.989 4.441,4.44 v 0 17.275 c 0,2.85 -2.646,4.962 -5.425,4.331 v 0 l -29.466,-6.697 c 0,0 28.782,15.659 28.59,42.497 v 0 c -0.125,17.508 -14.603,31.363 -32.104,31.906 v 0 c -0.456,0.014 -0.916,0.021 -1.377,0.021 v 0 c -10.146,0 -21.538,-3.524 -30.358,-15.856"
         id="path962" />
    </clipPath>
  </defs>
  <g
     inkscape:label="Layer 1"
     inkscape:groupmode="layer"
     id="layer1"
     transform="translate(-152.46676,-69.499453)">
    <g
       id="g9189"
       transform="translate(104.36206,23.904217)">
      <g
         id="g938"
         transform="matrix(0.35277777,0,0,-0.35277777,55.889575,48.077949)">
        <path
           d="M 0,0 C 0.645,1.324 0.765,2.918 0.213,4.283 -0.338,5.648 -1.588,6.738 -3.039,6.986 -4.49,7.234 -6.085,6.574 -6.845,5.313 -7.606,4.053 -7.407,2.261 -6.316,1.272 c -0.572,0.724 -1.107,1.191 -1.901,1.663 -0.793,0.472 -1.767,0.701 -2.655,0.449 -1.12,-0.319 -1.942,-1.397 -2.087,-2.552 -0.146,-1.156 0.329,-2.342 1.133,-3.184 0.805,-0.841 1.909,-1.358 3.049,-1.591 C -5.863,-2.793 -2.914,-1.15 0,0"
           style="fill:#bae1f0;fill-opacity:1;fill-rule:nonzero;stroke:none"
           id="path940" />
      </g>
      <g
         id="g942"
         transform="matrix(0.35277777,0,0,-0.35277777,66.464124,50.047013)">
        <path
           d="M 0,0 C -0.353,2.049 0.057,4.281 1.37,5.894 2.684,7.506 4.96,8.369 6.946,7.751 8.933,7.135 10.36,4.908 9.839,2.895 9.442,1.36 8.128,0.262 6.876,-0.71 c 1.25,0.744 2.883,0.954 4.295,0.602 1.412,-0.353 2.653,-1.524 2.847,-2.967 0.236,-1.761 -1.104,-3.428 -2.724,-4.159 -1.62,-0.732 -3.46,-0.74 -5.237,-0.736 z"
           style="fill:#a2cddb;fill-opacity:1;fill-rule:nonzero;stroke:none"
           id="path944" />
      </g>
      <g
         id="g946"
         transform="matrix(0.35277777,0,0,-0.35277777,48.67781,56.394579)">
        <path
           d="m 0,0 7.466,-9.689 c 2.041,-2.65 5.951,-2.81 8.25,-0.38 1.86,1.965 4.251,4.166 6.967,5.915 8.743,5.63 20.034,-2.79 16.902,-12.706 -2.13,-6.747 -9.089,-14.515 -27.494,-20.238 -3.685,-1.146 -6.177,-4.587 -6.136,-8.445 l 0.199,-18.69 c 0.026,-2.448 2.017,-4.418 4.465,-4.418 h 54.897 c 2.452,0 4.441,1.988 4.441,4.44 v 17.275 c 0,2.85 -2.646,4.962 -5.425,4.33 l -29.467,-6.697 c 0,0 28.783,15.659 28.591,42.498 C 63.531,10.703 49.052,24.558 31.551,25.1 21.071,25.425 9.038,22.158 -0.183,9.266 -2.174,6.482 -2.089,2.711 0,0"
           style="fill:#a2cddb;fill-opacity:1;fill-rule:nonzero;stroke:none"
           id="path948" />
      </g>
      <g
         id="g950"
         transform="matrix(0.35277777,0,0,-0.35277777,70.837334,77.123201)">
        <path
           d="m 0,0 c -0.752,-3.589 -4.416,-6.003 -8.058,-6.417 -3.652,-0.412 -7.274,0.763 -10.704,2.086 -3.421,1.313 -6.862,2.807 -10.525,3.071 -4.267,0.318 -8.449,-1.059 -12.6,-2.128 -4.151,-1.08 -8.619,-1.842 -12.642,-0.349 -0.763,0.285 -1.483,0.667 -2.16,1.143 l -0.17,15.808 c -0.042,3.854 2.446,7.306 6.131,8.45 18.413,5.717 25.369,13.489 27.498,20.233 3.133,9.922 -8.153,18.339 -16.899,12.707 -2.722,-1.748 -5.115,-3.95 -6.967,-5.919 -2.298,-2.425 -6.216,-2.266 -8.249,0.381 l -7.464,9.688 c -2.097,2.711 -2.181,6.491 -0.191,9.275 9.223,12.886 21.261,16.158 31.733,15.829 0.087,-0.002 0.173,-0.005 0.26,-0.008 13.461,-0.514 24.623,-10.728 26.74,-24.031 0.47,-2.955 0.686,-5.95 0.635,-8.943 -0.169,-10.355 -3.981,-21.239 -12.43,-27.211 -5.041,-3.558 -11.224,-5.072 -16.634,-8.026 -3.192,-1.727 -6.45,-4.592 -5.573,-8.444 0.394,-1.729 1.631,-3.159 3.205,-3.977 3.413,-1.772 7.231,-0.86 10.489,0.71 2.615,1.25 5.018,2.923 7.655,4.14 3.526,1.62 7.655,2.362 11.276,0.995 C -2.012,7.698 0.783,3.791 0,0"
           style="fill:#bae1f0;fill-opacity:1;fill-rule:nonzero;stroke:none"
           id="path952" />
      </g>
      <g
         id="g954"
         transform="matrix(0.35277777,0,0,-0.35277777,62.791496,61.690409)">
        <path
           d="m 0,0 c 1.292,9.074 -9.127,16.126 -17.322,10.853 -1.017,-0.656 -1.991,-1.376 -2.912,-2.118 -0.614,-0.497 -1.197,-1.006 -1.758,-1.524 -0.825,-0.763 -1.598,-1.536 -2.297,-2.266 -0.678,-0.72 -1.504,-1.218 -2.372,-1.483 -0.72,-0.222 -1.472,-0.296 -2.213,-0.211 -0.392,0.042 -0.783,0.137 -1.165,0.265 -0.19,0.063 -0.381,0.137 -0.561,0.233 -0.55,0.264 -1.069,0.624 -1.514,1.09 -0.159,0.148 -0.296,0.307 -0.424,0.476 l -7.464,9.688 c -2.097,2.711 -2.181,6.491 -0.191,9.276 0.223,0.307 0.445,0.614 0.678,0.91 -0.148,-3.144 1.62,-6.257 3.325,-9.01 1.069,-1.726 2.223,-3.526 4.023,-4.468 2.351,-1.208 5.23,-0.646 7.634,0.434 2.404,1.08 4.585,2.647 7.084,3.504 3.822,1.313 8.238,0.773 11.636,-1.408 C -2.414,12.049 -0.095,8.259 0.296,4.235 0.434,2.816 0.328,1.387 0,0"
           style="fill:#a2cddb;fill-opacity:1;fill-rule:nonzero;stroke:none"
           id="path956" />
      </g>
      <g
         id="g958"
         transform="matrix(0.35277777,0,0,-0.35277777,7.4590789,208.10994)">
        <g
           id="g960"
           clip-path="url(#clipPath964)">
          <g
             id="g966"
             transform="translate(129.862,442.3063)">
            <path
               d="m 0,0 c 0,-3.102 -2.515,-5.617 -5.617,-5.617 -3.102,0 -5.617,2.515 -5.617,5.617 0,3.103 2.515,5.617 5.617,5.617 C -2.515,5.617 0,3.103 0,0"
               style="fill:#4a97cd;fill-opacity:1;fill-rule:nonzero;stroke:none"
               id="path968" />
          </g>
          <g
             id="g970"
             transform="translate(163.1266,425.1486)">
            <path
               d="m 0,0 c 0,-3.102 -2.509,-5.622 -5.612,-5.622 -0.138,0 -0.275,0 -0.402,0.021 -0.212,0.011 -0.413,0.032 -0.614,0.074 -2.616,0.477 -4.606,2.774 -4.606,5.527 0,0.201 0.01,0.392 0.032,0.583 0.084,0.825 0.349,1.609 0.762,2.287 0.985,1.641 2.774,2.742 4.828,2.742 C -2.509,5.612 0,3.103 0,0"
               style="fill:#4a97cd;fill-opacity:1;fill-rule:nonzero;stroke:none"
               id="path972" />
          </g>
          <g
             id="g974"
             transform="translate(167.2169,391.5651)">
            <path
               d="m 0,0 c 0,-3.102 -2.515,-5.617 -5.617,-5.617 -3.102,0 -5.617,2.515 -5.617,5.617 0,3.103 2.515,5.617 5.617,5.617 C -2.515,5.617 0,3.103 0,0"
               style="fill:#4a97cd;fill-opacity:1;fill-rule:nonzero;stroke:none"
               id="path976" />
          </g>
          <g
             id="g978"
             transform="translate(193.1559,378.1789)">
            <path
               d="m 0,0 c 0,-3.102 -2.515,-5.617 -5.617,-5.617 -3.102,0 -5.617,2.515 -5.617,5.617 0,3.102 2.515,5.617 5.617,5.617 C -2.515,5.617 0,3.102 0,0"
               style="fill:#3584b5;fill-opacity:1;fill-rule:nonzero;stroke:none"
               id="path980" />
          </g>
          <g
             id="g982"
             transform="translate(186.2711,435.4133)">
            <path
               d="m 0,0 c 0,-3.102 -2.515,-5.617 -5.617,-5.617 -3.102,0 -5.617,2.515 -5.617,5.617 0,3.102 2.515,5.617 5.617,5.617 C -2.515,5.617 0,3.102 0,0"
               style="fill:#3584b5;fill-opacity:1;fill-rule:nonzero;stroke:none"
               id="path984" />
          </g>
          <g
             id="g986"
             transform="translate(131.1413,387.8752)">
            <path
               d="m 0,0 c 0,-3.102 -2.515,-5.617 -5.617,-5.617 -3.102,0 -5.617,2.515 -5.617,5.617 0,3.103 2.515,5.617 5.617,5.617 C -2.515,5.617 0,3.103 0,0"
               style="fill:#4a97cd;fill-opacity:1;fill-rule:nonzero;stroke:none"
               id="path988" />
          </g>
          <g
             id="g990"
             transform="translate(136.0192,378.2653)">
            <path
               d="m 0,0 c 0,-1.819 -1.474,-3.293 -3.293,-3.293 -1.818,0 -3.292,1.474 -3.292,3.293 0,1.818 1.474,3.292 3.292,3.292 C -1.474,3.292 0,1.818 0,0"
               style="fill:#4a97cd;fill-opacity:1;fill-rule:nonzero;stroke:none"
               id="path992" />
          </g>
          <g
             id="g994"
             transform="translate(163.1295,445.5915)">
            <path
               d="m 0,0 c 0,-1.818 -1.474,-3.293 -3.293,-3.293 -1.818,0 -3.292,1.475 -3.292,3.293 0,1.819 1.474,3.293 3.292,3.293 C -1.474,3.293 0,1.819 0,0"
               style="fill:#4a97cd;fill-opacity:1;fill-rule:nonzero;stroke:none"
               id="path996" />
          </g>
          <g
             id="g998"
             transform="translate(152.8927,361.4079)">
            <path
               d="m 0,0 c 0,-1.819 -1.474,-3.293 -3.293,-3.293 -1.818,0 -3.293,1.474 -3.293,3.293 0,1.818 1.475,3.293 3.293,3.293 C -1.474,3.293 0,1.818 0,0"
               style="fill:#3584b5;fill-opacity:1;fill-rule:nonzero;stroke:none"
               id="path1000" />
          </g>
          <g
             id="g1002"
             transform="translate(176.5831,410.0949)">
            <path
               d="m 0,0 c 0,-1.819 -1.475,-3.293 -3.293,-3.293 -1.819,0 -3.293,1.474 -3.293,3.293 0,1.819 1.474,3.293 3.293,3.293 C -1.475,3.293 0,1.819 0,0"
               style="fill:#4a97cd;fill-opacity:1;fill-rule:nonzero;stroke:none"
               id="path1004" />
          </g>
          <g
             id="g1006"
             transform="translate(149.7433,397.1823)">
            <path
               d="m 0,0 c 0,-1.818 -1.475,-3.293 -3.293,-3.293 -1.819,0 -3.293,1.475 -3.293,3.293 0,1.819 1.474,3.293 3.293,3.293 C -1.475,3.293 0,1.819 0,0"
               style="fill:#4a97cd;fill-opacity:1;fill-rule:nonzero;stroke:none"
               id="path1008" />
          </g>
          <g
             id="g1010"
             transform="translate(178.7653,415.1418)">
            <path
               d="m 0,0 c 0,-0.909 -0.737,-1.646 -1.646,-1.646 -0.91,0 -1.647,0.737 -1.647,1.646 0,0.909 0.737,1.646 1.647,1.646 C -0.737,1.646 0,0.909 0,0"
               style="fill:#3584b5;fill-opacity:1;fill-rule:nonzero;stroke:none"
               id="path1012" />
          </g>
          <g
             id="g1014"
             transform="translate(168.8317,367.4553)">
            <path
               d="m 0,0 c 0,-2.678 -2.17,-4.848 -4.848,-4.848 -2.678,0 -4.848,2.17 -4.848,4.848 0,2.678 2.17,4.848 4.848,4.848 C -2.17,4.848 0,2.678 0,0"
               style="fill:#4a97cd;fill-opacity:1;fill-rule:nonzero;stroke:none"
               id="path1016" />
          </g>
          <g
             id="g1018"
             transform="translate(155.3512,450.6955)">
            <path
               d="m 0,0 c 0,-2.678 -2.171,-4.848 -4.849,-4.848 -2.677,0 -4.848,2.17 -4.848,4.848 0,2.678 2.171,4.848 4.848,4.848 C -2.171,4.848 0,2.678 0,0"
               style="fill:#4a97cd;fill-opacity:1;fill-rule:nonzero;stroke:none"
               id="path1020" />
          </g>
          <g
             id="g1022"
             transform="translate(131.5724,422.0617)">
            <path
               d="m 0,0 c 0,-0.909 -0.737,-1.646 -1.646,-1.646 -0.91,0 -1.647,0.737 -1.647,1.646 0,0.91 0.737,1.646 1.647,1.646 C -0.737,1.646 0,0.91 0,0"
               style="fill:#3584b5;fill-opacity:1;fill-rule:nonzero;stroke:none"
               id="path1024" />
          </g>
          <g
             id="g1026"
             transform="translate(149.2697,367.9484)">
            <path
               d="m 0,0 c 0,-0.909 -0.737,-1.646 -1.646,-1.646 -0.91,0 -1.647,0.737 -1.647,1.646 0,0.91 0.737,1.646 1.647,1.646 C -0.737,1.646 0,0.91 0,0"
               style="fill:#3584b5;fill-opacity:1;fill-rule:nonzero;stroke:none"
               id="path1028" />
          </g>
          <g
             id="g1030"
             transform="translate(167.2135,391.5671)">
            <path
               d="m 0,0 c 0,-3.103 -2.509,-5.623 -5.611,-5.623 -2.902,0 -5.295,2.203 -5.591,5.03 2.647,1.122 5.23,2.34 7.581,3.991 0.476,0.339 0.942,0.7 1.398,1.07 C -0.868,3.452 0,1.832 0,0"
               style="fill:#3584b5;fill-opacity:1;fill-rule:nonzero;stroke:none"
               id="path1032" />
          </g>
          <g
             id="g1034"
             transform="translate(176.5841,410.0964)">
            <path
               d="m 0,0 c 0,-1.821 -1.472,-3.293 -3.293,-3.293 -0.148,0 -0.286,0.01 -0.423,0.032 0.847,1.969 1.514,4.023 2.011,6.141 C -0.688,2.319 0,1.239 0,0"
               style="fill:#3584b5;fill-opacity:1;fill-rule:nonzero;stroke:none"
               id="path1036" />
          </g>
          <g
             id="g1038"
             transform="translate(168.1242,364.9269)">
            <path
               d="m 0,0 c -0.857,-1.397 -2.393,-2.319 -4.14,-2.319 -2.679,0 -4.849,2.171 -4.849,4.85 0,0.063 0,0.127 0.01,0.19 C -8.396,2.499 -7.814,2.266 -7.231,2.043 -4.892,1.144 -2.467,0.307 0,0"
               style="fill:#3584b5;fill-opacity:1;fill-rule:nonzero;stroke:none"
               id="path1040" />
          </g>
          <g
             id="g1042"
             transform="translate(157.1124,419.5475)">
            <path
               d="m 0,0 c -0.211,0.011 -0.413,0.032 -0.614,0.074 -0.752,2.52 -2.425,4.67 -4.574,6.11 0.084,0.825 0.349,1.609 0.762,2.287 C -2.001,6.29 -0.381,3.229 0,0"
               style="fill:#3584b5;fill-opacity:1;fill-rule:nonzero;stroke:none"
               id="path1044" />
          </g>
        </g>
      </g>
      <g
         id="g1054"
         transform="matrix(0.35277777,0,0,-0.35277777,58.495474,48.779377)">
        <path
           d="m 0,0 c 0.264,-1.534 -1.918,-3.19 -4.875,-3.699 -2.956,-0.509 -5.566,0.323 -5.83,1.857 -0.264,1.533 1.918,3.189 4.874,3.698 C -2.875,2.365 -0.264,1.534 0,0"
           style="fill:#d7edf4;fill-opacity:1;fill-rule:nonzero;stroke:none"
           id="path1056" />
      </g>
      <g
         id="g1058"
         transform="matrix(0.35277777,0,0,-0.35277777,54.214586,49.301841)">
        <path
           d="m 0,0 c 0.274,-0.474 -0.246,-1.287 -1.16,-1.815 -0.914,-0.528 -1.878,-0.571 -2.152,-0.097 -0.274,0.475 0.246,1.287 1.16,1.815 C -1.237,0.432 -0.274,0.475 0,0"
           style="fill:#d7edf4;fill-opacity:1;fill-rule:nonzero;stroke:none"
           id="path1060" />
      </g>
      <g
         id="g1062"
         transform="matrix(0.35277777,0,0,-0.35277777,57.169453,68.810205)">
        <path
           d="M 0,0 C 0.349,-0.943 -0.654,-2.183 -2.239,-2.769 -3.825,-3.355 -5.393,-3.066 -5.742,-2.123 -6.09,-1.18 -5.087,0.06 -3.502,0.646 -1.917,1.232 -0.349,0.943 0,0"
           style="fill:#d7edf4;fill-opacity:1;fill-rule:nonzero;stroke:none"
           id="path1064" />
      </g>
      <g
         id="g1066"
         transform="matrix(0.35277777,0,0,-0.35277777,54.843131,69.499921)">
        <path
           d="m 0,0 c 0.09,-0.331 -0.349,-0.738 -0.979,-0.909 -0.632,-0.172 -1.216,-0.042 -1.306,0.288 -0.09,0.331 0.349,0.738 0.98,0.91 C -0.674,0.46 -0.09,0.331 0,0"
           style="fill:#d7edf4;fill-opacity:1;fill-rule:nonzero;stroke:none"
           id="path1068" />
      </g>
      <g
         id="g1070"
         transform="matrix(0.35277777,0,0,-0.35277777,56.872308,52.120253)">
        <path
           d="m 0,0 c 0,-4.367 -2.971,-7.907 -6.637,-7.907 -3.665,0 -6.636,3.54 -6.636,7.907 0,4.367 2.971,7.907 6.636,7.907 C -2.971,7.907 0,4.367 0,0"
           style="fill:#ffffff;fill-opacity:1;fill-rule:nonzero;stroke:none"
           id="path1072" />
      </g>
      <g
         id="g1074"
         transform="matrix(0.35277777,0,0,-0.35277777,56.088542,52.662684)">
        <path
           d="m 0,0 c 0,-3.225 -2.237,-5.84 -4.996,-5.84 -2.759,0 -4.996,2.615 -4.996,5.84 0,3.225 2.237,5.839 4.996,5.839 C -2.237,5.839 0,3.225 0,0"
           style="fill:#373338;fill-opacity:1;fill-rule:nonzero;stroke:none"
           id="path1076" />
      </g>
      <g
         id="g1078"
         transform="matrix(0.35277777,0,0,-0.35277777,54.24041,51.864983)">
        <path
           d="m 0,0 c 0,-1.021 -0.828,-1.848 -1.848,-1.848 -1.021,0 -1.848,0.827 -1.848,1.848 0,1.021 0.827,1.848 1.848,1.848 C -0.828,1.848 0,1.021 0,0"
           style="fill:#ffffff;fill-opacity:1;fill-rule:nonzero;stroke:none"
           id="path1080" />
      </g>
      <g
         id="g1082"
         transform="matrix(0.35277777,0,0,-0.35277777,57.514646,55.305766)">
        <path
           d="m 0,0 c 1.244,-1.02 2.862,-1.573 4.47,-1.529 1.609,0.044 3.194,0.685 4.38,1.772"
           style="fill:none;stroke:#373338;stroke-width:1.211;stroke-linecap:round;stroke-linejoin:round;stroke-miterlimit:10;stroke-dasharray:none;stroke-opacity:1"
           id="path1084" />
      </g>
      <g
         id="g1086"
         transform="matrix(0.35277777,0,0,-0.35277777,60.544266,54.552338)">
        <path
           d="M 0,0 C 0.184,-1.369 1.282,-2.568 2.63,-2.871"
           style="fill:none;stroke:#373338;stroke-width:1.211;stroke-linecap:round;stroke-linejoin:round;stroke-miterlimit:10;stroke-dasharray:none;stroke-opacity:1"
           id="path1088" />
      </g>
      <g
         id="g1090"
         transform="matrix(0.35277777,0,0,-0.35277777,68.356001,54.909773)">
        <path
           d="m 0,0 c 0,-1.466 -1.986,-2.654 -4.436,-2.654 -2.45,0 -4.437,1.188 -4.437,2.654 0,1.466 1.987,2.655 4.437,2.655 C -1.986,2.655 0,1.466 0,0"
           style="fill:#f47481;fill-opacity:1;fill-rule:nonzero;stroke:none"
           id="path1092" />
      </g>
      <g
         id="g1094"
         transform="matrix(0.35277777,0,0,-0.35277777,53.788431,54.376126)">
        <path
           d="m 0,0 c 0,-1.321 -1.79,-2.392 -3.998,-2.392 -2.208,0 -3.997,1.071 -3.997,2.392 0,1.321 1.789,2.392 3.997,2.392 C -1.79,2.392 0,1.321 0,0"
           style="fill:#f47481;fill-opacity:1;fill-rule:nonzero;stroke:none"
           id="path1096" />
      </g>
      <g
         id="g1098"
         transform="matrix(0.35277777,0,0,-0.35277777,62.916909,53.524661)">
        <path
           d="M 0,0 C 0.693,1.489 2.375,2.333 4.016,2.426 6.253,2.553 8.52,1.404 9.74,-0.476 c 0.848,0.031 1.705,0.395 2.288,1.013"
           style="fill:none;stroke:#373338;stroke-width:1.211;stroke-linecap:round;stroke-linejoin:round;stroke-miterlimit:10;stroke-dasharray:none;stroke-opacity:1"
           id="path1100" />
      </g>
      <g
         id="g1102"
         transform="matrix(0.35277777,0,0,-0.35277777,65.879677,53.173436)">
        <path
           d="M 0,0 C 0,0 1.439,0.753 1.694,1.604"
           style="fill:none;stroke:#373338;stroke-width:1.211;stroke-linecap:round;stroke-linejoin:round;stroke-miterlimit:10;stroke-dasharray:none;stroke-opacity:1"
           id="path1104" />
      </g>
    </g>
  </g>
</svg>
