<?xml version="1.0" encoding="UTF-8" standalone="no"?>
<!-- Created with Inkscape (http://www.inkscape.org/) -->

<svg
   width="25.219984mm"
   height="35.94241mm"
   viewBox="0 0 25.219984 35.94241"
   version="1.1"
   id="svg10901"
   inkscape:version="1.1-rc (52f87abb86, 2021-05-02)"
   sodipodi:docname="3.svg"
   xmlns:inkscape="http://www.inkscape.org/namespaces/inkscape"
   xmlns:sodipodi="http://sodipodi.sourceforge.net/DTD/sodipodi-0.dtd"
   xmlns="http://www.w3.org/2000/svg"
   xmlns:svg="http://www.w3.org/2000/svg">
  <sodipodi:namedview
     id="namedview10903"
     pagecolor="#ffffff"
     bordercolor="#666666"
     borderopacity="1.0"
     objecttolerance="10.0"
     gridtolerance="10.0"
     guidetolerance="10.0"
     inkscape:pageshadow="2"
     inkscape:pageopacity="0.0"
     inkscape:pagecheckerboard="0"
     inkscape:document-units="mm"
     showgrid="false"
     fit-margin-top="0"
     fit-margin-left="0"
     fit-margin-right="0"
     fit-margin-bottom="0"
     inkscape:zoom="0.94875842"
     inkscape:cx="-359.4171"
     inkscape:cy="319.89176"
     inkscape:window-width="3840"
     inkscape:window-height="2066"
     inkscape:window-x="2869"
     inkscape:window-y="-11"
     inkscape:window-maximized="1"
     inkscape:current-layer="layer1" />
  <defs
     id="defs10898" />
  <g
     inkscape:label="Layer 1"
     inkscape:groupmode="layer"
     id="layer1"
     transform="translate(-200.17029,-63.738654)">
    <g
       id="g9257"
       transform="translate(120.88364,18.605499)">
      <g
         id="g1106"
         transform="matrix(0.35277777,0,0,-0.35277777,94.756972,46.971038)">
        <path
           d="m 0,0 c -0.802,0.312 0.443,1.681 1.094,2.245 0.651,0.564 1.463,0.904 2.28,1.178 1.291,0.432 2.675,0.721 4.014,0.47 1.371,-0.258 2.623,-1.099 3.378,-2.272 0.755,-1.173 1.004,-2.66 0.671,-4.015 1.08,1.066 2.954,1.565 4.466,1.451 1.513,-0.114 2.96,-0.909 3.868,-2.124 0.532,-0.713 0.886,-1.588 0.84,-2.476 -0.087,-1.655 -1.466,-2.91 -2.742,-3.968 1.074,0.062 1.831,0.1 2.846,-0.26 1.646,-0.586 2.774,-2.258 2.954,-3.997 0.181,-1.738 -0.492,-3.494 -1.585,-4.858 1.777,0.207 3.575,-0.613 4.614,-2.07 1.038,-1.457 1.213,-3.486 0.439,-5.099 -0.732,-1.522 -2.174,-2.577 -3.66,-3.378 1.661,-0.121 3.136,-1.322 3.797,-2.85 0.662,-1.529 0.402,-3.415 -0.648,-4.709 -1.05,-1.293 -2.843,-1.935 -4.475,-1.603 1.447,-1.516 1.538,-3.892 0.39,-5.644 -1.147,-1.752 -3.561,-2.551 -5.528,-1.831 0.978,-0.576 1.332,-2.053 1.035,-3.149 -0.296,-1.096 -1.212,-1.961 -2.273,-2.368 -1.06,-0.405 -2.246,-0.394 -3.355,-0.152 -1.109,0.241 -2.158,0.701 -3.189,1.177 0,0 10.819,11.469 7.33,31.638 0,0 -3.247,13.497 -16.561,18.664"
           style="fill:#ffd804;fill-opacity:1;fill-rule:nonzero;stroke:none"
           id="path1108" />
      </g>
      <g
         id="g1110"
         transform="matrix(0.35277777,0,0,-0.35277777,79.640938,51.867911)">
        <path
           d="m 0,0 7.555,-11.521 c 1.441,-2.198 4.321,-2.68 6.443,-1.129 1.969,1.44 4.568,3.034 7.393,3.95 7.838,2.544 15.594,-4.744 12.983,-12.56 -1.08,-3.233 -3.961,-6.287 -10.575,-7.477 -1.281,-0.231 -2.276,-1.248 -2.42,-2.542 l -0.765,-6.851 c -0.145,-1.297 0.835,-2.442 2.139,-2.495 1.544,-0.063 3.652,-0.248 5.787,-0.743 8.957,-2.078 8.767,-15.143 -0.315,-16.578 -4.148,-0.655 -10.115,0.284 -18.662,4.708 -1.701,0.881 -3.788,-0.033 -4.298,-1.879 L 0.998,-70.542 c -0.599,-2.165 0.491,-4.433 2.554,-5.32 9.939,-4.278 38.196,-14.301 53.334,2.282 6.358,6.965 8.582,16.924 5.327,25.775 -1.515,4.117 -4.278,8.32 -9.246,11.227 0,0 10.537,8.476 11.137,23.221 C 64.695,1.13 54.591,13.766 40.565,17.438 29.298,20.388 14.008,20.609 0.773,7.63 -1.28,5.616 -1.577,2.405 0,0"
           style="fill:#4a97cd;fill-opacity:1;fill-rule:nonzero;stroke:none"
           id="path1112" />
      </g>
      <g
         id="g1114"
         transform="matrix(0.35277777,0,0,-0.35277777,98.327118,64.772875)">
        <path
           d="m 0,0 c 4.965,-2.905 7.729,-7.106 9.247,-11.228 3.257,-8.844 1.025,-18.805 -5.327,-25.771 -15.138,-16.584 -43.402,-6.564 -53.333,-2.282 -2.07,0.885 -3.156,3.156 -2.553,5.318 l 1.367,4.935 c 0.171,-0.262 0.352,-0.523 0.563,-0.764 1.056,-1.236 2.483,-2.111 3.91,-2.925 7.609,-4.352 15.961,-7.88 24.787,-8.413 8.825,-0.523 18.193,2.342 23.801,8.946 4.503,5.297 6.182,12.725 4.362,19.359 -1.808,6.623 -7.106,11.428 -13.73,13.87 8.855,8.454 12.997,21.47 9.881,33.12 -2.332,8.714 -8.845,16.313 -17.138,20.283 0.593,-0.14 1.186,-0.281 1.759,-0.432 C 1.618,50.347 11.729,37.713 11.137,23.229 10.533,8.483 0,0 0,0"
           style="fill:#3584b5;fill-opacity:1;fill-rule:nonzero;stroke:none"
           id="path1116" />
      </g>
      <g
         id="g1118"
         transform="matrix(0.35277777,0,0,-0.35277777,95.465456,46.231404)">
        <path
           d="m 0,0 -1.699,-0.644 -42.648,-16.112 -0.512,0.774 c -1.277,1.961 -1.307,4.443 -0.171,6.383 L -8.343,2.352 C -7.568,2.211 -6.794,2.061 -6.051,1.89 l 0.01,-0.011 c 0.111,-0.02 0.221,-0.05 0.332,-0.07 0.482,-0.11 0.955,-0.231 1.417,-0.351 0.774,-0.202 1.538,-0.433 2.282,-0.694 0.201,-0.06 0.412,-0.141 0.613,-0.222 0.231,-0.07 0.452,-0.16 0.673,-0.25 C -0.482,0.201 -0.231,0.11 0,0"
           style="fill:#bae1f0;fill-opacity:1;fill-rule:nonzero;stroke:none"
           id="path1120" />
      </g>
      <g
         id="g1122"
         transform="matrix(0.35277777,0,0,-0.35277777,98.904862,48.468792)">
        <path
           d="m 0,0 -3.81,-1.619 -43.873,-18.564 -1.398,2.121 44.297,17.67 3.618,1.447 C -0.764,0.713 -0.382,0.362 0,0"
           style="fill:#bae1f0;fill-opacity:1;fill-rule:nonzero;stroke:none"
           id="path1124" />
      </g>
      <g
         id="g1126"
         transform="matrix(0.35277777,0,0,-0.35277777,101.14969,51.482925)">
        <path
           d="m 0,0 -5.549,-1.779 -26.415,-8.483 c -0.653,0.311 -1.357,0.542 -2.07,0.713 l 27.6,10.072 5.097,1.859 C -1.096,2 -0.875,1.598 -0.644,1.206 -0.423,0.814 -0.212,0.412 0,0"
           style="fill:#bae1f0;fill-opacity:1;fill-rule:nonzero;stroke:none"
           id="path1128" />
      </g>
      <g
         id="g1130"
         transform="matrix(0.35277777,0,0,-0.35277777,102.25593,56.578376)">
        <path
           d="M 0,0 C -0.01,-0.161 -0.01,-0.321 -0.03,-0.472 -0.04,-0.633 -0.051,-0.784 -0.061,-0.935 H -0.07 l -7.498,-1.357 -21.762,-3.93 c 0.221,1.498 0.09,2.935 -0.332,4.272 l 22.516,5.599 6.865,1.708 h 0.01 c 0.009,-0.09 0.03,-0.18 0.03,-0.271 0.06,-0.382 0.1,-0.764 0.131,-1.156 0.019,-0.09 0.029,-0.191 0.029,-0.301 0.02,-0.221 0.041,-0.453 0.051,-0.674 V 2.895 C -0.021,2.834 -0.021,2.784 -0.021,2.724 0.03,1.83 0.04,0.915 0,0"
           style="fill:#bae1f0;fill-opacity:1;fill-rule:nonzero;stroke:none"
           id="path1132" />
      </g>
      <g
         id="g1134"
         transform="matrix(0.35277777,0,0,-0.35277777,102.08918,58.095956)">
        <path
           d="m 0,0 c -0.061,-0.362 -0.131,-0.724 -0.211,-1.076 -0.03,-0.14 -0.06,-0.271 -0.091,-0.402 v -0.01 c 0,-0.01 -0.01,-0.03 -0.01,-0.04 -0.009,-0.04 -0.02,-0.09 -0.03,-0.131 h -0.01 l -8.202,-2.1 -33.159,-8.493 c 0.443,0.603 1.106,1.035 1.88,1.166 3.588,0.653 6.081,1.849 7.779,3.326 l 24.083,5.83 z"
           style="fill:#bae1f0;fill-opacity:1;fill-rule:nonzero;stroke:none"
           id="path1136" />
      </g>
      <g
         id="g1138"
         transform="matrix(0.35277777,0,0,-0.35277777,100.59643,62.02837)">
        <path
           d="m 0,0 c -0.021,-0.04 -0.051,-0.081 -0.08,-0.121 -0.171,-0.281 -0.332,-0.552 -0.503,-0.814 -0.101,-0.161 -0.211,-0.321 -0.312,-0.472 -0.231,-0.342 -0.462,-0.674 -0.693,-0.995 -0.523,-0.724 -1.035,-1.388 -1.528,-1.971 -0.241,-0.291 -0.473,-0.562 -0.694,-0.814 -0.009,-0.01 -0.02,-0.01 -0.02,-0.02 l -0.01,-0.01 c -0.01,-0.01 -0.019,-0.02 -0.019,-0.03 -0.192,-0.201 -0.372,-0.392 -0.534,-0.573 -0.241,-0.251 -0.461,-0.482 -0.663,-0.683 -0.181,-0.181 -0.351,-0.342 -0.503,-0.483 l -4.03,-1.467 h -0.01 l -17.228,-6.252 c -1.035,0.995 -2.372,1.749 -4.031,2.141 -2.141,0.492 -4.242,0.673 -5.789,0.744 -0.453,0.01 -0.854,0.171 -1.196,0.412 L -9.961,-3.005 -0.01,0 Z"
           style="fill:#bae1f0;fill-opacity:1;fill-rule:nonzero;stroke:none"
           id="path1140" />
      </g>
      <g
         id="g1142"
         transform="matrix(0.35277777,0,0,-0.35277777,100.95813,67.407525)">
        <path
           d="M 0,0 -2.725,-0.562 -25.29,-5.176 c -0.03,0.532 -0.12,1.065 -0.241,1.598 l 21.38,5.026 2.763,0.653 C -1.136,1.759 -0.885,1.407 -0.653,1.065 -0.423,0.714 -0.211,0.362 0,0"
           style="fill:#bae1f0;fill-opacity:1;fill-rule:nonzero;stroke:none"
           id="path1144" />
      </g>
      <g
         id="g1146"
         transform="matrix(0.35277777,0,0,-0.35277777,102.10329,72.024116)">
        <path
           d="m 0,0 -3.327,-0.362 -57.484,-6.302 0.624,2.261 22.183,3.408 c 0.915,0 1.769,0.06 2.553,0.181 0.654,0.11 1.246,0.271 1.809,0.482 l 30.385,4.674 2.966,0.452 C -0.04,3.196 0.051,1.598 0,0"
           style="fill:#bae1f0;fill-opacity:1;fill-rule:nonzero;stroke:none"
           id="path1148" />
      </g>
      <g
         id="g1150"
         transform="matrix(0.35277777,0,0,-0.35277777,101.2913,75.421154)">
        <path
           d="M 0,0 V -0.01 C -0.171,-0.372 -0.342,-0.734 -0.522,-1.085 -0.543,-1.136 -0.572,-1.176 -0.593,-1.227 -0.784,-1.578 -0.975,-1.93 -1.166,-2.271 -1.387,-2.644 -1.608,-3.005 -1.839,-3.367 -2.08,-3.729 -2.321,-4.081 -2.573,-4.433 h -57.916 c 0.01,0.06 0.01,0.121 0.02,0.181 0,0.01 0,0.021 0.011,0.03 0,0.051 0.01,0.091 0.02,0.141 0.02,0.101 0.04,0.201 0.07,0.302 l 0.623,2.281 h 0.01 l 3.347,0.081 h 0.031 l 51.835,1.307 z"
           style="fill:#bae1f0;fill-opacity:1;fill-rule:nonzero;stroke:none"
           id="path1152" />
      </g>
      <g
         id="g1154"
         transform="matrix(0.35277777,0,0,-0.35277777,96.341367,80.176246)">
        <path
           d="m 0,0 c -0.362,-0.151 -0.724,-0.292 -1.086,-0.432 -0.372,-0.131 -0.744,-0.261 -1.115,-0.382 -0.754,-0.241 -1.508,-0.462 -2.272,-0.644 -0.382,-0.1 -0.764,-0.18 -1.146,-0.261 -0.261,-0.06 -0.532,-0.11 -0.794,-0.16 -0.101,-0.02 -0.191,-0.031 -0.292,-0.051 -0.221,-0.04 -0.441,-0.08 -0.663,-0.111 -0.191,-0.029 -0.392,-0.06 -0.583,-0.09 -0.392,-0.06 -0.784,-0.11 -1.176,-0.151 l -9.187,-0.07 h -0.08 c -0.563,0.05 -1.126,0.101 -1.689,0.161 -0.563,0.06 -1.115,0.13 -1.668,0.211 -0.553,0.081 -1.106,0.161 -1.659,0.251 -0.543,0.091 -1.085,0.181 -1.628,0.282 -0.543,0.1 -1.076,0.211 -1.608,0.322 -0.875,0.19 -1.739,0.381 -2.583,0.592 -0.342,0.081 -0.674,0.161 -1.005,0.252 -0.342,0.09 -0.694,0.18 -1.026,0.281 z"
           style="fill:#1b4c6d;fill-opacity:1;fill-rule:nonzero;stroke:none"
           id="path1156" />
      </g>
      <g
         id="g1158"
         transform="matrix(0.35277777,0,0,-0.35277777,93.334325,45.568394)">
        <path
           d="m 0,0 -0.01,0.01 c 0.111,-0.03 0.231,-0.05 0.342,-0.08 0.482,-0.111 0.955,-0.231 1.417,-0.352 0.774,-0.201 1.538,-0.432 2.282,-0.694 0.201,-0.06 0.412,-0.14 0.613,-0.221 0.231,-0.07 0.452,-0.161 0.673,-0.251 0.242,-0.09 0.493,-0.181 0.724,-0.291 L 4.342,-2.523 C 2.965,-1.568 1.508,-0.724 0,0"
           style="fill:#a2cddb;fill-opacity:1;fill-rule:nonzero;stroke:none"
           id="path1160" />
      </g>
      <g
         id="g1162"
         transform="matrix(0.35277777,0,0,-0.35277777,97.560956,49.039833)">
        <path
           d="M 0,0 C -0.312,0.422 -0.633,0.824 -0.975,1.227 L 2.644,2.674 C 3.046,2.332 3.428,1.98 3.81,1.619 Z"
           style="fill:#a2cddb;fill-opacity:1;fill-rule:nonzero;stroke:none"
           id="path1164" />
      </g>
      <g
         id="g1166"
         transform="matrix(0.35277777,0,0,-0.35277777,99.1922,52.110446)">
        <path
           d="M 0,0 C -0.262,0.784 -0.553,1.548 -0.885,2.302 L 4.212,4.161 C 4.453,3.779 4.674,3.377 4.905,2.985 5.126,2.593 5.337,2.191 5.549,1.779 Z"
           style="fill:#a2cddb;fill-opacity:1;fill-rule:nonzero;stroke:none"
           id="path1168" />
      </g>
      <g
         id="g1170"
         transform="matrix(0.35277777,0,0,-0.35277777,101.96514,58.681108)">
        <path
           d="m 0,0 -8.202,-2.101 c 0.222,0.603 0.412,1.217 0.583,1.83 l 7.971,1.93 C 0.291,1.297 0.221,0.935 0.141,0.583 0.11,0.442 0.08,0.312 0.05,0.181 V 0.171 C 0.05,0.161 0.04,0.141 0.04,0.131 0.03,0.091 0.02,0.05 0,0"
           style="fill:#a2cddb;fill-opacity:1;fill-rule:nonzero;stroke:none"
           id="path1172" />
      </g>
      <g
         id="g1174"
         transform="matrix(0.35277777,0,0,-0.35277777,97.210224,65.010435)">
        <path
           d="m 0,0 c -1.187,0.664 -2.433,1.236 -3.74,1.719 1.217,1.166 2.343,2.412 3.378,3.729 L 9.589,8.453 C 9.568,8.413 9.548,8.373 9.519,8.333 9.348,8.051 9.187,7.78 9.016,7.519 8.915,7.357 8.805,7.197 8.704,7.046 8.473,6.704 8.241,6.373 8.011,6.051 7.487,5.327 6.976,4.664 6.482,4.081 6.241,3.79 6.01,3.518 5.789,3.267 5.779,3.256 5.769,3.256 5.769,3.247 L 5.759,3.236 C 5.749,3.227 5.739,3.216 5.739,3.207 5.548,3.005 5.367,2.814 5.206,2.633 4.965,2.382 4.744,2.151 4.543,1.95 4.361,1.769 4.191,1.608 4.04,1.467 L 0.01,0 Z"
           style="fill:#a2cddb;fill-opacity:1;fill-rule:nonzero;stroke:none"
           id="path1176" />
      </g>
      <g
         id="g1178"
         transform="matrix(0.35277777,0,0,-0.35277777,99.996957,67.605963)">
        <path
           d="M 0,0 C -0.432,0.704 -0.904,1.377 -1.427,2.01 L 1.337,2.664 C 1.589,2.322 1.84,1.97 2.071,1.628 2.302,1.276 2.514,0.924 2.725,0.562 Z"
           style="fill:#a2cddb;fill-opacity:1;fill-rule:nonzero;stroke:none"
           id="path1180" />
      </g>
      <g
         id="g1182"
         transform="matrix(0.35277777,0,0,-0.35277777,83.285344,76.984877)">
        <path
           d="m 0,0 h -9.448 c 0.01,0.06 0.01,0.121 0.02,0.181 0,0.01 0,0.02 0.01,0.03 0,0.05 0.01,0.09 0.02,0.141 0.02,0.1 0.04,0.201 0.07,0.301 l 0.634,2.282 3.347,0.08 h 0.03 C -4.734,2.624 -4.111,2.251 -3.488,1.899 -2.342,1.246 -1.176,0.613 0,0"
           style="fill:#a2cddb;fill-opacity:1;fill-rule:nonzero;stroke:none"
           id="path1184" />
      </g>
      <g
         id="g1186"
         transform="matrix(0.35277777,0,0,-0.35277777,85.31364,80.176246)">
        <path
           d="m 0,0 h 31.26 c -0.363,-0.151 -0.724,-0.292 -1.086,-0.432 -0.372,-0.131 -0.744,-0.261 -1.115,-0.382 -0.745,-0.251 -1.508,-0.462 -2.272,-0.644 -0.382,-0.1 -0.764,-0.18 -1.146,-0.261 -0.262,-0.06 -0.533,-0.11 -0.794,-0.16 -0.101,-0.02 -0.191,-0.031 -0.292,-0.051 -0.221,-0.04 -0.442,-0.08 -0.663,-0.111 -0.191,-0.029 -0.392,-0.06 -0.583,-0.09 -0.392,-0.06 -0.784,-0.11 -1.176,-0.151 -3.046,-0.341 -6.141,-0.321 -9.187,-0.07 h -0.08 c -0.563,0.05 -1.126,0.101 -1.689,0.161 -0.563,0.06 -1.115,0.13 -1.669,0.211 -0.552,0.081 -1.105,0.161 -1.658,0.251 -0.543,0.091 -1.085,0.181 -1.628,0.282 -0.543,0.1 -1.076,0.211 -1.609,0.322 C 3.739,-0.935 2.875,-0.744 2.03,-0.533 1.688,-0.452 1.357,-0.372 1.025,-0.281 0.684,-0.191 0.332,-0.101 0,0"
           style="fill:#a2cddb;fill-opacity:1;fill-rule:nonzero;stroke:none"
           id="path1188" />
      </g>
      <g
         id="g1190"
         transform="matrix(0.35277777,0,0,-0.35277777,101.2913,75.421154)">
        <path
           d="M 0,0 V -0.01 C -0.171,-0.372 -0.342,-0.734 -0.522,-1.085 -0.543,-1.136 -0.572,-1.176 -0.593,-1.227 -0.784,-1.578 -0.975,-1.93 -1.166,-2.271 -1.387,-2.644 -1.608,-3.005 -1.839,-3.367 -2.08,-3.729 -2.321,-4.081 -2.573,-4.433 h -5.799 c 0.874,0.744 1.688,1.548 2.432,2.433 0.512,0.603 0.985,1.236 1.418,1.89 z"
           style="fill:#a2cddb;fill-opacity:1;fill-rule:nonzero;stroke:none"
           id="path1192" />
      </g>
      <g
         id="g1194"
         transform="matrix(0.35277777,0,0,-0.35277777,102.10329,72.024116)">
        <path
           d="m 0,0 -3.327,-0.362 c 0.201,1.558 0.222,3.146 0.07,4.704 l 2.966,0.452 C -0.04,3.196 0.051,1.598 0,0"
           style="fill:#a2cddb;fill-opacity:1;fill-rule:nonzero;stroke:none"
           id="path1196" />
      </g>
      <g
         id="g1198"
         transform="matrix(0.35277777,0,0,-0.35277777,102.25593,56.578376)">
        <path
           d="M 0,0 C -0.01,-0.161 -0.01,-0.321 -0.03,-0.472 -0.04,-0.633 -0.051,-0.784 -0.061,-0.935 H -0.07 l -7.498,-1.357 c 0.331,1.971 0.471,3.96 0.422,5.941 l 6.865,1.708 c 0.019,-0.09 0.03,-0.18 0.04,-0.271 0.06,-0.382 0.1,-0.764 0.131,-1.156 0.019,-0.09 0.029,-0.191 0.029,-0.301 0.02,-0.221 0.041,-0.453 0.051,-0.674 V 2.895 C -0.021,2.834 -0.021,2.784 -0.021,2.724 0.03,1.83 0.04,0.915 0,0"
           style="fill:#a2cddb;fill-opacity:1;fill-rule:nonzero;stroke:none"
           id="path1200" />
      </g>
      <g
         id="g1202"
         transform="matrix(0.35277777,0,0,-0.35277777,84.763977,55.876948)">
        <path
           d="M 0,0 C 0,0 6.072,-3.511 9.979,3.244 L 4.978,4.369 Z"
           style="fill:#4a97cd;fill-opacity:1;fill-rule:nonzero;stroke:none"
           id="path1204" />
      </g>
      <g
         id="g1206"
         transform="matrix(0.35277777,0,0,-0.35277777,92.01984,48.939044)">
        <path
           d="m 0,0 c 0,-4.728 -3.327,-8.562 -7.431,-8.562 -4.104,0 -7.43,3.834 -7.43,8.562 0,4.729 3.326,8.562 7.43,8.562 C -3.327,8.562 0,4.729 0,0"
           style="fill:#ffffff;fill-opacity:1;fill-rule:nonzero;stroke:none"
           id="path1208" />
      </g>
      <g
         id="g1210"
         transform="matrix(0.35277777,0,0,-0.35277777,91.301725,49.46874)">
        <path
           d="m 0,0 c 0,-3.357 -2.358,-6.079 -5.267,-6.079 -2.908,0 -5.266,2.722 -5.266,6.079 0,3.357 2.358,6.079 5.266,6.079 C -2.358,6.079 0,3.357 0,0"
           style="fill:#373338;fill-opacity:1;fill-rule:nonzero;stroke:none"
           id="path1212" />
      </g>
      <g
         id="g1214"
         transform="matrix(0.35277777,0,0,-0.35277777,89.556957,48.551306)">
        <path
           d="m 0,0 c 0,-1.11 -0.899,-2.01 -2.009,-2.01 -1.11,0 -2.01,0.9 -2.01,2.01 0,1.11 0.9,2.009 2.01,2.009 C -0.899,2.009 0,1.11 0,0"
           style="fill:#ffffff;fill-opacity:1;fill-rule:nonzero;stroke:none"
           id="path1216" />
      </g>
      <g
         id="g1218"
         transform="matrix(0.35277777,0,0,-0.35277777,92.407931,51.508925)">
        <path
           d="m 0,0 c 0,-1.334 -1.881,-2.416 -4.201,-2.416 -2.32,0 -4.201,1.082 -4.201,2.416 0,1.334 1.881,2.416 4.201,2.416 C -1.881,2.416 0,1.334 0,0"
           style="fill:#f47481;fill-opacity:1;fill-rule:nonzero;stroke:none"
           id="path1220" />
      </g>
      <g
         id="g1222"
         transform="matrix(0.35277777,0,0,-0.35277777,86.989158,55.472171)">
        <path
           d="m 0,0 c -1.538,-0.901 -3.472,-1.099 -5.021,-0.209 -1.198,0.681 -2.33,2.055 -2.506,4.802 0,0 0.802,-0.077 2.033,0.011 1.055,0.077 2.439,0.286 3.89,0.791 0.406,0.132 0.835,0.297 1.252,0.495 C 0.791,6.417 2.154,5.713 2.308,4.45 2.483,3.021 2.143,1.252 0,0"
           style="fill:#373338;fill-opacity:1;fill-rule:nonzero;stroke:none"
           id="path1224" />
      </g>
      <g
         id="g1226"
         transform="matrix(0.35277777,0,0,-0.35277777,87.30627,54.758008)">
        <path
           d="m 0,0 c 0.188,-0.957 -0.991,-1.995 -2.633,-2.318 -1.643,-0.324 -3.128,0.19 -3.316,1.147 -0.188,0.957 0.991,1.995 2.634,2.318 C -1.673,1.47 -0.188,0.957 0,0"
           style="fill:#f47481;fill-opacity:1;fill-rule:nonzero;stroke:none"
           id="path1228" />
      </g>
      <g
         id="g1230"
         transform="matrix(0.35277777,0,0,-0.35277777,86.881314,54.700293)">
        <path
           d="m 0,0 c 0.123,-0.624 -0.646,-1.3 -1.716,-1.511 -1.07,-0.21 -2.037,0.125 -2.16,0.748 -0.123,0.623 0.646,1.3 1.716,1.511 C -1.09,0.958 -0.123,0.624 0,0"
           style="fill:#f4889c;fill-opacity:1;fill-rule:nonzero;stroke:none"
           id="path1232" />
      </g>
      <g
         id="g1234"
         transform="matrix(0.35277777,0,0,-0.35277777,86.268257,54.270504)">
        <path
           d="m 0,0 -2.231,-0.473 c -0.494,-0.098 -0.967,0.231 -1.055,0.725 l -0.165,0.946 c 1.055,0.076 2.44,0.285 3.89,0.791 L 0.681,1.11 C 0.813,0.615 0.505,0.11 0,0"
           style="fill:#ffffff;fill-opacity:1;fill-rule:nonzero;stroke:none"
           id="path1236" />
      </g>
    </g>
  </g>
</svg>
