<?xml version="1.0" encoding="UTF-8" standalone="no"?>
<!-- Created with Inkscape (http://www.inkscape.org/) -->

<svg
   width="27.471132mm"
   height="36.79343mm"
   viewBox="0 0 27.471132 36.79343"
   version="1.1"
   id="svg2267"
   inkscape:version="1.1-rc (52f87abb86, 2021-05-02)"
   sodipodi:docname="4.svg"
   xmlns:inkscape="http://www.inkscape.org/namespaces/inkscape"
   xmlns:sodipodi="http://sodipodi.sourceforge.net/DTD/sodipodi-0.dtd"
   xmlns="http://www.w3.org/2000/svg"
   xmlns:svg="http://www.w3.org/2000/svg">
  <sodipodi:namedview
     id="namedview2269"
     pagecolor="#ffffff"
     bordercolor="#666666"
     borderopacity="1.0"
     objecttolerance="10.0"
     gridtolerance="10.0"
     guidetolerance="10.0"
     inkscape:pageshadow="2"
     inkscape:pageopacity="0.0"
     inkscape:pagecheckerboard="0"
     inkscape:document-units="mm"
     showgrid="false"
     fit-margin-top="0"
     fit-margin-left="0"
     fit-margin-right="0"
     fit-margin-bottom="0"
     inkscape:zoom="0.94875842"
     inkscape:cx="-555.46279"
     inkscape:cy="320.94577"
     inkscape:window-width="3840"
     inkscape:window-height="2066"
     inkscape:window-x="2869"
     inkscape:window-y="-11"
     inkscape:window-maximized="1"
     inkscape:current-layer="layer1" />
  <defs
     id="defs2264" />
  <g
     inkscape:label="Layer 1"
     inkscape:groupmode="layer"
     id="layer1"
     transform="translate(-252.03063,-63.592017)">
    <g
       id="g9325"
       transform="translate(141.70102,18.884542)">
      <g
         id="g1238"
         transform="matrix(0.35277777,0,0,-0.35277777,118.41894,52.157118)">
        <path
           d="M 0,0 -5.39,10.558 -8.085,7.7 -3.593,-4.207 Z"
           style="fill:#ffd804;fill-opacity:1;fill-rule:nonzero;stroke:none"
           id="path1240" />
      </g>
      <g
         id="g1242"
         transform="matrix(0.35277777,0,0,-0.35277777,117.37849,48.558715)">
        <path
           d="m 0,0 c 0,-2.332 -1.891,-4.222 -4.223,-4.222 -2.332,0 -4.221,1.89 -4.221,4.222 0,2.332 1.889,4.222 4.221,4.222 C -1.891,4.222 0,2.332 0,0"
           style="fill:#f46320;fill-opacity:1;fill-rule:nonzero;stroke:none"
           id="path1244" />
      </g>
      <g
         id="g1246"
         transform="matrix(0.35277777,0,0,-0.35277777,116.80802,48.371319)">
        <path
           d="m 0,0 c 0,-1.583 -1.283,-2.867 -2.867,-2.867 -1.584,0 -2.867,1.284 -2.867,2.867 0,1.583 1.283,2.867 2.867,2.867 C -1.283,2.867 0,1.583 0,0"
           style="fill:#f47920;fill-opacity:1;fill-rule:nonzero;stroke:none"
           id="path1248" />
      </g>
      <g
         id="g1250"
         transform="matrix(0.35277777,0,0,-0.35277777,131.78693,53.92637)">
        <path
           d="M 0,0 10.282,9.37 12.062,5.116 2.209,-6.105 Z"
           style="fill:#ffd804;fill-opacity:1;fill-rule:nonzero;stroke:none"
           id="path1252" />
      </g>
      <g
         id="g1254"
         transform="matrix(0.35277777,0,0,-0.35277777,134.41657,50.404095)">
        <path
           d="M 0,0 C -0.964,-2.561 0.332,-5.418 2.893,-6.382 5.454,-7.345 8.312,-6.05 9.274,-3.489 10.238,-0.927 8.943,1.93 6.382,2.893 3.82,3.857 0.963,2.562 0,0"
           style="fill:#f46320;fill-opacity:1;fill-rule:nonzero;stroke:none"
           id="path1256" />
      </g>
      <g
         id="g1258"
         transform="matrix(0.35277777,0,0,-0.35277777,135.12039,50.433728)">
        <path
           d="m 0,0 c -0.654,-1.739 0.226,-3.68 1.965,-4.334 1.739,-0.654 3.68,0.226 4.334,1.965 C 6.953,-0.63 6.073,1.31 4.334,1.964 2.595,2.619 0.654,1.739 0,0"
           style="fill:#f47920;fill-opacity:1;fill-rule:nonzero;stroke:none"
           id="path1260" />
      </g>
      <g
         id="g1262"
         transform="matrix(0.35277777,0,0,-0.35277777,119.38562,60.191244)">
        <path
           d="m 0,0 14.131,18.256 c 0.47,0.604 1.442,0.268 1.442,-0.492 V -2.772 c 0,-0.492 -0.435,-0.873 -0.927,-0.794 L 0.515,-1.297 C -0.089,-1.196 -0.38,-0.492 0,0 m 42.482,-41.8 v 0.011 l -0.827,27.356 -1.319,43.824 -0.19,6.372 C 40,40.291 36.289,43.891 31.761,43.891 H 11.348 c -3.109,0 -6.004,-1.588 -7.669,-4.215 L -4.55,26.73 l -8.508,-13.382 -9.11,-14.343 -1.219,-1.922 c -2.661,-4.193 -3.018,-9.458 -0.95,-13.986 0.089,-0.201 0.19,-0.414 0.302,-0.604 1.106,-2.169 2.727,-3.98 4.673,-5.332 2.124,-1.465 4.639,-2.382 7.311,-2.572 l 3.13,-0.223 11.65,-0.839 6.741,-0.481 -0.381,-4.918 -1.866,-23.824 c -0.213,-2.604 1.911,-4.807 4.516,-4.706 l 16.49,0.659 h 0.01 l 10.453,0.414 c 2.393,0.1 4.259,2.102 4.181,4.494 z"
           style="fill:#ffd804;fill-opacity:1;fill-rule:nonzero;stroke:none"
           id="path1264" />
      </g>
      <g
         id="g1266"
         transform="matrix(0.35277777,0,0,-0.35277777,134.51026,79.535813)">
        <path
           d="m 0,0 c 0.078,-2.392 -1.788,-4.394 -4.181,-4.494 l -10.453,-0.414 h -0.011 l -16.489,-0.659 c -2.605,-0.101 -4.729,2.102 -4.516,4.706 l 0.156,1.945 c 6.261,0.157 12.498,0.884 18.636,2.169 2.504,0.526 5.232,1.309 6.618,3.466 1.073,1.677 1.085,3.801 1.051,5.791 -0.145,9.625 -0.28,19.251 -0.425,28.876 -0.19,12.421 -0.368,24.83 -0.85,37.239 -0.201,5.422 -0.491,10.956 -2.471,15.998 -0.591,1.498 -1.542,3.041 -2.738,4.103 h 4.561 c 4.528,0 8.239,-3.601 8.384,-8.128 l 0.191,-6.372 1.319,-43.824 0.827,-27.356 v -0.011 z"
           style="fill:#ffb804;fill-opacity:1;fill-rule:nonzero;stroke:none"
           id="path1268" />
      </g>
      <g
         id="g1270"
         transform="matrix(0.35277777,0,0,-0.35277777,123.00227,67.278338)">
        <path
           d="m 0,0 -0.782,-6.864 -6.741,0.481 -11.65,0.838 -3.13,0.224 c -2.672,0.19 -5.187,1.107 -7.311,2.571 -1.946,1.353 -3.567,3.164 -4.673,5.333 -0.112,0.189 -0.213,0.402 -0.302,0.603 -1.822,3.991 -1.766,8.552 0.101,12.454 -0.201,-0.794 -0.369,-1.587 -0.459,-2.404 -0.458,-3.845 0.805,-8.149 4.069,-10.24 1.566,-1.006 3.433,-1.409 5.266,-1.744 C -17.183,-0.291 -8.541,-0.76 0,0"
           style="fill:#ffb804;fill-opacity:1;fill-rule:nonzero;stroke:none"
           id="path1272" />
      </g>
      <g
         id="g1274"
         transform="matrix(0.35277777,0,0,-0.35277777,117.07846,58.574287)">
        <path
           d="m 0,0 c -0.469,-2.526 -2.348,-4.751 -4.773,-5.634 -2.638,-0.962 -5.556,-0.369 -8.351,-0.067 -0.816,0.089 -1.666,0.145 -2.504,0.123 l 9.11,14.343 C -5.008,8.597 -3.543,7.982 -2.403,6.976 -0.469,5.277 0.481,2.538 0,0"
           style="fill:#f47920;fill-opacity:1;fill-rule:nonzero;stroke:none"
           id="path1276" />
      </g>
      <g
         id="g1278"
         transform="matrix(0.35277777,0,0,-0.35277777,126.09803,68.713896)">
        <path
           d="m 0,0 c -0.973,-1.833 -2.761,-3.085 -4.561,-4.125 -1.799,-1.04 -3.7,-1.957 -5.198,-3.398 -0.067,-0.057 -0.123,-0.123 -0.179,-0.19 l 0.38,4.918 -6.741,0.481 c -0.358,2.012 -0.246,4.103 0.425,6.037 0.022,0.09 0.056,0.168 0.089,0.257 1.028,2.772 3.298,5.131 6.115,6.048 2.828,0.906 6.16,0.257 8.273,-1.833 C 0.716,6.115 1.387,2.627 0,0"
           style="fill:#f47920;fill-opacity:1;fill-rule:nonzero;stroke:none"
           id="path1280" />
      </g>
      <g
         id="g1282"
         transform="matrix(0.35277777,0,0,-0.35277777,134.51026,79.535813)">
        <path
           d="m 0,0 c 0.078,-2.392 -1.788,-4.394 -4.181,-4.494 l -10.453,-0.414 c 0.995,0.929 2.147,1.744 2.438,3.03 0.357,1.565 -0.783,3.108 -2.102,4.024 -0.66,0.459 -1.375,0.828 -2.08,1.219 -0.704,0.391 -1.408,0.794 -2.012,1.33 -2.202,1.923 -2.784,5.344 -1.654,8.038 1.14,2.695 3.767,4.618 6.629,5.21 1.364,0.291 2.772,0.291 4.147,0.078 1.51,-0.234 2.986,-0.737 4.338,-1.453 1.722,-0.894 3.243,-2.102 4.539,-3.522 v -0.011 z"
           style="fill:#f47920;fill-opacity:1;fill-rule:nonzero;stroke:none"
           id="path1284" />
      </g>
      <g
         id="g1286"
         transform="matrix(0.35277777,0,0,-0.35277777,134.08069,65.28278)">
        <path
           d="m 0,0 c -0.728,-0.224 -1.487,-0.357 -2.259,-0.391 -2.224,-0.078 -4.427,0.738 -6.148,2.158 -1.141,0.905 -2.069,2.079 -2.661,3.409 -1.509,3.365 -0.883,7.546 1.475,10.386 0.291,0.357 0.615,0.693 0.94,1.04 1.118,1.173 2.28,2.347 2.46,3.923 0.222,2.002 -1.174,3.556 -2.661,5.076 -0.593,0.615 -1.208,1.23 -1.733,1.867 -2.885,3.532 -2.94,9.089 -0.112,12.666 0.391,0.492 0.827,0.939 1.307,1.342 2.192,1.844 5.222,2.705 8.073,2.347 z"
           style="fill:#f47920;fill-opacity:1;fill-rule:nonzero;stroke:none"
           id="path1288" />
      </g>
      <g
         id="g1290"
         transform="matrix(0.35277777,0,0,-0.35277777,126.83978,44.707616)">
        <path
           d="m 0,0 c -0.492,-0.783 -1.196,-1.442 -2.023,-1.878 -1.455,-0.738 -3.142,-0.772 -4.752,-1.029 -1.599,-0.257 -3.321,-0.872 -4.103,-2.292 -0.603,-1.095 -0.515,-2.437 -0.224,-3.633 0.302,-1.207 0.794,-2.37 0.973,-3.6 0.481,-3.398 -1.767,-6.908 -4.975,-8.15 -3.197,-1.229 -7.054,-0.268 -9.502,2.147 -0.391,0.391 -0.76,0.816 -1.074,1.274 l 8.229,12.946 C -15.786,-1.587 -12.891,0 -9.782,0 Z"
           style="fill:#f47920;fill-opacity:1;fill-rule:nonzero;stroke:none"
           id="path1292" />
      </g>
      <g
         id="g1294"
         transform="matrix(0.35277777,0,0,-0.35277777,116.23853,69.234455)">
        <path
           d="m 0,0 -3.13,0.224 c -2.672,0.19 -5.187,1.107 -7.311,2.571 -1.946,1.352 -3.567,3.163 -4.673,5.332 0.804,0.459 1.676,0.806 2.593,1.018 0.146,0.044 0.291,0.078 0.436,0.101 3.343,0.626 6.932,-0.626 9.313,-3.041 0.648,-0.66 1.218,-1.42 1.654,-2.247 C -0.47,2.739 -0.101,1.375 0,0"
           style="fill:#f47920;fill-opacity:1;fill-rule:nonzero;stroke:none"
           id="path1296" />
      </g>
      <g
         id="g1298"
         transform="matrix(0.35277777,0,0,-0.35277777,134.08069,65.28278)">
        <path
           d="m 0,0 c -0.728,-0.224 -1.487,-0.357 -2.259,-0.391 -2.224,-0.078 -4.427,0.738 -6.148,2.158 -0.078,4.941 -0.156,9.893 -0.246,14.835 1.118,1.173 2.28,2.347 2.46,3.923 0.222,2.002 -1.174,3.556 -2.661,5.076 -0.101,4.214 -0.224,8.418 -0.392,12.622 -0.045,1.084 -0.078,2.168 -0.146,3.253 2.192,1.844 5.222,2.705 8.073,2.347 z"
           style="fill:#f46320;fill-opacity:1;fill-rule:nonzero;stroke:none"
           id="path1300" />
      </g>
      <g
         id="g1302"
         transform="matrix(0.35277777,0,0,-0.35277777,134.51026,79.535813)">
        <path
           d="m 0,0 c 0.078,-2.392 -1.788,-4.394 -4.181,-4.494 l -10.453,-0.414 c 0.995,0.929 2.147,1.744 2.438,3.03 0.357,1.565 -0.783,3.108 -2.102,4.024 -0.66,0.459 -1.375,0.828 -2.08,1.219 2.359,0.514 4.841,1.33 6.138,3.354 1.073,1.677 1.085,3.801 1.051,5.791 -0.023,1.833 -0.056,3.678 -0.079,5.511 1.51,-0.234 2.986,-0.737 4.338,-1.453 1.722,-0.894 3.243,-2.102 4.539,-3.522 v -0.011 z"
           style="fill:#f46320;fill-opacity:1;fill-rule:nonzero;stroke:none"
           id="path1304" />
      </g>
      <g
         id="g1306"
         transform="matrix(0.35277777,0,0,-0.35277777,116.23853,69.234455)">
        <path
           d="m 0,0 -3.13,0.224 c -2.672,0.19 -5.187,1.107 -7.311,2.571 -1.946,1.352 -3.567,3.163 -4.673,5.332 0.804,0.459 1.676,0.806 2.593,1.018 0.257,-0.212 0.526,-0.425 0.816,-0.604 1.565,-1.006 3.433,-1.409 5.266,-1.744 1.218,-0.223 2.437,-0.424 3.667,-0.592 0.648,-0.66 1.218,-1.42 1.654,-2.247 C -0.47,2.739 -0.101,1.375 0,0"
           style="fill:#f46320;fill-opacity:1;fill-rule:nonzero;stroke:none"
           id="path1308" />
      </g>
      <g
         id="g1310"
         transform="matrix(0.35277777,0,0,-0.35277777,123.00227,67.278338)">
        <path
           d="m 0,0 -0.782,-6.864 -6.741,0.481 C -7.882,-4.371 -7.77,-2.28 -7.099,-0.346 -4.729,-0.324 -2.358,-0.201 0,0"
           style="fill:#f46320;fill-opacity:1;fill-rule:nonzero;stroke:none"
           id="path1312" />
      </g>
      <g
         id="g1314"
         transform="matrix(0.35277777,0,0,-0.35277777,130.60078,61.924477)">
        <path
           d="m 0,0 c 0,-4.775 -3.286,-8.646 -7.341,-8.646 -4.055,0 -7.341,3.871 -7.341,8.646 0,4.775 3.286,8.646 7.341,8.646 C -3.286,8.646 0,4.775 0,0"
           style="fill:#ffffff;fill-opacity:1;fill-rule:nonzero;stroke:none"
           id="path1316" />
      </g>
      <g
         id="g1318"
         transform="matrix(0.35277777,0,0,-0.35277777,120.56418,60.565047)">
        <path
           d="m 0,0 c 0,-4.256 -2.93,-7.707 -6.544,-7.707 -3.614,0 -6.544,3.451 -6.544,7.707 0,4.256 2.93,7.707 6.544,7.707 C -2.93,7.707 0,4.256 0,0"
           style="fill:#ffffff;fill-opacity:1;fill-rule:nonzero;stroke:none"
           id="path1320" />
      </g>
      <g
         id="g1322"
         transform="matrix(0.35277777,0,0,-0.35277777,119.92858,61.14452)">
        <path
           d="m 0,0 c 0,-3.062 -2.123,-5.543 -4.742,-5.543 -2.62,0 -4.743,2.481 -4.743,5.543 0,3.062 2.123,5.543 4.743,5.543 C -2.123,5.543 0,3.062 0,0"
           style="fill:#373338;fill-opacity:1;fill-rule:nonzero;stroke:none"
           id="path1324" />
      </g>
      <g
         id="g1326"
         transform="matrix(0.35277777,0,0,-0.35277777,118.17397,60.387106)">
        <path
           d="m 0,0 c 0,-0.969 -0.785,-1.754 -1.754,-1.754 -0.969,0 -1.754,0.785 -1.754,1.754 0,0.969 0.785,1.754 1.754,1.754 C -0.785,1.754 0,0.969 0,0"
           style="fill:#ffffff;fill-opacity:1;fill-rule:nonzero;stroke:none"
           id="path1328" />
      </g>
      <g
         id="g1330"
         transform="matrix(0.35277777,0,0,-0.35277777,129.91967,62.431277)">
        <path
           d="m 0,0 c 0,-3.492 -2.422,-6.324 -5.41,-6.324 -2.988,0 -5.41,2.832 -5.41,6.324 0,3.493 2.422,6.324 5.41,6.324 C -2.422,6.324 0,3.493 0,0"
           style="fill:#373338;fill-opacity:1;fill-rule:nonzero;stroke:none"
           id="path1332" />
      </g>
      <g
         id="g1334"
         transform="matrix(0.35277777,0,0,-0.35277777,127.91808,61.567219)">
        <path
           d="m 0,0 c 0,-1.105 -0.896,-2.001 -2.001,-2.001 -1.105,0 -2.001,0.896 -2.001,2.001 0,1.105 0.896,2.001 2.001,2.001 C -0.896,2.001 0,1.105 0,0"
           style="fill:#ffffff;fill-opacity:1;fill-rule:nonzero;stroke:none"
           id="path1336" />
      </g>
      <g
         id="g1338"
         transform="matrix(0.35277777,0,0,-0.35277777,131.79726,64.662138)">
        <path
           d="m 0,0 c 0,-1.587 -2.151,-2.875 -4.804,-2.875 -2.653,0 -4.804,1.288 -4.804,2.875 0,1.588 2.151,2.875 4.804,2.875 C -2.151,2.875 0,1.588 0,0"
           style="fill:#f47481;fill-opacity:1;fill-rule:nonzero;stroke:none"
           id="path1340" />
      </g>
      <g
         id="g1342"
         transform="matrix(0.35277777,0,0,-0.35277777,117.8491,63.010538)">
        <path
           d="m 0,0 c 0,-1.392 -1.886,-2.52 -4.212,-2.52 -2.325,0 -4.211,1.128 -4.211,2.52 0,1.392 1.886,2.52 4.211,2.52 C -1.886,2.52 0,1.392 0,0"
           style="fill:#f47481;fill-opacity:1;fill-rule:nonzero;stroke:none"
           id="path1344" />
      </g>
      <g
         id="g1346"
         transform="matrix(0.35277777,0,0,-0.35277777,123.59966,67.850402)">
        <path
           d="m 0,0 c -0.687,-0.376 -1.515,-0.743 -2.484,-1.007 -4.017,-1.129 -8.42,0.518 -10.312,4.243 -0.094,0.179 -0.187,0.377 -0.272,0.574 -0.48,1.11 -0.443,2.39 0.225,3.397 0.02,0.019 0.029,0.037 0.038,0.056 0.405,0.574 0.969,0.988 1.59,1.204 0.885,0.311 1.882,0.263 2.766,-0.16 1.177,-0.564 3.208,-1.166 6.257,-0.865 1.11,0.113 2.211,-0.245 3.029,-0.95 C 1.261,6.134 1.608,5.673 1.834,5.137 1.844,5.108 1.862,5.071 1.872,5.033 2.644,3.142 1.797,0.979 0,0"
           style="fill:#373338;fill-opacity:1;fill-rule:nonzero;stroke:none"
           id="path1348" />
      </g>
      <g
         id="g1350"
         transform="matrix(0.35277777,0,0,-0.35277777,123.89596,65.561827)">
        <path
           d="m 0,0 c -1.065,-1.467 -3.648,-2.221 -6.483,-1.769 -2.834,0.462 -5.036,2.03 -5.569,3.749 0.323,0.111 0.644,0.171 0.976,0.191 0.602,0.04 1.216,-0.08 1.789,-0.352 1.176,-0.563 3.206,-1.166 6.252,-0.864 0.854,0.08 1.688,-0.101 2.402,-0.513 C -0.402,0.322 -0.19,0.171 0,0"
           style="fill:#d7edf4;fill-opacity:1;fill-rule:nonzero;stroke:none"
           id="path1352" />
      </g>
      <g
         id="g1354"
         transform="matrix(0.35277777,0,0,-0.35277777,123.67268,65.405758)">
        <path
           d="m 0,0 c -1.307,-0.854 -3.327,-1.206 -5.498,-0.864 -2.182,0.351 -3.981,1.366 -4.945,2.593 0.602,0.04 1.215,-0.081 1.789,-0.352 C -7.479,0.814 -5.448,0.211 -2.402,0.513 -1.548,0.593 -0.714,0.412 0,0"
           style="fill:#ffffff;fill-opacity:1;fill-rule:nonzero;stroke:none"
           id="path1356" />
      </g>
      <g
         id="g1358"
         transform="matrix(0.35277777,0,0,-0.35277777,122.74251,67.470214)">
        <path
           d="m 0,0 c -0.207,-1.306 -2.131,-2.085 -4.296,-1.741 -2.164,0.345 -3.751,1.682 -3.543,2.988 0.207,1.306 2.131,2.085 4.296,1.741 C -1.378,2.644 0.208,1.306 0,0"
           style="fill:#f47481;fill-opacity:1;fill-rule:nonzero;stroke:none"
           id="path1360" />
      </g>
      <g
         id="g1362"
         transform="matrix(0.35277777,0,0,-0.35277777,122.40455,67.23992)">
        <path
           d="M 0,0 C -0.124,-0.952 -1.567,-1.549 -3.224,-1.333 -4.88,-1.117 -6.122,-0.17 -5.997,0.782 -5.873,1.734 -4.43,2.331 -2.774,2.115 -1.118,1.899 0.124,0.952 0,0"
           style="fill:#f4889c;fill-opacity:1;fill-rule:nonzero;stroke:none"
           id="path1364" />
      </g>
      <g
         id="g1366"
         transform="matrix(0.35277777,0,0,-0.35277777,120.06087,64.438018)">
        <path
           d="M 0,0 C -0.52,0 -1.03,-0.086 -1.517,-0.257 -2.342,-0.545 -3.079,-1.101 -3.59,-1.824 l -0.003,-0.003 -0.014,-0.021 -0.032,-0.045 -0.006,-0.011 -0.003,-0.007 c -0.831,-1.252 -0.948,-2.878 -0.312,-4.35 0.095,-0.22 0.2,-0.443 0.307,-0.644 1.603,-3.159 4.924,-5.13 8.659,-5.13 0.95,0 1.897,0.13 2.813,0.388 0.919,0.25 1.828,0.618 2.695,1.093 2.265,1.233 3.265,3.915 2.337,6.252 -0.013,0.038 -0.027,0.075 -0.041,0.11 -0.298,0.712 -0.74,1.311 -1.293,1.779 -0.901,0.776 -2.066,1.207 -3.273,1.207 -0.169,0 -0.338,-0.008 -0.507,-0.025 -0.504,-0.05 -1.004,-0.075 -1.482,-0.075 -2.044,0 -3.433,0.46 -4.237,0.847 C 1.389,-0.159 0.691,0 0,0 m 0,-1.005 c 0.536,0 1.078,-0.119 1.582,-0.361 0.96,-0.46 2.488,-0.946 4.673,-0.946 0.494,0 1.021,0.025 1.584,0.081 0.135,0.014 0.27,0.021 0.405,0.021 0.969,0 1.905,-0.352 2.624,-0.971 0.424,-0.358 0.772,-0.819 0.997,-1.355 0.01,-0.028 0.029,-0.066 0.038,-0.104 0.772,-1.891 -0.075,-4.054 -1.872,-5.033 -0.687,-0.376 -1.514,-0.743 -2.484,-1.007 -0.839,-0.236 -1.695,-0.35 -2.541,-0.35 -3.206,0 -6.274,1.646 -7.771,4.593 -0.093,0.179 -0.187,0.377 -0.272,0.574 -0.48,1.111 -0.442,2.39 0.225,3.397 0.02,0.019 0.029,0.037 0.039,0.056 0.404,0.574 0.968,0.988 1.589,1.204 0.38,0.134 0.781,0.201 1.184,0.201"
           style="fill:#ffb804;fill-opacity:1;fill-rule:nonzero;stroke:none"
           id="path1368" />
      </g>
    </g>
  </g>
</svg>
