<?xml version="1.0" encoding="UTF-8" standalone="no"?>
<!-- Created with Inkscape (http://www.inkscape.org/) -->

<svg
   width="29.664923mm"
   height="36.298367mm"
   viewBox="0 0 29.664923 36.298367"
   version="1.1"
   id="svg11851"
   inkscape:version="1.1-rc (52f87abb86, 2021-05-02)"
   sodipodi:docname="5.svg"
   xmlns:inkscape="http://www.inkscape.org/namespaces/inkscape"
   xmlns:sodipodi="http://sodipodi.sourceforge.net/DTD/sodipodi-0.dtd"
   xmlns="http://www.w3.org/2000/svg"
   xmlns:svg="http://www.w3.org/2000/svg">
  <sodipodi:namedview
     id="namedview11853"
     pagecolor="#ffffff"
     bordercolor="#666666"
     borderopacity="1.0"
     objecttolerance="10.0"
     gridtolerance="10.0"
     guidetolerance="10.0"
     inkscape:pageshadow="2"
     inkscape:pageopacity="0.0"
     inkscape:pagecheckerboard="0"
     inkscape:document-units="mm"
     showgrid="false"
     fit-margin-top="0"
     fit-margin-left="0"
     fit-margin-right="0"
     fit-margin-bottom="0"
     inkscape:zoom="0.94875842"
     inkscape:cx="-380.49728"
     inkscape:cy="152.30431"
     inkscape:window-width="3840"
     inkscape:window-height="2066"
     inkscape:window-x="2869"
     inkscape:window-y="-11"
     inkscape:window-maximized="1"
     inkscape:current-layer="layer1" />
  <defs
     id="defs11848" />
  <g
     inkscape:label="Layer 1"
     inkscape:groupmode="layer"
     id="layer1"
     transform="translate(-205.75627,-108.18039)">
    <g
       id="g9369"
       transform="translate(61.707325,63.225276)">
      <g
         id="g1370"
         transform="matrix(0.35277777,0,0,-0.35277777,150.33704,50.191511)">
        <path
           d="m 0,0 c -2.188,2.344 -5.118,3.985 -8.26,4.627 -1.461,0.299 -2.988,0.384 -4.437,0.031 -1.278,-0.31 -2.474,-0.965 -3.402,-1.896 -0.888,-0.892 -1.53,-2.054 -1.688,-3.303 -0.27,-2.14 0.946,-4.293 2.722,-5.517 1.776,-1.223 4.019,-1.615 6.173,-1.502 2.154,0.114 4.251,0.695 6.329,1.273 C -1.291,-4.696 -0.542,-1.963 0,0"
           style="fill:#f48b20;fill-opacity:1;fill-rule:nonzero;stroke:none"
           id="path1372" />
      </g>
      <g
         id="g1374"
         transform="matrix(0.35277777,0,0,-0.35277777,149.73795,51.50395)">
        <path
           d="m 0,0 c -2.171,1.311 -4.562,2.257 -7.041,2.789 -1.107,0.238 -2.293,0.387 -3.349,-0.025 -1.055,-0.411 -1.901,-1.556 -1.616,-2.652 0.231,-0.886 1.088,-1.46 1.94,-1.795 1.449,-0.571 3.045,-0.689 4.597,-0.564 1.553,0.124 3.076,0.484 4.592,0.842 C -0.566,-0.911 -0.311,-0.494 0,0"
           style="fill:#ffd804;fill-opacity:1;fill-rule:nonzero;stroke:none"
           id="path1376" />
      </g>
      <g
         id="g1378"
         transform="matrix(0.35277777,0,0,-0.35277777,149.3869,54.577491)">
        <path
           d="m 0,0 c -3.452,1.017 -7.47,-0.31 -9.637,-3.183 -0.656,-0.868 -1.156,-1.876 -1.307,-2.954 -0.153,-1.077 0.068,-2.229 0.724,-3.097 0.686,-0.908 1.79,-1.438 2.916,-1.593 1.126,-0.155 2.276,0.035 3.366,0.358 2.362,0.7 4.532,2.037 6.219,3.831 C 1.647,-4.522 0.634,-2.115 0,0"
           style="fill:#f47920;fill-opacity:1;fill-rule:nonzero;stroke:none"
           id="path1380" />
      </g>
      <g
         id="g1382"
         transform="matrix(0.35277777,0,0,-0.35277777,149.40962,55.592221)">
        <path
           d="m 0,0 c -0.077,0.171 -1.652,-0.164 -1.842,-0.206 -0.583,-0.128 -1.152,-0.316 -1.697,-0.558 -1.296,-0.574 -3.602,-1.765 -3.577,-3.451 0.009,-0.598 0.467,-1.121 1.015,-1.359 0.548,-0.238 1.17,-0.239 1.765,-0.176 2.249,0.239 4.392,1.372 5.857,3.096 C 1.13,-1.787 0.392,-0.867 0,0"
           style="fill:#ffb804;fill-opacity:1;fill-rule:nonzero;stroke:none"
           id="path1384" />
      </g>
      <g
         id="g1386"
         transform="matrix(0.35277777,0,0,-0.35277777,151.43051,48.154784)">
        <path
           d="m 0,0 48.1,8.958 c 3.726,0.694 7.167,-2.165 7.167,-5.955 v -13.947 c 0,-3.041 -2.255,-5.611 -5.27,-6.006 l -35.498,-4.654 c -1.145,-0.15 -1.993,-1.141 -1.965,-2.296 l 0.117,-4.808 c 0.036,-1.456 1.414,-2.503 2.824,-2.131 9.265,2.443 39.164,7.802 46.574,-22.184 1.668,-6.748 1.531,-13.874 -0.846,-20.407 -4.816,-13.233 -20.283,-29.717 -69.499,-13.941 -2.001,0.642 -3.159,2.739 -2.632,4.772 l 4.221,16.245 c 0.602,2.315 3.099,3.576 5.315,2.673 7.465,-3.039 22.915,-8.052 28.509,-0.232 3.279,4.582 1.083,11.041 -4.111,13.225 -4.343,1.825 -11.706,2.961 -24.167,1.264 -2.837,-0.386 -5.368,1.816 -5.41,4.678 L -7.1,-8.671 C -7.161,-4.437 -4.163,-0.775 0,0"
           style="fill:#f48b20;fill-opacity:1;fill-rule:nonzero;stroke:none"
           id="path1388" />
      </g>
      <g
         id="g1390"
         transform="matrix(0.35277777,0,0,-0.35277777,173.02333,74.056575)">
        <path
           d="m 0,0 c -4.823,-13.232 -20.283,-29.717 -69.503,-13.945 -2.005,0.646 -3.163,2.74 -2.629,4.767 l 1.537,5.926 c 1.493,-2.162 3.665,-3.866 6.027,-5.046 3.363,-1.693 7.105,-2.451 10.803,-3.152 9.869,-1.872 20.272,-3.453 29.75,-0.145 8.421,2.929 15.438,9.88 18,18.423 2.55,8.531 0.378,18.444 -5.87,24.793 -6.249,6.36 -16.418,8.677 -24.637,5.246 -2.819,-1.18 -5.714,-3.018 -8.688,-2.305 -2.975,0.724 -4.745,3.697 -6.171,6.393 -1.916,3.62 -3.898,7.585 -3.163,11.617 0.902,4.957 5.725,8.343 10.614,9.601 3.866,0.992 7.886,1.003 11.885,1.225 0.568,0.034 1.136,0.067 1.704,0.112 2.986,0.234 6.037,0.724 8.766,1.871 1.448,0.59 2.806,1.381 4.01,2.395 3.486,2.952 5.223,8.353 2.839,12.241 -0.412,0.679 -0.923,1.27 -1.503,1.793 l 3.119,0.579 c 3.731,0.691 7.173,-2.172 7.173,-5.959 V 62.485 c 0,-3.041 -2.261,-5.613 -5.28,-6.014 l -7.15,-0.936 -14.302,-1.871 -14.045,-1.838 c -1.137,-0.156 -1.994,-1.147 -1.961,-2.306 l 0.123,-4.8 c 0.033,-1.459 1.414,-2.507 2.818,-2.139 9.267,2.451 39.162,7.808 46.58,-22.176 C 2.506,13.655 2.372,6.527 0,0"
           style="fill:#f47920;fill-opacity:1;fill-rule:nonzero;stroke:none"
           id="path1392" />
      </g>
      <g
         id="g1394"
         transform="matrix(0.35277777,0,0,-0.35277777,166.65372,53.596663)">
        <path
           d="m 0,0 c 0,-0.858 -0.111,-1.682 -0.312,-2.462 -0.935,-3.675 -3.943,-6.371 -7.506,-6.371 -2.919,0 -5.458,1.816 -6.795,4.5 -0.646,1.281 -1.014,2.751 -1.014,4.333 0,2.038 0.613,3.909 1.638,5.402 0.568,0.033 1.135,0.067 1.704,0.111 C -9.3,5.747 -6.248,6.237 -3.52,7.384 -1.403,5.803 0,3.085 0,0"
           style="fill:#f47920;fill-opacity:1;fill-rule:nonzero;stroke:none"
           id="path1396" />
      </g>
      <g
         id="g1398"
         transform="matrix(0.35277777,0,0,-0.35277777,170.40611,72.930014)">
        <path
           d="m 0,0 -1.715,-0.857 -6.059,5.858 10.18,4.4 1.27,0.546 5.046,-5.625 z m 3.888,-9.345 -15.705,-8.32 -3.297,3.442 -2.751,2.873 15.738,7.808 0.066,-0.066 z m -29.884,6.471 16.006,6.917 6.159,-5.947 -15.649,-7.764 z m -7.373,-13.677 h -0.012 l -3.664,-1.816 -1.37,2.384 -3.575,6.204 13.811,5.97 6.605,-6.895 z m 16.484,30.34 11.072,6.739 7.918,-8.833 -11.617,-5.023 z m -8.165,7.875 10.983,8.064 6.739,-7.507 -11.217,-6.839 z m -9.757,9.412 0.457,0.434 10.124,9.546 5.291,-5.904 3.375,-3.764 -11.116,-8.154 z m -22.509,21.719 11.494,12.341 6.426,-7.173 2.284,-2.539 -10.103,-9.022 -1.804,-1.615 z m 45.455,22.221 4.889,-5.993 v -0.01 l 3.988,-4.879 -10.783,-10.169 -4.967,6.883 -3.52,4.879 z M 9.346,6.961 5.826,10.882 9.134,12.308 C 9.089,12.664 9.045,13.032 9,13.399 c 0,0.023 0,0.056 -0.011,0.089 -0.045,0.301 -0.09,0.613 -0.145,0.914 -0.011,0.067 -0.022,0.122 -0.033,0.189 l -4.544,-1.96 -2.15,2.384 -6.004,6.693 3.052,1.872 5.357,3.263 c -0.189,0.334 -0.367,0.646 -0.568,0.958 -0.2,0.323 -0.4,0.624 -0.6,0.936 l -0.012,-0.011 -5.358,-3.264 -3.385,-2.061 -6.862,7.653 2.094,1.536 5.458,4.01 c -0.346,0.223 -0.69,0.423 -1.047,0.624 -0.334,0.19 -0.669,0.368 -1.013,0.546 -0.023,0.011 -0.034,0.022 -0.056,0.033 l -5.658,-4.154 -1.27,-0.936 -1.66,1.86 -6.07,6.772 -0.011,0.011 h -0.179 c -0.055,0 -0.111,0.012 -0.167,0.012 -0.468,0.01 -0.946,0.022 -1.403,0.022 h -0.145 c -0.646,0 -1.292,-0.012 -1.938,-0.045 -0.657,-0.022 -1.303,-0.055 -1.938,-0.111 l -9.144,-8.61 -9.524,9.178 -1.481,1.437 0.735,0.657 11.049,9.868 3.742,-4.165 2.685,0.345 -4.756,5.313 5.314,4.744 4.733,4.233 2.706,-3.754 5.804,-8.052 -0.825,-0.78 3.776,0.501 10.882,10.259 2.996,-3.676 c 0.022,0.189 0.055,0.368 0.055,0.557 v 2.907 l -1.425,1.738 1.425,1.347 v 3.063 l -2.839,-2.673 -4.913,6.003 -3.931,4.824 1.86,1.659 0.757,0.679 -1.214,-0.222 H -8.81 l -5.202,-0.981 0.736,-0.891 -10.281,-9.2 -5.291,7.329 -2.427,-0.445 6.047,-8.376 -7.084,-6.327 -3.14,-2.806 -1.682,1.882 -7.162,7.975 5.869,6.315 -3.675,-0.679 -3.687,-3.966 -2.517,2.807 -2.573,-0.479 3.565,-3.965 -11.607,-12.464 -1.893,1.816 0.055,-3.141 0.323,-0.312 -0.323,-0.334 0.056,-3.219 1.86,2.005 8.164,-7.864 -9.812,-8.765 0.067,-4.678 8.331,-8.7 c 0.981,0.101 1.927,0.19 2.84,0.257 l -10.414,10.871 10.593,9.467 6.315,-6.093 4.165,-4.02 0.558,-0.546 -10.181,-9.601 c 1.192,0.077 2.328,0.122 3.398,0.144 l 8.386,7.909 7.942,-7.652 -2.885,-2.116 c 0.2,-0.079 0.401,-0.146 0.591,-0.234 0.59,-0.245 1.125,-0.546 1.626,-0.891 l 2.294,1.681 6.36,-6.137 -4.634,-2.829 c 0.023,-0.969 -0.111,-1.927 -0.434,-2.874 l 6.717,4.099 7.128,-6.872 -15.906,-6.872 -3.876,4.054 c -0.802,-0.267 -1.659,-0.457 -2.539,-0.568 l 4.233,-4.422 -13.288,-5.747 -6.572,11.417 0.924,0.679 c -1.76,0.535 -3.408,1.114 -4.855,1.671 l 1.002,-1.738 -9.657,-7.095 -0.88,-3.408 11.662,8.565 6.315,-10.982 -9.145,-3.955 -8.921,-3.853 c 0.167,-0.123 0.345,-0.234 0.535,-0.345 0.2,-0.101 0.4,-0.19 0.612,-0.257 0.301,-0.1 0.602,-0.189 0.902,-0.278 0.301,-0.089 0.59,-0.189 0.891,-0.267 l 9.312,4.02 6.939,2.997 2.818,-4.89 2.183,-3.798 -4.979,-2.473 c 1.27,-0.233 2.506,-0.457 3.709,-0.646 l 2.384,1.181 0.946,-1.648 c 0.357,-0.045 0.703,-0.09 1.047,-0.123 0.502,-0.067 1.003,-0.111 1.504,-0.156 0.067,-0.011 0.134,-0.022 0.2,-0.022 l -1.692,2.94 7.239,3.587 8.722,4.332 2.551,-2.661 3.542,-3.699 -8.856,-4.689 c 0.569,0.045 1.125,0.089 1.682,0.145 h 0.034 l 1.614,0.189 c 0.513,0.067 1.026,0.145 1.527,0.234 0.512,0.078 1.013,0.179 1.504,0.279 l 4.098,2.172 0.835,-0.88 c 0.391,0.133 0.781,0.267 1.159,0.412 0.378,0.145 0.747,0.279 1.114,0.434 l -1.07,1.114 11.685,6.182 c 0.223,0.245 0.445,0.49 0.657,0.746 0.167,0.2 0.334,0.401 0.489,0.591 0.357,0.456 0.703,0.902 1.026,1.359 0.178,0.245 0.345,0.489 0.501,0.734 0.144,0.212 0.278,0.435 0.423,0.646 0.156,0.245 0.3,0.491 0.446,0.736 0.122,0.211 0.245,0.434 0.367,0.657 l -5.38,5.19 8.799,4.367 c 0.023,0.077 0.045,0.155 0.056,0.233 0.045,0.234 0.078,0.479 0.111,0.713 0.034,0.189 0.067,0.379 0.09,0.568 0.044,0.323 0.089,0.646 0.122,0.98 0.033,0.335 0.067,0.68 0.089,1.014 0.045,0.456 0.078,0.902 0.09,1.359 0.01,0.055 0.01,0.1 0.01,0.145 V 6.95 Z"
           style="fill:#ffd804;fill-opacity:1;fill-rule:nonzero;stroke:none"
           id="path1400" />
      </g>
      <g
         id="g1402"
         transform="matrix(0.35277777,0,0,-0.35277777,158.42577,53.436643)">
        <path
           d="m 0,0 4.756,-5.313 -2.685,-0.345 -3.742,4.165 -11.049,-9.868 c -0.256,0.824 -0.445,1.671 -0.535,2.506 l 10.103,9.022 -2.284,2.54 c 0.736,0.334 1.494,0.612 2.262,0.835 L -1.492,1.66 1.648,4.466 C 2.862,4.6 4.088,4.678 5.313,4.745 Z"
           style="fill:#ffb804;fill-opacity:1;fill-rule:nonzero;stroke:none"
           id="path1404" />
      </g>
      <g
         id="g1406"
         transform="matrix(0.35277777,0,0,-0.35277777,167.46331,45.358068)">
        <path
           d="M 0,0 C -0.146,0.156 -0.301,0.301 -0.457,0.457 L 0.757,0.68 Z"
           style="fill:#ffb804;fill-opacity:1;fill-rule:nonzero;stroke:none"
           id="path1408" />
      </g>
      <g
         id="g1410"
         transform="matrix(0.35277777,0,0,-0.35277777,170.92871,48.8197)">
        <path
           d="m 0,0 v -9.056 c 0,-0.189 -0.033,-0.367 -0.056,-0.556 l -2.996,3.675 -10.882,-10.258 -3.775,-0.501 0.824,0.779 -5.803,8.053 c 0.824,0.101 1.66,0.223 2.472,0.368 l 4.968,-6.883 10.782,10.169 -3.987,4.878 v 0.011 c 0.356,0.858 0.59,1.749 0.701,2.651 l 4.912,-6.003 z"
           style="fill:#ffb804;fill-opacity:1;fill-rule:nonzero;stroke:none"
           id="path1412" />
      </g>
      <g
         id="g1414"
         transform="matrix(0.35277777,0,0,-0.35277777,154.89733,59.609549)">
        <path
           d="m 0,0 c -0.69,1.303 -1.393,2.651 -1.972,4.043 l 9.524,-9.178 9.144,8.61 c 0.635,0.056 1.281,0.089 1.938,0.111 0.646,0.034 1.292,0.045 1.938,0.045 h 0.145 c 0.457,0 0.935,-0.011 1.403,-0.022 0.056,0 0.111,-0.011 0.167,-0.011 0.067,0 0.123,0 0.19,-0.012 l 6.07,-6.772 c -1.158,0.279 -2.339,0.479 -3.52,0.58 L 19.736,3.297 9.612,-6.249 C 8.477,-6.561 7.329,-6.672 6.171,-6.394 5.892,-6.327 5.625,-6.237 5.368,-6.126 L 1.203,-2.105 C 0.769,-1.415 0.367,-0.702 0,0"
           style="fill:#ffb804;fill-opacity:1;fill-rule:nonzero;stroke:none"
           id="path1416" />
      </g>
      <g
         id="g1418"
         transform="matrix(0.35277777,0,0,-0.35277777,168.37488,59.798179)">
        <path
           d="m 0,0 c 0.356,-0.201 0.701,-0.401 1.047,-0.624 l -5.458,-4.01 c -0.746,0.402 -1.526,0.747 -2.317,1.059 l 5.659,4.154 C -1.047,0.568 -1.036,0.557 -1.014,0.546 -0.669,0.368 -0.334,0.189 0,0"
           style="fill:#ffb804;fill-opacity:1;fill-rule:nonzero;stroke:none"
           id="path1420" />
      </g>
      <g
         id="g1422"
         transform="matrix(0.35277777,0,0,-0.35277777,172.00155,63.460295)">
        <path
           d="m 0,0 -5.357,-3.264 c -0.357,0.646 -0.757,1.282 -1.181,1.883 l 5.357,3.263 0.012,0.012 c 0.2,-0.312 0.4,-0.613 0.601,-0.936 C -0.367,0.646 -0.189,0.334 0,0"
           style="fill:#ffb804;fill-opacity:1;fill-rule:nonzero;stroke:none"
           id="path1424" />
      </g>
      <g
         id="g1426"
         transform="matrix(0.35277777,0,0,-0.35277777,152.42167,77.751251)">
        <path
           d="m 0,0 -9.312,-4.021 c -0.3,0.078 -0.589,0.178 -0.89,0.268 -0.301,0.088 -0.602,0.178 -0.902,0.278 -0.212,0.067 -0.413,0.156 -0.613,0.256 -0.189,0.112 -0.368,0.223 -0.535,0.345 L -3.33,0.98 C -2.238,0.59 -1.125,0.268 0,0"
           style="fill:#ffb804;fill-opacity:1;fill-rule:nonzero;stroke:none"
           id="path1428" />
      </g>
      <g
         id="g1430"
         transform="matrix(0.35277777,0,0,-0.35277777,157.73437,80.093061)">
        <path
           d="m 0,0 1.692,-2.94 c -0.066,0 -0.133,0.011 -0.2,0.022 -0.501,0.044 -1.002,0.089 -1.504,0.156 -0.344,0.033 -0.69,0.077 -1.047,0.122 l -0.946,1.649 -2.384,-1.181 c -1.203,0.178 -2.439,0.401 -3.709,0.646 l 4.979,2.473 -2.183,3.798 c 0.936,-0.156 1.871,-0.301 2.807,-0.423 l 1.37,-2.384 3.664,1.815 H 2.551 C 4.121,3.642 5.68,3.586 7.239,3.586 Z"
           style="fill:#ffb804;fill-opacity:1;fill-rule:nonzero;stroke:none"
           id="path1432" />
      </g>
      <g
         id="g1434"
         transform="matrix(0.35277777,0,0,-0.35277777,173.70684,70.501562)">
        <path
           d="m 0,0 c 0,-0.045 0,-0.089 -0.011,-0.145 -0.011,-0.457 -0.045,-0.902 -0.09,-1.359 -0.021,-0.334 -0.055,-0.679 -0.088,-1.014 -0.034,-0.334 -0.079,-0.657 -0.123,-0.98 -0.022,-0.189 -0.055,-0.378 -0.089,-0.567 -0.034,-0.235 -0.067,-0.479 -0.112,-0.713 -0.01,-0.078 -0.033,-0.157 -0.055,-0.234 l -8.799,-4.366 5.38,-5.191 c -0.122,-0.223 -0.245,-0.446 -0.367,-0.657 -0.146,-0.245 -0.291,-0.49 -0.447,-0.735 -0.144,-0.212 -0.278,-0.435 -0.423,-0.646 -0.156,-0.246 -0.323,-0.49 -0.501,-0.735 -0.323,-0.457 -0.669,-0.903 -1.025,-1.359 -0.155,-0.19 -0.322,-0.39 -0.489,-0.591 -0.212,-0.256 -0.435,-0.501 -0.657,-0.746 l -11.685,-6.182 1.069,-1.113 c -0.367,-0.156 -0.735,-0.29 -1.113,-0.435 -0.379,-0.145 -0.769,-0.278 -1.159,-0.412 l -0.835,0.88 -4.099,-2.172 c -0.49,-0.1 -0.991,-0.2 -1.504,-0.278 -0.501,-0.089 -1.013,-0.167 -1.526,-0.234 l -1.614,-0.19 h -0.034 c -0.557,-0.055 -1.114,-0.1 -1.682,-0.144 l 8.855,4.689 -3.542,3.698 c 0.267,0.066 0.546,0.167 0.813,0.256 0.501,0.178 0.991,0.367 1.481,0.568 l 3.297,-3.442 15.705,8.32 -5.948,5.737 c 0.78,1.147 1.471,2.339 2.061,3.597 v 0.011 l 8.721,4.322 -5.046,5.625 -1.269,-0.546 c 0.111,1.871 0.011,3.765 -0.289,5.614 L -5.09,5.747 -0.546,7.708 C -0.534,7.641 -0.523,7.585 -0.513,7.518 -0.457,7.217 -0.412,6.905 -0.367,6.604 -0.356,6.571 -0.356,6.538 -0.356,6.516 -0.312,6.148 -0.268,5.78 -0.223,5.424 L -3.53,3.999 -0.011,0.078 C -0.011,0.056 -0.011,0.022 0,0"
           style="fill:#ffb804;fill-opacity:1;fill-rule:nonzero;stroke:none"
           id="path1436" />
      </g>
      <g
         id="g1438"
         transform="matrix(0.35277777,0,0,-0.35277777,160.43463,50.323485)">
        <path
           d="M 0,0 C -1.88,2.411 -5.248,3.55 -8.206,2.776 -11.164,2.002 -13.542,-0.641 -14,-3.665"
           style="fill:none;stroke:#373338;stroke-width:2.228;stroke-linecap:round;stroke-linejoin:round;stroke-miterlimit:10;stroke-dasharray:none;stroke-opacity:1"
           id="path1440" />
      </g>
      <g
         id="g1442"
         transform="matrix(0.35277777,0,0,-0.35277777,165.71769,53.813022)">
        <path
           d="m 0,0 c 0,-3.302 -2.385,-5.979 -5.325,-5.979 -2.942,0 -5.326,2.677 -5.326,5.979 0,3.302 2.384,5.979 5.326,5.979 C -2.385,5.979 0,3.302 0,0"
           style="fill:#373338;fill-opacity:1;fill-rule:nonzero;stroke:none"
           id="path1444" />
      </g>
      <g
         id="g1446"
         transform="matrix(0.35277777,0,0,-0.35277777,165.14132,54.709783)">
        <path
           d="m 0,0 c 0,-1.376 -1.556,-2.491 -3.476,-2.491 -1.92,0 -3.475,1.115 -3.475,2.491 0,1.376 1.555,2.491 3.475,2.491 C -1.556,2.491 0,1.376 0,0"
           style="fill:#f47481;fill-opacity:1;fill-rule:nonzero;stroke:none"
           id="path1448" />
      </g>
      <g
         id="g1450"
         transform="matrix(0.35277777,0,0,-0.35277777,164.92324,54.523904)">
        <path
           d="m 0,0 c 0,-0.949 -1.199,-1.719 -2.679,-1.719 -1.478,0 -2.677,0.77 -2.677,1.719 0,0.949 1.199,1.719 2.677,1.719 C -1.199,1.719 0,0.949 0,0"
           style="fill:#f4889c;fill-opacity:1;fill-rule:nonzero;stroke:none"
           id="path1452" />
      </g>
    </g>
  </g>
</svg>
