<?xml version="1.0" encoding="UTF-8" standalone="no"?>
<!-- Created with Inkscape (http://www.inkscape.org/) -->

<svg
   width="25.071764mm"
   height="36.367867mm"
   viewBox="0 0 25.071764 36.367867"
   version="1.1"
   id="svg12232"
   inkscape:version="1.1-rc (52f87abb86, 2021-05-02)"
   sodipodi:docname="6.svg"
   xmlns:inkscape="http://www.inkscape.org/namespaces/inkscape"
   xmlns:sodipodi="http://sodipodi.sourceforge.net/DTD/sodipodi-0.dtd"
   xmlns="http://www.w3.org/2000/svg"
   xmlns:svg="http://www.w3.org/2000/svg">
  <sodipodi:namedview
     id="namedview12234"
     pagecolor="#ffffff"
     bordercolor="#666666"
     borderopacity="1.0"
     objecttolerance="10.0"
     gridtolerance="10.0"
     guidetolerance="10.0"
     inkscape:pageshadow="2"
     inkscape:pageopacity="0.0"
     inkscape:pagecheckerboard="0"
     inkscape:document-units="mm"
     showgrid="false"
     fit-margin-top="0"
     fit-margin-left="0"
     fit-margin-right="0"
     fit-margin-bottom="0"
     inkscape:zoom="0.94875842"
     inkscape:cx="-232.93601"
     inkscape:cy="-53.227459"
     inkscape:window-width="3840"
     inkscape:window-height="2066"
     inkscape:window-x="2869"
     inkscape:window-y="-11"
     inkscape:window-maximized="1"
     inkscape:current-layer="layer1" />
  <defs
     id="defs12229" />
  <g
     inkscape:label="Layer 1"
     inkscape:groupmode="layer"
     id="layer1"
     transform="translate(-166.77961,-162.52593)">
    <g
       id="g9451"
       transform="translate(148.77886,74.299005)">
      <g
         id="g1454"
         transform="matrix(0.35277777,0,0,-0.35277777,32.374573,117.77121)">
        <path
           d="m 0,0 c -5.336,0 -9.674,3.963 -9.674,8.846 0,4.894 4.338,8.857 9.674,8.857 5.337,0 9.675,-3.963 9.675,-8.857 C 9.675,3.963 5.337,0 0,0 m -5.144,39.22 c -2.554,-0.477 -5.121,-1.34 -7.596,-2.725 0,0 4.746,13.251 24.265,24.719 3.509,2.067 4.838,6.507 2.896,10.083 C 12.275,75.26 8.369,79.95 1.329,82.8 -3.247,84.651 -8.482,83.742 -12.195,80.495 -23.743,70.4 -33.122,57.342 -37.505,42.547 c -4.44,-15.034 -3.554,-33.599 5.371,-46.907 8.88,-13.263 25.605,-17.225 40.582,-13.83 10.651,2.407 19.111,10.741 21.234,21.449 0.102,0.522 0.193,1.056 0.272,1.59 3.202,20.348 -14.874,38.22 -35.098,34.371"
           style="fill:#bae1f0;fill-opacity:1;fill-rule:nonzero;stroke:none"
           id="path1456" />
      </g>
      <g
         id="g1458"
         transform="matrix(0.35277777,0,0,-0.35277777,42.941714,116.06073)">
        <path
           d="m 0,0 c -0.079,-0.534 -0.17,-1.067 -0.272,-1.59 -2.124,-10.707 -10.583,-19.041 -21.234,-21.449 -14.977,-3.395 -31.702,0.568 -40.582,13.831 -3.145,4.689 -5.291,10.026 -6.552,15.635 1.749,-5.439 4.758,-10.458 9.152,-14.057 7.608,-6.211 18.679,-8.994 28.342,-9.175 12.365,-0.25 24.004,6.949 25.003,20.053 0.693,8.993 -4.099,17.986 -11.468,23.175 -1.306,0.92 -2.691,1.737 -4.145,2.407 -1.987,0.954 -4.087,1.635 -6.245,2.01 -2.044,0.352 -4.145,0.42 -6.222,0.216 -5.144,-0.489 -10.163,-2.635 -13.831,-6.234 -2.759,2.691 -2.884,7.244 -1.34,10.776 1.545,3.531 4.417,6.267 7.222,8.913 4.94,4.633 9.868,9.266 14.796,13.899 3.361,3.156 6.994,7.04 6.483,11.615 -0.238,2.079 -1.283,3.816 -2.736,5.292 4.008,-2.669 6.518,-5.962 8.096,-8.868 1.942,-3.577 0.613,-8.017 -2.896,-10.083 -19.519,-11.469 -24.265,-24.72 -24.265,-24.72 2.475,1.385 5.042,2.249 7.596,2.725 0.227,0.046 0.454,0.08 0.67,0.114 4.871,0.817 9.607,0.374 13.933,-1.056 C -7.097,29.035 2.396,15.204 0,0"
           style="fill:#a2cddb;fill-opacity:1;fill-rule:nonzero;stroke:none"
           id="path1460" />
      </g>
      <g
         id="g1462"
         transform="matrix(0.35277777,0,0,-0.35277777,35.788333,105.50632)">
        <path
           d="m 0,0 c 0,-1.658 -0.466,-3.19 -1.272,-4.451 -1.987,0.954 -4.088,1.635 -6.245,2.01 -2.044,0.352 -4.145,0.42 -6.223,0.215 -0.193,0.705 -0.295,1.454 -0.295,2.226 0,0.409 0.035,0.818 0.091,1.204 0.511,3.724 3.418,6.574 6.926,6.574 3.827,0 6.95,-3.406 7.006,-7.63 C 0,0.103 0,0.045 0,0"
           style="fill:#a2cddb;fill-opacity:1;fill-rule:nonzero;stroke:none"
           id="path1464" />
      </g>
      <g
         id="g1466"
         transform="matrix(0.35277777,0,0,-0.35277777,35.788333,105.50632)">
        <path
           d="m 0,0 c 0,-1.658 -0.466,-3.19 -1.272,-4.451 -1.987,0.954 -4.088,1.635 -6.245,2.01 -2.044,0.352 -4.145,0.42 -6.223,0.215 -0.193,0.705 -0.295,1.454 -0.295,2.226 0,0.409 0.035,0.818 0.091,1.204 0.511,3.724 3.418,6.574 6.926,6.574 3.827,0 6.95,-3.406 7.006,-7.63 C 0,0.103 0,0.045 0,0 Z"
           style="fill:none;stroke:#a2cddb;stroke-width:3.406;stroke-linecap:butt;stroke-linejoin:miter;stroke-miterlimit:10;stroke-dasharray:none;stroke-opacity:1"
           id="path1468" />
      </g>
      <g
         id="g1470"
         transform="matrix(0.35277777,0,0,-0.35277777,33.167794,93.368229)">
        <path
           d="m 0,0 c -1.124,0.443 -2.055,1.533 -2.373,2.771 -0.25,0.954 -0.103,1.828 0.431,2.486 0.534,0.659 1.42,1.022 2.339,1.022 0.591,0 1.193,-0.147 1.727,-0.454 C 3.384,5.099 4.247,3.588 4.372,1.885 4.417,1.261 4.36,0.636 4.224,0.034 2.68,-0.454 1.215,-0.477 0,0 m -11.094,-1.374 c -0.67,-1.044 -1.328,-1.68 -2.078,-1.998 -0.715,-0.307 -1.771,-0.273 -2.305,0.397 -0.397,0.5 -0.272,1.101 -0.159,1.42 0.273,0.749 0.954,1.373 1.67,1.521 0.204,0.046 0.408,0.057 0.612,0.057 0.932,0 1.84,-0.42 2.556,-0.897 -0.091,-0.159 -0.194,-0.33 -0.296,-0.5 M 11.537,3.225 C 11.377,3.475 11.219,3.736 11.048,3.986 10.072,3.509 9.163,2.884 8.278,2.26 7.755,1.896 7.222,1.521 6.688,1.181 6.381,1 6.086,0.829 5.78,0.682 5.677,0.625 5.564,0.568 5.461,0.522 5.519,1 5.541,1.488 5.496,1.976 5.348,4.042 4.27,5.894 2.691,6.802 0.84,7.869 -1.578,7.506 -2.828,5.973 -3.588,5.03 -3.815,3.792 -3.475,2.476 -3.066,0.909 -1.862,-0.488 -0.42,-1.056 1.011,-1.624 2.464,-1.578 3.77,-1.271 3.236,-2.418 2.384,-3.406 1.317,-4.065 -0.681,-5.28 -3.361,-5.291 -5.359,-4.076 c -0.909,0.545 -1.659,1.305 -2.453,2.1 -0.42,0.421 -0.84,0.841 -1.283,1.227 -0.08,0.068 -0.159,0.147 -0.25,0.215 0.965,2.078 1.317,4.326 0.965,6.359 -0.511,2.873 -2.453,5.337 -4.962,6.279 -0.023,0 -0.057,0.012 -0.079,0.012 -0.352,-0.25 -0.693,-0.511 -1.022,-0.795 -0.023,-0.023 -0.046,-0.046 -0.08,-0.068 0.261,-0.057 0.523,-0.125 0.784,-0.216 2.135,-0.806 3.803,-2.93 4.235,-5.405 0.307,-1.748 0.023,-3.668 -0.772,-5.473 -1.101,0.704 -2.475,1.226 -3.929,0.92 -1.09,-0.227 -2.101,-1.136 -2.498,-2.248 -0.329,-0.909 -0.204,-1.829 0.329,-2.51 0.897,-1.124 2.51,-1.226 3.657,-0.738 0.953,0.409 1.782,1.181 2.577,2.43 0.091,0.136 0.17,0.284 0.261,0.42 0.011,-0.011 0.023,-0.022 0.034,-0.034 0.432,-0.375 0.829,-0.783 1.238,-1.181 0.806,-0.806 1.635,-1.646 2.657,-2.26 1.17,-0.715 2.543,-1.067 3.917,-1.067 0.909,0 1.806,0.159 2.646,0.466 0.454,0.159 0.886,0.363 1.295,0.613 1.544,0.943 2.691,2.464 3.247,4.178 0.84,0.33 1.578,0.727 2.123,1.068 0.568,0.352 1.113,0.738 1.658,1.113 0.909,0.647 1.783,1.249 2.726,1.692 -0.046,0.068 -0.08,0.136 -0.125,0.204"
           style="fill:#4a97cd;fill-opacity:1;fill-rule:nonzero;stroke:none"
           id="path1472" />
      </g>
      <g
         id="g1474"
         transform="matrix(0.35277777,0,0,-0.35277777,27.171278,100.00966)">
        <path
           d="m 0,0 c 0.443,-0.386 0.727,-1.022 0.727,-1.624 0,-0.295 -0.08,-0.715 -0.421,-1.022 -0.386,-0.317 -0.863,-0.284 -1.113,-0.238 -0.579,0.113 -1.112,0.5 -1.373,0.999 -0.488,0.943 -0.239,2.032 0.034,2.76 C -1.374,0.75 -0.591,0.511 0,0 M 8.959,5.053 C 8.448,5.405 7.903,5.7 7.312,5.916 3.577,7.29 -0.943,5.575 -2.839,2.078 -3.009,2.089 -3.18,2.101 -3.35,2.101 L -4.02,2.124 C -5.121,2.146 -6.166,2.157 -7.097,2.521 -8.573,3.1 -9.652,4.61 -9.72,6.2 c -0.068,1.59 0.897,3.179 2.328,3.861 0.363,0.181 0.749,0.306 1.169,0.442 0.591,0.182 1.193,0.375 1.749,0.716 1.022,0.635 1.703,1.714 1.896,3.043 0.239,1.544 -0.227,3.202 -1.203,4.326 -0.795,0.92 -1.897,1.59 -3.157,1.964 -0.284,-0.318 -0.557,-0.635 -0.829,-0.965 1.17,-0.25 2.305,-0.795 3.134,-1.737 0.761,-0.886 1.124,-2.192 0.943,-3.418 -0.16,-0.988 -0.648,-1.794 -1.386,-2.248 -0.443,-0.273 -0.942,-0.432 -1.487,-0.602 -0.443,-0.136 -0.886,-0.284 -1.329,-0.488 -1.828,-0.886 -3.043,-2.919 -2.963,-4.94 0.079,-2.032 1.453,-3.951 3.349,-4.689 1.124,-0.432 2.317,-0.454 3.464,-0.477 l 0.658,-0.011 c 0.023,-0.012 0.046,-0.012 0.068,-0.012 -0.397,-1.226 -0.363,-2.407 0.125,-3.372 0.409,-0.795 1.238,-1.408 2.169,-1.59 0.147,-0.023 0.284,-0.045 0.431,-0.057 h 0.114 c 0.568,0 1.102,0.193 1.521,0.556 0.523,0.443 0.818,1.114 0.818,1.863 v 0.011 c 0,0.931 -0.42,1.874 -1.113,2.476 C 0.057,1.454 -0.772,1.76 -1.601,1.93 0.125,4.633 3.895,5.973 6.915,4.849 7.335,4.689 7.732,4.485 8.107,4.247 9.776,3.191 10.98,1.385 11.389,-0.556 v -0.012 c 0.306,0.307 0.613,0.625 0.942,0.943 V 0.386 C 11.775,2.26 10.583,3.952 8.959,5.053"
           style="fill:#4a97cd;fill-opacity:1;fill-rule:nonzero;stroke:none"
           id="path1476" />
      </g>
      <g
         id="g1478"
         transform="matrix(0.35277777,0,0,-0.35277777,23.117438,118.46004)">
        <path
           d="m 0,0 c -0.182,-0.84 -0.557,-1.635 -1.147,-2.419 -0.488,-0.67 -1.147,-1.328 -1.964,-1.987 -0.262,-0.216 -0.545,-0.408 -0.818,-0.613 0,0.011 -0.011,0.011 -0.011,0.022 -0.17,0.194 -0.33,0.398 -0.477,0.602 -0.068,0.091 -0.136,0.182 -0.205,0.273 0.262,0.193 0.534,0.386 0.795,0.602 0.738,0.59 1.317,1.181 1.749,1.76 0.511,0.658 0.817,1.317 0.965,1.998 0.295,1.363 -0.466,3.191 -1.749,4.179 C -3.781,5.121 -5.28,4.394 -6.086,3.906 -6.461,3.679 -6.847,3.44 -7.245,3.236 -7.744,2.975 -8.255,2.759 -8.777,2.646 -8.948,2.998 -9.107,3.361 -9.266,3.713 h 0.012 c 0.431,0.045 0.874,0.216 1.317,0.443 0.386,0.193 0.783,0.431 1.169,0.67 1.942,1.169 3.497,1.328 4.599,0.488 C -0.545,4.065 0.386,1.783 0,0"
           style="fill:#4a97cd;fill-opacity:1;fill-rule:nonzero;stroke:none"
           id="path1480" />
      </g>
      <g
         id="g1482"
         transform="matrix(0.35277777,0,0,-0.35277777,21.855481,113.30878)">
        <path
           d="m 0,0 c -0.272,-0.022 -0.545,-0.022 -0.806,0.023 -0.738,0.102 -1.499,0.579 -1.851,1.181 -0.216,0.363 -0.261,0.715 -0.136,1.056 0.204,0.545 0.795,0.636 1.044,0.658 h 0.137 c 0.658,0 1.283,-0.318 1.544,-0.806 C 0.284,1.465 0.25,0.704 0,0 m 4.145,7.937 c -0.784,1.17 -1.942,2.067 -3.259,2.521 -1.113,0.375 -2.271,0.443 -3.384,0.5 -0.67,0.034 -1.306,0.056 -1.93,0.159 -1.533,0.227 -3.179,1.112 -3.406,2.531 -0.228,1.454 1.101,2.76 1.691,3.248 0.341,0.295 0.704,0.557 1.068,0.829 0.84,0.625 1.692,1.26 2.35,2.146 1.079,1.476 1.385,3.475 0.784,5.201 -0.364,1.055 -1.045,1.975 -1.931,2.645 0.772,1.817 1.363,4.247 0.5,6.484 -0.375,0.954 -1.079,1.794 -1.93,2.384 -0.159,-0.352 -0.307,-0.715 -0.455,-1.078 0.579,-0.454 1.068,-1.045 1.318,-1.715 0.704,-1.828 0.238,-3.883 -0.409,-5.473 -0.296,0.148 -0.613,0.261 -0.931,0.352 -0.806,0.227 -1.567,0.227 -2.226,0.023 -0.147,-0.511 -0.295,-1.011 -0.42,-1.533 0.091,0.102 0.193,0.193 0.306,0.261 0.307,0.193 0.693,0.284 1.125,0.284 0.295,0 0.601,-0.045 0.908,-0.125 0.261,-0.08 0.523,-0.17 0.772,-0.295 -0.352,-0.67 -0.829,-1.408 -1.521,-1.76 -0.375,-0.193 -0.874,-0.227 -1.284,-0.091 -0.193,0.068 -0.454,0.216 -0.579,0.488 -0.102,-0.431 -0.204,-0.874 -0.295,-1.317 0.159,-0.091 0.318,-0.182 0.5,-0.238 0.704,-0.25 1.521,-0.193 2.18,0.147 0.931,0.477 1.521,1.34 1.953,2.146 0.602,-0.522 1.079,-1.192 1.351,-1.964 0.477,-1.385 0.238,-2.975 -0.636,-4.156 C -4.19,19.792 -4.951,19.235 -5.757,18.633 -6.131,18.35 -6.518,18.066 -6.881,17.759 -7.789,16.999 -9.265,15.42 -8.947,13.467 -8.618,11.344 -6.393,10.265 -4.599,9.992 -3.917,9.89 -3.225,9.856 -2.555,9.822 -1.464,9.765 -0.442,9.708 0.511,9.379 1.601,9.004 2.555,8.267 3.191,7.312 4.19,5.814 4.315,3.804 3.509,2.294 3.021,1.385 2.192,0.682 1.261,0.307 1.419,1.079 1.34,1.908 0.931,2.657 0.432,3.577 -0.681,4.122 -1.828,4.054 -2.793,3.986 -3.554,3.463 -3.849,2.657 -4.099,1.999 -4.02,1.272 -3.633,0.625 c 0.533,-0.897 1.59,-1.579 2.668,-1.726 0.102,-0.023 0.204,-0.034 0.318,-0.034 -0.102,-0.125 -0.205,-0.239 -0.318,-0.352 -0.84,-0.829 -1.919,-1.363 -3.066,-1.919 -0.272,-0.136 -0.533,-0.261 -0.795,-0.398 -0.795,-0.408 -1.692,-0.931 -2.441,-1.646 -0.136,-0.125 -0.261,-0.25 -0.386,-0.386 0.148,-0.432 0.295,-0.852 0.443,-1.272 l 0.011,0.011 c 0.137,0.205 0.273,0.387 0.454,0.568 0.682,0.75 1.613,1.295 2.431,1.715 0.26,0.125 0.522,0.261 0.783,0.386 1.181,0.579 2.396,1.18 3.372,2.135 0.352,0.352 0.67,0.783 0.931,1.249 1.544,0.329 2.964,1.351 3.736,2.804 0.999,1.862 0.852,4.349 -0.363,6.177"
           style="fill:#4a97cd;fill-opacity:1;fill-rule:nonzero;stroke:none"
           id="path1484" />
      </g>
      <g
         id="g1486"
         transform="matrix(0.35277777,0,0,-0.35277777,27.928339,117.17434)">
        <path
           d="m 0,0 c -0.693,-0.34 -1.454,-0.454 -2.146,-0.318 -0.772,0.148 -1.556,0.704 -1.533,1.374 0.011,0.341 0.238,0.568 0.431,0.704 0.262,0.193 0.602,0.296 0.932,0.296 0.136,0 0.261,-0.012 0.385,-0.057 C -1,1.726 -0.375,0.772 0,0.023 Z m -8.846,33.417 0.273,0.137 c 0.057,0.023 0.114,0.045 0.17,0.068 0.08,0.034 0.159,0.068 0.239,0.091 0.011,0 0.022,0.011 0.034,0.011 0.102,0.023 0.204,0.046 0.306,0.068 h 0.012 c 0.409,0.091 0.829,0.091 1.158,-0.011 0.341,-0.091 0.579,-0.284 0.715,-0.556 C -5.7,32.771 -5.848,32.089 -6.291,31.68 -6.37,31.612 -6.45,31.544 -6.541,31.487 -6.586,31.453 -6.643,31.419 -6.7,31.396 -6.791,31.34 -6.893,31.294 -7.006,31.26 c -0.114,-0.034 -0.25,-0.068 -0.386,-0.091 -0.227,-0.034 -0.477,-0.045 -0.727,-0.023 -0.795,0.069 -1.544,0.443 -2.146,1.079 0.397,0.466 0.874,0.875 1.419,1.192 M 10.288,-1.419 c -0.41,-1.056 -1.17,-1.965 -2.181,-2.453 -1.919,-0.942 -4.474,-0.284 -5.7,1.476 -0.386,0.545 -0.647,1.17 -0.92,1.84 -0.011,0.034 -0.034,0.079 -0.045,0.113 0.068,0.057 0.125,0.103 0.193,0.159 1.158,0.988 1.817,2.396 1.771,3.77 C 3.361,4.86 2.611,6.223 1.385,7.131 0.17,8.04 -1.352,8.369 -2.68,8.017 -3.043,7.926 -3.395,7.778 -3.747,7.642 -4.213,7.46 -4.656,7.279 -5.099,7.233 -5.7,7.165 -6.336,7.37 -6.881,7.812 c -0.681,0.545 -1.124,1.363 -1.215,2.192 -0.148,1.453 0.579,3.054 1.953,4.292 1.294,1.158 2.952,1.885 4.553,2.589 1.397,0.624 2.986,1.328 4.122,2.623 1.124,1.283 1.726,3.407 0.681,4.996 -1.249,1.919 -3.895,1.942 -5.961,1.329 -0.443,-0.137 -0.886,-0.284 -1.329,-0.443 -1.407,-0.489 -2.736,-0.966 -4.053,-0.727 -1.794,0.307 -3.293,2.044 -3.407,3.963 -0.056,0.908 0.171,1.828 0.614,2.645 0.772,-0.726 1.703,-1.169 2.702,-1.26 0.431,-0.034 0.84,-0.011 1.226,0.091 0.579,0.113 1.09,0.375 1.476,0.75 0.818,0.76 1.068,1.986 0.591,2.895 -0.284,0.556 -0.772,0.942 -1.408,1.124 -0.443,0.125 -0.943,0.159 -1.454,0.079 -0.556,-0.068 -1.124,-0.272 -1.624,-0.556 -0.578,-0.329 -1.089,-0.749 -1.532,-1.227 -0.534,0.977 -0.716,2.147 -0.477,3.157 0.522,2.158 2.691,3.986 5.257,4.44 0.148,0.023 0.284,0.046 0.432,0.057 2.657,0.329 5.439,-0.693 7.255,-2.669 0.182,0.318 0.375,0.659 0.602,1.011 -1.839,1.851 -4.451,2.896 -7.04,2.85 -0.488,0 -0.965,-0.045 -1.442,-0.125 -3.055,-0.534 -5.53,-2.668 -6.165,-5.303 -0.352,-1.453 -0.035,-3.077 0.839,-4.382 -0.703,-1.102 -1.066,-2.385 -0.987,-3.645 0.148,-2.464 2.021,-4.622 4.349,-5.019 1.612,-0.273 3.145,0.261 4.621,0.772 0.431,0.159 0.852,0.307 1.283,0.431 1.59,0.477 3.781,0.534 4.678,-0.851 0.739,-1.124 0.262,-2.68 -0.579,-3.634 -0.965,-1.101 -2.441,-1.76 -3.735,-2.327 -1.681,-0.75 -3.418,-1.511 -4.838,-2.794 -1.646,-1.476 -2.521,-3.44 -2.338,-5.257 0.124,-1.113 0.726,-2.226 1.634,-2.952 0.784,-0.625 1.715,-0.92 2.623,-0.829 0.602,0.068 1.136,0.284 1.647,0.488 0.306,0.125 0.613,0.25 0.931,0.33 0.999,0.272 2.169,0.011 3.111,-0.693 C 1.658,5.519 2.237,4.485 2.271,3.452 2.305,2.441 1.816,1.397 0.954,0.636 0.284,1.964 -0.579,2.793 -1.613,3.089 -2.374,3.316 -3.259,3.157 -3.917,2.68 -4.474,2.283 -4.792,1.715 -4.814,1.09 c -0.046,-1.34 1.203,-2.282 2.452,-2.521 0.92,-0.181 1.919,-0.034 2.816,0.387 0.284,-0.67 0.579,-1.374 1.022,-2.01 1.056,-1.51 2.907,-2.373 4.746,-2.373 0.829,0 1.647,0.17 2.385,0.533 1.329,0.647 2.305,1.885 2.793,3.282 -0.375,0.034 -0.749,0.102 -1.112,0.193"
           style="fill:#4a97cd;fill-opacity:1;fill-rule:nonzero;stroke:none"
           id="path1488" />
      </g>
      <g
         id="g1490"
         transform="matrix(0.35277777,0,0,-0.35277777,30.996694,106.40686)">
        <path
           d="m 0,0 c -0.647,0.023 -1.374,0.488 -1.431,1.147 -0.045,0.477 0.295,0.795 0.511,0.942 0.307,0.216 0.693,0.329 1.067,0.329 0.228,0 0.443,-0.045 0.636,-0.136 C 1.306,2.033 1.737,1.544 2.032,0.897 1.624,0.522 0.863,-0.034 0,0 M 14.387,5.711 C 14.262,5.757 14.137,5.814 14,5.848 c -0.147,0.057 -0.306,0.113 -0.465,0.17 -0.079,0.034 -0.17,0.057 -0.261,0.091 0,0 -0.012,0 -0.012,-0.011 -1.578,-0.761 -2.339,-2.464 -2.554,-4.02 -0.057,-0.352 -0.08,-0.704 -0.08,-1.033 0.011,-1.102 0.205,-2.169 0.397,-3.202 0.137,-0.75 0.273,-1.51 0.341,-2.26 0.08,-0.942 0.102,-3.27 -1.43,-4.474 -1.113,-0.863 -2.919,-0.851 -4.202,0.023 -1.192,0.829 -2.01,2.316 -2.18,4.008 -0.068,0.681 -0.034,1.374 0,2.089 0.034,0.693 0.057,1.397 0,2.112 C 3.52,-0.216 3.452,0.216 3.338,0.613 4.065,1.476 4.564,2.521 4.792,3.634 5.042,4.849 4.973,6.132 4.53,7.301 4.497,7.381 4.451,7.449 4.417,7.528 H 4.292 C 3.929,7.528 3.554,7.517 3.179,7.494 3.293,7.301 3.384,7.108 3.463,6.893 3.849,5.893 3.895,4.78 3.667,3.736 3.509,3.055 3.225,2.396 2.827,1.817 2.441,2.487 1.908,3.009 1.271,3.304 0.409,3.725 -0.738,3.6 -1.579,3.021 -2.271,2.521 -2.634,1.806 -2.566,1.033 c 0.125,-1.305 1.385,-2.135 2.521,-2.168 0.806,-0.034 1.646,0.272 2.418,0.84 C 2.396,-0.443 2.418,-0.59 2.43,-0.75 2.475,-1.396 2.453,-2.032 2.418,-2.714 2.384,-3.452 2.351,-4.212 2.43,-4.973 2.623,-6.995 3.622,-8.8 5.098,-9.799 c 0.84,-0.579 1.851,-0.874 2.828,-0.874 0.988,0 1.952,0.295 2.702,0.885 1.397,1.09 2.078,3.078 1.873,5.473 -0.067,0.795 -0.215,1.59 -0.363,2.362 -0.181,1.033 -0.363,2.01 -0.374,3.009 0,0.182 0.011,0.363 0.022,0.556 0.125,1.352 0.704,2.908 2.033,3.498 0.499,0.227 1.078,0.272 1.646,0.17 -0.352,0.148 -0.715,0.295 -1.078,0.431"
           style="fill:#4a97cd;fill-opacity:1;fill-rule:nonzero;stroke:none"
           id="path1492" />
      </g>
      <g
         id="g1494"
         transform="matrix(0.35277777,0,0,-0.35277777,37.465897,106.22652)">
        <path
           d="M 0,0 C -0.034,-0.091 -0.08,-0.182 -0.125,-0.261 -0.147,-0.307 -0.182,-0.352 -0.204,-0.386 -0.272,-0.5 -0.352,-0.602 -0.431,-0.693 -0.488,-0.772 -0.556,-0.84 -0.625,-0.897 -0.783,-1.045 -0.942,-1.17 -1.124,-1.261 h -0.011 c -0.08,-0.056 -0.159,-0.091 -0.239,-0.113 -0.091,-0.045 -0.193,-0.08 -0.295,-0.103 -0.102,-0.033 -0.205,-0.044 -0.307,-0.056 -0.147,-0.023 -0.283,-0.023 -0.42,-0.011 -0.488,0.056 -0.954,0.363 -1.26,0.806 -0.102,0.136 -0.182,0.295 -0.227,0.443 -0.091,0.261 -0.114,0.522 -0.046,0.772 0.125,0.545 0.534,0.851 0.841,1.022 0.386,0.204 0.84,0.306 1.294,0.306 0.341,0 0.67,-0.056 0.977,-0.17 C -0.454,1.499 -0.125,1.306 0.193,1.079 0.193,0.704 0.136,0.329 0,0 M 8.04,-2.964 C 8.005,-2.918 7.971,-2.873 7.926,-2.828 H 7.915 C 7.54,-2.941 7.176,-2.986 6.813,-2.93 5.451,-2.737 4.349,-1.658 3.35,-0.511 L 3.123,-0.239 C 2.543,0.42 1.964,1.101 1.294,1.658 1.249,2.055 1.136,2.441 0.988,2.827 V 2.838 C 0.806,2.952 0.625,3.054 0.432,3.156 0.193,3.304 -0.045,3.429 -0.284,3.542 -0.625,3.724 -0.965,3.895 -1.306,4.065 -0.965,3.804 -0.659,3.497 -0.42,3.123 -0.307,2.941 -0.204,2.759 -0.125,2.577 -0.216,2.611 -0.318,2.657 -0.409,2.691 -1.431,3.088 -2.668,3.009 -3.611,2.498 -4.36,2.112 -4.86,1.487 -5.042,0.738 -5.076,0.625 -5.087,0.5 -5.087,0.386 c -0.057,-0.602 0.125,-1.226 0.5,-1.771 0.488,-0.704 1.249,-1.181 2.044,-1.283 0.579,-0.08 1.158,0.022 1.691,0.283 0.83,0.364 1.545,1.068 1.908,1.965 0.068,0.192 0.136,0.386 0.171,0.59 0.363,-0.375 0.692,-0.761 1.033,-1.147 l 0.238,-0.272 c 1.079,-1.249 2.419,-2.555 4.156,-2.805 0.693,-0.102 1.397,0.023 2.055,0.318 -0.215,0.273 -0.442,0.523 -0.669,0.772"
           style="fill:#4a97cd;fill-opacity:1;fill-rule:nonzero;stroke:none"
           id="path1496" />
      </g>
      <g
         id="g1498"
         transform="matrix(0.35277777,0,0,-0.35277777,39.697111,111.7385)">
        <path
           d="m 0,0 c 0.102,0.08 0.193,0.159 0.295,0.227 0.102,0.068 0.216,0.136 0.33,0.193 0.102,0.057 0.215,0.114 0.329,0.159 0.102,0.046 0.204,0.08 0.306,0.102 0.069,0.023 0.136,0.046 0.205,0.057 0.011,0 0.023,0.012 0.034,0 C 1.556,0.761 1.624,0.772 1.692,0.772 1.703,0.784 1.715,0.784 1.726,0.784 2.124,0.829 2.498,0.772 2.85,0.59 3.282,0.363 3.611,-0.068 3.747,-0.602 3.895,-1.135 3.827,-1.669 3.565,-2.078 3.509,-2.18 3.429,-2.26 3.35,-2.351 3.304,-2.396 3.248,-2.453 3.191,-2.487 3.032,-2.612 2.873,-2.703 2.68,-2.771 2.578,-2.805 2.476,-2.839 2.373,-2.85 2.316,-2.861 2.26,-2.873 2.203,-2.873 2.124,-2.896 2.033,-2.896 1.942,-2.896 c -0.806,-0.045 -1.624,0.353 -2.033,0.943 -0.284,0.42 -0.431,0.92 -0.454,1.431 0.091,0.102 0.17,0.193 0.273,0.284 C -0.182,-0.147 -0.091,-0.068 0,0 M 1.045,2.509 C 2.169,3.248 3.759,3.475 5.314,3.1 6.2,2.884 7.074,2.476 8.017,1.896 7.835,2.441 7.642,2.975 7.426,3.509 6.802,3.804 6.2,4.054 5.586,4.201 3.759,4.644 1.942,4.406 0.568,3.542 0.341,3.406 0.125,3.248 -0.08,3.077 -1.044,2.249 -1.59,1.056 -1.669,-0.113 l -0.17,-0.239 c -0.591,-0.92 -0.954,-1.941 -1.306,-2.929 -0.25,-0.693 -0.488,-1.352 -0.795,-1.976 -0.693,-1.386 -2.033,-2.691 -3.486,-2.498 -1.419,0.193 -2.373,1.748 -2.918,3.009 l -0.284,0.67 c -0.579,1.396 -1.17,2.838 -2.441,3.758 -1.204,0.875 -2.862,1.068 -4.224,0.488 -0.068,-0.023 -0.137,-0.068 -0.205,-0.102 0.602,-0.193 1.159,-0.431 1.692,-0.727 0.738,0.034 1.476,-0.147 2.067,-0.579 1.01,-0.726 1.521,-1.964 2.066,-3.27 0.091,-0.227 0.182,-0.466 0.284,-0.681 0.954,-2.203 2.271,-3.475 3.815,-3.69 0.159,-0.023 0.307,-0.035 0.454,-0.035 1.931,0 3.453,1.647 4.19,3.157 0.341,0.681 0.602,1.397 0.852,2.101 0.216,0.601 0.432,1.192 0.682,1.748 0.102,-0.238 0.215,-0.465 0.363,-0.681 0.636,-0.92 1.794,-1.453 2.997,-1.442 0.318,0.011 0.625,0.057 0.909,0.136 0.704,0.193 1.283,0.614 1.658,1.204 0.431,0.681 0.545,1.544 0.318,2.384 C 4.622,0.534 4.088,1.227 3.373,1.59 2.714,1.93 2.01,2.01 1.317,1.862 0.84,1.783 0.375,1.601 -0.057,1.34 0.136,1.669 0.375,1.964 0.659,2.214 0.784,2.316 0.909,2.418 1.045,2.509"
           style="fill:#4a97cd;fill-opacity:1;fill-rule:nonzero;stroke:none"
           id="path1500" />
      </g>
      <g
         id="g1502"
         transform="matrix(0.35277777,0,0,-0.35277777,40.574434,117.42669)">
        <path
           d="M 0,0 C -0.272,-0.022 -0.557,-0.011 -0.829,0 -0.954,0.012 -1.079,0.023 -1.204,0.045 -1.294,0.057 -1.396,0.068 -1.487,0.08 -1.59,0.103 -1.681,0.114 -1.771,0.136 -1.908,0.159 -2.044,0.193 -2.18,0.239 -2.226,0.25 -2.271,0.261 -2.316,0.284 -2.498,0.341 -2.668,0.409 -2.828,0.488 -2.873,0.511 -2.907,0.522 -2.941,0.557 -2.964,0.568 -2.986,0.579 -3.009,0.591 -3.157,0.659 -3.293,0.75 -3.418,0.852 -4.145,1.408 -4.531,2.26 -4.417,3.021 c 0.068,0.488 0.363,0.931 0.817,1.26 0.409,0.284 0.897,0.431 1.363,0.431 0.125,0 0.25,-0.011 0.375,-0.034 0.136,-0.022 0.272,-0.068 0.408,-0.125 0.114,-0.033 0.216,-0.091 0.307,-0.147 0.045,-0.034 0.091,-0.057 0.136,-0.08 0.034,-0.022 0.08,-0.045 0.114,-0.079 0.011,0 0.011,-0.012 0.022,-0.012 0.023,-0.011 0.046,-0.033 0.069,-0.045 0.011,-0.011 0.022,-0.023 0.034,-0.034 0.057,-0.045 0.113,-0.091 0.159,-0.136 0.068,-0.057 0.147,-0.125 0.204,-0.205 0.023,-0.023 0.046,-0.056 0.068,-0.079 0.046,-0.046 0.08,-0.102 0.114,-0.159 0.068,-0.079 0.113,-0.159 0.17,-0.25 V 3.316 C 0.011,3.213 0.068,3.111 0.113,2.998 0.17,2.873 0.227,2.737 0.261,2.601 0.307,2.453 0.341,2.294 0.363,2.135 0.454,1.431 0.318,0.693 0,0 M 1.283,0.17 C 1.499,0.863 1.578,1.59 1.487,2.282 1.362,3.236 0.908,4.111 0.261,4.758 -0.272,5.28 -0.931,5.655 -1.646,5.803 -2.532,5.961 -3.475,5.757 -4.247,5.201 c -0.715,-0.5 -1.181,-1.215 -1.294,-2.01 -0.17,-1.158 0.386,-2.43 1.431,-3.236 0.635,-0.5 1.442,-0.829 2.384,-0.988 0.261,-0.046 0.545,-0.08 0.829,-0.102 0.057,0 0.113,0 0.182,-0.011 -0.057,-0.069 -0.125,-0.137 -0.182,-0.194 -0.488,-0.511 -1.09,-0.965 -1.806,-1.328 -0.488,-0.261 -1.044,-0.489 -1.646,-0.67 -2.169,-0.67 -4.201,-0.522 -5.564,0.409 -1.09,0.749 -1.771,1.952 -2.498,3.224 -0.284,0.5 -0.568,0.999 -0.874,1.476 -0.421,0.648 -0.954,1.238 -1.556,1.738 -0.193,-0.329 -0.42,-0.636 -0.659,-0.931 0.478,-0.409 0.92,-0.897 1.261,-1.42 0.295,-0.465 0.568,-0.942 0.84,-1.43 0.761,-1.317 1.533,-2.691 2.85,-3.588 0.988,-0.682 2.249,-1.034 3.634,-1.034 0.919,0 1.908,0.159 2.907,0.466 l 0.011,0.011 c 1.658,0.5 2.975,1.283 3.929,2.294 0.295,0.318 0.556,0.67 0.783,1.033 2.112,0.261 4.099,1.272 5.587,2.794 C 6.325,1.806 6.347,1.896 6.37,1.987 6.404,2.089 6.416,2.18 6.438,2.282 6.541,2.805 6.631,3.338 6.71,3.872 6.722,3.975 6.745,4.065 6.745,4.167 5.621,2.158 3.542,0.659 1.283,0.17"
           style="fill:#4a97cd;fill-opacity:1;fill-rule:nonzero;stroke:none"
           id="path1504" />
      </g>
      <g
         id="g1506"
         transform="matrix(0.35277777,0,0,-0.35277777,37.125537,123.11092)">
        <path
           d="m 0,0 c -0.057,-0.261 -0.182,-0.431 -0.386,-0.511 -0.239,-0.091 -0.466,0 -0.625,0.091 -0.318,0.205 -0.545,0.568 -0.568,0.908 C -1.613,1 -1.385,1.477 -1.102,1.862 -0.818,1.715 -0.557,1.533 -0.341,1.307 -0.045,0.988 0.102,0.432 0,0 m -23.334,4.1 0.011,-0.012 C -23.312,4.077 -23.3,4.065 -23.3,4.054 l 0.011,-0.011 V 4.031 c 0,0 0,-0.01 0.011,-0.01 0.069,-0.103 0.125,-0.216 0.171,-0.331 0.034,-0.079 0.079,-0.169 0.102,-0.25 0.011,-0.022 0.011,-0.033 0.023,-0.056 0.023,-0.045 0.034,-0.102 0.045,-0.148 0.034,-0.09 0.045,-0.17 0.057,-0.26 0.034,-0.16 0.045,-0.319 0.034,-0.478 -0.023,-0.454 -0.284,-0.942 -0.681,-1.226 -0.194,-0.136 -0.5,-0.284 -0.852,-0.193 -0.397,0.103 -0.749,0.511 -0.863,0.999 -0.113,0.466 -0.046,1.023 0.17,1.647 0.08,0.204 0.159,0.397 0.261,0.579 0.08,0.171 0.171,0.318 0.273,0.466 0.023,0.044 0.045,0.079 0.068,0.113 0.079,0.113 0.159,0.216 0.25,0.318 0.045,-0.034 0.079,-0.08 0.125,-0.125 0.125,-0.137 0.261,-0.284 0.397,-0.454 0.068,-0.08 0.125,-0.159 0.182,-0.25 0.068,-0.079 0.125,-0.17 0.182,-0.272 M 4.803,4.883 C 2.838,5.542 0.454,4.939 -1.272,3.361 -1.317,3.327 -1.363,3.282 -1.408,3.236 -1.635,3.327 -1.862,3.407 -2.089,3.475 l -0.512,0.181 c -0.612,0.228 -1.351,0.591 -1.726,1.148 -0.113,0.147 -0.193,0.317 -0.238,0.499 -0.125,0.511 0.068,1.091 0.273,1.692 0.159,0.477 0.329,0.965 0.375,1.487 0.158,1.783 -1.25,3.566 -3.089,3.907 -1.692,0.318 -3.554,-0.557 -4.519,-2.113 -0.875,-1.419 -0.999,-3.269 -0.352,-4.95 0.272,-0.704 0.658,-1.351 1.067,-1.976 0.068,-0.114 0.136,-0.215 0.205,-0.329 0.658,-1.011 1.271,-1.976 1.396,-3.066 0.193,-1.749 -1.227,-3.52 -2.975,-3.725 -1.737,-0.215 -3.543,1.205 -3.747,2.953 -0.091,0.692 0.045,1.42 0.181,2.18 0.103,0.602 0.205,1.215 0.216,1.851 0.012,0.193 0,0.397 -0.022,0.601 -0.261,2.397 -2.555,4.384 -5.133,4.361 -1.306,-0.023 -2.577,-0.545 -3.588,-1.408 -1.794,1.408 -4.042,2.157 -6.2,2.078 -1.555,-0.068 -3.065,-0.579 -4.326,-1.431 -0.976,-0.647 -1.805,-1.51 -2.385,-2.51 -0.374,-0.658 -0.624,-1.362 -0.783,-2.089 0.341,-0.25 0.681,-0.488 1.033,-0.715 0.103,0.772 0.341,1.545 0.738,2.237 0.614,1.067 1.568,1.941 2.703,2.532 0.931,0.488 1.987,0.783 3.066,0.84 1.862,0.091 3.781,-0.567 5.348,-1.76 -0.352,-0.431 -0.647,-0.896 -0.875,-1.408 -0.067,-0.136 -0.125,-0.283 -0.181,-0.431 -0.295,-0.84 -0.375,-1.613 -0.204,-2.294 0.204,-0.908 0.863,-1.624 1.669,-1.839 0.613,-0.16 1.26,-0.023 1.817,0.386 0.67,0.477 1.112,1.282 1.146,2.077 0.023,0.444 -0.045,0.898 -0.204,1.352 -0.238,0.692 -0.693,1.386 -1.363,2.078 -0.045,0.045 -0.091,0.091 -0.136,0.125 0.806,0.636 1.771,1.022 2.748,1.044 1.941,-0.033 3.792,-1.532 3.985,-3.338 0.012,-0.147 0.023,-0.295 0.023,-0.443 0,-0.545 -0.102,-1.113 -0.216,-1.692 -0.147,-0.817 -0.295,-1.658 -0.192,-2.52 0.17,-1.352 0.999,-2.51 2.111,-3.225 1.749,0.011 3.498,0.114 5.247,0.329 1.112,0.953 1.793,2.43 1.623,3.929 -0.136,1.306 -0.817,2.385 -1.476,3.418 -0.034,0.045 -0.057,0.091 -0.091,0.136 -0.454,0.716 -0.886,1.374 -1.169,2.1 -0.512,1.34 -0.409,2.85 0.261,3.941 0.715,1.147 2.123,1.817 3.35,1.601 1.26,-0.239 2.271,-1.488 2.157,-2.692 C -5.087,8.199 -5.224,7.79 -5.36,7.358 -5.598,6.666 -5.859,5.871 -5.667,5.042 -5.621,4.826 -5.542,4.622 -5.428,4.429 -5.03,3.656 -4.213,3.032 -2.986,2.589 L -2.453,2.407 C -2.362,2.374 -2.271,2.34 -2.169,2.306 -2.566,1.692 -2.748,1.045 -2.714,0.421 c 0.046,-0.716 0.465,-1.408 1.101,-1.794 0.307,-0.193 0.636,-0.296 0.966,-0.307 0.442,0.17 0.885,0.364 1.317,0.556 0.204,0.238 0.363,0.534 0.443,0.875 C 1.294,0.557 1.033,1.488 0.488,2.078 0.25,2.34 -0.012,2.544 -0.295,2.714 1.113,3.884 2.941,4.304 4.451,3.805 5.223,3.543 5.87,3.01 6.302,2.362 6.597,2.601 6.903,2.828 7.187,3.077 6.62,3.884 5.802,4.554 4.803,4.883"
           style="fill:#4a97cd;fill-opacity:1;fill-rule:nonzero;stroke:none"
           id="path1508" />
      </g>
      <g
         id="g1510"
         transform="matrix(0.35277777,0,0,-0.35277777,37.281783,92.302664)">
        <path
           d="m 0,0 c -0.943,-0.443 -1.817,-1.044 -2.726,-1.692 -0.545,-0.374 -1.089,-0.761 -1.657,-1.113 -0.545,-0.34 -1.284,-0.737 -2.123,-1.067 -0.557,-1.714 -1.704,-3.236 -3.248,-4.178 -0.409,-0.25 -0.84,-0.455 -1.294,-0.614 1.964,1.863 3.985,3.975 5.166,6.325 0.306,0.148 0.602,0.318 0.908,0.5 0.534,0.34 1.068,0.715 1.59,1.078 0.885,0.625 1.794,1.249 2.771,1.726 0.17,-0.25 0.329,-0.511 0.488,-0.76 C -0.08,0.136 -0.045,0.068 0,0"
           style="fill:#3584b5;fill-opacity:1;fill-rule:nonzero;stroke:none"
           id="path1512" />
      </g>
      <g
         id="g1514"
         transform="matrix(0.35277777,0,0,-0.35277777,27.002967,101.43971)">
        <path
           d="M 0,0 H -0.114 C 0.681,0.84 1.51,1.646 2.339,2.43 V 2.418 C 2.339,1.669 2.044,0.999 1.521,0.556 1.102,0.193 0.568,0 0,0"
           style="fill:#3584b5;fill-opacity:1;fill-rule:nonzero;stroke:none"
           id="path1516" />
      </g>
      <g
         id="g1518"
         transform="matrix(0.35277777,0,0,-0.35277777,30.031212,98.511588)">
        <path
           d="M 0,0 C 0.284,0.272 0.568,0.534 0.852,0.806 2.476,-0.295 3.668,-1.987 4.224,-3.86 V -3.872 C 3.895,-4.178 3.577,-4.497 3.282,-4.803 2.873,-2.861 1.669,-1.056 0,0"
           style="fill:#3584b5;fill-opacity:1;fill-rule:nonzero;stroke:none"
           id="path1520" />
      </g>
      <g
         id="g1522"
         transform="matrix(0.35277777,0,0,-0.35277777,25.981499,106.29059)">
        <path
           d="m 0,0 c -0.386,-0.375 -0.897,-0.636 -1.476,-0.75 -0.159,0.341 -0.295,0.704 -0.398,1.068 0.137,0.022 0.273,0.057 0.386,0.091 0.114,0.034 0.216,0.079 0.307,0.136 0.057,0.022 0.114,0.057 0.159,0.091 0.091,0.056 0.17,0.125 0.25,0.193 0.442,0.408 0.59,1.09 0.352,1.544 C -0.557,2.646 -0.795,2.838 -1.136,2.929 -1.465,3.032 -1.885,3.032 -2.294,2.94 -2.316,3.327 -2.305,3.713 -2.271,4.099 -1.76,4.178 -1.26,4.144 -0.817,4.02 -0.182,3.838 0.307,3.452 0.59,2.895 1.067,1.987 0.817,0.761 0,0"
           style="fill:#3584b5;fill-opacity:1;fill-rule:nonzero;stroke:none"
           id="path1524" />
      </g>
      <g
         id="g1526"
         transform="matrix(0.35277777,0,0,-0.35277777,25.90537,102.77367)">
        <path
           d="M 0,0 C 0.25,0.409 0.522,0.806 0.817,1.192 3.407,1.238 6.018,0.193 7.857,-1.658 7.63,-2.01 7.437,-2.351 7.256,-2.668 5.439,-0.692 2.657,0.33 0,0"
           style="fill:#3584b5;fill-opacity:1;fill-rule:nonzero;stroke:none"
           id="path1528" />
      </g>
      <g
         id="g1530"
         transform="matrix(0.35277777,0,0,-0.35277777,32.218328,103.9753)">
        <path
           d="m 0,0 c -0.079,0.216 -0.17,0.409 -0.284,0.602 0.375,0.023 0.75,0.034 1.113,0.034 H 0.954 C 0.988,0.556 1.034,0.488 1.067,0.409 1.51,-0.761 1.579,-2.044 1.329,-3.259 0.954,-3.213 0.579,-3.18 0.205,-3.157 0.432,-2.112 0.386,-1 0,0"
           style="fill:#3584b5;fill-opacity:1;fill-rule:nonzero;stroke:none"
           id="path1532" />
      </g>
      <g
         id="g1534"
         transform="matrix(0.35277777,0,0,-0.35277777,35.871695,104.60424)">
        <path
           d="m 0,0 c -1.329,-0.59 -1.908,-2.146 -2.033,-3.498 -0.352,0.171 -0.715,0.33 -1.078,0.466 0.215,1.556 0.976,3.259 2.554,4.02 0.091,-0.023 0.182,-0.057 0.273,-0.08 C -0.125,0.852 0.034,0.795 0.182,0.738 0.318,0.704 0.443,0.647 0.568,0.602 0.931,0.465 1.294,0.318 1.646,0.17 1.079,0.272 0.5,0.227 0,0"
           style="fill:#3584b5;fill-opacity:1;fill-rule:nonzero;stroke:none"
           id="path1536" />
      </g>
      <g
         id="g1538"
         transform="matrix(0.35277777,0,0,-0.35277777,40.538415,107.54443)">
        <path
           d="m 0,0 c -0.659,-0.295 -1.363,-0.42 -2.055,-0.318 -1.738,0.25 -3.078,1.556 -4.156,2.805 L -6.45,2.759 C -6.791,3.145 -7.12,3.531 -7.483,3.906 -7.517,3.702 -7.585,3.508 -7.653,3.315 -8.017,2.418 -8.732,1.714 -9.561,1.351 c -0.363,0.295 -0.738,0.579 -1.124,0.852 0.102,0.011 0.205,0.023 0.307,0.056 0.102,0.023 0.204,0.057 0.295,0.103 0.079,0.022 0.159,0.056 0.238,0.113 h 0.012 c 0.181,0.091 0.34,0.216 0.499,0.364 0.068,0.057 0.136,0.124 0.193,0.204 0.079,0.091 0.159,0.193 0.227,0.307 0.023,0.034 0.057,0.079 0.08,0.125 0.045,0.079 0.09,0.17 0.125,0.261 0.136,0.329 0.193,0.703 0.193,1.078 -0.318,0.228 -0.648,0.42 -1.011,0.557 -0.306,0.113 -0.636,0.17 -0.976,0.17 -0.455,0 -0.909,-0.102 -1.295,-0.307 -0.306,-0.17 -0.715,-0.476 -0.84,-1.022 -0.068,-0.249 -0.046,-0.51 0.045,-0.772 -0.397,0.25 -0.795,0.477 -1.203,0.682 0,0.113 0.011,0.238 0.045,0.352 0.182,0.749 0.681,1.374 1.431,1.76 0.942,0.511 2.18,0.59 3.202,0.193 0.091,-0.034 0.193,-0.08 0.284,-0.114 -0.08,0.182 -0.182,0.364 -0.295,0.545 C -9.368,7.233 -9.674,7.54 -10.015,7.801 -9.674,7.63 -9.334,7.46 -8.993,7.278 -8.755,7.165 -8.516,7.04 -8.278,6.892 -8.085,6.79 -7.903,6.677 -7.722,6.563 -7.574,6.177 -7.46,5.791 -7.415,5.394 -6.745,4.837 -6.166,4.156 -5.587,3.497 L -5.36,3.225 c 1,-1.147 2.101,-2.226 3.464,-2.419 C -1.533,0.75 -1.17,0.795 -0.795,0.908 -0.75,0.863 -0.704,0.817 -0.67,0.772 -0.443,0.522 -0.216,0.272 0,0"
           style="fill:#3584b5;fill-opacity:1;fill-rule:nonzero;stroke:none"
           id="path1540" />
      </g>
      <g
         id="g1542"
         transform="matrix(0.35277777,0,0,-0.35277777,41.295476,112.68779)">
        <path
           d="m 0,0 c -0.375,-0.59 -0.954,-1.011 -1.658,-1.204 -0.057,0.375 -0.113,0.75 -0.193,1.124 0.193,0.068 0.352,0.159 0.511,0.284 0.057,0.034 0.113,0.091 0.159,0.136 0.079,0.091 0.159,0.171 0.216,0.273 0.261,0.409 0.329,0.943 0.181,1.476 C -0.92,2.623 -1.249,3.054 -1.681,3.281 -2.033,3.463 -2.407,3.52 -2.805,3.475 -2.941,3.838 -3.077,4.201 -3.213,4.553 -2.521,4.701 -1.817,4.621 -1.158,4.281 -0.443,3.917 0.091,3.225 0.318,2.384 0.545,1.544 0.432,0.681 0,0"
           style="fill:#3584b5;fill-opacity:1;fill-rule:nonzero;stroke:none"
           id="path1544" />
      </g>
      <g
         id="g1546"
         transform="matrix(0.35277777,0,0,-0.35277777,40.065764,110.85327)">
        <path
           d="M 0,0 C -0.148,0.352 -0.307,0.693 -0.477,1.033 0.897,1.896 2.714,2.135 4.542,1.692 5.155,1.544 5.757,1.294 6.381,1 6.597,0.466 6.79,-0.068 6.972,-0.613 6.029,-0.034 5.155,0.375 4.269,0.591 2.714,0.965 1.124,0.738 0,0"
           style="fill:#3584b5;fill-opacity:1;fill-rule:nonzero;stroke:none"
           id="path1548" />
      </g>
      <g
         id="g1550"
         transform="matrix(0.35277777,0,0,-0.35277777,37.125537,123.11092)">
        <path
           d="m 0,0 c -0.057,-0.261 -0.182,-0.431 -0.386,-0.511 -0.239,-0.091 -0.466,0 -0.625,0.091 -0.318,0.205 -0.545,0.568 -0.568,0.908 C -1.613,1 -1.385,1.477 -1.102,1.862 -0.818,1.715 -0.557,1.533 -0.341,1.307 -0.045,0.988 0.102,0.432 0,0 M 4.803,4.883 C 2.838,5.542 0.454,4.939 -1.272,3.361 -1.317,3.327 -1.363,3.282 -1.408,3.236 -1.635,3.327 -1.862,3.407 -2.089,3.475 L -2.601,3.656 C -3.213,3.884 -3.952,4.247 -4.327,4.804 -4.69,4.667 -5.053,4.554 -5.428,4.429 -5.03,3.656 -4.213,3.032 -2.986,2.589 L -2.453,2.407 C -2.362,2.374 -2.271,2.34 -2.169,2.306 -2.566,1.692 -2.748,1.045 -2.714,0.421 c 0.046,-0.716 0.465,-1.408 1.101,-1.794 0.307,-0.193 0.636,-0.296 0.966,-0.307 0.442,0.17 0.885,0.364 1.317,0.556 0.204,0.238 0.363,0.534 0.443,0.875 C 1.294,0.557 1.033,1.488 0.488,2.078 0.25,2.34 -0.012,2.544 -0.295,2.714 1.113,3.884 2.941,4.304 4.451,3.805 5.223,3.543 5.87,3.01 6.302,2.362 6.597,2.601 6.903,2.828 7.187,3.077 6.62,3.884 5.802,4.554 4.803,4.883 M -8.085,0.08 C -8.221,1.386 -8.902,2.465 -9.561,3.498 -9.97,3.44 -10.39,3.384 -10.81,3.35 c 0.068,-0.114 0.136,-0.215 0.205,-0.329 0.658,-1.011 1.271,-1.976 1.396,-3.066 0.193,-1.749 -1.227,-3.52 -2.975,-3.725 -1.737,-0.215 -3.543,1.205 -3.747,2.953 -0.091,0.692 0.045,1.42 0.181,2.18 0.103,0.602 0.205,1.215 0.216,1.851 -0.374,0 -0.749,0.022 -1.124,0.045 0,-0.545 -0.102,-1.113 -0.216,-1.692 -0.147,-0.817 -0.295,-1.658 -0.192,-2.52 0.17,-1.352 0.999,-2.51 2.111,-3.225 1.749,0.011 3.498,0.114 5.247,0.329 1.112,0.953 1.793,2.43 1.623,3.929 m -13.83,3.713 c -0.454,0.068 -0.908,0.136 -1.363,0.228 0.069,-0.103 0.125,-0.216 0.171,-0.331 0.034,-0.079 0.079,-0.169 0.102,-0.25 0.011,-0.022 0.011,-0.033 0.023,-0.056 0.023,-0.045 0.034,-0.102 0.045,-0.148 0.022,-0.09 0.045,-0.17 0.057,-0.26 0.034,-0.16 0.045,-0.319 0.034,-0.478 -0.023,-0.454 -0.284,-0.942 -0.681,-1.226 -0.194,-0.136 -0.5,-0.284 -0.852,-0.193 -0.397,0.103 -0.749,0.511 -0.863,0.999 -0.113,0.466 -0.046,1.023 0.17,1.647 0.08,0.204 0.159,0.397 0.261,0.579 -0.386,0.068 -0.772,0.159 -1.147,0.238 -0.067,-0.136 -0.125,-0.283 -0.181,-0.431 -0.295,-0.84 -0.375,-1.613 -0.204,-2.294 0.204,-0.908 0.863,-1.624 1.669,-1.839 0.613,-0.16 1.26,-0.023 1.817,0.386 0.67,0.477 1.112,1.282 1.146,2.077 0.023,0.444 -0.045,0.898 -0.204,1.352 m -19.871,7.63 c -0.432,-0.579 -1.011,-1.169 -1.749,-1.759 -0.261,-0.216 -0.533,-0.41 -0.795,-0.602 0.069,-0.091 0.137,-0.182 0.205,-0.273 0.147,-0.205 0.307,-0.409 0.477,-0.602 0,-0.011 0.011,-0.011 0.011,-0.022 0.273,0.204 0.556,0.397 0.818,0.613 0.817,0.659 1.476,1.317 1.964,1.987 -0.318,0.204 -0.624,0.42 -0.931,0.658 m 6.983,-4.008 c -0.976,-0.647 -1.805,-1.51 -2.385,-2.51 -0.374,-0.658 -0.624,-1.362 -0.783,-2.089 0.341,-0.25 0.681,-0.488 1.033,-0.715 0.103,0.772 0.341,1.545 0.738,2.237 0.614,1.067 1.568,1.941 2.703,2.532 -0.443,0.182 -0.874,0.363 -1.306,0.545 m -12.842,9.924 c -0.443,-0.227 -0.886,-0.397 -1.317,-0.443 h -0.012 c 0.159,-0.352 0.318,-0.715 0.489,-1.067 0.522,0.114 1.033,0.329 1.532,0.59 -0.238,0.296 -0.476,0.614 -0.692,0.92 m -2.907,4.996 c -0.136,-0.125 -0.261,-0.25 -0.386,-0.386 0.147,-0.431 0.295,-0.851 0.443,-1.271 l 0.011,0.011 c 0.136,0.205 0.273,0.386 0.454,0.568 -0.181,0.352 -0.363,0.715 -0.522,1.078"
           style="fill:#3584b5;fill-opacity:1;fill-rule:nonzero;stroke:none"
           id="path1552" />
      </g>
      <g
         id="g1554"
         transform="matrix(0.35277777,0,0,-0.35277777,42.953779,115.95648)">
        <path
           d="m 0,0 c 0,-0.103 -0.022,-0.193 -0.034,-0.295 -0.079,-0.534 -0.17,-1.068 -0.273,-1.59 -0.022,-0.102 -0.033,-0.193 -0.068,-0.295 -0.022,-0.091 -0.045,-0.182 -0.068,-0.284 -1.487,-1.522 -3.474,-2.532 -5.586,-2.793 -0.227,-0.364 -0.489,-0.716 -0.784,-1.034 -0.954,-1.01 -2.27,-1.794 -3.929,-2.293 0.477,0.556 0.909,1.135 1.295,1.748 0.715,0.364 1.317,0.818 1.805,1.329 0.057,0.057 0.125,0.125 0.182,0.193 -0.068,0.011 -0.125,0.011 -0.182,0.011 -0.284,0.023 -0.567,0.057 -0.829,0.102 0.182,0.352 0.364,0.704 0.523,1.079 0.125,-0.023 0.25,-0.034 0.374,-0.045 0.273,-0.012 0.557,-0.023 0.829,0 0.318,0.692 0.454,1.43 0.364,2.134 -0.023,0.159 -0.057,0.318 -0.102,0.466 -0.035,0.136 -0.091,0.273 -0.148,0.398 -0.045,0.113 -0.102,0.215 -0.17,0.317 v 0.012 c 0.125,0.465 0.227,0.942 0.318,1.43 0.647,-0.647 1.101,-1.521 1.226,-2.475 0.09,-0.693 0.011,-1.419 -0.204,-2.112 C -3.202,-3.509 -1.124,-2.01 0,0"
           style="fill:#3584b5;fill-opacity:1;fill-rule:nonzero;stroke:none"
           id="path1556" />
      </g>
      <g
         id="g1558"
         transform="matrix(0.35277777,0,0,-0.35277777,36.580849,114.42635)">
        <path
           d="m 0,0 c 0,-5.941 -5.278,-10.763 -11.771,-10.763 -6.495,0 -11.772,4.822 -11.772,10.763 0,0.815 0.096,1.616 0.29,2.376 1.188,4.809 5.886,8.401 11.482,8.401 3.661,0 6.949,-1.534 9.091,-3.952 C -0.995,4.96 0,2.598 0,0"
           style="fill:#373338;fill-opacity:1;fill-rule:nonzero;stroke:none"
           id="path1560" />
      </g>
      <g
         id="g1562"
         transform="matrix(0.35277777,0,0,-0.35277777,35.635369,112.0186)">
        <path
           d="m 0,0 c -0.511,-0.58 -1.257,-0.953 -2.045,-1.008 -0.788,-0.042 -1.672,0.22 -2.252,0.746 -0.221,-1.161 -1.202,-2.142 -2.377,-2.363 -1.16,-0.235 -2.459,0.166 -3.108,1.161 -0.208,-1.161 -1.106,-2.156 -2.239,-2.488 -1.119,-0.331 -2.597,-0.055 -3.398,0.802 -0.07,-0.995 -0.719,-1.921 -1.631,-2.335 -0.912,-0.414 -2.031,-0.29 -2.832,0.304 -0.277,0.207 -0.498,0.456 -0.691,0.732 0.096,0.387 0.207,0.76 0.359,1.119 1.589,4.242 5.969,7.282 11.123,7.282 2.956,0 5.664,-0.995 7.737,-2.653 C -0.871,0.898 -0.415,0.47 0,0"
           style="fill:#d7edf4;fill-opacity:1;fill-rule:nonzero;stroke:none"
           id="path1564" />
      </g>
      <g
         id="g1566"
         transform="matrix(0.35277777,0,0,-0.35277777,35.157708,111.56038)">
        <path
           d="m 0,0 c -0.373,-0.193 -0.788,-0.318 -1.202,-0.345 -0.788,-0.042 -1.672,0.22 -2.252,0.746 -0.235,-1.161 -1.202,-2.142 -2.391,-2.363 -1.146,-0.235 -2.445,0.166 -3.109,1.161 -0.193,-1.161 -1.091,-2.156 -2.238,-2.487 -1.119,-0.332 -2.597,-0.056 -3.399,0.801 -0.069,-0.995 -0.704,-1.92 -1.63,-2.335 -0.829,-0.387 -1.851,-0.304 -2.639,0.194 1.589,4.241 5.969,7.281 11.123,7.281 C -4.781,2.653 -2.073,1.658 0,0"
           style="fill:#ffffff;fill-opacity:1;fill-rule:nonzero;stroke:none"
           id="path1568" />
      </g>
      <g
         id="g1570"
         transform="matrix(0.35277777,0,0,-0.35277777,35.532534,115.43956)">
        <path
           d="m 0,0 c 0.716,-2.474 -1.918,-5.409 -5.882,-6.557 -3.965,-1.147 -7.76,-0.072 -8.476,2.401 -0.716,2.473 1.918,5.408 5.883,6.556 C -4.51,3.548 -0.716,2.473 0,0"
           style="fill:#f47481;fill-opacity:1;fill-rule:nonzero;stroke:none"
           id="path1572" />
      </g>
      <g
         id="g1574"
         transform="matrix(0.35277777,0,0,-0.35277777,34.643358,115.3097)">
        <path
           d="m 0,0 c 0.498,-1.718 -1.332,-3.758 -4.087,-4.555 -2.754,-0.798 -5.391,-0.051 -5.888,1.667 -0.497,1.719 1.332,3.758 4.087,4.555 C -3.133,2.465 -0.497,1.718 0,0"
           style="fill:#f4889c;fill-opacity:1;fill-rule:nonzero;stroke:none"
           id="path1576" />
      </g>
      <g
         id="g1578"
         transform="matrix(0.35277777,0,0,-0.35277777,32.42816,110.02371)">
        <path
           d="m 0,0 c -6.323,0 -11.725,-3.987 -13.135,-9.695 -0.225,-0.882 -0.34,-1.823 -0.34,-2.785 0,-6.874 6.045,-12.466 13.475,-12.466 7.43,0 13.475,5.592 13.475,12.466 0,2.954 -1.079,5.709 -3.12,7.967 C 7.819,-1.649 4.041,0 0,0 m 0,-1.703 c 3.661,0 6.95,-1.534 9.091,-3.952 1.686,-1.865 2.68,-4.227 2.68,-6.825 0,-5.941 -5.277,-10.763 -11.771,-10.763 -6.494,0 -11.772,4.822 -11.772,10.763 0,0.815 0.097,1.616 0.29,2.376 1.189,4.809 5.886,8.401 11.482,8.401"
           style="fill:#26597f;fill-opacity:1;fill-rule:nonzero;stroke:none"
           id="path1580" />
      </g>
      <g
         id="g1582"
         transform="matrix(0.35277777,0,0,-0.35277777,35.720459,105.98021)">
        <path
           d="m 0,0 c 0,-4.72 -3.103,-8.547 -6.93,-8.547 -3.827,0 -6.93,3.827 -6.93,8.547 0,4.721 3.103,8.547 6.93,8.547 C -3.103,8.547 0,4.721 0,0"
           style="fill:#ffffff;fill-opacity:1;fill-rule:nonzero;stroke:none"
           id="path1584" />
      </g>
      <g
         id="g1586"
         transform="matrix(0.35277777,0,0,-0.35277777,35.158731,105.64567)">
        <path
           d="m 0,0 c 0,-3.559 -2.304,-6.444 -5.146,-6.444 -2.842,0 -5.146,2.885 -5.146,6.444 0,3.56 2.304,6.445 5.146,6.445 C -2.304,6.445 0,3.56 0,0"
           style="fill:#373338;fill-opacity:1;fill-rule:nonzero;stroke:none"
           id="path1588" />
      </g>
      <g
         id="g1590"
         transform="matrix(0.35277777,0,0,-0.35277777,34.654364,104.61835)">
        <path
           d="m 0,0 c 0,-1.079 -0.875,-1.954 -1.954,-1.954 -1.079,0 -1.954,0.875 -1.954,1.954 0,1.079 0.875,1.954 1.954,1.954 C -0.875,1.954 0,1.079 0,0"
           style="fill:#ffffff;fill-opacity:1;fill-rule:nonzero;stroke:none"
           id="path1592" />
      </g>
      <g
         id="g1594"
         transform="matrix(0.35277777,0,0,-0.35277777,26.218002,109.64716)">
        <path
           d="m 0,0 c 0,-5.425 -3.761,-9.823 -8.4,-9.823 -4.639,0 -8.4,4.398 -8.4,9.823 0,5.425 3.761,9.823 8.4,9.823 C -3.761,9.823 0,5.425 0,0"
           style="fill:#ffffff;fill-opacity:1;fill-rule:nonzero;stroke:none"
           id="path1596" />
      </g>
      <g
         id="g1598"
         transform="matrix(0.35277777,0,0,-0.35277777,25.474734,109.29576)">
        <path
           d="m 0,0 c 0,-4.419 -2.86,-8.001 -6.389,-8.001 -3.528,0 -6.389,3.582 -6.389,8.001 0,4.419 2.861,8.002 6.389,8.002 C -2.86,8.002 0,4.419 0,0"
           style="fill:#373338;fill-opacity:1;fill-rule:nonzero;stroke:none"
           id="path1600" />
      </g>
      <g
         id="g1602"
         transform="matrix(0.35277777,0,0,-0.35277777,24.848589,108.0204)">
        <path
           d="m 0,0 c 0,-1.34 -1.086,-2.426 -2.426,-2.426 -1.34,0 -2.426,1.086 -2.426,2.426 0,1.34 1.086,2.426 2.426,2.426 C -1.086,2.426 0,1.34 0,0"
           style="fill:#ffffff;fill-opacity:1;fill-rule:nonzero;stroke:none"
           id="path1604" />
      </g>
      <g
         id="g1606"
         transform="matrix(0.35277777,0,0,-0.35277777,19.945013,107.76061)">
        <path
           d="m 0,0 c 0.356,2.132 1.513,4.12 3.19,5.482 1.678,1.363 3.861,2.088 6.02,2 0.206,1.595 0.006,3.371 -0.785,4.771 C 7.983,13.035 7.354,13.769 6.5,14.05 5.414,14.41 4.153,13.916 3.451,13.01 2.75,12.105 2.564,10.871 2.78,9.746 1.989,10.765 1.215,11.834 0.096,12.476 -1.023,13.117 -2.528,13.264 -3.556,12.484 -4.701,11.617 -4.871,9.873 -4.287,8.561 -3.704,7.249 -2.541,6.292 -1.354,5.482 -2.389,6.245 -4.129,5.854 -4.952,4.867 -5.775,3.881 -5.677,2.256 -4.742,1.375 -4.143,0.811 -3.316,0.572 -2.523,0.351 -1.759,0.139 -0.764,0.212 0,0"
           style="fill:#1e496f;fill-opacity:1;fill-rule:nonzero;stroke:none"
           id="path1608" />
      </g>
      <g
         id="g1610"
         transform="matrix(0.35277777,0,0,-0.35277777,32.501856,101.65283)">
        <path
           d="m 0,0 c 2.034,0.898 4.441,0.913 6.486,0.039 2.045,-0.874 3.698,-2.624 4.454,-4.715 1.261,0.495 2.74,0.671 3.614,1.705 0.789,0.933 0.765,2.452 -0.054,3.36 -0.819,0.907 -2.327,1.088 -3.336,0.399 1.22,0.81 1.696,2.545 1.332,3.963 C 12.132,6.17 10.903,7.305 9.48,7.649 8.057,7.993 6.492,7.576 5.363,6.643 4.234,5.71 3.539,4.299 3.383,2.843 3.166,3.745 2.568,4.603 1.82,5.15 1.071,5.698 0.071,5.921 -0.817,5.655 -1.705,5.388 -2.44,4.605 -2.566,3.687 -2.674,2.896 -2.344,2.094 -1.846,1.47 -1.348,0.846 -0.646,0.469 0,0"
           style="fill:#1e496f;fill-opacity:1;fill-rule:nonzero;stroke:none"
           id="path1612" />
      </g>
    </g>
  </g>
</svg>
