<?xml version="1.0" encoding="UTF-8" standalone="no"?>
<!-- Created with Inkscape (http://www.inkscape.org/) -->

<svg
   width="26.088627mm"
   height="38.271492mm"
   viewBox="0 0 26.088627 38.271492"
   version="1.1"
   id="svg12799"
   inkscape:version="1.1-rc (52f87abb86, 2021-05-02)"
   sodipodi:docname="7.svg"
   xmlns:inkscape="http://www.inkscape.org/namespaces/inkscape"
   xmlns:sodipodi="http://sodipodi.sourceforge.net/DTD/sodipodi-0.dtd"
   xmlns="http://www.w3.org/2000/svg"
   xmlns:svg="http://www.w3.org/2000/svg">
  <sodipodi:namedview
     id="namedview12801"
     pagecolor="#ffffff"
     bordercolor="#666666"
     borderopacity="1.0"
     objecttolerance="10.0"
     gridtolerance="10.0"
     guidetolerance="10.0"
     inkscape:pageshadow="2"
     inkscape:pageopacity="0.0"
     inkscape:pagecheckerboard="0"
     inkscape:document-units="mm"
     showgrid="false"
     fit-margin-top="0"
     fit-margin-left="0"
     fit-margin-right="0"
     fit-margin-bottom="0"
     inkscape:zoom="0.94875842"
     inkscape:cx="-271.93435"
     inkscape:cy="-123.84607"
     inkscape:window-width="3840"
     inkscape:window-height="2066"
     inkscape:window-x="2869"
     inkscape:window-y="-11"
     inkscape:window-maximized="1"
     inkscape:current-layer="layer1" />
  <defs
     id="defs12796" />
  <g
     inkscape:label="Layer 1"
     inkscape:groupmode="layer"
     id="layer1"
     transform="translate(-177.14724,-181.37411)">
    <g
       id="g9529"
       transform="translate(129.58904,94.09897)">
      <g
         id="g1614"
         transform="matrix(0.35277777,0,0,-0.35277777,49.017641,103.86213)">
        <path
           d="m 0,0 c -0.063,-1.294 0.037,-2.635 0.62,-3.792 0.584,-1.157 1.734,-2.094 3.028,-2.127 1.261,-0.032 2.38,0.751 3.395,1.5 0.533,-1.118 1.983,-1.674 3.207,-1.48 1.223,0.193 2.257,1.254 2.419,2.482 1.09,-1.198 2.894,-1.621 4.319,-0.852 1.425,0.769 2.209,2.562 1.806,4.131 1.151,-0.325 2.398,-0.067 3.285,0.736 0.886,0.802 1.321,2.073 1.112,3.25 0.38,-0.705 1.272,-1.106 2.071,-1.166 0.799,-0.059 1.597,0.219 2.262,0.665 0.893,0.598 1.586,1.525 1.789,2.58 0.202,1.054 -0.131,2.224 -0.939,2.931 L 21.333,10.767 11.729,0.342 Z"
           style="fill:#373338;fill-opacity:1;fill-rule:nonzero;stroke:none"
           id="path1616" />
      </g>
      <g
         id="g1618"
         transform="matrix(0.35277777,0,0,-0.35277777,73.628053,100.89436)">
        <path
           d="m 0,0 c -0.173,-1.382 -0.737,-2.683 -1.646,-3.765 -2.28,-2.694 -4.434,-5.631 -6.472,-8.705 -0.241,-0.368 -0.472,-0.737 -0.714,-1.105 -0.656,-1.002 -1.289,-2.027 -1.899,-3.063 -0.139,-0.242 -0.288,-0.472 -0.415,-0.714 -1.934,-3.224 -3.73,-6.551 -5.389,-9.914 -0.057,-0.103 -0.103,-0.218 -0.161,-0.322 -0.621,-1.244 -1.221,-2.498 -1.796,-3.753 -0.345,-0.738 -0.679,-1.463 -1.002,-2.2 -1.37,-2.982 -2.613,-5.953 -3.765,-8.831 -0.484,-1.221 -0.955,-2.418 -1.405,-3.592 -1.761,-4.618 -3.247,-8.924 -4.433,-12.643 -0.702,-2.153 -1.3,-4.11 -1.807,-5.814 -0.046,-0.173 -0.104,-0.346 -0.173,-0.507 -1.381,-3.72 -5.446,-5.792 -9.315,-4.629 l -0.184,0.057 -3.996,1.198 -9.591,2.867 -4.617,1.382 -0.634,0.184 c -3.569,1.059 -5.756,4.491 -5.411,8.036 0.057,0.599 0.196,1.198 0.403,1.797 0.886,2.522 1.934,5.204 3.086,7.968 1.266,3.086 2.671,6.264 4.133,9.453 0.956,2.061 1.923,4.122 2.89,6.16 1.601,3.339 3.201,6.586 4.756,9.649 l 0.011,0.023 c 1.739,3.489 3.42,6.701 4.882,9.499 0.956,1.796 1.808,3.42 2.557,4.813 1.197,2.234 0.126,4.882 -2.05,5.792 -0.368,0.149 -0.772,0.253 -1.209,0.299 l -1.577,0.15 c -0.139,0.011 -0.277,0.023 -0.427,0.023 -1.393,-0.012 -2.705,-0.737 -3.465,-1.935 l -3.708,-5.849 c -0.829,-1.301 -2.314,-2.038 -3.846,-1.911 l -3.443,0.288 -5.94,0.483 h -0.012 l -0.898,0.081 c -2.948,0.242 -5.216,2.706 -5.216,5.665 v 25.458 c 0,3.097 2.464,5.619 5.561,5.688 l 4.698,0.092 8.935,0.196 16.672,0.345 5.24,0.104 19.021,0.403 4.087,0.08 c 1.705,0.035 3.282,-0.518 4.537,-1.485 1.52,-1.151 2.567,-2.89 2.798,-4.916 L -0.564,6.828 0.011,1.693 C 0.069,1.128 0.069,0.553 0,0"
           style="fill:#4a97cd;fill-opacity:1;fill-rule:nonzero;stroke:none"
           id="path1620" />
      </g>
      <g
         id="g1622"
         transform="matrix(0.35277777,0,0,-0.35277777,73.628053,100.89436)">
        <path
           d="m 0,0 c -0.173,-1.382 -0.737,-2.683 -1.646,-3.765 -2.28,-2.694 -4.434,-5.631 -6.472,-8.705 -0.241,-0.368 -0.472,-0.737 -0.714,-1.105 -0.656,-1.002 -1.289,-2.027 -1.899,-3.063 -0.139,-0.242 -0.288,-0.472 -0.415,-0.714 -1.934,-3.224 -3.73,-6.551 -5.389,-9.914 -0.057,-0.103 -0.103,-0.218 -0.161,-0.322 -0.621,-1.244 -1.221,-2.498 -1.796,-3.753 -0.345,-0.738 -0.679,-1.463 -1.002,-2.2 -1.37,-2.982 -2.613,-5.953 -3.765,-8.831 -0.484,-1.221 -0.955,-2.418 -1.405,-3.592 -1.761,-4.618 -3.247,-8.924 -4.433,-12.643 -0.702,-2.153 -1.3,-4.11 -1.807,-5.814 -0.046,-0.173 -0.104,-0.346 -0.173,-0.507 -1.381,-3.72 -5.446,-5.792 -9.315,-4.629 l -0.184,0.057 -3.996,1.198 -9.591,2.867 -4.617,1.382 -0.634,0.184 c -3.569,1.059 -5.756,4.491 -5.411,8.036 0.057,0.599 0.196,1.198 0.403,1.797 0.391,1.117 0.818,2.268 1.267,3.443 -0.138,-0.392 -0.104,-0.841 0.103,-1.198 1.624,-2.729 4.364,-4.64 7.093,-6.298 3.788,-2.291 8.244,-4.387 12.504,-3.143 4.629,1.358 7.277,6.16 9.027,10.662 5.424,13.909 7.485,29.753 17.364,40.956 2.567,2.901 5.607,5.411 7.83,8.601 3.385,4.87 4.582,11.215 3.212,16.995 -1.221,5.112 -4.433,9.706 -8.774,12.631 -0.253,0.173 -0.553,0.253 -0.852,0.241 l -17.144,-0.356 19.021,0.403 4.087,0.08 c 1.705,0.035 3.282,-0.518 4.537,-1.485 1.52,-1.151 2.567,-2.89 2.798,-4.916 L -0.564,6.828 0.011,1.693 C 0.069,1.128 0.069,0.553 0,0"
           style="fill:#3584b5;fill-opacity:1;fill-rule:nonzero;stroke:none"
           id="path1624" />
      </g>
      <g
         id="g1626"
         transform="matrix(0.35277777,0,0,-0.35277777,55.484975,91.41691)">
        <path
           d="m 0,0 c -0.759,1.4 -1.451,2.858 -1.774,4.417 -0.324,1.56 -0.253,3.242 0.458,4.667 0.711,1.425 2.128,2.543 3.717,2.648 1.436,0.096 2.848,-0.636 3.792,-1.721 0.945,-1.084 1.463,-2.486 1.712,-3.903 1.28,1.847 3.002,3.322 5.079,4.177 1.391,0.573 2.963,0.873 4.404,0.44 C 19.828,9.991 21.263,7.256 21.16,4.71 21.057,2.165 19.722,-0.176 18.132,-2.167 14.254,-1.268 10.017,-1.204 6.12,-2.018 4.507,-2.354 2.887,-2.855 1.57,-3.845"
           style="fill:#4a97cd;fill-opacity:1;fill-rule:nonzero;stroke:none"
           id="path1628" />
      </g>
      <g
         id="g1630"
         transform="matrix(0.35277777,0,0,-0.35277777,54.329663,90.999362)">
        <path
           d="M 0,0 -2.176,-16.27 -8.935,-0.196 Z"
           style="fill:#ffd804;fill-opacity:1;fill-rule:nonzero;stroke:none"
           id="path1632" />
      </g>
      <g
         id="g1634"
         transform="matrix(0.35277777,0,0,-0.35277777,62.059588,90.841071)">
        <path
           d="M 0,0 -4.134,-10.72 -5.239,-0.104 Z"
           style="fill:#ffd804;fill-opacity:1;fill-rule:nonzero;stroke:none"
           id="path1636" />
      </g>
      <g
         id="g1638"
         transform="matrix(0.35277777,0,0,-0.35277777,71.812306,91.194378)">
        <path
           d="m 0,0 -4.03,-4.468 -7.818,-8.681 3.028,13.678 0.196,0.876 4.087,0.08 C -2.833,1.52 -1.255,0.967 0,0"
           style="fill:#ffd804;fill-opacity:1;fill-rule:nonzero;stroke:none"
           id="path1640" />
      </g>
      <g
         id="g1642"
         transform="matrix(0.35277777,0,0,-0.35277777,73.628053,100.89436)">
        <path
           d="M 0,0 -8.475,0.173 -18.296,0.38 -6.459,4.687 -0.564,6.828 0.011,1.693 C 0.069,1.128 0.069,0.553 0,0"
           style="fill:#ffd804;fill-opacity:1;fill-rule:nonzero;stroke:none"
           id="path1644" />
      </g>
      <g
         id="g1646"
         transform="matrix(0.35277777,0,0,-0.35277777,70.764309,105.29342)">
        <path
           d="M 0,0 C -0.242,-0.369 -0.472,-0.737 -0.714,-1.105 -1.37,-2.107 -2.003,-3.132 -2.614,-4.168 -2.752,-4.41 -2.901,-4.64 -3.028,-4.882 l -7.22,6.172 -2.763,2.372 3.834,-1.083 z"
           style="fill:#ffd804;fill-opacity:1;fill-rule:nonzero;stroke:none"
           id="path1648" />
      </g>
      <g
         id="g1650"
         transform="matrix(0.35277777,0,0,-0.35277777,51.701574,99.029889)">
        <path
           d="M 0,0 -11.745,1.22 V 6.575 Z"
           style="fill:#ffd804;fill-opacity:1;fill-rule:nonzero;stroke:none"
           id="path1652" />
      </g>
      <g
         id="g1654"
         transform="matrix(0.35277777,0,0,-0.35277777,53.561912,100.6303)">
        <path
           d="m 0,0 -4.951,-10.363 -5.941,0.484 z"
           style="fill:#ffd804;fill-opacity:1;fill-rule:nonzero;stroke:none"
           id="path1656" />
      </g>
      <g
         id="g1658"
         transform="matrix(0.35277777,0,0,-0.35277777,58.050339,101.13396)">
        <path
           d="m 0,0 c -0.368,0.149 -0.771,0.253 -1.209,0.299 l -1.577,0.15 C -2.924,0.46 -3.063,0.472 -3.212,0.472 l 1.497,9.465 z"
           style="fill:#ffd804;fill-opacity:1;fill-rule:nonzero;stroke:none"
           id="path1660" />
      </g>
      <g
         id="g1662"
         transform="matrix(0.35277777,0,0,-0.35277777,61.59244,104.28607)">
        <path
           d="m 0,0 -15.429,-11.169 c 1.739,3.489 3.42,6.702 4.882,9.5 z"
           style="fill:#ffd804;fill-opacity:1;fill-rule:nonzero;stroke:none"
           id="path1664" />
      </g>
      <g
         id="g1666"
         transform="matrix(0.35277777,0,0,-0.35277777,67.738146,110.62675)">
        <path
           d="m 0,0 c -0.622,-1.244 -1.221,-2.499 -1.796,-3.753 -0.346,-0.738 -0.68,-1.463 -1.002,-2.2 l -6.736,7.749 -4.007,4.618 4.905,-2.327 z"
           style="fill:#ffd804;fill-opacity:1;fill-rule:nonzero;stroke:none"
           id="path1668" />
      </g>
      <g
         id="g1670"
         transform="matrix(0.35277777,0,0,-0.35277777,59.569647,111.82496)">
        <path
           d="m 0,0 -17.352,-5.631 c 0.956,2.061 1.923,4.122 2.89,6.16 z"
           style="fill:#ffd804;fill-opacity:1;fill-rule:nonzero;stroke:none"
           id="path1672" />
      </g>
      <g
         id="g1674"
         transform="matrix(0.35277777,0,0,-0.35277777,65.422865,115.84229)">
        <path
           d="M 0,0 C -0.484,-1.221 -0.956,-2.418 -1.405,-3.592 L -6.759,5.112 -6.978,5.469 -6.713,5.262 Z"
           style="fill:#ffd804;fill-opacity:1;fill-rule:nonzero;stroke:none"
           id="path1676" />
      </g>
      <g
         id="g1678"
         transform="matrix(0.35277777,0,0,-0.35277777,55.897513,115.97236)">
        <path
           d="m 0,0 -11.733,-10.547 -2.832,-2.545 c 0.057,0.599 0.195,1.198 0.403,1.797 0.391,1.117 0.817,2.256 1.266,3.431 0.564,1.474 1.175,2.994 1.819,4.536 z"
           style="fill:#ffd804;fill-opacity:1;fill-rule:nonzero;stroke:none"
           id="path1680" />
      </g>
      <g
         id="g1682"
         transform="matrix(0.35277777,0,0,-0.35277777,55.897513,119.563)">
        <path
           d="m 0,0 -2.199,-7.058 -1.704,-5.458 -4.618,1.382 4.031,5.261 z"
           style="fill:#ffd804;fill-opacity:1;fill-rule:nonzero;stroke:none"
           id="path1684" />
      </g>
      <g
         id="g1686"
         transform="matrix(0.35277777,0,0,-0.35277777,59.313672,125.41227)">
        <path
           d="m 0,0 -3.996,1.197 1.452,7.185 0.218,1.083 0.23,-0.921 z"
           style="fill:#ffd804;fill-opacity:1;fill-rule:nonzero;stroke:none"
           id="path1688" />
      </g>
      <g
         id="g1690"
         transform="matrix(0.35277777,0,0,-0.35277777,63.363384,121.5696)">
        <path
           d="M 0,0 C -0.702,-2.153 -1.301,-4.11 -1.808,-5.814 -1.854,-5.987 -1.911,-6.16 -1.98,-6.321 L -6.137,5.688 Z"
           style="fill:#ffd804;fill-opacity:1;fill-rule:nonzero;stroke:none"
           id="path1692" />
      </g>
      <g
         id="g1694"
         transform="matrix(0.35277777,0,0,-0.35277777,71.812306,91.194378)">
        <path
           d="m 0,0 -4.03,-4.468 c -1.313,1.912 -2.936,3.604 -4.79,4.997 l 0.196,0.876 4.087,0.08 C -2.833,1.52 -1.255,0.967 0,0"
           style="fill:#feab1e;fill-opacity:1;fill-rule:nonzero;stroke:none"
           id="path1696" />
      </g>
      <g
         id="g1698"
         transform="matrix(0.35277777,0,0,-0.35277777,51.38478,119.16493)">
        <path
           d="m 0,0 c 0.322,-0.53 0.679,-1.025 1.059,-1.497 l -2.832,-2.545 c 0.057,0.599 0.195,1.198 0.403,1.796 0.391,1.118 0.817,2.257 1.266,3.432 C -0.242,0.794 -0.208,0.357 0,0"
           style="fill:#feab1e;fill-opacity:1;fill-rule:nonzero;stroke:none"
           id="path1700" />
      </g>
      <g
         id="g1702"
         transform="matrix(0.35277777,0,0,-0.35277777,55.121684,122.05294)">
        <path
           d="m 0,0 -1.704,-5.458 -4.617,1.382 4.03,5.262 C -1.554,0.76 -0.783,0.356 0,0"
           style="fill:#feab1e;fill-opacity:1;fill-rule:nonzero;stroke:none"
           id="path1704" />
      </g>
      <g
         id="g1706"
         transform="matrix(0.35277777,0,0,-0.35277777,59.313672,125.41227)">
        <path
           d="m 0,0 -3.996,1.197 1.452,7.185 c 0.149,0.047 0.31,0.093 0.448,0.162 z"
           style="fill:#feab1e;fill-opacity:1;fill-rule:nonzero;stroke:none"
           id="path1708" />
      </g>
      <g
         id="g1710"
         transform="matrix(0.35277777,0,0,-0.35277777,61.198493,119.563)">
        <path
           d="M 0,0 6.137,-5.688 C 5.435,-7.841 4.836,-9.798 4.329,-11.502 4.283,-11.675 4.226,-11.848 4.156,-12.009 Z"
           style="fill:#feab1e;fill-opacity:1;fill-rule:nonzero;stroke:none"
           id="path1712" />
      </g>
      <g
         id="g1714"
         transform="matrix(0.35277777,0,0,-0.35277777,65.422865,115.84229)">
        <path
           d="m 0,0 c -0.484,-1.221 -0.956,-2.418 -1.405,-3.592 l -5.354,8.704 c 0.011,0.058 0.035,0.104 0.046,0.15 z"
           style="fill:#feab1e;fill-opacity:1;fill-rule:nonzero;stroke:none"
           id="path1716" />
      </g>
      <g
         id="g1718"
         transform="matrix(0.35277777,0,0,-0.35277777,67.738146,110.62675)">
        <path
           d="m 0,0 c -0.622,-1.244 -1.221,-2.499 -1.796,-3.753 -0.346,-0.738 -0.68,-1.463 -1.002,-2.2 l -6.736,7.749 c 0.288,0.772 0.588,1.532 0.898,2.291 z"
           style="fill:#feab1e;fill-opacity:1;fill-rule:nonzero;stroke:none"
           id="path1720" />
      </g>
      <g
         id="g1722"
         transform="matrix(0.35277777,0,0,-0.35277777,70.764309,105.29342)">
        <path
           d="M 0,0 C -0.242,-0.369 -0.472,-0.737 -0.714,-1.105 -1.37,-2.107 -2.003,-3.132 -2.614,-4.168 -2.752,-4.41 -2.901,-4.64 -3.028,-4.882 l -7.22,6.172 c 0.334,0.437 0.691,0.863 1.071,1.289 z"
           style="fill:#feab1e;fill-opacity:1;fill-rule:nonzero;stroke:none"
           id="path1724" />
      </g>
      <g
         id="g1726"
         transform="matrix(0.35277777,0,0,-0.35277777,73.628053,100.89436)">
        <path
           d="m 0,0 -8.475,0.173 c 0.852,1.416 1.52,2.936 2.016,4.514 L -0.564,6.828 0.011,1.693 C 0.069,1.128 0.069,0.553 0,0"
           style="fill:#feab1e;fill-opacity:1;fill-rule:nonzero;stroke:none"
           id="path1728" />
      </g>
      <g
         id="g1730"
         transform="matrix(0.35277777,0,0,-0.35277777,54.117431,95.439917)">
        <path
           d="m 0,0 c 0,-1.209 -0.98,-2.189 -2.19,-2.189 -1.209,0 -2.189,0.98 -2.189,2.189 0,1.209 0.98,2.19 2.189,2.19 C -0.98,2.19 0,1.209 0,0"
           style="fill:#373338;fill-opacity:1;fill-rule:nonzero;stroke:none"
           id="path1732" />
      </g>
      <g
         id="g1734"
         transform="matrix(0.35277777,0,0,-0.35277777,68.337939,95.712261)">
        <path
           d="m 0,0 c 0,-6.25 -4.474,-11.316 -9.992,-11.316 -5.519,0 -9.993,5.066 -9.993,11.316 0,6.25 4.474,11.316 9.993,11.316 C -4.474,11.316 0,6.25 0,0"
           style="fill:#ffffff;fill-opacity:1;fill-rule:nonzero;stroke:none"
           id="path1736" />
      </g>
      <g
         id="g1738"
         transform="matrix(0.35277777,0,0,-0.35277777,56.060108,96.077598)">
        <path
           d="m 0,0 c 0,-5.238 -3.75,-9.484 -8.375,-9.484 -4.625,0 -8.375,4.246 -8.375,9.484 0,5.238 3.75,9.484 8.375,9.484 C -3.75,9.484 0,5.238 0,0"
           style="fill:#ffffff;fill-opacity:1;fill-rule:nonzero;stroke:none"
           id="path1740" />
      </g>
      <g
         id="g1742"
         transform="matrix(0.35277777,0,0,-0.35277777,62.196713,96.370792)">
        <path
           d="m 0,0 c 0,-4.874 3.189,-8.825 7.123,-8.825 3.934,0 7.123,3.951 7.123,8.825 0,4.874 -3.189,8.825 -7.123,8.825 C 3.189,8.825 0,4.874 0,0"
           style="fill:#373338;fill-opacity:1;fill-rule:nonzero;stroke:none"
           id="path1744" />
      </g>
      <g
         id="g1746"
         transform="matrix(0.35277777,0,0,-0.35277777,62.845224,95.098675)">
        <path
           d="m 0,0 c 0,-1.459 1.183,-2.642 2.642,-2.642 1.46,0 2.642,1.183 2.642,2.642 0,1.459 -1.182,2.642 -2.642,2.642 C 1.183,2.642 0,1.459 0,0"
           style="fill:#ffffff;fill-opacity:1;fill-rule:nonzero;stroke:none"
           id="path1748" />
      </g>
      <g
         id="g1750"
         transform="matrix(0.35277777,0,0,-0.35277777,51.072995,96.652591)">
        <path
           d="m 0,0 c 0,-4.04 2.643,-7.314 5.903,-7.314 3.261,0 5.904,3.274 5.904,7.314 0,4.04 -2.643,7.314 -5.904,7.314 C 2.643,7.314 0,4.04 0,0"
           style="fill:#373338;fill-opacity:1;fill-rule:nonzero;stroke:none"
           id="path1752" />
      </g>
      <g
         id="g1754"
         transform="matrix(0.35277777,0,0,-0.35277777,51.610593,95.598244)">
        <path
           d="m 0,0 c 0,-1.209 0.98,-2.19 2.189,-2.19 1.21,0 2.19,0.981 2.19,2.19 0,1.209 -0.98,2.189 -2.19,2.189 C 0.98,2.189 0,1.209 0,0"
           style="fill:#ffffff;fill-opacity:1;fill-rule:nonzero;stroke:none"
           id="path1756" />
      </g>
      <g
         id="g1758"
         transform="matrix(0.35277777,0,0,-0.35277777,69.722521,99.029889)">
        <path
           d="m 0,0 c 0,-2.326 -2.978,-4.211 -6.65,-4.211 -3.673,0 -6.65,1.885 -6.65,4.211 0,2.326 2.977,4.211 6.65,4.211 C -2.978,4.211 0,2.326 0,0"
           style="fill:#f47481;fill-opacity:1;fill-rule:nonzero;stroke:none"
           id="path1760" />
      </g>
      <g
         id="g1762"
         transform="matrix(0.35277777,0,0,-0.35277777,52.648112,99.029889)">
        <path
           d="m 0,0 c 0,-1.758 -2.25,-3.183 -5.027,-3.183 -2.776,0 -5.027,1.425 -5.027,3.183 0,1.758 2.251,3.183 5.027,3.183 C -2.25,3.183 0,1.758 0,0"
           style="fill:#f47481;fill-opacity:1;fill-rule:nonzero;stroke:none"
           id="path1764" />
      </g>
    </g>
  </g>
</svg>
