<?xml version="1.0" encoding="UTF-8" standalone="no"?>
<!-- Created with Inkscape (http://www.inkscape.org/) -->

<svg
   width="28.412397mm"
   height="36.781914mm"
   viewBox="0 0 28.412397 36.781914"
   version="1.1"
   id="svg13469"
   inkscape:version="1.1-rc (52f87abb86, 2021-05-02)"
   sodipodi:docname="8.svg"
   xmlns:inkscape="http://www.inkscape.org/namespaces/inkscape"
   xmlns:sodipodi="http://sodipodi.sourceforge.net/DTD/sodipodi-0.dtd"
   xmlns="http://www.w3.org/2000/svg"
   xmlns:svg="http://www.w3.org/2000/svg">
  <sodipodi:namedview
     id="namedview13471"
     pagecolor="#ffffff"
     bordercolor="#666666"
     borderopacity="1.0"
     objecttolerance="10.0"
     gridtolerance="10.0"
     guidetolerance="10.0"
     inkscape:pageshadow="2"
     inkscape:pageopacity="0.0"
     inkscape:pagecheckerboard="0"
     inkscape:document-units="mm"
     showgrid="false"
     fit-margin-top="0"
     fit-margin-left="0"
     fit-margin-right="0"
     fit-margin-bottom="0"
     inkscape:zoom="0.94875842"
     inkscape:cx="-498.5463"
     inkscape:cy="-101.71188"
     inkscape:window-width="3840"
     inkscape:window-height="2066"
     inkscape:window-x="2869"
     inkscape:window-y="-11"
     inkscape:window-maximized="1"
     inkscape:current-layer="layer1" />
  <defs
     id="defs13466" />
  <g
     inkscape:label="Layer 1"
     inkscape:groupmode="layer"
     id="layer1"
     transform="translate(-237.05859,-175.42595)">
    <g
       id="g9649"
       transform="translate(158.04812,87.405975)">
      <g
         id="g1766"
         transform="matrix(0.35277777,0,0,-0.35277777,93.364981,116.80777)">
        <path
           d="m 0,0 c -6.491,0 -11.749,4.664 -11.749,10.429 0,5.753 5.258,10.428 11.749,10.428 6.501,0 11.76,-4.675 11.76,-10.428 C 11.76,4.664 6.501,0 0,0 m -18.977,54.069 c 0,5.764 5.27,10.44 11.76,10.44 6.491,0 11.76,-4.676 11.76,-10.44 0,-5.753 -5.269,-10.429 -11.76,-10.429 -6.49,0 -11.76,4.676 -11.76,10.429 M 38.525,19.251 c -2.311,7.624 -7.679,14.895 -18.778,19.153 0,0 2.321,3.795 3.838,9.373 4.06,14.884 -5.665,30.131 -20.846,32.936 -9.053,1.683 -21.077,1.618 -31.858,-5.951 -7.668,-5.39 -12.266,-14.334 -11.485,-23.674 0.495,-5.952 3.146,-12.42 10.857,-16.92 0,0 -17.777,-20.428 -6.908,-40.098 3.862,-6.974 10.561,-11.935 18.251,-14.07 7.766,-2.167 19.988,-4.191 32.98,-1.012 17.931,4.39 29.285,22.585 23.949,40.263"
           style="fill:#ffd804;fill-opacity:1;fill-rule:nonzero;stroke:none"
           id="path1768" />
      </g>
      <g
         id="g1770"
         transform="matrix(0.35277777,0,0,-0.35277777,98.506964,124.22027)">
        <path
           d="m 0,0 c -12.992,-3.18 -25.213,-1.155 -32.98,1.012 -7.69,2.134 -14.389,7.095 -18.25,14.07 -6.766,12.244 -2.432,24.785 1.803,32.508 -1.463,-3.224 -2.189,-6.821 -2.398,-10.341 -0.308,-5.259 0.165,-10.737 2.101,-15.666 5.38,-13.674 22.058,-17.535 35.182,-15.367 16.896,2.794 33.365,16.281 27.446,35.18 -2.211,7.052 -7.37,12.354 -14.235,15.126 7.888,8.713 9.406,22.574 3.608,32.783 -3.421,6.018 -9.24,10.506 -15.797,12.706 0.572,-0.088 1.133,-0.187 1.684,-0.286 C 3.345,98.92 13.069,83.672 9.01,68.789 7.492,63.211 5.171,59.416 5.171,59.416 16.271,55.158 21.639,47.887 23.949,40.263 29.285,22.585 17.932,4.39 0,0"
           style="fill:#ffb804;fill-opacity:1;fill-rule:nonzero;stroke:none"
           id="path1772" />
      </g>
      <g
         id="g1774"
         transform="matrix(0.35277777,0,0,-0.35277777,94.443811,124.7832)">
        <path
           d="m 0,0 c -0.561,-0.021 -1.111,-0.032 -1.661,-0.032 0.297,1.891 0.066,3.916 -0.759,5.763 -0.319,0.705 -0.715,1.376 -1.177,2.003 -1.738,2.398 -4.466,4.224 -7.635,5.072 -4.466,1.176 -9.285,0.241 -12.574,-2.465 -0.187,-0.153 -0.363,-0.308 -0.528,-0.462 -1.463,-1.363 -2.541,-3.08 -3.146,-4.906 -0.451,0.231 -0.902,0.473 -1.331,0.726 -0.044,0.011 -0.088,0.044 -0.121,0.066 0.638,1.782 1.639,3.443 2.97,4.818 0.352,0.363 0.715,0.716 1.111,1.034 3.696,3.037 9.076,4.104 14.037,2.783 3.829,-1.023 7.074,-3.333 9.01,-6.358 C -1.463,7.514 -1.166,6.964 -0.913,6.403 0,4.356 0.286,2.124 0,0"
           style="fill:#4a97cd;fill-opacity:1;fill-rule:nonzero;stroke:none"
           id="path1776" />
      </g>
      <g
         id="g1778"
         transform="matrix(0.35277777,0,0,-0.35277777,93.167073,124.79456)">
        <path
           d="m 0,0 h -0.022 c -0.55,0.011 -1.1,0.021 -1.639,0.044 0.011,0.033 0.011,0.055 0.022,0.088 0.396,2.629 -0.748,5.434 -2.882,7.183 -0.187,0.165 -0.385,0.308 -0.594,0.452 -2.421,1.638 -5.699,1.968 -8.592,0.869 -0.363,-0.144 -0.726,-0.309 -1.078,-0.507 -2.013,-1.078 -3.631,-2.903 -4.577,-5.027 -0.033,0.011 -0.076,0.022 -0.11,0.044 -0.407,0.132 -0.814,0.275 -1.21,0.429 -0.088,0.033 -0.176,0.066 -0.264,0.099 v 0.011 c 0.859,1.959 2.212,3.696 3.927,4.983 0.826,0.628 1.739,1.134 2.729,1.519 3.377,1.287 7.249,0.879 10.099,-1.056 C -3.499,8.657 -2.871,8.107 -2.332,7.48 -0.539,5.412 0.352,2.64 0,0"
           style="fill:#4a97cd;fill-opacity:1;fill-rule:nonzero;stroke:none"
           id="path1780" />
      </g>
      <g
         id="g1782"
         transform="matrix(0.35277777,0,0,-0.35277777,91.350832,124.49208)">
        <path
           d="m 0,0 c 0.011,-0.197 0,-0.385 -0.011,-0.571 -0.275,0.021 -0.55,0.054 -0.825,0.076 -0.275,0.033 -0.55,0.066 -0.814,0.099 0,0.088 0.011,0.176 0,0.275 -0.11,1.42 -1.276,2.772 -2.695,3.136 C -5.775,3.378 -7.426,2.806 -8.361,1.617 -8.548,1.375 -8.702,1.101 -8.833,0.825 -9.109,0.892 -9.395,0.946 -9.67,1.013 -9.945,1.067 -10.209,1.134 -10.473,1.199 -10.264,1.717 -10,2.2 -9.659,2.641 -8.306,4.346 -6.006,5.148 -3.938,4.609 -1.826,4.082 -0.176,2.135 0,0"
           style="fill:#4a97cd;fill-opacity:1;fill-rule:nonzero;stroke:none"
           id="path1784" />
      </g>
      <g
         id="g1786"
         transform="matrix(0.35277777,0,0,-0.35277777,106.82755,109.62822)">
        <path
           d="m 0,0 c -1.892,-0.924 -4.004,-1.419 -6.105,-1.419 -1.463,0 -2.926,0.231 -4.312,0.715 -0.022,0.011 -0.033,0.011 -0.056,0.022 -4.642,1.65 -8.184,6.017 -8.833,10.902 -0.089,0.627 -0.121,1.265 -0.099,1.903 0.033,1.991 0.528,3.971 1.408,5.753 l 0.594,-0.23 c 0.198,-0.078 0.396,-0.166 0.594,-0.253 0.122,-0.045 0.231,-0.089 0.352,-0.143 v -0.012 c -1.012,-2.002 -1.474,-4.257 -1.243,-6.468 0,-0.11 0.022,-0.22 0.033,-0.33 0.506,-3.839 3.047,-7.316 6.502,-9.032 0.418,-0.209 0.857,-0.396 1.298,-0.55 3.013,-1.056 6.446,-0.748 9.284,0.693 C -0.362,1.034 -0.176,0.517 0,0"
           style="fill:#4a97cd;fill-opacity:1;fill-rule:nonzero;stroke:none"
           id="path1788" />
      </g>
      <g
         id="g1790"
         transform="matrix(0.35277777,0,0,-0.35277777,106.36971,108.50666)">
        <path
           d="m 0,0 c -0.946,-0.22 -1.892,-0.33 -2.827,-0.33 -1.991,0 -3.928,0.495 -5.6,1.441 -2.937,1.672 -4.873,4.819 -4.927,8.009 -0.023,1.276 0.263,2.53 0.802,3.652 0.253,-0.132 0.495,-0.264 0.738,-0.396 0.241,-0.143 0.472,-0.275 0.704,-0.418 -0.397,-0.869 -0.617,-1.826 -0.595,-2.816 0.044,-2.619 1.65,-5.204 4.093,-6.601 1.947,-1.1 4.422,-1.463 6.809,-1.012 C -0.649,1.276 -0.517,1.023 -0.385,0.77 -0.253,0.517 -0.121,0.253 0,0"
           style="fill:#4a97cd;fill-opacity:1;fill-rule:nonzero;stroke:none"
           id="path1792" />
      </g>
      <g
         id="g1794"
         transform="matrix(0.35277777,0,0,-0.35277777,105.79161,107.47433)">
        <path
           d="m 0,0 c -0.396,-0.088 -0.781,-0.143 -1.178,-0.143 -0.648,0 -1.308,0.11 -1.925,0.363 -1.627,0.649 -2.849,2.112 -3.19,3.828 -0.176,0.891 -0.11,1.815 0.176,2.662 C -5.622,6.314 -5.148,5.907 -4.687,5.5 -4.741,5.126 -4.753,4.741 -4.676,4.378 -4.444,3.223 -3.587,2.189 -2.486,1.749 -2.047,1.573 -1.552,1.518 -1.078,1.529 -0.892,1.276 -0.704,1.034 -0.518,0.77 -0.353,0.528 -0.177,0.275 -0.012,0.022 0,0.011 0,0.011 0,0"
           style="fill:#4a97cd;fill-opacity:1;fill-rule:nonzero;stroke:none"
           id="path1796" />
      </g>
      <g
         id="g1798"
         transform="matrix(0.35277777,0,0,-0.35277777,88.253867,113.96318)">
        <path
           d="m 0,0 c -0.66,-5.511 -5.313,-10.451 -11.32,-12.035 -1.551,-0.396 -3.179,-0.605 -4.862,-0.605 -0.55,0 -1.1,0.022 -1.661,0.066 -1.804,0.132 -3.664,0.495 -5.534,1.078 0,0.011 -0.011,0.022 -0.011,0.033 -0.275,0.649 -0.528,1.287 -0.759,1.936 0,0.022 -0.011,0.033 -0.011,0.044 1.727,-0.627 3.444,-1.056 5.116,-1.298 2.563,-0.352 5.038,-0.242 7.304,0.352 5.368,1.408 9.527,5.776 10.11,10.627 0.286,2.376 -0.253,5.016 -1.507,7.437 -2.068,3.971 -5.82,6.886 -10.022,7.788 -2.904,0.639 -6.007,0.231 -8.635,-1.012 -0.254,-0.121 -0.496,-0.242 -0.738,-0.374 0.176,0.396 0.342,0.792 0.517,1.177 0.165,0.374 0.341,0.737 0.506,1.089 0.011,0.011 0.022,0.033 0.022,0.044 0.099,0.044 0.209,0.077 0.308,0.111 2.641,0.957 5.545,1.188 8.372,0.583 C -8.129,16.028 -3.96,12.794 -1.672,8.394 -0.242,5.644 0.33,2.739 0,0"
           style="fill:#4a97cd;fill-opacity:1;fill-rule:nonzero;stroke:none"
           id="path1800" />
      </g>
      <g
         id="g1802"
         transform="matrix(0.35277777,0,0,-0.35277777,85.971994,114.90626)">
        <path
           d="m 0,0 c -1.837,-3.487 -5.974,-5.644 -10.671,-5.644 -0.264,0 -0.539,0 -0.803,0.023 -0.847,0.044 -1.683,0.142 -2.508,0.308 -1.551,0.286 -3.059,0.748 -4.522,1.287 -0.077,0.319 -0.142,0.638 -0.198,0.957 -0.044,0.165 -0.077,0.341 -0.099,0.506 0,0.033 -0.011,0.077 -0.011,0.11 l -0.033,0.165 c -0.01,0.055 -0.022,0.11 -0.032,0.165 h 0.01 c 1.375,-0.55 2.773,-1.034 4.192,-1.364 1.078,-0.264 2.167,-0.429 3.289,-0.495 3.586,-0.176 8.053,1.21 9.934,4.752 1.309,2.498 1.1,5.864 -0.539,8.405 -1.562,2.398 -4.346,4.114 -7.437,4.576 -2.134,0.319 -4.433,0.066 -6.666,-0.726 -0.517,-0.187 -1.034,-0.396 -1.541,-0.638 0.099,0.363 0.209,0.715 0.33,1.056 0.121,0.352 0.231,0.693 0.364,1.035 0.374,0.142 0.748,0.263 1.122,0.374 2.222,0.659 4.499,0.857 6.644,0.538 3.553,-0.538 6.755,-2.519 8.57,-5.324 C 1.375,6.997 1.617,3.047 0,0"
           style="fill:#4a97cd;fill-opacity:1;fill-rule:nonzero;stroke:none"
           id="path1804" />
      </g>
      <g
         id="g1806"
         transform="matrix(0.35277777,0,0,-0.35277777,82.684846,114.69664)">
        <path
           d="m 0,0 c -1.386,-1.089 -3.245,-1.672 -5.248,-1.672 -0.263,0 -0.539,0.011 -0.814,0.033 -0.23,0.011 -0.451,0.033 -0.682,0.066 -1.067,0.154 -2.09,0.462 -3.047,0.825 -0.055,0.605 -0.088,1.21 -0.099,1.815 1.056,-0.451 2.201,-0.836 3.389,-1.001 0.022,0 0.054,-0.011 0.076,-0.011 2.069,-0.275 4.049,0.165 5.402,1.243 1.518,1.188 2.2,3.202 1.628,4.796 -0.649,1.86 -2.783,2.817 -4.554,2.817 H -3.96 c -0.979,0 -2.014,-0.231 -3.092,-0.704 -0.781,-0.331 -1.595,-0.792 -2.42,-1.375 0.055,0.34 0.11,0.67 0.176,1.012 0.077,0.406 0.154,0.814 0.253,1.21 0.693,0.396 1.376,0.715 2.057,0.946 1.034,0.374 2.047,0.561 3.026,0.561 h 0.011 c 2.783,0 5.291,-1.606 6.116,-3.906 C 2.959,4.411 2.057,1.606 0,0"
           style="fill:#4a97cd;fill-opacity:1;fill-rule:nonzero;stroke:none"
           id="path1808" />
      </g>
      <g
         id="g1810"
         transform="matrix(0.35277777,0,0,-0.35277777,96.992842,101.53017)">
        <path
           d="M 0,0 C -0.56,3.869 -2.74,7.37 -5.796,9.78 -5.864,9.143 -6.002,8.525 -6.193,7.926 c 2.399,-2.135 4.109,-5.042 4.56,-8.162 0.836,-5.778 -2.544,-11.813 -7.861,-14.039 -5.359,-2.243 -12.086,-0.28 -15.31,4.473 -2.542,3.748 -2.604,8.87 -0.497,12.779 -0.447,0.352 -0.87,0.727 -1.253,1.135 -2.576,-4.48 -2.572,-10.481 0.384,-14.84 2.629,-3.876 7.312,-6.115 11.991,-6.115 1.815,0 3.629,0.338 5.323,1.047 C -2.867,-13.29 0.941,-6.499 0,0"
           style="fill:#4a97cd;fill-opacity:1;fill-rule:nonzero;stroke:none"
           id="path1812" />
      </g>
      <g
         id="g1814"
         transform="matrix(0.35277777,0,0,-0.35277777,93.784081,100.30285)">
        <path
           d="m 0,0 c 1.554,-1.396 2.588,-3.289 2.839,-5.241 0.221,-1.706 -0.136,-3.461 -1.003,-4.945 -0.87,-1.491 -2.251,-2.693 -3.888,-3.386 -3.447,-1.463 -7.914,-0.261 -10.166,2.736 -1.798,2.393 -2.078,5.814 -0.924,8.58 -0.529,0.207 -1.035,0.451 -1.52,0.723 -1.43,-3.314 -1.07,-7.373 1.124,-10.293 1.934,-2.574 5.113,-4.03 8.291,-4.029 1.309,0 2.618,0.246 3.838,0.764 1.963,0.83 3.622,2.276 4.669,4.072 1.05,1.797 1.482,3.924 1.217,5.989 C 4.177,-2.703 2.958,-0.455 1.13,1.2 0.786,0.776 0.411,0.373 0,0"
           style="fill:#4a97cd;fill-opacity:1;fill-rule:nonzero;stroke:none"
           id="path1816" />
      </g>
      <g
         id="g1818"
         transform="matrix(0.35277777,0,0,-0.35277777,92.62242,103.3087)">
        <path
           d="m 0,0 c -1.076,-1.049 -2.963,-1.205 -4.39,-0.365 -1.348,0.792 -2.281,2.392 -2.434,4.174 -0.05,0.579 -0.015,1.141 0.066,1.68 -0.555,0.07 -1.098,0.169 -1.625,0.304 -0.113,-0.72 -0.144,-1.433 -0.084,-2.126 0.197,-2.305 1.439,-4.396 3.242,-5.455 0.862,-0.507 1.849,-0.754 2.82,-0.754 1.332,0 2.637,0.464 3.557,1.36 2.033,1.978 1.766,5.29 0.482,7.403 C 1.475,6.483 1.303,6.733 1.12,6.974 0.627,6.7 0.115,6.452 -0.422,6.244 -0.187,5.964 0.036,5.675 0.225,5.364 1.177,3.796 1.421,1.383 0,0"
           style="fill:#4a97cd;fill-opacity:1;fill-rule:nonzero;stroke:none"
           id="path1820" />
      </g>
      <g
         id="g1822"
         transform="matrix(0.35277777,0,0,-0.35277777,102.00373,97.205534)">
        <path
           d="m 0,0 c 0.022,-0.594 0.022,-1.188 0,-1.793 -1.309,-0.55 -2.729,-0.892 -4.191,-0.979 -0.231,0 -0.462,-0.011 -0.693,-0.011 -0.649,0 -1.309,0.044 -1.959,0.154 -3.916,0.616 -7.568,3.014 -10.021,6.578 -2.652,3.85 -3.51,8.559 -2.322,12.618 0.583,1.991 1.695,3.785 3.136,5.193 0.385,0.396 0.803,0.748 1.243,1.078 0.55,-0.276 1.1,-0.572 1.628,-0.88 -0.539,-0.341 -1.045,-0.737 -1.518,-1.177 -1.331,-1.243 -2.365,-2.861 -2.904,-4.676 -1.056,-3.586 -0.275,-7.777 2.09,-11.21 2.2,-3.201 5.456,-5.346 8.921,-5.896 0.825,-0.132 1.651,-0.165 2.465,-0.099 1.452,0.088 2.871,0.473 4.125,1.1"
           style="fill:#4a97cd;fill-opacity:1;fill-rule:nonzero;stroke:none"
           id="path1824" />
      </g>
      <g
         id="g1826"
         transform="matrix(0.35277777,0,0,-0.35277777,101.92623,96.297414)">
        <path
           d="m 0,0 c -1.155,-0.407 -2.376,-0.616 -3.598,-0.616 -0.153,0 -0.307,0 -0.451,0.011 -1.221,0.055 -2.42,0.308 -3.531,0.781 -3.641,1.562 -6.237,5.412 -6.325,9.362 -0.044,2.255 0.725,4.51 2.068,6.347 0.451,0.616 0.968,1.199 1.54,1.705 l 0.011,0.011 c 0.055,-0.044 0.099,-0.077 0.154,-0.121 0.011,-0.011 0.022,-0.011 0.033,-0.022 0.078,-0.055 0.154,-0.121 0.22,-0.176 0.275,-0.209 0.539,-0.429 0.792,-0.66 0.033,-0.011 0.066,-0.044 0.099,-0.077 -0.638,-0.539 -1.21,-1.177 -1.683,-1.87 -1.034,-1.496 -1.617,-3.289 -1.584,-5.093 0.077,-3.333 2.266,-6.579 5.324,-7.888 0.847,-0.352 1.749,-0.572 2.662,-0.627 1.342,-0.099 2.717,0.11 3.994,0.583 0.01,-0.055 0.022,-0.11 0.033,-0.165 0.044,-0.198 0.077,-0.407 0.11,-0.616 C -0.077,0.583 -0.033,0.297 0,0"
           style="fill:#4a97cd;fill-opacity:1;fill-rule:nonzero;stroke:none"
           id="path1828" />
      </g>
      <g
         id="g1830"
         transform="matrix(0.35277777,0,0,-0.35277777,101.61959,94.880941)">
        <path
           d="m 0,0 c -0.429,-0.099 -0.869,-0.154 -1.31,-0.154 -1.001,0 -2.002,0.242 -2.892,0.737 -0.033,0.022 -0.067,0.033 -0.1,0.055 -1.826,1.056 -3.003,3.102 -2.992,5.225 0.012,0.419 0.056,0.837 0.154,1.243 V 7.118 C -6.887,8.196 -6.337,9.208 -5.566,10 -5.192,9.582 -4.841,9.153 -4.499,8.713 -5.192,7.921 -5.633,6.887 -5.644,5.853 -5.654,4.334 -4.785,2.816 -3.477,2.057 -2.597,1.562 -1.529,1.397 -0.528,1.573 -0.44,1.342 -0.363,1.111 -0.286,0.88 -0.264,0.825 -0.242,0.77 -0.231,0.715 -0.154,0.473 -0.077,0.242 0,0"
           style="fill:#4a97cd;fill-opacity:1;fill-rule:nonzero;stroke:none"
           id="path1832" />
      </g>
      <g
         id="g1834"
         transform="matrix(0.35277777,0,0,-0.35277777,83.118586,99.046929)">
        <path
           d="M 0,0 C 5.514,2.227 9.505,7.708 9.931,13.639 10.292,18.681 8.053,23.761 4.219,27.011 3.699,26.743 3.183,26.448 2.667,26.149 6.408,23.265 8.625,18.491 8.285,13.757 7.903,8.44 4.326,3.526 -0.618,1.53 -4.121,0.116 -8.145,0.239 -11.605,1.693 c 0.014,-0.317 0.019,-0.633 0.045,-0.951 0.025,-0.289 0.059,-0.58 0.093,-0.871 1.797,-0.648 3.706,-0.987 5.616,-0.987 1.996,0 3.99,0.365 5.851,1.116"
           style="fill:#4a97cd;fill-opacity:1;fill-rule:nonzero;stroke:none"
           id="path1836" />
      </g>
      <g
         id="g1838"
         transform="matrix(0.35277777,0,0,-0.35277777,80.637959,97.544201)">
        <path
           d="M 0,0 C 1.699,0 3.355,0.304 4.885,0.921 9.639,2.838 12.607,7.95 11.643,12.558 11.018,15.543 9.005,17.903 6.725,19.982 6.271,19.655 5.826,19.317 5.394,18.966 7.554,17.028 9.475,14.859 10.028,12.22 10.82,8.434 8.236,4.052 4.268,2.451 1.713,1.419 -1.354,1.44 -4.299,2.389 -4.387,1.828 -4.456,1.262 -4.505,0.693 -3.007,0.235 -1.487,0 0,0"
           style="fill:#4a97cd;fill-opacity:1;fill-rule:nonzero;stroke:none"
           id="path1840" />
      </g>
      <g
         id="g1842"
         transform="matrix(0.35277777,0,0,-0.35277777,80.536676,95.796681)">
        <path
           d="m 0,0 c 0.36,0 0.722,0.035 1.081,0.107 2.81,0.567 4.976,3.3 4.932,6.224 -0.032,2.105 -1.175,4.097 -2.9,5.314 C 2.727,11.241 2.352,10.827 1.991,10.402 3.38,9.494 4.339,7.924 4.363,6.306 4.395,4.188 2.776,2.133 0.754,1.725 -0.431,1.484 -1.683,1.852 -2.643,2.575 -2.845,2.042 -3.031,1.503 -3.198,0.958 -2.245,0.359 -1.135,0 0,0"
           style="fill:#4a97cd;fill-opacity:1;fill-rule:nonzero;stroke:none"
           id="path1844" />
      </g>
      <g
         id="g1846"
         transform="matrix(0.35277777,0,0,-0.35277777,103.70356,115.68622)">
        <path
           d="m 0,0 c 0,-7.667 -6.227,-13.905 -13.894,-13.905 -0.88,0 -1.738,0.076 -2.574,0.241 -5.446,1.024 -9.78,5.237 -10.979,10.628 0.55,0.077 1.089,0.176 1.617,0.319 1.221,-5.413 6.04,-9.472 11.804,-9.538 h 0.132 c 6.754,0 12.244,5.489 12.244,12.255 0,0.726 -0.066,1.441 -0.187,2.134 -1.012,5.732 -6.028,10.11 -12.057,10.11 -1.628,0 -3.179,-0.33 -4.598,-0.902 -0.242,0.506 -0.528,0.979 -0.859,1.43 1.684,0.726 3.521,1.122 5.457,1.122 5.831,0 10.825,-3.597 12.882,-8.691 C -0.363,3.597 0,1.837 0,0"
           style="fill:#4a97cd;fill-opacity:1;fill-rule:nonzero;stroke:none"
           id="path1848" />
      </g>
      <g
         id="g1850"
         transform="matrix(0.35277777,0,0,-0.35277777,102.05817,116.90475)">
        <path
           d="m 0,0 c -0.011,0 -0.011,-0.011 -0.011,-0.011 -0.363,-0.891 -0.881,-1.717 -1.518,-2.453 -0.55,-0.639 -1.2,-1.188 -1.904,-1.651 -1.705,-1.133 -3.773,-1.749 -5.852,-1.749 -0.99,0 -1.98,0.143 -2.926,0.429 -3.224,0.979 -5.93,3.586 -7.173,6.821 0.517,0.231 1.012,0.484 1.474,0.77 1.035,-2.849 3.367,-5.159 6.182,-6.017 3.169,-0.958 6.855,0.054 8.945,2.475 2.144,2.464 2.508,6.347 0.836,9.042 -1.101,1.782 -3.07,3.103 -5.247,3.532 -1.838,0.363 -3.873,0.099 -5.7,-0.705 0,0.078 0.012,0.143 0.012,0.221 0,0.517 -0.055,1.012 -0.133,1.507 1.992,0.781 4.126,0.99 6.151,0.594 2.618,-0.517 4.983,-2.113 6.325,-4.28 C 1.012,6.006 1.166,2.75 0,0"
           style="fill:#4a97cd;fill-opacity:1;fill-rule:nonzero;stroke:none"
           id="path1852" />
      </g>
      <g
         id="g1854"
         transform="matrix(0.35277777,0,0,-0.35277777,97.046253,116.81225)">
        <path
           d="m 0,0 c 1.435,-1.079 3.245,-1.677 5.042,-1.677 0.183,0 0.366,0.007 0.548,0.019 1.088,0.075 1.993,0.367 2.691,0.871 C 9.884,0.365 10.429,2.805 9.52,4.768 8.779,6.367 7.199,7.634 5.187,8.247 3.872,8.645 2.48,8.726 1.122,8.547 0.996,7.937 0.807,7.348 0.566,6.78 1.929,7.099 3.364,7.077 4.706,6.667 6.271,6.191 7.479,5.247 8.022,4.074 8.601,2.827 8.284,1.247 7.317,0.551 6.873,0.231 6.253,0.042 5.478,-0.012 3.898,-0.114 2.261,0.365 0.993,1.319 0.06,2.021 -0.68,2.986 -1.141,4.064 -1.521,3.628 -1.939,3.221 -2.392,2.844 -1.814,1.735 -0.994,0.749 0,0"
           style="fill:#4a97cd;fill-opacity:1;fill-rule:nonzero;stroke:none"
           id="path1856" />
      </g>
      <g
         id="g1858"
         transform="matrix(0.35277777,0,0,-0.35277777,80.41832,114.67717)">
        <path
           d="m 0,0 c 0.11,-0.572 0.231,-1.133 0.363,-1.694 -0.231,0.01 -0.451,0.033 -0.682,0.066 -1.067,0.154 -2.09,0.461 -3.047,0.825 -0.055,0.605 -0.088,1.21 -0.099,1.815 1.056,-0.451 2.2,-0.836 3.388,-1.001 C -0.055,0.011 -0.022,0 0,0"
           style="fill:#3584b5;fill-opacity:1;fill-rule:nonzero;stroke:none"
           id="path1860" />
      </g>
      <g
         id="g1862"
         transform="matrix(0.35277777,0,0,-0.35277777,80.220411,111.16887)">
        <path
           d="m 0,0 c -0.033,-0.594 -0.055,-1.188 -0.066,-1.793 -0.781,-0.331 -1.595,-0.792 -2.42,-1.375 0.055,0.34 0.11,0.67 0.176,1.012 0.077,0.406 0.154,0.814 0.253,1.21 C -1.364,-0.55 -0.682,-0.231 0,0"
           style="fill:#3584b5;fill-opacity:1;fill-rule:nonzero;stroke:none"
           id="path1864" />
      </g>
      <g
         id="g1866"
         transform="matrix(0.35277777,0,0,-0.35277777,80.391297,109.66695)">
        <path
           d="m 0,0 c -0.11,-0.605 -0.198,-1.221 -0.275,-1.826 -0.517,-0.187 -1.034,-0.397 -1.54,-0.638 0.099,0.362 0.209,0.714 0.33,1.056 0.121,0.352 0.231,0.693 0.363,1.034 C -0.748,-0.231 -0.374,-0.11 0,0"
           style="fill:#3584b5;fill-opacity:1;fill-rule:nonzero;stroke:none"
           id="path1868" />
      </g>
      <g
         id="g1870"
         transform="matrix(0.35277777,0,0,-0.35277777,80.783162,108.15731)">
        <path
           d="m 0,0 c -0.242,-0.671 -0.44,-1.353 -0.616,-2.046 -0.253,-0.121 -0.495,-0.243 -0.737,-0.374 0.176,0.396 0.341,0.792 0.517,1.177 0.165,0.374 0.341,0.737 0.506,1.089 0.011,0.011 0.022,0.033 0.022,0.044 C -0.209,-0.066 -0.099,-0.033 0,0"
           style="fill:#3584b5;fill-opacity:1;fill-rule:nonzero;stroke:none"
           id="path1872" />
      </g>
      <g
         id="g1874"
         transform="matrix(0.35277777,0,0,-0.35277777,80.965584,116.60609)">
        <path
           d="m 0,0 c 0.066,-0.165 0.132,-0.33 0.209,-0.495 -1.551,0.286 -3.058,0.748 -4.521,1.287 -0.077,0.319 -0.143,0.638 -0.198,0.958 -0.044,0.164 -0.077,0.34 -0.099,0.505 0,0.033 -0.011,0.078 -0.011,0.11 L -4.653,2.53 C -4.664,2.585 -4.664,2.64 -4.675,2.695 -3.3,2.146 -1.903,1.661 -0.484,1.331 -0.33,0.88 -0.176,0.44 0,0"
           style="fill:#3584b5;fill-opacity:1;fill-rule:nonzero;stroke:none"
           id="path1876" />
      </g>
      <g
         id="g1878"
         transform="matrix(0.35277777,0,0,-0.35277777,81.959147,118.39908)">
        <path
           d="m 0,0 c -1.804,0.132 -3.664,0.495 -5.534,1.078 0,0.011 -0.01,0.022 -0.01,0.033 -0.275,0.649 -0.529,1.287 -0.76,1.936 0,0.022 -0.01,0.034 -0.01,0.044 C -4.587,2.464 -2.871,2.036 -1.199,1.793 -0.825,1.167 -0.429,0.572 0,0"
           style="fill:#3584b5;fill-opacity:1;fill-rule:nonzero;stroke:none"
           id="path1880" />
      </g>
      <g
         id="g1882"
         transform="matrix(0.35277777,0,0,-0.35277777,85.859352,121.29814)">
        <path
           d="m 0,0 c -1.463,-1.363 -2.541,-3.08 -3.146,-4.906 -0.451,0.231 -0.902,0.473 -1.331,0.726 -0.044,0.011 -0.088,0.044 -0.121,0.066 0.638,1.782 1.639,3.443 2.97,4.818 C -1.089,0.451 -0.55,0.221 0,0"
           style="fill:#3584b5;fill-opacity:1;fill-rule:nonzero;stroke:none"
           id="path1884" />
      </g>
      <g
         id="g1886"
         transform="matrix(0.35277777,0,0,-0.35277777,87.951183,121.92686)">
        <path
           d="m 0,0 c -2.013,-1.078 -3.63,-2.903 -4.577,-5.027 -0.032,0.011 -0.076,0.022 -0.11,0.044 -0.407,0.132 -0.813,0.275 -1.209,0.429 -0.088,0.033 -0.177,0.066 -0.265,0.11 0.859,1.959 2.212,3.696 3.928,4.983 C -1.496,0.33 -0.748,0.154 0,0"
           style="fill:#3584b5;fill-opacity:1;fill-rule:nonzero;stroke:none"
           id="path1888" />
      </g>
      <g
         id="g1890"
         transform="matrix(0.35277777,0,0,-0.35277777,91.350832,124.49208)">
        <path
           d="m 0,0 c 0.011,-0.197 0,-0.385 -0.011,-0.571 -0.275,0.021 -0.55,0.054 -0.825,0.076 -0.275,0.033 -0.55,0.066 -0.814,0.099 0,0.088 0.011,0.176 0,0.275 -0.11,1.42 -1.276,2.772 -2.695,3.136 C -5.775,3.378 -7.426,2.806 -8.361,1.617 -8.548,1.375 -8.702,1.101 -8.833,0.825 -9.109,0.892 -9.395,0.946 -9.67,1.013 -9.945,1.067 -10.209,1.134 -10.473,1.199 -10.264,1.717 -10,2.2 -9.659,2.641 -8.306,4.346 -6.006,5.148 -3.938,4.609 -1.826,4.082 -0.176,2.135 0,0"
           style="fill:#3584b5;fill-opacity:1;fill-rule:nonzero;stroke:none"
           id="path1892" />
      </g>
      <g
         id="g1894"
         transform="matrix(0.35277777,0,0,-0.35277777,92.344395,122.1556)">
        <path
           d="M 0,0 C 1.793,-2.068 2.684,-4.841 2.332,-7.48 H 2.31 c -0.55,0.01 -1.1,0.021 -1.639,0.043 0.011,0.034 0.011,0.055 0.022,0.088 0.396,2.629 -0.748,5.435 -2.882,7.184 C -1.452,-0.132 -0.715,-0.077 0,0"
           style="fill:#3584b5;fill-opacity:1;fill-rule:nonzero;stroke:none"
           id="path1896" />
      </g>
      <g
         id="g1898"
         transform="matrix(0.35277777,0,0,-0.35277777,94.443811,124.7832)">
        <path
           d="m 0,0 c -0.561,-0.021 -1.111,-0.032 -1.661,-0.032 0.297,1.891 0.066,3.916 -0.759,5.763 -0.319,0.705 -0.715,1.376 -1.177,2.003 0.198,0.011 0.385,0.044 0.572,0.078 0.407,0.065 0.814,0.142 1.221,0.23 C -1.463,7.514 -1.166,6.964 -0.913,6.403 0,4.356 0.286,2.124 0,0"
           style="fill:#3584b5;fill-opacity:1;fill-rule:nonzero;stroke:none"
           id="path1900" />
      </g>
      <g
         id="g1902"
         transform="matrix(0.35277777,0,0,-0.35277777,101.51866,117.77414)">
        <path
           d="M 0,0 C -0.55,-0.638 -1.199,-1.188 -1.903,-1.65 -0.616,-0.396 0.528,0.979 1.519,2.453 1.155,1.562 0.638,0.737 0,0"
           style="fill:#3584b5;fill-opacity:1;fill-rule:nonzero;stroke:none"
           id="path1904" />
      </g>
      <g
         id="g1906"
         transform="matrix(0.35277777,0,0,-0.35277777,103.70356,115.68622)">
        <path
           d="m 0,0 c 0,-7.667 -6.227,-13.905 -13.894,-13.905 -0.88,0 -1.738,0.076 -2.574,0.241 0.836,0.441 1.65,0.903 2.442,1.409 h 0.132 c 6.754,0 12.244,5.489 12.244,12.255 0,0.726 -0.066,1.441 -0.187,2.134 0.352,0.99 0.627,2.013 0.825,3.069 C -0.363,3.597 0,1.837 0,0"
           style="fill:#3584b5;fill-opacity:1;fill-rule:nonzero;stroke:none"
           id="path1908" />
      </g>
      <g
         id="g1910"
         transform="matrix(0.35277777,0,0,-0.35277777,101.02188,103.54693)">
        <path
           d="m 0,0 c -1.012,-2.002 -1.474,-4.257 -1.243,-6.468 -0.55,0.484 -1.111,0.935 -1.705,1.353 0.033,1.991 0.528,3.971 1.408,5.753 L -0.946,0.407 C -0.748,0.33 -0.55,0.242 -0.352,0.154 -0.23,0.11 -0.11,0.055 0,0"
           style="fill:#3584b5;fill-opacity:1;fill-rule:nonzero;stroke:none"
           id="path1912" />
      </g>
      <g
         id="g1914"
         transform="matrix(0.35277777,0,0,-0.35277777,97.354581,89.459417)">
        <path
           d="m 0,0 c -0.539,-0.341 -1.045,-0.737 -1.519,-1.177 -0.439,0.341 -0.89,0.671 -1.352,0.979 0.385,0.396 0.803,0.748 1.243,1.078 C -1.078,0.605 -0.528,0.308 0,0"
           style="fill:#3584b5;fill-opacity:1;fill-rule:nonzero;stroke:none"
           id="path1916" />
      </g>
      <g
         id="g1918"
         transform="matrix(0.35277777,0,0,-0.35277777,98.755355,90.460741)">
        <path
           d="m 0,0 c -0.638,-0.539 -1.21,-1.177 -1.683,-1.87 -0.374,0.418 -0.77,0.825 -1.166,1.21 0.452,0.616 0.968,1.199 1.54,1.705 C -1.254,1.012 -1.198,0.968 -1.144,0.936 -1.133,0.924 -1.122,0.924 -1.11,0.914 -1.033,0.858 -0.957,0.792 -0.891,0.737 -0.615,0.528 -0.352,0.308 -0.099,0.077 -0.065,0.066 -0.032,0.033 0,0"
           style="fill:#3584b5;fill-opacity:1;fill-rule:nonzero;stroke:none"
           id="path1920" />
      </g>
      <g
         id="g1922"
         transform="matrix(0.35277777,0,0,-0.35277777,101.61959,94.880941)">
        <path
           d="m 0,0 c -0.429,-0.099 -0.869,-0.154 -1.31,-0.154 -1.001,0 -2.002,0.242 -2.892,0.737 -0.562,1.925 -1.343,3.795 -2.344,5.556 -0.186,0.33 -0.385,0.649 -0.594,0.967 V 7.118 C -6.887,8.196 -6.337,9.208 -5.566,10 -5.192,9.582 -4.841,9.153 -4.499,8.713 -5.192,7.921 -5.633,6.887 -5.644,5.853 -5.654,4.334 -4.785,2.816 -3.477,2.057 -2.597,1.562 -1.529,1.397 -0.528,1.573 -0.44,1.342 -0.363,1.111 -0.286,0.88 -0.264,0.825 -0.242,0.77 -0.231,0.715 -0.154,0.473 -0.077,0.242 0,0"
           style="fill:#3584b5;fill-opacity:1;fill-rule:nonzero;stroke:none"
           id="path1924" />
      </g>
      <g
         id="g1926"
         transform="matrix(0.35277777,0,0,-0.35277777,100.65704,96.514796)">
        <path
           d="M 0,0 C -0.153,0 -0.308,0 -0.451,0.011 -0.506,0.572 -0.583,1.122 -0.671,1.683 0.671,1.584 2.046,1.793 3.322,2.266 3.333,2.211 3.345,2.156 3.355,2.101 3.399,1.903 3.433,1.694 3.466,1.485 3.521,1.199 3.564,0.913 3.598,0.616 2.442,0.209 1.222,0 0,0"
           style="fill:#3584b5;fill-opacity:1;fill-rule:nonzero;stroke:none"
           id="path1928" />
      </g>
      <g
         id="g1930"
         transform="matrix(0.35277777,0,0,-0.35277777,102.00373,97.205534)">
        <path
           d="m 0,0 c 0.022,-0.594 0.022,-1.188 0,-1.793 -1.309,-0.55 -2.729,-0.892 -4.191,-0.979 0.044,0.55 0.066,1.111 0.066,1.672 1.452,0.088 2.871,0.473 4.125,1.1"
           style="fill:#3584b5;fill-opacity:1;fill-rule:nonzero;stroke:none"
           id="path1932" />
      </g>
      <g
         id="g1934"
         transform="matrix(0.35277777,0,0,-0.35277777,105.79161,107.47433)">
        <path
           d="m 0,0 c -0.396,-0.088 -0.781,-0.143 -1.178,-0.143 -0.648,0 -1.308,0.11 -1.925,0.363 -1.627,0.649 -2.849,2.112 -3.19,3.828 -0.176,0.891 -0.11,1.815 0.176,2.662 C -5.622,6.314 -5.148,5.907 -4.687,5.5 -4.741,5.126 -4.753,4.741 -4.676,4.378 -4.444,3.223 -3.587,2.189 -2.486,1.749 -2.047,1.573 -1.552,1.518 -1.078,1.529 -0.892,1.276 -0.704,1.034 -0.518,0.77 -0.353,0.528 -0.177,0.275 -0.012,0.022 0,0.011 0,0.011 0,0"
           style="fill:#3584b5;fill-opacity:1;fill-rule:nonzero;stroke:none"
           id="path1936" />
      </g>
      <g
         id="g1938"
         transform="matrix(0.35277777,0,0,-0.35277777,106.36971,108.50666)">
        <path
           d="m 0,0 c -0.946,-0.22 -1.892,-0.33 -2.827,-0.33 -1.991,0 -3.928,0.495 -5.6,1.441 -2.937,1.672 -4.873,4.819 -4.927,8.009 -0.023,1.276 0.263,2.53 0.802,3.652 0.253,-0.132 0.495,-0.264 0.738,-0.396 0.241,-0.143 0.472,-0.275 0.704,-0.418 -0.397,-0.869 -0.617,-1.826 -0.595,-2.816 0.044,-2.619 1.65,-5.204 4.093,-6.601 1.947,-1.1 4.422,-1.463 6.809,-1.012 C -0.649,1.276 -0.517,1.023 -0.385,0.77 -0.253,0.517 -0.121,0.253 0,0"
           style="fill:#3584b5;fill-opacity:1;fill-rule:nonzero;stroke:none"
           id="path1940" />
      </g>
      <g
         id="g1942"
         transform="matrix(0.35277777,0,0,-0.35277777,106.82755,109.62822)">
        <path
           d="m 0,0 c -1.892,-0.924 -4.004,-1.419 -6.105,-1.419 -1.463,0 -2.926,0.231 -4.312,0.715 -0.022,0.011 -0.033,0.011 -0.056,0.022 -0.065,0.242 -0.131,0.473 -0.209,0.715 -0.142,0.462 -0.307,0.924 -0.483,1.375 0.418,-0.209 0.857,-0.396 1.298,-0.55 3.013,-1.056 6.446,-0.748 9.284,0.693 C -0.362,1.034 -0.176,0.517 0,0"
           style="fill:#3584b5;fill-opacity:1;fill-rule:nonzero;stroke:none"
           id="path1944" />
      </g>
      <g
         id="g1946"
         transform="matrix(0.35277777,0,0,-0.35277777,100.63294,98.53466)">
        <path
           d="m 0,0 c 0,-4.811 -3.475,-8.71 -7.76,-8.71 -4.285,0 -7.759,3.899 -7.759,8.71 0,4.811 3.474,8.71 7.759,8.71 C -3.475,8.71 0,4.811 0,0"
           style="fill:#ffffff;fill-opacity:1;fill-rule:nonzero;stroke:none"
           id="path1948" />
      </g>
      <g
         id="g1950"
         transform="matrix(0.35277777,0,0,-0.35277777,86.667037,100.21431)">
        <path
           d="m 0,0 c 0,-4.573 -3.303,-8.281 -7.376,-8.281 -4.074,0 -7.376,3.708 -7.376,8.281 0,4.573 3.302,8.281 7.376,8.281 C -3.303,8.281 0,4.573 0,0"
           style="fill:#ffffff;fill-opacity:1;fill-rule:nonzero;stroke:none"
           id="path1952" />
      </g>
      <g
         id="g1954"
         transform="matrix(0.35277777,0,0,-0.35277777,99.603186,98.961168)">
        <path
           d="m 0,0 c 0,-3.773 -2.512,-6.833 -5.61,-6.833 -3.099,0 -5.612,3.06 -5.612,6.833 0,3.773 2.513,6.833 5.612,6.833 C -2.512,6.833 0,3.773 0,0"
           style="fill:#373338;fill-opacity:1;fill-rule:nonzero;stroke:none"
           id="path1956" />
      </g>
      <g
         id="g1958"
         transform="matrix(0.35277777,0,0,-0.35277777,97.510297,97.930387)">
        <path
           d="m 0,0 c 0,-1.094 -0.887,-1.98 -1.98,-1.98 -1.094,0 -1.981,0.886 -1.981,1.98 0,1.094 0.887,1.98 1.981,1.98 C -0.887,1.98 0,1.094 0,0"
           style="fill:#ffffff;fill-opacity:1;fill-rule:nonzero;stroke:none"
           id="path1960" />
      </g>
      <g
         id="g1962"
         transform="matrix(0.35277777,0,0,-0.35277777,85.961658,100.56331)">
        <path
           d="m 0,0 c 0,-3.579 -2.383,-6.48 -5.322,-6.48 -2.939,0 -5.322,2.901 -5.322,6.48 0,3.579 2.383,6.48 5.322,6.48 C -2.383,6.48 0,3.579 0,0"
           style="fill:#373338;fill-opacity:1;fill-rule:nonzero;stroke:none"
           id="path1964" />
      </g>
      <g
         id="g1966"
         transform="matrix(0.35277777,0,0,-0.35277777,83.97626,99.585409)">
        <path
           d="m 0,0 c 0,-1.038 -0.841,-1.879 -1.878,-1.879 -1.038,0 -1.879,0.841 -1.879,1.879 0,1.037 0.841,1.878 1.879,1.878 C -0.841,1.878 0,1.037 0,0"
           style="fill:#ffffff;fill-opacity:1;fill-rule:nonzero;stroke:none"
           id="path1968" />
      </g>
      <g
         id="g1970"
         transform="matrix(0.35277777,0,0,-0.35277777,96.190484,104.76493)">
        <path
           d="m 0,0 c -0.204,-1.583 -1.223,-3.093 -2.638,-3.752 -0.371,-0.168 -0.767,-0.288 -1.186,-0.324 -2.698,-0.252 -4.916,2.362 -7.625,2.493 -2.206,0.108 -4.112,-1.462 -5.802,-2.889 -1.067,-0.899 -2.242,-1.822 -3.525,-2.301 h -0.012 c -0.743,-0.3 -1.535,-0.432 -2.35,-0.324 -1.498,0.203 -2.793,1.259 -3.524,2.577 -0.744,1.319 -0.96,2.865 -0.887,4.376 0.095,2.038 0.839,4.22 2.601,5.251 0.504,0.288 1.031,0.467 1.594,0.551 1.115,0.192 2.326,0.012 3.429,-0.287 1.667,-0.456 3.273,-1.187 4.987,-1.403 1.966,-0.24 3.525,0.515 5.119,1.547 1.475,0.946 2.949,2.313 4.832,2.097 0.06,0 0.132,-0.011 0.192,-0.024 C -3.597,7.385 -2.614,6.521 -1.846,5.562 -0.587,4.004 0.252,1.99 0,0"
           style="fill:#373338;fill-opacity:1;fill-rule:nonzero;stroke:none"
           id="path1972" />
      </g>
      <g
         id="g1974"
         transform="matrix(0.35277777,0,0,-0.35277777,95.259963,106.08873)">
        <path
           d="m 0,0 c -0.372,-0.168 -0.767,-0.288 -1.187,-0.324 -2.697,-0.252 -4.915,2.362 -7.625,2.494 -2.205,0.108 -4.111,-1.463 -5.802,-2.889 -1.067,-0.9 -2.241,-1.823 -3.524,-2.302 h -0.012 c -0.683,1.163 -0.923,2.577 -0.612,3.896 0.42,1.774 1.823,3.285 3.573,3.824 1.163,0.36 2.458,0.276 3.585,-0.179 0.946,-0.396 2.049,-0.204 2.9,0.383 1.043,0.707 2.35,1.103 3.585,1.043 1.858,-0.108 3.633,-1.235 4.52,-2.877 C -0.096,2.134 0.096,1.055 0,0"
           style="fill:#f47481;fill-opacity:1;fill-rule:nonzero;stroke:none"
           id="path1976" />
      </g>
      <g
         id="g1978"
         transform="matrix(0.35277777,0,0,-0.35277777,94.955586,104.85813)">
        <path
           d="m 0,0 c -0.012,-0.551 -0.252,-1.103 -0.671,-1.474 -0.84,-0.72 -2.135,-0.612 -3.154,-0.192 -1.03,0.419 -1.942,1.091 -3.008,1.415 -1.248,0.359 -2.602,0.191 -3.813,-0.288 -1.199,-0.48 -2.266,-1.259 -3.225,-2.134 -0.443,-0.396 -0.899,-0.839 -1.474,-1.019 -0.78,-0.252 -1.691,0.036 -2.182,0.695 -0.132,0.192 -0.24,0.408 -0.288,0.636 0.467,1.666 1.822,3.057 3.489,3.572 1.162,0.36 2.457,0.276 3.584,-0.18 0.947,-0.395 2.05,-0.203 2.901,0.384 1.043,0.707 2.35,1.103 3.585,1.043 C -2.566,2.362 -0.935,1.415 0,0"
           style="fill:#f4889c;fill-opacity:1;fill-rule:nonzero;stroke:none"
           id="path1980" />
      </g>
      <g
         id="g1982"
         transform="matrix(0.35277777,0,0,-0.35277777,91.428337,104.33792)">
        <path
           d="M 0,0 C -5.071,-0.623 -9.471,1.247 -9.842,4.196 -9.854,4.28 -9.854,4.364 -9.854,4.448 -9.351,4.532 -8.835,4.544 -8.32,4.508 -7.685,4.46 -7.037,4.328 -6.426,4.16 -4.759,3.705 -3.153,2.973 -1.438,2.758 0.527,2.518 2.086,3.273 3.68,4.304 4.724,4.976 5.767,5.862 6.965,6.246 7.457,6.39 7.972,6.462 8.512,6.402 8.835,3.489 5.023,0.636 0,0"
           style="fill:#d7edf4;fill-opacity:1;fill-rule:nonzero;stroke:none"
           id="path1984" />
      </g>
      <g
         id="g1986"
         transform="matrix(0.35277777,0,0,-0.35277777,93.88554,102.13444)">
        <path
           d="m 0,0 c -0.228,-2.757 -3.692,-4.963 -7.937,-4.963 -3.308,0 -6.149,1.331 -7.348,3.225 0.635,-0.048 1.283,-0.18 1.894,-0.348 1.666,-0.456 3.273,-1.187 4.987,-1.402 1.966,-0.241 3.525,0.515 5.119,1.546 C -2.242,-1.271 -1.199,-0.384 0,0"
           style="fill:#ffffff;fill-opacity:1;fill-rule:nonzero;stroke:none"
           id="path1988" />
      </g>
      <g
         id="g1990"
         transform="matrix(0.35277777,0,0,-0.35277777,94.291199,101.68331)">
        <path
           d="m 0,0 v 0 c -1.706,0 -3.056,-0.938 -4.248,-1.766 -0.262,-0.182 -0.522,-0.362 -0.781,-0.529 -1.317,-0.851 -2.465,-1.417 -3.799,-1.417 -0.194,0 -0.394,0.012 -0.592,0.037 -1.004,0.126 -1.994,0.458 -3.041,0.809 -0.58,0.195 -1.178,0.395 -1.79,0.562 -0.992,0.27 -1.915,0.407 -2.744,0.407 -0.403,0 -0.794,-0.033 -1.161,-0.096 -0.677,-0.1 -1.342,-0.331 -1.954,-0.68 -1.876,-1.098 -3.022,-3.339 -3.155,-6.155 -0.091,-1.923 0.255,-3.595 1.028,-4.967 0.952,-1.717 2.573,-2.888 4.335,-3.128 0.238,-0.031 0.477,-0.047 0.714,-0.047 0.687,0 1.381,0.131 2.064,0.389 l 0.117,0.041 c 1.48,0.554 2.762,1.577 3.848,2.492 1.465,1.235 3.123,2.635 4.878,2.635 0.054,0 0.108,-10e-4 0.162,-0.004 1.027,-0.05 2.045,-0.581 3.124,-1.143 1.29,-0.673 2.625,-1.369 4.186,-1.369 0.156,0 0.312,0.007 0.471,0.022 0.501,0.043 1.021,0.183 1.537,0.417 1.738,0.809 3.019,2.618 3.276,4.614 0.265,2.098 -0.494,4.428 -2.082,6.394 -1.107,1.384 -2.326,2.2 -3.621,2.42 -0.098,0.02 -0.2,0.033 -0.3,0.038 C 0.312,-0.008 0.155,0 0,0 m 0,-1.1 c 0.13,0 0.262,-0.007 0.396,-0.023 0.061,0 0.132,-0.012 0.192,-0.024 1.199,-0.204 2.182,-1.067 2.95,-2.026 1.258,-1.558 2.098,-3.573 1.846,-5.562 -0.204,-1.583 -1.223,-3.094 -2.638,-3.753 -0.371,-0.168 -0.767,-0.287 -1.186,-0.324 -0.124,-0.011 -0.248,-0.017 -0.369,-0.017 -2.534,0 -4.671,2.385 -7.256,2.511 -0.072,0.004 -0.144,0.005 -0.216,0.005 -2.115,0 -3.951,-1.514 -5.587,-2.894 -1.067,-0.899 -2.241,-1.822 -3.524,-2.302 h -0.012 c -0.57,-0.23 -1.168,-0.361 -1.784,-0.361 -0.187,0 -0.376,0.012 -0.566,0.037 -1.498,0.204 -2.793,1.259 -3.524,2.578 -0.744,1.318 -0.96,2.865 -0.888,4.376 0.096,2.038 0.839,4.219 2.602,5.251 0.503,0.287 1.031,0.467 1.594,0.551 0.319,0.055 0.645,0.079 0.975,0.079 0.823,0 1.666,-0.152 2.454,-0.367 1.666,-0.455 3.273,-1.187 4.987,-1.403 0.248,-0.03 0.49,-0.044 0.726,-0.044 1.635,0 3,0.69 4.393,1.591 1.37,0.88 2.739,2.121 4.435,2.121"
           style="fill:#f48b20;fill-opacity:1;fill-rule:nonzero;stroke:none"
           id="path1992" />
      </g>
      <g
         id="g1994"
         transform="matrix(0.35277777,0,0,-0.35277777,100.96985,100.75811)">
        <path
           d="m 0,0 c 0.168,-1.601 -1.702,-3.108 -4.176,-3.366 -2.474,-0.259 -4.615,0.829 -4.782,2.43 -0.168,1.601 1.702,3.108 4.176,3.367 C -2.308,2.689 -0.167,1.601 0,0"
           style="fill:#f47481;fill-opacity:1;fill-rule:nonzero;stroke:none"
           id="path1996" />
      </g>
      <g
         id="g1998"
         transform="matrix(0.35277777,0,0,-0.35277777,83.938195,102.86892)">
        <path
           d="m 0,0 c 0.131,-1.25 -1.329,-2.426 -3.26,-2.627 -1.93,-0.202 -3.602,0.647 -3.732,1.897 -0.131,1.249 1.328,2.425 3.26,2.627 C -1.801,2.099 -0.13,1.25 0,0"
           style="fill:#f47481;fill-opacity:1;fill-rule:nonzero;stroke:none"
           id="path2000" />
      </g>
    </g>
  </g>
</svg>
