<?xml version="1.0" encoding="UTF-8" standalone="no"?>
<!-- Created with Inkscape (http://www.inkscape.org/) -->

<svg
   width="29.5494mm"
   height="29.352648mm"
   viewBox="0 0 29.5494 29.352648"
   version="1.1"
   id="svg34448"
   inkscape:version="1.1-rc (52f87abb86, 2021-05-02)"
   sodipodi:docname="a-aligator.svg"
   xmlns:inkscape="http://www.inkscape.org/namespaces/inkscape"
   xmlns:sodipodi="http://sodipodi.sourceforge.net/DTD/sodipodi-0.dtd"
   xmlns="http://www.w3.org/2000/svg"
   xmlns:svg="http://www.w3.org/2000/svg">
  <sodipodi:namedview
     id="namedview34450"
     pagecolor="#ffffff"
     bordercolor="#666666"
     borderopacity="1.0"
     objecttolerance="10.0"
     gridtolerance="10.0"
     guidetolerance="10.0"
     inkscape:pageshadow="2"
     inkscape:pageopacity="0.0"
     inkscape:pagecheckerboard="0"
     inkscape:document-units="mm"
     showgrid="false"
     fit-margin-top="0"
     fit-margin-left="0"
     fit-margin-right="0"
     fit-margin-bottom="0"
     inkscape:zoom="0.94875842"
     inkscape:cx="254.01619"
     inkscape:cy="477.99312"
     inkscape:window-width="3840"
     inkscape:window-height="2066"
     inkscape:window-x="2869"
     inkscape:window-y="-11"
     inkscape:window-maximized="1"
     inkscape:current-layer="layer1" />
  <defs
     id="defs34445">
    <clipPath
       clipPathUnits="userSpaceOnUse"
       id="clipPath8522">
      <path
         d="m 71.29,436.581 c -0.329,-0.038 -0.551,-0.455 -0.497,-0.931 v 0 c 0.054,-0.475 0.365,-0.83 0.694,-0.793 v 0 c 0.329,0.037 0.551,0.453 0.497,0.929 v 0 c -0.052,0.454 -0.336,0.798 -0.647,0.798 v 0 c -0.016,0 -0.031,-10e-4 -0.047,-0.003"
         id="path8520" />
    </clipPath>
    <clipPath
       clipPathUnits="userSpaceOnUse"
       id="clipPath8534">
      <path
         d="M 0,500 H 750 V 0 H 0 Z"
         id="path8532" />
    </clipPath>
    <clipPath
       clipPathUnits="userSpaceOnUse"
       id="clipPath8546">
      <path
         d="m 73.13,436.17 c -0.054,-0.476 0.169,-0.892 0.497,-0.93 v 0 c 0.33,-0.037 0.64,0.319 0.694,0.794 v 0 c 0.054,0.476 -0.168,0.893 -0.498,0.93 v 0 c -0.016,10e-4 -0.032,0.002 -0.048,0.002 v 0 c -0.31,0 -0.593,-0.343 -0.645,-0.796"
         id="path8544" />
    </clipPath>
    <clipPath
       clipPathUnits="userSpaceOnUse"
       id="clipPath8590">
      <path
         d="m 42.2039,426.533 h 1.2344 v -1.294 h -1.2344 z"
         id="path8588" />
    </clipPath>
    <clipPath
       clipPathUnits="userSpaceOnUse"
       id="clipPath8606">
      <path
         d="m 42.8059,417.922 h 0.9035 v -0.903 h -0.9035 z"
         id="path8604" />
    </clipPath>
    <clipPath
       clipPathUnits="userSpaceOnUse"
       id="clipPath8630">
      <path
         d="m 49.3096,406.24 h 1.0436 v -0.994 h -1.0436 z"
         id="path8628" />
    </clipPath>
    <clipPath
       clipPathUnits="userSpaceOnUse"
       id="clipPath8646">
      <path
         d="m 60.1968,404.927 h 1.0436 v -0.993 h -1.0436 z"
         id="path8644" />
    </clipPath>
    <clipPath
       clipPathUnits="userSpaceOnUse"
       id="clipPath8662">
      <path
         d="m 44.8602,403.871 h 1.4059 v -1.445 h -1.4059 z"
         id="path8660" />
    </clipPath>
    <clipPath
       clipPathUnits="userSpaceOnUse"
       id="clipPath8678">
      <path
         d="m 66.1276,408.047 h 1.4059 v -1.445 h -1.4059 z"
         id="path8676" />
    </clipPath>
    <clipPath
       clipPathUnits="userSpaceOnUse"
       id="clipPath8698">
      <path
         d="m 63.7207,404.345 h 1.6707 v -1.818 h -1.6707 z"
         id="path8696" />
    </clipPath>
    <clipPath
       clipPathUnits="userSpaceOnUse"
       id="clipPath8714">
      <path
         d="m 39.7461,405.992 h 1.425 v -1.421 h -1.425 z"
         id="path8712" />
    </clipPath>
  </defs>
  <g
     inkscape:label="Layer 1"
     inkscape:groupmode="layer"
     id="layer1"
     transform="translate(-37.93234,-22.134944)">
    <g
       id="g33923"
       transform="translate(120.7579,-42.356374)">
      <g
         id="g19578">
        <g
           id="g8340"
           transform="matrix(0.35277777,0,0,-0.35277777,-64.61726,81.426062)">
          <path
             d="M 0,0 12.164,0.435 6.842,33.777 Z M 13.902,-10.969 -2.281,-11.62 -6.408,-32.039 -21.613,-30.735 -2.172,48.004 17.92,46.266 32.148,-27.368 16.4,-26.065 Z"
             style="fill:#5fb357;fill-opacity:1;fill-rule:nonzero;stroke:none"
             id="path8342" />
        </g>
        <g
           id="g8344"
           transform="matrix(0.35277777,0,0,-0.35277777,-71.625685,76.015051)">
          <path
             d="m 0,0 c -0.012,-0.11 0.021,-0.212 0.05,-0.318 0.089,-0.33 0.294,-1.217 0.837,-0.871 0.126,0.08 0.213,0.3 0.275,0.424 0.159,0.319 0.222,0.695 0.399,0.999"
             style="fill:#fdfaf0;fill-opacity:1;fill-rule:nonzero;stroke:none"
             id="path8346" />
        </g>
        <g
           id="g8348"
           transform="matrix(0.35277777,0,0,-0.35277777,-70.615047,76.160924)">
          <path
             d="M 0,0 C 0.033,-0.21 0.143,-0.46 0.202,-0.68 0.236,-0.808 0.283,-0.931 0.326,-1.056 0.359,-1.157 0.377,-1.263 0.414,-1.363 0.532,-1.69 0.804,-1.63 0.946,-1.37 1.211,-0.882 1.387,-0.32 1.713,0.128"
             style="fill:#fdfaf0;fill-opacity:1;fill-rule:nonzero;stroke:none"
             id="path8350" />
        </g>
        <g
           id="g8352"
           transform="matrix(0.35277777,0,0,-0.35277777,-69.619755,76.174859)">
          <path
             d="m 0,0 c 0.049,-0.312 0.081,-0.63 0.118,-0.943 0.017,-0.145 0.028,-0.29 0.047,-0.434 0.011,-0.08 0.027,-0.177 0.06,-0.251 0.017,-0.038 0.046,-0.07 0.071,-0.104 0.174,-0.244 0.263,-0.092 0.411,0.125 0.218,0.318 0.349,0.672 0.501,1.025 0.041,0.095 0.101,0.325 0.215,0.384"
             style="fill:#fdfaf0;fill-opacity:1;fill-rule:nonzero;stroke:none"
             id="path8354" />
        </g>
        <g
           id="g8356"
           transform="matrix(0.35277777,0,0,-0.35277777,-68.649193,76.279211)">
          <path
             d="m 0,0 c -0.021,-0.067 0.056,-0.15 0.069,-0.22 0.034,-0.17 0.046,-0.343 0.081,-0.513 0.033,-0.16 0.084,-0.314 0.129,-0.471 0.049,-0.171 0.069,-0.405 0.171,-0.554 0.125,-0.182 0.427,0.085 0.52,0.171 0.307,0.29 0.404,0.779 0.565,1.156 0.066,0.154 0.136,0.333 0.278,0.434"
             style="fill:#fdfaf0;fill-opacity:1;fill-rule:nonzero;stroke:none"
             id="path8358" />
        </g>
        <g
           id="g8360"
           transform="matrix(0.35277777,0,0,-0.35277777,-71.235724,76.835859)">
          <path
             d="M 0,0 C 0.082,0.256 0.477,0.669 0.577,0.792 0.642,0.871 0.727,0.951 0.802,1.022 0.884,1.101 1.006,1.262 1.139,1.24 1.237,1.224 1.286,0.996 1.307,0.931 1.423,0.568 1.507,0.196 1.619,-0.167 1.655,-0.283 1.715,-0.512 1.845,-0.553"
             style="fill:#fdfaf0;fill-opacity:1;fill-rule:nonzero;stroke:none"
             id="path8362" />
        </g>
        <g
           id="g8364"
           transform="matrix(0.35277777,0,0,-0.35277777,-70.204696,77.123372)">
          <path
             d="M 0,0 C 0.064,0.01 0.107,0.056 0.142,0.117 0.37,0.514 0.527,0.88 0.81,1.229 0.854,1.283 0.967,1.444 1.055,1.452 1.301,1.476 1.307,1.135 1.342,0.966 1.416,0.602 1.426,0.228 1.489,-0.138 1.506,-0.234 1.521,-0.415 1.633,-0.451"
             style="fill:#fdfaf0;fill-opacity:1;fill-rule:nonzero;stroke:none"
             id="path8366" />
        </g>
        <g
           id="g8368"
           transform="matrix(0.35277777,0,0,-0.35277777,-69.402409,77.481301)">
          <path
             d="M 0,0 C 0.105,0.331 0.333,0.622 0.471,0.943 0.67,1.41 0.447,0.942 0.741,1.515 0.808,1.645 0.831,1.711 0.912,1.827 0.983,1.93 1.096,2.121 1.233,2.16 1.376,2.201 1.443,1.922 1.463,1.854 1.577,1.46 1.616,1.01 1.664,0.605 1.675,0.513 1.681,0.421 1.688,0.328 1.702,0.135 1.592,-0.45 1.874,-0.434"
             style="fill:#fdfaf0;fill-opacity:1;fill-rule:nonzero;stroke:none"
             id="path8370" />
        </g>
        <g
           id="g8372"
           transform="matrix(0.35277777,0,0,-0.35277777,-68.10782,77.682455)">
          <path
             d="M 0,0 C -0.113,-0.056 -0.076,0.036 -0.063,0.189 -0.038,0.485 0.066,0.788 0.142,1.071 0.213,1.34 0.29,1.607 0.362,1.875 0.416,2.073 0.408,2.279 0.473,2.473 0.497,2.546 0.617,2.835 0.725,2.835 0.806,2.835 0.837,2.714 0.866,2.662 0.954,2.51 1.014,2.378 1.055,2.205 1.182,1.68 1.308,1.147 1.465,0.63 1.494,0.536 1.572,0.127 1.67,0.079"
             style="fill:#fdfaf0;fill-opacity:1;fill-rule:nonzero;stroke:none"
             id="path8374" />
        </g>
        <g
           id="g8376"
           transform="matrix(0.35277777,0,0,-0.35277777,-67.618799,76.109807)">
          <path
             d="M 0,0 C -0.079,0.026 -0.057,0.035 -0.031,-0.094 0.184,-1.171 -0.049,0.029 0.095,-0.662 0.18,-1.07 0.31,-1.551 0.536,-1.906 c 0.076,-0.121 0.249,-0.343 0.425,-0.299 0.195,0.048 0.269,0.376 0.315,0.535 0.18,0.621 0.218,1.24 0.536,1.812"
             style="fill:#fdfaf0;fill-opacity:1;fill-rule:nonzero;stroke:none"
             id="path8378" />
        </g>
        <g
           id="g8380"
           transform="matrix(0.35277777,0,0,-0.35277777,-67.090903,77.838065)">
          <path
             d="M 0,0 C 0,0.671 0.25,1.341 0.425,1.985 0.442,2.048 0.453,2.112 0.473,2.174 0.517,2.311 0.792,3.02 1.055,2.757 1.269,2.544 1.266,2.104 1.339,1.843 1.526,1.17 1.674,0.487 1.843,-0.189"
             style="fill:#fdfaf0;fill-opacity:1;fill-rule:nonzero;stroke:none"
             id="path8382" />
        </g>
        <g
           id="g8384"
           transform="matrix(0.35277777,0,0,-0.35277777,-66.657445,76.126458)">
          <path
             d="m 0,0 c -0.064,0 0.014,-0.117 0.031,-0.158 0.145,-0.341 0.164,-0.332 0.252,-0.63 0.116,-0.39 0.243,-0.798 0.457,-1.15 0.072,-0.117 0.192,-0.333 0.347,-0.378 0.039,-0.011 0.074,0.043 0.094,0.079 0.115,0.204 0.154,0.454 0.205,0.678 0.094,0.407 0.151,0.793 0.173,1.212 0.016,0.281 -0.007,0.576 0.048,0.851"
             style="fill:#fdfaf0;fill-opacity:1;fill-rule:nonzero;stroke:none"
             id="path8386" />
        </g>
        <g
           id="g8388"
           transform="matrix(0.35277777,0,0,-0.35277777,-66.096175,77.899131)">
          <path
             d="M 0,0 C 0,0.449 0.185,1.302 0.22,1.559 0.31,2.205 0.186,1.462 0.299,2.158 0.341,2.413 0.561,3.29 0.882,2.694 0.913,2.636 0.953,2.582 0.977,2.52 1.016,2.418 1.044,2.311 1.071,2.205 1.233,1.574 1.224,0.894 1.449,0.284 1.514,0.106 1.547,-0.114 1.685,-0.252"
             style="fill:#fdfaf0;fill-opacity:1;fill-rule:nonzero;stroke:none"
             id="path8390" />
        </g>
        <g
           id="g8392"
           transform="matrix(0.35277777,0,0,-0.35277777,-65.601616,75.970848)">
          <path
             d="m 0,0 c -0.01,0.042 -0.062,0.157 -0.031,0.126 0.169,-0.169 0.133,-0.46 0.189,-0.693 0.117,-0.488 0.216,-0.968 0.441,-1.418 0.059,-0.118 0.174,-0.482 0.378,-0.441 0.203,0.041 0.374,0.501 0.425,0.646 0.229,0.65 0.252,1.354 0.441,2.016"
             style="fill:#fdfaf0;fill-opacity:1;fill-rule:nonzero;stroke:none"
             id="path8394" />
        </g>
        <g
           id="g8396"
           transform="matrix(0.35277777,0,0,-0.35277777,-64.71251,75.748598)">
          <path
             d="m 0,0 c 0.163,-0.139 0.084,-0.049 0.205,-0.268 0.274,-0.495 0.57,-0.981 0.835,-1.48 0.046,-0.089 0.206,-0.315 0.346,-0.268 0.162,0.054 0.225,0.453 0.252,0.583 0.021,0.098 0.035,0.199 0.047,0.299 0.024,0.193 0.026,0.389 0.048,0.583 0.047,0.422 0.1,0.836 0.22,1.244"
             style="fill:#fdfaf0;fill-opacity:1;fill-rule:nonzero;stroke:none"
             id="path8398" />
        </g>
        <g
           id="g8400"
           transform="matrix(0.35277777,0,0,-0.35277777,-63.75112,75.570798)">
          <path
             d="m 0,0 c 0,-0.178 0.096,-0.337 0.142,-0.504 0.176,-0.64 -0.1,0.188 0.126,-0.488 0.031,-0.094 0.078,-0.284 0.189,-0.331 0.086,-0.037 0.208,0.201 0.22,0.22 0.153,0.24 0.225,0.472 0.268,0.756 0.02,0.131 0.029,0.263 0.047,0.394 0.013,0.09 0.032,0.179 0.048,0.268"
             style="fill:#fdfaf0;fill-opacity:1;fill-rule:nonzero;stroke:none"
             id="path8402" />
        </g>
        <g
           id="g8404"
           transform="matrix(0.35277777,0,0,-0.35277777,-63.195425,75.226204)">
          <path
             d="m 0,0 c 0.067,-0.367 0.091,-0.705 0.173,-1.087 0.041,-0.188 0.131,-0.398 0.268,-0.535 0.005,-0.006 0.088,-0.054 0.11,-0.032 0.072,0.072 0.181,0.282 0.221,0.362 0.247,0.494 0.277,1.047 0.409,1.576"
             style="fill:#fdfaf0;fill-opacity:1;fill-rule:nonzero;stroke:none"
             id="path8406" />
        </g>
        <g
           id="g8408"
           transform="matrix(0.35277777,0,0,-0.35277777,-65.190418,77.871332)">
          <path
             d="M 0,0 C -0.072,0 0.017,0.148 0.032,0.189 1.522,4.511 -1.137,-3.216 0.268,0.898 0.449,1.427 0.626,1.999 0.898,2.489 0.941,2.567 1.114,2.847 1.229,2.804 1.445,2.723 1.405,2.261 1.418,2.111 1.458,1.625 1.543,1.124 1.638,0.646 1.669,0.491 1.674,0.345 1.685,0.189 1.689,0.141 1.68,0 1.733,0"
             style="fill:#fdfaf0;fill-opacity:1;fill-rule:nonzero;stroke:none"
             id="path8410" />
        </g>
        <g
           id="g8412"
           transform="matrix(0.35277777,0,0,-0.35277777,-64.517989,77.810266)">
          <path
             d="M 0,0 C 0.016,0.179 0.014,0.219 0.063,0.41 0.122,0.637 0.185,0.862 0.252,1.087 0.269,1.146 0.295,1.202 0.315,1.26 0.328,1.299 0.432,1.674 0.504,1.638 0.62,1.58 0.659,1.27 0.677,1.166 0.737,0.82 0.707,0.398 0.866,0.079"
             style="fill:#fdfaf0;fill-opacity:1;fill-rule:nonzero;stroke:none"
             id="path8414" />
        </g>
        <g
           id="g8416"
           transform="matrix(0.35277777,0,0,-0.35277777,-72.994603,73.736847)">
          <path
             d="m 0,0 c 0,0 -3.785,0.918 -4.193,0.081 -0.751,-1.546 1.514,-4.657 1.514,-4.657"
             style="fill:#7c9729;fill-opacity:1;fill-rule:nonzero;stroke:none"
             id="path8418" />
        </g>
        <g
           id="g8420"
           transform="matrix(0.35277777,0,0,-0.35277777,-74.030288,75.309566)">
          <path
             d="m 0,0 c 0,0 -3.276,0.29 -3.738,-0.846 -0.465,-1.142 2.233,-4.238 2.233,-4.238"
             style="fill:#667f18;fill-opacity:1;fill-rule:nonzero;stroke:none"
             id="path8422" />
        </g>
        <g
           id="g8424"
           transform="matrix(0.35277777,0,0,-0.35277777,-74.741488,77.11928)">
          <path
             d="m 0,0 c 0,0 -3.217,-0.048 -3.558,-1.425 -0.266,-1.073 2.874,-3.833 2.874,-3.833"
             style="fill:#7c9729;fill-opacity:1;fill-rule:nonzero;stroke:none"
             id="path8426" />
        </g>
        <g
           id="g8428"
           transform="matrix(0.35277777,0,0,-0.35277777,-75.325618,78.94547)">
          <path
             d="m 0,0 c 0,0 -3.305,-0.553 -3.425,-1.72 -0.12,-1.168 3.188,-3.577 3.188,-3.577"
             style="fill:#667f18;fill-opacity:1;fill-rule:nonzero;stroke:none"
             id="path8430" />
        </g>
        <g
           id="g8432"
           transform="matrix(0.35277777,0,0,-0.35277777,-75.533333,80.680149)">
          <path
             d="m 0,0 c 0.703,0.268 -3.769,-1.373 -3.872,-2.949 -0.092,-1.4 3.547,-3.625 3.547,-3.625"
             style="fill:#7c9729;fill-opacity:1;fill-rule:nonzero;stroke:none"
             id="path8434" />
        </g>
        <g
           id="g8436"
           transform="matrix(0.35277777,0,0,-0.35277777,-75.829385,82.683644)">
          <path
             d="m 0,0 c 0,0 -4.496,-1.79 -4.17,-3.184 0.232,-0.991 3.683,-3.064 3.683,-3.064"
             style="fill:#667f18;fill-opacity:1;fill-rule:nonzero;stroke:none"
             id="path8438" />
        </g>
        <g
           id="g8440"
           transform="matrix(0.35277777,0,0,-0.35277777,-76.29992,84.832413)">
          <path
             d="m 0,0 c 0,0 -4.051,-1.529 -3.96,-2.769 0.092,-1.24 4.642,-4.139 4.642,-4.139"
             style="fill:#7c9729;fill-opacity:1;fill-rule:nonzero;stroke:none"
             id="path8442" />
        </g>
        <g
           id="g8444"
           transform="matrix(0.35277777,0,0,-0.35277777,-76.250848,87.139192)">
          <path
             d="M 0,0 C 0,0 -4.026,-1.145 -3.68,-2.847 -3.527,-3.6 0.961,-6.393 0.961,-6.393"
             style="fill:#667f18;fill-opacity:1;fill-rule:nonzero;stroke:none"
             id="path8446" />
        </g>
        <g
           id="g8448"
           transform="matrix(0.35277777,0,0,-0.35277777,-81.238808,86.069605)">
          <path
             d="M 0,0 C 0,0 -1.677,3.033 -2.471,2.424 -2.823,2.154 -3.135,-0.878 -3.135,-0.878"
             style="fill:#667f18;fill-opacity:1;fill-rule:nonzero;stroke:none"
             id="path8450" />
        </g>
        <g
           id="g8452"
           transform="matrix(0.35277777,0,0,-0.35277777,-80.131086,86.217384)">
          <path
             d="M 0,0 C 0,0 -0.234,3.457 -1.211,3.242 -1.644,3.147 -3.212,0.533 -3.212,0.533"
             style="fill:#667f18;fill-opacity:1;fill-rule:nonzero;stroke:none"
             id="path8454" />
        </g>
        <g
           id="g8456"
           transform="matrix(0.35277777,0,0,-0.35277777,-79.192168,86.863602)">
          <path
             d="m 0,0 c 0,0 1.193,3.253 0.213,3.454 -0.434,0.089 -2.93,-1.66 -2.93,-1.66"
             style="fill:#667f18;fill-opacity:1;fill-rule:nonzero;stroke:none"
             id="path8458" />
        </g>
        <g
           id="g8460"
           transform="matrix(0.35277777,0,0,-0.35277777,-78.402863,87.633928)">
          <path
             d="m 0,0 c 0,0 1.765,2.982 0.838,3.358 -0.411,0.167 -3.183,-1.1 -3.183,-1.1"
             style="fill:#667f18;fill-opacity:1;fill-rule:nonzero;stroke:none"
             id="path8462" />
        </g>
        <g
           id="g8464"
           transform="matrix(0.35277777,0,0,-0.35277777,-77.478903,89.137784)">
          <path
             d="m 0,0 c 0,0 1.765,2.982 0.838,3.358 -0.411,0.167 -3.183,-1.1 -3.183,-1.1"
             style="fill:#7c9729;fill-opacity:1;fill-rule:nonzero;stroke:none"
             id="path8466" />
        </g>
        <g
           id="g8468"
           transform="matrix(0.35277777,0,0,-0.35277777,-67.218432,89.95196)">
          <path
             d="m 0,0 c 0,0 1.627,-1.445 3.052,-1.762 1.425,-0.316 2.006,-0.105 2.322,0.238 0.317,0.343 1.523,-0.66 1.84,-0.449 C 7.531,-1.762 7.38,-6.09 6.377,-7.647 5.374,-9.204 2.524,-8.424 0.149,-8.471 c -2.375,-0.046 -7.917,-1.551 -10.318,-0.97 l -2.678,3.774 3.404,2.493"
             style="fill:#bbc514;fill-opacity:1;fill-rule:nonzero;stroke:none"
             id="path8470" />
        </g>
        <g
           id="g8472"
           transform="matrix(0.35277777,0,0,-0.35277777,-69.118599,74.965537)">
          <path
             d="m 0,0 c 0,0 2.86,-0.092 6.586,0.369 3.727,0.461 6.808,1.033 6.808,1.033 0,0 -0.312,2.27 1.023,2.44 1.335,0.17 1.629,-1.442 1.629,-1.442 0,0 0.103,1.627 1.067,1.76 0.965,0.133 0.972,-1.629 0.972,-1.629 0,0 1.701,0.143 2.079,-0.957 0.378,-1.1 -2.134,-3.656 -10.616,-5.073 -8.482,-1.418 -18.584,-0.63 -19.101,2.025 0,0 0.225,-2.543 4.049,-3.78 3.825,-1.238 14.895,-3.15 20.159,-2.812 0,0 -5.013,-1.544 -10.072,-1.57 -5.058,-0.027 -9.45,1.842 -9.201,-0.414 0.249,-2.255 4.667,-10.506 6.498,-18.999 1.831,-8.493 3.5,-13.418 3.5,-13.418 l -25.074,0.608 c 0,0 -2.511,8.706 0.773,24.529 3.285,15.823 4.597,16.582 6.622,19.48 3.48,4.981 6.85,3.823 8.393,3.453 C -2.363,5.232 -0.132,2.901 0,0"
             style="fill:#bbc514;fill-opacity:1;fill-rule:nonzero;stroke:none"
             id="path8474" />
        </g>
        <g
           id="g8476"
           transform="matrix(0.35277777,0,0,-0.35277777,-76.066134,89.732532)">
          <path
             d="m 0,0 c 0,0 -0.493,-2.046 -2.364,0.958 -1.871,3.005 -7.294,13.163 -14.419,9.885 0,0 -2.256,-1.101 -2.375,-1.853 -0.119,-0.752 3.912,0.947 5.423,-0.554 5.7,-5.661 4.578,-10.986 8.867,-14.884 6.156,-5.594 15.755,-7.362 21.178,-1.108 5.423,6.254 -7.046,8.514 -7.046,8.514"
             style="fill:#bbc514;fill-opacity:1;fill-rule:nonzero;stroke:none"
             id="path8478" />
        </g>
        <g
           id="g8480"
           transform="matrix(0.35277777,0,0,-0.35277777,-71.521121,78.260375)">
          <path
             d="m 0,0 c -3.27,-0.221 -5.814,-5.009 -5.246,-14.174 0.405,-6.526 0.796,-13.995 2.615,-18.61 0,0 3.53,-9.099 9.488,-8.822 7.965,0.369 5.34,8.464 5.34,8.464 0,0 -1.669,4.926 -3.5,13.419 -1.83,8.493 -6.249,16.742 -6.498,18.998 -0.006,0.05 0.004,0.087 0.003,0.133 C 1.619,-0.195 0.897,0.061 0,0"
             style="fill:#e2df18;fill-opacity:1;fill-rule:nonzero;stroke:none"
             id="path8482" />
        </g>
        <g
           id="g8484"
           transform="matrix(0.35277777,0,0,-0.35277777,-73.206164,80.742273)">
          <path
             d="M 0,0 C 1.568,1.746 2.959,2.382 5.227,2.649 6.125,2.755 7.926,2.192 8.215,1.971 8.305,1.902 8.206,1.977 8.206,1.977 6.441,2.945 3.919,2.542 2.196,1.651 1.29,1.183 0.751,0.685 0,0.009"
             style="fill:#bbc514;fill-opacity:1;fill-rule:nonzero;stroke:#bbc514;stroke-width:0.198;stroke-linecap:round;stroke-linejoin:round;stroke-miterlimit:4;stroke-dasharray:none;stroke-opacity:1"
             id="path8486" />
        </g>
        <g
           id="g8488"
           transform="matrix(0.35277777,0,0,-0.35277777,-73.280495,83.510873)">
          <path
             d="M 0,0 C 0.901,1.125 2.547,2.566 4.193,3.37 6.508,4.5 9.002,4.637 10.969,3.196 L 10.955,3.167 C 7.289,5.326 2.412,2.903 0.014,0.039"
             style="fill:#bbc514;fill-opacity:1;fill-rule:nonzero;stroke:#bbc514;stroke-width:0.198;stroke-linecap:round;stroke-linejoin:round;stroke-miterlimit:4;stroke-dasharray:none;stroke-opacity:1"
             id="path8490" />
        </g>
        <g
           id="g8492"
           transform="matrix(0.35277777,0,0,-0.35277777,-72.986419,86.902125)">
          <path
             d="m 0,0 c 1.431,1.77 3.966,3.787 6.922,4.564 1.882,0.494 4.128,0.458 5.744,-0.38 L 12.651,4.154 C 8.17,5.973 2.654,3.047 0.052,-0.026"
             style="fill:#bbc514;fill-opacity:1;fill-rule:nonzero;stroke:#bbc514;stroke-width:0.198;stroke-linecap:round;stroke-linejoin:round;stroke-miterlimit:4;stroke-dasharray:none;stroke-opacity:1"
             id="path8494" />
        </g>
        <g
           id="g8496"
           transform="matrix(0.35277777,0,0,-0.35277777,-72.510733,89.125895)">
          <path
             d="m 0,0 c 1.278,1.373 3.117,3.068 5.833,3.87 1.86,0.55 5.158,0.649 7.162,-0.614 L 12.978,3.227 C 10.835,4.312 8.188,4.328 5.879,3.63 3.51,2.913 1.489,1.447 0.05,-0.031"
             style="fill:#bbc514;fill-opacity:1;fill-rule:nonzero;stroke:#bbc514;stroke-width:0.198;stroke-linecap:round;stroke-linejoin:round;stroke-miterlimit:4;stroke-dasharray:none;stroke-opacity:1"
             id="path8498" />
        </g>
        <g
           id="g8500"
           transform="matrix(0.35277777,0,0,-0.35277777,-68.999184,83.175487)">
          <path
             d="m 0,0 c 0,0 2.333,-4.722 6.259,-3.118 3.927,1.604 3.113,4.738 3.113,4.738 l 0.801,-1.096 0.721,1.912 0.844,-1.46 0.536,1.145 c 0,0 1.574,-4.779 -1.209,-8.532 C 8.281,-10.163 1.05,-8.754 1.05,-8.754"
             style="fill:#bbc514;fill-opacity:1;fill-rule:nonzero;stroke:none"
             id="path8502" />
        </g>
        <g
           id="g8504"
           transform="matrix(0.35277777,0,0,-0.35277777,-74.322918,82.932211)">
          <path
             d="m 0,0 c 0,0 1.463,-5.059 5.611,-4.173 1.466,0.313 2.382,0.918 2.955,1.57 1.049,1.194 0.945,2.544 0.945,2.544 l 0.594,-1.22 1.048,1.755 0.573,-1.586 0.73,1.033 c 0,0 0.706,-4.983 -2.696,-8.185 -3.402,-3.203 -10.271,-0.54 -10.271,-0.54"
             style="fill:#bbc514;fill-opacity:1;fill-rule:nonzero;stroke:none"
             id="path8506" />
        </g>
        <g
           id="g8508"
           transform="matrix(0.35277777,0,0,-0.35277777,-72.311873,75.067666)">
          <path
             d="m 0,0 c 0.032,-0.276 -0.43,-1.534 -1.344,-1.852 l -0.003,0.004 c 0.804,0.426 1.223,1.042 1.35,1.854"
             style="fill:#70ba6a;fill-opacity:1;fill-rule:nonzero;stroke:#5ba155;stroke-width:0.198;stroke-linecap:round;stroke-linejoin:round;stroke-miterlimit:4;stroke-dasharray:none;stroke-opacity:1"
             id="path8510" />
        </g>
        <g
           id="g8512"
           transform="matrix(0.35277777,0,0,-0.35277777,-64.092151,74.222022)">
          <path
             d="M 0,0 C -0.054,0.476 0.168,0.892 0.497,0.93 0.826,0.967 1.137,0.612 1.191,0.136 1.245,-0.34 1.023,-0.756 0.694,-0.794 0.365,-0.831 0.054,-0.476 0,0"
             style="fill:#3e6722;fill-opacity:1;fill-rule:nonzero;stroke:none"
             id="path8514" />
        </g>
        <g
           id="g8516"
           transform="matrix(0.35277777,0,0,-0.35277777,-89.066312,227.90994)">
          <g
             id="g8518"
             clip-path="url(#clipPath8522)">
            <g
               id="g8524"
               transform="translate(71.0135,435.4968)">
              <path
                 d="M 0,0 C 0.051,0.347 0.339,0.578 0.643,0.516 0.947,0.453 1.152,0.12 1.101,-0.227 1.05,-0.575 0.762,-0.806 0.458,-0.743 0.154,-0.68 -0.051,-0.348 0,0"
                 style="fill:#15350c;fill-opacity:1;fill-rule:nonzero;stroke:none"
                 id="path8526" />
            </g>
          </g>
        </g>
        <g
           id="g8528"
           transform="matrix(0.35277777,0,0,-0.35277777,-89.066312,227.90994)">
          <g
             id="g8530"
             clip-path="url(#clipPath8534)">
            <g
               id="g8536"
               transform="translate(74.321,436.0342)">
              <path
                 d="M 0,0 C 0.054,0.476 -0.168,0.892 -0.497,0.93 -0.826,0.967 -1.137,0.612 -1.191,0.136 -1.245,-0.34 -1.022,-0.757 -0.694,-0.794 -0.365,-0.831 -0.054,-0.476 0,0"
                 style="fill:#3e6722;fill-opacity:1;fill-rule:nonzero;stroke:none"
                 id="path8538" />
            </g>
          </g>
        </g>
        <g
           id="g8540"
           transform="matrix(0.35277777,0,0,-0.35277777,-89.066312,227.90994)">
          <g
             id="g8542"
             clip-path="url(#clipPath8546)">
            <g
               id="g8548"
               transform="translate(74.1005,435.8801)">
              <path
                 d="M 0,0 C -0.051,0.347 -0.339,0.578 -0.643,0.516 -0.947,0.453 -1.152,0.12 -1.101,-0.227 -1.05,-0.575 -0.762,-0.806 -0.458,-0.743 -0.154,-0.68 0.051,-0.347 0,0"
                 style="fill:#15350c;fill-opacity:1;fill-rule:nonzero;stroke:none"
                 id="path8550" />
            </g>
          </g>
        </g>
      </g>
      <g
         id="g8560"
         transform="matrix(0.35277777,0,0,-0.35277777,-71.537878,74.681762)">
        <path
           d="M 0,0 C -0.029,0.611 0.36,1.116 0.87,1.13 1.381,1.143 1.818,0.659 1.847,0.048 1.877,-0.563 1.487,-1.069 0.977,-1.082 0.467,-1.095 0.029,-0.611 0,0"
           style="fill:#5a270f;fill-opacity:1;fill-rule:nonzero;stroke:none"
           id="path8562" />
      </g>
      <g
         id="g8564"
         transform="matrix(0.35277777,0,0,-0.35277777,-71.256044,74.567004)">
        <path
           d="M 0,0 C -0.01,0.211 0.124,0.385 0.3,0.39 0.476,0.394 0.627,0.227 0.637,0.017 0.647,-0.194 0.513,-0.368 0.337,-0.373 0.161,-0.378 0.01,-0.211 0,0"
           style="fill:#fdfaf0;fill-opacity:1;fill-rule:nonzero;stroke:none"
           id="path8566" />
      </g>
      <g
         id="g8568"
         transform="matrix(0.35277777,0,0,-0.35277777,-70.614482,74.572507)">
        <path
           d="M 0,0 C -0.03,0.611 0.371,1.116 0.896,1.13 1.421,1.143 1.871,0.659 1.901,0.048 1.931,-0.563 1.53,-1.069 1.005,-1.082 0.48,-1.095 0.03,-0.611 0,0"
           style="fill:#5a270f;fill-opacity:1;fill-rule:nonzero;stroke:none"
           id="path8570" />
      </g>
      <g
         id="g8572"
         transform="matrix(0.35277777,0,0,-0.35277777,-70.341291,74.432419)">
        <path
           d="M 0,0 C -0.01,0.211 0.124,0.385 0.3,0.39 0.476,0.394 0.627,0.227 0.637,0.016 0.647,-0.194 0.513,-0.369 0.337,-0.373 0.161,-0.378 0.01,-0.211 0,0"
           style="fill:#fdfaf0;fill-opacity:1;fill-rule:nonzero;stroke:none"
           id="path8574" />
      </g>
      <g
         id="g8576"
         transform="matrix(0.35277777,0,0,-0.35277777,-71.488278,74.185475)">
        <path
           d="M 0,0 C 0.13,0.416 0.968,0.689 1.102,0.188 L 1.101,0.191 C 1.115,0.26 0.935,0.382 0.727,0.396 0.402,0.417 0.19,0.228 0,0"
           style="fill:#5a270f;fill-opacity:1;fill-rule:nonzero;stroke:#5a270f;stroke-width:0.109;stroke-linecap:round;stroke-linejoin:round;stroke-miterlimit:4;stroke-dasharray:none;stroke-opacity:1"
           id="path8578" />
      </g>
      <g
         id="g8580"
         transform="matrix(0.35277777,0,0,-0.35277777,-70.56975,74.011943)">
        <path
           d="M 0,0 C 0.097,0.266 0.466,0.471 0.743,0.383 0.861,0.346 0.868,0.348 1.033,0.203 1.062,0.177 1.155,0.016 1.143,0.036 L 1.134,0.032 C 0.913,0.283 0.531,0.423 0.327,0.297 0.123,0.171 0.082,0.103 0.016,-0.007"
           style="fill:#5a270f;fill-opacity:1;fill-rule:nonzero;stroke:#5a270f;stroke-width:0.109;stroke-linecap:round;stroke-linejoin:round;stroke-miterlimit:4;stroke-dasharray:none;stroke-opacity:1"
           id="path8582" />
      </g>
      <g
         id="g8584"
         transform="matrix(0.35277777,0,0,-0.35277777,-89.066312,227.90994)">
        <g
           id="g8586" />
        <g
           id="g8598">
          <g
             clip-path="url(#clipPath8590)"
             opacity="0.516556"
             id="g8596">
            <g
               transform="translate(42.2039,425.8859)"
               id="g8594">
              <path
                 d="M 0,0 C 0,0.358 0.276,0.647 0.617,0.647 0.958,0.647 1.234,0.358 1.234,0 1.234,-0.357 0.958,-0.647 0.617,-0.647 0.276,-0.647 0,-0.357 0,0"
                 style="fill:#719127;fill-opacity:1;fill-rule:nonzero;stroke:none"
                 id="path8592" />
            </g>
          </g>
        </g>
      </g>
      <g
         id="g8600"
         transform="matrix(0.35277777,0,0,-0.35277777,-89.066312,227.90994)">
        <g
           id="g8602" />
        <g
           id="g8614">
          <g
             clip-path="url(#clipPath8606)"
             opacity="0.516556"
             id="g8612">
            <g
               transform="translate(42.8059,417.4704)"
               id="g8610">
              <path
                 d="M 0,0 C 0,0.249 0.202,0.452 0.452,0.452 0.701,0.452 0.903,0.249 0.903,0 0.903,-0.249 0.701,-0.452 0.452,-0.452 0.202,-0.452 0,-0.249 0,0"
                 style="fill:#719127;fill-opacity:1;fill-rule:nonzero;stroke:none"
                 id="path8608" />
            </g>
          </g>
        </g>
      </g>
      <g
         id="g8616"
         transform="matrix(0.35277777,0,0,-0.35277777,-75.611685,82.871533)">
        <path
           d="M 0,0 C 0,0.457 0.357,0.828 0.798,0.828 1.239,0.828 1.596,0.457 1.596,0 1.596,-0.457 1.239,-0.828 0.798,-0.828 0.357,-0.828 0,-0.457 0,0"
           style="fill:#719127;fill-opacity:1;fill-rule:nonzero;stroke:none"
           id="path8618" />
      </g>
      <g
         id="g8620"
         transform="matrix(0.35277777,0,0,-0.35277777,-75.27316,87.240757)">
        <path
           d="M 0,0 C 0,0.316 0.25,0.572 0.557,0.572 0.865,0.572 1.114,0.316 1.114,0 1.114,-0.316 0.865,-0.572 0.557,-0.572 0.25,-0.572 0,-0.316 0,0"
           style="fill:#719127;fill-opacity:1;fill-rule:nonzero;stroke:none"
           id="path8622" />
      </g>
      <g
         id="g8624"
         transform="matrix(0.35277777,0,0,-0.35277777,-89.066312,227.90994)">
        <g
           id="g8626" />
        <g
           id="g8638">
          <g
             clip-path="url(#clipPath8630)"
             opacity="0.168091"
             id="g8636">
            <g
               transform="translate(49.3096,405.743)"
               id="g8634">
              <path
                 d="M 0,0 C 0,0.274 0.234,0.497 0.522,0.497 0.81,0.497 1.044,0.274 1.044,0 1.044,-0.274 0.81,-0.497 0.522,-0.497 0.234,-0.497 0,-0.274 0,0"
                 style="fill:#719127;fill-opacity:1;fill-rule:nonzero;stroke:none"
                 id="path8632" />
            </g>
          </g>
        </g>
      </g>
      <g
         id="g8640"
         transform="matrix(0.35277777,0,0,-0.35277777,-89.066312,227.90994)">
        <g
           id="g8642" />
        <g
           id="g8654">
          <g
             clip-path="url(#clipPath8646)"
             opacity="0.168091"
             id="g8652">
            <g
               transform="translate(60.1968,404.4307)"
               id="g8650">
              <path
                 d="M 0,0 C 0,0.274 0.234,0.497 0.522,0.497 0.81,0.497 1.044,0.274 1.044,0 1.044,-0.274 0.81,-0.497 0.522,-0.497 0.234,-0.497 0,-0.274 0,0"
                 style="fill:#719127;fill-opacity:1;fill-rule:nonzero;stroke:none"
                 id="path8648" />
            </g>
          </g>
        </g>
      </g>
      <g
         id="g8656"
         transform="matrix(0.35277777,0,0,-0.35277777,-89.066312,227.90994)">
        <g
           id="g8658" />
        <g
           id="g8670">
          <g
             clip-path="url(#clipPath8662)"
             opacity="0.516556"
             id="g8668">
            <g
               transform="translate(44.8602,403.1483)"
               id="g8666">
              <path
                 d="M 0,0 C 0,0.399 0.315,0.723 0.703,0.723 1.091,0.723 1.406,0.399 1.406,0 1.406,-0.399 1.091,-0.723 0.703,-0.723 0.315,-0.723 0,-0.399 0,0"
                 style="fill:#719127;fill-opacity:1;fill-rule:nonzero;stroke:none"
                 id="path8664" />
            </g>
          </g>
        </g>
      </g>
      <g
         id="g8672"
         transform="matrix(0.35277777,0,0,-0.35277777,-89.066312,227.90994)">
        <g
           id="g8674" />
        <g
           id="g8686">
          <g
             clip-path="url(#clipPath8678)"
             opacity="0.0895386"
             id="g8684">
            <g
               transform="translate(66.1276,407.3241)"
               id="g8682">
              <path
                 d="M 0,0 C 0,0.399 0.315,0.723 0.703,0.723 1.091,0.723 1.406,0.399 1.406,0 1.406,-0.399 1.091,-0.723 0.703,-0.723 0.315,-0.723 0,-0.399 0,0"
                 style="fill:#719127;fill-opacity:1;fill-rule:nonzero;stroke:none"
                 id="path8680" />
            </g>
          </g>
        </g>
      </g>
      <g
         id="g8688"
         transform="matrix(0.35277777,0,0,-0.35277777,-75.573409,88.817109)">
        <path
           d="M 0,0 C 0,0.502 0.374,0.909 0.835,0.909 1.297,0.909 1.671,0.502 1.671,0 1.671,-0.502 1.297,-0.909 0.835,-0.909 0.374,-0.909 0,-0.502 0,0"
           style="fill:#719127;fill-opacity:1;fill-rule:nonzero;stroke:none"
           id="path8690" />
      </g>
      <g
         id="g8692"
         transform="matrix(0.35277777,0,0,-0.35277777,-89.066312,227.90994)">
        <g
           id="g8694" />
        <g
           id="g8706">
          <g
             clip-path="url(#clipPath8698)"
             opacity="0.153137"
             id="g8704">
            <g
               transform="translate(63.7207,403.4361)"
               id="g8702">
              <path
                 d="M 0,0 C 0,0.502 0.374,0.909 0.835,0.909 1.297,0.909 1.671,0.502 1.671,0 1.671,-0.502 1.297,-0.909 0.835,-0.909 0.374,-0.909 0,-0.502 0,0"
                 style="fill:#719127;fill-opacity:1;fill-rule:nonzero;stroke:none"
                 id="path8700" />
            </g>
          </g>
        </g>
      </g>
      <g
         id="g8708"
         transform="matrix(0.35277777,0,0,-0.35277777,-89.066312,227.90994)">
        <g
           id="g8710" />
        <g
           id="g8722">
          <g
             clip-path="url(#clipPath8714)"
             opacity="0.516556"
             id="g8720">
            <g
               transform="translate(39.7461,405.2815)"
               id="g8718">
              <path
                 d="M 0,0 C 0,0.392 0.319,0.71 0.713,0.71 1.106,0.71 1.425,0.392 1.425,0 1.425,-0.392 1.106,-0.71 0.713,-0.71 0.319,-0.71 0,-0.392 0,0"
                 style="fill:#719127;fill-opacity:1;fill-rule:nonzero;stroke:none"
                 id="path8716" />
            </g>
          </g>
        </g>
      </g>
      <g
         id="g8724"
         transform="matrix(0.35277777,0,0,-0.35277777,-71.48094,93.842781)">
        <path
           d="M 0,0 C 3.051,-0.131 3.998,3.6 3.418,5.916 3.181,6.861 2.041,9.369 1.392,9.419 0.744,9.47 0.563,7.953 0.342,8.027 0.121,8.101 -0.614,9.167 -1.227,9.479 -1.84,9.79 -1.839,7.687 -2.217,7.575 -2.594,7.462 -4.326,8.618 -4.63,7.763 -4.934,6.907 -5,0.216 0,0"
           style="fill:#7c9729;fill-opacity:1;fill-rule:nonzero;stroke:none"
           id="path8726" />
      </g>
      <g
         id="g8728"
         transform="matrix(0.35277777,0,0,-0.35277777,-65.914354,92.911165)">
        <path
           d="M 0,0 C 2.828,-1.153 4.979,2.04 5.214,4.416 5.31,5.385 5.082,8.13 4.489,8.397 3.896,8.663 3.214,7.297 3.031,7.441 2.847,7.585 2.515,8.836 2.043,9.336 1.572,9.837 0.862,7.857 0.469,7.878 0.076,7.9 -1.164,9.572 -1.739,8.87 -2.314,8.167 -4.634,1.89 0,0"
           style="fill:#7c9729;fill-opacity:1;fill-rule:nonzero;stroke:none"
           id="path8730" />
      </g>
    </g>
  </g>
</svg>
