<?xml version="1.0" encoding="UTF-8" standalone="no"?>
<!-- Created with Inkscape (http://www.inkscape.org/) -->

<svg
   width="30.170443mm"
   height="28.894941mm"
   viewBox="0 0 30.170443 28.894941"
   version="1.1"
   id="svg38094"
   inkscape:version="1.1-rc (52f87abb86, 2021-05-02)"
   sodipodi:docname="c-cow.svg"
   xmlns:inkscape="http://www.inkscape.org/namespaces/inkscape"
   xmlns:sodipodi="http://sodipodi.sourceforge.net/DTD/sodipodi-0.dtd"
   xmlns="http://www.w3.org/2000/svg"
   xmlns:svg="http://www.w3.org/2000/svg">
  <sodipodi:namedview
     id="namedview38096"
     pagecolor="#ffffff"
     bordercolor="#666666"
     borderopacity="1.0"
     objecttolerance="10.0"
     gridtolerance="10.0"
     guidetolerance="10.0"
     inkscape:pageshadow="2"
     inkscape:pageopacity="0.0"
     inkscape:pagecheckerboard="0"
     inkscape:document-units="mm"
     showgrid="false"
     fit-margin-top="0"
     fit-margin-left="0"
     fit-margin-right="0"
     fit-margin-bottom="0"
     inkscape:zoom="0.94875842"
     inkscape:cx="71.672618"
     inkscape:cy="260.86725"
     inkscape:window-width="3840"
     inkscape:window-height="2066"
     inkscape:window-x="2869"
     inkscape:window-y="-11"
     inkscape:window-maximized="1"
     inkscape:current-layer="layer1" />
  <defs
     id="defs38091">
    <linearGradient
       x1="0"
       y1="0"
       x2="1"
       y2="0"
       gradientUnits="userSpaceOnUse"
       gradientTransform="matrix(10.596984,0,0,-10.596984,311.97662,389.43466)"
       spreadMethod="pad"
       id="linearGradient5350">
      <stop
         style="stop-opacity:1;stop-color:#fd95a0"
         offset="0"
         id="stop5342" />
      <stop
         style="stop-opacity:1;stop-color:#fd95a0"
         offset="0.0162162"
         id="stop5344" />
      <stop
         style="stop-opacity:1;stop-color:#fd95a0"
         offset="0.51148375"
         id="stop5346" />
      <stop
         style="stop-opacity:1;stop-color:#5fecff"
         offset="1"
         id="stop5348" />
    </linearGradient>
    <clipPath
       clipPathUnits="userSpaceOnUse"
       id="clipPath5360">
      <path
         d="M 0,500 H 750 V 0 H 0 Z"
         id="path5358" />
    </clipPath>
    <clipPath
       clipPathUnits="userSpaceOnUse"
       id="clipPath5368">
      <path
         d="m 304.474,392.662 h 9.907 v -4.175 h -9.907 z"
         id="path5366" />
    </clipPath>
    <clipPath
       clipPathUnits="userSpaceOnUse"
       id="clipPath5432">
      <path
         d="m 294.998,421.665 h 7.792 v -5.745 h -7.792 z"
         id="path5430" />
    </clipPath>
    <clipPath
       clipPathUnits="userSpaceOnUse"
       id="clipPath5456">
      <path
         d="m 271.459,425.518 h 7.165 v -7.102 h -7.165 z"
         id="path5454" />
    </clipPath>
    <clipPath
       clipPathUnits="userSpaceOnUse"
       id="clipPath5484">
      <path
         d="m 284.261,410.685 c -3.656,-0.096 -6.778,-0.91 -9.363,-2.669 v 0 c -1.627,-1.106 -2.564,-3.32 -2.676,-5.336 v 0 c -0.04,-0.727 0.261,-1.176 0.288,-0.691 v 0 c 0.112,2.016 1.049,4.23 2.676,5.337 v 0 c 2.585,1.758 5.707,2.572 9.363,2.668 v 0 c 4.548,0.121 7.617,-0.498 9.707,-1.402 v 0 c 2.514,-1.089 2.885,-0.85 0.197,0.467 v 0 c -1.929,0.946 -4.793,1.641 -9.083,1.641 v 0 c -0.36,0 -0.729,-0.005 -1.109,-0.015"
         id="path5482" />
    </clipPath>
    <mask
       maskUnits="userSpaceOnUse"
       x="0"
       y="0"
       width="1"
       height="1"
       id="mask5506">
      <g
         id="g5516">
        <g
           id="g5514">
          <g
             id="g5512">
            <g
               id="g5510">
              <path
                 d="M -32768,32767 H 32767 V -32768 H -32768 Z"
                 style="fill:url(#linearGradient5504);stroke:none"
                 id="path5508" />
            </g>
          </g>
        </g>
      </g>
    </mask>
    <linearGradient
       x1="0"
       y1="0"
       x2="1"
       y2="0"
       gradientUnits="userSpaceOnUse"
       gradientTransform="matrix(22.583233,9.4041758,9.4041758,-22.583233,272.08453,402.49094)"
       spreadMethod="pad"
       id="linearGradient5504">
      <stop
         style="stop-opacity:0.2;stop-color:#ffffff"
         offset="0"
         id="stop5494" />
      <stop
         style="stop-opacity:0.2;stop-color:#ffffff"
         offset="0.0405405"
         id="stop5496" />
      <stop
         style="stop-opacity:1;stop-color:#ffffff"
         offset="0.5"
         id="stop5498" />
      <stop
         style="stop-opacity:0.2;stop-color:#ffffff"
         offset="0.854054"
         id="stop5500" />
      <stop
         style="stop-opacity:0.2;stop-color:#ffffff"
         offset="1"
         id="stop5502" />
    </linearGradient>
    <linearGradient
       x1="0"
       y1="0"
       x2="1"
       y2="0"
       gradientUnits="userSpaceOnUse"
       gradientTransform="matrix(22.583233,9.4041758,9.4041758,-22.583233,272.08453,402.49094)"
       spreadMethod="pad"
       id="linearGradient5532">
      <stop
         style="stop-opacity:1;stop-color:#ffffff"
         offset="0"
         id="stop5522" />
      <stop
         style="stop-opacity:1;stop-color:#ffffff"
         offset="0.0405405"
         id="stop5524" />
      <stop
         style="stop-opacity:1;stop-color:#ffffff"
         offset="0.5"
         id="stop5526" />
      <stop
         style="stop-opacity:1;stop-color:#ffffff"
         offset="0.854054"
         id="stop5528" />
      <stop
         style="stop-opacity:1;stop-color:#ffffff"
         offset="1"
         id="stop5530" />
    </linearGradient>
    <linearGradient
       x1="0"
       y1="0"
       x2="1"
       y2="0"
       gradientUnits="userSpaceOnUse"
       gradientTransform="matrix(1.9010106,-5.6998086,-5.6998086,-1.9010106,277.77731,406.78204)"
       spreadMethod="pad"
       id="linearGradient5554">
      <stop
         style="stop-opacity:1;stop-color:#50252f"
         offset="0"
         id="stop5548" />
      <stop
         style="stop-opacity:1;stop-color:#50252f"
         offset="0.00540541"
         id="stop5550" />
      <stop
         style="stop-opacity:1;stop-color:#231f20"
         offset="1"
         id="stop5552" />
    </linearGradient>
    <clipPath
       clipPathUnits="userSpaceOnUse"
       id="clipPath5564">
      <path
         d="M 0,500 H 750 V 0 H 0 Z"
         id="path5562" />
    </clipPath>
    <clipPath
       clipPathUnits="userSpaceOnUse"
       id="clipPath5572">
      <path
         d="m 277.792,406.468 h 1.383 v -4.431 h -1.383 z"
         id="path5570" />
    </clipPath>
    <linearGradient
       x1="0"
       y1="0"
       x2="1"
       y2="0"
       gradientUnits="userSpaceOnUse"
       gradientTransform="matrix(1.7354344,-5.7594905,-5.7594905,-1.7354344,277.50073,406.68356)"
       spreadMethod="pad"
       id="linearGradient5584">
      <stop
         style="stop-opacity:1;stop-color:#50252f"
         offset="0"
         id="stop5578" />
      <stop
         style="stop-opacity:1;stop-color:#50252f"
         offset="0.00540541"
         id="stop5580" />
      <stop
         style="stop-opacity:1;stop-color:#231f20"
         offset="1"
         id="stop5582" />
    </linearGradient>
    <linearGradient
       x1="0"
       y1="0"
       x2="1"
       y2="0"
       gradientUnits="userSpaceOnUse"
       gradientTransform="matrix(2.3565903,-5.5266089,-5.5266089,-2.3565903,291.35193,406.98154)"
       spreadMethod="pad"
       id="linearGradient5618">
      <stop
         style="stop-opacity:1;stop-color:#50252f"
         offset="0"
         id="stop5612" />
      <stop
         style="stop-opacity:1;stop-color:#50252f"
         offset="0.00540541"
         id="stop5614" />
      <stop
         style="stop-opacity:1;stop-color:#231f20"
         offset="1"
         id="stop5616" />
    </linearGradient>
    <clipPath
       clipPathUnits="userSpaceOnUse"
       id="clipPath5636">
      <path
         d="m 291.539,406.717 h 1.527 v -4.413 h -1.527 z"
         id="path5634" />
    </clipPath>
    <linearGradient
       x1="0"
       y1="0"
       x2="1"
       y2="0"
       gradientUnits="userSpaceOnUse"
       gradientTransform="matrix(2.1955211,-5.6002421,-5.6002421,-2.1955211,291.08463,406.86133)"
       spreadMethod="pad"
       id="linearGradient5648">
      <stop
         style="stop-opacity:1;stop-color:#50252f"
         offset="0"
         id="stop5642" />
      <stop
         style="stop-opacity:1;stop-color:#50252f"
         offset="0.00540541"
         id="stop5644" />
      <stop
         style="stop-opacity:1;stop-color:#231f20"
         offset="1"
         id="stop5646" />
    </linearGradient>
    <clipPath
       clipPathUnits="userSpaceOnUse"
       id="clipPath5690">
      <path
         d="m 280.825,427.726 h 1.802 v -4.132 h -1.802 z"
         id="path5688" />
    </clipPath>
    <clipPath
       clipPathUnits="userSpaceOnUse"
       id="clipPath5706">
      <path
         d="m 279.75,428.077 h 2.136 v -5.124 h -2.136 z"
         id="path5704" />
    </clipPath>
    <clipPath
       clipPathUnits="userSpaceOnUse"
       id="clipPath5738">
      <path
         d="m 291.594,427.037 h 2.186 v -3.969 h -2.186 z"
         id="path5736" />
    </clipPath>
    <clipPath
       clipPathUnits="userSpaceOnUse"
       id="clipPath5754">
      <path
         d="m 292.214,427.35 h 2.426 v -5.031 h -2.426 z"
         id="path5752" />
    </clipPath>
    <clipPath
       clipPathUnits="userSpaceOnUse"
       id="clipPath5810">
      <path
         d="m 325.057,400.251 h 3.226 v -4.807 h -3.226 z"
         id="path5808" />
    </clipPath>
  </defs>
  <g
     inkscape:label="Layer 1"
     inkscape:groupmode="layer"
     id="layer1"
     transform="translate(-86.145765,-79.532812)">
    <g
       id="g37820"
       transform="translate(89.571781,15.462957)">
      <g
         id="g22789">
        <g
           id="g5318"
           transform="matrix(0.35277777,0,0,-0.35277777,7.9150839,75.832171)">
          <path
             d="m 0,0 c 0,7.82 -0.217,19.44 -5.756,19.44 -7.059,0 -11.947,-22.481 -11.947,-33.233 0,-11.078 3.041,-18.572 9.992,-18.572 5.974,0 8.254,7.603 10.209,14.662 l 13.793,-1.086 C 12.816,-35.297 6.3,-46.266 -7.711,-46.266 c -16.291,0 -24.437,14.01 -24.437,31.387 0,18.789 7.603,48.221 27.369,48.221 17.486,0 18.464,-19.44 18.79,-34.645 z"
             style="fill:#db6778;fill-opacity:1;fill-rule:nonzero;stroke:none"
             id="path5320" />
        </g>
        <g
           id="g5322"
           transform="matrix(0.35277777,0,0,-0.35277777,21.546241,90.18571)">
          <path
             d="m 0,0 c 0,0 -0.437,-2.405 -1.017,-4.36 v -0.003 c -0.297,-1.001 -0.631,-1.885 -0.965,-2.265 -0.98,-1.121 -2.118,0.57 -2.521,1.014 -0.401,0.443 -1.051,-1.178 -1.555,-0.948 -0.467,0.217 -0.894,1.118 -1.251,2.202 h -0.003 c -0.661,2.002 -1.081,4.617 -1.081,4.617 l 4.197,3.519 3.782,-0.78 z"
             style="fill:#e2e2e2;fill-opacity:1;fill-rule:nonzero;stroke:none"
             id="path5324" />
        </g>
        <g
           id="g5326"
           transform="matrix(0.35277777,0,0,-0.35277777,21.187289,91.723786)">
          <path
             d="m 0,0 v -0.003 c -0.297,-1.001 -0.63,-1.885 -0.964,-2.265 -0.981,-1.121 -2.118,0.57 -2.522,1.014 -0.4,0.443 -1.051,-1.178 -1.554,-0.948 C -5.508,-1.985 -5.934,-1.084 -6.291,0 -6.158,-0.03 -2.499,-0.807 0,0"
             style="fill:#210f0a;fill-opacity:1;fill-rule:nonzero;stroke:none"
             id="path5328" />
        </g>
        <g
           id="g5330"
           transform="matrix(0.35277777,0,0,-0.35277777,-89.066312,227.90994)">
          <g
             id="g5332">
            <g
               id="g5338">
              <g
                 id="g5340">
                <path
                   d="m 310.162,392.661 -2.713,-0.807 -3.806,-1.131 c -0.284,-0.394 -0.23,-0.951 0.013,-1.374 v 0 c 0.197,-0.334 0.494,-0.598 0.818,-0.821 v 0 c 0.08,-0.06 0.167,-0.113 0.25,-0.167 v 0 c 0.371,-0.233 0.764,-0.437 1.168,-0.607 v 0 c -0.034,-0.037 -0.068,-0.07 -0.101,-0.103 v 0 c -0.203,-0.187 -0.44,-0.354 -0.577,-0.594 v 0 c -0.137,-0.241 -0.129,-0.593 0.104,-0.754 v 0 c 0.25,-0.17 0.607,-0.01 0.777,0.233 v 0 c 0.171,0.244 0.224,0.551 0.333,0.825 v 0 c 0.024,0.057 0.054,0.113 0.08,0.166 v 0 c 0.624,-0.199 1.271,-0.314 1.918,-0.32 v 0 c 0.031,-0.381 -0.046,-0.78 0.088,-1.141 v 0 c 0.1,-0.27 0.343,-0.507 0.633,-0.53 v 0 c 0.287,-0.024 0.588,0.223 0.551,0.51 v 0 c -0.023,0.213 -0.203,0.371 -0.33,0.544 v 0 c -0.141,0.193 -0.217,0.423 -0.231,0.657 v 0 c 0.837,0.1 1.652,0.41 2.322,0.898 v 0 c 0.107,-0.131 0.187,-0.287 0.253,-0.438 v 0 c 0.131,-0.297 0.268,-0.627 0.565,-0.766 v 0 c 0.209,-0.101 0.48,-0.071 0.65,0.082 v 0 c 0.173,0.154 0.223,0.428 0.11,0.631 v 0 c -0.127,0.233 -0.41,0.323 -0.647,0.447 v 0 c -0.193,0.101 -0.364,0.234 -0.51,0.387 v 0 c 0.246,0.23 0.467,0.49 0.647,0.777 v 0 c 0.043,0.067 0.083,0.133 0.119,0.204 v 0 c 0.174,-0.034 0.341,-0.097 0.487,-0.194 v 0 c 0.215,-0.133 0.441,-0.34 0.678,-0.263 v 0 c 0.18,0.06 0.27,0.28 0.227,0.463 v 0 c -0.047,0.184 -0.201,0.33 -0.371,0.414 v 0 c -0.239,0.117 -0.507,0.133 -0.773,0.14 v 0 c 0.093,0.274 0.157,0.557 0.183,0.844 v 0 c 0.06,0.531 0.003,1.074 -0.173,1.575 v 0 c -0.107,0.316 -0.264,0.617 -0.471,0.887 v 0 z"
                   style="fill:url(#linearGradient5350);stroke:none"
                   id="path5352" />
              </g>
            </g>
          </g>
        </g>
        <g
           id="g5354"
           transform="matrix(0.35277777,0,0,-0.35277777,-89.066312,227.90994)">
          <g
             id="g5356"
             clip-path="url(#clipPath5360)">
            <g
               id="g5362">
              <g
                 id="g5364" />
              <g
                 id="g5376">
                <g
                   clip-path="url(#clipPath5368)"
                   opacity="0.300003"
                   id="g5374">
                  <g
                     transform="translate(314.3813,392.0974)"
                     id="g5372">
                    <path
                       d="m 0,0 c -0.41,-0.464 -0.847,-0.871 -1.304,-1.224 -3.72,-2.889 -8.604,-2.345 -8.604,-2.345 l 0.568,1.587 2.408,1.739 2.712,0.807 C -3.446,0.57 -2.482,0.524 -1.478,0.35 -0.987,0.27 -0.49,0.154 0,0"
                       style="fill:#fd95a0;fill-opacity:1;fill-rule:nonzero;stroke:none"
                       id="path5370" />
                  </g>
                </g>
              </g>
            </g>
            <g
               id="g5378"
               transform="translate(320.4993,386.4332)">
              <path
                 d="m 0,0 c -0.294,-1.685 -0.62,-2.892 -0.864,-3.323 -1.084,-1.501 -2.002,1.001 -2.002,1.001 -0.416,0.25 -0.583,-1.127 -1,-1.481 -0.34,-0.29 -1.074,-0.173 -2.155,2.585 -0.24,0.607 -0.297,1.428 -0.764,2.232 -0.971,1.671 -1.485,2.869 -1.751,3.703 -0.401,1.251 -0.251,1.688 -0.251,1.688 l -12.649,17.513 -0.994,1.374 -0.617,0.854 c 0,0 0.503,0.084 1.364,0.177 0.544,0.06 1.228,0.123 2.015,0.17 0.6,0.037 1.257,0.07 1.961,0.084 4.477,0.093 10.708,-0.457 14.321,-3.713 0.21,-0.187 0.41,-0.387 0.604,-0.594 0.127,-0.14 0.253,-0.284 0.367,-0.434 C 1.648,16.763 0.997,5.674 0,0"
                 style="fill:#ffffff;fill-opacity:1;fill-rule:nonzero;stroke:none"
                 id="path5380" />
            </g>
            <g
               id="g5382"
               transform="translate(315.689,393.6886)">
              <path
                 d="m 0,0 c 0,0 -1.137,-1.201 -3.726,-2.539 -1.955,-1.014 -4.737,-2.108 -8.48,-2.825 -2.085,-0.4 -4.466,-0.681 -7.172,-0.767 -3.576,-0.114 -6.405,0.447 -8.64,1.351 -0.283,0.113 -0.557,0.233 -0.82,0.357 -1.475,0.687 -2.659,1.527 -3.606,2.391 -0.931,0.851 -1.635,1.729 -2.155,2.519 -1.044,1.581 -1.371,2.819 -1.371,2.819 l 5.557,8.41 11.619,6.695 1.174,-0.374 0.894,-0.287 4.103,-1.308 c 0,0 9.12,-7.615 9.341,-7.825 C -3.059,8.406 0,0 0,0"
                 style="fill:#ffffff;fill-opacity:1;fill-rule:nonzero;stroke:none"
                 id="path5384" />
            </g>
            <g
               id="g5386"
               transform="translate(288.0549,390.1158)">
              <path
                 d="m 0,0 c 0,0 -0.147,-0.484 -0.377,-1.184 -0.003,-0.007 -0.003,-0.017 -0.007,-0.024 -0.126,-0.383 -0.276,-0.84 -0.443,-1.31 -0.12,-0.354 -0.25,-0.718 -0.381,-1.075 -0.507,-1.367 -1.047,-2.608 -1.341,-2.635 -0.663,-0.053 -0.84,1.281 -1.241,1.334 -0.4,0.057 -0.547,-1.778 -1.601,-0.61 -0.297,0.327 -0.554,1.267 -0.767,2.452 -0.374,2.035 -0.627,4.79 -0.751,6.391 -0.013,0.16 -0.026,0.311 -0.036,0.447 -0.004,0.027 -0.004,0.057 -0.007,0.084 V 3.873 C -6.955,3.94 -6.962,4 -6.965,4.06 c -0.027,0.367 -0.04,0.583 -0.04,0.583 l 2.308,-1.531 z"
                 style="fill:#ffffff;fill-opacity:1;fill-rule:nonzero;stroke:none"
                 id="path5388" />
            </g>
            <g
               id="g5390"
               transform="translate(320.4993,386.4332)">
              <path
                 d="m 0,0 c -0.294,-1.685 -0.62,-2.892 -0.864,-3.323 -1.084,-1.501 -2.002,1.001 -2.002,1.001 -0.416,0.25 -0.583,-1.127 -1,-1.481 -0.34,-0.29 -1.074,-0.173 -2.155,2.585 0,0 4.386,-0.754 6.021,1.218"
                 style="fill:#210f0a;fill-opacity:1;fill-rule:nonzero;stroke:none"
                 id="path5392" />
            </g>
            <g
               id="g5394"
               transform="translate(286.8473,386.5232)">
              <path
                 d="m 0,0 c -0.507,-1.368 -1.047,-2.609 -1.341,-2.635 -0.664,-0.054 -0.841,1.281 -1.241,1.334 -0.4,0.057 -0.547,-1.778 -1.601,-0.61 C -4.48,-1.585 -4.737,-0.644 -4.95,0.54 -4.824,0.497 -1.771,-0.537 0,0"
                 style="fill:#210f0a;fill-opacity:1;fill-rule:nonzero;stroke:none"
                 id="path5396" />
            </g>
            <g
               id="g5398"
               transform="translate(287.678,388.9317)">
              <path
                 d="m 0,0 c -0.127,-0.39 -0.28,-0.854 -0.45,-1.334 -1.838,0.917 -4.604,2.735 -6.082,5.857 -0.113,0.234 -0.216,0.474 -0.313,0.721 0.053,0 0.15,-0.074 0.27,-0.187 V 5.054 c 0.46,-0.421 1.251,-1.438 1.251,-1.438 0,0 2.372,-2.615 4.937,-3.483 C -0.25,0.087 -0.124,0.043 0,0"
                 style="fill:#e2e2e2;fill-opacity:1;fill-rule:nonzero;stroke:none"
                 id="path5400" />
            </g>
            <g
               id="g5402"
               transform="translate(295.7106,396.0136)">
              <path
                 d="m 0,0 c -4.357,-1.304 -8.069,-1.725 -12.586,-1.454 0.123,-0.434 0.207,-0.881 0.233,-1.331 0.01,-0.127 0.014,-0.254 0.014,-0.381 -0.004,-0.4 -0.044,-0.8 -0.127,-1.191 -0.217,-1.057 -0.714,-2.054 -1.441,-2.855 0.17,1.721 -0.077,3.483 -0.694,5.1 -0.003,0.027 -0.003,0.057 -0.007,0.084 v 0.003 c -0.003,0.067 -0.01,0.127 -0.013,0.187 -1.044,1.581 -1.371,2.819 -1.371,2.819 l 5.558,8.409 11.618,6.696 1.174,-0.374 -0.617,0.854 c 0,0 0.504,0.083 1.365,0.177 0.053,-0.431 0.103,-0.871 0.147,-1.318 0.036,-0.36 0.069,-0.724 0.099,-1.088 C 3.489,12.65 3.566,10.928 3.576,9.451 3.93,8.733 4.056,8.153 4.176,7.899 4.643,6.912 6.281,1.885 0,0"
                 style="fill:#e2e2e2;fill-opacity:1;fill-rule:nonzero;stroke:none"
                 id="path5404" />
            </g>
            <g
               id="g5406"
               transform="translate(275.1101,398.7278)">
              <path
                 d="m 0,0 c -1.728,-0.45 -3.199,-1.79 -3.809,-3.469 1.838,1.322 4.024,2.157 6.275,2.397"
                 style="fill:#8baa37;fill-opacity:1;fill-rule:nonzero;stroke:none"
                 id="path5408" />
            </g>
            <g
               id="g5410"
               transform="translate(276.9666,396.7116)">
              <path
                 d="m 0,0 c -1.768,-1.627 -3.078,-3.746 -3.743,-6.054 1.76,2.231 3.767,4.268 5.972,6.062"
                 style="fill:#8baa37;fill-opacity:1;fill-rule:nonzero;stroke:none"
                 id="path5412" />
            </g>
            <g
               id="g5414"
               transform="translate(278.7167,397.3538)">
              <path
                 d="m 0,0 c -0.848,-1.897 -1.374,-4.146 -3.17,-5.19 2.466,0.798 4.638,2.474 6.035,4.657"
                 style="fill:#7a9127;fill-opacity:1;fill-rule:nonzero;stroke:none"
                 id="path5416" />
            </g>
            <g
               id="g5418"
               transform="translate(278.9798,397.1031)">
              <path
                 d="M 0,0 C 1.405,-2.129 2.055,-4.747 1.808,-7.286 2.8,-6.189 3.368,-4.719 3.374,-3.24 3.38,-1.761 2.822,-0.287 1.839,0.817"
                 style="fill:#8baa37;fill-opacity:1;fill-rule:nonzero;stroke:none"
                 id="path5420" />
            </g>
            <g
               id="g5422"
               transform="translate(294.9984,417.3077)">
              <path
                 d="M 0,0 C 1.479,-1.073 3.469,-1.936 5.024,-0.976 6.578,-0.016 8.867,2.322 7.708,4.387 5.789,3.292 3.064,2.001 0.857,1.903"
                 style="fill:#fd95a0;fill-opacity:1;fill-rule:nonzero;stroke:none"
                 id="path5424" />
            </g>
            <g
               id="g5426">
              <g
                 id="g5428" />
              <g
                 id="g5440">
                <g
                   clip-path="url(#clipPath5432)"
                   opacity="0.350006"
                   id="g5438">
                  <g
                     transform="translate(296.2942,419.2451)"
                     id="g5436">
                    <path
                       d="m 0,0 c -0.254,-0.199 -0.503,-0.418 -0.72,-0.659 l -0.576,-1.278 c 1.329,-0.965 3.07,-1.755 4.538,-1.209 -0.008,0.048 -0.014,0.097 -0.03,0.144 -0.094,0.289 -0.317,0.533 -0.352,0.835 -0.031,0.268 0.097,0.534 0.279,0.733 0.182,0.199 0.415,0.344 0.64,0.493 0.809,0.535 1.545,0.499 2.225,1.191 C 6.176,0.425 6.366,1.268 6.45,1.499 6.534,1.73 6.509,2.018 6.327,2.183 L 6.359,2.42 C 4.569,1.403 2.1,0.23 0,0"
                       style="fill:#fd95a0;fill-opacity:1;fill-rule:nonzero;stroke:none"
                       id="path5434" />
                  </g>
                </g>
              </g>
            </g>
            <g
               id="g5442"
               transform="translate(293.6911,420.473)">
              <path
                 d="M 0,0 C 3.043,-0.39 6.186,0.036 9.015,1.222 9.221,0.383 8.55,-0.417 7.839,-0.907 5.804,-2.312 2.99,-2.493 0.792,-1.36"
                 style="fill:#ffffff;fill-opacity:1;fill-rule:nonzero;stroke:none"
                 id="path5444" />
            </g>
            <g
               id="g5446"
               transform="translate(277.5778,418.7402)">
              <path
                 d="M 0,0 C -1.762,-0.486 -3.93,-0.594 -5.052,0.853 -6.173,2.3 -7.5,5.297 -5.691,6.825 c 1.416,-1.702 3.52,-3.871 5.554,-4.74"
                 style="fill:#fd95a0;fill-opacity:1;fill-rule:nonzero;stroke:none"
                 id="path5448" />
            </g>
            <g
               id="g5450">
              <g
                 id="g5452" />
              <g
                 id="g5464">
                <g
                   clip-path="url(#clipPath5456)"
                   opacity="0.350006"
                   id="g5462">
                  <g
                     transform="translate(277.0413,421.012)"
                     id="g5460">
                    <path
                       d="M 0,0 C 0.168,-0.276 1.464,-0.2 1.583,-0.503 L 0.536,-2.272 c -1.583,-0.436 -3.492,-0.564 -4.677,0.464 0.024,0.043 0.047,0.087 0.078,0.126 0.19,0.237 0.485,0.387 0.623,0.657 0.123,0.241 0.096,0.535 -0.005,0.786 -0.101,0.251 -0.269,0.468 -0.427,0.687 -0.572,0.786 -1.274,1.012 -1.67,1.9 -0.1,0.225 0.018,1.081 0.02,1.327 0.002,0.246 0.126,0.507 0.354,0.598 l 0.054,0.233 C -3.793,2.923 -1.889,0.955 0,0"
                       style="fill:#fd95a0;fill-opacity:1;fill-rule:nonzero;stroke:none"
                       id="path5458" />
                  </g>
                </g>
              </g>
            </g>
            <g
               id="g5466"
               transform="translate(279.9117,421.2466)">
              <path
                 d="m 0,0 c -2.989,0.705 -5.787,2.211 -8.024,4.318 -0.487,-0.713 -0.137,-1.699 0.357,-2.409 1.416,-2.033 3.992,-3.193 6.448,-2.905"
                 style="fill:#ffffff;fill-opacity:1;fill-rule:nonzero;stroke:none"
                 id="path5468" />
            </g>
            <g
               id="g5470"
               transform="translate(272.8912,404.7161)">
              <path
                 d="m 0,0 c 0.141,4.055 1.013,8.12 2.569,11.964 1.114,2.752 2.64,5.469 5.033,7.38 2.393,1.912 7.007,3.154 11.07,1.403 2.332,-1.005 4.635,-4.887 5.492,-7.701 0.974,-3.201 1.425,-10.899 1.125,-14.028"
                 style="fill:#ffffff;fill-opacity:1;fill-rule:nonzero;stroke:none"
                 id="path5472" />
            </g>
            <g
               id="g5474"
               transform="translate(298.8715,404.9289)">
              <path
                 d="m 0,0 c -0.466,0.988 -1.049,6.992 -14.772,6.475 -3.766,-0.142 -6.99,-0.999 -9.673,-2.799 -1.688,-1.132 -2.682,-3.369 -2.821,-5.397 -0.15,-2.185 1.827,-4.255 3.694,-5.401 1.867,-1.146 4.437,-2.081 6.623,-2.22 4.601,-0.294 8.357,0.121 12.773,1.445 C 2.102,-6.015 0.466,-0.988 0,0"
                 style="fill:#fd95a0;fill-opacity:1;fill-rule:nonzero;stroke:none"
                 id="path5476" />
            </g>
          </g>
        </g>
        <g
           id="g5478"
           transform="matrix(0.35277777,0,0,-0.35277777,-89.066312,227.90994)">
          <g
             id="g5480"
             clip-path="url(#clipPath5484)">
            <g
               id="g5486">
              <g
                 id="g5488" />
              <g
                 id="g5518"
                 mask="url(#mask5506)">
                <g
                   id="g5520">
                  <path
                     d="m 284.261,410.685 c -3.656,-0.096 -6.778,-0.91 -9.363,-2.669 v 0 c -1.627,-1.106 -2.564,-3.32 -2.676,-5.336 v 0 c -0.04,-0.727 0.261,-1.176 0.288,-0.691 v 0 c 0.112,2.016 1.049,4.23 2.676,5.337 v 0 c 2.585,1.758 5.707,2.572 9.363,2.668 v 0 c 4.548,0.121 7.617,-0.498 9.707,-1.402 v 0 c 2.514,-1.089 2.885,-0.85 0.197,0.467 v 0 c -1.929,0.946 -4.793,1.641 -9.083,1.641 v 0 c -0.36,0 -0.729,-0.005 -1.109,-0.015"
                     style="fill:url(#linearGradient5532);stroke:none"
                     id="path5534" />
                </g>
              </g>
            </g>
          </g>
        </g>
        <g
           id="g5536"
           transform="matrix(0.35277777,0,0,-0.35277777,-89.066312,227.90994)">
          <g
             id="g5538">
            <g
               id="g5544">
              <g
                 id="g5546">
                <path
                   d="m 278.662,406.581 c -1.108,-0.124 -0.897,-2.938 -0.755,-3.859 v 0 c 0.143,-0.921 0.82,-0.863 1.184,-0.128 v 0 c 0.358,0.722 0.666,3.99 -0.371,3.991 v 0 c -0.019,0 -0.038,-10e-4 -0.058,-0.004"
                   style="fill:url(#linearGradient5554);stroke:none"
                   id="path5556" />
              </g>
            </g>
          </g>
        </g>
        <g
           id="g5558"
           transform="matrix(0.35277777,0,0,-0.35277777,-89.066312,227.90994)">
          <g
             id="g5560"
             clip-path="url(#clipPath5564)">
            <g
               id="g5566">
              <g
                 id="g5568" />
              <g
                 id="g5598">
                <g
                   clip-path="url(#clipPath5572)"
                   id="g5596">
                  <g
                     id="g5594">
                    <g
                       id="g5592">
                      <g
                         id="g5590">
                        <g
                           id="g5588">
                          <path
                             d="m 278.164,403.232 c -0.084,0.67 -0.174,2.336 0.206,3.236 -0.774,-0.552 -0.591,-2.917 -0.463,-3.746 0.142,-0.92 0.82,-0.863 1.184,-0.128 0.029,0.058 0.056,0.136 0.084,0.224 -0.389,-0.465 -0.912,-0.387 -1.011,0.414"
                             style="fill:url(#linearGradient5584);stroke:none"
                             id="path5586" />
                        </g>
                      </g>
                    </g>
                  </g>
                </g>
              </g>
            </g>
          </g>
        </g>
        <g
           id="g5600"
           transform="matrix(0.35277777,0,0,-0.35277777,-89.066312,227.90994)">
          <g
             id="g5602">
            <g
               id="g5608">
              <g
                 id="g5610">
                <path
                   d="m 292.25,406.853 c -1.094,-0.213 -0.656,-3.001 -0.44,-3.908 v 0 c 0.217,-0.905 0.887,-0.794 1.19,-0.031 v 0 c 0.294,0.739 0.341,3.949 -0.653,3.949 v 0 c -0.032,0 -0.064,-0.003 -0.097,-0.01"
                   style="fill:url(#linearGradient5618);stroke:none"
                   id="path5620" />
              </g>
            </g>
          </g>
        </g>
      </g>
      <g
         id="g5630"
         transform="matrix(0.35277777,0,0,-0.35277777,-89.066312,227.90994)">
        <g
           id="g5632" />
        <g
           id="g5662">
          <g
             clip-path="url(#clipPath5636)"
             id="g5660">
            <g
               id="g5658">
              <g
                 id="g5656">
                <g
                   id="g5654">
                  <g
                     id="g5652">
                    <path
                       d="m 292.024,403.475 c -0.137,0.661 -0.361,2.314 -0.056,3.242 -0.727,-0.613 -0.352,-2.955 -0.158,-3.771 0.216,-0.906 0.887,-0.794 1.19,-0.032 0.024,0.06 0.046,0.14 0.066,0.23 -0.35,-0.495 -0.877,-0.459 -1.042,0.331"
                       style="fill:url(#linearGradient5648);stroke:none"
                       id="path5650" />
                  </g>
                </g>
              </g>
            </g>
          </g>
        </g>
      </g>
      <g
         id="g5664"
         transform="matrix(0.35277777,0,0,-0.35277777,12.873375,77.561628)">
        <path
           d="m 0,0 c -3.298,0.473 -6.578,-0.613 -8.47,-2.124 -2.393,-1.911 -3.919,-4.628 -5.033,-7.38 0.936,-0.964 1.734,-1.14 3.365,-0.411 0.972,0.435 1.587,1.337 2.395,1.739 2.098,1.046 2.767,-0.627 4.483,-0.329 2.081,0.361 4.089,1.254 4.796,3.452 C 2.21,-2.958 1.585,-1.129 0,0"
           style="fill:#3d2118;fill-opacity:1;fill-rule:nonzero;stroke:none"
           id="path5666" />
      </g>
      <g
         id="g5668"
         transform="matrix(0.35277777,0,0,-0.35277777,9.9075375,76.817091)">
        <path
           d="M 0,0 C -1.153,-0.254 -1.022,-4.674 -0.857,-5.068 0.997,-6.31 2.46,-4.86 2.436,-4.342 2.412,-3.825 0.737,0.162 0,0"
           style="fill:#a0654b;fill-opacity:1;fill-rule:nonzero;stroke:none"
           id="path5670" />
      </g>
      <g
         id="g5672"
         transform="matrix(0.35277777,0,0,-0.35277777,9.5890497,78.251944)">
        <path
           d="M 0,0 C 1.014,-0.236 2.173,0.007 2.922,0.754 2.96,0.792 2.917,0.85 2.87,0.821 1.967,0.25 1.087,-0.037 0.01,0.077 -0.04,0.082 -0.048,0.011 0,0"
           style="fill:#774735;fill-opacity:1;fill-rule:nonzero;stroke:none"
           id="path5674" />
      </g>
      <g
         id="g5676"
         transform="matrix(0.35277777,0,0,-0.35277777,9.5677419,77.724894)">
        <path
           d="M 0,0 C 0.801,-0.203 1.811,0.033 2.384,0.646 2.425,0.69 2.358,0.74 2.315,0.714 1.549,0.257 0.909,0.031 0.008,0.062 -0.033,0.064 -0.039,0.01 0,0"
           style="fill:#774735;fill-opacity:1;fill-rule:nonzero;stroke:none"
           id="path5678" />
      </g>
      <g
         id="g5680"
         transform="matrix(0.35277777,0,0,-0.35277777,9.6241864,77.348868)">
        <path
           d="M 0,0 C 0.603,-0.073 1.343,0.021 1.79,0.475 1.828,0.514 1.796,0.595 1.736,0.567 1.161,0.296 0.674,0.041 0.012,0.09 -0.046,0.095 -0.059,0.007 0,0"
           style="fill:#774735;fill-opacity:1;fill-rule:nonzero;stroke:none"
           id="path5682" />
      </g>
      <g
         id="g5684"
         transform="matrix(0.35277777,0,0,-0.35277777,-89.066312,227.90994)">
        <g
           id="g5686" />
        <g
           id="g5698">
          <g
             clip-path="url(#clipPath5690)"
             opacity="0.350006"
             id="g5696">
            <g
               transform="translate(280.8706,427.7121)"
               id="g5694">
              <path
                 d="M 0,0 C -0.246,-0.195 0.572,-3.083 0.773,-3.742 0.974,-4.401 2.024,-4.162 1.692,-3.269 1.359,-2.375 0.284,0.225 0,0"
                 style="fill:#a0654b;fill-opacity:1;fill-rule:nonzero;stroke:none"
                 id="path5692" />
            </g>
          </g>
        </g>
      </g>
      <g
         id="g5700"
         transform="matrix(0.35277777,0,0,-0.35277777,-89.066312,227.90994)">
        <g
           id="g5702" />
        <g
           id="g5714">
          <g
             clip-path="url(#clipPath5706)"
             opacity="0.350006"
             id="g5712">
            <g
               transform="translate(280.5587,423.386)"
               id="g5710">
              <path
                 d="M 0,0 C -0.161,0.092 -0.274,0.251 -0.297,0.435 -0.408,1.334 -0.448,3.949 0.181,4.641 0.113,4.681 0.051,4.699 -0.005,4.687 -0.904,4.497 -0.868,1.325 -0.743,0.317 -0.72,0.134 -0.606,-0.024 -0.446,-0.116 0.249,-0.515 0.863,-0.489 1.328,-0.301 0.941,-0.35 0.491,-0.282 0,0"
                 style="fill:#a0654b;fill-opacity:1;fill-rule:nonzero;stroke:none"
                 id="path5708" />
            </g>
          </g>
        </g>
      </g>
      <g
         id="g5716"
         transform="matrix(0.35277777,0,0,-0.35277777,14.696178,77.075747)">
        <path
           d="m 0,0 c 1.113,-0.382 0.477,-4.756 0.269,-5.129 -1.981,-1.025 -3.264,0.58 -3.181,1.091 C -2.829,-3.527 -0.712,0.244 0,0"
           style="fill:#a0654b;fill-opacity:1;fill-rule:nonzero;stroke:none"
           id="path5718" />
      </g>
      <g
         id="g5720"
         transform="matrix(0.35277777,0,0,-0.35277777,14.845333,78.509154)">
        <path
           d="M 0,0 C -1.078,-0.001 -1.921,0.404 -2.749,1.064 -2.787,1.094 -2.837,1.042 -2.808,1.005 -2.179,0.171 -1.003,-0.206 0.01,-0.077 0.06,-0.07 0.048,0 0,0"
           style="fill:#774735;fill-opacity:1;fill-rule:nonzero;stroke:none"
           id="path5722" />
      </g>
      <g
         id="g5724"
         transform="matrix(0.35277777,0,0,-0.35277777,14.930176,77.993217)">
        <path
           d="M 0,0 C -0.414,0.034 -0.809,0.084 -1.198,0.243 -1.591,0.404 -1.881,0.668 -2.221,0.911 -2.267,0.944 -2.319,0.887 -2.289,0.841 -1.843,0.168 -0.774,-0.189 0,-0.063 0.034,-0.057 0.037,-0.003 0,0"
           style="fill:#774735;fill-opacity:1;fill-rule:nonzero;stroke:none"
           id="path5726" />
      </g>
      <g
         id="g5728"
         transform="matrix(0.35277777,0,0,-0.35277777,14.917934,77.603609)">
        <path
           d="M 0,0 C -0.303,0.009 -0.598,0.076 -0.877,0.194 -1.162,0.315 -1.392,0.506 -1.654,0.663 -1.705,0.693 -1.767,0.639 -1.729,0.587 -1.36,0.077 -0.594,-0.1 0,-0.09 c 0.051,0 0.052,0.089 0,0.09"
           style="fill:#774735;fill-opacity:1;fill-rule:nonzero;stroke:none"
           id="path5730" />
      </g>
      <g
         id="g5732"
         transform="matrix(0.35277777,0,0,-0.35277777,-89.066312,227.90994)">
        <g
           id="g5734" />
        <g
           id="g5746">
          <g
             clip-path="url(#clipPath5738)"
             opacity="0.350006"
             id="g5744">
            <g
               transform="translate(293.751,427.0185)"
               id="g5742">
              <path
                 d="M 0,0 C 0.222,-0.221 -0.92,-2.997 -1.195,-3.629 -1.471,-4.261 -2.483,-3.905 -2.051,-3.056 -1.62,-2.206 -0.256,0.255 0,0"
                 style="fill:#a0654b;fill-opacity:1;fill-rule:nonzero;stroke:none"
                 id="path5740" />
            </g>
          </g>
        </g>
      </g>
      <g
         id="g5748"
         transform="matrix(0.35277777,0,0,-0.35277777,-89.066312,227.90994)">
        <g
           id="g5750" />
        <g
           id="g5762">
          <g
             clip-path="url(#clipPath5754)"
             opacity="0.350006"
             id="g5760">
            <g
               transform="translate(293.5642,422.6876)"
               id="g5758">
              <path
                 d="M 0,0 C 0.17,0.073 0.3,0.218 0.344,0.398 0.557,1.279 0.897,3.871 0.353,4.629 0.424,4.661 0.489,4.672 0.542,4.654 1.411,4.364 1.013,1.219 0.773,0.232 0.729,0.052 0.598,-0.092 0.429,-0.166 -0.306,-0.484 -0.911,-0.389 -1.351,-0.149 -0.973,-0.241 -0.519,-0.224 0,0"
                 style="fill:#a0654b;fill-opacity:1;fill-rule:nonzero;stroke:none"
                 id="path5756" />
            </g>
          </g>
        </g>
      </g>
      <g
         id="g5764"
         transform="matrix(0.35277777,0,0,-0.35277777,10.239819,81.880616)">
        <path
           d="m 0,0 c 0,-0.761 -0.617,-1.377 -1.377,-1.377 -0.761,0 -1.378,0.616 -1.378,1.377 0,0.761 0.617,1.377 1.378,1.377 C -0.617,1.377 0,0.761 0,0"
           style="fill:#210f0a;fill-opacity:1;fill-rule:nonzero;stroke:none"
           id="path5766" />
      </g>
      <g
         id="g5768"
         transform="matrix(0.35277777,0,0,-0.35277777,9.8670386,81.764199)">
        <path
           d="m 0,0 c 0,-0.325 -0.264,-0.589 -0.589,-0.589 -0.326,0 -0.589,0.264 -0.589,0.589 0,0.325 0.263,0.589 0.589,0.589 C -0.264,0.589 0,0.325 0,0"
           style="fill:#ffffff;fill-opacity:1;fill-rule:nonzero;stroke:none"
           id="path5770" />
      </g>
      <g
         id="g5772"
         transform="matrix(0.35277777,0,0,-0.35277777,9.2680572,82.169788)">
        <path
           d="m 0,0 c 0,0 0.079,-0.145 0.245,-0.318 0.155,-0.181 0.427,-0.367 0.734,-0.421 0.303,-0.072 0.63,-0.025 0.855,0.054 0.23,0.068 0.384,0.127 0.384,0.127 0,0 -0.135,-0.092 -0.363,-0.188 C 1.629,-0.841 1.292,-0.915 0.955,-0.856 0.621,-0.775 0.345,-0.557 0.196,-0.36 0.044,-0.161 0,0 0,0"
           style="fill:#ffb3c0;fill-opacity:1;fill-rule:nonzero;stroke:none"
           id="path5774" />
      </g>
      <g
         id="g5776"
         transform="matrix(0.35277777,0,0,-0.35277777,13.633541,81.968352)">
        <path
           d="m 0,0 c 0,-0.761 0.617,-1.377 1.377,-1.377 0.761,0 1.378,0.616 1.378,1.377 0,0.761 -0.617,1.377 -1.378,1.377 C 0.617,1.377 0,0.761 0,0"
           style="fill:#210f0a;fill-opacity:1;fill-rule:nonzero;stroke:none"
           id="path5778" />
      </g>
      <g
         id="g5780"
         transform="matrix(0.35277777,0,0,-0.35277777,14.006357,81.85197)">
        <path
           d="m 0,0 c 0,-0.325 0.264,-0.589 0.589,-0.589 0.325,0 0.589,0.264 0.589,0.589 0,0.325 -0.264,0.589 -0.589,0.589 C 0.264,0.589 0,0.325 0,0"
           style="fill:#ffffff;fill-opacity:1;fill-rule:nonzero;stroke:none"
           id="path5782" />
      </g>
      <g
         id="g5784"
         transform="matrix(0.35277777,0,0,-0.35277777,14.605338,82.257559)">
        <path
           d="m 0,0 c 0,0 -0.044,-0.161 -0.196,-0.36 -0.149,-0.197 -0.425,-0.415 -0.759,-0.496 -0.337,-0.059 -0.674,0.015 -0.9,0.11 -0.228,0.096 -0.363,0.189 -0.363,0.189 0,0 0.154,-0.06 0.384,-0.128 0.225,-0.079 0.552,-0.126 0.855,-0.054 0.307,0.054 0.579,0.24 0.734,0.421 C -0.079,-0.145 0,0 0,0"
           style="fill:#ffb3c0;fill-opacity:1;fill-rule:nonzero;stroke:none"
           id="path5786" />
      </g>
      <g
         id="g5788"
         transform="matrix(0.35277777,0,0,-0.35277777,15.200862,90.433995)">
        <path
           d="m 0,0 c 0,0 -0.354,-2.395 -0.864,-4.363 -0.267,-1.021 -0.577,-1.932 -0.901,-2.325 -0.944,-1.155 -2.138,0.497 -2.552,0.927 -0.417,0.434 -1.014,-1.211 -1.524,-0.994 -0.51,0.213 -0.997,1.217 -1.408,2.392 -0.68,1.944 -1.151,4.346 -1.151,4.346 z"
           style="fill:#ffffff;fill-opacity:1;fill-rule:nonzero;stroke:none"
           id="path5790" />
      </g>
      <g
         id="g5792"
         transform="matrix(0.35277777,0,0,-0.35277777,14.896062,91.973306)">
        <path
           d="m 0,0 c -0.267,-1.021 -0.577,-1.931 -0.901,-2.325 -0.944,-1.154 -2.138,0.497 -2.552,0.927 -0.417,0.434 -1.014,-1.211 -1.524,-0.994 -0.51,0.214 -0.997,1.218 -1.408,2.392 0,0 4.58,-0.781 6.382,0 z"
           style="fill:#210f0a;fill-opacity:1;fill-rule:nonzero;stroke:none"
           id="path5794" />
      </g>
      <g
         id="g5796"
         transform="matrix(0.35277777,0,0,-0.35277777,23.017253,83.728537)">
        <path
           d="M 0,0 C 0,0 8.381,0.948 8.756,-8.882 L 8.423,-8.83 c 0,0 -0.25,8.548 -8.089,7.881 C -7.506,-1.616 0,0 0,0"
           style="fill:#ffffff;fill-opacity:1;fill-rule:nonzero;stroke:none"
           id="path5798" />
      </g>
      <g
         id="g5800"
         transform="matrix(0.35277777,0,0,-0.35277777,26.636859,87.638302)">
        <path
           d="m 0,0 c -0.566,-1.123 -1.682,-1.954 -2.92,-2.176 0.576,0.488 0.886,1.273 0.798,2.023 -0.331,-0.465 -0.477,-0.442 -1.021,-0.709 0.159,0.683 -0.391,2.002 -0.063,2.617 0.33,0.617 0.771,0.615 1.44,0.818 0.241,0.072 0.5,0.093 0.753,0.058 C -0.567,2.573 -0.148,2.348 0.09,1.968 0.452,1.385 0.312,0.61 0,0"
           style="fill:#210f0a;fill-opacity:1;fill-rule:nonzero;stroke:none"
           id="path5802" />
      </g>
      <g
         id="g5804"
         transform="matrix(0.35277777,0,0,-0.35277777,-89.066312,227.90994)">
        <g
           id="g5806" />
        <g
           id="g5818">
          <g
             clip-path="url(#clipPath5810)"
             opacity="0.300003"
             id="g5816">
            <g
               transform="translate(327.9775,397.6204)"
               id="g5814">
              <path
                 d="M 0,0 C -0.566,-1.123 -1.682,-1.954 -2.92,-2.176 0.476,0.432 -1.013,2.631 -1.013,2.631 -0.567,2.573 -0.148,2.348 0.09,1.968 0.452,1.385 0.312,0.61 0,0"
                 style="fill:#231f20;fill-opacity:1;fill-rule:nonzero;stroke:none"
                 id="path5812" />
            </g>
          </g>
        </g>
      </g>
      <g
         id="g5820"
         transform="matrix(0.35277777,0,0,-0.35277777,23.146723,83.881501)">
        <path
           d="m 0,0 c -0.117,-0.521 -0.307,-1.024 -0.637,-1.441 -0.431,-0.547 -1.141,-0.921 -1.832,-0.794 -0.28,0.05 -0.547,0.18 -0.834,0.187 -0.72,0.02 -1.211,-0.687 -1.791,-1.114 -1.184,-0.871 -3.109,-0.421 -3.786,0.887 -0.317,0.617 -0.414,1.398 -0.971,1.811 -0.46,0.34 -1.087,0.31 -1.654,0.247 -0.304,-0.033 -0.611,-0.073 -0.914,-0.093 -0.407,-0.03 -0.811,-0.024 -1.201,0.07 -0.687,0.17 -1.345,0.7 -1.411,1.404 -0.02,0.22 0.016,0.437 0.066,0.651 0.054,0.213 0.124,0.427 0.167,0.643 0.16,0.784 -0.023,1.632 -0.494,2.282 4.477,0.093 10.709,-0.457 14.321,-3.713 0.21,-0.186 0.41,-0.387 0.604,-0.593 C -0.24,0.293 -0.113,0.15 0,0"
           style="fill:#3d2118;fill-opacity:1;fill-rule:nonzero;stroke:none"
           id="path5822" />
      </g>
      <g
         id="g5824"
         transform="matrix(0.35277777,0,0,-0.35277777,17.995779,90.917654)">
        <path
           d="m 0,0 c -2.085,-0.4 -4.467,-0.681 -7.172,-0.767 -3.576,-0.114 -6.405,0.447 -8.64,1.351 -0.283,0.113 -0.557,0.233 -0.82,0.357 0.837,0.467 1.511,1.274 2.248,1.921 0.971,0.847 2.145,1.461 3.396,1.768 0.757,0.19 1.744,0.167 2.098,-0.53 0.26,-0.517 0.043,-1.208 0.397,-1.665 0.173,-0.227 0.45,-0.343 0.721,-0.43 0.814,-0.267 1.684,-0.36 2.538,-0.277 0.801,0.08 1.578,0.317 2.382,0.367 0.8,0.05 1.674,-0.117 2.222,-0.704 C -0.277,1.011 -0.1,0.507 0,0"
           style="fill:#3d2118;fill-opacity:1;fill-rule:nonzero;stroke:none"
           id="path5826" />
      </g>
      <g
         id="g5828"
         transform="matrix(0.35277777,0,0,-0.35277777,22.312615,87.78474)">
        <path
           d="M 0,0 C 0.238,0.272 0.224,0.938 0.052,1.256 -0.12,1.575 -0.62,2.422 -1.689,2.206 -2.757,1.99 -3.111,1.112 -3.973,1.101 -4.423,1.095 -4.912,1.623 -5.727,0.97 c -1.621,-1.3 -0.701,-2.785 1.253,-2.622 1.042,0.087 2.811,-1.499 3.465,-0.861 C -0.355,-1.875 -1.337,-1.529 0,0"
           style="fill:#3d2118;fill-opacity:1;fill-rule:nonzero;stroke:none"
           id="path5830" />
      </g>
    </g>
  </g>
</svg>
