<?xml version="1.0" encoding="UTF-8" standalone="no"?>
<!-- Created with Inkscape (http://www.inkscape.org/) -->

<svg
   width="20.592215mm"
   height="30.582905mm"
   viewBox="0 0 20.592215 30.582905"
   version="1.1"
   id="svg39408"
   inkscape:version="1.1-rc (52f87abb86, 2021-05-02)"
   sodipodi:docname="d-duck.svg"
   xmlns:inkscape="http://www.inkscape.org/namespaces/inkscape"
   xmlns:sodipodi="http://sodipodi.sourceforge.net/DTD/sodipodi-0.dtd"
   xmlns="http://www.w3.org/2000/svg"
   xmlns:svg="http://www.w3.org/2000/svg">
  <sodipodi:namedview
     id="namedview39410"
     pagecolor="#ffffff"
     bordercolor="#666666"
     borderopacity="1.0"
     objecttolerance="10.0"
     gridtolerance="10.0"
     guidetolerance="10.0"
     inkscape:pageshadow="2"
     inkscape:pageopacity="0.0"
     inkscape:pagecheckerboard="0"
     inkscape:document-units="mm"
     showgrid="false"
     fit-margin-top="0"
     fit-margin-left="0"
     fit-margin-right="0"
     fit-margin-bottom="0"
     inkscape:zoom="0.94875842"
     inkscape:cx="154.93934"
     inkscape:cy="491.69524"
     inkscape:window-width="3840"
     inkscape:window-height="2066"
     inkscape:window-x="2869"
     inkscape:window-y="-11"
     inkscape:window-maximized="1"
     inkscape:current-layer="layer1" />
  <defs
     id="defs39405">
    <clipPath
       clipPathUnits="userSpaceOnUse"
       id="clipPath6018">
      <path
         d="m 372.496,419.156 h 28.996 v -31.597 h -28.996 z"
         id="path6016" />
    </clipPath>
  </defs>
  <g
     inkscape:label="Layer 1"
     inkscape:groupmode="layer"
     id="layer1"
     transform="translate(-64.163048,-18.452209)">
    <g
       id="g23484"
       transform="translate(28.790459,-45.694127)">
      <g
         id="g5996"
         transform="matrix(0.35277777,0,0,-0.35277777,42.575606,68.744089)">
        <path
           d="m 0,0 c -1.629,0 -3.149,-0.217 -4.887,-0.869 0.216,-8.037 0.434,-16.291 0.434,-24.436 0,-8.689 -0.218,-17.377 -0.652,-25.306 0.543,-0.651 1.304,-0.868 2.172,-0.868 6.408,0 14.879,13.793 14.879,28.02 C 11.946,-9.557 6.299,0 0,0 m -0.543,13.033 c 17.919,0 26.499,-16.617 26.499,-34.211 0,-21.179 -10.968,-43.551 -31.604,-43.551 -0.977,0 -10.209,0.977 -14.77,1.52 0.868,13.359 1.52,28.346 1.52,40.945 0,11.512 -0.434,21.287 -0.977,31.604 6.19,2.172 13.25,3.693 19.332,3.693"
           style="fill:#fc8d42;fill-opacity:1;fill-rule:nonzero;stroke:none"
           id="path5998" />
      </g>
      <g
         id="g6000"
         transform="matrix(0.35277777,0,0,-0.35277777,47.528217,90.634338)">
        <path
           d="m 0,0 c 0,0 -3.433,-9.136 -3.899,-8.613 -0.465,0.523 3.064,8.831 3.064,8.831 0,0 0.248,0.656 0.651,0.514 C -0.065,0.69 0.16,0.459 0,0"
           style="fill:#f7b03c;fill-opacity:1;fill-rule:nonzero;stroke:none"
           id="path6002" />
      </g>
      <g
         id="g6004"
         transform="matrix(0.35277777,0,0,-0.35277777,46.408677,93.332347)">
        <path
           d="m 0,0 c 0,0 -0.199,-0.4 1.037,-0.89 0.863,-0.342 1.964,-0.478 1.72,-0.633 0,0 -1.113,-0.09 -1.18,-0.858 0,0 -0.905,0.223 -1.309,-0.628 -0.265,0.145 -0.916,0.631 -1.483,0.06 0,0 0.141,1.67 0.53,2.715"
           style="fill:#f7b03c;fill-opacity:1;fill-rule:nonzero;stroke:none"
           id="path6006" />
      </g>
      <g
         id="g6008"
         transform="matrix(0.35277777,0,0,-0.35277777,51.543075,82.588041)">
        <path
           d="m 0,0 c -0.063,-5.434 2.85,-9.45 2.913,-13.718 0.064,-4.269 -4.205,-12.3 -14.63,-10.362 -8.804,1.647 -11.35,6.321 -14.364,8.88 -0.038,0.025 -0.051,0.038 -0.051,0.038 -0.532,0.456 -1.089,0.836 -1.697,1.114 -4.573,2.166 -9.767,-3.749 -10.805,-2.267 -0.925,1.33 3.344,3.154 4.332,3.559 -0.887,-0.329 -4.51,-1.621 -4.852,-0.772 -0.38,0.975 4.016,4.471 11.844,5.307 7.828,0.836 17.392,-1.039 19.938,2.001 1.609,1.939 0.38,6.967 0.582,12.668 0.19,5.7 1.875,8.474 6.207,8.676 4.18,0.178 5.84,-5.687 3.446,-7.904 H 2.85 C 2.774,7.132 2.673,7.056 2.584,6.992 2.584,6.992 0.063,5.434 0,0"
           style="fill:#fefefe;fill-opacity:1;fill-rule:nonzero;stroke:none"
           id="path6010" />
      </g>
      <g
         id="g6012"
         transform="matrix(0.35277777,0,0,-0.35277777,-89.066312,227.90994)">
        <g
           id="g6014" />
        <g
           id="g6026">
          <g
             clip-path="url(#clipPath6018)"
             opacity="0.399994"
             id="g6024">
            <g
               transform="translate(401.4912,398.2177)"
               id="g6022">
              <path
                 d="m 0,0 c 0.063,-4.269 -4.205,-12.3 -14.63,-10.362 -8.804,1.647 -11.35,6.321 -14.365,8.88 0.443,-0.342 4.104,-3.154 6.676,-4.852 2.723,-1.824 4.788,-2.66 9.538,-2.976 4.75,-0.317 10.699,3.386 11.071,7.524 0.484,5.383 -1.719,7.562 -1.871,14.985 -0.165,7.144 3.277,7.702 3.518,7.74 -0.076,-0.089 -0.178,-0.165 -0.266,-0.228 0,0 -2.521,-1.558 -2.584,-6.993 C -2.977,8.284 -0.063,4.269 0,0"
                 style="fill:#e8e8e8;fill-opacity:1;fill-rule:nonzero;stroke:none"
                 id="path6020" />
            </g>
          </g>
        </g>
      </g>
      <g
         id="g6028"
         transform="matrix(0.35277777,0,0,-0.35277777,55.91244,79.198658)">
        <path
           d="m 0,0 c -0.647,0.162 -0.857,-0.388 -3.155,-0.227 -2.297,0.162 -5.278,1.07 -5.278,1.07 0,0 -0.127,-0.446 -0.465,-0.94 -0.261,-0.382 -0.737,-0.777 -0.825,-1.108 -0.015,-0.284 0.389,-0.585 0.441,-0.939 0,0 3.512,-0.347 4.949,-0.849 1.356,-0.473 2.38,-0.154 0.686,0.916 C -0.64,-2.114 0.604,-0.151 0,0"
           style="fill:#f7b03c;fill-opacity:1;fill-rule:nonzero;stroke:none"
           id="path6030" />
      </g>
      <g
         id="g6032"
         transform="matrix(0.35277777,0,0,-0.35277777,51.389582,78.227355)">
        <path
           d="m 0,0 c -0.41,-0.152 -1.07,-0.772 -0.597,-1.643 0.473,-0.871 1.618,-0.622 1.966,0 C 1.718,-1.021 1.07,0.398 0,0"
           style="fill:#2d1c14;fill-opacity:1;fill-rule:nonzero;stroke:none"
           id="path6034" />
      </g>
      <g
         id="g6036"
         transform="matrix(0.35277777,0,0,-0.35277777,51.573097,78.456237)">
        <path
           d="m 0,0 c -0.124,-0.046 -0.323,-0.233 -0.18,-0.496 0.142,-0.263 0.488,-0.188 0.594,0 C 0.519,-0.308 0.323,0.12 0,0"
           style="fill:#fefefe;fill-opacity:1;fill-rule:nonzero;stroke:none"
           id="path6038" />
      </g>
      <g
         id="g6040"
         transform="matrix(0.35277777,0,0,-0.35277777,49.241342,85.94391)">
        <path
           d="m 0,0 c -2.456,0.851 -5.383,0.348 -7.842,-0.269 -1.461,-0.366 -2.883,-0.863 -4.318,-1.318 -1.683,-0.533 -3.261,-0.799 -5.023,-0.865 -0.155,-0.005 -0.26,-0.207 -0.133,-0.321 1.268,-1.148 2.206,-1.806 3.895,-2.17 1.707,-0.368 3.548,-0.336 5.236,0.107 0.098,0.026 0.082,0.191 -0.024,0.181 -1.671,-0.165 -3.242,-0.364 -4.912,-0.023 -0.665,0.136 -1.37,0.308 -1.983,0.606 -0.715,0.347 -1.359,1.028 -1.946,1.565 -0.045,-0.107 -0.089,-0.214 -0.133,-0.321 2.884,0.147 5.374,1.069 8.113,1.914 2.958,0.913 5.974,1.36 9.045,0.824 C 0.034,-0.1 0.057,-0.02 0,0"
           style="fill:#d3d3d3;fill-opacity:1;fill-rule:nonzero;stroke:none"
           id="path6042" />
      </g>
      <g
         id="g6044"
         transform="matrix(0.35277777,0,0,-0.35277777,44.12938,87.579706)">
        <path
           d="m 0,0 c 0.252,-0.989 1.186,-1.421 2.073,-1.76 1.317,-0.504 2.674,-0.861 4.06,-0.464 0.112,0.033 0.063,0.19 -0.048,0.172 C 4.228,-2.35 1.064,-1.795 0.131,0.055 0.094,0.129 -0.02,0.077 0,0"
           style="fill:#d3d3d3;fill-opacity:1;fill-rule:nonzero;stroke:none"
           id="path6046" />
      </g>
      <g
         id="g6048"
         transform="matrix(0.35277777,0,0,-0.35277777,45.101565,88.294751)">
        <path
           d="m 0,0 c 0.959,-1.592 3.756,-1.527 5.381,-1.399 0.103,0.008 0.102,0.151 0,0.16 C 4.449,-1.157 3.518,-1.169 2.59,-1.03 1.517,-0.869 0.911,-0.653 0.057,0.044 0.027,0.069 -0.023,0.038 0,0"
           style="fill:#d3d3d3;fill-opacity:1;fill-rule:nonzero;stroke:none"
           id="path6050" />
      </g>
      <g
         id="g6052"
         transform="matrix(0.35277777,0,0,-0.35277777,45.974796,88.750116)">
        <path
           d="m 0,0 c 1.766,-1.447 4.088,-1.951 6.334,-1.776 2.101,0.163 4.644,0.803 6.047,2.497 0.066,0.08 -0.023,0.231 -0.121,0.157 C 10.442,-0.49 8.633,-1.309 6.334,-1.5 4.063,-1.688 1.975,-1.128 0.026,0.033 0.006,0.045 -0.019,0.016 0,0"
           style="fill:#d3d3d3;fill-opacity:1;fill-rule:nonzero;stroke:none"
           id="path6054" />
      </g>
      <g
         id="g6056"
         transform="matrix(0.35277777,0,0,-0.35277777,49.506031,79.97865)">
        <path
           d="m 0,0 c -0.029,-0.628 -0.075,-1.272 -0.005,-1.898 0.009,-0.08 0.114,-0.079 0.124,0 C 0.198,-1.274 0.236,-0.628 0.2,0 0.193,0.128 0.006,0.129 0,0"
           style="fill:#eaeaea;fill-opacity:1;fill-rule:nonzero;stroke:none"
           id="path6058" />
      </g>
      <g
         id="g6060"
         transform="matrix(0.35277777,0,0,-0.35277777,49.310592,80.983079)">
        <path
           d="M 0,0 C 0.006,-0.429 0.13,-0.888 0.2,-1.313 0.213,-1.395 0.327,-1.365 0.335,-1.294 0.379,-0.881 0.311,-0.308 0.012,0.005 0.008,0.009 0,0.006 0,0"
           style="fill:#eaeaea;fill-opacity:1;fill-rule:nonzero;stroke:none"
           id="path6062" />
      </g>
      <g
         id="g6064"
         transform="matrix(0.35277777,0,0,-0.35277777,49.659348,81.103799)">
        <path
           d="M 0,0 C -0.259,-0.898 0.184,-1.863 -0.043,-2.792 -0.057,-2.851 0.031,-2.894 0.059,-2.835 0.451,-2.001 0.189,-0.868 0.021,0 0.019,0.011 0.003,0.01 0,0"
           style="fill:#eaeaea;fill-opacity:1;fill-rule:nonzero;stroke:none"
           id="path6066" />
      </g>
      <g
         id="g6068"
         transform="matrix(0.35277777,0,0,-0.35277777,49.932222,80.862676)">
        <path
           d="m 0,0 c 0.074,-0.402 0.155,-0.794 0.181,-1.204 0.004,-0.063 0.093,-0.063 0.097,0 C 0.306,-0.772 0.204,-0.381 0.026,0.011 0.019,0.026 -0.003,0.015 0,0"
           style="fill:#eaeaea;fill-opacity:1;fill-rule:nonzero;stroke:none"
           id="path6070" />
      </g>
      <g
         id="g6072"
         transform="matrix(0.35277777,0,0,-0.35277777,49.382417,82.26151)">
        <path
           d="m 0,0 c -0.042,-0.566 0.007,-1.221 0.101,-1.782 0.008,-0.047 0.088,-0.047 0.095,0 0.089,0.564 0.068,1.259 -0.16,1.792 C 0.028,0.029 0.001,0.017 0,0"
           style="fill:#eaeaea;fill-opacity:1;fill-rule:nonzero;stroke:none"
           id="path6074" />
      </g>
      <g
         id="g6076"
         transform="matrix(0.35277777,0,0,-0.35277777,49.730292,82.459348)">
        <path
           d="M 0,0 C -0.051,-0.583 0.007,-1.172 -0.081,-1.751 -0.091,-1.818 0.005,-1.876 0.039,-1.802 0.303,-1.225 0.125,-0.599 0.051,0 0.047,0.032 0.003,0.033 0,0"
           style="fill:#eaeaea;fill-opacity:1;fill-rule:nonzero;stroke:none"
           id="path6078" />
      </g>
      <g
         id="g6080"
         transform="matrix(0.35277777,0,0,-0.35277777,50.127025,82.411511)">
        <path
           d="M 0,0 C -0.094,-0.436 -0.082,-0.885 -0.174,-1.325 -0.193,-1.414 -0.071,-1.446 -0.04,-1.362 0.123,-0.923 0.146,-0.456 0.045,0 0.04,0.022 0.005,0.022 0,0"
           style="fill:#eaeaea;fill-opacity:1;fill-rule:nonzero;stroke:none"
           id="path6082" />
      </g>
      <g
         id="g6084"
         transform="matrix(0.35277777,0,0,-0.35277777,49.489097,79.34178)">
        <path
           d="M 0,0 C 0.091,0.263 0.092,0.541 0.154,0.812 0.226,1.129 0.358,1.412 0.495,1.706 0.518,1.756 0.456,1.816 0.414,1.769 0.014,1.321 -0.234,0.591 -0.049,0 -0.041,-0.025 -0.008,-0.023 0,0"
           style="fill:#eaeaea;fill-opacity:1;fill-rule:nonzero;stroke:none"
           id="path6086" />
      </g>
      <g
         id="g6088"
         transform="matrix(0.35277777,0,0,-0.35277777,49.723236,79.586961)">
        <path
           d="M 0,0 C 0.073,0.378 0.127,0.803 0.314,1.145 0.348,1.206 0.268,1.27 0.217,1.22 -0.076,0.927 -0.172,0.396 -0.082,0 -0.073,-0.04 -0.008,-0.041 0,0"
           style="fill:#eaeaea;fill-opacity:1;fill-rule:nonzero;stroke:none"
           id="path6090" />
      </g>
      <g
         id="g6092"
         transform="matrix(0.35277777,0,0,-0.35277777,49.371481,81.727405)">
        <path
           d="m 0,0 c -0.148,-0.194 -0.034,-0.695 0.001,-0.923 0.008,-0.049 0.09,-0.049 0.098,0 0.034,0.211 0.162,0.81 -0.088,0.926 C 0.007,0.005 0.003,0.004 0,0"
           style="fill:#eaeaea;fill-opacity:1;fill-rule:nonzero;stroke:none"
           id="path6094" />
      </g>
      <g
         id="g6096"
         transform="matrix(0.35277777,0,0,-0.35277777,49.276443,80.326983)">
        <path
           d="m 0,0 c -0.094,-0.42 -0.076,-0.873 -0.033,-1.299 0.007,-0.065 0.095,-0.065 0.101,0 C 0.111,-0.873 0.129,-0.42 0.035,0 0.031,0.017 0.004,0.017 0,0"
           style="fill:#eaeaea;fill-opacity:1;fill-rule:nonzero;stroke:none"
           id="path6098" />
      </g>
      <g
         id="g6100"
         transform="matrix(0.35277777,0,0,-0.35277777,49.272316,79.719923)">
        <path
           d="M 0,0 C -0.023,-0.274 -0.006,-0.544 -0.085,-0.812 -0.094,-0.843 -0.046,-0.865 -0.032,-0.834 0.101,-0.546 0.096,-0.319 0.059,0 0.054,0.037 0.003,0.038 0,0"
           style="fill:#eaeaea;fill-opacity:1;fill-rule:nonzero;stroke:none"
           id="path6102" />
      </g>
      <g
         id="g6104"
         transform="matrix(0.35277777,0,0,-0.35277777,49.770261,80.039539)">
        <path
           d="m 0,0 c -0.046,-0.407 -0.003,-0.863 0.071,-1.267 0.01,-0.055 0.104,-0.056 0.113,0 0.068,0.412 0.051,0.886 -0.103,1.278 C 0.064,0.055 0.005,0.047 0,0"
           style="fill:#eaeaea;fill-opacity:1;fill-rule:nonzero;stroke:none"
           id="path6106" />
      </g>
      <g
         id="g6108"
         transform="matrix(0.35277777,0,0,-0.35277777,49.953953,81.698371)">
        <path
           d="m 0,0 c -0.04,-0.343 -0.041,-0.755 0.009,-1.099 0.011,-0.073 0.131,-0.069 0.145,0 0.064,0.327 0.162,0.861 -0.088,1.126 C 0.04,0.054 0.004,0.031 0,0"
           style="fill:#eaeaea;fill-opacity:1;fill-rule:nonzero;stroke:none"
           id="path6110" />
      </g>
      <g
         id="g6112"
         transform="matrix(0.35277777,0,0,-0.35277777,49.444189,83.401335)">
        <path
           d="M 0,0 C -0.151,-0.425 -0.089,-0.926 -0.16,-1.372 -0.169,-1.434 -0.09,-1.456 -0.066,-1.398 0.112,-0.969 0.194,-0.446 0.033,0 0.027,0.016 0.006,0.016 0,0"
           style="fill:#eaeaea;fill-opacity:1;fill-rule:nonzero;stroke:none"
           id="path6114" />
      </g>
      <g
         id="g6116"
         transform="matrix(0.35277777,0,0,-0.35277777,49.82533,83.50805)">
        <path
           d="M 0,0 C -0.139,-0.508 -0.206,-1.065 -0.302,-1.584 -0.313,-1.646 -0.225,-1.695 -0.193,-1.63 0.054,-1.143 0.163,-0.535 0.029,0 0.026,0.015 0.004,0.014 0,0"
           style="fill:#eaeaea;fill-opacity:1;fill-rule:nonzero;stroke:none"
           id="path6118" />
      </g>
      <g
         id="g6120"
         transform="matrix(0.35277777,0,0,-0.35277777,49.416531,84.344698)">
        <path
           d="m 0,0 c -0.222,-0.469 -0.39,-0.926 -0.682,-1.36 -0.035,-0.052 0.038,-0.094 0.079,-0.061 0.401,0.319 0.631,0.91 0.622,1.416 C 0.019,0.004 0.005,0.009 0,0"
           style="fill:#eaeaea;fill-opacity:1;fill-rule:nonzero;stroke:none"
           id="path6122" />
      </g>
      <g
         id="g6124"
         transform="matrix(0.35277777,0,0,-0.35277777,48.794019,85.238602)">
        <path
           d="m 0,0 c -0.868,-0.117 -1.731,-0.415 -2.595,-0.58 -0.047,-0.009 -0.036,-0.085 0.011,-0.083 0.858,0.034 1.843,0.207 2.597,0.632 C 0.032,-0.021 0.018,0.002 0,0"
           style="fill:#eaeaea;fill-opacity:1;fill-rule:nonzero;stroke:none"
           id="path6126" />
      </g>
      <g
         id="g6128"
         transform="matrix(0.35277777,0,0,-0.35277777,45.415678,87.319038)">
        <path
           d="M 0,0 C 2.211,-0.587 5.283,-0.145 7.194,1.129 7.257,1.17 7.203,1.259 7.136,1.228 4.919,0.22 2.444,-0.274 0.004,0.028 -0.012,0.03 -0.015,0.004 0,0"
           style="fill:#eaeaea;fill-opacity:1;fill-rule:nonzero;stroke:none"
           id="path6130" />
      </g>
      <g
         id="g6132"
         transform="matrix(0.35277777,0,0,-0.35277777,46.786714,87.943949)">
        <path
           d="M 0,0 C 2.328,0.196 4.978,0.482 6.559,2.431 6.61,2.494 6.533,2.57 6.47,2.52 4.514,0.942 2.47,0.334 0,0.032 -0.02,0.03 -0.021,-0.002 0,0"
           style="fill:#eaeaea;fill-opacity:1;fill-rule:nonzero;stroke:none"
           id="path6134" />
      </g>
      <g
         id="g6136"
         transform="matrix(0.35277777,0,0,-0.35277777,47.63899,88.673352)">
        <path
           d="M 0,0 C 1.367,-0.06 2.738,0.304 3.874,1.075 3.947,1.125 3.884,1.236 3.805,1.194 2.568,0.547 1.399,0.144 0,0.026 -0.017,0.025 -0.017,0.001 0,0"
           style="fill:#eaeaea;fill-opacity:1;fill-rule:nonzero;stroke:none"
           id="path6138" />
      </g>
      <g
         id="g6140"
         transform="matrix(0.35277777,0,0,-0.35277777,48.791091,90.6911)">
        <path
           d="m 0,0 c 0,0 0.944,-9.714 0.295,-9.449 -0.648,0.264 -1.14,9.277 -1.14,9.277 0,0 -0.067,0.698 0.358,0.748 C -0.363,0.59 -0.058,0.482 0,0"
           style="fill:#f7b03c;fill-opacity:1;fill-rule:nonzero;stroke:none"
           id="path6142" />
      </g>
      <g
         id="g6144"
         transform="matrix(0.35277777,0,0,-0.35277777,48.974994,93.606349)">
        <path
           d="m 0,0 c 0,0 -0.002,-0.447 1.323,-0.342 0.925,0.073 1.973,0.436 1.823,0.19 0,0 -0.96,-0.572 -0.681,-1.291 0,0 -0.911,-0.198 -0.899,-1.14 -0.301,0.013 -1.1,0.163 -1.357,-0.6 0,0 -0.61,1.561 -0.721,2.672"
           style="fill:#f7b03c;fill-opacity:1;fill-rule:nonzero;stroke:none"
           id="path6146" />
      </g>
      <g
         id="g6148"
         transform="matrix(0.35277777,0,0,-0.35277777,50.668045,77.359592)">
        <path
           d="M 0,0 C 0,0 2.501,2.714 2.911,1.937 3.321,1.161 0.875,0.196 0.875,0.196 c 0,0 2.532,1.116 2.866,0.76 C 4.075,0.6 1.972,0.244 1.972,0.244 c 0,0 1.618,0.397 1.877,0.058 C 4.108,-0.036 2.458,0 2.458,0"
           style="fill:#fefefe;fill-opacity:1;fill-rule:nonzero;stroke:none"
           id="path6150" />
      </g>
    </g>
  </g>
</svg>
