<?xml version="1.0" encoding="UTF-8" standalone="no"?>
<!-- Created with Inkscape (http://www.inkscape.org/) -->

<svg
   width="27.303411mm"
   height="31.072361mm"
   viewBox="0 0 27.303411 31.072361"
   version="1.1"
   id="svg40023"
   inkscape:version="1.1-rc (52f87abb86, 2021-05-02)"
   sodipodi:docname="e-elephant.svg"
   xmlns:inkscape="http://www.inkscape.org/namespaces/inkscape"
   xmlns:sodipodi="http://sodipodi.sourceforge.net/DTD/sodipodi-0.dtd"
   xmlns="http://www.w3.org/2000/svg"
   xmlns:svg="http://www.w3.org/2000/svg">
  <sodipodi:namedview
     id="namedview40025"
     pagecolor="#ffffff"
     bordercolor="#666666"
     borderopacity="1.0"
     objecttolerance="10.0"
     gridtolerance="10.0"
     guidetolerance="10.0"
     inkscape:pageshadow="2"
     inkscape:pageopacity="0.0"
     inkscape:pagecheckerboard="0"
     inkscape:document-units="mm"
     showgrid="false"
     fit-margin-top="0"
     fit-margin-left="0"
     fit-margin-right="0"
     fit-margin-bottom="0"
     inkscape:zoom="0.94875842"
     inkscape:cx="256.12421"
     inkscape:cy="534.90962"
     inkscape:window-width="3840"
     inkscape:window-height="2066"
     inkscape:window-x="2869"
     inkscape:window-y="-11"
     inkscape:window-maximized="1"
     inkscape:current-layer="layer1" />
  <defs
     id="defs40020" />
  <g
     inkscape:label="Layer 1"
     inkscape:groupmode="layer"
     id="layer1"
     transform="translate(-37.382097,-7.0525516)">
    <g
       id="g23622"
       transform="translate(-20.895294,-56.443792)">
      <g
         id="g6532"
         transform="matrix(0.35277777,0,0,-0.35277777,85.580803,89.051918)">
        <path
           d="m 0,0 c -4.996,-2.28 -11.729,-4.236 -21.831,-4.236 l -16.724,1.521 c -0.218,8.58 -0.434,17.16 -0.434,27.478 0,12.815 0.868,32.581 1.736,44.854 14.988,2.281 27.153,2.824 36.275,2.824 V 59.082 c -7.168,0 -15.313,-0.217 -22.807,-0.761 -0.217,-6.19 -0.435,-12.598 -0.543,-18.68 6.516,0.978 12.49,1.304 19.549,1.412 l 2.064,-11.946 c -6.299,-0.109 -15.531,-0.978 -21.83,-1.629 0,-7.603 0,-13.033 0.108,-18.789 8.472,0.652 16.4,2.063 22.59,3.258 z"
           style="fill:#423c3e;fill-opacity:1;fill-rule:nonzero;stroke:none"
           id="path6534" />
      </g>
      <g
         id="g6536"
         transform="matrix(0.35277777,0,0,-0.35277777,79.931385,91.493352)">
        <path
           d="m 0,0 c 0,0 -0.473,-2.603 -1.101,-4.72 v -0.003 c -0.322,-1.084 -0.683,-2.04 -1.044,-2.452 -1.061,-1.213 -2.293,0.617 -2.73,1.098 -0.433,0.48 -1.137,-1.275 -1.682,-1.026 -0.506,0.235 -0.968,1.21 -1.354,2.383 h -0.004 c -0.715,2.167 -1.17,4.998 -1.17,4.998 l 4.542,3.81 4.095,-0.845 z"
           style="fill:#8c8c8c;fill-opacity:1;fill-rule:nonzero;stroke:none"
           id="path6538" />
      </g>
      <g
         id="g6540"
         transform="matrix(0.35277777,0,0,-0.35277777,79.541636,93.160227)">
        <path
           d="m 0,0 c -0.315,-1.083 -0.59,-2.29 -0.96,-2.701 -0.521,-0.288 -1.714,-0.37 -2.756,-0.329 -0.877,0.013 -1.645,0.109 -1.892,0.233 -0.329,0.151 -0.576,0.795 -0.809,1.536 C -6.54,-0.85 -6.664,-0.411 -6.801,0 -6.664,-0.027 -2.701,-0.864 0,0"
           style="fill:#210f0a;fill-opacity:1;fill-rule:nonzero;stroke:none"
           id="path6542" />
      </g>
      <g
         id="g6544"
         transform="matrix(0.35277777,0,0,-0.35277777,82.586143,93.008003)">
        <path
           d="m 0,0 c -0.318,-1.824 -0.672,-3.131 -0.935,-3.597 -1.174,-1.624 -2.167,1.084 -2.167,1.084 -0.451,0.271 -0.632,-1.221 -1.083,-1.604 -0.368,-0.314 -1.163,-0.187 -2.333,2.799 -0.26,0.657 -0.591,1.469 -0.827,2.416 -0.505,2.03 -1.607,3.105 -1.895,4.008 -0.434,1.354 -0.271,1.827 -0.271,1.827 l -13.693,18.958 -1.076,1.487 -0.668,0.925 c 0,0 0.545,0.09 1.477,0.191 0.588,0.065 1.329,0.134 2.181,0.184 0.65,0.04 1.361,0.076 2.123,0.091 4.846,0.101 11.591,-0.495 15.502,-4.019 0.227,-0.203 0.444,-0.419 0.653,-0.643 0.138,-0.152 0.275,-0.307 0.398,-0.47 C 1.784,18.145 1.08,6.142 0,0"
           style="fill:#b4b5b0;fill-opacity:1;fill-rule:nonzero;stroke:none"
           id="path6546" />
      </g>
      <g
         id="g6548"
         transform="matrix(0.35277777,0,0,-0.35277777,80.74923,90.237357)">
        <path
           d="m 0,0 c 0,0 -1.231,-1.3 -4.033,-2.748 -2.116,-1.098 -5.128,-2.282 -9.18,-3.058 -2.256,-0.434 -4.835,-0.737 -7.763,-0.831 -3.871,-0.123 -6.933,0.484 -9.353,1.463 -0.306,0.122 -0.603,0.252 -0.888,0.386 -1.596,0.744 -2.878,1.654 -3.903,2.589 -1.008,0.921 -1.77,1.871 -2.333,2.726 -1.13,1.712 -1.484,3.052 -1.484,3.052 l 6.016,9.103 12.577,7.247 1.271,-0.405 0.968,-0.31 4.441,-1.416 c 0,0 9.872,-8.243 10.111,-8.471 C -3.311,9.1 0,0 0,0"
           style="fill:#b4b5b0;fill-opacity:1;fill-rule:nonzero;stroke:none"
           id="path6550" />
      </g>
      <g
         id="g6552"
         transform="matrix(0.35277777,0,0,-0.35277777,70.196518,91.601654)">
        <path
           d="m 0,0 c 0,0 -0.159,-0.524 -0.408,-1.282 -0.004,-0.007 -0.004,-0.018 -0.007,-0.025 -0.138,-0.415 -0.3,-0.91 -0.481,-1.419 -0.13,-0.383 -0.27,-0.777 -0.411,-1.163 -0.549,-1.481 -1.134,-2.824 -1.452,-2.853 -0.718,-0.057 -0.91,1.387 -1.343,1.445 -0.433,0.061 -0.592,-1.925 -1.733,-0.661 -0.322,0.354 -0.6,1.372 -0.831,2.654 -0.404,2.203 -0.679,5.185 -0.812,6.919 -0.015,0.173 -0.029,0.335 -0.04,0.483 -0.004,0.029 -0.004,0.062 -0.007,0.091 V 4.192 C -7.529,4.265 -7.536,4.33 -7.54,4.395 -7.569,4.792 -7.583,5.026 -7.583,5.026 l 2.499,-1.657 z"
           style="fill:#b4b5b0;fill-opacity:1;fill-rule:nonzero;stroke:none"
           id="path6554" />
      </g>
      <g
         id="g6556"
         transform="matrix(0.35277777,0,0,-0.35277777,82.584238,93.010296)">
        <path
           d="m 0,0 c -0.315,-1.824 -0.672,-3.126 -0.932,-3.592 -0.261,-0.302 -0.672,-0.508 -1.125,-0.631 -1.124,-0.316 -2.578,-0.165 -2.975,-0.11 -0.288,0.041 -0.343,0.041 -0.604,0.727 -0.164,0.425 -0.425,1.124 -0.877,2.29 0,0 4.744,-0.809 6.513,1.316"
           style="fill:#210f0a;fill-opacity:1;fill-rule:nonzero;stroke:none"
           id="path6558" />
      </g>
      <g
         id="g6560"
         transform="matrix(0.35277777,0,0,-0.35277777,69.736601,92.971596)">
        <path
           d="m 0,0 c -0.548,-1.481 -1.138,-2.825 -1.453,-2.852 -0.261,-0.027 -1.084,-0.233 -1.893,-0.178 -0.493,0.013 -0.973,0.137 -1.33,0.452 -0.315,0.275 -0.466,0.837 -0.548,1.399 C -5.32,-0.466 -5.306,0.274 -5.361,0.576 -5.224,0.535 -1.92,-0.59 0,0"
           style="fill:#210f0a;fill-opacity:1;fill-rule:nonzero;stroke:none"
           id="path6562" />
      </g>
      <g
         id="g6564"
         transform="matrix(0.35277777,0,0,-0.35277777,70.051032,92.052504)">
        <path
           d="m 0,0 c -0.137,-0.425 -0.302,-0.932 -0.48,-1.453 -1.988,1.001 -4.991,2.961 -6.581,6.348 -0.028,0.069 -0.083,0.192 -0.138,0.357 -0.123,0.301 -0.274,0.726 -0.384,1.042 -0.068,0.164 -0.109,0.288 -0.137,0.356 0.041,-0.068 0.096,-0.137 0.151,-0.219 0.192,-0.302 0.425,-0.645 0.658,-0.96 0.576,-0.823 1.152,-1.563 1.152,-1.563 0,0 2.564,-2.825 5.348,-3.771 C -0.261,0.096 -0.123,0.041 0,0"
           style="fill:#8c8c8c;fill-opacity:1;fill-rule:nonzero;stroke:none"
           id="path6566" />
      </g>
      <g
         id="g6568"
         transform="matrix(0.35277777,0,0,-0.35277777,71.892038,87.784916)">
        <path
           d="m 0,0 c -5.074,-3.523 -9.072,-4.117 -9.072,-4.117 -0.768,-0.823 -2.18,-1.878 -3.057,-2.509 -0.11,-0.082 -0.206,-0.151 -0.288,-0.22 -0.124,0.302 -0.275,0.727 -0.384,1.043 l 0.013,0.137 0.398,4.154 19.375,15.22 0.925,0.714 C 8.143,9.266 5.348,3.713 0,0"
           style="fill:#8c8c8c;fill-opacity:1;fill-rule:nonzero;stroke:none"
           id="path6570" />
      </g>
      <g
         id="g6572"
         transform="matrix(0.35277777,0,0,-0.35277777,66.427969,87.628001)">
        <path
           d="m 0,0 c 0,0 2.194,1.158 4.155,-0.943 0,0 -2.697,-9.344 -8.21,-10.977 0,0 -2.108,-0.687 -1.608,0.611 C -5.162,-10.01 -1.513,-7.855 0,0"
           style="fill:#fffffc;fill-opacity:1;fill-rule:nonzero;stroke:none"
           id="path6574" />
      </g>
      <g
         id="g6576"
         transform="matrix(0.35277777,0,0,-0.35277777,67.288958,79.148423)">
        <path
           d="m 0,0 c 0,0 -1.838,7.256 -6.975,4.513 -3.966,-2.117 -0.971,-11.312 -3.828,-17.025 -1.44,-2.881 -1.428,-5.199 -0.142,-5.199 1.285,0 3.599,0.6 5.57,3.171"
           style="fill:#a5a5a5;fill-opacity:1;fill-rule:nonzero;stroke:none"
           id="path6578" />
      </g>
      <g
         id="g6580"
         transform="matrix(0.35277777,0,0,-0.35277777,72.584117,79.329856)">
        <path
           d="m 0,0 c 0,0 1.838,7.256 6.975,4.514 3.966,-2.118 0.971,-11.313 3.828,-17.026 1.44,-2.881 1.428,-5.199 0.142,-5.199 -1.285,0 -3.599,0.6 -5.57,3.171"
           style="fill:#a5a5a5;fill-opacity:1;fill-rule:nonzero;stroke:none"
           id="path6582" />
      </g>
      <g
         id="g6584"
         transform="matrix(0.35277777,0,0,-0.35277777,68.861077,89.024401)">
        <path
           d="M 0,0 C 0,0 1.055,1.164 1.331,1.607 2.325,3.2 2.454,4.004 2.454,4.004 1.906,3.25 -8.309,-10.27 -20.623,-6.678 c -4.579,1.33 -7.514,5.074 -9.378,9.311 1.672,1.357 2.689,1.826 4.074,2.319 1.083,-2.907 3.549,-4.719 5.469,-4.774 C -14.63,0 -10.405,4.342 -9.837,20.453 -9.724,23.675 -5.9,36.508 7.514,31.823 10.111,30.916 13.955,28.595 15.421,23.31 20.163,6.213 0,0 0,0"
           style="fill:#b4b5b0;fill-opacity:1;fill-rule:nonzero;stroke:none"
           id="path6586" />
      </g>
      <g
         id="g6588"
         transform="matrix(0.35277777,0,0,-0.35277777,67.692466,82.503339)">
        <path
           d="m 0,0 c 0,-0.823 -0.667,-1.491 -1.491,-1.491 -0.823,0 -1.491,0.668 -1.491,1.491 0,0.823 0.668,1.491 1.491,1.491 C -0.667,1.491 0,0.823 0,0"
           style="fill:#210f0a;fill-opacity:1;fill-rule:nonzero;stroke:none"
           id="path6590" />
      </g>
      <g
         id="g6592"
         transform="matrix(0.35277777,0,0,-0.35277777,67.288958,82.377327)">
        <path
           d="m 0,0 c 0,-0.352 -0.285,-0.638 -0.638,-0.638 -0.352,0 -0.637,0.286 -0.637,0.638 0,0.352 0.285,0.638 0.637,0.638 C -0.285,0.638 0,0.352 0,0"
           style="fill:#ffffff;fill-opacity:1;fill-rule:nonzero;stroke:none"
           id="path6594" />
      </g>
      <g
         id="g6596"
         transform="matrix(0.35277777,0,0,-0.35277777,66.640588,82.816359)">
        <path
           d="M 0,0 C 0,0 0.085,-0.157 0.265,-0.344 0.433,-0.54 0.728,-0.741 1.06,-0.8 c 0.676,-0.153 1.342,0.233 1.341,0.196 0,0 -0.147,-0.1 -0.393,-0.204 C 1.764,-0.91 1.398,-0.991 1.033,-0.927 0.672,-0.839 0.373,-0.603 0.212,-0.389 0.047,-0.175 0,0 0,0"
           style="fill:#8c8c8c;fill-opacity:1;fill-rule:nonzero;stroke:none"
           id="path6598" />
      </g>
      <g
         id="g6600"
         transform="matrix(0.35277777,0,0,-0.35277777,71.366082,82.598272)">
        <path
           d="m 0,0 c 0,-0.823 0.668,-1.491 1.491,-1.491 0.823,0 1.491,0.668 1.491,1.491 0,0.823 -0.668,1.491 -1.491,1.491 C 0.668,1.491 0,0.823 0,0"
           style="fill:#210f0a;fill-opacity:1;fill-rule:nonzero;stroke:none"
           id="path6602" />
      </g>
      <g
         id="g6604"
         transform="matrix(0.35277777,0,0,-0.35277777,71.769659,82.472295)">
        <path
           d="M 0,0 C 0,-0.352 0.285,-0.638 0.638,-0.638 0.99,-0.638 1.275,-0.352 1.275,0 1.275,0.352 0.99,0.638 0.638,0.638 0.285,0.638 0,0.352 0,0"
           style="fill:#ffffff;fill-opacity:1;fill-rule:nonzero;stroke:none"
           id="path6606" />
      </g>
      <g
         id="g6608"
         transform="matrix(0.35277777,0,0,-0.35277777,72.418065,82.911362)">
        <path
           d="m 0,0 c 0,0 -0.047,-0.175 -0.212,-0.389 -0.162,-0.214 -0.46,-0.45 -0.821,-0.538 -0.365,-0.064 -0.731,0.017 -0.975,0.12 -0.246,0.103 -0.393,0.204 -0.393,0.204 -0.001,0.036 0.665,-0.35 1.341,-0.197 0.332,0.059 0.627,0.26 0.794,0.456 C -0.086,-0.157 0,0 0,0"
           style="fill:#8c8c8c;fill-opacity:1;fill-rule:nonzero;stroke:none"
           id="path6610" />
      </g>
      <g
         id="g6612"
         transform="matrix(0.35277777,0,0,-0.35277777,73.062696,91.762168)">
        <path
           d="M 0,0 C 0,0 -0.383,-2.593 -0.935,-4.723 -1.224,-5.828 -1.56,-6.814 -1.91,-7.24 c -1.022,-1.249 -2.315,0.538 -2.763,1.004 -0.451,0.469 -1.097,-1.311 -1.65,-1.076 -0.552,0.231 -1.079,1.318 -1.524,2.589 -0.736,2.105 -1.245,4.705 -1.245,4.705 z"
           style="fill:#b4b5b0;fill-opacity:1;fill-rule:nonzero;stroke:none"
           id="path6614" />
      </g>
      <g
         id="g6616"
         transform="matrix(0.35277777,0,0,-0.35277777,72.730838,93.426256)">
        <path
           d="m 0,0 c -0.288,-1.111 -0.617,-2.098 -0.973,-2.523 -0.412,-0.507 -1.193,-0.686 -2.002,-0.699 -1.193,-0.041 -2.455,0.26 -2.784,0.411 -0.137,0.055 -0.247,0.165 -0.356,0.343 0.013,0.014 0,0.014 0,0.027 -0.302,0.521 -0.453,1.495 -0.796,2.441 0,0 4.964,-0.85 6.911,0"
           style="fill:#210f0a;fill-opacity:1;fill-rule:nonzero;stroke:none"
           id="path6618" />
      </g>
      <g
         id="g6620"
         transform="matrix(0.35277777,0,0,-0.35277777,81.523753,84.50366)">
        <path
           d="m 0,0 c 0,0 9.073,1.026 9.479,-9.615 l -0.361,0.057 c 0,0 -0.271,9.253 -8.757,8.531 C -8.125,-1.749 0,0 0,0"
           style="fill:#b4b5b0;fill-opacity:1;fill-rule:nonzero;stroke:none"
           id="path6622" />
      </g>
      <g
         id="g6624"
         transform="matrix(0.35277777,0,0,-0.35277777,85.415104,88.521234)">
        <path
           d="m 0,0 c -0.139,-1.354 -0.948,-2.625 -2.115,-3.328 0.395,0.716 -2.05,3.062 -0.742,4.971 0.154,0.224 0.548,0.565 0.818,0.627 0.473,0.113 0.984,0.048 1.371,-0.244 C -0.077,1.574 0.081,0.738 0,0"
           style="fill:#210f0a;fill-opacity:1;fill-rule:nonzero;stroke:none"
           id="path6626" />
      </g>
      <g
         id="g6628"
         transform="matrix(0.35277777,0,0,-0.35277777,68.556348,94.040619)">
        <path
           d="m 0,0 c -0.494,0.014 -0.974,0.137 -1.33,0.452 -0.315,0.275 -0.466,0.837 -0.549,1.399 0.069,0.343 0.192,0.645 0.371,0.658 0.411,0.055 0.644,-1.234 0.644,-1.234 0,0 0.069,1.015 0.384,0.96 C -0.22,2.208 -0.055,0.672 0,0"
           style="fill:#635e5c;fill-opacity:1;fill-rule:nonzero;stroke:none"
           id="path6630" />
      </g>
      <g
         id="g6632"
         transform="matrix(0.35277777,0,0,-0.35277777,71.681148,94.563047)">
        <path
           d="m 0,0 c -1.193,-0.041 -2.454,0.261 -2.783,0.411 -0.138,0.055 -0.247,0.165 -0.357,0.343 0.014,0.014 0,0.014 0,0.028 -0.123,0.576 -0.343,1.714 0.082,1.755 0.562,0.055 0.988,-1.413 0.988,-1.413 0,0 0.068,1.427 0.644,1.344 0.535,-0.082 0.548,-1.302 0.548,-1.412 0.014,0.164 0.138,1.508 0.563,1.371 C 0.096,2.29 0.151,1.138 0,0"
           style="fill:#635e5c;fill-opacity:1;fill-rule:nonzero;stroke:none"
           id="path6634" />
      </g>
      <g
         id="g6636"
         transform="matrix(0.35277777,0,0,-0.35277777,78.288816,93.958386)">
        <path
           d="m 0,0 c -0.018,-0.195 -0.165,-0.768 -0.165,-0.768 -0.877,0.014 -1.645,0.11 -1.892,0.233 -0.329,0.151 -0.576,0.796 -0.809,1.536 0.096,0.357 0.233,0.631 0.48,0.644 0.782,0.042 1.056,-1.7 1.056,-1.7 0,0 -0.151,1.728 0.562,1.632 C -0.041,1.481 0.04,0.437 0,0"
           style="fill:#635e5c;fill-opacity:1;fill-rule:nonzero;stroke:none"
           id="path6638" />
      </g>
      <g
         id="g6640"
         transform="matrix(0.35277777,0,0,-0.35277777,81.858645,94.500182)">
        <path
           d="m 0,0 c -1.124,-0.315 -2.578,-0.164 -2.975,-0.11 -0.288,0.041 -0.343,0.041 -0.604,0.727 -0.096,0.658 -0.151,1.563 0.206,1.659 0.576,0.165 1.097,-1.522 1.097,-1.522 0,0 -0.302,1.604 0.37,1.659 0.672,0.041 0.795,-1.467 0.795,-1.467 0,0 -0.096,1.632 0.754,1.467 C 0.192,2.304 0.123,0.946 0,0"
           style="fill:#635e5c;fill-opacity:1;fill-rule:nonzero;stroke:none"
           id="path6642" />
      </g>
      <g
         id="g6644"
         transform="matrix(0.35277777,0,0,-0.35277777,58.998575,88.540708)">
        <path
           d="m 0,0 c 0,0 0.201,0.06 0.473,0.182 0.268,0.129 0.62,0.301 0.934,0.535 0.166,0.104 0.325,0.22 0.469,0.336 0.142,0.119 0.288,0.218 0.4,0.32 0.233,0.192 0.402,0.32 0.402,0.32 0,0 -0.081,-0.195 -0.261,-0.451 C 2.245,0.978 1.942,0.681 1.599,0.433 1.245,0.201 0.842,0.043 0.526,-0.002 0.21,-0.051 0,0 0,0"
           style="fill:#8c8c8c;fill-opacity:1;fill-rule:nonzero;stroke:none"
           id="path6646" />
      </g>
      <g
         id="g6648"
         transform="matrix(0.35277777,0,0,-0.35277777,59.814867,89.568596)">
        <path
           d="m 0,0 c 0,0 0.213,0.032 0.466,0.187 0.255,0.145 0.556,0.399 0.813,0.698 0.276,0.284 0.51,0.614 0.705,0.853 0.186,0.245 0.33,0.404 0.33,0.404 0,0 -0.045,-0.207 -0.163,-0.502 C 2.032,1.347 1.814,0.98 1.532,0.654 1.38,0.501 1.219,0.355 1.047,0.242 0.88,0.123 0.695,0.055 0.538,0.009 0.215,-0.083 0,0 0,0"
           style="fill:#8c8c8c;fill-opacity:1;fill-rule:nonzero;stroke:none"
           id="path6650" />
      </g>
      <g
         id="g6652"
         transform="matrix(0.35277777,0,0,-0.35277777,61.160186,90.490722)">
        <path
           d="m 0,0 c 0,0 0.171,0.193 0.358,0.509 0.18,0.32 0.396,0.756 0.509,1.228 0.071,0.231 0.125,0.469 0.161,0.695 0.034,0.226 0.08,0.439 0.093,0.625 0.045,0.37 0.079,0.627 0.079,0.627 0,0 0.076,-0.246 0.114,-0.63 C 1.365,2.671 1.324,2.15 1.196,1.643 1.05,1.141 0.781,0.677 0.511,0.394 0.241,0.106 0,0 0,0"
           style="fill:#8c8c8c;fill-opacity:1;fill-rule:nonzero;stroke:none"
           id="path6654" />
      </g>
      <g
         id="g6656"
         transform="matrix(0.35277777,0,0,-0.35277777,62.913703,90.838384)">
        <path
           d="M 0,0 C 0,0 0.107,0.287 0.193,0.721 0.276,1.156 0.349,1.739 0.322,2.323 0.318,2.615 0.296,2.907 0.26,3.181 0.216,3.453 0.194,3.712 0.142,3.93 0.061,4.369 0,4.669 0,4.669 0,4.669 0.163,4.41 0.328,3.982 0.505,3.557 0.636,2.95 0.664,2.331 0.659,2.022 0.641,1.713 0.591,1.427 0.551,1.139 0.453,0.883 0.377,0.666 0.205,0.234 0,0 0,0"
           style="fill:#8c8c8c;fill-opacity:1;fill-rule:nonzero;stroke:none"
           id="path6658" />
      </g>
      <g
         id="g6660"
         transform="matrix(0.35277777,0,0,-0.35277777,64.017192,88.540708)">
        <path
           d="M 0,0 C 0,0 0.328,-0.084 0.761,-0.347 1.199,-0.599 1.723,-1.048 2.116,-1.609 2.309,-1.891 2.46,-2.201 2.576,-2.498 2.69,-2.796 2.751,-3.091 2.779,-3.342 2.822,-3.592 2.803,-3.804 2.799,-3.95 2.79,-4.096 2.785,-4.179 2.785,-4.179 c 0,0 -0.019,0.082 -0.052,0.224 C 2.709,-3.813 2.661,-3.614 2.59,-3.381 2.536,-3.144 2.418,-2.885 2.301,-2.612 2.18,-2.339 2.026,-2.058 1.835,-1.804 1.666,-1.534 1.454,-1.293 1.25,-1.072 1.035,-0.863 0.842,-0.653 0.649,-0.503 0.28,-0.184 0,0 0,0"
           style="fill:#8c8c8c;fill-opacity:1;fill-rule:nonzero;stroke:none"
           id="path6662" />
      </g>
      <g
         id="g6664"
         transform="matrix(0.35277777,0,0,-0.35277777,64.999748,86.832558)">
        <path
           d="m 0,0 c 0,0 0.499,-0.086 1.209,-0.358 0.348,-0.147 0.762,-0.314 1.17,-0.561 0.416,-0.235 0.828,-0.54 1.222,-0.868 0.374,-0.351 0.716,-0.74 0.975,-1.148 0.12,-0.21 0.256,-0.403 0.322,-0.617 0.071,-0.21 0.174,-0.394 0.202,-0.587 0.098,-0.374 0.123,-0.691 0.114,-0.914 0,-0.22 0,-0.346 0,-0.346 0,0 -0.024,0.123 -0.066,0.34 C 5.127,-4.952 5.11,-4.821 5.076,-4.675 5.029,-4.533 4.975,-4.372 4.916,-4.197 4.874,-4.018 4.756,-3.85 4.672,-3.659 4.593,-3.465 4.442,-3.297 4.329,-3.1 4.074,-2.723 3.737,-2.366 3.372,-2.042 2.647,-1.384 1.787,-0.881 1.129,-0.533 0.467,-0.191 0,0 0,0"
           style="fill:#8c8c8c;fill-opacity:1;fill-rule:nonzero;stroke:none"
           id="path6666" />
      </g>
      <g
         id="g6668"
         transform="matrix(0.35277777,0,0,-0.35277777,65.919405,85.396505)">
        <path
           d="m 0,0 c 0,0 0.572,0.002 1.42,-0.133 0.848,-0.128 1.967,-0.422 3.01,-0.929 0.262,-0.123 0.507,-0.279 0.747,-0.433 0.25,-0.14 0.454,-0.343 0.673,-0.504 0.209,-0.177 0.375,-0.388 0.546,-0.569 0.138,-0.21 0.269,-0.408 0.389,-0.591 0.09,-0.2 0.159,-0.388 0.222,-0.552 0.075,-0.16 0.068,-0.323 0.099,-0.443 0.036,-0.247 0.057,-0.388 0.057,-0.388 0,0 -0.045,0.135 -0.122,0.372 -0.047,0.114 -0.058,0.268 -0.153,0.413 -0.08,0.149 -0.17,0.317 -0.269,0.5 -0.128,0.163 -0.266,0.34 -0.413,0.527 -0.179,0.158 -0.351,0.338 -0.549,0.504 -0.213,0.148 -0.408,0.334 -0.652,0.461 -0.234,0.142 -0.472,0.284 -0.728,0.397 -0.49,0.264 -1.019,0.458 -1.514,0.632 -0.501,0.162 -0.97,0.315 -1.382,0.415 C 0.561,-0.107 0,0 0,0"
           style="fill:#8c8c8c;fill-opacity:1;fill-rule:nonzero;stroke:none"
           id="path6670" />
      </g>
      <g
         id="g6672"
         transform="matrix(0.35277777,0,0,-0.35277777,69.113349,87.093613)">
        <path
           d="m 0,0 c 0.613,0.063 1.417,-0.014 2.238,-0.548 0.531,-0.345 0.721,-1.035 0.51,-1.632 -0.849,-2.41 -3.462,-8.725 -7.902,-10.04 0,0 -2.107,-0.687 -1.607,0.612 0.482,1.25 3.884,3.296 5.486,10.462 C -1.137,-0.529 -0.629,-0.065 0,0"
           style="fill:#fffffc;fill-opacity:1;fill-rule:nonzero;stroke:none"
           id="path6674" />
      </g>
      <g
         id="g6676"
         transform="matrix(0.35277777,0,0,-0.35277777,77.474464,83.260788)">
        <path
           d="m 0,0 c 0.936,-0.137 1.861,-0.131 2.747,-0.507 0.229,-0.097 0.45,0.151 0.272,0.354 C 2.309,0.661 0.933,0.383 0,0.232 -0.114,0.214 -0.116,0.017 0,0"
           style="fill:#a5a5a5;fill-opacity:1;fill-rule:nonzero;stroke:none"
           id="path6678" />
      </g>
      <g
         id="g6680"
         transform="matrix(0.35277777,0,0,-0.35277777,78.893372,83.605382)">
        <path
           d="M 0,0 C 0.242,-0.147 0.52,-0.204 0.782,-0.314 1.095,-0.445 1.36,-0.592 1.698,-0.646 1.916,-0.681 2.063,-0.402 1.855,-0.274 1.366,0.026 0.565,0.388 0,0.13 -0.053,0.105 -0.044,0.027 0,0"
           style="fill:#a5a5a5;fill-opacity:1;fill-rule:nonzero;stroke:none"
           id="path6682" />
      </g>
      <g
         id="g6684"
         transform="matrix(0.35277777,0,0,-0.35277777,79.898682,84.04586)">
        <path
           d="M 0,0 C 0.353,-0.206 0.723,-0.379 1.074,-0.589 1.485,-0.837 1.676,-1.177 2.003,-1.499 2.13,-1.623 2.395,-1.54 2.378,-1.343 2.296,-0.358 0.847,0.204 0.008,0.059 -0.02,0.054 -0.022,0.013 0,0"
           style="fill:#a5a5a5;fill-opacity:1;fill-rule:nonzero;stroke:none"
           id="path6686" />
      </g>
      <g
         id="g6688"
         transform="matrix(0.35277777,0,0,-0.35277777,80.828252,84.71455)">
        <path
           d="M 0,0 C 0.245,-0.296 0.575,-0.491 0.809,-0.806 1.037,-1.113 1.174,-1.476 1.402,-1.78 1.52,-1.937 1.782,-1.896 1.787,-1.676 1.802,-0.966 0.861,0.412 0.024,0.09 -0.016,0.074 -0.027,0.033 0,0"
           style="fill:#a5a5a5;fill-opacity:1;fill-rule:nonzero;stroke:none"
           id="path6690" />
      </g>
      <g
         id="g6692"
         transform="matrix(0.35277777,0,0,-0.35277777,81.675377,85.611664)">
        <path
           d="m 0,0 c 0.188,-0.539 0.472,-1.318 0.863,-1.734 0.12,-0.127 0.303,0.008 0.273,0.159 C 1.022,-0.986 0.623,-0.218 0.055,0.042 0.028,0.055 -0.012,0.034 0,0"
           style="fill:#a5a5a5;fill-opacity:1;fill-rule:nonzero;stroke:none"
           id="path6694" />
      </g>
      <g
         id="g6696"
         transform="matrix(0.35277777,0,0,-0.35277777,81.159969,85.850036)">
        <path
           d="m 0,0 c -0.011,-0.358 0.228,-0.655 0.394,-0.956 0.235,-0.427 0.33,-0.843 0.444,-1.312 0.039,-0.158 0.238,-0.126 0.289,0 C 1.306,-1.83 1.14,-1.384 0.92,-0.99 0.721,-0.632 0.429,-0.167 0.06,0.035 0.033,0.05 0.001,0.031 0,0"
           style="fill:#a5a5a5;fill-opacity:1;fill-rule:nonzero;stroke:none"
           id="path6698" />
      </g>
      <g
         id="g6700"
         transform="matrix(0.35277777,0,0,-0.35277777,81.803612,86.81894)">
        <path
           d="m 0,0 c 0.121,-0.548 0.259,-1.185 0.504,-1.689 0.061,-0.123 0.232,-0.052 0.24,0.065 0.041,0.601 -0.298,1.228 -0.717,1.64 C 0.015,0.027 -0.003,0.015 0,0"
           style="fill:#a5a5a5;fill-opacity:1;fill-rule:nonzero;stroke:none"
           id="path6702" />
      </g>
      <g
         id="g6704"
         transform="matrix(0.35277777,0,0,-0.35277777,82.266315,87.270919)">
        <path
           d="m 0,0 c -0.022,-0.743 0.167,-1.419 0.45,-2.095 0.057,-0.137 0.293,-0.14 0.284,0.038 -0.036,0.726 -0.195,1.405 -0.418,2.1 C 0.26,0.215 0.006,0.184 0,0"
           style="fill:#a5a5a5;fill-opacity:1;fill-rule:nonzero;stroke:none"
           id="path6706" />
      </g>
      <g
         id="g6708"
         transform="matrix(0.35277777,0,0,-0.35277777,81.904471,88.480241)">
        <path
           d="M 0,0 C -0.023,-0.19 0.069,-0.393 0.097,-0.581 0.131,-0.819 0.137,-1.059 0.13,-1.298 0.119,-1.717 -0.065,-2.224 0.029,-2.63 0.066,-2.787 0.292,-2.853 0.401,-2.728 0.778,-2.294 0.94,0.019 0.072,0.072 0.03,0.075 0.005,0.037 0,0"
           style="fill:#a5a5a5;fill-opacity:1;fill-rule:nonzero;stroke:none"
           id="path6710" />
      </g>
      <g
         id="g6712"
         transform="matrix(0.35277777,0,0,-0.35277777,82.413071,88.994874)">
        <path
           d="M 0,0 C 0.23,-0.211 0.161,-0.859 0.139,-1.14 0.114,-1.465 0.053,-1.774 0.005,-2.094 -0.018,-2.247 0.169,-2.409 0.296,-2.264 0.579,-1.941 0.659,-1.427 0.617,-1.013 0.565,-0.495 0.375,-0.306 0.004,0.004 0.001,0.006 -0.003,0.002 0,0"
           style="fill:#a5a5a5;fill-opacity:1;fill-rule:nonzero;stroke:none"
           id="path6714" />
      </g>
      <g
         id="g6716"
         transform="matrix(0.35277777,0,0,-0.35277777,82.313905,90.382384)">
        <path
           d="M 0,0 C -0.271,-0.705 -0.202,-1.551 -0.033,-2.275 0,-2.416 0.226,-2.42 0.256,-2.275 0.41,-1.537 0.295,-0.707 0.052,0 0.043,0.026 0.009,0.025 0,0"
           style="fill:#a5a5a5;fill-opacity:1;fill-rule:nonzero;stroke:none"
           id="path6718" />
      </g>
      <g
         id="g6720"
         transform="matrix(0.35277777,0,0,-0.35277777,82.286423,91.92501)">
        <path
           d="m 0,0 c -0.135,-0.45 -0.185,-0.857 -0.101,-1.323 0.022,-0.118 0.217,-0.118 0.238,0 C 0.221,-0.855 0.171,-0.45 0.036,0 0.031,0.018 0.005,0.018 0,0"
           style="fill:#a5a5a5;fill-opacity:1;fill-rule:nonzero;stroke:none"
           id="path6722" />
      </g>
      <g
         id="g6724"
         transform="matrix(0.35277777,0,0,-0.35277777,68.736547,90.972828)">
        <path
           d="m 0,0 c 0.409,-0.08 0.825,-0.307 1.175,-0.526 0.34,-0.213 0.638,-0.531 0.997,-0.705 0.131,-0.063 0.316,0.043 0.263,0.203 C 2.168,-0.216 0.827,0.358 0.034,0.253 -0.095,0.235 -0.157,0.031 0,0"
           style="fill:#a5a5a5;fill-opacity:1;fill-rule:nonzero;stroke:none"
           id="path6726" />
      </g>
      <g
         id="g6728"
         transform="matrix(0.35277777,0,0,-0.35277777,73.069681,92.226918)">
        <path
           d="m 0,0 c 0.312,0.274 0.306,0.875 0.182,1.242 -0.058,0.171 -0.294,0.174 -0.351,0 C -0.279,0.907 -0.297,0.386 -0.188,0.05 -0.161,-0.034 -0.065,-0.057 0,0"
           style="fill:#a5a5a5;fill-opacity:1;fill-rule:nonzero;stroke:none"
           id="path6730" />
      </g>
      <g
         id="g6732"
         transform="matrix(0.35277777,0,0,-0.35277777,73.167436,91.536602)">
        <path
           d="M 0,0 C 0.225,0.356 0.389,0.731 0.274,1.154 0.236,1.292 0.048,1.253 0.037,1.122 0.005,0.75 0.048,0.384 -0.029,0.012 -0.033,-0.005 -0.01,-0.016 0,0"
           style="fill:#a5a5a5;fill-opacity:1;fill-rule:nonzero;stroke:none"
           id="path6734" />
      </g>
      <g
         id="g6736"
         transform="matrix(0.35277777,0,0,-0.35277777,78.651295,91.06896)">
        <path
           d="M 0,0 C 0.669,-0.263 1.633,-0.006 2.007,0.641 2.092,0.789 1.951,0.972 1.786,0.928 1.171,0.763 0.642,0.396 0,0.279 -0.156,0.251 -0.118,0.046 0,0"
           style="fill:#a5a5a5;fill-opacity:1;fill-rule:nonzero;stroke:none"
           id="path6738" />
      </g>
      <g
         id="g6740"
         transform="matrix(0.35277777,0,0,-0.35277777,79.571834,90.674942)">
        <path
           d="M 0,0 C 0.551,0.044 1.285,0.486 1.651,0.886 1.736,0.979 1.681,1.151 1.543,1.146 0.96,1.125 0.281,0.527 -0.044,0.077 -0.066,0.046 -0.037,-0.003 0,0"
           style="fill:#a5a5a5;fill-opacity:1;fill-rule:nonzero;stroke:none"
           id="path6742" />
      </g>
      <g
         id="g6744"
         transform="matrix(0.35277777,0,0,-0.35277777,73.285581,92.156292)">
        <path
           d="m 0,0 c 0.658,-0.282 1.584,-0.318 2.261,-0.091 0.14,0.046 0.14,0.237 0,0.284 C 1.603,0.413 0.717,0.417 0.038,0.289 -0.089,0.265 -0.124,0.053 0,0"
           style="fill:#a5a5a5;fill-opacity:1;fill-rule:nonzero;stroke:none"
           id="path6746" />
      </g>
      <g
         id="g6748"
         transform="matrix(0.35277777,0,0,-0.35277777,74.370831,92.172272)">
        <path
           d="M 0,0 C 1.024,-0.152 2.311,-0.404 3.27,0.103 3.44,0.193 3.357,0.457 3.174,0.458 2.139,0.464 1.027,0.172 0,0.021 -0.01,0.019 -0.01,0.002 0,0"
           style="fill:#a5a5a5;fill-opacity:1;fill-rule:nonzero;stroke:none"
           id="path6750" />
      </g>
      <g
         id="g6752"
         transform="matrix(0.35277777,0,0,-0.35277777,75.972407,92.023824)">
        <path
           d="M 0,0 C 0.691,-0.226 1.603,-0.179 2.23,0.22 2.361,0.303 2.316,0.531 2.147,0.524 1.438,0.497 0.691,0.198 0,0.036 -0.019,0.032 -0.017,0.005 0,0"
           style="fill:#a5a5a5;fill-opacity:1;fill-rule:nonzero;stroke:none"
           id="path6754" />
      </g>
      <g
         id="g6756"
         transform="matrix(0.35277777,0,0,-0.35277777,68.198455,92.222226)">
        <path
           d="M 0,0 C 0.143,0.458 0.131,1.02 -0.203,1.389 -0.295,1.491 -0.455,1.43 -0.494,1.312 -0.625,0.91 -0.586,0.407 -0.48,0 -0.417,-0.245 -0.071,-0.229 0,0"
           style="fill:#a5a5a5;fill-opacity:1;fill-rule:nonzero;stroke:none"
           id="path6758" />
      </g>
      <g
         id="g6760"
         transform="matrix(0.35277777,0,0,-0.35277777,67.569523,78.50351)">
        <path
           d="M 0,0 C 0.465,0.055 0.913,0.202 1.378,0.272 1.774,0.332 2.369,0.33 2.624,0.69 2.671,0.757 2.64,0.876 2.566,0.91 2.143,1.106 1.457,0.896 1.021,0.803 0.592,0.711 0.051,0.584 -0.083,0.108 -0.096,0.06 -0.056,-0.007 0,0"
           style="fill:#a5a5a5;fill-opacity:1;fill-rule:nonzero;stroke:none"
           id="path6762" />
      </g>
      <g
         id="g6764"
         transform="matrix(0.35277777,0,0,-0.35277777,68.899777,77.933809)">
        <path
           d="m 0,0 c 0.464,-0.015 0.93,-0.016 1.394,-0.028 0.432,-0.012 0.89,-0.08 1.308,0.048 0.164,0.049 0.162,0.279 0,0.33 C 1.921,0.595 0.696,0.441 -0.007,0.025 -0.018,0.018 -0.013,0 0,0"
           style="fill:#a5a5a5;fill-opacity:1;fill-rule:nonzero;stroke:none"
           id="path6766" />
      </g>
      <g
         id="g6768"
         transform="matrix(0.35277777,0,0,-0.35277777,69.470642,78.183681)">
        <path
           d="m 0,0 c 0.699,-0.157 1.488,-0.28 2.201,-0.139 0.174,0.034 0.174,0.317 0,0.351 C 1.487,0.352 0.7,0.229 0,0.072 -0.036,0.064 -0.036,0.008 0,0"
           style="fill:#a5a5a5;fill-opacity:1;fill-rule:nonzero;stroke:none"
           id="path6770" />
      </g>
      <g
         id="g6772"
         transform="matrix(0.35277777,0,0,-0.35277777,70.64899,78.005035)">
        <path
           d="M 0,0 C 0.655,-0.13 1.401,-0.648 2.069,-0.585 2.277,-0.566 2.33,-0.334 2.17,-0.211 1.595,0.231 0.67,0.272 0,0.088 -0.041,0.076 -0.045,0.009 0,0"
           style="fill:#a5a5a5;fill-opacity:1;fill-rule:nonzero;stroke:none"
           id="path6774" />
      </g>
      <g
         id="g6776"
         transform="matrix(0.35277777,0,0,-0.35277777,71.065162,78.453803)">
        <path
           d="M 0,0 C 0.318,-0.055 0.618,-0.16 0.909,-0.298 1.123,-0.4 1.31,-0.55 1.545,-0.592 1.637,-0.609 1.725,-0.517 1.672,-0.427 1.39,0.047 0.535,0.204 0.032,0.237 -0.102,0.246 -0.135,0.023 0,0"
           style="fill:#a5a5a5;fill-opacity:1;fill-rule:nonzero;stroke:none"
           id="path6778" />
      </g>
      <g
         id="g6780"
         transform="matrix(0.35277777,0,0,-0.35277777,72.095838,78.639117)">
        <path
           d="M 0,0 C 0.529,-0.232 0.876,-0.744 1.391,-0.97 1.539,-1.035 1.746,-0.891 1.636,-0.725 1.281,-0.188 0.646,0.076 0.024,0.09 -0.021,0.091 -0.045,0.02 0,0"
           style="fill:#a5a5a5;fill-opacity:1;fill-rule:nonzero;stroke:none"
           id="path6782" />
      </g>
      <g
         id="g6784"
         transform="matrix(0.35277777,0,0,-0.35277777,72.222944,79.112228)">
        <path
           d="M 0,0 C 0.673,-0.3 0.827,-0.856 1.2,-1.414 1.246,-1.483 1.377,-1.485 1.396,-1.388 1.533,-0.65 0.732,0.155 0.003,0.024 -0.008,0.023 -0.01,0.005 0,0"
           style="fill:#a5a5a5;fill-opacity:1;fill-rule:nonzero;stroke:none"
           id="path6786" />
      </g>
      <g
         id="g6788"
         transform="matrix(0.35277777,0,0,-0.35277777,73.059097,79.504658)">
        <path
           d="M 0,0 C 0.07,-0.292 0.383,-0.525 0.523,-0.79 0.711,-1.147 0.803,-1.533 0.894,-1.922 0.926,-2.06 1.156,-2.107 1.217,-1.965 1.426,-1.484 1.286,-0.932 1.005,-0.508 0.824,-0.234 0.392,0.277 0.017,0.042 0.003,0.033 -0.004,0.017 0,0"
           style="fill:#a5a5a5;fill-opacity:1;fill-rule:nonzero;stroke:none"
           id="path6790" />
      </g>
      <g
         id="g6792"
         transform="matrix(0.35277777,0,0,-0.35277777,73.725636,80.58952)">
        <path
           d="M 0,0 C -0.027,-0.435 0.395,-0.996 0.536,-1.404 0.711,-1.913 0.863,-2.42 1.105,-2.902 1.173,-3.038 1.376,-2.966 1.379,-2.828 1.396,-2.17 1.227,-1.544 0.978,-0.939 0.826,-0.569 0.586,0.078 0.118,0.118 0.052,0.123 0.004,0.059 0,0"
           style="fill:#a5a5a5;fill-opacity:1;fill-rule:nonzero;stroke:none"
           id="path6794" />
      </g>
      <g
         id="g6796"
         transform="matrix(0.35277777,0,0,-0.35277777,73.972333,82.200656)">
        <path
           d="m 0,0 c -0.188,-0.299 -0.157,-0.679 -0.181,-1.023 -0.029,-0.423 -0.071,-0.845 -0.122,-1.266 -0.019,-0.16 0.206,-0.187 0.28,-0.076 C 0.367,-1.778 0.612,-0.634 0.208,0 0.159,0.077 0.049,0.078 0,0"
           style="fill:#a5a5a5;fill-opacity:1;fill-rule:nonzero;stroke:none"
           id="path6798" />
      </g>
      <g
         id="g6800"
         transform="matrix(0.35277777,0,0,-0.35277777,73.852459,83.611273)">
        <path
           d="M 0,0 C -0.186,-0.634 -0.332,-1.295 -0.425,-1.948 -0.44,-2.05 -0.29,-2.143 -0.239,-2.027 0.046,-1.376 0.252,-0.702 0.031,0 0.026,0.015 0.005,0.016 0,0"
           style="fill:#a5a5a5;fill-opacity:1;fill-rule:nonzero;stroke:none"
           id="path6802" />
      </g>
    </g>
  </g>
</svg>
