<?xml version="1.0" encoding="UTF-8" standalone="no"?>
<!-- Created with Inkscape (http://www.inkscape.org/) -->

<svg
   width="24.259022mm"
   height="33.952469mm"
   viewBox="0 0 24.259022 33.952469"
   version="1.1"
   id="svg43081"
   inkscape:version="1.1-rc (52f87abb86, 2021-05-02)"
   sodipodi:docname="g-giraffe.svg"
   xmlns:inkscape="http://www.inkscape.org/namespaces/inkscape"
   xmlns:sodipodi="http://sodipodi.sourceforge.net/DTD/sodipodi-0.dtd"
   xmlns="http://www.w3.org/2000/svg"
   xmlns:svg="http://www.w3.org/2000/svg">
  <sodipodi:namedview
     id="namedview43083"
     pagecolor="#ffffff"
     bordercolor="#666666"
     borderopacity="1.0"
     objecttolerance="10.0"
     gridtolerance="10.0"
     guidetolerance="10.0"
     inkscape:pageshadow="2"
     inkscape:pageopacity="0.0"
     inkscape:pagecheckerboard="0"
     inkscape:document-units="mm"
     showgrid="false"
     fit-margin-top="0"
     fit-margin-left="0"
     fit-margin-right="0"
     fit-margin-bottom="0"
     inkscape:zoom="0.94875842"
     inkscape:cx="-85.374737"
     inkscape:cy="203.95076"
     inkscape:window-width="3840"
     inkscape:window-height="2066"
     inkscape:window-x="2869"
     inkscape:window-y="-11"
     inkscape:window-maximized="1"
     inkscape:current-layer="layer1" />
  <defs
     id="defs43078">
    <clipPath
       clipPathUnits="userSpaceOnUse"
       id="clipPath7614">
      <path
         d="m 639.931,471.397 c -0.948,-0.271 -2.421,-0.37 -3.022,-3.242 v 0 c -2.947,-14.091 -2.807,-55.043 5.354,-87.049 v 0 c 0,0 1.521,-0.316 1.953,0.247 v 0 c -1.012,2.473 -1.819,11.748 -2.22,19.218 v 0 c 9.045,-2.545 22.194,-2.011 25.347,-0.418 v 0 c 0.452,-4.353 1.395,-12.859 0.142,-17.548 v 0 l 1.84,-0.12 c 1.967,11.95 8.623,25.598 0.81,31.203 v 0 c -6.984,5.012 -15.463,2.341 -22.274,9.919 v 0 c -3.296,3.668 -6.16,10.513 -6.545,15.204 v 0 c -0.346,3.969 -1.106,20.094 0.694,21.083 v 0 c 1.821,0.999 4.088,0.805 5.883,0.612 v 0 c 1.322,-0.143 2.388,-0.285 2.827,0.051 v 0 c 1.036,0.789 2.814,2.321 2.272,3.295 v 0 c -1.454,2.618 -4.334,1.866 -6.258,5.506 v 0 c -0.393,0.742 -3.464,2.172 -5.736,2.172 v 0 c -0.384,0 -0.745,-0.04 -1.067,-0.133"
         id="path7612" />
    </clipPath>
    <clipPath
       clipPathUnits="userSpaceOnUse"
       id="clipPath7682">
      <path
         d="m 639.198,460.635 h 33.795 V 406.72 h -33.795 z"
         id="path7680" />
    </clipPath>
  </defs>
  <g
     inkscape:label="Layer 1"
     inkscape:groupmode="layer"
     id="layer1"
     transform="translate(-127.58598,-94.573061)">
    <g
       id="g24188"
       transform="translate(-7.1727059,34.647993)">
      <g
         id="g7520"
         transform="matrix(0.35277777,0,0,-0.35277777,153.34716,75.591259)">
        <path
           d="m 0,0 c 0.325,1.629 0.434,3.91 0.434,6.191 0,6.95 -1.846,14.226 -6.408,14.226 -4.995,0 -10.969,-15.964 -10.969,-30.3 0,-15.64 2.933,-24.546 8.363,-24.546 6.299,0 8.58,6.3 9.883,15.423 -3.041,0 -5.213,-0.217 -8.363,-0.76 l -2.28,10.751 c 8.58,0.543 16.508,1.412 24.762,2.39 0.326,-2.824 0.652,-8.689 0.652,-9.015 0,-11.403 -9.123,-30.518 -23.025,-30.518 -14.77,0 -24.871,11.729 -24.871,33.668 0,23.35 9.449,45.723 24.762,45.723 8.254,0 20.744,-5.865 20.744,-24.653 0,-2.932 -0.325,-6.191 -0.977,-9.666 z"
           style="fill:#ff9810;fill-opacity:1;fill-rule:nonzero;stroke:none"
           id="path7522" />
      </g>
      <g
         id="g7524"
         transform="matrix(0.35277777,0,0,-0.35277777,137.31154,61.835818)">
        <path
           d="M 0,0 C -0.419,0.943 -0.565,3.811 -0.23,5.416 L 1.1,5.322 C 0.785,3.495 0.877,1.612 1.238,-0.182"
           style="fill:#eaa815;fill-opacity:1;fill-rule:nonzero;stroke:none"
           id="path7526" />
      </g>
      <g
         id="g7528"
         transform="matrix(0.35277777,0,0,-0.35277777,137.17646,60.356868)">
        <path
           d="M 0,0 C 0.029,0.446 0.079,0.867 0.153,1.224 L 1.483,1.13 C 1.411,0.71 1.362,0.287 1.331,-0.138 0.889,-0.122 0.448,-0.091 0,0"
           style="fill:#7c4018;fill-opacity:1;fill-rule:nonzero;stroke:none"
           id="path7530" />
      </g>
      <g
         id="g7532"
         transform="matrix(0.35277777,0,0,-0.35277777,147.34263,81.97001)">
        <path
           d="m 0,0 c -6.985,5.011 -15.464,2.342 -22.274,9.918 -3.297,3.669 -6.161,10.514 -6.546,15.205 -0.346,3.969 -1.106,20.094 0.695,21.082 3.163,1.737 7.674,-0.126 8.71,0.664 1.035,0.79 2.813,2.321 2.272,3.295 -1.455,2.618 -4.334,1.866 -6.259,5.506 -0.459,0.868 -4.579,2.676 -6.802,2.04 -0.949,-0.272 -2.422,-0.372 -3.022,-3.243 -2.947,-14.091 -2.807,-55.043 5.353,-87.049 0,0 1.521,-0.316 1.954,0.248 -1.012,2.471 -1.819,11.747 -2.221,19.217 9.045,-2.545 22.195,-2.011 25.348,-0.418 0.451,-4.353 1.394,-12.859 0.141,-17.548 l 1.84,-0.121 C 1.156,-19.253 7.812,-5.605 0,0"
           style="fill:#f4c42c;fill-opacity:1;fill-rule:nonzero;stroke:none"
           id="path7534" />
      </g>
      <g
         id="g7536"
         transform="matrix(0.35277777,0,0,-0.35277777,140.29896,86.54081)">
        <path
           d="m 0,0 c 0.228,-3.212 1.192,-13.908 -1.76,-18.794 l -1.82,-0.041 c 1.971,4.777 0.755,16.626 -0.018,19.136"
           style="fill:#f4c42c;fill-opacity:1;fill-rule:nonzero;stroke:none"
           id="path7538" />
      </g>
      <g
         id="g7540"
         transform="matrix(0.35277777,0,0,-0.35277777,139.91574,93.465662)">
        <path
           d="M 0,0 C -0.023,0.407 -0.114,1.058 -0.481,1.348 -0.857,1.046 -2.027,1.007 -2.38,1.301 -2.764,0.988 -3.474,0.2 -3.383,-0.378 c 0.096,-0.145 0.417,-0.207 0.746,-0.267 -0.1,0.249 -0.14,0.805 0.429,1.05 -0.284,-0.327 -0.15,-0.693 0.035,-1.073 C -1.824,-0.754 -0.102,-0.509 0,0"
           style="fill:#7c4018;fill-opacity:1;fill-rule:nonzero;stroke:none"
           id="path7542" />
      </g>
      <g
         id="g7544"
         transform="matrix(0.35277777,0,0,-0.35277777,145.27098,86.273405)">
        <path
           d="m 0,0 c 0.228,-3.212 1.192,-13.907 -1.76,-18.794 l -1.82,-0.041 c 1.971,4.777 0.755,16.626 -0.018,19.136"
           style="fill:#f4c42c;fill-opacity:1;fill-rule:nonzero;stroke:none"
           id="path7546" />
      </g>
      <g
         id="g7548"
         transform="matrix(0.35277777,0,0,-0.35277777,144.88772,93.198256)">
        <path
           d="M 0,0 C -0.023,0.407 -0.114,1.058 -0.481,1.348 -0.857,1.046 -2.027,1.007 -2.379,1.301 -2.764,0.988 -3.474,0.2 -3.383,-0.378 c 0.096,-0.145 0.417,-0.207 0.746,-0.267 -0.1,0.249 -0.14,0.805 0.429,1.05 -0.284,-0.327 -0.15,-0.693 0.035,-1.072 C -1.824,-0.754 -0.102,-0.509 0,0"
           style="fill:#7c4018;fill-opacity:1;fill-rule:nonzero;stroke:none"
           id="path7550" />
      </g>
      <g
         id="g7552"
         transform="matrix(0.35277777,0,0,-0.35277777,147.26477,93.259816)">
        <path
           d="M 0,0 C -0.023,0.407 -0.114,1.057 -0.481,1.348 -0.857,1.046 -2.027,1.007 -2.379,1.301 -2.764,0.988 -3.474,0.2 -3.383,-0.378 c 0.096,-0.145 0.417,-0.207 0.746,-0.267 -0.1,0.249 -0.14,0.805 0.429,1.05 -0.284,-0.327 -0.15,-0.693 0.035,-1.073 C -1.824,-0.754 -0.102,-0.509 0,0"
           style="fill:#7c4018;fill-opacity:1;fill-rule:nonzero;stroke:none"
           id="path7554" />
      </g>
      <g
         id="g7556"
         transform="matrix(0.35277777,0,0,-0.35277777,135.56119,63.060769)">
        <path
           d="M 0,0 C 1.056,0.604 1.793,1.96 2.727,1.659 L 2.487,2.876 C 2.142,2.98 1.994,3.344 1.648,3.531 1.049,3.128 0.487,2.384 0.17,0.866 0.112,0.589 0.055,0.298 0,0"
           style="fill:#dda917;fill-opacity:1;fill-rule:nonzero;stroke:none"
           id="path7558" />
      </g>
      <g
         id="g7560"
         transform="matrix(0.35277777,0,0,-0.35277777,137.427,93.781186)">
        <path
           d="M 0,0 C -0.088,0.398 -0.175,1.049 0.1,1.428 0.544,1.238 1.681,1.515 1.942,1.893 2.397,1.695 3.292,1.127 3.36,0.546 3.306,0.38 3.014,0.234 2.713,0.088 2.743,0.355 2.632,0.901 2.018,0.984 2.379,0.745 2.349,0.356 2.273,-0.059 1.959,-0.235 0.235,-0.463 0,0"
           style="fill:#7c4018;fill-opacity:1;fill-rule:nonzero;stroke:none"
           id="path7562" />
      </g>
      <g
         id="g7564"
         transform="matrix(0.35277777,0,0,-0.35277777,150.21181,80.801398)">
        <path
           d="M 0,0 C 0.682,2.78 -1.209,5.369 -2.878,5.11 -4.392,4.875 -4.2,2.735 -4.149,1.789 c 0.331,-3.913 2.97,-8.25 -1.781,-8.847 l 0.685,-0.874 c 4.423,1.03 2.656,5.297 2.347,8.785 -0.045,0.843 -0.829,3.019 0.69,2.859 1.399,-0.166 2.08,-2.728 1.282,-4.81"
           style="fill:#f4c42c;fill-opacity:1;fill-rule:nonzero;stroke:none"
           id="path7566" />
      </g>
      <g
         id="g7568"
         transform="matrix(0.35277777,0,0,-0.35277777,150.23573,80.241893)">
        <path
           d="m 0,0 c 0.477,-0.643 0.47,-1.662 0.32,-2.421 -0.19,-0.393 -0.746,-0.634 -1.256,-0.66 0.002,0.006 0.003,0.011 0.005,0.016 0.045,0.138 0.092,0.284 0.139,0.431 0.034,0.148 0.068,0.295 0.1,0.434 0.035,0.138 0.054,0.268 0.071,0.38 0.035,0.223 0.059,0.371 0.059,0.371 0,0 -0.039,-0.145 -0.097,-0.364 C -0.688,-1.922 -0.719,-2.05 -0.768,-2.182 -0.814,-2.316 -0.862,-2.458 -0.91,-2.6 -0.97,-2.736 -1.03,-2.872 -1.086,-3 -1.099,-3.027 -1.109,-3.053 -1.12,-3.079 c -0.138,0.008 -0.271,0.029 -0.385,0.075 0.395,0.954 0.927,2.247 0.867,2.812 C -0.288,-0.304 0,0 0,0"
           style="fill:#7c4018;fill-opacity:1;fill-rule:nonzero;stroke:none"
           id="path7570" />
      </g>
      <g
         id="g7572"
         transform="matrix(0.35277777,0,0,-0.35277777,136.51175,61.996756)">
        <path
           d="m 0,0 c -0.793,0.237 -1.644,1.12 -2.291,0.695 -0.542,-0.307 -0.783,-1.177 -1.322,-1.54 -0.427,-0.357 -1.646,-1.148 -1.293,-1.307 2.187,-0.989 3.558,1.24 4.938,0.795"
           style="fill:#f4c42c;fill-opacity:1;fill-rule:nonzero;stroke:none"
           id="path7574" />
      </g>
      <g
         id="g7576"
         transform="matrix(0.35277777,0,0,-0.35277777,136.59628,61.89512)">
        <path
           d="M 0,0 1.251,-0.031 C 1.147,0.283 1.055,0.603 0.969,0.924 0.717,0.906 0.478,0.867 0.258,0.804 0.024,0.737 -0.242,0.681 -0.52,0.59 -0.348,0.33 -0.172,0.125 0,0"
           style="fill:#dda917;fill-opacity:1;fill-rule:nonzero;stroke:none"
           id="path7578" />
      </g>
      <g
         id="g7580"
         transform="matrix(0.35277777,0,0,-0.35277777,136.59628,61.89512)">
        <path
           d="M 0,0 C -0.53,0.885 -1.022,3.714 -0.883,5.349 L 0.448,5.416 C 0.357,3.564 0.676,1.707 1.251,-0.031"
           style="fill:#f4c42c;fill-opacity:1;fill-rule:nonzero;stroke:none"
           id="path7582" />
      </g>
      <g
         id="g7584"
         transform="matrix(0.35277777,0,0,-0.35277777,136.28333,60.443334)">
        <path
           d="M 0,0 C -0.025,0.447 -0.027,0.87 0.004,1.234 L 1.336,1.301 C 1.314,0.875 1.318,0.449 1.338,0.024 0.897,-0.014 0.456,-0.036 0,0"
           style="fill:#7c4018;fill-opacity:1;fill-rule:nonzero;stroke:none"
           id="path7586" />
      </g>
      <g
         id="g7588"
         transform="matrix(0.35277777,0,0,-0.35277777,140.88838,64.175758)">
        <path
           d="M 0,0 C -0.672,0.549 -0.171,1.619 0.79,1.416 1.722,1.237 1.707,-0.035 0.702,-0.064"
           style="fill:#f4c42c;fill-opacity:1;fill-rule:nonzero;stroke:none"
           id="path7590" />
      </g>
      <g
         id="g7592"
         transform="matrix(0.35277777,0,0,-0.35277777,141.13088,63.801567)">
        <path
           d="M 0,0 C -0.493,0.104 -0.602,-0.57 -0.405,-0.726 -0.209,-0.883 -0.086,-0.94 0.138,-0.809 0.507,-0.595 0.478,-0.092 0,0"
           style="fill:#7c4018;fill-opacity:1;fill-rule:nonzero;stroke:none"
           id="path7594" />
      </g>
      <g
         id="g7596"
         transform="matrix(0.35277777,0,0,-0.35277777,140.59604,65.050153)">
        <path
           d="M 0,0 C -0.491,-0.61 -1.092,0.071 -1.046,0.633 -1.033,0.791 -1.217,0.74 -1.228,0.606 -1.291,-0.173 -0.469,-0.89 0.126,-0.151 0.203,-0.054 0.099,0.123 0,0"
           style="fill:#9b4a31;fill-opacity:1;fill-rule:nonzero;stroke:none"
           id="path7598" />
      </g>
      <g
         id="g7600"
         transform="matrix(0.35277777,0,0,-0.35277777,138.45425,63.391886)">
        <path
           d="m 0,0 c -0.156,0.726 -0.742,1.26 -1.512,1.179 -0.86,-0.092 -1.358,-0.868 -1.466,-1.664 -0.04,-0.294 0.309,-0.375 0.349,-0.074 0.085,0.622 0.435,1.198 1.113,1.263 0.581,0.055 1.043,-0.318 1.164,-0.878 C -0.286,-0.483 0.052,-0.242 0,0"
           style="fill:#180200;fill-opacity:1;fill-rule:nonzero;stroke:none"
           id="path7602" />
      </g>
      <g
         id="g7604"
         transform="matrix(0.35277777,0,0,-0.35277777,137.73642,62.309493)">
        <path
           d="m 0,0 c -0.967,0.195 -2.067,-0.572 -2.48,-1.429 -0.178,-0.371 0.26,-0.724 0.465,-0.296 0.299,0.62 1.189,1.153 1.864,1.017 C 0.2,-0.779 0.351,-0.071 0,0"
           style="fill:#995b31;fill-opacity:1;fill-rule:nonzero;stroke:none"
           id="path7606" />
      </g>
      <g
         id="g7608"
         transform="matrix(0.35277777,0,0,-0.35277777,-89.066312,227.90994)">
        <g
           id="g7610"
           clip-path="url(#clipPath7614)">
          <g
             id="g7616"
             transform="translate(639.1202,446.093)">
            <path
               d="M 0,0 C -2.665,-6.918 6.176,-7.194 6.889,-3.494 7.424,-0.681 1.051,2.729 0,0"
               style="fill:#7c4018;fill-opacity:1;fill-rule:nonzero;stroke:none"
               id="path7618" />
          </g>
          <g
             id="g7620"
             transform="translate(643.7061,429.5023)">
            <path
               d="M 0,0 C -2.665,-6.918 6.176,-7.194 6.889,-3.494 7.424,-0.681 1.051,2.729 0,0"
               style="fill:#7c4018;fill-opacity:1;fill-rule:nonzero;stroke:none"
               id="path7622" />
          </g>
          <g
             id="g7624"
             transform="translate(634.0524,429.8471)">
            <path
               d="M 0,0 C -2.666,-6.918 6.176,-7.194 6.889,-3.494 7.424,-0.681 1.051,2.729 0,0"
               style="fill:#7c4018;fill-opacity:1;fill-rule:nonzero;stroke:none"
               id="path7626" />
          </g>
          <g
             id="g7628"
             transform="translate(639.361,460.0888)">
            <path
               d="M 0,0 C -2.923,-0.914 0.482,-4.554 1.911,-4.603 6.068,-4.505 2.923,0.914 0,0"
               style="fill:#7c4018;fill-opacity:1;fill-rule:nonzero;stroke:none"
               id="path7630" />
          </g>
          <g
             id="g7632"
             transform="translate(639.7984,437.4633)">
            <path
               d="M 0,0 C -4.21,2.435 -4.613,-2.623 -2.644,-4.224 -0.157,-7.556 2.651,-1.533 0,0"
               style="fill:#7c4018;fill-opacity:1;fill-rule:nonzero;stroke:none"
               id="path7634" />
          </g>
          <g
             id="g7636"
             transform="translate(639.8044,452.7162)">
            <path
               d="M 0,0 C -0.45,1.463 -1.628,4.021 -4.076,2.867 -6.523,1.713 -9.101,-1.554 -4.886,-2.164 -3.202,-2.352 0.583,-2.199 0,0"
               style="fill:#7c4018;fill-opacity:1;fill-rule:nonzero;stroke:none"
               id="path7638" />
          </g>
          <g
             id="g7640"
             transform="translate(644.1588,408.0099)">
            <path
               d="M 0,0 C -0.45,1.463 -2.688,4.521 -5.136,3.367 -7.583,2.213 -9.101,-1.554 -4.886,-2.164 -3.203,-2.352 0.583,-2.199 0,0"
               style="fill:#7c4018;fill-opacity:1;fill-rule:nonzero;stroke:none"
               id="path7642" />
          </g>
          <g
             id="g7644"
             transform="translate(670.2012,409.8597)">
            <path
               d="M 0,0 C -0.45,1.463 -2.688,4.521 -5.136,3.367 -7.583,2.213 -9.101,-1.554 -4.886,-2.164 -3.203,-2.352 0.583,-2.199 0,0"
               style="fill:#7c4018;fill-opacity:1;fill-rule:nonzero;stroke:none"
               id="path7646" />
          </g>
          <g
             id="g7648"
             transform="translate(644.6022,420.7999)">
            <path
               d="m 0,0 c -1.262,0.866 -3.381,1.967 -4.581,-0.459 -1.2,-2.425 -1.583,-6.415 2.098,-4.272 C -1.047,-3.833 1.824,-1.361 0,0"
               style="fill:#7c4018;fill-opacity:1;fill-rule:nonzero;stroke:none"
               id="path7650" />
          </g>
          <g
             id="g7652"
             transform="translate(654.6954,412.3332)">
            <path
               d="M 0,0 C -0.553,1.427 -1.681,3.531 -4.04,2.206 -6.4,0.882 -8.968,-2.196 -4.72,-2.505 -3.027,-2.573 0.738,-2.152 0,0"
               style="fill:#7c4018;fill-opacity:1;fill-rule:nonzero;stroke:none"
               id="path7654" />
          </g>
          <g
             id="g7656"
             transform="translate(659.7278,403.5439)">
            <path
               d="M 0,0 C -0.553,1.427 -2.869,3.936 -5.229,2.611 -7.588,1.286 -8.968,-2.196 -4.72,-2.505 -3.027,-2.573 0.738,-2.153 0,0"
               style="fill:#7c4018;fill-opacity:1;fill-rule:nonzero;stroke:none"
               id="path7658" />
          </g>
          <g
             id="g7660"
             transform="translate(667.0884,420.3086)">
            <path
               d="m 0,0 c -1.262,0.866 -3.381,1.967 -4.581,-0.459 -1.2,-2.425 -1.583,-6.414 2.098,-4.272 C -1.047,-3.833 1.824,-1.361 0,0"
               style="fill:#7c4018;fill-opacity:1;fill-rule:nonzero;stroke:none"
               id="path7662" />
          </g>
          <g
             id="g7664"
             transform="translate(633.3306,446.38)">
            <path
               d="m 0,0 c -0.525,1.82 3.326,1.601 3.717,-0.369 0.398,-2.111 -3.868,-4.758 -5.258,-2.7"
               style="fill:#7c4018;fill-opacity:1;fill-rule:nonzero;stroke:none"
               id="path7666" />
          </g>
        </g>
      </g>
      <g
         id="g7676"
         transform="matrix(0.35277777,0,0,-0.35277777,-89.066312,227.90994)">
        <g
           id="g7678" />
        <g
           id="g7982">
          <g
             clip-path="url(#clipPath7682)"
             opacity="0.300003"
             id="g7980">
            <g
               transform="translate(641.0672,459.7533)"
               id="g7686">
              <path
                 d="M 0,0 C 0.239,0.206 0.455,0.425 0.666,0.659 0.74,0.742 0.676,0.961 0.578,0.852 0.367,0.618 0.151,0.399 -0.088,0.193 -0.175,0.118 -0.114,-0.098 0,0"
                 style="fill:#a0470a;fill-opacity:1;fill-rule:nonzero;stroke:none"
                 id="path7684" />
            </g>
            <g
               transform="translate(640.6061,458.7605)"
               id="g7690">
              <path
                 d="m 0,0 c -0.128,-0.414 -0.179,-0.808 -0.093,-1.235 0.03,-0.155 0.2,-0.034 0.176,0.087 -0.077,0.387 -0.023,0.74 0.092,1.111 C 0.219,0.107 0.044,0.141 0,0"
                 style="fill:#a0470a;fill-opacity:1;fill-rule:nonzero;stroke:none"
                 id="path7688" />
            </g>
            <g
               transform="translate(639.8185,458.1154)"
               id="g7694">
              <path
                 d="M 0,0 C -0.03,-0.417 -0.085,-0.831 -0.11,-1.248 -0.12,-1.406 0.063,-1.356 0.071,-1.221 0.097,-0.804 0.152,-0.39 0.182,0.027 0.193,0.185 0.01,0.134 0,0"
                 style="fill:#a0470a;fill-opacity:1;fill-rule:nonzero;stroke:none"
                 id="path7692" />
            </g>
            <g
               transform="translate(640.319,456.2348)"
               id="g7698">
              <path
                 d="m 0,0 c -0.02,-0.311 -0.019,-0.623 -0.039,-0.934 -0.01,-0.158 0.174,-0.108 0.182,0.027 0.02,0.311 0.019,0.623 0.039,0.934 C 0.192,0.185 0.009,0.135 0,0"
                 style="fill:#a0470a;fill-opacity:1;fill-rule:nonzero;stroke:none"
                 id="path7696" />
            </g>
            <g
               transform="translate(640.4785,454.1902)"
               id="g7702">
              <path
                 d="m 0,0 c -0.055,-0.395 -0.056,-0.791 -0.074,-1.189 -0.007,-0.159 0.175,-0.109 0.181,0.027 0.017,0.376 0.015,0.751 0.068,1.125 C 0.195,0.11 0.021,0.15 0,0"
                 style="fill:#a0470a;fill-opacity:1;fill-rule:nonzero;stroke:none"
                 id="path7700" />
            </g>
            <g
               transform="translate(639.9037,454.8816)"
               id="g7706">
              <path
                 d="m 0,0 c 0.012,-0.43 -0.031,-0.858 -0.019,-1.287 0.004,-0.158 0.185,-0.111 0.181,0.026 -0.012,0.43 0.032,0.858 0.02,1.288 C 0.177,0.185 -0.004,0.137 0,0"
                 style="fill:#a0470a;fill-opacity:1;fill-rule:nonzero;stroke:none"
                 id="path7704" />
            </g>
            <g
               transform="translate(640.4445,452.249)"
               id="g7710">
              <path
                 d="M 0,0 C 0.008,-0.374 -0.042,-0.741 -0.073,-1.113 -0.086,-1.271 0.097,-1.22 0.109,-1.086 0.14,-0.714 0.19,-0.347 0.182,0.027 0.178,0.185 -0.003,0.137 0,0"
                 style="fill:#a0470a;fill-opacity:1;fill-rule:nonzero;stroke:none"
                 id="path7708" />
            </g>
            <g
               transform="translate(639.9999,452.2695)"
               id="g7714">
              <path
                 d="M 0,0 C 0.024,-0.442 0.048,-0.885 0.071,-1.327 0.08,-1.484 0.26,-1.438 0.253,-1.3 0.229,-0.858 0.206,-0.415 0.182,0.027 0.173,0.184 -0.007,0.138 0,0"
                 style="fill:#a0470a;fill-opacity:1;fill-rule:nonzero;stroke:none"
                 id="path7712" />
            </g>
            <g
               transform="translate(639.8677,449.7782)"
               id="g7718">
              <path
                 d="m 0,0 c -0.055,-0.517 -0.038,-1.036 -0.049,-1.555 -0.004,-0.159 0.178,-0.11 0.181,0.027 0.011,0.519 -0.005,1.038 0.05,1.555 C 0.199,0.185 0.014,0.133 0,0"
                 style="fill:#a0470a;fill-opacity:1;fill-rule:nonzero;stroke:none"
                 id="path7716" />
            </g>
            <g
               transform="translate(640.2396,450.2861)"
               id="g7722">
              <path
                 d="M 0,0 C 0.026,-0.487 0.052,-0.973 0.079,-1.46 0.087,-1.617 0.268,-1.57 0.26,-1.433 0.234,-0.946 0.208,-0.46 0.182,0.027 0.173,0.184 -0.007,0.138 0,0"
                 style="fill:#a0470a;fill-opacity:1;fill-rule:nonzero;stroke:none"
                 id="path7720" />
            </g>
            <g
               transform="translate(640.2929,448.4702)"
               id="g7726">
              <path
                 d="M 0,0 C 0.029,-0.546 0.055,-1.092 0.044,-1.639 0.041,-1.797 0.223,-1.748 0.226,-1.612 0.237,-1.065 0.211,-0.519 0.182,0.027 0.173,0.184 -0.007,0.138 0,0"
                 style="fill:#a0470a;fill-opacity:1;fill-rule:nonzero;stroke:none"
                 id="path7724" />
            </g>
            <g
               transform="translate(639.8754,447.1613)"
               id="g7730">
              <path
                 d="M 0,0 C 0.02,-0.369 0.04,-0.737 0.059,-1.106 0.068,-1.263 0.249,-1.217 0.241,-1.079 0.221,-0.71 0.202,-0.342 0.182,0.027 0.173,0.184 -0.007,0.138 0,0"
                 style="fill:#a0470a;fill-opacity:1;fill-rule:nonzero;stroke:none"
                 id="path7728" />
            </g>
            <g
               transform="translate(640.4033,445.5927)"
               id="g7734">
              <path
                 d="M 0,0 C 0.021,-0.398 0.043,-0.796 0.064,-1.194 0.073,-1.351 0.253,-1.305 0.246,-1.167 0.225,-0.769 0.203,-0.371 0.182,0.027 0.173,0.184 -0.007,0.138 0,0"
                 style="fill:#a0470a;fill-opacity:1;fill-rule:nonzero;stroke:none"
                 id="path7732" />
            </g>
            <g
               transform="translate(639.9572,444.8146)"
               id="g7738">
              <path
                 d="M 0,0 C 0.019,-0.354 0.038,-0.708 0.057,-1.062 0.066,-1.219 0.246,-1.172 0.239,-1.035 0.22,-0.681 0.201,-0.327 0.182,0.027 0.173,0.184 -0.007,0.138 0,0"
                 style="fill:#a0470a;fill-opacity:1;fill-rule:nonzero;stroke:none"
                 id="path7736" />
            </g>
            <g
               transform="translate(640.4086,443.02)"
               id="g7742">
              <path
                 d="M 0,0 0.074,-1.371 C 0.082,-1.528 0.263,-1.482 0.256,-1.344 0.231,-0.887 0.206,-0.43 0.182,0.027 0.173,0.184 -0.007,0.138 0,0"
                 style="fill:#a0470a;fill-opacity:1;fill-rule:nonzero;stroke:none"
                 id="path7740" />
            </g>
            <g
               transform="translate(639.8826,442.903)"
               id="g7746">
              <path
                 d="M 0,0 C 0.012,-0.221 0.024,-0.442 0.036,-0.663 0.044,-0.82 0.225,-0.774 0.217,-0.636 0.206,-0.415 0.194,-0.194 0.182,0.027 0.173,0.184 -0.007,0.138 0,0"
                 style="fill:#a0470a;fill-opacity:1;fill-rule:nonzero;stroke:none"
                 id="path7744" />
            </g>
            <g
               transform="translate(639.3712,444.162)"
               id="g7750">
              <path
                 d="M 0,0 C 0.014,-0.265 0.029,-0.531 0.043,-0.796 0.051,-0.953 0.232,-0.907 0.225,-0.769 0.21,-0.504 0.196,-0.238 0.182,0.027 0.173,0.184 -0.007,0.138 0,0"
                 style="fill:#a0470a;fill-opacity:1;fill-rule:nonzero;stroke:none"
                 id="path7748" />
            </g>
            <g
               transform="translate(639.1986,446.5482)"
               id="g7754">
              <path
                 d="M 0,0 C 0.013,-0.236 0.025,-0.472 0.038,-0.708 0.046,-0.865 0.227,-0.818 0.22,-0.681 0.207,-0.445 0.194,-0.209 0.182,0.027 0.173,0.184 -0.007,0.138 0,0"
                 style="fill:#a0470a;fill-opacity:1;fill-rule:nonzero;stroke:none"
                 id="path7752" />
            </g>
            <g
               transform="translate(639.6266,441.0846)"
               id="g7758">
              <path
                 d="M 0,0 C 0.046,-0.162 0.07,-0.329 0.07,-0.498 0.08,-0.655 0.26,-0.609 0.252,-0.471 0.24,-0.28 0.22,-0.101 0.176,0.087 0.14,0.241 -0.028,0.121 0,0"
                 style="fill:#a0470a;fill-opacity:1;fill-rule:nonzero;stroke:none"
                 id="path7756" />
            </g>
            <g
               transform="translate(640.3483,440.8431)"
               id="g7762">
              <path
                 d="M 0,0 C 0.029,-0.428 0.084,-0.853 0.113,-1.28 0.124,-1.437 0.304,-1.391 0.295,-1.253 0.266,-0.826 0.21,-0.401 0.182,0.027 0.171,0.184 -0.009,0.138 0,0"
                 style="fill:#a0470a;fill-opacity:1;fill-rule:nonzero;stroke:none"
                 id="path7760" />
            </g>
            <g
               transform="translate(640.1124,439.4553)"
               id="g7766">
              <path
                 d="M 0,0 C 0.027,-0.501 0.054,-1.003 0.081,-1.504 0.089,-1.661 0.27,-1.615 0.263,-1.477 0.236,-0.976 0.209,-0.474 0.182,0.027 0.173,0.184 -0.007,0.138 0,0"
                 style="fill:#a0470a;fill-opacity:1;fill-rule:nonzero;stroke:none"
                 id="path7764" />
            </g>
            <g
               transform="translate(640.7588,438.1592)"
               id="g7770">
              <path
                 d="M 0,0 C 0.024,-0.442 0.048,-0.885 0.071,-1.327 0.08,-1.484 0.26,-1.438 0.253,-1.3 0.229,-0.858 0.206,-0.415 0.182,0.027 0.173,0.184 -0.007,0.138 0,0"
                 style="fill:#a0470a;fill-opacity:1;fill-rule:nonzero;stroke:none"
                 id="path7768" />
            </g>
            <g
               transform="translate(640.0126,437.1875)"
               id="g7774">
              <path
                 d="M 0,0 C 0.004,-0.615 0.151,-1.199 0.319,-1.788 0.362,-1.939 0.529,-1.82 0.495,-1.7 0.333,-1.132 0.186,-0.568 0.182,0.027 0.181,0.185 -0.001,0.137 0,0"
                 style="fill:#a0470a;fill-opacity:1;fill-rule:nonzero;stroke:none"
                 id="path7772" />
            </g>
            <g
               transform="translate(641.0741,435.6174)"
               id="g7778">
              <path
                 d="m 0,0 c 0.078,-0.399 0.208,-0.784 0.285,-1.182 0.031,-0.155 0.2,-0.034 0.177,0.087 C 0.384,-0.697 0.254,-0.312 0.176,0.087 0.146,0.242 -0.024,0.121 0,0"
                 style="fill:#a0470a;fill-opacity:1;fill-rule:nonzero;stroke:none"
                 id="path7776" />
            </g>
            <g
               transform="translate(640.8078,433.9475)"
               id="g7782">
              <path
                 d="m 0,0 c 0.001,-0.441 0.138,-0.833 0.297,-1.239 0.054,-0.139 0.2,0.035 0.159,0.14 C 0.311,-0.728 0.183,-0.375 0.182,0.027 0.181,0.185 0,0.137 0,0"
                 style="fill:#a0470a;fill-opacity:1;fill-rule:nonzero;stroke:none"
                 id="path7780" />
            </g>
            <g
               transform="translate(641.505,433.3782)"
               id="g7786">
              <path
                 d="m 0,0 c 0.071,-0.352 0.17,-0.692 0.284,-1.032 0.048,-0.14 0.195,0.034 0.159,0.14 -0.108,0.323 -0.2,0.646 -0.267,0.979 C 0.145,0.242 -0.024,0.121 0,0"
                 style="fill:#a0470a;fill-opacity:1;fill-rule:nonzero;stroke:none"
                 id="path7784" />
            </g>
            <g
               transform="translate(641.4699,431.5575)"
               id="g7790">
              <path
                 d="M 0,0 C 0.085,-0.396 0.256,-0.747 0.422,-1.113 0.484,-1.25 0.628,-1.077 0.581,-0.973 0.423,-0.624 0.257,-0.291 0.176,0.087 0.143,0.241 -0.026,0.121 0,0"
                 style="fill:#a0470a;fill-opacity:1;fill-rule:nonzero;stroke:none"
                 id="path7788" />
            </g>
            <g
               transform="translate(642.443,431.6098)"
               id="g7794">
              <path
                 d="M 0,0 C 0.077,-0.311 0.21,-0.597 0.322,-0.897 0.373,-1.036 0.52,-0.863 0.481,-0.757 0.376,-0.475 0.249,-0.206 0.176,0.087 0.138,0.24 -0.03,0.121 0,0"
                 style="fill:#a0470a;fill-opacity:1;fill-rule:nonzero;stroke:none"
                 id="path7792" />
            </g>
            <g
               transform="translate(641.8912,433.6208)"
               id="g7798">
              <path
                 d="M 0,0 C 0.08,-0.415 0.245,-0.804 0.288,-1.227 0.304,-1.383 0.476,-1.259 0.464,-1.14 0.421,-0.717 0.256,-0.328 0.176,0.087 0.146,0.242 -0.023,0.121 0,0"
                 style="fill:#a0470a;fill-opacity:1;fill-rule:nonzero;stroke:none"
                 id="path7796" />
            </g>
            <g
               transform="translate(640.8249,439.4048)"
               id="g7802">
              <path
                 d="M 0,0 C -0.022,-0.224 -0.02,-0.441 -0.009,-0.666 -0.001,-0.823 0.18,-0.777 0.173,-0.639 0.162,-0.414 0.159,-0.197 0.182,0.027 0.198,0.185 0.013,0.133 0,0"
                 style="fill:#a0470a;fill-opacity:1;fill-rule:nonzero;stroke:none"
                 id="path7800" />
            </g>
            <g
               transform="translate(642.6614,430.0246)"
               id="g7806">
              <path
                 d="m 0,0 c 0.04,-0.331 0.161,-0.606 0.322,-0.897 0.072,-0.132 0.214,0.039 0.159,0.14 C 0.331,-0.486 0.214,-0.223 0.176,0.087 0.157,0.243 -0.015,0.12 0,0"
                 style="fill:#a0470a;fill-opacity:1;fill-rule:nonzero;stroke:none"
                 id="path7804" />
            </g>
            <g
               transform="translate(643.1755,429.6701)"
               id="g7810">
              <path
                 d="M 0,0 C 0.123,-0.36 0.298,-0.695 0.455,-1.04 0.517,-1.176 0.662,-1.004 0.614,-0.9 0.457,-0.554 0.282,-0.219 0.159,0.141 0.111,0.28 -0.036,0.107 0,0"
                 style="fill:#a0470a;fill-opacity:1;fill-rule:nonzero;stroke:none"
                 id="path7808" />
            </g>
            <g
               transform="translate(642.2267,428.5758)"
               id="g7814">
              <path
                 d="m 0,0 c 0.177,-0.231 0.359,-0.455 0.513,-0.704 0.079,-0.127 0.22,0.042 0.159,0.141 C 0.509,-0.3 0.32,-0.061 0.131,0.185 0.048,0.294 -0.068,0.089 0,0"
                 style="fill:#a0470a;fill-opacity:1;fill-rule:nonzero;stroke:none"
                 id="path7812" />
            </g>
            <g
               transform="translate(644.2286,426.8203)"
               id="g7818">
              <path
                 d="m 0,0 c 0.185,-0.297 0.351,-0.605 0.537,-0.903 0.07,-0.113 0.189,0.092 0.131,0.185 C 0.483,-0.42 0.317,-0.112 0.132,0.185 0.061,0.299 -0.058,0.093 0,0"
                 style="fill:#a0470a;fill-opacity:1;fill-rule:nonzero;stroke:none"
                 id="path7816" />
            </g>
            <g
               transform="translate(642.7908,426.7931)"
               id="g7822">
              <path
                 d="M 0,0 C 0.12,-0.607 0.583,-0.989 0.941,-1.463 1.024,-1.573 1.14,-1.368 1.073,-1.278 0.743,-0.841 0.287,-0.474 0.176,0.087 0.146,0.242 -0.024,0.121 0,0"
                 style="fill:#a0470a;fill-opacity:1;fill-rule:nonzero;stroke:none"
                 id="path7820" />
            </g>
            <g
               transform="translate(643.3886,427.2246)"
               id="g7826">
              <path
                 d="M 0,0 C 0.035,-0.286 0.129,-0.503 0.282,-0.745 0.353,-0.858 0.472,-0.653 0.413,-0.56 0.281,-0.349 0.206,-0.157 0.176,0.087 0.157,0.243 -0.015,0.12 0,0"
                 style="fill:#a0470a;fill-opacity:1;fill-rule:nonzero;stroke:none"
                 id="path7824" />
            </g>
            <g
               transform="translate(645.2223,425.4328)"
               id="g7830">
              <path
                 d="m 0,0 c 0.157,-0.298 0.344,-0.566 0.545,-0.836 0.082,-0.11 0.199,0.095 0.132,0.185 -0.19,0.254 -0.369,0.51 -0.518,0.792 C 0.089,0.273 -0.054,0.102 0,0"
                 style="fill:#a0470a;fill-opacity:1;fill-rule:nonzero;stroke:none"
                 id="path7828" />
            </g>
            <g
               transform="translate(644.709,424.9445)"
               id="g7834">
              <path
                 d="M 0,0 C 0.072,-0.438 0.418,-0.672 0.694,-0.989 0.785,-1.093 0.899,-0.888 0.825,-0.804 0.583,-0.526 0.24,-0.3 0.176,0.087 0.151,0.243 -0.02,0.121 0,0"
                 style="fill:#a0470a;fill-opacity:1;fill-rule:nonzero;stroke:none"
                 id="path7832" />
            </g>
            <g
               transform="translate(644.4047,423.5471)"
               id="g7838">
              <path
                 d="M 0,0 C 0.275,-0.288 0.551,-0.573 0.844,-0.842 0.946,-0.936 1.058,-0.733 0.975,-0.657 0.682,-0.388 0.406,-0.103 0.131,0.185 0.036,0.285 -0.078,0.081 0,0"
                 style="fill:#a0470a;fill-opacity:1;fill-rule:nonzero;stroke:none"
                 id="path7836" />
            </g>
            <g
               transform="translate(646.0788,423.527)"
               id="g7842">
              <path
                 d="m 0,0 c 0.213,-0.377 0.51,-0.693 0.723,-1.07 0.074,-0.131 0.216,0.04 0.159,0.141 -0.213,0.377 -0.51,0.693 -0.723,1.07 C 0.085,0.271 -0.057,0.101 0,0"
                 style="fill:#a0470a;fill-opacity:1;fill-rule:nonzero;stroke:none"
                 id="path7840" />
            </g>
            <g
               transform="translate(646.1036,422.2419)"
               id="g7846">
              <path
                 d="M 0,0 C 0.184,-0.362 0.452,-0.632 0.827,-0.794 0.945,-0.846 1.025,-0.621 0.922,-0.577 0.581,-0.429 0.329,-0.193 0.159,0.141 0.091,0.274 -0.052,0.103 0,0"
                 style="fill:#a0470a;fill-opacity:1;fill-rule:nonzero;stroke:none"
                 id="path7844" />
            </g>
            <g
               transform="translate(646.8265,423.0562)"
               id="g7850">
              <path
                 d="m 0,0 c 0.277,-0.321 0.581,-0.616 0.807,-0.977 0.071,-0.114 0.19,0.092 0.131,0.185 C 0.713,-0.431 0.409,-0.136 0.131,0.185 0.041,0.29 -0.073,0.085 0,0"
                 style="fill:#a0470a;fill-opacity:1;fill-rule:nonzero;stroke:none"
                 id="path7848" />
            </g>
            <g
               transform="translate(646.5426,420.9117)"
               id="g7854">
              <path
                 d="M 0,0 C 0.358,-0.354 0.695,-0.695 1.109,-0.986 1.212,-1.058 1.297,-0.834 1.204,-0.768 0.807,-0.488 0.475,-0.155 0.131,0.185 0.033,0.283 -0.08,0.079 0,0"
                 style="fill:#a0470a;fill-opacity:1;fill-rule:nonzero;stroke:none"
                 id="path7852" />
            </g>
            <g
               transform="translate(647.6332,421.0174)"
               id="g7858">
              <path
                 d="M 0,0 C 0.358,-0.354 0.695,-0.695 1.109,-0.986 1.212,-1.058 1.297,-0.834 1.204,-0.768 0.806,-0.488 0.475,-0.155 0.131,0.185 0.033,0.283 -0.08,0.079 0,0"
                 style="fill:#a0470a;fill-opacity:1;fill-rule:nonzero;stroke:none"
                 id="path7856" />
            </g>
            <g
               transform="translate(648.4104,421.8417)"
               id="g7862">
              <path
                 d="M 0,0 C 0.358,-0.354 0.695,-0.695 1.109,-0.986 1.212,-1.058 1.297,-0.834 1.204,-0.768 0.806,-0.488 0.475,-0.155 0.131,0.185 0.033,0.283 -0.08,0.079 0,0"
                 style="fill:#a0470a;fill-opacity:1;fill-rule:nonzero;stroke:none"
                 id="path7860" />
            </g>
            <g
               transform="translate(649.6983,419.8616)"
               id="g7866">
              <path
                 d="M 0,0 C 0.388,-0.306 0.757,-0.603 1.192,-0.841 1.305,-0.903 1.387,-0.678 1.287,-0.623 0.852,-0.385 0.483,-0.088 0.095,0.218 -0.003,0.295 -0.089,0.07 0,0"
                 style="fill:#a0470a;fill-opacity:1;fill-rule:nonzero;stroke:none"
                 id="path7864" />
            </g>
            <g
               transform="translate(650.2944,420.6081)"
               id="g7870">
              <path
                 d="M 0,0 C 0.388,-0.306 0.757,-0.603 1.192,-0.841 1.305,-0.903 1.387,-0.678 1.287,-0.624 0.852,-0.385 0.483,-0.088 0.095,0.218 -0.003,0.295 -0.089,0.07 0,0"
                 style="fill:#a0470a;fill-opacity:1;fill-rule:nonzero;stroke:none"
                 id="path7868" />
            </g>
            <g
               transform="translate(649.9612,418.7995)"
               id="g7874">
              <path
                 d="M 0,0 C 0.388,-0.306 0.757,-0.603 1.192,-0.841 1.305,-0.903 1.387,-0.678 1.287,-0.624 0.852,-0.385 0.483,-0.088 0.095,0.218 -0.003,0.295 -0.089,0.07 0,0"
                 style="fill:#a0470a;fill-opacity:1;fill-rule:nonzero;stroke:none"
                 id="path7872" />
            </g>
            <g
               transform="translate(651.9209,418.7234)"
               id="g7878">
              <path
                 d="M 0,0 C 0.429,-0.26 0.84,-0.513 1.309,-0.698 1.416,-0.741 1.47,-0.506 1.359,-0.462 0.905,-0.282 0.51,-0.034 0.095,0.218 -0.014,0.284 -0.098,0.059 0,0"
                 style="fill:#a0470a;fill-opacity:1;fill-rule:nonzero;stroke:none"
                 id="path7876" />
            </g>
            <g
               transform="translate(653.6942,418.3146)"
               id="g7882">
              <path
                 d="M 0,0 C 0.453,-0.217 0.884,-0.431 1.369,-0.57 1.483,-0.602 1.535,-0.367 1.42,-0.334 0.951,-0.199 0.532,0.008 0.095,0.218 -0.021,0.273 -0.102,0.049 0,0"
                 style="fill:#a0470a;fill-opacity:1;fill-rule:nonzero;stroke:none"
                 id="path7880" />
            </g>
            <g
               transform="translate(654.4519,417.3434)"
               id="g7886">
              <path
                 d="M 0,0 C 0.453,-0.217 0.885,-0.431 1.37,-0.57 1.483,-0.602 1.535,-0.367 1.42,-0.334 0.952,-0.199 0.532,0.008 0.095,0.218 -0.021,0.273 -0.102,0.049 0,0"
                 style="fill:#a0470a;fill-opacity:1;fill-rule:nonzero;stroke:none"
                 id="path7884" />
            </g>
            <g
               transform="translate(655.4619,418.0359)"
               id="g7890">
              <path
                 d="M 0,0 C 0.476,-0.134 0.93,-0.268 1.423,-0.322 1.542,-0.334 1.59,-0.098 1.474,-0.086 0.98,-0.032 0.525,0.102 0.05,0.236 -0.063,0.268 -0.115,0.033 0,0"
                 style="fill:#a0470a;fill-opacity:1;fill-rule:nonzero;stroke:none"
                 id="path7888" />
            </g>
            <g
               transform="translate(652.1622,419.3329)"
               id="g7894">
              <path
                 d="M 0,0 C 0.476,-0.134 0.93,-0.268 1.423,-0.322 1.542,-0.334 1.59,-0.098 1.473,-0.086 0.98,-0.032 0.525,0.102 0.05,0.236 -0.063,0.268 -0.115,0.033 0,0"
                 style="fill:#a0470a;fill-opacity:1;fill-rule:nonzero;stroke:none"
                 id="path7892" />
            </g>
            <g
               transform="translate(657.2972,417.1595)"
               id="g7898">
              <path
                 d="m 0,0 c 0.303,-0.114 0.603,-0.237 0.906,-0.35 0.108,-0.041 0.163,0.193 0.05,0.236 C 0.653,-0.001 0.353,0.122 0.05,0.236 -0.058,0.277 -0.112,0.042 0,0"
                 style="fill:#a0470a;fill-opacity:1;fill-rule:nonzero;stroke:none"
                 id="path7896" />
            </g>
            <g
               transform="translate(658.6114,417.0631)"
               id="g7902">
              <path
                 d="m 0,0 c 0.505,-0.225 1.042,-0.356 1.56,-0.548 0.108,-0.04 0.162,0.195 0.05,0.237 C 1.107,-0.126 0.585,-0.001 0.095,0.218 -0.023,0.27 -0.103,0.046 0,0"
                 style="fill:#a0470a;fill-opacity:1;fill-rule:nonzero;stroke:none"
                 id="path7900" />
            </g>
            <g
               transform="translate(658.0739,415.9148)"
               id="g7906">
              <path
                 d="M 0,0 C 0.297,-0.078 0.591,-0.139 0.897,-0.174 1.016,-0.187 1.064,0.049 0.947,0.062 0.642,0.098 0.347,0.158 0.05,0.236 -0.064,0.266 -0.116,0.03 0,0"
                 style="fill:#a0470a;fill-opacity:1;fill-rule:nonzero;stroke:none"
                 id="path7904" />
            </g>
            <g
               transform="translate(659.7666,415.7841)"
               id="g7910">
              <path
                 d="m 0,0 c 0.385,-0.118 0.764,-0.213 1.167,-0.248 0.119,-0.01 0.166,0.226 0.05,0.236 C 0.814,0.023 0.435,0.118 0.05,0.236 -0.062,0.271 -0.115,0.035 0,0"
                 style="fill:#a0470a;fill-opacity:1;fill-rule:nonzero;stroke:none"
                 id="path7908" />
            </g>
            <g
               transform="translate(661.4875,416.3749)"
               id="g7914">
              <path
                 d="M 0,0 C 0.36,-0.173 0.73,-0.315 1.11,-0.439 1.221,-0.475 1.274,-0.24 1.16,-0.203 0.796,-0.084 0.44,0.051 0.095,0.218 -0.021,0.273 -0.102,0.049 0,0"
                 style="fill:#a0470a;fill-opacity:1;fill-rule:nonzero;stroke:none"
                 id="path7912" />
            </g>
            <g
               transform="translate(661.7319,415.5348)"
               id="g7918">
              <path
                 d="M 0,0 C 0.587,-0.187 1.178,-0.352 1.741,-0.606 1.858,-0.658 1.938,-0.434 1.836,-0.388 1.258,-0.128 0.653,0.044 0.05,0.236 -0.062,0.272 -0.114,0.036 0,0"
                 style="fill:#a0470a;fill-opacity:1;fill-rule:nonzero;stroke:none"
                 id="path7916" />
            </g>
            <g
               transform="translate(662.0986,414.4899)"
               id="g7922">
              <path
                 d="m 0,0 c 0.577,-0.141 1.155,-0.248 1.747,-0.305 0.119,-0.012 0.166,0.224 0.05,0.236 C 1.205,-0.012 0.627,0.095 0.05,0.236 -0.065,0.264 -0.116,0.028 0,0"
                 style="fill:#a0470a;fill-opacity:1;fill-rule:nonzero;stroke:none"
                 id="path7920" />
            </g>
            <g
               transform="translate(663.9679,415.6211)"
               id="g7926">
              <path
                 d="M 0,0 C 0.624,-0.277 1.231,-0.589 1.883,-0.796 1.995,-0.832 2.048,-0.597 1.934,-0.56 1.297,-0.358 0.704,-0.052 0.095,0.218 -0.023,0.27 -0.103,0.046 0,0"
                 style="fill:#a0470a;fill-opacity:1;fill-rule:nonzero;stroke:none"
                 id="path7924" />
            </g>
            <g
               transform="translate(665.187,414.4002)"
               id="g7930">
              <path
                 d="M 0,0 C 0.363,-0.158 0.727,-0.316 1.09,-0.474 1.208,-0.525 1.288,-0.301 1.185,-0.256 0.822,-0.098 0.458,0.06 0.095,0.218 -0.023,0.269 -0.103,0.045 0,0"
                 style="fill:#a0470a;fill-opacity:1;fill-rule:nonzero;stroke:none"
                 id="path7928" />
            </g>
            <g
               transform="translate(667.1998,414.4981)"
               id="g7934">
              <path
                 d="M 0,0 C 0.681,-0.234 1.319,-0.51 1.835,-1.027 1.933,-1.125 2.046,-0.922 1.966,-0.842 1.428,-0.303 0.761,-0.009 0.05,0.236 -0.06,0.274 -0.113,0.039 0,0"
                 style="fill:#a0470a;fill-opacity:1;fill-rule:nonzero;stroke:none"
                 id="path7932" />
            </g>
            <g
               transform="translate(667.6644,413.2809)"
               id="g7938">
              <path
                 d="m 0,0 c 0.595,-0.216 1.078,-0.611 1.483,-1.09 0.09,-0.106 0.204,0.099 0.132,0.185 C 1.186,-0.399 0.678,0.008 0.05,0.236 -0.059,0.276 -0.113,0.041 0,0"
                 style="fill:#a0470a;fill-opacity:1;fill-rule:nonzero;stroke:none"
                 id="path7936" />
            </g>
            <g
               transform="translate(666.6414,414.1575)"
               id="g7942">
              <path
                 d="m 0,0 c 0.39,-0.146 0.786,-0.279 1.176,-0.425 0.109,-0.04 0.163,0.194 0.05,0.236 C 0.836,-0.043 0.441,0.09 0.05,0.236 -0.058,0.277 -0.112,0.042 0,0"
                 style="fill:#a0470a;fill-opacity:1;fill-rule:nonzero;stroke:none"
                 id="path7940" />
            </g>
            <g
               transform="translate(669.4185,413.2526)"
               id="g7946">
              <path
                 d="M 0,0 C 0.292,-0.258 0.571,-0.497 0.781,-0.828 0.853,-0.941 0.972,-0.736 0.913,-0.643 0.696,-0.301 0.395,-0.048 0.095,0.218 0.003,0.299 -0.085,0.075 0,0"
                 style="fill:#a0470a;fill-opacity:1;fill-rule:nonzero;stroke:none"
                 id="path7944" />
            </g>
            <g
               transform="translate(669.5151,412.2818)"
               id="g7950">
              <path
                 d="M 0,0 C 0.288,-0.222 0.511,-0.44 0.677,-0.766 0.745,-0.9 0.888,-0.729 0.836,-0.626 0.658,-0.276 0.402,-0.019 0.095,0.218 -0.004,0.294 -0.09,0.07 0,0"
                 style="fill:#a0470a;fill-opacity:1;fill-rule:nonzero;stroke:none"
                 id="path7948" />
            </g>
            <g
               transform="translate(669.0745,411.0778)"
               id="g7954">
              <path
                 d="M 0,0 C 0.32,-0.298 0.584,-0.613 0.795,-0.999 0.867,-1.131 1.01,-0.96 0.954,-0.858 0.737,-0.461 0.463,-0.124 0.131,0.185 0.03,0.28 -0.082,0.077 0,0"
                 style="fill:#a0470a;fill-opacity:1;fill-rule:nonzero;stroke:none"
                 id="path7952" />
            </g>
            <g
               transform="translate(670.5089,410.8)"
               id="g7958">
              <path
                 d="M 0,0 C 0.275,-0.341 0.491,-0.692 0.617,-1.114 0.662,-1.265 0.829,-1.147 0.793,-1.027 0.657,-0.57 0.43,-0.185 0.131,0.185 0.045,0.292 -0.07,0.087 0,0"
                 style="fill:#a0470a;fill-opacity:1;fill-rule:nonzero;stroke:none"
                 id="path7956" />
            </g>
            <g
               transform="translate(670.8618,411.6619)"
               id="g7962">
              <path
                 d="M 0,0 C 0.336,-0.424 0.676,-0.834 0.859,-1.35 0.908,-1.49 1.055,-1.316 1.018,-1.21 0.828,-0.675 0.479,-0.254 0.131,0.185 0.046,0.293 -0.07,0.088 0,0"
                 style="fill:#a0470a;fill-opacity:1;fill-rule:nonzero;stroke:none"
                 id="path7960" />
            </g>
            <g
               transform="translate(672.399,409.9315)"
               id="g7966">
              <path
                 d="M 0,0 C 0.131,-0.636 0.358,-1.249 0.412,-1.9 0.424,-2.056 0.605,-2.01 0.593,-1.873 0.538,-1.201 0.312,-0.57 0.176,0.087 0.144,0.242 -0.025,0.121 0,0"
                 style="fill:#a0470a;fill-opacity:1;fill-rule:nonzero;stroke:none"
                 id="path7964" />
            </g>
            <g
               transform="translate(672.2469,408.637)"
               id="g7970">
              <path
                 d="M 0,0 C 0.084,-0.608 0.229,-1.205 0.274,-1.818 0.286,-1.975 0.466,-1.929 0.456,-1.791 0.409,-1.158 0.263,-0.541 0.176,0.087 0.154,0.243 -0.017,0.121 0,0"
                 style="fill:#a0470a;fill-opacity:1;fill-rule:nonzero;stroke:none"
                 id="path7968" />
            </g>
            <g
               transform="translate(671.2501,408.3343)"
               id="g7974">
              <path
                 d="M 0,0 C 0.181,-0.391 0.25,-0.786 0.279,-1.214 0.289,-1.371 0.47,-1.325 0.46,-1.187 0.429,-0.723 0.355,-0.283 0.159,0.141 0.096,0.277 -0.048,0.104 0,0"
                 style="fill:#a0470a;fill-opacity:1;fill-rule:nonzero;stroke:none"
                 id="path7972" />
            </g>
            <g
               transform="translate(670.6056,409.8292)"
               id="g7978">
              <path
                 d="M 0,0 C 0.22,-0.311 0.311,-0.631 0.344,-1.01 0.357,-1.166 0.538,-1.121 0.526,-0.983 0.488,-0.55 0.385,-0.173 0.131,0.185 0.053,0.296 -0.064,0.091 0,0"
                 style="fill:#a0470a;fill-opacity:1;fill-rule:nonzero;stroke:none"
                 id="path7976" />
            </g>
          </g>
        </g>
      </g>
      <g
         id="g7984"
         transform="matrix(0.35277777,0,0,-0.35277777,137.20725,61.815992)">
        <path
           d="m 0,0 c 0.474,0.041 0.899,-0.105 1.329,-0.287 0.118,-0.05 0.198,0.174 0.095,0.218 C 0.964,0.125 0.507,0.281 0.002,0.237 -0.111,0.228 -0.128,-0.011 0,0"
           style="fill:#f3d452;fill-opacity:1;fill-rule:nonzero;stroke:none"
           id="path7986" />
      </g>
      <g
         id="g7988"
         transform="matrix(0.35277777,0,0,-0.35277777,137.85697,61.896567)">
        <path
           d="M 0,0 C 0.288,-0.067 0.551,-0.138 0.817,-0.275 0.931,-0.334 1.012,-0.11 0.912,-0.057 0.635,0.085 0.353,0.165 0.05,0.236 -0.065,0.263 -0.116,0.027 0,0"
           style="fill:#f3d452;fill-opacity:1;fill-rule:nonzero;stroke:none"
           id="path7990" />
      </g>
      <g
         id="g7992"
         transform="matrix(0.35277777,0,0,-0.35277777,137.86945,62.128412)">
        <path
           d="M 0,0 C 0.307,-0.11 0.617,-0.211 0.923,-0.321 1.033,-0.36 1.087,-0.125 0.974,-0.085 0.667,0.025 0.357,0.126 0.05,0.236 -0.059,0.275 -0.113,0.04 0,0"
           style="fill:#f3d452;fill-opacity:1;fill-rule:nonzero;stroke:none"
           id="path7994" />
      </g>
      <g
         id="g7996"
         transform="matrix(0.35277777,0,0,-0.35277777,138.29938,62.159774)">
        <path
           d="M 0,0 C 0.255,-0.118 0.491,-0.255 0.723,-0.414 0.827,-0.486 0.911,-0.261 0.817,-0.196 0.586,-0.038 0.349,0.099 0.095,0.218 -0.022,0.272 -0.102,0.048 0,0"
           style="fill:#f3d452;fill-opacity:1;fill-rule:nonzero;stroke:none"
           id="path7998" />
      </g>
      <g
         id="g8000"
         transform="matrix(0.35277777,0,0,-0.35277777,138.64218,62.16429)">
        <path
           d="M 0,0 C 0.215,-0.195 0.41,-0.385 0.569,-0.628 0.643,-0.741 0.761,-0.536 0.701,-0.443 0.542,-0.2 0.346,-0.009 0.131,0.185 0.028,0.278 -0.083,0.075 0,0"
           style="fill:#f3d452;fill-opacity:1;fill-rule:nonzero;stroke:none"
           id="path8002" />
      </g>
      <g
         id="g8004"
         transform="matrix(0.35277777,0,0,-0.35277777,138.6262,62.563564)">
        <path
           d="m 0,0 c 0.368,-0.226 0.706,-0.483 1.03,-0.769 0.092,-0.08 0.18,0.143 0.095,0.218 C 0.801,-0.265 0.463,-0.008 0.095,0.218 -0.014,0.284 -0.097,0.06 0,0"
           style="fill:#f3d452;fill-opacity:1;fill-rule:nonzero;stroke:none"
           id="path8006" />
      </g>
      <g
         id="g8008"
         transform="matrix(0.35277777,0,0,-0.35277777,139.02106,62.725136)">
        <path
           d="M 0,0 C 0.252,-0.233 0.482,-0.479 0.699,-0.745 0.786,-0.852 0.902,-0.647 0.831,-0.56 0.613,-0.294 0.384,-0.048 0.131,0.185 0.029,0.279 -0.083,0.076 0,0"
           style="fill:#f3d452;fill-opacity:1;fill-rule:nonzero;stroke:none"
           id="path8010" />
      </g>
      <g
         id="g8012"
         transform="matrix(0.35277777,0,0,-0.35277777,139.31563,63.223999)">
        <path
           d="m 0,0 c 0.344,-0.27 0.688,-0.54 1.032,-0.809 0.098,-0.077 0.184,0.147 0.095,0.217 -0.344,0.27 -0.688,0.54 -1.032,0.81 C -0.003,0.295 -0.09,0.07 0,0"
           style="fill:#f3d452;fill-opacity:1;fill-rule:nonzero;stroke:none"
           id="path8014" />
      </g>
      <g
         id="g8016"
         transform="matrix(0.35277777,0,0,-0.35277777,139.64396,63.229255)">
        <path
           d="M 0,0 C 0.258,-0.323 0.604,-0.511 0.962,-0.707 1.074,-0.769 1.156,-0.544 1.056,-0.489 0.712,-0.301 0.382,-0.127 0.132,0.185 0.045,0.292 -0.07,0.087 0,0"
           style="fill:#f3d452;fill-opacity:1;fill-rule:nonzero;stroke:none"
           id="path8018" />
      </g>
      <g
         id="g8020"
         transform="matrix(0.35277777,0,0,-0.35277777,140.26358,63.685221)">
        <path
           d="M 0,0 C 0.232,-0.074 0.383,-0.141 0.554,-0.313 0.652,-0.412 0.765,-0.208 0.686,-0.128 0.501,0.058 0.299,0.157 0.05,0.236 -0.061,0.272 -0.114,0.037 0,0"
           style="fill:#f3d452;fill-opacity:1;fill-rule:nonzero;stroke:none"
           id="path8022" />
      </g>
      <g
         id="g8024"
         transform="matrix(0.35277777,0,0,-0.35277777,140.03487,63.755635)">
        <path
           d="M 0,0 C 0.357,-0.11 0.676,-0.276 0.992,-0.472 1.1,-0.539 1.184,-0.314 1.087,-0.254 0.756,-0.049 0.422,0.121 0.05,0.236 -0.062,0.271 -0.115,0.035 0,0"
           style="fill:#f3d452;fill-opacity:1;fill-rule:nonzero;stroke:none"
           id="path8026" />
      </g>
    </g>
  </g>
</svg>
