<?xml version="1.0" encoding="UTF-8" standalone="no"?>
<!-- Created with Inkscape (http://www.inkscape.org/) -->

<svg
   width="30.868759mm"
   height="28.79763mm"
   viewBox="0 0 30.868759 28.79763"
   version="1.1"
   id="svg44602"
   inkscape:version="1.1-rc (52f87abb86, 2021-05-02)"
   sodipodi:docname="h-horse.svg"
   xmlns:inkscape="http://www.inkscape.org/namespaces/inkscape"
   xmlns:sodipodi="http://sodipodi.sourceforge.net/DTD/sodipodi-0.dtd"
   xmlns="http://www.w3.org/2000/svg"
   xmlns:svg="http://www.w3.org/2000/svg">
  <sodipodi:namedview
     id="namedview44604"
     pagecolor="#ffffff"
     bordercolor="#666666"
     borderopacity="1.0"
     objecttolerance="10.0"
     gridtolerance="10.0"
     guidetolerance="10.0"
     inkscape:pageshadow="2"
     inkscape:pageopacity="0.0"
     inkscape:pagecheckerboard="0"
     inkscape:document-units="mm"
     showgrid="false"
     fit-margin-top="0"
     fit-margin-left="0"
     fit-margin-right="0"
     fit-margin-bottom="0"
     inkscape:zoom="0.94875842"
     inkscape:cx="170.74947"
     inkscape:cy="414.75258"
     inkscape:window-width="3840"
     inkscape:window-height="2066"
     inkscape:window-x="2869"
     inkscape:window-y="-11"
     inkscape:window-maximized="1"
     inkscape:current-layer="layer1" />
  <defs
     id="defs44599">
    <clipPath
       clipPathUnits="userSpaceOnUse"
       id="clipPath4496">
      <path
         d="m 122.74,296.771 h 12.905 V 281.716 H 122.74 Z"
         id="path4494" />
    </clipPath>
    <clipPath
       clipPathUnits="userSpaceOnUse"
       id="clipPath4512">
      <path
         d="m 82.4344,319.147 h 4.3267 v -5.391 h -4.3267 z"
         id="path4510" />
    </clipPath>
    <clipPath
       clipPathUnits="userSpaceOnUse"
       id="clipPath4532">
      <path
         d="m 108.647,286.914 h 8.04 v -16.897 h -8.04 z"
         id="path4530" />
    </clipPath>
    <clipPath
       clipPathUnits="userSpaceOnUse"
       id="clipPath4552">
      <path
         d="M 84.6918,290.156 H 96.6983 V 276.101 H 84.6918 Z"
         id="path4550" />
    </clipPath>
    <clipPath
       clipPathUnits="userSpaceOnUse"
       id="clipPath4576">
      <path
         d="M 96.0336,319.378 H 118.134 V 299.391 H 96.0336 Z"
         id="path4574" />
    </clipPath>
    <clipPath
       clipPathUnits="userSpaceOnUse"
       id="clipPath4596">
      <path
         d="m 96.4111,317.984 h 4.4899 v -4.897 h -4.4899 z"
         id="path4594" />
    </clipPath>
    <clipPath
       clipPathUnits="userSpaceOnUse"
       id="clipPath4612">
      <path
         d="M 87.7598,318.609 H 103.01 V 291.345 H 87.7598 Z"
         id="path4610" />
    </clipPath>
    <linearGradient
       x1="0"
       y1="0"
       x2="1"
       y2="0"
       gradientUnits="userSpaceOnUse"
       gradientTransform="matrix(1.3337226,-3.2948658,-3.2948658,-1.3337226,84.899414,301.92212)"
       spreadMethod="pad"
       id="linearGradient4648">
      <stop
         style="stop-opacity:1;stop-color:#50252f"
         offset="0"
         id="stop4642" />
      <stop
         style="stop-opacity:1;stop-color:#50252f"
         offset="0.00540541"
         id="stop4644" />
      <stop
         style="stop-opacity:1;stop-color:#231f20"
         offset="1"
         id="stop4646" />
    </linearGradient>
    <clipPath
       clipPathUnits="userSpaceOnUse"
       id="clipPath4658">
      <path
         d="M 0,500 H 750 V 0 H 0 Z"
         id="path4656" />
    </clipPath>
    <clipPath
       clipPathUnits="userSpaceOnUse"
       id="clipPath4666">
      <path
         d="m 84.7965,301.75 h 1.2006 v -2.618 h -1.2006 z"
         id="path4664" />
    </clipPath>
    <linearGradient
       x1="0"
       y1="0"
       x2="1"
       y2="0"
       gradientUnits="userSpaceOnUse"
       gradientTransform="matrix(1.2413899,-3.3457637,-3.3457637,-1.2413899,84.63575,301.82407)"
       spreadMethod="pad"
       id="linearGradient4678">
      <stop
         style="stop-opacity:1;stop-color:#50252f"
         offset="0"
         id="stop4672" />
      <stop
         style="stop-opacity:1;stop-color:#50252f"
         offset="0.00540541"
         id="stop4674" />
      <stop
         style="stop-opacity:1;stop-color:#231f20"
         offset="1"
         id="stop4676" />
    </linearGradient>
    <linearGradient
       x1="0"
       y1="0"
       x2="1"
       y2="0"
       gradientUnits="userSpaceOnUse"
       gradientTransform="matrix(0.8250596,-3.4574513,-3.4574513,-0.8250596,96.28614,301.272)"
       spreadMethod="pad"
       id="linearGradient4712">
      <stop
         style="stop-opacity:1;stop-color:#50252f"
         offset="0"
         id="stop4706" />
      <stop
         style="stop-opacity:1;stop-color:#50252f"
         offset="0.00540541"
         id="stop4708" />
      <stop
         style="stop-opacity:1;stop-color:#231f20"
         offset="1"
         id="stop4710" />
    </linearGradient>
    <clipPath
       clipPathUnits="userSpaceOnUse"
       id="clipPath4730">
      <path
         d="m 95.9459,301.055 h 1.0838 v -2.617 h -1.0838 z"
         id="path4728" />
    </clipPath>
    <linearGradient
       x1="0"
       y1="0"
       x2="1"
       y2="0"
       gradientUnits="userSpaceOnUse"
       gradientTransform="matrix(0.7264585,-3.4939303,-3.4939303,-0.7264585,96.010552,301.21463)"
       spreadMethod="pad"
       id="linearGradient4742">
      <stop
         style="stop-opacity:1;stop-color:#50252f"
         offset="0"
         id="stop4736" />
      <stop
         style="stop-opacity:1;stop-color:#50252f"
         offset="0.00540541"
         id="stop4738" />
      <stop
         style="stop-opacity:1;stop-color:#231f20"
         offset="1"
         id="stop4740" />
    </linearGradient>
    <clipPath
       clipPathUnits="userSpaceOnUse"
       id="clipPath4772">
      <path
         d="m 84.5053,308.166 h 2.4911 v -0.775 h -2.4911 z"
         id="path4770" />
    </clipPath>
    <clipPath
       clipPathUnits="userSpaceOnUse"
       id="clipPath4796">
      <path
         d="m 95.393,308.177 h 2.4911 v -0.775 H 95.393 Z"
         id="path4794" />
    </clipPath>
    <clipPath
       clipPathUnits="userSpaceOnUse"
       id="clipPath4828">
      <path
         d="m 87.4949,324.102 h 8.9162 v -6.875 h -8.9162 z"
         id="path4826" />
    </clipPath>
    <clipPath
       clipPathUnits="userSpaceOnUse"
       id="clipPath4860">
      <path
         d="m 80.2366,305.123 h 14.2427 v -7.839 H 80.2366 Z"
         id="path4858" />
    </clipPath>
  </defs>
  <g
     inkscape:label="Layer 1"
     inkscape:groupmode="layer"
     id="layer1"
     transform="translate(-59.861398,-38.865974)">
    <g
       id="g24571"
       transform="translate(131.944,-65.050697)">
      <g
         id="g4478"
         transform="matrix(0.35277777,0,0,-0.35277777,-55.914444,104.37634)">
        <path
           d="m 0,0 c -0.651,-11.512 -0.977,-23.894 -0.977,-35.84 0,-15.748 0.543,-30.953 1.195,-42.031 l -13.902,1.195 c -0.761,7.059 -1.086,18.028 -1.195,29.976 l -15.965,-0.978 c 0.217,-10.535 0.543,-20.853 0.978,-31.387 l -14.771,1.303 c -0.76,14.553 -1.194,28.998 -1.194,43.334 0,10.752 0.217,21.504 0.869,32.039 l 14.335,-1.304 c -0.434,-6.407 -0.652,-12.924 -0.652,-19.44 0,-4.019 0.109,-8.472 0.109,-12.49 l 16.291,0.978 c 0,12.163 0.217,24.545 0.543,35.948 z"
           style="fill:#6d2411;fill-opacity:1;fill-rule:nonzero;stroke:none"
           id="path4480" />
      </g>
      <g
         id="g4482"
         transform="matrix(0.35277777,0,0,-0.35277777,-59.725714,117.30469)">
        <path
           d="M 0,0 C 0,0 -2.223,2.04 -1.656,6.896 3.665,6.297 4.587,4.149 4.587,4.149 Z"
           style="fill:#eeac70;fill-opacity:1;fill-rule:nonzero;stroke:none"
           id="path4484" />
      </g>
      <g
         id="g4486"
         transform="matrix(0.35277777,0,0,-0.35277777,-41.213842,128.39422)">
        <path
           d="m 0,0 c -2.658,-0.783 -7.039,-0.981 -9.397,6.048 -2.362,7.028 -3.508,7.28 -3.508,7.28 l 0.427,1.351 c 0,0 3.269,0.776 5.537,-1.126 C -4.673,11.648 -4.925,5.265 -3.975,2.52 -3.024,-0.222 0,0 0,0"
           style="fill:#9f4427;fill-opacity:1;fill-rule:nonzero;stroke:none"
           id="path4488" />
      </g>
      <g
         id="g4490"
         transform="matrix(0.35277777,0,0,-0.35277777,-89.066312,227.90994)">
        <g
           id="g4492" />
        <g
           id="g4504">
          <g
             clip-path="url(#clipPath4496)"
             opacity="0.5"
             id="g4502">
            <g
               transform="translate(135.6448,282.0918)"
               id="g4500">
              <path
                 d="m 0,0 c -2.658,-0.783 -7.039,-0.981 -9.397,6.048 -2.362,7.028 -3.508,7.28 -3.508,7.28 l 0.427,1.351 c 0,0 2.429,0.104 3.968,-6.028 C -6.971,2.52 -5.597,-0.924 0,0"
                 style="fill:#72311c;fill-opacity:1;fill-rule:nonzero;stroke:none"
                 id="path4498" />
            </g>
          </g>
        </g>
      </g>
      <g
         id="g4506"
         transform="matrix(0.35277777,0,0,-0.35277777,-89.066312,227.90994)">
        <g
           id="g4508" />
        <g
           id="g4520">
          <g
             clip-path="url(#clipPath4512)"
             opacity="0.5"
             id="g4518">
            <g
               transform="translate(83.9178,313.8315)"
               id="g4516">
              <path
                 d="M 0,0 C 0,0 -1.703,2.588 -1.46,5.315 0.897,4.835 1.186,5.017 2.843,3.512 1.931,1.292 0.031,-0.076 0.031,-0.076"
                 style="fill:#f79437;fill-opacity:1;fill-rule:nonzero;stroke:none"
                 id="path4514" />
            </g>
          </g>
        </g>
      </g>
      <g
         id="g4522"
         transform="matrix(0.35277777,0,0,-0.35277777,-47.934717,128.86296)">
        <path
           d="m 0,0 c 0,0 -0.336,-7.172 -1.386,-10.746 h -3.318 c 0,0 0.672,6.882 -2.603,12.804 C -10.583,7.979 -0.21,5.796 0,5.586 0.21,5.376 0,0 0,0"
           style="fill:#eeac70;fill-opacity:1;fill-rule:nonzero;stroke:none"
           id="path4524" />
      </g>
      <g
         id="g4526"
         transform="matrix(0.35277777,0,0,-0.35277777,-89.066312,227.90994)">
        <g
           id="g4528" />
        <g
           id="g4540">
          <g
             clip-path="url(#clipPath4532)"
             id="g4538">
            <g
               transform="translate(116.5935,280.7631)"
               id="g4536">
              <path
                 d="m 0,0 c 0,0 -0.336,-7.172 -1.386,-10.746 h -3.318 c 0,0 0.672,6.882 -2.603,12.804 C -10.583,7.979 -0.21,5.796 0,5.586 0.21,5.376 0,0 0,0"
                 style="fill:#dadedd;fill-opacity:1;fill-rule:nonzero;stroke:none"
                 id="path4534" />
            </g>
          </g>
        </g>
      </g>
      <g
         id="g4542"
         transform="matrix(0.35277777,0,0,-0.35277777,-56.69373,125.54925)">
        <path
           d="m 0,0 c 0,0 -6.515,-4.424 -7.019,-5.432 -0.504,-1.008 2.664,-8.063 3.012,-8.623 2.588,0 2.812,0.28 2.812,0.28 l -0.784,5.712 c 2.856,0.445 6.913,2.879 6.913,2.879"
           style="fill:#eeac70;fill-opacity:1;fill-rule:nonzero;stroke:none"
           id="path4544" />
      </g>
      <g
         id="g4546"
         transform="matrix(0.35277777,0,0,-0.35277777,-89.066312,227.90994)">
        <g
           id="g4548" />
        <g
           id="g4560">
          <g
             clip-path="url(#clipPath4552)"
             id="g4558">
            <g
               transform="translate(91.7648,290.1563)"
               id="g4556">
              <path
                 d="m 0,0 c 0,0 -6.515,-4.424 -7.019,-5.432 -0.504,-1.008 2.664,-8.063 3.012,-8.623 2.588,0 2.812,0.28 2.812,0.28 l -0.784,5.712 c 2.856,0.445 6.913,2.879 6.913,2.879"
                 style="fill:#dadedd;fill-opacity:1;fill-rule:nonzero;stroke:none"
                 id="path4554" />
            </g>
          </g>
        </g>
      </g>
      <g
         id="g4562"
         transform="matrix(0.35277777,0,0,-0.35277777,-44.630706,127.42553)">
        <path
           d="m 0,0 c -3.779,-1.428 -15.372,-5.126 -25.368,-1.596 -5.831,2.059 -8.832,5.118 -10.536,8.189 -0.394,0.712 -0.716,1.42 -0.992,2.121 -0.099,0.249 -0.191,0.497 -0.275,0.743 -0.418,1.198 -0.709,2.35 -0.961,3.392 -0.138,0.566 -0.058,1.236 0.187,1.975 1.279,3.825 7.045,9.437 9.736,11.903 0.031,0.031 0.065,0.057 0.096,0.088 0.792,0.728 1.29,1.156 1.29,1.156 0,0 -0.011,-0.206 -0.015,-0.562 0,-0.077 -0.004,-0.165 -0.004,-0.257 0,-1.022 0.061,-2.864 0.433,-4.824 0.413,-2.171 1.213,-4.479 2.749,-5.942 0.203,-0.199 0.421,-0.379 0.654,-0.543 0.234,-0.165 0.483,-0.314 0.747,-0.441 5.122,-2.469 9.525,-0.551 13.051,-0.635 0.402,-0.008 0.904,-0.123 1.382,-0.215 C -4.054,13.836 1.639,10.352 0,0"
           style="fill:#eeac70;fill-opacity:1;fill-rule:nonzero;stroke:none"
           id="path4564" />
      </g>
      <g
         id="g4566"
         transform="matrix(0.35277777,0,0,-0.35277777,-47.391298,122.29142)">
        <path
           d="M 0,0 C -0.625,0.108 -1.435,0.229 -2.066,0.138 -2.718,0.04 -2.98,-0.296 -3.504,-0.675 -4.001,-1.041 -4.546,-1.361 -5.127,-1.549 -5.755,-1.75 -6.454,-1.818 -7.106,-1.828 c -0.712,-0.006 -1.414,0.088 -2.069,0.397 -0.393,0.188 -0.776,0.41 -1.19,0.544 -1.377,0.45 -2.849,-0.101 -4.23,0.339 -0.423,0.138 -0.809,0.36 -1.162,0.642 -0.665,0.534 -1.206,1.277 -1.657,2.036 -0.628,1.062 -1.142,2.201 -1.528,3.387 -0.387,1.182 -0.649,2.415 -0.773,3.662 -0.084,0.843 -0.104,1.71 0.094,2.533 0,0.003 0.004,0.01 0.004,0.013 -0.232,0.172 -0.464,0.353 -0.669,0.538 -0.44,0.39 -0.78,0.79 -0.847,1.156 -0.208,1.129 -1.028,3.181 -1.028,3.625 0,0.262 0.027,1.233 0.051,1.989 0.016,0.531 0.03,0.954 0.03,0.954 0,0 4.848,-0.581 6.978,-7.297 v -0.004 c 0.302,-0.772 0.386,-1.666 0.541,-2.506 0.208,-1.132 0.699,-2.379 1.727,-2.738 0.359,-0.131 0.749,-0.131 1.129,-0.131 0.621,0.003 1.24,0.003 1.861,0.003 0.565,0.004 1.163,-0.003 1.646,-0.309 1.139,-0.722 1.059,-2.61 2.056,-3.538 C -5.47,2.839 -4.495,2.819 -3.622,2.634 -2.147,2.322 -0.141,1.596 0,0"
           style="fill:#9f4427;fill-opacity:1;fill-rule:nonzero;stroke:none"
           id="path4568" />
      </g>
      <g
         id="g4570"
         transform="matrix(0.35277777,0,0,-0.35277777,-89.066312,227.90994)">
        <g
           id="g4572" />
        <g
           id="g4584">
          <g
             clip-path="url(#clipPath4576)"
             opacity="0.300003"
             id="g4582">
            <g
               transform="translate(118.1339,299.3911)"
               id="g4580">
              <path
                 d="m 0,0 c -0.625,0.108 -1.435,0.229 -2.066,0.138 -0.03,-0.004 -0.061,-0.01 -0.088,-0.017 -0.725,0.632 -1.807,1.025 -2.697,1.253 -0.867,0.222 -1.838,0.282 -2.483,0.941 -0.958,0.967 -0.796,2.849 -1.902,3.622 -0.47,0.326 -1.068,0.356 -1.633,0.376 -0.621,0.027 -1.239,0.054 -1.861,0.077 -0.38,0.017 -0.766,0.034 -1.122,0.178 -1.011,0.403 -1.448,1.67 -1.606,2.809 -0.121,0.847 -0.165,1.744 -0.437,2.53 l 0.004,0.003 c -1.499,5.53 -4.966,7.083 -6.209,7.469 0.013,0.359 0.02,0.608 0.02,0.608 0,0 4.848,-0.581 6.978,-7.297 v -0.004 c 0.302,-0.772 0.386,-1.666 0.541,-2.506 0.208,-1.132 0.699,-2.379 1.727,-2.738 0.359,-0.131 0.749,-0.131 1.129,-0.131 0.621,0.003 1.24,0.003 1.861,0.003 0.565,0.004 1.163,-0.003 1.646,-0.309 1.139,-0.722 1.059,-2.61 2.056,-3.538 C -5.47,2.839 -4.495,2.819 -3.622,2.634 -2.147,2.322 -0.141,1.596 0,0"
                 style="fill:#9f4427;fill-opacity:1;fill-rule:nonzero;stroke:none"
                 id="path4578" />
            </g>
          </g>
        </g>
      </g>
      <g
         id="g4586"
         transform="matrix(0.35277777,0,0,-0.35277777,-53.971909,117.62113)">
        <path
           d="M 0,0 C 0,0 2.569,1.581 2.933,6.458 -2.405,6.878 -3.718,4.943 -3.718,4.943 Z"
           style="fill:#eeac70;fill-opacity:1;fill-rule:nonzero;stroke:none"
           id="path4588" />
      </g>
      <g
         id="g4590"
         transform="matrix(0.35277777,0,0,-0.35277777,-89.066312,227.90994)">
        <g
           id="g4592" />
        <g
           id="g4604">
          <g
             clip-path="url(#clipPath4596)"
             opacity="0.5"
             id="g4602">
            <g
               transform="translate(96.4111,316.7105)"
               id="g4600">
              <path
                 d="M 0,0 C 0,0 1.176,1.606 4.49,1.211 4.338,-0.309 3.892,-2.62 2.245,-3.624 0.628,-1.921 0,0 0,0"
                 style="fill:#f79437;fill-opacity:1;fill-rule:nonzero;stroke:none"
                 id="path4598" />
            </g>
          </g>
        </g>
      </g>
      <g
         id="g4606"
         transform="matrix(0.35277777,0,0,-0.35277777,-89.066312,227.90994)">
        <g
           id="g4608" />
        <g
           id="g4620">
          <g
             clip-path="url(#clipPath4612)"
             id="g4618">
            <g
               transform="translate(103.0033,298.2721)"
               id="g4616">
              <path
                 d="m 0,0 c -0.004,-0.077 -0.008,-0.157 -0.011,-0.234 -0.127,-2.033 -0.847,-3.985 -2.539,-5.245 -1.906,-1.416 -4.533,-1.343 -6.807,-1.424 -1.198,-0.042 -2.4,-0.034 -3.591,0.061 -0.394,0.713 -0.716,1.421 -0.992,2.121 -0.099,0.249 -0.191,0.498 -0.275,0.743 -0.418,1.198 -0.709,2.351 -0.961,3.392 -0.138,0.567 -0.058,1.237 0.187,1.976 2.129,4.073 7.497,9.253 10.058,11.596 -0.115,0.1 -0.222,0.203 -0.322,0.307 -0.268,0.272 -0.471,0.547 -0.559,0.811 -0.019,0.046 -0.03,0.092 -0.038,0.138 -0.226,1.225 -1.118,3.453 -1.118,3.936 0,0.283 0.031,1.34 0.054,2.159 0.084,-0.027 0.164,-0.061 0.249,-0.099 1.489,-0.64 2.963,-2.673 3.897,-4.648 0.295,-0.624 0.536,-1.241 0.712,-1.807 0.816,-2.676 2.259,-8.358 2.006,-10.981 0,0 0.008,-0.141 0,-0.394 C -0.054,2.316 -0.061,2.205 -0.073,2.083 V 2.075 C -0.084,1.979 -0.096,1.868 -0.111,1.761 -0.103,1.723 -0.1,1.692 -0.096,1.654 -0.05,1.378 -0.019,1.095 -0.008,0.804 0.008,0.54 0.012,0.272 0,0"
                 style="fill:#dadedd;fill-opacity:1;fill-rule:nonzero;stroke:none"
                 id="path4614" />
            </g>
          </g>
        </g>
      </g>
      <g
         id="g4622"
         transform="matrix(0.35277777,0,0,-0.35277777,-52.978063,121.46517)">
        <path
           d="m 0,0 c 0,0 0.015,-0.274 -0.025,-0.723 0.003,-0.003 0.003,-0.003 0,-0.007 -0.183,-2.054 -1.518,-7.761 -10.736,-8.137 -11.257,-0.464 -11.37,5.864 -11.502,8.907 -0.011,0.223 -0.014,0.449 -0.014,0.672 -0.004,3.174 0.948,6.345 2.164,9.359 0.215,0.54 0.456,1.077 0.715,1.602 0.854,1.734 1.963,3.357 3.503,4.587 2.007,1.602 5.871,2.646 9.279,1.175 1.489,-0.642 2.963,-2.675 3.898,-4.649 0.295,-0.624 0.536,-1.24 0.711,-1.806 C -1.19,8.301 0.252,2.62 0,0"
           style="fill:#eeac70;fill-opacity:1;fill-rule:nonzero;stroke:none"
           id="path4624" />
      </g>
      <g
         id="g4626"
         transform="matrix(0.35277777,0,0,-0.35277777,-52.960213,122.45609)">
        <path
           d="m 0,0 c 0.044,1.078 -0.096,2.14 -0.448,2.998 -0.801,1.951 -3.459,2.864 -5.331,3.28 -2.13,0.474 -4.323,0.533 -6.495,0.615 -3.14,0.12 -5.852,-0.413 -8.144,-1.797 -2.267,-1.37 -2.967,-4.207 -2.177,-6.639 0.839,-2.581 3.355,-4.039 5.851,-4.683 2.411,-0.622 4.907,-0.759 7.387,-0.672 2.272,0.081 4.9,0.004 6.807,1.423 C -0.796,-4.171 -0.087,-2.119 0,0"
           style="fill:#ffeddf;fill-opacity:1;fill-rule:nonzero;stroke:none"
           id="path4628" />
      </g>
      <g
         id="g4630"
         transform="matrix(0.35277777,0,0,-0.35277777,-89.066312,227.90994)">
        <g
           id="g4632">
          <g
             id="g4638">
            <g
               id="g4640">
              <path
                 d="m 85.452,301.835 c -0.915,-0.143 -0.651,-1.794 -0.505,-2.329 v 0 c 0.147,-0.536 0.709,-0.459 0.988,-0.002 v 0 c 0.269,0.442 0.423,2.338 -0.393,2.338 v 0 c -0.029,0 -0.059,-0.002 -0.09,-0.007"
                 style="fill:url(#linearGradient4648);stroke:none"
                 id="path4650" />
            </g>
          </g>
        </g>
      </g>
      <g
         id="g4652"
         transform="matrix(0.35277777,0,0,-0.35277777,-89.066312,227.90994)">
        <g
           id="g4654"
           clip-path="url(#clipPath4658)">
          <g
             id="g4660">
            <g
               id="g4662" />
            <g
               id="g4692">
              <g
                 clip-path="url(#clipPath4666)"
                 id="g4690">
                <g
                   id="g4688">
                  <g
                     id="g4686">
                    <g
                       id="g4684">
                      <g
                         id="g4682">
                        <path
                           d="m 85.144,299.824 c -0.09,0.39 -0.217,1.369 0.07,1.926 -0.625,-0.375 -0.399,-1.762 -0.266,-2.244 0.146,-0.535 0.707,-0.459 0.987,-0.002 0.021,0.036 0.042,0.084 0.062,0.138 -0.308,-0.299 -0.745,-0.286 -0.853,0.182"
                           style="fill:url(#linearGradient4678);stroke:none"
                           id="path4680" />
                      </g>
                    </g>
                  </g>
                </g>
              </g>
            </g>
          </g>
        </g>
      </g>
      <g
         id="g4694"
         transform="matrix(0.35277777,0,0,-0.35277777,-89.066312,227.90994)">
        <g
           id="g4696">
          <g
             id="g4702">
            <g
               id="g4704">
              <path
                 d="m 96.82,301.103 c -0.927,-0.004 -0.913,-1.676 -0.849,-2.227 v 0 c 0.066,-0.551 0.631,-0.56 0.976,-0.15 v 0 c 0.344,0.41 0.798,2.377 -0.124,2.377 v 0 c -10e-4,0 -0.002,0 -0.003,0"
                 style="fill:url(#linearGradient4712);stroke:none"
                 id="path4714" />
            </g>
          </g>
        </g>
      </g>
      <g
         id="g4724"
         transform="matrix(0.35277777,0,0,-0.35277777,-89.066312,227.90994)">
        <g
           id="g4726" />
        <g
           id="g4756">
          <g
             clip-path="url(#clipPath4730)"
             id="g4754">
            <g
               id="g4752">
              <g
                 id="g4750">
                <g
                   id="g4748">
                  <g
                     id="g4746">
                    <path
                       d="m 96.214,299.16 c -0.031,0.4 -0.01,1.387 0.357,1.895 -0.674,-0.277 -0.658,-1.683 -0.599,-2.179 0.065,-0.551 0.631,-0.56 0.975,-0.15 0.027,0.032 0.055,0.077 0.083,0.127 -0.35,-0.249 -0.779,-0.171 -0.816,0.307"
                       style="fill:url(#linearGradient4742);stroke:none"
                       id="path4744" />
                  </g>
                </g>
              </g>
            </g>
          </g>
        </g>
      </g>
      <g
         id="g4758"
         transform="matrix(0.35277777,0,0,-0.35277777,-58.356055,118.62553)">
        <path
           d="m 0,0 c 0.275,-0.785 -0.138,-1.645 -0.924,-1.92 -0.785,-0.275 -1.645,0.138 -1.92,0.924 -0.275,0.785 0.139,1.645 0.924,1.92 C -1.135,1.199 -0.275,0.785 0,0"
           style="fill:#210f0a;fill-opacity:1;fill-rule:nonzero;stroke:none"
           id="path4760" />
      </g>
      <g
         id="g4762"
         transform="matrix(0.35277777,0,0,-0.35277777,-58.783022,118.64024)">
        <path
           d="m 0,0 c 0.118,-0.336 -0.059,-0.704 -0.395,-0.821 -0.336,-0.118 -0.704,0.059 -0.821,0.395 -0.118,0.336 0.059,0.703 0.395,0.821 C -0.485,0.513 -0.118,0.336 0,0"
           style="fill:#ffffff;fill-opacity:1;fill-rule:nonzero;stroke:none"
           id="path4764" />
      </g>
      <g
         id="g4766"
         transform="matrix(0.35277777,0,0,-0.35277777,-89.066312,227.90994)">
        <g
           id="g4768" />
        <g
           id="g4780">
          <g
             clip-path="url(#clipPath4772)"
             opacity="0.699997"
             id="g4778">
            <g
               transform="translate(84.5053,307.9399)"
               id="g4776">
              <path
                 d="m 0,0 c 0.186,-0.148 0.39,-0.267 0.608,-0.339 0.217,-0.072 0.446,-0.106 0.67,-0.07 0.225,0.03 0.44,0.113 0.642,0.226 0.102,0.054 0.194,0.127 0.293,0.189 C 2.305,0.078 2.395,0.155 2.491,0.227 2.416,0.135 2.335,0.047 2.255,-0.043 2.161,-0.117 2.074,-0.202 1.973,-0.269 1.772,-0.406 1.539,-0.496 1.295,-0.539 0.799,-0.6 0.295,-0.375 0,0"
                 style="fill:#f79437;fill-opacity:1;fill-rule:nonzero;stroke:none"
                 id="path4774" />
            </g>
          </g>
        </g>
      </g>
      <g
         id="g4782"
         transform="matrix(0.35277777,0,0,-0.35277777,-54.515116,118.62186)">
        <path
           d="m 0,0 c 0.275,-0.785 -0.138,-1.645 -0.924,-1.92 -0.785,-0.275 -1.645,0.138 -1.92,0.924 -0.275,0.785 0.139,1.645 0.924,1.92 C -1.135,1.199 -0.275,0.785 0,0"
           style="fill:#210f0a;fill-opacity:1;fill-rule:nonzero;stroke:none"
           id="path4784" />
      </g>
      <g
         id="g4786"
         transform="matrix(0.35277777,0,0,-0.35277777,-54.942083,118.63657)">
        <path
           d="m 0,0 c 0.118,-0.336 -0.059,-0.704 -0.395,-0.821 -0.336,-0.118 -0.704,0.059 -0.821,0.395 -0.118,0.336 0.059,0.703 0.395,0.821 C -0.485,0.513 -0.118,0.336 0,0"
           style="fill:#ffffff;fill-opacity:1;fill-rule:nonzero;stroke:none"
           id="path4788" />
      </g>
      <g
         id="g4790"
         transform="matrix(0.35277777,0,0,-0.35277777,-89.066312,227.90994)">
        <g
           id="g4792" />
        <g
           id="g4804">
          <g
             clip-path="url(#clipPath4796)"
             opacity="0.699997"
             id="g4802">
            <g
               transform="translate(95.393,307.9503)"
               id="g4800">
              <path
                 d="m 0,0 c 0.186,-0.148 0.39,-0.267 0.608,-0.339 0.217,-0.072 0.446,-0.106 0.67,-0.07 0.225,0.03 0.44,0.113 0.642,0.226 0.102,0.054 0.194,0.127 0.293,0.189 C 2.305,0.079 2.395,0.155 2.491,0.227 2.416,0.135 2.335,0.047 2.255,-0.043 2.161,-0.117 2.074,-0.202 1.973,-0.269 1.772,-0.406 1.539,-0.496 1.295,-0.539 0.799,-0.6 0.294,-0.375 0,0"
                 style="fill:#f79437;fill-opacity:1;fill-rule:nonzero;stroke:none"
                 id="path4798" />
            </g>
          </g>
        </g>
      </g>
      <g
         id="g4806"
         transform="matrix(0.35277777,0,0,-0.35277777,-56.835935,123.37254)">
        <path
           d="m 0,0 c -0.212,-0.461 -0.505,-2.122 -1.286,-1.793 -0.569,0.239 -0.64,1.13 -0.832,1.653 -0.035,0.096 -0.18,0.054 -0.169,-0.044 0.061,-0.593 0.327,-1.906 1.11,-1.935 0.722,-0.027 1.412,1.479 1.276,2.105 C 0.077,0.088 0,0 0,0"
           style="fill:#cb3524;fill-opacity:1;fill-rule:nonzero;stroke:none"
           id="path4808" />
      </g>
      <g
         id="g4810"
         transform="matrix(0.35277777,0,0,-0.35277777,-44.879767,132.28533)">
        <path
           d="m 0,0 c -0.034,-0.339 -0.081,-0.675 -0.134,-1.008 -1.008,-0.084 -3.78,0 -3.78,0 0,0 0.037,0.87 0.013,2.016 C -3.934,2.51 -4.069,4.489 -4.529,5.601 -5.342,7.559 -6.938,7.475 -8.309,8.735 -9.683,9.995 -11.137,14 -11.137,14 L 0.706,13.775 c 0,0 -0.363,-3.807 -0.588,-5.46 C -0.087,6.817 0.356,3.276 0,0"
           style="fill:#eeac70;fill-opacity:1;fill-rule:nonzero;stroke:none"
           id="path4812" />
      </g>
      <g
         id="g4814"
         transform="matrix(0.35277777,0,0,-0.35277777,-52.991539,132.25569)">
        <path
           d="m 0,0 c -0.06,-0.796 -0.114,-1.3 -0.114,-1.3 l -3.232,0.171 c 0,0 0.003,0.773 -0.084,1.925 -0.182,2.315 -0.739,6.162 -2.476,8.326 -2.567,3.191 -5.033,9.148 -5.107,9.333 l 9.683,-4.932 c 0,0 0.561,-2.211 1.226,-5.292 C 0.376,6.01 0.158,2.046 0,0"
           style="fill:#eeac70;fill-opacity:1;fill-rule:nonzero;stroke:none"
           id="path4816" />
      </g>
      <g
         id="g4818"
         transform="matrix(0.35277777,0,0,-0.35277777,-55.165144,115.56292)">
        <path
           d="m 0,0 c -0.507,-0.726 -1.54,-0.996 -2.361,-1.142 -1.109,-0.197 -2.255,-0.088 -3.306,0.328 -0.248,0.099 -0.485,0.215 -0.708,0.347 -1.489,0.872 -2.401,2.437 -2.2,4.244 0.073,0.642 0.357,1.478 0.693,1.861 0.004,0.003 0.004,0.007 0.004,0.007 -0.04,-0.635 0.295,-1.281 0.839,-1.613 -0.088,0.351 -0.007,1.004 0.248,1.234 -0.014,-0.015 0.037,-0.157 0.04,-0.183 0.022,-0.062 0.048,-0.12 0.077,-0.182 0.058,-0.113 0.135,-0.219 0.215,-0.318 0.329,-0.416 0.77,-0.748 1.259,-0.952 0.088,-0.037 0.175,-0.066 0.266,-0.095 0.672,-0.201 1.237,0.168 1.883,0.277 0.785,0.135 1.599,0 2.226,-0.408 C -0.391,3.12 -0.044,2.708 0.142,2.164 0.368,1.503 0.416,0.599 0,0"
           style="fill:#9f4427;fill-opacity:1;fill-rule:nonzero;stroke:none"
           id="path4820" />
      </g>
      <g
         id="g4822"
         transform="matrix(0.35277777,0,0,-0.35277777,-89.066312,227.90994)">
        <g
           id="g4824" />
        <g
           id="g4836">
          <g
             clip-path="url(#clipPath4828)"
             opacity="0.5"
             id="g4834">
            <g
               transform="translate(96.0978,318.464)"
               id="g4832">
              <path
                 d="m 0,0 c -0.507,-0.726 -1.54,-0.996 -2.361,-1.142 -1.109,-0.197 -2.255,-0.088 -3.306,0.328 -0.248,0.099 -0.485,0.215 -0.708,0.347 -1.489,0.872 -2.401,2.437 -2.2,4.244 0.073,0.642 0.357,1.478 0.693,1.861 -0.328,-0.374 -0.262,-1.505 -0.229,-1.945 0.09,-1.241 0.744,-2.292 1.87,-2.851 0.765,-0.38 1.676,-0.547 2.525,-0.57 1.774,-0.048 3.232,1.3 2.891,3.133 C -0.391,3.12 -0.044,2.708 0.142,2.164 0.368,1.503 0.416,0.599 0,0"
                 style="fill:#72311c;fill-opacity:1;fill-rule:nonzero;stroke:none"
                 id="path4830" />
            </g>
          </g>
        </g>
      </g>
      <g
         id="g4838"
         transform="matrix(0.35277777,0,0,-0.35277777,-44.879767,132.28533)">
        <path
           d="m 0,0 c -0.034,-0.339 -0.081,-0.675 -0.134,-1.008 -1.008,-0.084 -3.78,0 -3.78,0 0,0 0.037,0.87 0.013,2.016 0,0 2.188,0.413 3.901,-1.008"
           style="fill:#9f4427;fill-opacity:1;fill-rule:nonzero;stroke:none"
           id="path4840" />
      </g>
      <g
         id="g4842"
         transform="matrix(0.35277777,0,0,-0.35277777,-48.322878,132.25217)">
        <path
           d="m 0,0 c -0.087,-0.406 -0.185,-0.79 -0.286,-1.139 h -3.319 c 0,0 0.071,0.722 0.054,1.902 l 0.003,0.003 c 0,0 1.693,0.212 3.548,-0.766"
           style="fill:#9f4427;fill-opacity:1;fill-rule:nonzero;stroke:none"
           id="path4844" />
      </g>
      <g
         id="g4846"
         transform="matrix(0.35277777,0,0,-0.35277777,-52.991539,132.25569)">
        <path
           d="m 0,0 c -0.06,-0.796 -0.114,-1.3 -0.114,-1.3 l -3.232,0.171 c 0,0 0.003,0.773 -0.084,1.925 C -3.397,0.796 -1.344,0.793 0,0"
           style="fill:#9f4427;fill-opacity:1;fill-rule:nonzero;stroke:none"
           id="path4848" />
      </g>
      <g
         id="g4850"
         transform="matrix(0.35277777,0,0,-0.35277777,-57.114982,130.40911)">
        <path
           d="m 0,0 c 0,0 -0.225,-0.279 -2.812,-0.279 -0.091,0.148 -0.376,0.739 -0.739,1.552 0,0 1.676,0.35 3.413,-0.285 h 0.004 z"
           style="fill:#9f4427;fill-opacity:1;fill-rule:nonzero;stroke:none"
           id="path4852" />
      </g>
      <g
         id="g4854"
         transform="matrix(0.35277777,0,0,-0.35277777,-89.066312,227.90994)">
        <g
           id="g4856" />
        <g
           id="g4868">
          <g
             clip-path="url(#clipPath4860)"
             opacity="0.5"
             id="g4866">
            <g
               transform="translate(94.4793,304.6964)"
               id="g4864">
              <path
                 d="m 0,0 c -1.579,0.112 -3.157,0.105 -4.723,0.015 -1.565,-0.102 -3.123,-0.308 -4.625,-0.715 -0.747,-0.206 -1.5,-0.44 -2.164,-0.794 -0.668,-0.355 -1.257,-0.854 -1.688,-1.475 -0.869,-1.246 -1.042,-2.932 -0.592,-4.443 -0.326,0.723 -0.472,1.531 -0.448,2.34 0.032,0.808 0.262,1.624 0.704,2.324 0.431,0.708 1.074,1.274 1.787,1.681 0.355,0.207 0.741,0.369 1.117,0.502 0.377,0.14 0.762,0.258 1.148,0.368 1.553,0.414 3.153,0.6 4.745,0.621 C -3.147,0.447 -1.553,0.315 0,0"
                 style="fill:#ffeddf;fill-opacity:1;fill-rule:nonzero;stroke:none"
                 id="path4862" />
            </g>
          </g>
        </g>
      </g>
    </g>
  </g>
</svg>
