<?xml version="1.0" encoding="UTF-8" standalone="no"?>
<!-- Created with Inkscape (http://www.inkscape.org/) -->

<svg
   width="23.487942mm"
   height="31.605438mm"
   viewBox="0 0 23.487942 31.605438"
   version="1.1"
   id="svg45635"
   inkscape:version="1.1-rc (52f87abb86, 2021-05-02)"
   sodipodi:docname="i-iguana.svg"
   xmlns:inkscape="http://www.inkscape.org/namespaces/inkscape"
   xmlns:sodipodi="http://sodipodi.sourceforge.net/DTD/sodipodi-0.dtd"
   xmlns="http://www.w3.org/2000/svg"
   xmlns:svg="http://www.w3.org/2000/svg">
  <sodipodi:namedview
     id="namedview45637"
     pagecolor="#ffffff"
     bordercolor="#666666"
     borderopacity="1.0"
     objecttolerance="10.0"
     gridtolerance="10.0"
     guidetolerance="10.0"
     inkscape:pageshadow="2"
     inkscape:pageopacity="0.0"
     inkscape:pagecheckerboard="0"
     inkscape:document-units="mm"
     showgrid="false"
     fit-margin-top="0"
     fit-margin-left="0"
     fit-margin-right="0"
     fit-margin-bottom="0"
     inkscape:zoom="0.94875842"
     inkscape:cx="-80.104691"
     inkscape:cy="39.525341"
     inkscape:window-width="3840"
     inkscape:window-height="2066"
     inkscape:window-x="2869"
     inkscape:window-y="-11"
     inkscape:window-maximized="1"
     inkscape:current-layer="layer1" />
  <defs
     id="defs45632" />
  <g
     inkscape:label="Layer 1"
     inkscape:groupmode="layer"
     id="layer1"
     transform="translate(-126.29828,-138.13531)">
    <g
       id="g26142"
       transform="translate(164.55046,32.967089)">
      <g
         id="g9112"
         transform="matrix(0.35277777,0,0,-0.35277777,-24.561108,105.62789)">
        <path
           d="m 0,0 c -0.651,-11.403 -0.977,-24.219 -0.977,-37.035 0,-14.336 0.434,-28.563 1.412,-40.836 l -14.662,1.303 c -0.978,15.314 -1.412,28.456 -1.412,41.38 0,11.729 0.326,23.133 0.977,36.491 z"
           style="fill:#435108;fill-opacity:1;fill-rule:nonzero;stroke:none"
           id="path9114" />
      </g>
      <g
         id="g9116"
         transform="matrix(0.35277777,0,0,-0.35277777,-30.199167,126.7664)">
        <path
           d="m 0,0 c 0,0 3.528,3.293 4.646,2.823 1.117,-0.471 0,-6.049 0,-6.049"
           style="fill:#667f18;fill-opacity:1;fill-rule:nonzero;stroke:none"
           id="path9118" />
      </g>
      <g
         id="g9120"
         transform="matrix(0.35277777,0,0,-0.35277777,-28.385114,128.02035)">
        <path
           d="m 0,0 c 0,0 3.528,3.293 4.646,2.823 1.117,-0.471 0,-6.049 0,-6.049"
           style="fill:#667f18;fill-opacity:1;fill-rule:nonzero;stroke:none"
           id="path9122" />
      </g>
      <g
         id="g9124"
         transform="matrix(0.35277777,0,0,-0.35277777,-26.160179,129.00114)">
        <path
           d="M 0,0 C 0,0 2.817,3.919 4.004,3.676 5.192,3.434 5.187,-2.255 5.187,-2.255"
           style="fill:#667f18;fill-opacity:1;fill-rule:nonzero;stroke:none"
           id="path9126" />
      </g>
      <g
         id="g9128"
         transform="matrix(0.35277777,0,0,-0.35277777,-23.736349,129.83342)">
        <path
           d="M 0,0 C 0,0 2.025,4.381 3.237,4.367 4.449,4.353 5.52,-1.234 5.52,-1.234"
           style="fill:#667f18;fill-opacity:1;fill-rule:nonzero;stroke:none"
           id="path9130" />
      </g>
      <g
         id="g9132"
         transform="matrix(0.35277777,0,0,-0.35277777,-22.480707,132.83993)">
        <path
           d="m 0,0 c 0,0 0.168,-3.169 0.166,-4.416 -0.001,-1.248 -3.38,-2.909 -3.132,-3.563 0.214,-0.564 1.083,-0.826 4.393,-0.297 3.31,0.529 2.723,2.994 2.791,4.61 0.067,1.616 1.229,5.464 1.229,5.464"
           style="fill:#97b518;fill-opacity:1;fill-rule:nonzero;stroke:none"
           id="path9134" />
      </g>
      <g
         id="g9136"
         transform="matrix(0.35277777,0,0,-0.35277777,-30.136973,130.7288)">
        <path
           d="m 0,0 c 0,0 -3.94,-1.588 -4.94,-3.469 -0.999,-1.882 -1.587,-5.461 -3.822,-5.7 -2.235,-0.24 -2.764,-1.298 -1.705,-1.769 1.058,-0.47 4.057,-0.706 5.233,0 1.176,0.706 2.867,4.129 4.396,4.587 1.529,0.458 3.425,2.058 3.719,2.529"
           style="fill:#97b518;fill-opacity:1;fill-rule:nonzero;stroke:none"
           id="path9138" />
      </g>
      <g
         id="g9140"
         transform="matrix(0.35277777,0,0,-0.35277777,-17.617525,123.89899)">
        <path
           d="m 0,0 c -0.268,-5.451 9.202,-12.063 4.647,-21.001 -2.728,-5.345 -7.473,-8.104 -11.619,-9.565 -0.921,-0.328 -1.814,-0.589 -2.646,-0.801 -0.618,-0.159 -1.203,-0.289 -1.747,-0.395 -0.483,-0.099 -0.931,-0.18 -1.337,-0.247 -0.378,-0.064 -0.72,-0.117 -1.016,-0.159 -3.617,-0.536 -9.114,-2.237 -16.04,0 -1.62,0.526 -3.063,1.256 -4.319,2.068 -0.928,0.596 -1.753,1.238 -2.477,1.877 -0.465,0.406 -0.885,0.811 -1.266,1.199 -1.807,1.853 -4.192,3.028 -6.754,3.377 -8.556,1.168 -13.153,5.864 -13.153,5.864 -1.606,1.697 -0.491,3.394 1.566,4.827 2.054,1.429 4.467,8.711 10.945,9.65 4.591,0.663 7.106,-1.249 8.186,-2.424 0.907,-0.988 1.898,-1.898 2.992,-2.674 5.176,-3.67 12.988,-7.23 18.577,-8.26 6.524,-1.207 11.171,0.31 12.197,3.038 1.031,2.723 -1.697,6.88 -2.053,10.14 -0.357,3.26 -0.448,6.834 3.842,8.712 C 2.812,7.103 8.175,5.271 8.087,4.287 7.995,3.306 0.268,5.451 0,0"
           style="fill:#acd426;fill-opacity:1;fill-rule:nonzero;stroke:none"
           id="path9142" />
      </g>
      <g
         id="g9144"
         transform="matrix(0.35277777,0,0,-0.35277777,-31.392932,127.90443)">
        <path
           d="m 0,0 c 0,-1.536 -1.245,-2.781 -2.781,-2.781 -1.536,0 -2.782,1.245 -2.782,2.781 0,1.536 1.246,2.781 2.782,2.781 C -1.245,2.781 0,1.536 0,0"
           style="fill:#ffffff;fill-opacity:1;fill-rule:nonzero;stroke:none"
           id="path9146" />
      </g>
      <g
         id="g9148"
         transform="matrix(0.35277777,0,0,-0.35277777,-32.374113,127.71689)">
        <path
           d="m 0,0 c 0,-0.574 -0.465,-1.039 -1.039,-1.039 -0.574,0 -1.039,0.465 -1.039,1.039 0,0.574 0.465,1.039 1.039,1.039 C -0.465,1.039 0,0.574 0,0"
           style="fill:#212121;fill-opacity:1;fill-rule:nonzero;stroke:none"
           id="path9150" />
      </g>
      <g
         id="g9152"
         transform="matrix(0.35277777,0,0,-0.35277777,-32.740579,127.71689)">
        <path
           d="m 0,0 c 0,-0.197 -0.16,-0.357 -0.357,-0.357 -0.198,0 -0.358,0.16 -0.358,0.357 0,0.197 0.16,0.357 0.358,0.357 C -0.16,0.357 0,0.197 0,0"
           style="fill:#ffffff;fill-opacity:1;fill-rule:nonzero;stroke:none"
           id="path9154" />
      </g>
      <g
         id="g9156"
         transform="matrix(0.35277777,0,0,-0.35277777,-38.087314,129.73009)">
        <path
           d="M 0,0 C 3.556,-0.876 8.204,-1.291 11.614,0.394 11.762,0.467 11.659,0.72 11.501,0.663 9.696,0.018 7.574,-0.324 5.672,-0.356 3.755,-0.388 1.903,0.101 0.014,0.103 -0.044,0.103 -0.058,0.014 0,0"
           style="fill:#7e990d;fill-opacity:1;fill-rule:nonzero;stroke:none"
           id="path9158" />
      </g>
      <g
         id="g9160"
         transform="matrix(0.35277777,0,0,-0.35277777,-29.229522,133.88415)">
        <path
           d="m 0,0 c 0,0 -0.353,-0.946 -1.161,-1.796 -0.928,0.596 -1.753,1.239 -2.477,1.877 l 1.814,0.924 z"
           style="fill:#97b518;fill-opacity:1;fill-rule:nonzero;stroke:none"
           id="path9162" />
      </g>
      <g
         id="g9164"
         transform="matrix(0.35277777,0,0,-0.35277777,-30.136973,132.40915)">
        <path
           d="m 0,0 c 0,0 -3.94,-1.588 -4.94,-3.47 -0.999,-1.881 -1.587,-5.46 -3.822,-5.699 -2.235,-0.24 -2.764,-1.299 -1.705,-1.769 1.058,-0.47 4.057,-0.706 5.233,0 1.176,0.706 2.867,4.129 4.396,4.587 1.529,0.458 3.425,2.058 3.719,2.529"
           style="fill:#acd426;fill-opacity:1;fill-rule:nonzero;stroke:none"
           id="path9166" />
      </g>
      <g
         id="g9168"
         transform="matrix(0.35277777,0,0,-0.35277777,-20.077091,134.68203)">
        <path
           d="m 0,0 c -0.921,-0.328 -1.814,-0.589 -2.646,-0.801 l 0.24,1.81 2.251,2.519 c 0,0 -0.138,-2.05 0.155,-3.528"
           style="fill:#97b518;fill-opacity:1;fill-rule:nonzero;stroke:none"
           id="path9170" />
      </g>
      <g
         id="g9172"
         transform="matrix(0.35277777,0,0,-0.35277777,-21.569482,134.51771)">
        <path
           d="m 0,0 -0.162,-1.662 c -0.484,-0.099 -0.932,-0.18 -1.338,-0.247 0.025,1.26 0.427,3.31 0.427,3.31 z"
           style="fill:#97b518;fill-opacity:1;fill-rule:nonzero;stroke:none"
           id="path9174" />
      </g>
      <g
         id="g9176"
         transform="matrix(0.35277777,0,0,-0.35277777,-21.962053,133.75274)">
        <path
           d="m 0,0 c 0,0 0.168,-3.169 0.167,-4.416 -0.002,-1.248 -3.381,-2.909 -3.133,-3.563 0.214,-0.564 1.083,-0.826 4.393,-0.297 3.31,0.529 2.723,2.994 2.791,4.61 0.067,1.616 1.229,5.464 1.229,5.464"
           style="fill:#acd426;fill-opacity:1;fill-rule:nonzero;stroke:none"
           id="path9178" />
      </g>
      <g
         id="g9180"
         transform="matrix(0.35277777,0,0,-0.35277777,-30.692845,126.77691)">
        <path
           d="m 0,0 c 0.323,-0.419 0.843,-0.841 1.37,-0.945 0.097,-0.02 0.204,0.11 0.108,0.186 C 1.071,-0.434 0.589,-0.054 0.1,0.13 0.031,0.155 -0.046,0.06 0,0"
           style="fill:#7e990d;fill-opacity:1;fill-rule:nonzero;stroke:none"
           id="path9182" />
      </g>
      <g
         id="g9184"
         transform="matrix(0.35277777,0,0,-0.35277777,-29.983585,126.98131)">
        <path
           d="M 0,0 C 0.214,-0.227 0.515,-0.413 0.811,-0.512 0.92,-0.548 1.002,-0.419 0.953,-0.327 0.792,-0.028 0.443,0.123 0.13,0.223 -0.002,0.266 -0.088,0.093 0,0"
           style="fill:#7e990d;fill-opacity:1;fill-rule:nonzero;stroke:none"
           id="path9186" />
      </g>
      <g
         id="g9188"
         transform="matrix(0.35277777,0,0,-0.35277777,-30.194476,127.42557)">
        <path
           d="M 0,0 C 0.268,-0.236 0.582,-0.378 0.897,-0.54 1.181,-0.685 1.429,-0.878 1.751,-0.913 1.91,-0.931 1.976,-0.739 1.919,-0.621 1.667,-0.107 0.69,0.2 0.164,0.281 0.015,0.304 -0.14,0.123 0,0"
           style="fill:#7e990d;fill-opacity:1;fill-rule:nonzero;stroke:none"
           id="path9190" />
      </g>
      <g
         id="g9192"
         transform="matrix(0.35277777,0,0,-0.35277777,-29.495764,127.47365)">
        <path
           d="M 0,0 C 0.228,-0.218 0.534,-0.41 0.831,-0.515 0.964,-0.562 1.077,-0.395 1.01,-0.282 0.825,0.031 0.444,0.235 0.079,0.191 -0.011,0.18 -0.076,0.073 0,0"
           style="fill:#7e990d;fill-opacity:1;fill-rule:nonzero;stroke:none"
           id="path9194" />
      </g>
      <g
         id="g9196"
         transform="matrix(0.35277777,0,0,-0.35277777,-29.007167,128.2765)">
        <path
           d="m 0,0 c 0.463,-0.433 1.242,-0.87 1.867,-0.988 0.169,-0.033 0.291,0.157 0.169,0.29 C 1.605,-0.228 0.728,0.03 0.145,0.249 0.004,0.302 -0.104,0.098 0,0"
           style="fill:#7e990d;fill-opacity:1;fill-rule:nonzero;stroke:none"
           id="path9198" />
      </g>
      <g
         id="g9200"
         transform="matrix(0.35277777,0,0,-0.35277777,-28.523508,128.08283)">
        <path
           d="M 0,0 C 0.321,-0.153 0.653,-0.332 0.994,-0.432 1.093,-0.461 1.201,-0.339 1.136,-0.248 0.915,0.061 0.531,0.177 0.203,0.348 -0.028,0.468 -0.232,0.111 0,0"
           style="fill:#7e990d;fill-opacity:1;fill-rule:nonzero;stroke:none"
           id="path9202" />
      </g>
      <g
         id="g9204"
         transform="matrix(0.35277777,0,0,-0.35277777,-27.825361,128.91506)">
        <path
           d="m 0,0 c 0.575,-0.447 1.824,-1.251 2.562,-0.812 0.084,0.05 0.104,0.206 0,0.25 -0.369,0.156 -0.78,0.178 -1.159,0.318 C 0.982,-0.087 0.575,0.116 0.148,0.253 0.011,0.297 -0.122,0.095 0,0"
           style="fill:#7e990d;fill-opacity:1;fill-rule:nonzero;stroke:none"
           id="path9206" />
      </g>
      <g
         id="g9208"
         transform="matrix(0.35277777,0,0,-0.35277777,-27.437764,128.68301)">
        <path
           d="M 0,0 C 0.332,-0.088 0.654,-0.295 0.986,-0.341 1.148,-0.364 1.293,-0.217 1.205,-0.056 1.017,0.288 0.485,0.393 0.134,0.486 -0.18,0.57 -0.314,0.083 0,0"
           style="fill:#7e990d;fill-opacity:1;fill-rule:nonzero;stroke:none"
           id="path9210" />
      </g>
      <g
         id="g9212"
         transform="matrix(0.35277777,0,0,-0.35277777,-26.335193,129.6371)">
        <path
           d="m 0,0 c 0.4,-0.257 0.889,-0.373 1.339,-0.515 0.46,-0.146 0.89,-0.324 1.38,-0.307 0.091,0.003 0.149,0.119 0.077,0.186 C 2.44,-0.304 2.018,-0.197 1.56,-0.064 1.079,0.076 0.577,0.251 0.073,0.27 -0.077,0.275 -0.115,0.074 0,0"
           style="fill:#7e990d;fill-opacity:1;fill-rule:nonzero;stroke:none"
           id="path9214" />
      </g>
      <g
         id="g9216"
         transform="matrix(0.35277777,0,0,-0.35277777,-25.840069,129.41925)">
        <path
           d="M 0,0 C 0.336,-0.285 0.841,-0.439 1.272,-0.495 1.388,-0.51 1.45,-0.337 1.367,-0.265 1.04,0.022 0.527,0.102 0.111,0.191 0.009,0.213 -0.093,0.079 0,0"
           style="fill:#7e990d;fill-opacity:1;fill-rule:nonzero;stroke:none"
           id="path9218" />
      </g>
      <g
         id="g9220"
         transform="matrix(0.35277777,0,0,-0.35277777,-24.103238,130.34558)">
        <path
           d="m 0,0 c 0.717,-0.288 1.814,-0.481 2.576,-0.309 0.192,0.044 0.189,0.34 0,0.386 C 2.208,0.165 1.813,0.12 1.435,0.146 0.978,0.178 0.546,0.26 0.106,0.385 -0.147,0.458 -0.233,0.093 0,0"
           style="fill:#7e990d;fill-opacity:1;fill-rule:nonzero;stroke:none"
           id="path9222" />
      </g>
      <g
         id="g9224"
         transform="matrix(0.35277777,0,0,-0.35277777,-24.660133,129.94599)">
        <path
           d="M 0,0 C 0.446,-0.041 0.873,-0.189 1.323,-0.185 1.477,-0.183 1.482,0.012 1.357,0.064 0.94,0.24 0.499,0.33 0.055,0.406 -0.239,0.456 -0.301,0.028 0,0"
           style="fill:#7e990d;fill-opacity:1;fill-rule:nonzero;stroke:none"
           id="path9226" />
      </g>
      <g
         id="g9228"
         transform="matrix(0.35277777,0,0,-0.35277777,-21.934537,130.72852)">
        <path
           d="M 0,0 C 0.928,-0.183 2.134,-0.204 3.025,0.142 3.158,0.193 3.139,0.379 2.991,0.391 2.05,0.463 0.928,0.443 0,0.263 -0.13,0.238 -0.13,0.026 0,0"
           style="fill:#7e990d;fill-opacity:1;fill-rule:nonzero;stroke:none"
           id="path9230" />
      </g>
      <g
         id="g9232"
         transform="matrix(0.35277777,0,0,-0.35277777,-21.921766,130.47597)">
        <path
           d="M 0,0 C 0.49,-0.026 1.002,0.151 1.487,0.228 1.626,0.25 1.581,0.452 1.455,0.46 0.979,0.494 0.476,0.441 0,0.419 -0.27,0.407 -0.269,0.014 0,0"
           style="fill:#7e990d;fill-opacity:1;fill-rule:nonzero;stroke:none"
           id="path9234" />
      </g>
      <g
         id="g9236"
         transform="matrix(0.35277777,0,0,-0.35277777,-20.1099,130.34406)">
        <path
           d="M 0,0 C 0.866,0.163 1.896,0.329 2.559,0.961 2.671,1.068 2.556,1.262 2.409,1.219 1.55,0.97 0.759,0.634 -0.128,0.465 -0.433,0.407 -0.304,-0.057 0,0"
           style="fill:#7e990d;fill-opacity:1;fill-rule:nonzero;stroke:none"
           id="path9238" />
      </g>
      <g
         id="g9240"
         transform="matrix(0.35277777,0,0,-0.35277777,-19.091465,129.70599)">
        <path
           d="M 0,0 C 0.319,0.17 0.59,0.422 0.735,0.758 0.814,0.943 0.612,1.122 0.449,0.978 0.206,0.765 0.033,0.487 -0.202,0.262 -0.342,0.128 -0.164,-0.088 0,0"
           style="fill:#7e990d;fill-opacity:1;fill-rule:nonzero;stroke:none"
           id="path9242" />
      </g>
    </g>
  </g>
</svg>
