<?xml version="1.0" encoding="UTF-8" standalone="no"?>
<!-- Created with Inkscape (http://www.inkscape.org/) -->

<svg
   width="24.32412mm"
   height="30.832087mm"
   viewBox="0 0 24.32412 30.832087"
   version="1.1"
   id="svg46106"
   inkscape:version="1.1-rc (52f87abb86, 2021-05-02)"
   sodipodi:docname="j-jellyfish.svg"
   xmlns:inkscape="http://www.inkscape.org/namespaces/inkscape"
   xmlns:sodipodi="http://sodipodi.sourceforge.net/DTD/sodipodi-0.dtd"
   xmlns="http://www.w3.org/2000/svg"
   xmlns:svg="http://www.w3.org/2000/svg">
  <sodipodi:namedview
     id="namedview46108"
     pagecolor="#ffffff"
     bordercolor="#666666"
     borderopacity="1.0"
     objecttolerance="10.0"
     gridtolerance="10.0"
     guidetolerance="10.0"
     inkscape:pageshadow="2"
     inkscape:pageopacity="0.0"
     inkscape:pagecheckerboard="0"
     inkscape:document-units="mm"
     showgrid="false"
     inkscape:zoom="0.94875842"
     inkscape:cx="-122.26505"
     inkscape:cy="235.57103"
     inkscape:window-width="3840"
     inkscape:window-height="2066"
     inkscape:window-x="2869"
     inkscape:window-y="-11"
     inkscape:window-maximized="1"
     inkscape:current-layer="layer1"
     fit-margin-top="0"
     fit-margin-left="0"
     fit-margin-right="0"
     fit-margin-bottom="0" />
  <defs
     id="defs46103" />
  <g
     inkscape:label="Layer 1"
     inkscape:groupmode="layer"
     id="layer1"
     transform="translate(-137.59287,-86.093816)">
    <g
       id="g26194"
       transform="translate(141.66609,-18.97139)">
      <g
         id="g8028"
         transform="matrix(0.35277777,0,0,-0.35277777,0.75418908,123.1493)">
        <path
           d="m 0,0 c -0.325,-1.629 -0.434,-3.258 -0.434,-4.67 0,-5.756 2.172,-10.209 5.321,-10.209 4.888,0 6.19,9.992 6.19,16.074 0,11.838 -0.434,30.518 -1.954,50.067 l 15.313,-1.303 c 1.52,-19.549 1.52,-36.926 1.52,-48.764 0,-11.078 -4.995,-29.324 -19.439,-29.324 -12.491,0 -20.201,9.992 -20.201,22.155 0,2.39 0.325,4.779 0.869,7.277 z"
           style="fill:#0f4970;fill-opacity:1;fill-rule:nonzero;stroke:none"
           id="path8030" />
      </g>
      <g
         id="g8032"
         transform="matrix(0.35277777,0,0,-0.35277777,9.0139514,123.88936)">
        <path
           d="m 0,0 c 0.376,-2.403 -0.032,-4.922 -1.146,-7.084 -1.115,-2.162 -2.931,-3.955 -5.107,-5.043 -2.233,-1.116 -4.865,-1.535 -6.733,-3.19 -0.636,-0.563 -1.158,-1.254 -1.525,-2.02 -0.402,-0.837 -0.617,-1.814 -0.338,-2.7 0.277,-0.879 1.024,-1.566 1.886,-1.896 0.323,-0.124 0.67,-0.203 1.015,-0.173 0.947,0.083 1.639,0.961 1.955,1.857 0.317,0.896 0.381,1.869 0.726,2.755 0.612,1.57 2.026,2.677 3.467,3.551 1.441,0.873 2.995,1.612 4.193,2.797 1.424,1.409 2.226,3.35 2.592,5.32 0.367,1.969 0.332,3.989 0.296,5.992"
           style="fill:#85e3ff;fill-opacity:1;fill-rule:nonzero;stroke:none"
           id="path8034" />
      </g>
      <g
         id="g8036"
         transform="matrix(0.35277777,0,0,-0.35277777,10.070133,124.60744)">
        <path
           d="m 0,0 c 0.122,-3.47 -0.09,-6.243 -1.781,-9.25 -0.861,-1.531 -2.713,-3.614 -3.877,-4.929 -1.381,-1.56 -3.006,-2.944 -3.845,-4.9 -0.702,-1.638 -1.562,-6.468 0.973,-7.121 0.501,-0.129 1.041,0.062 1.449,0.38 1.898,1.478 1.662,4.086 2.156,6.187 0.32,1.361 0.87,2.66 1.512,3.897 1.573,3.031 3.855,5.85 4.632,9.23 0.547,2.381 0.311,4.871 0.071,7.306"
           style="fill:#85e3ff;fill-opacity:1;fill-rule:nonzero;stroke:none"
           id="path8038" />
      </g>
      <g
         id="g8040"
         transform="matrix(0.35277777,0,0,-0.35277777,11.077031,124.82655)">
        <path
           d="m 0,0 c 0.221,-3.379 0.028,-6.641 -0.895,-9.907 -1.014,-3.589 -2.866,-6.853 -3.793,-10.467 -0.718,-2.802 -1.222,-6.909 0.379,-9.509 0.657,-1.065 1.977,-1.901 3.222,-1.294 3.03,1.478 1.426,6.669 1.334,9.196 -0.144,3.935 0.22,7.862 1.022,11.714 0.745,3.578 1.141,7.655 -0.213,11.137"
           style="fill:#85e3ff;fill-opacity:1;fill-rule:nonzero;stroke:none"
           id="path8042" />
      </g>
      <g
         id="g8044"
         transform="matrix(0.35277777,0,0,-0.35277777,12.344632,124.31093)">
        <path
           d="m 0,0 c 0.85,-2.729 1.529,-5.201 1.21,-8.067 -0.452,-4.054 -1.697,-8.337 -1.141,-12.418 0.314,-2.304 0.804,-4.45 2.588,-5.942 1.226,-1.026 2.798,-1.631 4.395,-1.692 1.132,-0.044 2.751,0.465 3.104,1.679 0.792,2.73 -3.142,2.412 -4.463,3.43 -0.755,0.581 -1.256,1.433 -1.643,2.304 -0.449,1.013 -0.769,2.083 -0.95,3.177 -0.429,2.587 -0.074,5.23 0.103,7.847 0.176,2.617 0.153,5.347 -0.959,7.723"
           style="fill:#85e3ff;fill-opacity:1;fill-rule:nonzero;stroke:none"
           id="path8046" />
      </g>
      <g
         id="g8048"
         transform="matrix(0.35277777,0,0,-0.35277777,14.051512,124.07873)">
        <path
           d="m 0,0 c 1.189,-1.196 2.077,-2.953 2.247,-5.171 0.17,-2.219 -0.483,-5.705 -0.166,-7.907 0.185,-1.283 0.517,-2.608 1.381,-3.574 0.974,-1.089 2.59,-1.476 3.984,-1.12 1.897,0.484 2.884,2.204 4.178,3.502 0.639,0.642 1.386,1.192 2.277,1.413 1.402,0.346 3.543,-0.339 3.667,1.8 0.149,2.567 -3.024,3.132 -5.062,2.417 -2.474,-0.867 -2.449,-3.128 -4.375,-5.28 -1.854,-2.071 -3.53,-0.471 -3.941,1.507 -0.335,1.619 -0.258,3.291 -0.213,4.944 0.045,1.652 0.052,3.335 -0.417,4.921 -0.469,1.585 -1.486,3.085 -2.994,3.762"
           style="fill:#85e3ff;fill-opacity:1;fill-rule:nonzero;stroke:none"
           id="path8050" />
      </g>
      <g
         id="g8052"
         transform="matrix(0.35277777,0,0,-0.35277777,18.148603,127.65657)">
        <path
           d="M 0,0 C 0.99,1.127 2.673,1.188 3.836,0.916"
           style="fill:none;stroke:#caf5ff;stroke-width:0.776;stroke-linecap:round;stroke-linejoin:round;stroke-miterlimit:10;stroke-dasharray:none;stroke-opacity:1"
           id="path8054" />
      </g>
      <g
         id="g8056"
         transform="matrix(0.35277777,0,0,-0.35277777,14.520213,132.87563)">
        <path
           d="M 0,0 C 0.632,-0.37 1.724,-0.364 2.35,-0.764 3.089,-1.237 3.299,-2.077 2.63,-2.627"
           style="fill:none;stroke:#caf5ff;stroke-width:0.776;stroke-linecap:round;stroke-linejoin:round;stroke-miterlimit:10;stroke-dasharray:none;stroke-opacity:1"
           id="path8058" />
      </g>
      <g
         id="g8060"
         transform="matrix(0.35277777,0,0,-0.35277777,9.6648264,133.03957)">
        <path
           d="m 0,0 c -0.106,-1.368 -0.344,-2.801 0.005,-4.152 0.237,-0.915 0.836,-1.79 1.728,-2.102"
           style="fill:none;stroke:#caf5ff;stroke-width:0.776;stroke-linecap:round;stroke-linejoin:round;stroke-miterlimit:10;stroke-dasharray:none;stroke-opacity:1"
           id="path8062" />
      </g>
      <g
         id="g8064"
         transform="matrix(0.35277777,0,0,-0.35277777,6.9850912,131.71771)">
        <path
           d="M 0,0 C -0.709,-0.986 -1.249,-3.107 -0.177,-4.047"
           style="fill:none;stroke:#caf5ff;stroke-width:0.776;stroke-linecap:round;stroke-linejoin:round;stroke-miterlimit:10;stroke-dasharray:none;stroke-opacity:1"
           id="path8066" />
      </g>
      <g
         id="g8068"
         transform="matrix(0.35277777,0,0,-0.35277777,4.7177179,129.50177)">
        <path
           d="M 0,0 C -0.741,-0.667 -2.496,-2.798 -1.53,-3.843"
           style="fill:none;stroke:#caf5ff;stroke-width:0.776;stroke-linecap:round;stroke-linejoin:round;stroke-miterlimit:10;stroke-dasharray:none;stroke-opacity:1"
           id="path8070" />
      </g>
      <g
         id="g8072"
         transform="matrix(0.35277777,0,0,-0.35277777,17.333474,126.08318)">
        <path
           d="m 0,0 c -0.535,1.59 -2.243,1.315 -2.729,2.955 -1.201,4.051 2.119,5.374 2.693,11.241 1.024,10.481 -7.772,18.821 -18.155,17.249 -7.416,-1.123 -13.395,-6.9 -14.213,-14.473 -0.392,-3.622 0.912,-7.749 2.913,-10.768 0.525,-0.793 0.829,-1.365 0.843,-2.384 0.023,-1.75 -1.161,-1.949 -2.239,-3.152 -1.081,-1.207 -1.832,-2.376 -0.494,-3.773 0.75,-0.784 1.937,-1.063 3,-0.846 1.062,0.217 1.999,1.736 2.692,2.57 0.383,0.46 0.785,1.022 1.382,1.053 0.478,0.026 0.908,-0.324 1.146,-0.739 0.239,-0.415 0.334,-0.894 0.478,-1.35 0.386,-1.226 1.184,-2.357 2.321,-2.955 1.138,-0.597 2.625,-0.581 3.644,0.202 1.242,0.955 1.508,2.676 2.04,4.15 0.05,0.137 0.109,0.282 0.231,0.362 0.191,0.126 0.45,0.041 0.642,-0.082 1.118,-0.717 1.185,-2.342 2.025,-3.37 0.664,-0.813 1.836,-1.171 2.842,-0.867 1.005,0.303 1.784,1.249 1.888,2.295 0.051,0.515 -0.048,1.04 0.036,1.552 0.084,0.511 0.441,1.043 0.958,1.07 0.678,0.035 1.057,-1.588 1.478,-2.121 0.744,-0.941 2.146,-1.318 3.238,-0.819 1.091,0.499 1.723,1.863 1.34,3"
           style="fill:#51d4f2;fill-opacity:1;fill-rule:nonzero;stroke:none"
           id="path8074" />
      </g>
      <g
         id="g8076"
         transform="matrix(0.35277777,0,0,-0.35277777,15.4102,119.64477)">
        <path
           d="m 0,0 c 0,-1.507 -1.221,-2.728 -2.728,-2.728 -1.506,0 -2.728,1.221 -2.728,2.728 0,1.507 1.222,2.728 2.728,2.728 C -1.221,2.728 0,1.507 0,0"
           style="fill:#155284;fill-opacity:1;fill-rule:nonzero;stroke:none"
           id="path8078" />
      </g>
      <g
         id="g8080"
         transform="matrix(0.35277777,0,0,-0.35277777,14.811078,119.40467)">
        <path
           d="m 0,0 c 0,-0.753 -0.611,-1.364 -1.364,-1.364 -0.753,0 -1.364,0.611 -1.364,1.364 0,0.753 0.611,1.364 1.364,1.364 C -0.611,1.364 0,0.753 0,0"
           style="fill:#ffffff;fill-opacity:1;fill-rule:nonzero;stroke:none"
           id="path8082" />
      </g>
      <g
         id="g8084"
         transform="matrix(0.35277777,0,0,-0.35277777,11.009368,121.75565)">
        <path
           d="M 0,0 C -0.389,-1.059 0.497,-2.029 1.546,-2.084 2.759,-2.149 3.587,-1.085 3.41,0.08 3.399,0.151 3.301,0.124 3.294,0.064 3.175,-0.94 2.721,-1.925 1.546,-1.858 0.483,-1.797 0.055,-0.971 0.062,-0.008 0.063,0.029 0.012,0.032 0,0"
           style="fill:#155284;fill-opacity:1;fill-rule:nonzero;stroke:none"
           id="path8086" />
      </g>
      <g
         id="g8088"
         transform="matrix(0.35277777,0,0,-0.35277777,15.029236,121.37246)">
        <path
           d="m 0,0 c -0.513,0.53 -1.133,0.496 -1.72,0.474 -0.602,-0.023 -1.26,0.185 -1.814,-0.29 -0.278,-0.239 -0.522,-0.696 -0.471,-1.186 0.068,-0.655 0.578,-0.914 1.001,-0.987 0.872,-0.151 1.759,-0.082 2.617,0.202 0.263,0.087 0.556,0.234 0.671,0.614 C 0.431,-0.687 0.264,-0.273 0,0"
           style="fill:#f6a7a1;fill-opacity:1;fill-rule:nonzero;stroke:none"
           id="path8090" />
      </g>
      <g
         id="g8092"
         transform="matrix(0.35277777,0,0,-0.35277777,7.8820992,119.64477)">
        <path
           d="m 0,0 c 0,-1.507 1.221,-2.728 2.728,-2.728 1.506,0 2.728,1.221 2.728,2.728 0,1.507 -1.222,2.728 -2.728,2.728 C 1.221,2.728 0,1.507 0,0"
           style="fill:#155284;fill-opacity:1;fill-rule:nonzero;stroke:none"
           id="path8094" />
      </g>
      <g
         id="g8096"
         transform="matrix(0.35277777,0,0,-0.35277777,8.481257,119.40467)">
        <path
           d="m 0,0 c 0,-0.753 0.611,-1.364 1.364,-1.364 0.753,0 1.364,0.611 1.364,1.364 0,0.753 -0.611,1.364 -1.364,1.364 C 0.611,1.364 0,0.753 0,0"
           style="fill:#ffffff;fill-opacity:1;fill-rule:nonzero;stroke:none"
           id="path8098" />
      </g>
      <g
         id="g8100"
         transform="matrix(0.35277777,0,0,-0.35277777,8.2630286,121.37246)">
        <path
           d="M 0,0 C 0.513,0.53 1.133,0.496 1.72,0.474 2.322,0.451 2.98,0.659 3.534,0.184 3.813,-0.055 4.057,-0.512 4.006,-1.002 3.937,-1.657 3.427,-1.916 3.004,-1.989 2.133,-2.14 1.245,-2.071 0.387,-1.787 0.124,-1.7 -0.169,-1.553 -0.284,-1.173 -0.43,-0.687 -0.264,-0.273 0,0"
           style="fill:#f6a7a1;fill-opacity:1;fill-rule:nonzero;stroke:none"
           id="path8102" />
      </g>
      <g
         id="g8104"
         transform="matrix(0.35277777,0,0,-0.35277777,15.771339,117.10795)">
        <path
           d="M 0,0 C -0.883,2.039 -3.992,3.488 -6.12,3.466 -6.558,3.461 -7.03,3.398 -7.351,3.099 -7.739,2.737 -7.789,2.119 -7.613,1.618 c 0.176,-0.5 0.536,-0.911 0.888,-1.308 0.444,-0.502 0.888,-1.003 1.332,-1.504 0.351,-0.396 0.703,-0.794 1.11,-1.132 0.56,-0.468 1.239,-0.822 1.966,-0.883 0.728,-0.061 1.503,0.207 1.948,0.786 C 0.28,-1.577 0.326,-0.752 0,0"
           style="fill:#85e3ff;fill-opacity:1;fill-rule:nonzero;stroke:none"
           id="path8106" />
      </g>
      <g
         id="g8108"
         transform="matrix(0.35277777,0,0,-0.35277777,16.455552,119.0066)">
        <path
           d="m 0,0 c -0.205,1.76 -2.583,-0.146 -1.958,-1.807 0.148,-0.392 0.531,-0.725 0.948,-0.682 0.508,0.052 0.81,0.595 0.928,1.092 C 0.026,-0.941 0.054,-0.467 0,0"
           style="fill:#85e3ff;fill-opacity:1;fill-rule:nonzero;stroke:none"
           id="path8110" />
      </g>
      <g
         id="g8112"
         transform="matrix(0.35277777,0,0,-0.35277777,7.3966064,118.44409)">
        <path
           d="m 0,0 c -0.205,1.76 -2.583,-0.146 -1.958,-1.807 0.148,-0.392 0.531,-0.725 0.948,-0.682 0.508,0.052 0.81,0.595 0.928,1.092 C 0.026,-0.941 0.054,-0.467 0,0"
           style="fill:#85e3ff;fill-opacity:1;fill-rule:nonzero;stroke:none"
           id="path8114" />
      </g>
      <g
         id="g8116"
         transform="matrix(0.35277777,0,0,-0.35277777,8.6540475,116.95445)">
        <path
           d="m 0,0 c 1.116,2.41 -2.36,1.072 -3.038,-1.413 -0.16,-0.587 -0.07,-1.212 0.325,-1.36 0.481,-0.18 1.145,0.385 1.613,0.98 0.43,0.545 0.803,1.154 1.1,1.793"
           style="fill:#85e3ff;fill-opacity:1;fill-rule:nonzero;stroke:none"
           id="path8118" />
      </g>
      <g
         id="g8120"
         transform="matrix(0.35277777,0,0,-0.35277777,15.556462,118.63921)">
        <path
           d="M 0,0 C -0.078,0.215 -0.26,0.322 -0.484,0.249 -0.865,0.124 -1.309,-0.383 -0.992,-0.778 -0.668,-1.182 0.025,-0.836 0.052,-0.371 0.058,-0.283 0.048,-0.133 0,0"
           style="fill:#85e3ff;fill-opacity:1;fill-rule:nonzero;stroke:none"
           id="path8122" />
      </g>
      <g
         id="g8124"
         transform="matrix(0.35277777,0,0,-0.35277777,7.018605,119.97352)">
        <path
           d="M 0,0 C -0.078,0.215 -0.26,0.322 -0.484,0.249 -0.865,0.124 -1.309,-0.383 -0.992,-0.778 -0.668,-1.182 0.025,-0.836 0.052,-0.371 0.058,-0.283 0.048,-0.133 0,0"
           style="fill:#85e3ff;fill-opacity:1;fill-rule:nonzero;stroke:none"
           id="path8126" />
      </g>
    </g>
  </g>
</svg>
