<?xml version="1.0" encoding="UTF-8" standalone="no"?>
<!-- Created with Inkscape (http://www.inkscape.org/) -->

<svg
   width="27.333942mm"
   height="28.536943mm"
   viewBox="0 0 27.333942 28.536943"
   version="1.1"
   id="svg46531"
   inkscape:version="1.1-rc (52f87abb86, 2021-05-02)"
   sodipodi:docname="k-kangaroo.svg"
   xmlns:inkscape="http://www.inkscape.org/namespaces/inkscape"
   xmlns:sodipodi="http://sodipodi.sourceforge.net/DTD/sodipodi-0.dtd"
   xmlns="http://www.w3.org/2000/svg"
   xmlns:svg="http://www.w3.org/2000/svg">
  <sodipodi:namedview
     id="namedview46533"
     pagecolor="#ffffff"
     bordercolor="#666666"
     borderopacity="1.0"
     objecttolerance="10.0"
     gridtolerance="10.0"
     guidetolerance="10.0"
     inkscape:pageshadow="2"
     inkscape:pageopacity="0.0"
     inkscape:pagecheckerboard="0"
     inkscape:document-units="mm"
     showgrid="false"
     fit-margin-top="0"
     fit-margin-left="0"
     fit-margin-right="0"
     fit-margin-bottom="0"
     inkscape:zoom="0.94875842"
     inkscape:cx="-146.50726"
     inkscape:cy="261.92126"
     inkscape:window-width="3840"
     inkscape:window-height="2066"
     inkscape:window-x="2869"
     inkscape:window-y="-11"
     inkscape:window-maximized="1"
     inkscape:current-layer="layer1" />
  <defs
     id="defs46528" />
  <g
     inkscape:label="Layer 1"
     inkscape:groupmode="layer"
     id="layer1"
     transform="translate(-143.89641,-79.154064)">
    <g
       id="g26280"
       transform="translate(121.56053,-25.719793)">
      <g
         id="g8944"
         transform="matrix(0.35277777,0,0,-0.35277777,49.669825,106.78944)">
        <path
           d="m 0,0 c -4.235,-8.471 -12.599,-23.024 -21.179,-36.274 6.083,-9.666 13.251,-19.332 20.961,-26.065 l -9.991,-11.296 c -9.014,8.798 -17.051,20.527 -24.111,33.559 0,-10.426 0.109,-21.612 0.761,-32.147 l -14.88,1.63 c -0.543,11.837 -0.76,23.132 -0.76,34.645 0,14.118 0.326,28.129 1.087,38.446 l 14.878,-1.412 c -0.76,-9.448 -1.086,-20.743 -1.086,-33.342 8.689,14.337 16.834,29.433 20.635,37.686 z"
           style="fill:#914f13;fill-opacity:1;fill-rule:nonzero;stroke:none"
           id="path8946" />
      </g>
      <g
         id="g8948"
         transform="matrix(0.35277777,0,0,-0.35277777,32.445204,115.19617)">
        <path
           d="m 0,0 c 0,0 -2.965,-15.575 6.337,-27.083 l -7.462,2.331 c 0,0 -6.854,20.308 -6.915,20.645 -0.061,0.338 2.288,6.301 2.288,6.301 z"
           style="fill:#f8e6be;fill-opacity:1;fill-rule:nonzero;stroke:none"
           id="path8950" />
      </g>
      <g
         id="g8952"
         transform="matrix(0.35277777,0,0,-0.35277777,31.085775,111.54471)">
        <path
           d="M 0,0 C 0,0 -9.619,3.46 -9.957,6.835 -10.294,10.21 -2.813,6.77 0.169,1.069 Z"
           style="fill:#fc990a;fill-opacity:1;fill-rule:nonzero;stroke:none"
           id="path8954" />
      </g>
      <g
         id="g8956"
         transform="matrix(0.35277777,0,0,-0.35277777,31.108106,111.33633)">
        <path
           d="M 0,0 C 0,0 -4.356,6.329 -8.016,6.118 -9.652,6.023 -2.025,1.73 -0.548,0 Z"
           style="fill:#995027;fill-opacity:1;fill-rule:nonzero;stroke:none"
           id="path8958" />
      </g>
      <g
         id="g8960"
         transform="matrix(0.35277777,0,0,-0.35277777,36.741614,133.39407)">
        <path
           d="m 0,0 c -1.434,-0.128 -18.732,0 -20.336,0.422 -1.603,0.422 -0.972,1.434 -0.972,1.434 0,0 -4.131,-1.434 -7.338,-0.843 -3.206,0.59 -4.725,2.784 -5.569,8.1 -0.843,5.316 0.041,15.148 -2.069,15.948 -2.109,0.8 -4.094,-2.953 -4.512,-1.519 -0.425,1.435 2.656,6.582 7.044,3.882 4.388,-2.7 2.278,-14.261 4.921,-16.792 2.646,-2.531 5.569,1.239 5.626,4.837 0.058,3.601 -1.687,13.895 -2.082,22.84 -0.392,8.944 1.279,15.316 4.317,20.292 0.975,1.599 2.265,2.892 3.652,3.834 0.182,0.125 0.364,0.243 0.55,0.351 0.142,0.088 0.284,0.172 0.429,0.249 0.118,0.065 0.239,0.129 0.357,0.19 0.581,0.293 1.161,0.526 1.735,0.698 0.479,0.142 0.952,0.243 1.408,0.297 1.417,0.176 2.686,-0.081 3.557,-0.806 2.575,-2.154 2.994,-5.57 5.357,-9.073 2.362,-3.503 0.506,-5.778 -3.038,-6.582 -1.813,-0.411 -3.865,0.267 -5.529,1.276 -1.589,0.965 -2.825,2.235 -3.145,3.142 -0.368,-2.457 -0.74,-7.509 0.992,-13.5 0.3,-1.05 0.672,-2.13 1.117,-3.23 0.51,-1.263 1.121,-2.552 1.85,-3.855 1.306,-2.332 3.01,-4.408 4.961,-6.237 0.291,-0.27 0.581,-0.551 0.861,-0.837 0.003,-0.004 0.01,-0.011 0.013,-0.017 1.968,-2.005 3.639,-4.442 3.906,-8.006 0.04,-0.5 0.05,-1.02 0.03,-1.57 0,-0.04 -0.003,-0.084 -0.007,-0.125 C -1.92,14.649 -1.927,14.497 -1.941,14.345 -2.282,9.852 -4.999,6.504 -6.747,4.79 -7.56,3.99 -8.165,3.547 -8.222,3.507 L -8.225,3.504 C -0.928,3.375 1.434,0.128 0,0"
           style="fill:#fc990a;fill-opacity:1;fill-rule:nonzero;stroke:none"
           id="path8962" />
      </g>
      <g
         id="g8964"
         transform="matrix(0.35277777,0,0,-0.35277777,31.849821,111.02877)">
        <path
           d="m 0,0 c 0,0 -5.063,6.807 -4.388,8.607 0.675,1.8 5.738,-0.9 5.4,-8.607 z"
           style="fill:#fc990a;fill-opacity:1;fill-rule:nonzero;stroke:none"
           id="path8966" />
      </g>
      <g
         id="g8968"
         transform="matrix(0.35277777,0,0,-0.35277777,29.326719,132.66474)">
        <path
           d="M 0,0 C 0.115,1.101 0.969,2.074 1.494,3.008 1.526,3.065 1.448,3.13 1.4,3.08 0.908,2.556 0.551,1.941 0.237,1.298 0.039,0.893 -0.236,0.445 -0.15,-0.02 -0.133,-0.112 -0.008,-0.079 0,0"
           style="fill:#d17c0b;fill-opacity:1;fill-rule:nonzero;stroke:none"
           id="path8970" />
      </g>
      <g
         id="g8972"
         transform="matrix(0.35277777,0,0,-0.35277777,30.417331,127.6651)">
        <path
           d="m 0,0 c 2.242,2.872 4.557,4.718 8.347,5.214 2.014,0.264 4.554,0.433 6.01,-1.261 1.264,-1.471 1.496,-3.542 1.561,-5.392 0.004,-0.125 0.181,-0.121 0.192,0 0.367,3.906 -1.334,7.21 -5.531,7.218 C 7.233,5.786 0.704,4.096 -0.009,0.005 -0.01,0.001 -0.004,-0.005 0,0"
           style="fill:#d17c0b;fill-opacity:1;fill-rule:nonzero;stroke:none"
           id="path8974" />
      </g>
      <g
         id="g8976"
         transform="matrix(0.35277777,0,0,-0.35277777,29.83553,119.25453)">
        <path
           d="m 0,0 c 0,0 3.46,-1.477 5.949,-1.477 2.489,0 4.134,3.376 5.864,3.544 1.73,0.169 2.295,-1.111 1.921,-1.42 C 13.36,0.338 11.166,-0.225 10.379,-1.744 9.591,-3.263 7.032,-5.428 3.91,-4.388 Z"
           style="fill:#fc990a;fill-opacity:1;fill-rule:nonzero;stroke:none"
           id="path8978" />
      </g>
      <g
         id="g8980"
         transform="matrix(0.35277777,0,0,-0.35277777,34.509024,114.99773)">
        <path
           d="M 0,0 C 0,0 -3.164,-0.844 -2.405,-1.772 -1.645,-2.7 0.211,-2.953 0.802,-2.616 1.392,-2.278 3.249,1.224 0,0"
           style="fill:#995027;fill-opacity:1;fill-rule:nonzero;stroke:none"
           id="path8982" />
      </g>
      <g
         id="g8984"
         transform="matrix(0.35277777,0,0,-0.35277777,29.468712,120.20276)">
        <path
           d="m 0,0 c 0.389,-0.725 1.404,-1.058 2.143,-1.293 1.524,-0.485 3.263,-0.734 4.86,-0.691 0.111,0.003 0.112,0.176 0,0.174 C 4.381,-1.85 2.263,-1.235 0.043,0.043 0.015,0.059 -0.015,0.028 0,0"
           style="fill:#d17c0b;fill-opacity:1;fill-rule:nonzero;stroke:none"
           id="path8986" />
      </g>
      <g
         id="g8988"
         transform="matrix(0.35277777,0,0,-0.35277777,29.983909,119.17445)">
        <path
           d="m 0,0 c 0.752,-0.252 1.514,-0.497 2.274,-0.735 0.763,-0.238 1.428,-0.7 2.184,-0.919 0.072,-0.021 0.102,0.09 0.031,0.112 C 3.633,-1.278 2.87,-0.767 2.028,-0.46 1.414,-0.236 0.655,0.26 0,0.01 -0.005,0.008 -0.005,0.002 0,0"
           style="fill:#d17c0b;fill-opacity:1;fill-rule:nonzero;stroke:none"
           id="path8990" />
      </g>
      <g
         id="g8992"
         transform="matrix(0.35277777,0,0,-0.35277777,30.770462,113.43493)">
        <path
           d="m 0,0 c -0.181,-2.011 1.073,-5.092 2.684,-6.317 0.049,-0.037 0.119,0.036 0.085,0.085 -0.784,1.102 -1.511,2.079 -2,3.362 C 0.414,-1.935 0.225,-0.972 0.016,0.002 0.014,0.011 0.001,0.008 0,0"
           style="fill:#d17c0b;fill-opacity:1;fill-rule:nonzero;stroke:none"
           id="path8994" />
      </g>
      <g
         id="g8996"
         transform="matrix(0.35277777,0,0,-0.35277777,31.532286,112.74535)">
        <path
           d="m 0,0 c 0,0 -1.069,-0.731 -0.45,-1.631 0.619,-0.9 1.896,-0.369 2.186,0 C 2.067,-1.209 1.941,0.984 0,0"
           style="fill:#ffffff;fill-opacity:1;fill-rule:nonzero;stroke:none"
           id="path8998" />
      </g>
      <g
         id="g9000"
         transform="matrix(0.35277777,0,0,-0.35277777,31.780288,112.88022)">
        <path
           d="m 0,0 c 0,0 -0.392,-0.269 -0.165,-0.599 0.227,-0.33 0.696,-0.135 0.802,0 C 0.759,-0.444 0.713,0.361 0,0"
           style="fill:#474747;fill-opacity:1;fill-rule:nonzero;stroke:none"
           id="path9002" />
      </g>
      <g
         id="g9004"
         transform="matrix(0.35277777,0,0,-0.35277777,33.251372,111.97884)">
        <path
           d="m 0,0 c 0,0 -1.069,-0.731 -0.45,-1.631 0.619,-0.9 1.895,-0.369 2.186,0 C 2.067,-1.209 1.941,0.984 0,0"
           style="fill:#ffffff;fill-opacity:1;fill-rule:nonzero;stroke:none"
           id="path9006" />
      </g>
      <g
         id="g9008"
         transform="matrix(0.35277777,0,0,-0.35277777,33.499374,112.11371)">
        <path
           d="m 0,0 c 0,0 -0.392,-0.269 -0.165,-0.599 0.227,-0.33 0.696,-0.135 0.802,0 C 0.759,-0.444 0.712,0.361 0,0"
           style="fill:#474747;fill-opacity:1;fill-rule:nonzero;stroke:none"
           id="path9010" />
      </g>
      <g
         id="g9012"
         transform="matrix(0.35277777,0,0,-0.35277777,31.192808,112.72218)">
        <path
           d="m 0,0 c 0.171,0.398 0.3,0.614 0.747,0.742 0.255,0.073 0.554,0.037 0.787,0.157 0.056,0.028 0.06,0.125 0,0.152 C 1.01,1.294 -0.257,0.687 -0.017,0.002 -0.015,-0.004 -0.003,-0.008 0,0"
           style="fill:#995027;fill-opacity:1;fill-rule:nonzero;stroke:none"
           id="path9014" />
      </g>
      <g
         id="g9016"
         transform="matrix(0.35277777,0,0,-0.35277777,32.94195,111.91767)">
        <path
           d="M 0,0 C 0.08,0.33 0.29,0.643 0.618,0.745 0.926,0.839 1.226,0.696 1.536,0.751 1.617,0.765 1.635,0.897 1.56,0.932 1.162,1.116 0.61,1.098 0.269,0.801 0.078,0.635 -0.271,0.229 -0.015,-0.004 -0.01,-0.009 -0.002,-0.007 0,0"
           style="fill:#995027;fill-opacity:1;fill-rule:nonzero;stroke:none"
           id="path9018" />
      </g>
      <g
         id="g9020"
         transform="matrix(0.35277777,0,0,-0.35277777,29.056209,113.71239)">
        <path
           d="M 0,0 C 0.422,0.399 0.724,1.033 0.937,1.567 0.973,1.658 0.839,1.696 0.79,1.629 0.457,1.174 0.044,0.599 -0.064,0.037 -0.071,0 -0.029,-0.027 0,0"
           style="fill:#ff7f00;fill-opacity:1;fill-rule:nonzero;stroke:none"
           id="path9022" />
      </g>
      <g
         id="g9024"
         transform="matrix(0.35277777,0,0,-0.35277777,29.436221,113.00588)">
        <path
           d="M 0,0 C 0.309,0.323 0.588,0.684 0.862,1.037 0.935,1.132 0.822,1.254 0.727,1.171 0.385,0.874 0.186,0.447 -0.099,0.099 -0.155,0.031 -0.063,-0.066 0,0"
           style="fill:#ff7f00;fill-opacity:1;fill-rule:nonzero;stroke:none"
           id="path9026" />
      </g>
      <g
         id="g9028"
         transform="matrix(0.35277777,0,0,-0.35277777,29.870491,112.38337)">
        <path
           d="M 0,0 C 0.316,0.374 0.723,0.705 1.008,1.099 1.072,1.187 0.946,1.308 0.858,1.248 0.479,0.993 -0.1,0.553 -0.137,0.057 -0.142,-0.01 -0.044,-0.052 0,0"
           style="fill:#ff7f00;fill-opacity:1;fill-rule:nonzero;stroke:none"
           id="path9030" />
      </g>
      <g
         id="g9032"
         transform="matrix(0.35277777,0,0,-0.35277777,28.216704,116.6698)">
        <path
           d="M 0,0 C 0.099,0.461 0.085,0.959 0.014,1.425 0.004,1.49 -0.108,1.49 -0.118,1.425 -0.189,0.96 -0.203,0.462 -0.104,0 -0.093,-0.052 -0.011,-0.052 0,0"
           style="fill:#ff7f00;fill-opacity:1;fill-rule:nonzero;stroke:none"
           id="path9034" />
      </g>
      <g
         id="g9036"
         transform="matrix(0.35277777,0,0,-0.35277777,28.273536,115.9297)">
        <path
           d="M 0,0 C 0.226,0.341 0.295,0.748 0.377,1.142 0.396,1.234 0.265,1.301 0.218,1.209 0.028,0.84 -0.112,0.447 -0.096,0.026 -0.094,-0.026 -0.028,-0.043 0,0"
           style="fill:#ff7f00;fill-opacity:1;fill-rule:nonzero;stroke:none"
           id="path9038" />
      </g>
      <g
         id="g9040"
         transform="matrix(0.35277777,0,0,-0.35277777,24.4272,123.87373)">
        <path
           d="M 0,0 C 0.418,-0.083 0.709,-0.322 1.073,-0.517 1.15,-0.559 1.235,-0.458 1.169,-0.393 0.868,-0.099 0.439,0.202 0,0.114 -0.057,0.103 -0.057,0.011 0,0"
           style="fill:#ff7f00;fill-opacity:1;fill-rule:nonzero;stroke:none"
           id="path9042" />
      </g>
      <g
         id="g9044"
         transform="matrix(0.35277777,0,0,-0.35277777,25.001981,124.21388)">
        <path
           d="M 0,0 C 0.08,-0.448 0.318,-0.926 0.523,-1.332 0.554,-1.393 0.645,-1.361 0.646,-1.299 0.657,-0.819 0.4,-0.296 0.055,0.032 0.03,0.056 -0.006,0.032 0,0"
           style="fill:#ff7f00;fill-opacity:1;fill-rule:nonzero;stroke:none"
           id="path9046" />
      </g>
      <g
         id="g9048"
         transform="matrix(0.35277777,0,0,-0.35277777,24.953756,124.64649)">
        <path
           d="M 0,0 C 0.076,-0.42 0.208,-0.867 0.399,-1.25 0.439,-1.331 0.551,-1.271 0.536,-1.192 0.461,-0.776 0.32,-0.318 0.08,0.034 0.051,0.075 -0.009,0.049 0,0"
           style="fill:#ff7f00;fill-opacity:1;fill-rule:nonzero;stroke:none"
           id="path9050" />
      </g>
      <g
         id="g9052"
         transform="matrix(0.35277777,0,0,-0.35277777,25.303253,124.885)">
        <path
           d="M 0,0 C 0.185,-0.358 0.135,-0.757 0.302,-1.118 0.336,-1.191 0.432,-1.134 0.423,-1.067 0.365,-0.664 0.294,-0.302 0.043,0.025 0.024,0.05 -0.015,0.029 0,0"
           style="fill:#ff7f00;fill-opacity:1;fill-rule:nonzero;stroke:none"
           id="path9054" />
      </g>
      <g
         id="g9056"
         transform="matrix(0.35277777,0,0,-0.35277777,25.242999,125.37173)">
        <path
           d="M 0,0 C -0.021,-0.456 0.003,-0.977 0.194,-1.399 0.232,-1.483 0.385,-1.444 0.373,-1.35 0.315,-0.897 0.233,-0.406 0.044,0.012 0.034,0.035 0.001,0.021 0,0"
           style="fill:#ff7f00;fill-opacity:1;fill-rule:nonzero;stroke:none"
           id="path9058" />
      </g>
      <g
         id="g9060"
         transform="matrix(0.35277777,0,0,-0.35277777,25.549563,125.53147)">
        <path
           d="M 0,0 C -0.094,-0.418 0.035,-0.933 0.113,-1.346 0.135,-1.466 0.298,-1.422 0.31,-1.319 0.358,-0.891 0.254,-0.381 0.077,0.01 0.062,0.043 0.008,0.034 0,0"
           style="fill:#ff7f00;fill-opacity:1;fill-rule:nonzero;stroke:none"
           id="path9062" />
      </g>
      <g
         id="g9064"
         transform="matrix(0.35277777,0,0,-0.35277777,25.501338,126.36399)">
        <path
           d="M 0,0 C -0.184,-0.504 0.017,-1.18 0.06,-1.702 0.07,-1.823 0.267,-1.873 0.291,-1.733 0.38,-1.192 0.246,-0.522 0.102,0 0.087,0.053 0.017,0.047 0,0"
           style="fill:#ff7f00;fill-opacity:1;fill-rule:nonzero;stroke:none"
           id="path9066" />
      </g>
      <g
         id="g9068"
         transform="matrix(0.35277777,0,0,-0.35277777,25.302371,126.66427)">
        <path
           d="M 0,0 C -0.203,-0.49 -0.185,-1.313 0.069,-1.784 0.113,-1.867 0.249,-1.83 0.246,-1.736 0.229,-1.193 0.197,-0.524 0.048,0 0.041,0.026 0.009,0.022 0,0"
           style="fill:#ff7f00;fill-opacity:1;fill-rule:nonzero;stroke:none"
           id="path9070" />
      </g>
      <g
         id="g9072"
         transform="matrix(0.35277777,0,0,-0.35277777,25.629044,127.34714)">
        <path
           d="m 0,0 c 0.086,-0.522 0.081,-1.048 0.133,-1.573 0.008,-0.08 0.115,-0.079 0.124,0 0.064,0.545 0.059,1.094 -0.036,1.634 C 0.196,0.207 -0.024,0.144 0,0"
           style="fill:#ff7f00;fill-opacity:1;fill-rule:nonzero;stroke:none"
           id="path9074" />
      </g>
      <g
         id="g9076"
         transform="matrix(0.35277777,0,0,-0.35277777,25.389966,127.6638)">
        <path
           d="m 0,0 c -0.069,-0.599 0.046,-1.206 0.17,-1.791 0.018,-0.084 0.138,-0.059 0.143,0.019 0.033,0.6 -0.15,1.194 -0.256,1.78 C 0.051,0.043 0.003,0.03 0,0"
           style="fill:#ff7f00;fill-opacity:1;fill-rule:nonzero;stroke:none"
           id="path9078" />
      </g>
      <g
         id="g9080"
         transform="matrix(0.35277777,0,0,-0.35277777,25.722036,128.34847)">
        <path
           d="M 0,0 C 0.037,-0.312 0.045,-0.622 0.165,-0.915 0.206,-1.017 0.387,-1.019 0.377,-0.886 0.354,-0.59 0.318,-0.295 0.285,0 0.265,0.181 -0.022,0.181 0,0"
           style="fill:#ff7f00;fill-opacity:1;fill-rule:nonzero;stroke:none"
           id="path9082" />
      </g>
      <g
         id="g9084"
         transform="matrix(0.35277777,0,0,-0.35277777,29.261596,119.91779)">
        <path
           d="M 0,0 C 0.113,-0.096 0.121,-0.106 0.254,-0.172 0.385,-0.238 0.512,-0.08 0.41,0.031 0.354,0.101 0.289,0.163 0.216,0.216 0.067,0.341 -0.15,0.129 0,0"
           style="fill:#ff7f00;fill-opacity:1;fill-rule:nonzero;stroke:none"
           id="path9086" />
      </g>
      <g
         id="g9088"
         transform="matrix(0.35277777,0,0,-0.35277777,30.118352,118.9559)">
        <path
           d="m 0,0 c 0.515,-0.034 0.955,-0.253 1.447,-0.364 0.13,-0.029 0.185,0.13 0.086,0.205 C 1.104,0.164 0.497,0.245 -0.022,0.161 -0.117,0.145 -0.087,0.006 0,0"
           style="fill:#ff7f00;fill-opacity:1;fill-rule:nonzero;stroke:none"
           id="path9090" />
      </g>
      <g
         id="g9092"
         transform="matrix(0.35277777,0,0,-0.35277777,30.802988,118.93301)">
        <path
           d="M 0,0 C 0.022,0 0.022,0.034 0,0.034 -0.022,0.034 -0.022,0 0,0"
           style="fill:#ff7f00;fill-opacity:1;fill-rule:nonzero;stroke:none"
           id="path9094" />
      </g>
      <g
         id="g9096"
         transform="matrix(0.35277777,0,0,-0.35277777,31.843012,115.41447)">
        <path
           d="M 0,0 C -0.034,-0.436 0.649,-0.823 0.987,-0.957 1.106,-1.004 1.169,-0.84 1.101,-0.761 0.959,-0.596 0.783,-0.498 0.606,-0.375 0.42,-0.247 0.264,-0.074 0.071,0.041 0.039,0.061 0.003,0.035 0,0"
           style="fill:#ff7f00;fill-opacity:1;fill-rule:nonzero;stroke:none"
           id="path9098" />
      </g>
      <g
         id="g9100"
         transform="matrix(0.35277777,0,0,-0.35277777,31.433367,114.93762)">
        <path
           d="M 0,0 C 0.19,-0.288 0.358,-0.531 0.682,-0.667 0.759,-0.7 0.804,-0.589 0.757,-0.537 0.556,-0.314 0.353,-0.1 0.126,0.097 0.061,0.154 -0.053,0.081 0,0"
           style="fill:#ff7f00;fill-opacity:1;fill-rule:nonzero;stroke:none"
           id="path9102" />
      </g>
      <g
         id="g9104"
         transform="matrix(0.35277777,0,0,-0.35277777,32.532552,116.02167)">
        <path
           d="m 0,0 c 0.381,-0.36 0.993,-0.489 1.491,-0.584 0.077,-0.014 0.128,0.088 0.055,0.131 -0.442,0.261 -0.996,0.45 -1.5,0.532 C 0.003,0.086 -0.038,0.036 0,0"
           style="fill:#ff7f00;fill-opacity:1;fill-rule:nonzero;stroke:none"
           id="path9106" />
      </g>
      <g
         id="g9108"
         transform="matrix(0.35277777,0,0,-0.35277777,34.361387,131.70444)">
        <path
           d="m 0,0 c -0.813,-0.8 -1.418,-1.242 -1.475,-1.283 l -0.003,-0.003 c 0,0 -4.321,-0.155 -6.484,-0.635 0,0 3.615,1.691 7.962,1.921"
           style="fill:#ea8a0a;fill-opacity:1;fill-rule:nonzero;stroke:none"
           id="path9110" />
      </g>
    </g>
  </g>
</svg>
