<?xml version="1.0" encoding="UTF-8" standalone="no"?>
<!-- Created with Inkscape (http://www.inkscape.org/) -->

<svg
   width="26.790646mm"
   height="26.743378mm"
   viewBox="0 0 26.790646 26.743378"
   version="1.1"
   id="svg47314"
   inkscape:version="1.1-rc (52f87abb86, 2021-05-02)"
   sodipodi:docname="l-lion.svg"
   xmlns:inkscape="http://www.inkscape.org/namespaces/inkscape"
   xmlns:sodipodi="http://sodipodi.sourceforge.net/DTD/sodipodi-0.dtd"
   xmlns="http://www.w3.org/2000/svg"
   xmlns:svg="http://www.w3.org/2000/svg">
  <sodipodi:namedview
     id="namedview47316"
     pagecolor="#ffffff"
     bordercolor="#666666"
     borderopacity="1.0"
     objecttolerance="10.0"
     gridtolerance="10.0"
     guidetolerance="10.0"
     inkscape:pageshadow="2"
     inkscape:pageopacity="0.0"
     inkscape:pagecheckerboard="0"
     inkscape:document-units="mm"
     showgrid="false"
     fit-margin-top="0"
     fit-margin-left="0"
     fit-margin-right="0"
     fit-margin-bottom="0"
     inkscape:zoom="0.94875842"
     inkscape:cx="-140.18321"
     inkscape:cy="156.52035"
     inkscape:window-width="3840"
     inkscape:window-height="2066"
     inkscape:window-x="2869"
     inkscape:window-y="-11"
     inkscape:window-maximized="1"
     inkscape:current-layer="layer1" />
  <defs
     id="defs47311">
    <clipPath
       clipPathUnits="userSpaceOnUse"
       id="clipPath2956">
      <path
         d="m 467.223,329.871 h 48.781 v -46.627 h -48.781 z"
         id="path2954" />
    </clipPath>
    <clipPath
       clipPathUnits="userSpaceOnUse"
       id="clipPath3148">
      <path
         d="m 475.547,321.465 h 34.357 v -34.901 h -34.357 z"
         id="path3146" />
    </clipPath>
    <clipPath
       clipPathUnits="userSpaceOnUse"
       id="clipPath3312">
      <path
         d="m 492.839,295.195 h 0.468 v -1.909 h -0.468 z"
         id="path3310" />
    </clipPath>
    <clipPath
       clipPathUnits="userSpaceOnUse"
       id="clipPath3344">
      <path
         d="m 491.753,292.884 h 2.542 v -1.635 h -2.542 z"
         id="path3342" />
    </clipPath>
  </defs>
  <g
     inkscape:label="Layer 1"
     inkscape:groupmode="layer"
     id="layer1"
     transform="translate(-142.21595,-107.10155)">
    <g
       id="g26546"
       transform="translate(74.972107,1.8066814)">
      <g
         id="g2810"
         transform="matrix(0.35277777,0,0,-0.35277777,67.742313,131.69323)">
        <path
           d="m 0,0 c -0.87,13.793 -1.413,27.694 -1.413,41.162 0,11.294 0.327,22.589 1.195,33.668 l 14.445,-1.304 c -1.086,-12.49 -1.629,-24.762 -1.629,-36.709 0,-7.928 0,-16.073 0.543,-24.11 6.082,0.869 13.033,1.52 19.223,2.172 L 34.536,2.28 C 27.803,1.52 21.178,0.543 11.512,-0.978 Z"
           style="fill:#a55308;fill-opacity:1;fill-rule:nonzero;stroke:none"
           id="path2812" />
      </g>
      <g
         id="g2814"
         transform="matrix(0.35277777,0,0,-0.35277777,90.666307,128.97154)">
        <path
           d="m 0,0 c -0.735,-1.514 -2.128,-2.61 -3.697,-2.906 -1.568,-0.297 -3.281,0.211 -4.544,1.348 l 0.199,1.507 c 1.294,-1.155 2.956,-1.926 4.575,-1.726 1.618,0.199 3.113,1.538 3.274,3.302"
           style="fill:#ffb940;fill-opacity:1;fill-rule:nonzero;stroke:none"
           id="path2816" />
      </g>
      <g
         id="g2818"
         transform="matrix(0.35277777,0,0,-0.35277777,90.513836,129.05819)">
        <path
           d="M 0,0 C 0.872,0.251 1.493,0.327 2.119,1.017 2.22,1.128 3.135,2.074 2.932,2.325 2.738,2.411 2.587,2.187 1.887,1.586 2.035,2.594 1.941,4.051 1.586,5.094 1.469,5.437 0.992,5.45 0.839,5.122 0.629,4.669 0.502,4.172 0.502,4.172 c 0,0 -0.03,0.125 -0.08,0.304 C 0.316,4.861 -0.22,4.868 -0.348,4.491 -0.581,3.806 -0.755,3.097 -0.869,2.373 -0.927,2.423 -0.987,2.472 -1.048,2.519 -1.372,2.771 -1.835,2.438 -1.677,2.059 -1.536,1.723 -1.344,1.407 -1.124,1.124 -0.7,0.577 -0.519,0.44 0,0"
           style="fill:#dd7303;fill-opacity:1;fill-rule:nonzero;stroke:none"
           id="path2820" />
      </g>
      <g
         id="g2822"
         transform="matrix(0.35277777,0,0,-0.35277777,90.93918,127.72606)">
        <path
           d="m 0,0 c -0.254,-1.229 -0.547,-2.611 -1.134,-3.693 -0.041,-0.077 -0.162,-0.021 -0.137,0.068 0.351,1.239 0.849,2.399 1.139,3.67 C -0.111,0.137 0.019,0.092 0,0"
           style="fill:#fc9d06;fill-opacity:1;fill-rule:nonzero;stroke:none"
           id="path2824" />
      </g>
      <g
         id="g2826"
         transform="matrix(0.35277777,0,0,-0.35277777,91.319298,128.49194)">
        <path
           d="m 0,0 c -0.54,-0.758 -1.24,-1.297 -2.09,-1.587 -0.144,-0.049 -0.205,0.202 -0.062,0.252 0.797,0.28 1.461,0.779 1.978,1.486 C -0.099,0.254 0.075,0.105 0,0"
           style="fill:#fc9d06;fill-opacity:1;fill-rule:nonzero;stroke:none"
           id="path2828" />
      </g>
      <g
         id="g2830"
         transform="matrix(0.35277777,0,0,-0.35277777,90.534473,127.45333)">
        <path
           d="m 0,0 c 0.001,-1.316 0.051,-2.666 -0.079,-3.969 -0.008,-0.075 -0.106,-0.073 -0.11,0.005 -0.076,1.319 0.031,2.658 0.088,3.969 C -0.098,0.075 0,0.071 0,0"
           style="fill:#fc9d06;fill-opacity:1;fill-rule:nonzero;stroke:none"
           id="path2832" />
      </g>
      <g
         id="g2834"
         transform="matrix(0.35277777,0,0,-0.35277777,90.076356,128.23632)">
        <path
           d="M 0,0 C 0.506,-0.563 1.341,-1.371 1.366,-2.207 1.37,-2.335 1.222,-2.348 1.162,-2.258 0.949,-1.94 0.827,-1.549 0.625,-1.217 0.397,-0.839 0.129,-0.493 -0.138,-0.147 -0.221,-0.04 -0.092,0.103 0,0"
           style="fill:#fc9d06;fill-opacity:1;fill-rule:nonzero;stroke:none"
           id="path2836" />
      </g>
      <g
         id="g2838"
         transform="matrix(0.35277777,0,0,-0.35277777,81.823332,126.96808)">
        <path
           d="m 0,0 c -1.057,-1.716 -1.875,-3.61 -2.416,-5.596 -0.214,-0.786 -0.385,-1.632 -0.172,-2.418 0.124,-0.456 0.369,-0.86 0.652,-1.22 1.173,-1.495 2.967,-2.249 4.745,-2.528 1.778,-0.279 3.585,-0.14 5.382,-0.156 2.307,-0.02 4.666,-0.292 6.883,0.41 0.678,0.216 1.34,0.525 1.901,0.994 1.617,1.353 2.144,3.859 1.793,6.059 -0.352,2.201 -1.432,4.169 -2.54,6.042"
           style="fill:#ffb940;fill-opacity:1;fill-rule:nonzero;stroke:none"
           id="path2840" />
      </g>
      <g
         id="g2842"
         transform="matrix(0.35277777,0,0,-0.35277777,81.823332,126.91728)">
        <path
           d="m 0,0 c -0.636,-0.938 -1.173,-2.265 -1.627,-3.303 2.866,-1.089 5.952,-1.258 9.022,-1.257 3.476,0 6.935,0.62 10.266,1.615 0.249,0.074 0.384,0.115 0.634,0.205 -0.5,1.469 -1.215,2.872 -2.067,4.183 z"
           style="fill:#f7a731;fill-opacity:1;fill-rule:nonzero;stroke:none"
           id="path2844" />
      </g>
      <g
         id="g2846"
         transform="matrix(0.35277777,0,0,-0.35277777,82.773186,129.69403)">
        <path
           d="M 0,0 C 0.049,-0.619 0.357,-1.163 0.656,-1.678 1.012,-2.29 1.368,-2.903 1.723,-3.515 1.876,-3.777 2.041,-4.053 2.29,-4.182 2.437,-4.258 2.602,-4.276 2.763,-4.293 3.33,-4.352 3.897,-4.411 4.465,-4.47 c 0.155,-0.016 0.342,-0.016 0.43,0.134 0.054,0.092 0.05,0.213 0.045,0.324 -0.092,1.984 -0.185,3.969 -0.278,5.953"
           style="fill:#ffb940;fill-opacity:1;fill-rule:nonzero;stroke:none"
           id="path2848" />
      </g>
      <g
         id="g2850"
         transform="matrix(0.35277777,0,0,-0.35277777,82.738438,129.69403)">
        <path
           d="m 0,0 c 0.086,-1.312 0.983,-2.583 1.649,-3.626 0.617,-0.966 1.222,-0.896 2.276,-1.007 1.04,-0.11 1.35,-0.077 1.302,1.117 C 5.155,-1.695 5.175,0.189 4.928,1.991 4.897,2.212 4.597,2.144 4.588,1.941 4.541,0.872 4.645,-0.215 4.697,-1.284 4.724,-1.853 4.805,-2.452 4.78,-3.02 4.788,-3.185 4.796,-3.351 4.804,-3.516 4.827,-4.169 4.605,-4.395 4.138,-4.195 3.007,-4.328 2.154,-3.676 1.565,-2.671 1.059,-1.809 0.452,-0.968 0.193,0.029 0.164,0.142 -0.008,0.125 0,0"
           style="fill:#f7a731;fill-opacity:1;fill-rule:nonzero;stroke:none"
           id="path2852" />
      </g>
      <g
         id="g2854"
         transform="matrix(0.35277777,0,0,-0.35277777,85.331178,129.4551)">
        <path
           d="m 0,0 c 0.006,-1.573 0.011,-3.146 0.017,-4.719 0,-0.114 0.004,-0.241 0.07,-0.325 0.069,-0.089 0.182,-0.102 0.284,-0.106 0.463,-0.017 0.928,0.02 1.385,0.111 0.139,0.028 0.28,0.061 0.404,0.14 0.319,0.204 0.455,0.652 0.573,1.058 0.447,1.545 1.01,3.045 1.68,4.475"
           style="fill:#ffb940;fill-opacity:1;fill-rule:nonzero;stroke:none"
           id="path2856" />
      </g>
      <g
         id="g2858"
         transform="matrix(0.35277777,0,0,-0.35277777,85.268666,129.4551)">
        <path
           d="M 0,0 C -0.003,-0.858 -0.007,-1.716 -0.01,-2.574 -0.012,-3.255 -0.2,-4.255 0,-4.893 c 0.226,-0.721 1.011,-0.511 1.589,-0.433 0.915,0.122 1.219,0.483 1.526,1.422 0.494,1.516 1.13,2.981 1.606,4.498 C 4.774,0.763 4.556,0.841 4.473,0.709 3.979,-0.076 3.637,-0.985 3.32,-1.872 3.004,-2.752 2.818,-4.39 1.981,-4.792 1.865,-4.848 0.736,-5.082 0.548,-4.923 0.234,-4.657 0.394,-3.822 0.391,-3.432 0.382,-2.288 0.367,-1.144 0.354,0 0.352,0.251 0.001,0.251 0,0"
           style="fill:#f7a731;fill-opacity:1;fill-rule:nonzero;stroke:none"
           id="path2860" />
      </g>
      <g
         id="g2862"
         transform="matrix(0.35277777,0,0,-0.35277777,84.956175,110.74789)">
        <path
           d="m 0,0 c -0.611,-0.104 -1.211,-0.26 -1.793,-0.47 -2.081,-0.75 -3.91,-2.135 -6.082,-2.59 -2.653,-0.556 -5.839,0.227 -7.818,-1.563 -1.15,-1.041 -1.509,-2.685 -2.579,-3.803 -1.602,-1.673 -4.528,-1.905 -5.752,-3.851 -1.086,-1.726 -0.324,-4.02 -1.055,-5.911 -0.549,-1.422 -1.916,-2.538 -2.084,-4.047 -0.171,-1.542 0.975,-2.957 1.057,-4.506 0.081,-1.528 -0.882,-3.021 -0.586,-4.524 0.262,-1.324 1.427,-2.289 2.07,-3.487 0.819,-1.526 0.794,-3.439 1.906,-4.783 1.295,-1.565 3.646,-1.808 5.4,-2.882 2.202,-1.349 3.398,-3.977 5.769,-5.03 2.676,-1.189 5.848,0.039 8.75,-0.46 2.115,-0.363 4.173,-1.645 6.255,-1.133 1.493,0.367 2.589,1.583 3.974,2.234 1.76,0.829 3.817,0.685 5.775,0.741 1.958,0.057 4.119,0.446 5.306,1.947 1.266,1.602 0.989,3.922 2.023,5.672 1.24,2.097 4.156,3.04 4.975,5.321 0.828,2.307 -0.9,4.699 -1.154,7.129 -0.093,0.898 0.019,1.801 0.199,2.683 0.184,0.901 0.438,1.786 0.636,2.684 0.193,0.874 0.335,1.769 0.28,2.665 -0.026,0.418 -0.12,0.818 -0.197,1.226 -0.064,0.339 -0.181,0.667 -0.335,0.976 -0.317,0.636 -0.783,1.191 -1.268,1.714 -0.508,0.547 -1.048,1.067 -1.537,1.63 -0.404,0.467 -0.776,0.966 -1.038,1.521 -0.874,1.846 -0.541,4.275 -2.089,5.649 -1.738,1.543 -4.54,0.669 -6.832,1.224 -1.885,0.458 -3.333,1.87 -5.012,2.815 C 5.026,-0.005 2.435,0.415 0,0"
           style="fill:#dd7303;fill-opacity:1;fill-rule:nonzero;stroke:none"
           id="path2864" />
      </g>
      <g
         id="g2866"
         transform="matrix(0.35277777,0,0,-0.35277777,75.887423,121.74803)">
        <path
           d="M 0,0 C 4.69,1.599 9.403,3.285 14.198,4.543 14.337,4.58 14.419,4.349 14.28,4.3 9.595,2.658 4.801,1.298 0.084,-0.251 -0.058,-0.298 -0.144,-0.049 0,0"
           style="fill:#fc9d06;fill-opacity:1;fill-rule:nonzero;stroke:none"
           id="path2868" />
      </g>
      <g
         id="g2870"
         transform="matrix(0.35277777,0,0,-0.35277777,75.763033,118.54647)">
        <path
           d="M 0,0 C 5.229,-1.289 10.626,-2.141 15.763,-3.768 15.932,-3.822 15.844,-4.064 15.677,-4.026 10.432,-2.82 5.1,-1.714 -0.057,-0.17 -0.169,-0.137 -0.111,0.027 0,0"
           style="fill:#fc9d06;fill-opacity:1;fill-rule:nonzero;stroke:none"
           id="path2872" />
      </g>
      <g
         id="g2874"
         transform="matrix(0.35277777,0,0,-0.35277777,77.124085,116.52819)">
        <path
           d="M 0,0 C 3.829,-2.409 7.916,-4.429 11.706,-6.886 11.85,-6.98 11.732,-7.245 11.569,-7.167 7.502,-5.202 3.606,-2.72 -0.17,-0.254 -0.336,-0.147 -0.167,0.105 0,0"
           style="fill:#fc9d06;fill-opacity:1;fill-rule:nonzero;stroke:none"
           id="path2876" />
      </g>
      <g
         id="g2878"
         transform="matrix(0.35277777,0,0,-0.35277777,78.360889,114.94185)">
        <path
           d="m 0,0 c 3.866,-2.932 7.765,-5.933 11.259,-9.31 0.11,-0.107 -0.061,-0.303 -0.181,-0.204 -3.756,3.091 -7.369,6.327 -11.2,9.332 C -0.231,-0.096 -0.113,0.085 0,0"
           style="fill:#fc9d06;fill-opacity:1;fill-rule:nonzero;stroke:none"
           id="path2880" />
      </g>
      <g
         id="g2882"
         transform="matrix(0.35277777,0,0,-0.35277777,82.941038,112.14948)">
        <path
           d="M 0,0 C 1.027,-3.318 2.502,-6.504 3.446,-9.841 3.481,-9.965 3.29,-10.061 3.231,-9.936 1.762,-6.795 0.707,-3.4 -0.252,-0.074 -0.299,0.088 -0.05,0.162 0,0"
           style="fill:#fc9d06;fill-opacity:1;fill-rule:nonzero;stroke:none"
           id="path2884" />
      </g>
      <g
         id="g2886"
         transform="matrix(0.35277777,0,0,-0.35277777,85.775784,113.89724)">
        <path
           d="M 0,0 C 0.101,2.308 0.001,4.726 0.376,7.007 0.402,7.165 0.611,7.149 0.621,6.992 0.77,4.685 0.435,2.288 0.31,-0.019 0.299,-0.219 -0.009,-0.2 0,0"
           style="fill:#fc9d06;fill-opacity:1;fill-rule:nonzero;stroke:none"
           id="path2888" />
      </g>
      <g
         id="g2890"
         transform="matrix(0.35277777,0,0,-0.35277777,86.913033,114.45372)">
        <path
           d="M 0,0 C 0.852,2.215 1.734,4.451 2.796,6.575 2.86,6.702 3.064,6.596 3.018,6.466 2.24,4.235 1.253,2.057 0.262,-0.087 0.189,-0.244 -0.065,-0.169 0,0"
           style="fill:#fc9d06;fill-opacity:1;fill-rule:nonzero;stroke:none"
           id="path2892" />
      </g>
      <g
         id="g2894"
         transform="matrix(0.35277777,0,0,-0.35277777,88.0258,114.78399)">
        <path
           d="M 0,0 C 1.312,1.527 2.4,3.335 3.828,4.75 3.968,4.888 4.163,4.686 4.075,4.531 3.096,2.817 1.56,1.244 0.25,-0.221 0.125,-0.361 -0.124,-0.144 0,0"
           style="fill:#fc9d06;fill-opacity:1;fill-rule:nonzero;stroke:none"
           id="path2896" />
      </g>
      <g
         id="g2898"
         transform="matrix(0.35277777,0,0,-0.35277777,89.555797,116.03494)">
        <path
           d="M 0,0 C 1.547,1.052 3.102,2.205 4.757,3.082 4.913,3.165 5.079,2.926 4.931,2.817 3.424,1.713 1.769,0.785 0.209,-0.242 0.041,-0.353 -0.171,-0.117 0,0"
           style="fill:#fc9d06;fill-opacity:1;fill-rule:nonzero;stroke:none"
           id="path2900" />
      </g>
      <g
         id="g2902"
         transform="matrix(0.35277777,0,0,-0.35277777,90.81084,117.62695)">
        <path
           d="M 0,0 C 1.706,0.466 3.428,1.039 5.172,1.339 5.305,1.362 5.39,1.152 5.251,1.105 3.567,0.529 1.772,0.201 0.042,-0.21 -0.094,-0.242 -0.132,-0.036 0,0"
           style="fill:#fc9d06;fill-opacity:1;fill-rule:nonzero;stroke:none"
           id="path2904" />
      </g>
      <g
         id="g2906"
         transform="matrix(0.35277777,0,0,-0.35277777,90.911452,118.03092)">
        <path
           d="M 0,0 C 1.832,-0.014 3.767,-0.14 5.554,-0.558 5.676,-0.587 5.631,-0.771 5.513,-0.767 3.681,-0.705 1.806,-0.454 -0.014,-0.236 -0.166,-0.218 -0.153,0.001 0,0"
           style="fill:#fc9d06;fill-opacity:1;fill-rule:nonzero;stroke:none"
           id="path2908" />
      </g>
      <g
         id="g2910"
         transform="matrix(0.35277777,0,0,-0.35277777,90.058435,119.53636)">
        <path
           d="m 0,0 c 2.891,-0.53 5.828,-1.124 8.641,-1.985 0.16,-0.048 0.114,-0.326 -0.057,-0.294 -2.9,0.558 -5.75,1.381 -8.635,2.015 C -0.2,-0.231 -0.151,0.028 0,0"
           style="fill:#fc9d06;fill-opacity:1;fill-rule:nonzero;stroke:none"
           id="path2912" />
      </g>
      <g
         id="g2914"
         transform="matrix(0.35277777,0,0,-0.35277777,90.495315,120.70656)">
        <path
           d="M 0,0 C 2.052,-1.253 4.342,-2.136 6.366,-3.41 6.504,-3.497 6.393,-3.71 6.242,-3.663 4.014,-2.977 1.763,-1.505 -0.17,-0.254 -0.336,-0.147 -0.168,0.102 0,0"
           style="fill:#fc9d06;fill-opacity:1;fill-rule:nonzero;stroke:none"
           id="path2916" />
      </g>
      <g
         id="g2918"
         transform="matrix(0.35277777,0,0,-0.35277777,90.195877,121.52712)">
        <path
           d="M 0,0 C 1.772,-1.91 3.684,-3.714 5.403,-5.669 5.549,-5.834 5.306,-6.023 5.151,-5.886 3.209,-4.169 1.484,-2.138 -0.215,-0.186 -0.336,-0.048 -0.124,0.134 0,0"
           style="fill:#fc9d06;fill-opacity:1;fill-rule:nonzero;stroke:none"
           id="path2920" />
      </g>
      <g
         id="g2922"
         transform="matrix(0.35277777,0,0,-0.35277777,88.197991,122.78089)">
        <path
           d="M 0,0 C 2.189,-3.254 4.812,-6.229 6.866,-9.571 6.941,-9.693 6.743,-9.823 6.655,-9.709 4.274,-6.603 1.909,-3.43 -0.196,-0.129 -0.267,-0.017 -0.075,0.111 0,0"
           style="fill:#fc9d06;fill-opacity:1;fill-rule:nonzero;stroke:none"
           id="path2924" />
      </g>
      <g
         id="g2926"
         transform="matrix(0.35277777,0,0,-0.35277777,86.811857,127.40239)">
        <path
           d="m 0,0 c -0.739,4.559 -1.314,9.221 -1.263,13.848 10e-4,0.13 0.217,0.148 0.229,0.015 C -0.597,9.25 -0.385,4.651 0.296,0.059 0.325,-0.133 0.031,-0.193 0,0"
           style="fill:#fc9d06;fill-opacity:1;fill-rule:nonzero;stroke:none"
           id="path2928" />
      </g>
      <g
         id="g2930"
         transform="matrix(0.35277777,0,0,-0.35277777,85.310999,127.95748)">
        <path
           d="M 0,0 C -0.093,5.315 0.528,10.668 0.798,15.971 0.806,16.14 1.068,16.124 1.06,15.955 0.79,10.652 0.864,5.264 0.231,-0.014 0.214,-0.164 0.003,-0.149 0,0"
           style="fill:#fc9d06;fill-opacity:1;fill-rule:nonzero;stroke:none"
           id="path2932" />
      </g>
      <g
         id="g2934"
         transform="matrix(0.35277777,0,0,-0.35277777,82.208177,127.14945)">
        <path
           d="M 0,0 C 0.991,3.921 2.371,7.739 3.548,11.604 3.602,11.782 3.876,11.69 3.822,11.512 2.645,7.648 1.662,3.708 0.299,-0.099 0.23,-0.292 -0.049,-0.195 0,0"
           style="fill:#fc9d06;fill-opacity:1;fill-rule:nonzero;stroke:none"
           id="path2936" />
      </g>
      <g
         id="g2938"
         transform="matrix(0.35277777,0,0,-0.35277777,80.111019,126.43084)">
        <path
           d="M 0,0 C 2.212,3.353 4.483,6.666 6.716,10.003 6.826,10.167 7.081,9.996 6.971,9.832 4.738,6.496 2.54,3.133 0.284,-0.19 0.16,-0.372 -0.121,-0.184 0,0"
           style="fill:#fc9d06;fill-opacity:1;fill-rule:nonzero;stroke:none"
           id="path2940" />
      </g>
      <g
         id="g2942"
         transform="matrix(0.35277777,0,0,-0.35277777,77.833733,124.67767)">
        <path
           d="M 0,0 C 3.359,2.379 6.696,4.846 10.119,7.128 10.285,7.238 10.49,7.022 10.328,6.886 7.194,4.249 3.636,1.912 0.107,-0.163 0.012,-0.219 -0.091,-0.065 0,0"
           style="fill:#fc9d06;fill-opacity:1;fill-rule:nonzero;stroke:none"
           id="path2944" />
      </g>
      <g
         id="g2946"
         transform="matrix(0.35277777,0,0,-0.35277777,87.362543,122.94377)">
        <path
           d="M 0,0 C 1.61,-3.617 3.404,-7.161 4.915,-10.818 4.977,-10.967 4.772,-11.065 4.69,-10.927 2.688,-7.53 1.184,-3.797 -0.319,-0.155 -0.405,0.054 -0.094,0.21 0,0"
           style="fill:#fc9d06;fill-opacity:1;fill-rule:nonzero;stroke:none"
           id="path2948" />
      </g>
      <g
         id="g2950"
         transform="matrix(0.35277777,0,0,-0.35277777,-89.066312,227.90994)">
        <g
           id="g2952" />
        <g
           id="g3140">
          <g
             clip-path="url(#clipPath2956)"
             opacity="0.550003"
             id="g3138">
            <g
               transform="translate(514.3548,310.1942)"
               id="g2960">
              <path
                 d="m 0,0 c 0.354,-0.098 0.705,-0.167 1.074,-0.149 0.052,0.002 0.05,0.073 0,0.079 C 0.719,-0.029 0.374,0.011 0.03,0.108 -0.04,0.127 -0.069,0.019 0,0"
                 style="fill:#cca581;fill-opacity:1;fill-rule:nonzero;stroke:none"
                 id="path2958" />
            </g>
            <g
               transform="translate(514.0313,309.2451)"
               id="g2964">
              <path
                 d="m 0,0 c 0.632,-0.14 1.269,-0.279 1.907,-0.388 0.065,-0.011 0.094,0.085 0.028,0.1 C 1.303,-0.145 0.661,-0.03 0.022,0.081 -0.03,0.09 -0.053,0.012 0,0"
                 style="fill:#cca581;fill-opacity:1;fill-rule:nonzero;stroke:none"
                 id="path2962" />
            </g>
            <g
               transform="translate(513.0635,306.8891)"
               id="g2968">
              <path
                 d="M 0,0 C 0.789,-0.184 1.591,-0.431 2.394,-0.535 2.452,-0.542 2.458,-0.454 2.407,-0.437 1.64,-0.193 0.812,-0.078 0.024,0.088 -0.033,0.1 -0.058,0.013 0,0"
                 style="fill:#cca581;fill-opacity:1;fill-rule:nonzero;stroke:none"
                 id="path2966" />
            </g>
            <g
               transform="translate(513.2549,304.9536)"
               id="g2972">
              <path
                 d="M 0,0 C 0.601,-0.19 1.205,-0.423 1.822,-0.553 1.886,-0.567 1.908,-0.479 1.849,-0.456 1.262,-0.225 0.63,-0.086 0.024,0.087 -0.032,0.103 -0.055,0.017 0,0"
                 style="fill:#cca581;fill-opacity:1;fill-rule:nonzero;stroke:none"
                 id="path2970" />
            </g>
            <g
               transform="translate(513.2678,303.4602)"
               id="g2976">
              <path
                 d="m 0,0 c 0.334,-0.068 0.625,-0.195 0.938,-0.328 0.045,-0.02 0.078,0.036 0.038,0.065 C 0.692,-0.05 0.376,0.044 0.027,0.099 -0.036,0.109 -0.066,0.013 0,0"
                 style="fill:#cca581;fill-opacity:1;fill-rule:nonzero;stroke:none"
                 id="path2974" />
            </g>
            <g
               transform="translate(510.599,301.3519)"
               id="g2980">
              <path
                 d="m 0,0 c 1.131,-0.674 2.253,-1.38 3.418,-1.995 0.053,-0.028 0.097,0.048 0.047,0.08 -1.11,0.71 -2.277,1.339 -3.42,1.991 C -0.005,0.105 -0.049,0.029 0,0"
                 style="fill:#cca581;fill-opacity:1;fill-rule:nonzero;stroke:none"
                 id="path2978" />
            </g>
            <g
               transform="translate(508.9049,298.6208)"
               id="g2984">
              <path
                 d="M 0,0 C 0.758,-0.766 1.497,-1.559 2.296,-2.282 2.341,-2.323 2.404,-2.261 2.363,-2.215 1.643,-1.413 0.853,-0.67 0.091,0.091 0.032,0.15 -0.058,0.059 0,0"
                 style="fill:#cca581;fill-opacity:1;fill-rule:nonzero;stroke:none"
                 id="path2982" />
            </g>
            <g
               transform="translate(511.9135,295.0773)"
               id="g2988">
              <path
                 d="m 0,0 c 0.161,-0.187 0.32,-0.373 0.493,-0.548 0.044,-0.044 0.102,0.02 0.066,0.066 C 0.408,-0.288 0.243,-0.106 0.078,0.078 0.03,0.131 -0.046,0.053 0,0"
                 style="fill:#cca581;fill-opacity:1;fill-rule:nonzero;stroke:none"
                 id="path2986" />
            </g>
            <g
               transform="translate(509.1966,296.6189)"
               id="g2992">
              <path
                 d="M 0,0 C 0.618,-0.659 1.259,-1.311 1.978,-1.861 2.017,-1.891 2.065,-1.826 2.03,-1.793 1.382,-1.165 0.71,-0.567 0.086,0.086 0.032,0.142 -0.053,0.057 0,0"
                 style="fill:#cca581;fill-opacity:1;fill-rule:nonzero;stroke:none"
                 id="path2990" />
            </g>
            <g
               transform="translate(503.493,293.2338)"
               id="g2996">
              <path
                 d="M 0,0 C 0.751,-1.331 1.594,-2.652 2.608,-3.8 2.649,-3.846 2.733,-3.784 2.695,-3.733 1.775,-2.497 0.876,-1.276 0.102,0.059 0.064,0.125 -0.037,0.066 0,0"
                 style="fill:#cca581;fill-opacity:1;fill-rule:nonzero;stroke:none"
                 id="path2994" />
            </g>
            <g
               transform="translate(505.4316,292.4623)"
               id="g3000">
              <path
                 d="M 0,0 C 0.013,0 0.013,0.02 0,0.02 -0.013,0.02 -0.013,0 0,0"
                 style="fill:#cca581;fill-opacity:1;fill-rule:nonzero;stroke:none"
                 id="path2998" />
            </g>
            <g
               transform="translate(501.3093,290.892)"
               id="g3004">
              <path
                 d="M 0,0 C 0.613,-1.234 1.203,-2.492 1.88,-3.692 1.914,-3.753 1.999,-3.7 1.971,-3.639 1.399,-2.385 0.73,-1.167 0.094,0.055 0.061,0.117 -0.031,0.062 0,0"
                 style="fill:#cca581;fill-opacity:1;fill-rule:nonzero;stroke:none"
                 id="path3002" />
            </g>
            <g
               transform="translate(504.1186,294.2864)"
               id="g3008">
              <path
                 d="M 0,0 C 0.89,-1.197 1.763,-2.409 2.696,-3.572 2.726,-3.609 2.791,-3.56 2.763,-3.52 1.907,-2.304 0.988,-1.132 0.088,0.052 0.049,0.103 -0.04,0.053 0,0"
                 style="fill:#cca581;fill-opacity:1;fill-rule:nonzero;stroke:none"
                 id="path3006" />
            </g>
            <g
               transform="translate(497.5343,283.293)"
               id="g3012">
              <path
                 d="M 0,0 C -0.084,0.765 -0.157,1.532 -0.264,2.294 -0.271,2.345 -0.36,2.334 -0.356,2.282 -0.291,1.519 -0.191,0.76 -0.102,0 -0.095,-0.065 0.007,-0.066 0,0"
                 style="fill:#cca581;fill-opacity:1;fill-rule:nonzero;stroke:none"
                 id="path3010" />
            </g>
            <g
               transform="translate(493.2419,283.5056)"
               id="g3016">
              <path
                 d="M 0,0 C 0.116,0.785 0.267,1.574 0.327,2.366 0.331,2.424 0.236,2.437 0.225,2.38 0.063,1.603 -0.008,0.802 -0.113,0.015 -0.121,-0.048 -0.009,-0.064 0,0"
                 style="fill:#cca581;fill-opacity:1;fill-rule:nonzero;stroke:none"
                 id="path3014" />
            </g>
            <g
               transform="translate(492.2819,284.5335)"
               id="g3020">
              <path
                 d="M 0,0 C 0.147,0.976 0.318,1.954 0.405,2.937 0.409,2.981 0.336,2.991 0.327,2.947 0.14,1.978 0.036,0.991 -0.091,0.012 -0.098,-0.039 -0.008,-0.052 0,0"
                 style="fill:#cca581;fill-opacity:1;fill-rule:nonzero;stroke:none"
                 id="path3018" />
            </g>
            <g
               transform="translate(487.6907,286.371)"
               id="g3024">
              <path
                 d="M 0,0 C 0.381,1.72 0.833,3.421 1.303,5.119 1.316,5.167 1.245,5.186 1.23,5.139 0.688,3.46 0.271,1.751 -0.078,0.021 -0.088,-0.029 -0.011,-0.051 0,0"
                 style="fill:#cca581;fill-opacity:1;fill-rule:nonzero;stroke:none"
                 id="path3022" />
            </g>
            <g
               transform="translate(483.1034,290.519)"
               id="g3028">
              <path
                 d="M 0,0 C 0.6,0.933 1.157,1.908 1.542,2.951 1.559,2.997 1.485,3.029 1.463,2.985 0.97,1.99 0.487,1.003 -0.11,0.064 -0.154,-0.005 -0.044,-0.069 0,0"
                 style="fill:#cca581;fill-opacity:1;fill-rule:nonzero;stroke:none"
                 id="path3026" />
            </g>
            <g
               transform="translate(481.6439,287.6781)"
               id="g3032">
              <path
                 d="M 0,0 C 0.336,0.454 0.644,0.923 0.871,1.441 0.892,1.489 0.827,1.531 0.798,1.483 0.509,1.001 0.23,0.515 -0.094,0.055 -0.134,-0.003 -0.041,-0.055 0,0"
                 style="fill:#cca581;fill-opacity:1;fill-rule:nonzero;stroke:none"
                 id="path3030" />
            </g>
            <g
               transform="translate(484.9754,287.7302)"
               id="g3036">
              <path
                 d="M 0,0 C 0.483,1.241 0.964,2.494 1.336,3.774 1.353,3.835 1.264,3.857 1.243,3.8 0.778,2.548 0.36,1.28 -0.112,0.031 -0.139,-0.039 -0.027,-0.069 0,0"
                 style="fill:#cca581;fill-opacity:1;fill-rule:nonzero;stroke:none"
                 id="path3034" />
            </g>
            <g
               transform="translate(477.9505,293.487)"
               id="g3040">
              <path
                 d="M 0,0 C 1.001,1.086 2.085,2.078 3.128,3.121 3.17,3.164 3.108,3.222 3.063,3.186 1.925,2.258 0.908,1.161 -0.073,0.073 -0.118,0.024 -0.046,-0.049 0,0"
                 style="fill:#cca581;fill-opacity:1;fill-rule:nonzero;stroke:none"
                 id="path3038" />
            </g>
            <g
               transform="translate(475.8794,291.2138)"
               id="g3044">
              <path
                 d="M 0,0 C 0.362,0.357 0.753,0.681 1.123,1.03 1.163,1.068 1.109,1.141 1.062,1.108 0.647,0.808 0.282,0.441 -0.072,0.072 -0.118,0.025 -0.047,-0.046 0,0"
                 style="fill:#cca581;fill-opacity:1;fill-rule:nonzero;stroke:none"
                 id="path3042" />
            </g>
            <g
               transform="translate(470.933,299.9518)"
               id="g3048">
              <path
                 d="M 0,0 C 0.674,0.324 1.374,0.585 2.055,0.893 2.089,0.908 2.065,0.962 2.03,0.952 1.308,0.749 0.617,0.422 -0.057,0.098 -0.123,0.066 -0.065,-0.031 0,0"
                 style="fill:#cca581;fill-opacity:1;fill-rule:nonzero;stroke:none"
                 id="path3046" />
            </g>
            <g
               transform="translate(474.8144,294.4242)"
               id="g3052">
              <path
                 d="M 0,0 C 1.751,0.844 3.449,1.869 4.887,3.187 4.911,3.209 4.879,3.252 4.853,3.232 3.292,2.044 1.716,0.952 -0.051,0.087 -0.109,0.059 -0.058,-0.028 0,0"
                 style="fill:#cca581;fill-opacity:1;fill-rule:nonzero;stroke:none"
                 id="path3050" />
            </g>
            <g
               transform="translate(467.4901,308.5089)"
               id="g3056">
              <path
                 d="m 0,0 c 2.767,-0.113 5.541,-0.284 8.311,-0.299 0.048,0 0.047,0.071 0,0.075 C 5.547,-0.034 2.768,0.001 0,0.093 -0.06,0.095 -0.06,0.002 0,0"
                 style="fill:#cca581;fill-opacity:1;fill-rule:nonzero;stroke:none"
                 id="path3054" />
            </g>
            <g
               transform="translate(471.1664,306.9068)"
               id="g3060">
              <path
                 d="M 0,0 C 0.013,0 0.013,0.02 0,0.02 -0.013,0.02 -0.013,0 0,0"
                 style="fill:#cca581;fill-opacity:1;fill-rule:nonzero;stroke:none"
                 id="path3058" />
            </g>
            <g
               transform="translate(467.2726,307.5788)"
               id="g3064">
              <path
                 d="m 0,0 c 0.986,-0.069 1.971,-0.13 2.959,-0.157 0.054,-0.002 0.052,0.077 0,0.082 C 1.974,0.009 0.988,0.059 0,0.102 -0.066,0.105 -0.065,0.005 0,0"
                 style="fill:#cca581;fill-opacity:1;fill-rule:nonzero;stroke:none"
                 id="path3062" />
            </g>
            <g
               transform="translate(467.6433,305.8082)"
               id="g3068">
              <path
                 d="M 0,0 C 2.07,0.202 4.14,0.272 6.215,0.388 6.262,0.39 6.263,0.459 6.215,0.46 4.141,0.517 2.06,0.343 0,0.116 -0.073,0.108 -0.075,-0.007 0,0"
                 style="fill:#cca581;fill-opacity:1;fill-rule:nonzero;stroke:none"
                 id="path3066" />
            </g>
            <g
               transform="translate(468.7665,304.4518)"
               id="g3072">
              <path
                 d="m 0,0 c 1.09,0.161 2.185,0.212 3.276,0.343 0.062,0.007 0.066,0.098 0,0.099 C 2.175,0.463 1.055,0.284 -0.029,0.105 -0.098,0.093 -0.068,-0.01 0,0"
                 style="fill:#cca581;fill-opacity:1;fill-rule:nonzero;stroke:none"
                 id="path3070" />
            </g>
            <g
               transform="translate(468.7809,312.7592)"
               id="g3076">
              <path
                 d="m 0,0 c 2.26,-0.669 4.544,-1.328 6.86,-1.771 0.053,-0.01 0.075,0.066 0.023,0.08 C 4.599,-1.081 2.302,-0.544 0.033,0.12 -0.044,0.142 -0.077,0.023 0,0"
                 style="fill:#cca581;fill-opacity:1;fill-rule:nonzero;stroke:none"
                 id="path3074" />
            </g>
            <g
               transform="translate(473.4479,312.5192)"
               id="g3080">
              <path
                 d="m 0,0 c 0.758,-0.2 1.469,-0.487 2.187,-0.797 0.05,-0.021 0.094,0.048 0.044,0.075 C 1.541,-0.343 0.789,-0.09 0.028,0.102 -0.038,0.118 -0.066,0.017 0,0"
                 style="fill:#cca581;fill-opacity:1;fill-rule:nonzero;stroke:none"
                 id="path3078" />
            </g>
            <g
               transform="translate(471.1912,317.3059)"
               id="g3084">
              <path
                 d="M 0,0 C 1.9,-1.389 3.897,-2.676 6.022,-3.693 6.07,-3.716 6.113,-3.647 6.065,-3.621 3.988,-2.486 1.966,-1.311 0.04,0.068 -0.002,0.098 -0.041,0.03 0,0"
                 style="fill:#cca581;fill-opacity:1;fill-rule:nonzero;stroke:none"
                 id="path3082" />
            </g>
            <g
               transform="translate(475.4167,315.8477)"
               id="g3088">
              <path
                 d="M 0,0 C 0.632,-0.522 1.279,-1.063 1.979,-1.493 2.032,-1.525 2.098,-1.445 2.047,-1.404 1.407,-0.891 0.728,-0.427 0.089,0.089 0.027,0.139 -0.063,0.052 0,0"
                 style="fill:#cca581;fill-opacity:1;fill-rule:nonzero;stroke:none"
                 id="path3086" />
            </g>
            <g
               transform="translate(474.7154,321.0564)"
               id="g3092">
              <path
                 d="M 0,0 C 1.05,-0.806 2.021,-1.696 3.04,-2.538 3.095,-2.583 3.171,-2.511 3.119,-2.459 2.19,-1.516 1.115,-0.691 0.066,0.113 -0.001,0.164 -0.066,0.05 0,0"
                 style="fill:#cca581;fill-opacity:1;fill-rule:nonzero;stroke:none"
                 id="path3090" />
            </g>
            <g
               transform="translate(477.4653,320.3064)"
               id="g3096">
              <path
                 d="m 0,0 c 0.396,-0.378 0.786,-0.761 1.216,-1.101 0.034,-0.027 0.08,0.016 0.049,0.05 C 0.896,-0.648 0.486,-0.286 0.081,0.081 0.027,0.131 -0.054,0.051 0,0"
                 style="fill:#cca581;fill-opacity:1;fill-rule:nonzero;stroke:none"
                 id="path3094" />
            </g>
            <g
               transform="translate(482.4971,326.3562)"
               id="g3100">
              <path
                 d="M 0,0 C 0.593,-0.91 1.21,-1.83 1.932,-2.643 1.97,-2.685 2.045,-2.629 2.011,-2.582 1.375,-1.7 0.706,-0.848 0.108,0.063 0.064,0.131 -0.044,0.068 0,0"
                 style="fill:#cca581;fill-opacity:1;fill-rule:nonzero;stroke:none"
                 id="path3098" />
            </g>
            <g
               transform="translate(484.153,327.0673)"
               id="g3104">
              <path
                 d="m 0,0 c 0.644,-1.021 1.268,-2.058 1.954,-3.05 0.03,-0.043 0.098,-0.005 0.071,0.041 -0.6,1.047 -1.268,2.055 -1.913,3.075 C 0.068,0.136 -0.045,0.071 0,0"
                 style="fill:#cca581;fill-opacity:1;fill-rule:nonzero;stroke:none"
                 id="path3102" />
            </g>
            <g
               transform="translate(484.9821,328.2003)"
               id="g3108">
              <path
                 d="m 0,0 c 0.028,-0.566 0.4,-1.032 0.68,-1.507 0.406,-0.69 0.801,-1.388 1.236,-2.06 0.03,-0.045 0.099,-0.005 0.073,0.042 C 1.692,-2.977 1.367,-2.446 1.047,-1.911 0.708,-1.345 0.134,-0.675 0.096,0 0.093,0.061 -0.003,0.062 0,0"
                 style="fill:#cca581;fill-opacity:1;fill-rule:nonzero;stroke:none"
                 id="path3106" />
            </g>
            <g
               transform="translate(488.0888,329.5548)"
               id="g3112">
              <path
                 d="M 0,0 C 0.179,-0.778 0.377,-1.565 0.673,-2.308 0.694,-2.361 0.778,-2.342 0.761,-2.284 0.539,-1.512 0.296,-0.752 0.117,0.032 0.099,0.108 -0.017,0.076 0,0"
                 style="fill:#cca581;fill-opacity:1;fill-rule:nonzero;stroke:none"
                 id="path3110" />
            </g>
            <g
               transform="translate(489.416,328.1652)"
               id="g3116">
              <path
                 d="M 0,0 C -0.087,-0.337 -0.074,-0.649 0.078,-0.962 0.102,-1.013 0.187,-0.977 0.168,-0.924 0.059,-0.607 0.03,-0.357 0.115,-0.032 0.135,0.043 0.019,0.074 0,0"
                 style="fill:#cca581;fill-opacity:1;fill-rule:nonzero;stroke:none"
                 id="path3114" />
            </g>
            <g
               transform="translate(494.1334,329.8006)"
               id="g3120">
              <path
                 d="M 0,0 C 0.084,-0.465 0.16,-0.933 0.267,-1.393 0.278,-1.438 0.356,-1.429 0.35,-1.382 0.287,-0.909 0.193,-0.44 0.108,0.03 0.095,0.1 -0.013,0.07 0,0"
                 style="fill:#cca581;fill-opacity:1;fill-rule:nonzero;stroke:none"
                 id="path3118" />
            </g>
            <g
               transform="translate(498.5371,327.236)"
               id="g3124">
              <path
                 d="M 0,0 C 0.096,0.226 0.192,0.451 0.276,0.682 0.292,0.726 0.221,0.756 0.201,0.714 0.095,0.498 0.001,0.276 -0.094,0.055 -0.121,-0.009 -0.027,-0.064 0,0"
                 style="fill:#cca581;fill-opacity:1;fill-rule:nonzero;stroke:none"
                 id="path3122" />
            </g>
            <g
               transform="translate(502.3158,324.7084)"
               id="g3128">
              <path
                 d="M 0,0 C 0.228,0.342 0.456,0.679 0.663,1.035 0.69,1.081 0.624,1.115 0.593,1.075 0.343,0.748 0.117,0.408 -0.113,0.066 -0.159,-0.004 -0.046,-0.069 0,0"
                 style="fill:#cca581;fill-opacity:1;fill-rule:nonzero;stroke:none"
                 id="path3126" />
            </g>
            <g
               transform="translate(506.3108,322.5639)"
               id="g3132">
              <path
                 d="M 0,0 C 0.156,0.155 0.311,0.311 0.462,0.471 0.497,0.508 0.443,0.562 0.406,0.527 0.245,0.377 0.089,0.222 -0.067,0.067 -0.11,0.024 -0.043,-0.043 0,0"
                 style="fill:#cca581;fill-opacity:1;fill-rule:nonzero;stroke:none"
                 id="path3130" />
            </g>
            <g
               transform="translate(510.5261,317.705)"
               id="g3136">
              <path
                 d="M 0,0 C 0.319,0.197 0.628,0.397 0.922,0.629 0.958,0.657 0.912,0.71 0.875,0.69 0.548,0.517 0.244,0.314 -0.061,0.104 -0.124,0.061 -0.067,-0.042 0,0"
                 style="fill:#cca581;fill-opacity:1;fill-rule:nonzero;stroke:none"
                 id="path3134" />
            </g>
          </g>
        </g>
      </g>
      <g
         id="g3142"
         transform="matrix(0.35277777,0,0,-0.35277777,-89.066312,227.90994)">
        <g
           id="g3144" />
        <g
           id="g3156">
          <g
             clip-path="url(#clipPath3148)"
             opacity="0.550003"
             id="g3154">
            <g
               transform="translate(509.8304,303.6388)"
               id="g3152">
              <path
                 d="m 0,0 c -0.115,1.229 -0.369,2.431 -0.772,3.565 -0.19,0.534 -2.616,5.494 -2.974,5.234 1.887,1.373 2.508,4.092 1.275,6.56 -0.567,1.133 -1.683,1.917 -2.891,2.299 -2.647,0.837 -4.155,-1.593 -4.6,-4.008 -3.022,1.763 -6.674,2.882 -10.131,2.478 -1.477,-0.173 -2.87,-0.632 -4.165,-1.3 -0.372,0.866 -0.962,1.737 -1.607,2.171 -0.942,0.634 -2.187,0.82 -3.252,0.427 -0.565,-0.209 -1.063,-0.566 -1.524,-0.953 -0.757,-0.638 -1.46,-1.421 -1.676,-2.386 -0.295,-1.323 -0.298,-3.881 1.869,-4.835 -1.815,-2.405 -2.76,-4.679 -3.384,-7.163 -0.924,-3.679 -0.369,-7.87 1.133,-11.32 3.47,-7.972 13.482,-8.546 20.893,-7.388 4.005,0.626 7.28,2.529 9.408,6.021 C -0.492,-7.47 0.339,-3.64 0,0"
                 style="fill:#cca581;fill-opacity:1;fill-rule:nonzero;stroke:none"
                 id="path3150" />
            </g>
          </g>
        </g>
      </g>
      <g
         id="g3158"
         transform="matrix(0.35277777,0,0,-0.35277777,87.246973,116.78755)">
        <path
           d="M 0,0 C -0.228,1.492 0.072,3.058 0.834,4.361 1.332,5.212 2.115,5.997 3.097,6.086 3.502,6.122 3.908,6.036 4.296,5.914 5.406,5.563 6.456,4.854 6.952,3.801 7.591,2.443 7.192,0.812 6.49,-0.515 5.795,-1.827 4.614,-3.088 3.129,-3.092"
           style="fill:#ffb940;fill-opacity:1;fill-rule:nonzero;stroke:none"
           id="path3160" />
      </g>
      <g
         id="g3162"
         transform="matrix(0.35277777,0,0,-0.35277777,87.716837,116.95378)">
        <path
           d="M 0,0 C -0.227,1.081 0.02,2.253 0.663,3.151 0.951,3.553 1.358,3.921 1.851,3.958 2.223,3.986 2.586,3.817 2.878,3.586 3.708,2.931 4.048,1.749 3.778,0.727 3.508,-0.295 2.677,-1.129 1.684,-1.491"
           style="fill:#dd7303;fill-opacity:1;fill-rule:nonzero;stroke:none"
           id="path3164" />
      </g>
      <g
         id="g3166"
         transform="matrix(0.35277777,0,0,-0.35277777,82.359554,115.82309)">
        <path
           d="M 0,0 C -0.169,1.004 -0.92,2.408 -1.765,2.976 -2.609,3.545 -3.727,3.712 -4.682,3.359 -5.189,3.172 -5.636,2.852 -6.049,2.504 -6.728,1.932 -7.359,1.23 -7.552,0.363 c -0.266,-1.186 0.358,-2.416 1.22,-3.274 1.116,-1.109 2.66,-1.776 4.232,-1.828"
           style="fill:#ffb940;fill-opacity:1;fill-rule:nonzero;stroke:none"
           id="path3168" />
      </g>
      <g
         id="g3170"
         transform="matrix(0.35277777,0,0,-0.35277777,81.415803,116.8598)">
        <path
           d="M 0,0 C -0.628,-0.016 -1.235,0.259 -1.731,0.646 -2.284,1.078 -2.749,1.753 -2.607,2.44 -2.464,3.136 -1.701,3.588 -0.993,3.532 -0.286,3.476 0.338,3.008 0.749,2.429 1.159,1.85 1.389,1.165 1.607,0.489"
           style="fill:#dd7303;fill-opacity:1;fill-rule:nonzero;stroke:none"
           id="path3172" />
      </g>
      <g
         id="g3174"
         transform="matrix(0.35277777,0,0,-0.35277777,90.464165,120.6764)">
        <path
           d="m 0,0 c -0.145,1.296 -0.611,2.535 -1.173,3.712 -1.602,3.354 -4.042,6.327 -7.112,8.424 -3.048,2.081 -7.018,3.522 -10.748,3.086 -6.682,-0.781 -11.58,-7.712 -12.972,-13.255 -1.359,-5.405 0.729,-13.656 6.932,-15.772 4.34,-1.48 9.049,-1.638 13.596,-1.04 1.036,0.136 2.072,0.312 3.062,0.648 2.233,0.758 4.149,2.323 5.52,4.241 1.372,1.919 2.22,4.179 2.672,6.494 C -0.001,-2.323 0.129,-1.154 0,0"
           style="fill:#ffb940;fill-opacity:1;fill-rule:nonzero;stroke:none"
           id="path3176" />
      </g>
      <g
         id="g3178"
         transform="matrix(0.35277777,0,0,-0.35277777,89.650095,120.16551)">
        <path
           d="M 0,0 C -0.178,0.283 -0.4,0.563 -0.706,0.679 -1.227,0.877 -1.69,0.854 -2.163,0.53 -2.99,-0.036 -2.809,-1.312 -2.066,-1.766 -1.568,-2.07 -0.929,-2.046 -0.423,-1.759 0.171,-1.422 0.396,-0.63 0,0"
           style="fill:#3f1e0e;fill-opacity:1;fill-rule:nonzero;stroke:none"
           id="path3180" />
      </g>
      <g
         id="g3182"
         transform="matrix(0.35277777,0,0,-0.35277777,89.477445,120.36056)">
        <path
           d="m 0,0 c -0.071,0.113 -0.16,0.225 -0.283,0.272 -0.209,0.08 -0.394,0.07 -0.584,-0.06 -0.332,-0.227 -0.259,-0.738 0.039,-0.92 0.199,-0.122 0.456,-0.112 0.658,0.003 C 0.069,-0.57 0.159,-0.252 0,0"
           style="fill:#ffffff;fill-opacity:1;fill-rule:nonzero;stroke:none"
           id="path3184" />
      </g>
      <g
         id="g3186"
         transform="matrix(0.35277777,0,0,-0.35277777,81.483395,120.4581)">
        <path
           d="M 0,0 C 0.106,0.317 0.183,0.665 0.08,0.976 -0.096,1.505 -0.407,1.849 -0.957,2.011 -1.919,2.294 -2.792,1.347 -2.674,0.484 -2.595,-0.093 -2.173,-0.574 -1.631,-0.784 -0.993,-1.032 -0.237,-0.705 0,0"
           style="fill:#3f1e0e;fill-opacity:1;fill-rule:nonzero;stroke:none"
           id="path3188" />
      </g>
      <g
         id="g3190"
         transform="matrix(0.35277777,0,0,-0.35277777,81.223151,120.44769)">
        <path
           d="M 0,0 C 0.043,0.127 0.073,0.267 0.032,0.391 -0.039,0.603 -0.163,0.741 -0.384,0.806 -0.769,0.919 -1.119,0.54 -1.072,0.194 -1.04,-0.037 -0.871,-0.23 -0.654,-0.315 -0.398,-0.414 -0.095,-0.283 0,0"
           style="fill:#ffffff;fill-opacity:1;fill-rule:nonzero;stroke:none"
           id="path3192" />
      </g>
      <g
         id="g3194"
         transform="matrix(0.35277777,0,0,-0.35277777,82.193572,122.84492)">
        <path
           d="M 0,0 C -0.251,0.898 -1.033,1.624 -1.947,1.809 -2.963,2.014 -4.09,1.695 -4.763,0.893 -5.177,0.399 -5.301,-0.316 -5.262,-0.94 c 0.02,-0.337 0.088,-0.677 0.242,-0.978 0.213,-0.418 0.584,-0.74 0.997,-0.963 1.036,-0.56 2.429,-0.472 3.295,0.325 C -0.042,-1.925 0.251,-0.898 0,0"
           style="fill:#f49547;fill-opacity:1;fill-rule:nonzero;stroke:none"
           id="path3196" />
      </g>
      <g
         id="g3198"
         transform="matrix(0.35277777,0,0,-0.35277777,81.200644,123.59468)">
        <path
           d="m 0,0 c 0.003,0.009 0.006,0.018 0.01,0.027 0.103,0.293 -0.458,0.295 -0.353,0 C -0.34,0.018 -0.337,0.009 -0.334,0 -0.276,-0.164 -0.058,-0.164 0,0"
           style="fill:#dd7303;fill-opacity:1;fill-rule:nonzero;stroke:none"
           id="path3200" />
      </g>
      <g
         id="g3202"
         transform="matrix(0.35277777,0,0,-0.35277777,81.343096,122.58916)">
        <path
           d="m 0,0 c 0.003,0.009 0.006,0.018 0.009,0.027 0.104,0.293 -0.457,0.295 -0.352,0 C -0.34,0.018 -0.337,0.009 -0.334,0 -0.276,-0.164 -0.058,-0.164 0,0"
           style="fill:#dd7303;fill-opacity:1;fill-rule:nonzero;stroke:none"
           id="path3204" />
      </g>
      <g
         id="g3206"
         transform="matrix(0.35277777,0,0,-0.35277777,81.844851,123.19601)">
        <path
           d="m 0,0 c 0.003,0.009 0.006,0.018 0.01,0.027 0.103,0.293 -0.458,0.295 -0.353,0 C -0.34,0.018 -0.337,0.009 -0.334,0 -0.276,-0.164 -0.058,-0.164 0,0"
           style="fill:#dd7303;fill-opacity:1;fill-rule:nonzero;stroke:none"
           id="path3208" />
      </g>
      <g
         id="g3210"
         transform="matrix(0.35277777,0,0,-0.35277777,81.586124,122.96921)">
        <path
           d="M 0,0 C 0.42,0 0.421,0.653 0,0.653 -0.42,0.653 -0.421,0 0,0"
           style="fill:#dd7303;fill-opacity:1;fill-rule:nonzero;stroke:none"
           id="path3212" />
      </g>
      <g
         id="g3214"
         transform="matrix(0.35277777,0,0,-0.35277777,80.965765,122.93485)">
        <path
           d="M 0,0 C 0.41,0 0.411,0.637 0,0.637 -0.41,0.637 -0.411,0 0,0"
           style="fill:#dd7303;fill-opacity:1;fill-rule:nonzero;stroke:none"
           id="path3216" />
      </g>
      <g
         id="g3218"
         transform="matrix(0.35277777,0,0,-0.35277777,80.792551,123.28674)">
        <path
           d="M 0,0 C 0.067,0.333 -0.389,0.563 -0.572,0.241 -0.804,-0.169 -0.088,-0.437 0,0"
           style="fill:#dd7303;fill-opacity:1;fill-rule:nonzero;stroke:none"
           id="path3220" />
      </g>
      <g
         id="g3222"
         transform="matrix(0.35277777,0,0,-0.35277777,81.245341,123.28699)">
        <path
           d="M 0,0 C 0.41,0 0.411,0.637 0,0.637 -0.41,0.637 -0.411,0 0,0"
           style="fill:#dd7303;fill-opacity:1;fill-rule:nonzero;stroke:none"
           id="path3224" />
      </g>
      <g
         id="g3226"
         transform="matrix(0.35277777,0,0,-0.35277777,81.659643,123.61073)">
        <path
           d="M 0,0 C 0.382,0 0.383,0.594 0,0.594 -0.382,0.594 -0.383,0 0,0"
           style="fill:#dd7303;fill-opacity:1;fill-rule:nonzero;stroke:none"
           id="path3228" />
      </g>
      <g
         id="g3230"
         transform="matrix(0.35277777,0,0,-0.35277777,87.574033,123.15445)">
        <path
           d="m 0,0 c 0.08,-0.928 0.714,-1.788 1.577,-2.139 0.961,-0.39 2.127,-0.286 2.938,0.378 0.498,0.408 0.752,1.087 0.83,1.708 C 5.388,0.282 5.384,0.628 5.289,0.953 5.157,1.403 4.852,1.789 4.488,2.085 3.573,2.827 2.189,2.999 1.189,2.376 0.398,1.883 -0.08,0.929 0,0"
           style="fill:#f49547;fill-opacity:1;fill-rule:nonzero;stroke:none"
           id="path3232" />
      </g>
      <g
         id="g3234"
         transform="matrix(0.35277777,0,0,-0.35277777,88.688775,122.60197)">
        <path
           d="M 0,0 C -0.005,-0.008 -0.009,-0.016 -0.014,-0.025 -0.171,-0.293 0.38,-0.399 0.332,-0.09 0.331,-0.081 0.329,-0.071 0.328,-0.062 0.301,0.11 0.088,0.15 0,0"
           style="fill:#dd7303;fill-opacity:1;fill-rule:nonzero;stroke:none"
           id="path3236" />
      </g>
      <g
         id="g3238"
         transform="matrix(0.35277777,0,0,-0.35277777,88.362244,123.56364)">
        <path
           d="M 0,0 C -0.005,-0.008 -0.01,-0.016 -0.014,-0.025 -0.171,-0.293 0.38,-0.399 0.332,-0.09 0.331,-0.081 0.329,-0.071 0.328,-0.062 0.301,0.11 0.088,0.15 0,0"
           style="fill:#dd7303;fill-opacity:1;fill-rule:nonzero;stroke:none"
           id="path3240" />
      </g>
      <g
         id="g3242"
         transform="matrix(0.35277777,0,0,-0.35277777,87.981809,122.87417)">
        <path
           d="M 0,0 C -0.005,-0.008 -0.009,-0.016 -0.014,-0.025 -0.171,-0.293 0.38,-0.399 0.332,-0.09 0.331,-0.081 0.329,-0.071 0.328,-0.062 0.301,0.11 0.088,0.15 0,0"
           style="fill:#dd7303;fill-opacity:1;fill-rule:nonzero;stroke:none"
           id="path3244" />
      </g>
      <g
         id="g3246"
         transform="matrix(0.35277777,0,0,-0.35277777,88.193969,123.14507)">
        <path
           d="M 0,0 C -0.413,0.078 -0.535,-0.563 -0.121,-0.642 0.292,-0.719 0.413,-0.078 0,0"
           style="fill:#dd7303;fill-opacity:1;fill-rule:nonzero;stroke:none"
           id="path3248" />
      </g>
      <g
         id="g3250"
         transform="matrix(0.35277777,0,0,-0.35277777,88.797184,123.29394)">
        <path
           d="M 0,0 C -0.403,0.076 -0.522,-0.55 -0.118,-0.626 0.284,-0.702 0.403,-0.076 0,0"
           style="fill:#dd7303;fill-opacity:1;fill-rule:nonzero;stroke:none"
           id="path3252" />
      </g>
      <g
         id="g3254"
         transform="matrix(0.35277777,0,0,-0.35277777,89.032734,122.98036)">
        <path
           d="M 0,0 C -0.128,-0.314 0.277,-0.626 0.517,-0.343 0.821,0.017 0.168,0.413 0,0"
           style="fill:#dd7303;fill-opacity:1;fill-rule:nonzero;stroke:none"
           id="path3256" />
      </g>
      <g
         id="g3258"
         transform="matrix(0.35277777,0,0,-0.35277777,88.58781,122.89611)">
        <path
           d="M 0,0 C -0.403,0.076 -0.522,-0.55 -0.118,-0.626 0.284,-0.702 0.403,-0.076 0,0"
           style="fill:#dd7303;fill-opacity:1;fill-rule:nonzero;stroke:none"
           id="path3260" />
      </g>
      <g
         id="g3262"
         transform="matrix(0.35277777,0,0,-0.35277777,88.240854,122.50107)">
        <path
           d="M 0,0 C -0.376,0.071 -0.486,-0.512 -0.11,-0.583 0.265,-0.654 0.376,-0.071 0,0"
           style="fill:#dd7303;fill-opacity:1;fill-rule:nonzero;stroke:none"
           id="path3264" />
      </g>
      <g
         id="g3266"
         transform="matrix(0.35277777,0,0,-0.35277777,80.890835,124.94427)">
        <path
           d="M 0,0 C 0.234,-0.222 0.541,-0.448 0.85,-0.546 1.083,-0.619 1.234,-0.266 1.017,-0.15 0.74,-0.002 0.419,0.1 0.126,0.216 0.003,0.264 -0.089,0.084 0,0"
           style="fill:#f7a731;fill-opacity:1;fill-rule:nonzero;stroke:none"
           id="path3268" />
      </g>
      <g
         id="g3270"
         transform="matrix(0.35277777,0,0,-0.35277777,81.419437,125.27122)">
        <path
           d="m 0,0 c 0.164,-0.14 0.324,-0.255 0.542,-0.276 0.143,-0.013 0.231,0.2 0.12,0.292 C 0.524,0.131 0.363,0.184 0.199,0.258 0.043,0.328 -0.154,0.131 0,0"
           style="fill:#f7a731;fill-opacity:1;fill-rule:nonzero;stroke:none"
           id="path3272" />
      </g>
      <g
         id="g3274"
         transform="matrix(0.35277777,0,0,-0.35277777,81.256841,124.90109)">
        <path
           d="M 0,0 C 0.179,-0.122 0.378,-0.241 0.583,-0.124 0.638,-0.093 0.659,-0.017 0.626,0.038 0.527,0.199 0.35,0.235 0.197,0.336 -0.014,0.475 -0.206,0.14 0,0"
           style="fill:#f7a731;fill-opacity:1;fill-rule:nonzero;stroke:none"
           id="path3276" />
      </g>
      <g
         id="g3278"
         transform="matrix(0.35277777,0,0,-0.35277777,81.924861,125.41643)">
        <path
           d="m 0,0 c 0.178,-0.282 0.708,-0.404 1.01,-0.297 0.113,0.041 0.159,0.212 0.036,0.276 C 0.876,0.066 0.713,0.079 0.527,0.113 0.362,0.143 0.234,0.201 0.068,0.167 -0.003,0.153 -0.037,0.059 0,0"
           style="fill:#f7a731;fill-opacity:1;fill-rule:nonzero;stroke:none"
           id="path3280" />
      </g>
      <g
         id="g3282"
         transform="matrix(0.35277777,0,0,-0.35277777,80.549945,124.56729)">
        <path
           d="m 0,0 c 0.117,-0.211 0.282,-0.592 0.547,-0.63 0.054,-0.008 0.13,0.023 0.122,0.093 -0.031,0.26 -0.32,0.448 -0.473,0.652 C 0.111,0.229 -0.073,0.132 0,0"
           style="fill:#f7a731;fill-opacity:1;fill-rule:nonzero;stroke:none"
           id="path3284" />
      </g>
      <g
         id="g3286"
         transform="matrix(0.35277777,0,0,-0.35277777,80.787083,124.57011)">
        <path
           d="M 0,0 C 0.114,-0.134 0.21,-0.286 0.372,-0.36 0.479,-0.409 0.574,-0.31 0.528,-0.204 0.456,-0.04 0.306,0.057 0.173,0.173 0.054,0.278 -0.102,0.12 0,0"
           style="fill:#f7a731;fill-opacity:1;fill-rule:nonzero;stroke:none"
           id="path3288" />
      </g>
      <g
         id="g3290"
         transform="matrix(0.35277777,0,0,-0.35277777,89.152396,118.54033)">
        <path
           d="M 0,0 C 0.118,-0.326 0.22,-0.686 0.398,-0.985 0.506,-1.165 0.829,-1.048 0.75,-0.837 0.627,-0.506 0.415,-0.202 0.232,0.098 0.16,0.216 -0.051,0.14 0,0"
           style="fill:#f7a731;fill-opacity:1;fill-rule:nonzero;stroke:none"
           id="path3292" />
      </g>
      <g
         id="g3294"
         transform="matrix(0.35277777,0,0,-0.35277777,89.463864,119.1174)">
        <path
           d="M 0,0 C 0.041,-0.135 0.081,-0.275 0.106,-0.414 0.132,-0.56 0.12,-0.7 0.177,-0.837 c 0.061,-0.149 0.265,-0.166 0.321,0 C 0.606,-0.514 0.403,-0.13 0.205,0.119 0.127,0.217 -0.034,0.111 0,0"
           style="fill:#f7a731;fill-opacity:1;fill-rule:nonzero;stroke:none"
           id="path3296" />
      </g>
      <g
         id="g3298"
         transform="matrix(0.35277777,0,0,-0.35277777,89.013966,118.83303)">
        <path
           d="m 0,0 c 0.076,-0.313 0.121,-0.757 0.36,-0.989 0.088,-0.085 0.224,-0.02 0.231,0.096 0.02,0.328 -0.25,0.694 -0.403,0.972 C 0.131,0.184 -0.027,0.111 0,0"
           style="fill:#f7a731;fill-opacity:1;fill-rule:nonzero;stroke:none"
           id="path3300" />
      </g>
      <g
         id="g3302"
         transform="matrix(0.35277777,0,0,-0.35277777,89.729964,119.72743)">
        <path
           d="M 0,0 C 0.088,-0.298 0.136,-0.713 0.356,-0.943 0.457,-1.049 0.607,-0.959 0.621,-0.833 0.654,-0.536 0.442,-0.181 0.338,0.093 0.259,0.299 -0.065,0.221 0,0"
           style="fill:#f7a731;fill-opacity:1;fill-rule:nonzero;stroke:none"
           id="path3304" />
      </g>
      <g
         id="g3306"
         transform="matrix(0.35277777,0,0,-0.35277777,-89.066312,227.90994)">
        <g
           id="g3308" />
        <g
           id="g3320">
          <g
             clip-path="url(#clipPath3312)"
             id="g3318">
            <g
               transform="translate(492.907,295.1053)"
               id="g3316">
              <path
                 d="M 0,0 C -0.041,-0.326 -0.042,-0.655 -0.046,-0.982 -0.05,-1.24 -0.13,-1.534 0.044,-1.773 0.103,-1.854 0.27,-1.816 0.312,-1.751 0.47,-1.508 0.368,-1.183 0.363,-0.923 0.356,-0.615 0.351,-0.306 0.293,0 0.271,0.117 0.015,0.121 0,0"
                 style="fill:#f7a731;fill-opacity:1;fill-rule:nonzero;stroke:none"
                 id="path3314" />
            </g>
          </g>
        </g>
      </g>
      <g
         id="g3322"
         transform="matrix(0.35277777,0,0,-0.35277777,87.222878,121.27439)">
        <path
           d="m 0,0 c -0.209,1.363 -1.849,1.899 -2.965,2.138 -2.557,0.546 -5.222,0.583 -7.804,0.058 -0.65,-0.131 -1.452,-0.398 -1.883,-0.938 -0.522,-0.654 -0.275,-1.587 -0.039,-2.31 0.388,-1.193 1.125,-2.225 1.853,-3.231 0.806,-1.113 1.889,-2.159 3.188,-2.662 2.774,-1.074 5.026,1.544 6.341,3.602 C -0.731,-2.439 0.173,-1.128 0,0"
           style="fill:#77451c;fill-opacity:1;fill-rule:nonzero;stroke:none"
           id="path3324" />
      </g>
      <g
         id="g3326"
         transform="matrix(0.35277777,0,0,-0.35277777,86.535526,122.78082)">
        <path
           d="M 0,0 C -0.338,0.264 -0.781,0.397 -1.205,0.329 -1.372,0.302 -1.54,0.245 -1.664,0.13 -1.898,-0.087 -2.099,-0.585 -2.045,-0.9 -1.991,-1.222 -1.823,-1.519 -1.516,-1.673 -0.948,-1.181 -0.441,-0.594 0,0"
           style="fill:#593019;fill-opacity:1;fill-rule:nonzero;stroke:none"
           id="path3328" />
      </g>
      <g
         id="g3330"
         transform="matrix(0.35277777,0,0,-0.35277777,83.97069,122.7635)">
        <path
           d="m 0,0 c -0.315,0.789 -1.316,0.718 -1.899,0.327 0.093,-0.13 0.186,-0.26 0.28,-0.389 0.299,-0.413 0.636,-0.815 1.007,-1.185 C -0.349,-1.034 0.332,-0.833 0,0"
           style="fill:#593019;fill-opacity:1;fill-rule:nonzero;stroke:none"
           id="path3332" />
      </g>
      <g
         id="g3334"
         transform="matrix(0.35277777,0,0,-0.35277777,85.45278,124.35397)">
        <path
           d="m 0,0 c -0.106,-0.45 -0.233,-0.888 -0.405,-1.257 -0.315,-0.691 -0.782,-1.15 -1.551,-1.015 -0.5,0.086 -0.807,0.483 -0.991,0.979 -0.176,0.491 -0.241,1.072 -0.258,1.543 -0.012,0.339 0.356,0.544 0.643,0.368 C -2.083,0.323 -1.375,0.086 -0.606,0.467 -0.282,0.63 0.082,0.352 0,0"
           style="fill:#d13c2c;fill-opacity:1;fill-rule:nonzero;stroke:none"
           id="path3336" />
      </g>
      <g
         id="g3338"
         transform="matrix(0.35277777,0,0,-0.35277777,-89.066312,227.90994)">
        <g
           id="g3340" />
        <g
           id="g3352">
          <g
             clip-path="url(#clipPath3344)"
             opacity="0.5"
             id="g3350">
            <g
               transform="translate(494.2945,292.288)"
               id="g3348">
              <path
                 d="m 0,0 c -0.315,-0.692 -0.782,-1.15 -1.551,-1.015 -0.5,0.086 -0.806,0.483 -0.991,0.978 C -2.005,0.475 -1.019,1.068 0,0"
                 style="fill:#d13c2c;fill-opacity:1;fill-rule:nonzero;stroke:none"
                 id="path3346" />
            </g>
          </g>
        </g>
      </g>
    </g>
  </g>
</svg>
