<?xml version="1.0" encoding="UTF-8" standalone="no"?>
<!-- Created with Inkscape (http://www.inkscape.org/) -->

<svg
   width="34.203659mm"
   height="31.225857mm"
   viewBox="0 0 34.203659 31.225857"
   version="1.1"
   id="svg44258"
   inkscape:version="1.1-rc (52f87abb86, 2021-05-02)"
   sodipodi:docname="m-mouton.svg"
   xmlns:inkscape="http://www.inkscape.org/namespaces/inkscape"
   xmlns:sodipodi="http://sodipodi.sourceforge.net/DTD/sodipodi-0.dtd"
   xmlns="http://www.w3.org/2000/svg"
   xmlns:svg="http://www.w3.org/2000/svg">
  <sodipodi:namedview
     id="namedview44260"
     pagecolor="#ffffff"
     bordercolor="#666666"
     borderopacity="1.0"
     objecttolerance="10.0"
     gridtolerance="10.0"
     guidetolerance="10.0"
     inkscape:pageshadow="2"
     inkscape:pageopacity="0.0"
     inkscape:pagecheckerboard="0"
     inkscape:document-units="mm"
     showgrid="false"
     fit-margin-top="0"
     fit-margin-left="0"
     fit-margin-right="0"
     fit-margin-bottom="0"
     inkscape:zoom="0.94875842"
     inkscape:cx="193.93767"
     inkscape:cy="363.10613"
     inkscape:window-width="3840"
     inkscape:window-height="2066"
     inkscape:window-x="2869"
     inkscape:window-y="-11"
     inkscape:window-maximized="1"
     inkscape:current-layer="layer1" />
  <defs
     id="defs44255">
    <clipPath
       clipPathUnits="userSpaceOnUse"
       id="clipPath5084">
      <path
         d="m 487.186,207.473 h 15.409 v -13.937 h -15.409 z"
         id="path5082" />
    </clipPath>
    <clipPath
       clipPathUnits="userSpaceOnUse"
       id="clipPath5128">
      <path
         d="m 462.462,206.102 h 5.091 v -2.336 h -5.091 z"
         id="path5126" />
    </clipPath>
    <clipPath
       clipPathUnits="userSpaceOnUse"
       id="clipPath5144">
      <path
         d="m 461.809,206.106 h 5.906 v -4.362 h -5.906 z"
         id="path5142" />
    </clipPath>
    <clipPath
       clipPathUnits="userSpaceOnUse"
       id="clipPath5176">
      <path
         d="m 483.074,213.734 h 3.353 v -4.546 h -3.353 z"
         id="path5174" />
    </clipPath>
    <clipPath
       clipPathUnits="userSpaceOnUse"
       id="clipPath5192">
      <path
         d="m 483.639,214.05 h 3.679 v -6.003 h -3.679 z"
         id="path5190" />
    </clipPath>
    <clipPath
       clipPathUnits="userSpaceOnUse"
       id="clipPath5208">
      <path
         d="m 458.149,205.625 h 9.692 v -23.219 h -9.692 z"
         id="path5206" />
    </clipPath>
    <clipPath
       clipPathUnits="userSpaceOnUse"
       id="clipPath5228">
      <path
         d="m 465.836,213.178 h 20.241 v -11.435 h -20.241 z"
         id="path5226" />
    </clipPath>
    <clipPath
       clipPathUnits="userSpaceOnUse"
       id="clipPath5252">
      <path
         d="m 485.876,202.007 h 3.265 v -3.921 h -3.265 z"
         id="path5250" />
    </clipPath>
    <clipPath
       clipPathUnits="userSpaceOnUse"
       id="clipPath5276">
      <path
         d="m 470.439,197.292 h 4.665 v -2.286 h -4.665 z"
         id="path5274" />
    </clipPath>
  </defs>
  <g
     inkscape:label="Layer 1"
     inkscape:groupmode="layer"
     id="layer1"
     transform="translate(-53.731974,-52.432141)">
    <g
       id="g7084"
       transform="matrix(0.35277777,0,0,-0.35277777,70.704818,59.098583)">
      <path
         d="m 0,0 c -3.91,-15.531 -6.951,-30.736 -13.141,-51.046 l -9.884,0.87 c -4.778,18.897 -6.842,32.255 -11.295,51.37 l -0.869,0.109 c 0.543,-19.874 1.086,-38.011 2.281,-59.95 l -14.336,1.303 c -0.434,14.119 -0.868,26.174 -0.868,38.121 0,11.403 0.434,22.59 1.846,35.08 l 20.417,-1.629 c 3.259,-11.73 5.54,-23.785 8.037,-38.339 4.453,14.445 7.82,28.346 10.752,43.008 l 20.527,-1.846 c 0.326,-12.598 0.869,-24.545 0.869,-38.446 0,-12.707 0,-26.066 -0.977,-38.122 l -14.88,1.413 c 1.846,18.354 1.955,38.99 2.389,57.995 z"
         style="fill:#594838;fill-opacity:1;fill-rule:nonzero;stroke:none"
         id="path7086" />
    </g>
    <g
       id="g13005"
       transform="matrix(0.9261784,0,0,0.87871298,6.211687,-66.680033)">
      <g
         id="g5054"
         transform="matrix(0.35277777,0,0,-0.35277777,82.339763,166.1261)">
        <path
           d="m 0,0 c 0,0 0,-7.133 -2.097,-12.18 -0.169,-0.407 -0.676,-0.538 -1.019,-0.26 -0.516,0.419 -0.636,0.399 -0.636,0.399 l -0.593,-0.457 c -0.333,-0.258 -0.822,-0.137 -0.99,0.248 -0.332,0.757 -0.839,2.202 -1.346,4.758 C -6.13,-4.494 0,0 0,0"
           style="fill:#160906;fill-opacity:1;fill-rule:nonzero;stroke:none"
           id="path5056" />
      </g>
      <g
         id="g5058"
         transform="matrix(0.35277777,0,0,-0.35277777,80.447428,167.80377)">
        <path
           d="m 0,0 c 0,0 -0.954,-6.289 -2.009,-8.858 -0.168,-0.408 -0.677,-0.537 -1.019,-0.259 -0.516,0.419 -0.637,0.399 -0.637,0.399 l -0.593,-0.458 c -0.333,-0.257 -0.821,-0.137 -0.99,0.249 -0.332,0.756 -0.839,2.202 -1.346,4.757 C -6.042,-1.172 0,0 0,0"
           style="fill:#210f0a;fill-opacity:1;fill-rule:nonzero;stroke:none"
           id="path5060" />
      </g>
      <g
         id="g5062"
         transform="matrix(0.35277777,0,0,-0.35277777,71.204086,166.1261)">
        <path
           d="m 0,0 c 0,0 0,-7.133 -2.097,-12.18 -0.169,-0.407 -0.676,-0.538 -1.019,-0.26 -0.516,0.419 -0.636,0.399 -0.636,0.399 l -0.593,-0.457 c -0.333,-0.258 -0.822,-0.137 -0.991,0.248 -0.331,0.757 -0.838,2.202 -1.345,4.758 C -6.13,-4.494 0,0 0,0"
           style="fill:#160906;fill-opacity:1;fill-rule:nonzero;stroke:none"
           id="path5064" />
      </g>
      <g
         id="g5066"
         transform="matrix(0.35277777,0,0,-0.35277777,69.311751,167.80377)">
        <path
           d="m 0,0 c 0,0 -0.954,-6.289 -2.009,-8.858 -0.168,-0.408 -0.677,-0.537 -1.019,-0.259 -0.516,0.419 -0.637,0.399 -0.637,0.399 L -4.258,-9.176 C -4.591,-9.433 -5.079,-9.313 -5.248,-8.927 -5.58,-8.171 -7.369,-5.031 -7.369,0 -6.818,2.998 0,0 0,0"
           style="fill:#210f0a;fill-opacity:1;fill-rule:nonzero;stroke:none"
           id="path5068" />
      </g>
      <g
         id="g5070"
         transform="matrix(0.35277777,0,0,-0.35277777,64.733507,159.90677)">
        <path
           d="m 0,0 c -3.266,1.031 -4.037,-2.152 -2.612,-2.964 -1.425,-0.244 -1.247,-1.833 -0.238,-2.279 -0.891,-0.911 -0.432,-5.115 3.125,-3.703 3.906,1.552 4.238,3.619 3.763,4.187 -0.475,0.569 -3.763,4.187 -3.763,4.187 z"
           style="fill:#210f0a;fill-opacity:1;fill-rule:nonzero;stroke:none"
           id="path5072" />
      </g>
      <g
         id="g5074"
         transform="matrix(0.35277777,0,0,-0.35277777,82.802149,154.71808)">
        <path
           d="m 0,0 c 0.074,-0.211 2.585,-6.906 2.651,-6.931 0.07,-0.029 6.55,-7.832 10.131,-6.934 1.977,0.492 3.114,2.489 2.423,4.478 -0.562,1.617 -2.34,3.225 -5.868,4.003 C 5.996,-4.648 3.871,-3.639 2.506,-2.688 0.674,-1.41 0.211,-0.244 0,0"
           style="fill:#210f0a;fill-opacity:1;fill-rule:nonzero;stroke:none"
           id="path5076" />
      </g>
      <g
         id="g5078"
         transform="matrix(0.35277777,0,0,-0.35277777,-89.066312,227.90994)">
        <g
           id="g5080" />
        <g
           id="g5092">
          <g
             clip-path="url(#clipPath5084)"
             opacity="0.5"
             id="g5090">
            <g
               transform="translate(487.1862,207.473)"
               id="g5088">
              <path
                 d="m 0,0 c 0.074,-0.211 2.585,-6.906 2.651,-6.931 0.07,-0.029 6.55,-7.832 10.131,-6.934 1.977,0.492 3.114,2.489 2.423,4.478 C 15.437,-13.626 9.136,-11.393 6.96,-8.44 4.608,-5.249 3.419,-3.882 2.506,-2.688 0.674,-1.41 0.211,-0.244 0,0"
                 style="fill:#210f0a;fill-opacity:1;fill-rule:nonzero;stroke:none"
                 id="path5086" />
            </g>
          </g>
        </g>
      </g>
      <g
         id="g5094"
         transform="matrix(0.35277777,0,0,-0.35277777,66.645668,167.48715)">
        <path
           d="m 0,0 c 0.686,-4.689 5.975,-4.516 6.96,-2.965 1.997,-2.204 4.499,-2.324 5.305,-1.447 1.241,-2.068 4.206,-2.068 5.31,-0.071 0,0 1.513,-2.824 4.359,-3.651 2.845,-0.827 6.045,-0.07 7.84,3.585 5.376,-3.101 9.097,0.48 9.35,3.652 3.903,-0.344 5.123,2.274 4.896,4.065 0,0 3.879,-1.481 5.326,1.86 0.806,1.861 0.265,3.358 -0.405,4.342 -0.571,0.844 -1.237,1.311 -1.237,1.311 l -9.593,2.436 c 0,0 -8.664,13.171 -13.994,17.455 -0.211,0.169 -0.426,0.331 -0.641,0.479 -5.153,3.586 -10.653,0.997 -11.347,-2.282 -0.852,2.303 -5.401,2.225 -5.653,-0.29 C 4.135,30.08 1.861,28.355 1.861,26.461 -4.363,28.479 -8.084,18.642 -4.276,15.205 -6.273,14.494 -6.203,10.404 -4.069,8.891 -8.291,5.822 -4.569,-1.154 0,0"
           style="fill:#ffffff;fill-opacity:1;fill-rule:nonzero;stroke:none"
           id="path5096" />
      </g>
      <g
         id="g5098"
         transform="matrix(0.35277777,0,0,-0.35277777,72.558329,163.46813)">
        <path
           d="M 0,0 C 2.808,-2.924 7.712,-2.411 9.176,4.408 9.358,3.759 9.557,3.184 9.772,2.713 c 0,0 3.308,-11.327 16.818,-7.208 2.315,0.707 4.147,1.547 5.59,2.473 -0.57,0.843 -1.236,1.311 -1.236,1.311 L 21.35,1.724 c 0,0 -8.663,13.171 -13.993,17.455 -0.211,0.17 -0.426,0.331 -0.641,0.48 C 5.992,17.848 5.223,15.544 4.499,12.679 3.122,7.212 -3.449,3.581 0,0"
           style="fill:#e2e2e2;fill-opacity:1;fill-rule:nonzero;stroke:none"
           id="path5100" />
      </g>
      <g
         id="g5102"
         transform="matrix(0.35277777,0,0,-0.35277777,72.558329,162.96482)">
        <path
           d="m 0,0 c 3.445,-3.585 10.04,-2.01 9.577,10.036 -0.459,12.05 0.025,8.444 0.025,8.444 l 0.091,3.048 0.116,3.937 c 0,0 -2.911,-3.267 -5.31,-12.786 C 3.122,7.212 -3.449,3.581 0,0"
           style="fill:#210f0a;fill-opacity:1;fill-rule:nonzero;stroke:none"
           id="path5104" />
      </g>
      <g
         id="g5106"
         transform="matrix(0.35277777,0,0,-0.35277777,73.795133,155.18928)">
        <path
           d="m 0,0 c -0.653,-1.31 3.713,-4.625 4.221,-4.773 2.641,0.821 2.382,3.361 1.864,3.741 C 5.567,-0.652 0.417,0.837 0,0"
           style="fill:#f5c495;fill-opacity:1;fill-rule:nonzero;stroke:none"
           id="path5108" />
      </g>
      <g
         id="g5110"
         transform="matrix(0.35277777,0,0,-0.35277777,74.931113,156.61366)">
        <path
           d="M 0,0 C 1.018,0.795 1.685,2.101 1.548,3.406 1.541,3.472 1.451,3.475 1.444,3.407 1.291,2.092 0.881,1.019 -0.066,0.069 -0.11,0.025 -0.048,-0.037 0,0"
           style="fill:#774735;fill-opacity:1;fill-rule:nonzero;stroke:none"
           id="path5112" />
      </g>
      <g
         id="g5114"
         transform="matrix(0.35277777,0,0,-0.35277777,74.406179,156.22391)">
        <path
           d="M 0,0 C 0.819,0.615 1.379,1.773 1.233,2.802 1.223,2.877 1.122,2.85 1.113,2.789 0.959,1.694 0.678,0.9 -0.054,0.057 -0.087,0.018 -0.04,-0.03 0,0"
           style="fill:#774735;fill-opacity:1;fill-rule:nonzero;stroke:none"
           id="path5116" />
      </g>
      <g
         id="g5118"
         transform="matrix(0.35277777,0,0,-0.35277777,74.087445,155.87667)">
        <path
           d="M 0,0 C 0.54,0.525 1.026,1.312 0.935,2.096 0.928,2.164 0.824,2.196 0.805,2.116 0.619,1.351 0.486,0.682 -0.078,0.082 -0.127,0.03 -0.053,-0.051 0,0"
           style="fill:#774735;fill-opacity:1;fill-rule:nonzero;stroke:none"
           id="path5120" />
      </g>
      <g
         id="g5122"
         transform="matrix(0.35277777,0,0,-0.35277777,-89.066312,227.90994)">
        <g
           id="g5124" />
        <g
           id="g5136">
          <g
             clip-path="url(#clipPath5128)"
             opacity="0.5"
             id="g5134">
            <g
               transform="translate(462.4615,205.9873)"
               id="g5132">
              <path
                 d="M 0,0 C -0.004,-0.39 3.419,-1.849 4.212,-2.168 5.004,-2.487 5.59,-1.289 4.47,-0.914 3.35,-0.539 0.005,0.449 0,0"
                 style="fill:#f5c495;fill-opacity:1;fill-rule:nonzero;stroke:none"
                 id="path5130" />
            </g>
          </g>
        </g>
      </g>
      <g
         id="g5138"
         transform="matrix(0.35277777,0,0,-0.35277777,-89.066312,227.90994)">
        <g
           id="g5140" />
        <g
           id="g5152">
          <g
             clip-path="url(#clipPath5144)"
             opacity="0.5"
             id="g5150">
            <g
               transform="translate(466.3916,202.3178)"
               id="g5148">
              <path
                 d="m 0,0 c -0.214,-0.083 -0.455,-0.069 -0.65,0.052 -0.955,0.593 -3.507,2.591 -3.686,3.736 -0.091,-0.034 -0.157,-0.08 -0.189,-0.143 -0.517,-1.014 2.57,-3.45 3.64,-4.115 0.195,-0.12 0.436,-0.134 0.65,-0.051 0.925,0.36 1.379,0.973 1.559,1.568 C 1.07,0.635 0.654,0.254 0,0"
                 style="fill:#f5c495;fill-opacity:1;fill-rule:nonzero;stroke:none"
                 id="path5146" />
            </g>
          </g>
        </g>
      </g>
      <g
         id="g5154"
         transform="matrix(0.35277777,0,0,-0.35277777,82.729406,152.3133)">
        <path
           d="M 0,0 C 1.29,-0.691 -0.354,-5.92 -0.683,-6.335 -3.313,-7.193 -4.57,-4.97 -4.368,-4.361 -4.165,-3.751 -0.824,0.442 0,0"
           style="fill:#f5c495;fill-opacity:1;fill-rule:nonzero;stroke:none"
           id="path5156" />
      </g>
      <g
         id="g5158"
         transform="matrix(0.35277777,0,0,-0.35277777,82.626501,154.13233)">
        <path
           d="M 0,0 C -1.29,0.06 -2.59,0.74 -3.233,1.883 -3.265,1.941 -3.194,1.996 -3.148,1.945 -2.263,0.96 -1.309,0.322 0.013,0.095 0.075,0.084 0.061,-0.003 0,0"
           style="fill:#774735;fill-opacity:1;fill-rule:nonzero;stroke:none"
           id="path5160" />
      </g>
      <g
         id="g5162"
         transform="matrix(0.35277777,0,0,-0.35277777,82.829278,153.51077)">
        <path
           d="M 0,0 C -1.024,0.028 -2.15,0.649 -2.627,1.573 -2.661,1.64 -2.564,1.676 -2.521,1.631 -1.762,0.828 -1.074,0.342 0.011,0.078 0.061,0.065 0.05,-0.001 0,0"
           style="fill:#774735;fill-opacity:1;fill-rule:nonzero;stroke:none"
           id="path5164" />
      </g>
      <g
         id="g5166"
         transform="matrix(0.35277777,0,0,-0.35277777,82.888474,153.04312)">
        <path
           d="M 0,0 C -0.744,0.116 -1.595,0.477 -1.975,1.169 -2.008,1.229 -1.942,1.315 -1.88,1.26 -1.286,0.744 -0.79,0.275 0.016,0.112 0.087,0.098 0.072,-0.011 0,0"
           style="fill:#774735;fill-opacity:1;fill-rule:nonzero;stroke:none"
           id="path5168" />
      </g>
      <g
         id="g5170"
         transform="matrix(0.35277777,0,0,-0.35277777,-89.066312,227.90994)">
        <g
           id="g5172" />
        <g
           id="g5184">
          <g
             clip-path="url(#clipPath5176)"
             opacity="0.5"
             id="g5182">
            <g
               transform="translate(486.4083,213.7006)"
               id="g5180">
              <path
                 d="M 0,0 C 0.229,-0.316 -1.72,-3.486 -2.182,-4.205 -2.644,-4.923 -3.815,-4.284 -3.118,-3.331 -2.421,-2.377 -0.263,0.364 0,0"
                 style="fill:#f5c495;fill-opacity:1;fill-rule:nonzero;stroke:none"
                 id="path5178" />
            </g>
          </g>
        </g>
      </g>
      <g
         id="g5186"
         transform="matrix(0.35277777,0,0,-0.35277777,-89.066312,227.90994)">
        <g
           id="g5188" />
        <g
           id="g5200">
          <g
             clip-path="url(#clipPath5192)"
             opacity="0.5"
             id="g5198">
            <g
               transform="translate(485.3246,208.4342)"
               id="g5196">
              <path
                 d="M 0,0 C 0.223,0.056 0.411,0.207 0.5,0.419 0.936,1.454 1.863,4.56 1.347,5.598 1.44,5.623 1.521,5.623 1.584,5.591 2.592,5.062 1.482,1.289 0.993,0.129 0.905,-0.083 0.715,-0.233 0.493,-0.289 -0.47,-0.531 -1.194,-0.293 -1.685,0.088 -1.24,-0.101 -0.68,-0.171 0,0"
                 style="fill:#f5c495;fill-opacity:1;fill-rule:nonzero;stroke:none"
                 id="path5194" />
            </g>
          </g>
        </g>
      </g>
      <g
         id="g5202"
         transform="matrix(0.35277777,0,0,-0.35277777,-89.066312,227.90994)">
        <g
           id="g5204" />
        <g
           id="g5216">
          <g
             clip-path="url(#clipPath5208)"
             opacity="0.5"
             id="g5214">
            <g
               transform="translate(458.1486,184.0964)"
               id="g5212">
              <path
                 d="m 0,0 c 3.445,-3.585 10.04,-2.01 9.577,10.036 -0.459,12.05 0.025,8.444 0.025,8.444 l 0.091,3.048 C 8.688,20.325 7.782,19.726 7.782,19.726 7.782,19.726 6.361,14.938 7.203,8.2 7.913,2.525 4.11,-2.361 0,0"
                 style="fill:#210f0a;fill-opacity:1;fill-rule:nonzero;stroke:none"
                 id="path5210" />
            </g>
          </g>
        </g>
      </g>
      <g
         id="g5218"
         transform="matrix(0.35277777,0,0,-0.35277777,75.23817,157.12953)">
        <path
           d="m 0,0 c 0.145,-3.511 0.794,-10.83 2.175,-13.828 0,0 3.308,-11.331 16.818,-7.208 13.51,4.119 10.615,12.832 9.511,16.487 -1.228,4.086 -3.825,7.704 -6.703,10.979 -0.48,0.55 -0.984,1.084 -1.509,1.601 -1.729,1.695 -3.718,3.155 -6.05,3.974 C 11.207,13.067 6.199,12.699 2.775,9.548 1.282,8.171 0.38,5.157 0.091,2.432 0,1.571 -0.029,0.74 0,0"
           style="fill:#210f0a;fill-opacity:1;fill-rule:nonzero;stroke:none"
           id="path5220" />
      </g>
      <g
         id="g5222"
         transform="matrix(0.35277777,0,0,-0.35277777,-89.066312,227.90994)">
        <g
           id="g5224" />
        <g
           id="g5236">
          <g
             clip-path="url(#clipPath5228)"
             opacity="0.5"
             id="g5234">
            <g
               transform="translate(465.8359,203.0689)"
               id="g5232">
              <path
                 d="m 0,0 c 0.773,-0.678 1.741,-0.732 2.353,-0.707 0.169,-0.811 1.567,-0.492 2.146,0.161 2.535,-2.092 5,0.571 5.372,1.642 0.513,-0.095 1.224,-0.852 2.022,0.306 1.522,-0.869 4.346,0.219 4.421,1.741 0,0 0.794,-0.757 2.022,-0.364 1.65,0.612 2.047,1.935 1.865,2.82 -1.729,1.696 -3.718,3.155 -6.05,3.974 C 11.116,10.636 6.108,10.268 2.684,7.117 1.191,5.74 0.289,2.725 0,0"
                 style="fill:#210f0a;fill-opacity:1;fill-rule:nonzero;stroke:none"
                 id="path5230" />
            </g>
          </g>
        </g>
      </g>
      <g
         id="g5238"
         transform="matrix(0.35277777,0,0,-0.35277777,81.362851,157.43002)">
        <path
           d="M 0,0 C 1.01,-1.332 2.909,-1.594 4.241,-0.584 5.573,0.426 5.835,2.325 4.825,3.657 3.815,4.99 1.916,5.251 0.584,4.241 -0.749,3.231 -1.01,1.332 0,0"
           style="fill:#ffffff;fill-opacity:1;fill-rule:nonzero;stroke:none"
           id="path5240" />
      </g>
      <g
         id="g5242"
         transform="matrix(0.35277777,0,0,-0.35277777,82.089644,157.3026)">
        <path
           d="M 0,0 C 0.432,-0.57 1.244,-0.682 1.814,-0.25 2.384,0.182 2.496,0.994 2.064,1.564 1.632,2.134 0.82,2.246 0.25,1.814 -0.32,1.382 -0.432,0.57 0,0"
           style="fill:#210f0a;fill-opacity:1;fill-rule:nonzero;stroke:none"
           id="path5244" />
      </g>
      <g
         id="g5246"
         transform="matrix(0.35277777,0,0,-0.35277777,-89.066312,227.90994)">
        <g
           id="g5248" />
        <g
           id="g5260">
          <g
             clip-path="url(#clipPath5252)"
             id="g5258">
            <g
               transform="translate(489.0195,202.0069)"
               id="g5256">
              <path
                 d="M 0,0 C 0,0 0.126,-0.343 0.121,-0.89 0.12,-1.161 0.08,-1.482 -0.029,-1.809 -0.085,-1.973 -0.153,-2.138 -0.247,-2.294 -0.323,-2.46 -0.451,-2.597 -0.557,-2.748 -0.808,-3.021 -1.102,-3.246 -1.399,-3.415 -1.7,-3.582 -2,-3.686 -2.262,-3.757 -2.517,-3.851 -2.75,-3.848 -2.901,-3.883 c -0.155,-0.024 -0.243,-0.038 -0.243,-0.038 0,0 0.35,0.089 0.845,0.275 0.123,0.049 0.255,0.102 0.395,0.158 0.132,0.073 0.271,0.149 0.414,0.228 0.28,0.169 0.55,0.389 0.777,0.647 0.459,0.519 0.675,1.207 0.718,1.73 C 0.066,-0.358 0,0 0,0"
                 style="fill:#210f0a;fill-opacity:1;fill-rule:nonzero;stroke:none"
                 id="path5254" />
            </g>
          </g>
        </g>
      </g>
      <g
         id="g5262"
         transform="matrix(0.35277777,0,0,-0.35277777,76.337885,157.96702)">
        <path
           d="m 0,0 c 0.225,-1.657 1.75,-2.818 3.406,-2.593 1.657,0.225 2.818,1.75 2.593,3.407 C 5.775,2.47 4.25,3.631 2.593,3.407 0.936,3.182 -0.225,1.657 0,0"
           style="fill:#ffffff;fill-opacity:1;fill-rule:nonzero;stroke:none"
           id="path5264" />
      </g>
      <g
         id="g5266"
         transform="matrix(0.35277777,0,0,-0.35277777,77.033457,158.21322)">
        <path
           d="M 0,0 C 0.096,-0.709 0.749,-1.205 1.457,-1.109 2.166,-1.013 2.662,-0.361 2.566,0.348 2.47,1.057 1.818,1.553 1.109,1.457 0.4,1.361 -0.096,0.709 0,0"
           style="fill:#210f0a;fill-opacity:1;fill-rule:nonzero;stroke:none"
           id="path5268" />
      </g>
      <g
         id="g5270"
         transform="matrix(0.35277777,0,0,-0.35277777,-89.066312,227.90994)">
        <g
           id="g5272" />
        <g
           id="g5284">
          <g
             clip-path="url(#clipPath5276)"
             id="g5282">
            <g
               transform="translate(475.1038,197.2917)"
               id="g5280">
              <path
                 d="m 0,0 c 0,0 -0.058,-0.361 -0.332,-0.834 -0.134,-0.237 -0.327,-0.496 -0.582,-0.728 -0.13,-0.114 -0.269,-0.225 -0.428,-0.314 -0.149,-0.108 -0.327,-0.164 -0.494,-0.244 -0.352,-0.114 -0.719,-0.165 -1.061,-0.166 -0.344,0.002 -0.657,0.059 -0.92,0.126 -0.268,0.044 -0.469,0.16 -0.618,0.204 -0.146,0.055 -0.23,0.087 -0.23,0.087 0,0 0.348,-0.095 0.871,-0.177 0.131,-0.017 0.272,-0.036 0.422,-0.056 0.15,-0.001 0.309,-0.003 0.472,-0.005 0.327,0.009 0.67,0.068 0.995,0.182 0.655,0.226 1.181,0.719 1.476,1.153 C -0.118,-0.344 0,0 0,0"
                 style="fill:#210f0a;fill-opacity:1;fill-rule:nonzero;stroke:none"
                 id="path5278" />
            </g>
          </g>
        </g>
      </g>
      <g
         id="g5286"
         transform="matrix(0.35277777,0,0,-0.35277777,81.401057,160.43128)">
        <path
           d="M 0,0 C 0.924,-2.499 1.776,-5.009 1.309,-7.712 1.29,-7.821 1.44,-7.865 1.477,-7.758 2.338,-5.257 1.242,-2.188 0.198,0.083 0.147,0.194 -0.043,0.115 0,0"
           style="fill:#050102;fill-opacity:1;fill-rule:nonzero;stroke:none"
           id="path5288" />
      </g>
      <g
         id="g5290"
         transform="matrix(0.35277777,0,0,-0.35277777,81.2827,162.27987)">
        <path
           d="m 0,0 c -0.128,-1.006 0.783,-2.872 1.997,-2.763 1.259,0.112 1.615,2.26 1.73,3.209 C 3.742,0.569 3.551,0.584 3.517,0.474 3.381,0.036 3.284,-0.414 3.147,-0.852 3.021,-1.252 2.809,-2.034 2.411,-2.277 2.098,-2.306 1.786,-2.334 1.473,-2.363 1.33,-2.285 1.206,-2.187 1.1,-2.067 0.926,-1.895 0.784,-1.686 0.662,-1.473 0.388,-0.994 0.311,-0.489 0.124,0.017 0.098,0.086 0.009,0.07 0,0"
           style="fill:#050102;fill-opacity:1;fill-rule:nonzero;stroke:none"
           id="path5292" />
      </g>
      <g
         id="g5294"
         transform="matrix(0.35277777,0,0,-0.35277777,82.121182,159.44625)">
        <path
           d="m 0,0 c -0.104,0.235 -0.261,0.439 -0.464,0.574 -0.452,0.3 -1.024,0.224 -1.54,0.105 -0.832,-0.191 -1.684,-0.361 -2.462,-0.753 -0.679,-0.343 -1.347,-1.135 -0.835,-1.965 0.496,-0.806 1.778,-1.281 2.632,-1.346 0.898,-0.067 1.511,0.201 2.144,0.91 0.358,0.401 0.63,1.035 0.673,1.596 C 0.171,-0.58 0.119,-0.269 0,0"
           style="fill:#000000;fill-opacity:1;fill-rule:nonzero;stroke:none"
           id="path5296" />
      </g>
      <g
         id="g5298"
         transform="matrix(0.35277777,0,0,-0.35277777,81.71069,159.29004)">
        <path
           d="m 0,0 c -0.338,-0.003 -0.699,-0.086 -1.026,-0.162 -0.259,-0.061 -0.602,-0.107 -0.771,-0.336 -0.156,-0.213 -0.084,-0.498 0.122,-0.649 0.421,-0.309 1.209,-0.006 1.637,0.167 0.235,0.095 0.499,0.248 0.523,0.528 C 0.51,-0.16 0.264,0.002 0,0"
           style="fill:#ffffff;fill-opacity:1;fill-rule:nonzero;stroke:none"
           id="path5300" />
      </g>
      <g
         id="g5302"
         transform="matrix(0.35277777,0,0,-0.35277777,79.132872,151.00707)">
        <path
           d="m 0,0 c 1.305,0.74 4.156,1.174 4.832,-1.797 0,0 5.065,0.352 3.74,-5.876 0.922,-0.139 1.348,-2.748 -1.184,-3.691 -1.228,-0.396 -2.025,0.363 -2.025,0.363 -0.072,-1.522 -2.899,-2.609 -4.421,-1.74 -0.797,-1.159 -1.507,-0.401 -2.022,-0.309 -0.369,-1.068 -2.833,-3.732 -5.37,-1.639 -0.58,-0.652 -1.977,-0.972 -2.148,-0.164 -0.85,-0.034 -2.395,0.083 -3.131,1.823 -1.534,0 -2.571,2.317 -0.82,2.862 -0.569,1.196 -0.704,4.331 1.719,4.14 -0.186,1.549 0.551,6.623 5.473,5.97"
           style="fill:#ffffff;fill-opacity:1;fill-rule:nonzero;stroke:none"
           id="path5304" />
      </g>
      <g
         id="g5306"
         transform="matrix(0.35277777,0,0,-0.35277777,69.587129,159.08642)">
        <path
           d="m 0,0 c -0.415,0.221 -0.9,0.343 -1.411,0.289 -0.508,-0.037 -1.058,-0.351 -1.338,-0.834 -0.291,-0.46 -0.409,-1.023 -0.333,-1.565 0.084,-0.541 0.302,-1.029 0.698,-1.442 l 0.307,0.673 C -2.461,-2.882 -2.783,-2.97 -3.103,-3.118 -3.415,-3.269 -3.708,-3.509 -3.891,-3.829 -4.068,-4.155 -4.1,-4.531 -4.023,-4.847 c 0.061,-0.324 0.233,-0.594 0.405,-0.841 -0.049,0.301 -0.102,0.593 -0.073,0.867 0.027,0.271 0.107,0.512 0.267,0.68 0.148,0.176 0.361,0.292 0.595,0.37 0.227,0.084 0.501,0.114 0.711,0.097 0.216,-0.016 0.405,0.146 0.422,0.363 0.008,0.107 -0.028,0.208 -0.092,0.284 L -1.811,-3 c -0.225,0.263 -0.401,0.65 -0.46,1.012 -0.058,0.363 -0.02,0.755 0.145,1.094 0.143,0.339 0.425,0.587 0.814,0.73 C -0.924,-0.02 -0.467,0.015 0,0"
           style="fill:#e2e2e2;fill-opacity:1;fill-rule:nonzero;stroke:none"
           id="path5308" />
      </g>
      <g
         id="g5310"
         transform="matrix(0.35277777,0,0,-0.35277777,77.010279,152.17021)">
        <path
           d="m 0,0 c -0.415,0.221 -0.9,0.343 -1.411,0.289 -0.508,-0.037 -1.058,-0.351 -1.338,-0.834 -0.291,-0.46 -0.409,-1.023 -0.333,-1.565 0.084,-0.541 0.302,-1.029 0.698,-1.442 l 0.307,0.673 C -2.461,-2.882 -2.784,-2.97 -3.103,-3.118 -3.415,-3.269 -3.708,-3.509 -3.891,-3.829 -4.068,-4.155 -4.1,-4.531 -4.023,-4.847 c 0.061,-0.324 0.233,-0.595 0.405,-0.842 -0.049,0.302 -0.102,0.594 -0.073,0.868 0.027,0.271 0.107,0.512 0.267,0.68 0.147,0.176 0.361,0.292 0.594,0.37 0.228,0.084 0.502,0.113 0.712,0.097 0.216,-0.016 0.405,0.146 0.422,0.363 0.008,0.107 -0.028,0.208 -0.092,0.284 L -1.811,-3 c -0.225,0.263 -0.401,0.649 -0.46,1.012 -0.058,0.363 -0.02,0.755 0.145,1.094 0.143,0.339 0.425,0.587 0.814,0.73 C -0.924,-0.02 -0.467,0.015 0,0"
           style="fill:#e2e2e2;fill-opacity:1;fill-rule:nonzero;stroke:none"
           id="path5312" />
      </g>
      <g
         id="g5314"
         transform="matrix(0.35277777,0,0,-0.35277777,73.489733,167.2576)">
        <path
           d="m 0,0 c 0.146,-0.447 0.411,-0.871 0.817,-1.187 0.391,-0.325 1.005,-0.48 1.542,-0.327 0.528,0.13 1.004,0.454 1.324,0.897 0.316,0.448 0.496,0.951 0.498,1.523 L 3.493,0.634 C 3.772,0.37 4.065,0.21 4.398,0.094 4.727,-0.013 5.105,-0.044 5.459,0.06 5.812,0.172 6.096,0.421 6.26,0.703 6.441,0.978 6.504,1.292 6.552,1.589 6.378,1.338 6.213,1.091 6.003,0.914 5.795,0.737 5.57,0.619 5.339,0.609 5.11,0.584 4.876,0.649 4.654,0.755 4.432,0.852 4.214,1.02 4.074,1.178 3.929,1.34 3.681,1.354 3.518,1.209 3.438,1.138 3.394,1.04 3.388,0.941 L 3.385,0.905 C 3.365,0.56 3.223,0.16 3.015,-0.142 2.805,-0.445 2.505,-0.7 2.152,-0.83 1.814,-0.975 1.438,-0.958 1.059,-0.792 0.679,-0.627 0.326,-0.334 0,0"
           style="fill:#e2e2e2;fill-opacity:1;fill-rule:nonzero;stroke:none"
           id="path5316" />
      </g>
    </g>
  </g>
</svg>
