<?xml version="1.0" encoding="UTF-8" standalone="no"?>
<!-- Created with Inkscape (http://www.inkscape.org/) -->

<svg
   width="29.421097mm"
   height="32.830318mm"
   viewBox="0 0 29.421097 32.830318"
   version="1.1"
   id="svg50252"
   inkscape:version="1.1-rc (52f87abb86, 2021-05-02)"
   sodipodi:docname="n-northern-cardinal.svg"
   xmlns:inkscape="http://www.inkscape.org/namespaces/inkscape"
   xmlns:sodipodi="http://sodipodi.sourceforge.net/DTD/sodipodi-0.dtd"
   xmlns="http://www.w3.org/2000/svg"
   xmlns:svg="http://www.w3.org/2000/svg">
  <sodipodi:namedview
     id="namedview50254"
     pagecolor="#ffffff"
     bordercolor="#666666"
     borderopacity="1.0"
     objecttolerance="10.0"
     gridtolerance="10.0"
     guidetolerance="10.0"
     inkscape:pageshadow="2"
     inkscape:pageopacity="0.0"
     inkscape:pagecheckerboard="0"
     inkscape:document-units="mm"
     showgrid="false"
     fit-margin-top="0"
     fit-margin-left="0"
     fit-margin-right="0"
     fit-margin-bottom="0"
     inkscape:zoom="0.94875842"
     inkscape:cx="-450.06188"
     inkscape:cy="101.71188"
     inkscape:window-width="3840"
     inkscape:window-height="2066"
     inkscape:window-x="2869"
     inkscape:window-y="-11"
     inkscape:window-maximized="1"
     inkscape:current-layer="layer1" />
  <defs
     id="defs50249" />
  <g
     inkscape:label="Layer 1"
     inkscape:groupmode="layer"
     id="layer1"
     transform="translate(-224.28382,-121.62709)">
    <g
       id="g26864"
       transform="translate(95.095022,18.755957)">
      <g
         id="g8128"
         transform="matrix(0.35277777,0,0,-0.35277777,141.48359,130.91697)">
        <path
           d="m 0,0 c -0.217,4.453 -0.326,8.689 -0.326,13.033 0,20.961 1.412,43.117 2.932,61.254 L 17.051,72.875 C 22.916,56.693 28.889,41.271 36.383,27.803 36.057,45.398 35.623,63.752 34.863,79.5 l 13.575,-1.194 c 0,-15.64 0.109,-32.908 0.109,-50.503 0,-8.144 -0.435,-19.657 -0.869,-26.824 L 35.514,2.172 C 28.455,17.486 20.852,35.08 12.598,49.85 12.707,33.777 12.707,16.835 12.707,-1.411 Z"
           style="fill:#d33746;fill-opacity:1;fill-rule:nonzero;stroke:none"
           id="path8130" />
      </g>
      <g
         id="g8132"
         transform="matrix(0.35277777,0,0,-0.35277777,142.38554,130.97906)">
        <path
           d="m 0,0 c -0.078,-1.367 0.305,-2.816 0.464,-4.165 0.25,-2.12 0.152,-4.168 0.174,-6.288 0.003,-0.282 0.407,-0.335 0.487,-0.066 C 2.132,-7.176 0.983,-3.29 0.475,0.064 0.432,0.346 0.015,0.257 0,0"
           style="fill:#ba5c15;fill-opacity:1;fill-rule:nonzero;stroke:none"
           id="path8134" />
      </g>
      <g
         id="g8136"
         transform="matrix(0.35277777,0,0,-0.35277777,142.60737,134.62326)">
        <path
           d="m 0,0 c -0.54,-0.36 -1.315,-0.114 -1.775,-0.615 -0.118,-0.128 10e-4,-0.304 0.161,-0.277 0.644,0.11 1.538,-0.086 1.923,0.583 C 0.417,-0.121 0.194,0.129 0,0"
           style="fill:#ba5c15;fill-opacity:1;fill-rule:nonzero;stroke:none"
           id="path8138" />
      </g>
      <g
         id="g8140"
         transform="matrix(0.35277777,0,0,-0.35277777,142.61654,134.79576)">
        <path
           d="m 0,0 c 0.368,-0.178 0.825,-0.204 1.217,-0.317 0.421,-0.121 0.815,-0.374 1.242,-0.457 0.118,-0.023 0.256,0.077 0.21,0.209 C 2.514,-0.123 1.958,0.026 1.555,0.149 1.13,0.279 0.477,0.498 0.042,0.319 -0.082,0.268 -0.15,0.073 0,0"
           style="fill:#ba5c15;fill-opacity:1;fill-rule:nonzero;stroke:none"
           id="path8142" />
      </g>
      <g
         id="g8144"
         transform="matrix(0.35277777,0,0,-0.35277777,142.64758,134.67787)">
        <path
           d="M 0,0 C 1.202,0.065 2.135,0.333 3.164,-0.468 3.273,-0.553 3.459,-0.479 3.414,-0.322 3.076,0.87 0.738,0.775 -0.052,0.192 -0.126,0.137 -0.112,-0.006 0,0"
           style="fill:#ba5c15;fill-opacity:1;fill-rule:nonzero;stroke:none"
           id="path8146" />
      </g>
      <g
         id="g8148"
         transform="matrix(0.35277777,0,0,-0.35277777,135.91111,130.94026)">
        <path
           d="m 0,0 c 0,0 -17.211,8.199 -18.858,12.208 -1.647,4.01 7.447,-4.439 11.17,-5.513 0,0 -12.172,8.234 -10.525,10.525 1.646,2.291 7.718,-7.534 12.744,-9.666 0,0 -9.737,7.948 -6.014,8.02 3.723,0.071 3.15,-7.161 12.745,-9.308"
           style="fill:#ff8f29;fill-opacity:1;fill-rule:nonzero;stroke:none"
           id="path8150" />
      </g>
      <g
         id="g8152"
         transform="matrix(0.35277777,0,0,-0.35277777,149.98977,125.39981)">
        <path
           d="m 0,0 c -0.355,-5.207 -2.36,-10.505 -5.568,-14.022 -4.708,-5.172 -14.245,-7.257 -22.951,-6.037 h -0.006 c -1.89,0.263 -3.74,0.687 -5.493,1.266 -9.829,3.242 -12.922,11.874 -4.961,10.785 8.398,-1.145 14.126,4.296 15.655,8.117 1.529,3.815 -0.012,9.376 5.046,13.77 5.058,4.393 10.23,1.884 10.23,1.884 C -1.896,13.392 0.453,6.77 0,0"
           style="fill:#ff8f29;fill-opacity:1;fill-rule:nonzero;stroke:none"
           id="path8154" />
      </g>
      <g
         id="g8156"
         transform="matrix(0.35277777,0,0,-0.35277777,145.09565,125.85041)">
        <path
           d="m 0,0 c -0.501,4.797 -4.511,6.014 -4.511,6.014 -8.019,2.614 -8.496,-7.804 -13.938,-10.596 -3.223,-1.655 -9.94,-1.289 -9.94,-1.289 0.255,-0.743 0.88,-1.437 1.761,-2.065 -0.716,0.199 -1.335,0.28 -1.152,-0.119 0.393,-0.859 3.738,-2.086 6.791,-2.26 0,0 -2.448,-0.091 -1.302,-0.64 1.145,-0.549 4.077,-0.676 6.585,-0.219 0,0 -2.051,-0.568 -1.215,-0.759 0.835,-0.191 4.674,0.192 7.287,1.137 0,0 -2.013,-0.731 -1.154,-0.875 0.86,-0.143 4.726,0.573 7.566,4.63 0,0 -0.215,-0.954 -0.483,-1.837 0.859,0.304 3.003,4.363 3.356,6.005 0.001,0.004 0,0.006 0,0.01 C -0.032,-1.909 0.098,-0.941 0,0"
           style="fill:#f2535b;fill-opacity:1;fill-rule:nonzero;stroke:none"
           id="path8158" />
      </g>
      <g
         id="g8160"
         transform="matrix(0.35277777,0,0,-0.35277777,148.80027,121.78553)">
        <path
           d="m 0,0 c 0,0 -0.573,-2.339 0.334,-3.532 0,0 2.864,0.458 5.489,2.558 0,0 -3.245,1.195 -5.823,0.974"
           style="fill:#49322c;fill-opacity:1;fill-rule:nonzero;stroke:none"
           id="path8162" />
      </g>
      <g
         id="g8164"
         transform="matrix(0.35277777,0,0,-0.35277777,145.91025,121.20916)">
        <path
           d="M 0,0 C 0,0 -1.02,-0.507 -0.782,-1.844 -0.543,-3.18 1.128,-3.276 2.082,-2.56 3.037,-1.844 2.196,1.193 0,0"
           style="fill:#fffff7;fill-opacity:1;fill-rule:nonzero;stroke:none"
           id="path8166" />
      </g>
      <g
         id="g8168"
         transform="matrix(0.35277777,0,0,-0.35277777,146.21776,121.35176)">
        <path
           d="M 0,0 C 0,0 -0.409,-0.203 -0.313,-0.738 -0.218,-1.274 0.452,-1.312 0.834,-1.025 1.216,-0.738 0.879,0.478 0,0"
           style="fill:#3a3a3a;fill-opacity:1;fill-rule:nonzero;stroke:none"
           id="path8170" />
      </g>
      <g
         id="g8172"
         transform="matrix(0.35277777,0,0,-0.35277777,149.98977,125.39981)">
        <path
           d="m 0,0 c -0.355,-5.207 -2.36,-10.505 -5.568,-14.022 -4.708,-5.172 -14.245,-7.257 -22.951,-6.037 C -12.624,-20.363 -10.436,0.2 -5.184,1.862 -2.446,2.726 -0.876,1.432 0,0"
           style="fill:#fdb86b;fill-opacity:1;fill-rule:nonzero;stroke:none"
           id="path8174" />
      </g>
      <g
         id="g8176"
         transform="matrix(0.35277777,0,0,-0.35277777,142.61223,123.18888)">
        <path
           d="M 0,0 C 0.122,0.253 0.123,0.506 0.175,0.783 0.227,1.062 0.302,1.332 0.304,1.617 0.306,1.767 0.072,1.849 0.004,1.698 -0.201,1.238 -0.417,0.463 -0.143,0 -0.113,-0.05 -0.028,-0.057 0,0"
           style="fill:#f47e1e;fill-opacity:1;fill-rule:nonzero;stroke:none"
           id="path8178" />
      </g>
      <g
         id="g8180"
         transform="matrix(0.35277777,0,0,-0.35277777,142.89894,122.00694)">
        <path
           d="M 0,0 C 0.173,0.397 0.36,0.818 0.484,1.232 0.528,1.379 0.328,1.502 0.222,1.385 -0.098,1.029 -0.394,0.471 -0.193,0 -0.162,-0.074 -0.032,-0.073 0,0"
           style="fill:#f47e1e;fill-opacity:1;fill-rule:nonzero;stroke:none"
           id="path8182" />
      </g>
      <g
         id="g8184"
         transform="matrix(0.35277777,0,0,-0.35277777,143.40485,121.09405)">
        <path
           d="M 0,0 C 0.579,0.3 1.068,0.822 1.573,1.239 1.684,1.33 1.563,1.496 1.44,1.467 0.781,1.309 0.203,0.661 -0.073,0.073 -0.096,0.025 -0.05,-0.026 0,0"
           style="fill:#f47e1e;fill-opacity:1;fill-rule:nonzero;stroke:none"
           id="path8186" />
      </g>
      <g
         id="g8188"
         transform="matrix(0.35277777,0,0,-0.35277777,144.36811,120.39238)">
        <path
           d="M 0,0 C 0.765,0.12 1.626,0.413 2.246,0.885 2.357,0.969 2.296,1.143 2.149,1.114 1.399,0.962 0.523,0.705 -0.107,0.254 -0.238,0.16 -0.157,-0.025 0,0"
           style="fill:#f47e1e;fill-opacity:1;fill-rule:nonzero;stroke:none"
           id="path8190" />
      </g>
      <g
         id="g8192"
         transform="matrix(0.35277777,0,0,-0.35277777,145.50526,120.05946)">
        <path
           d="m 0,0 c 0.669,-0.211 1.541,0.012 2.213,0.148 0.12,0.024 0.11,0.203 0,0.233 C 1.53,0.567 0.679,0.381 0,0.242 -0.127,0.215 -0.111,0.035 0,0"
           style="fill:#f47e1e;fill-opacity:1;fill-rule:nonzero;stroke:none"
           id="path8194" />
      </g>
      <g
         id="g8196"
         transform="matrix(0.35277777,0,0,-0.35277777,146.55262,120.05547)">
        <path
           d="M 0,0 C 0.711,-0.062 1.373,-0.409 2.076,-0.494 2.25,-0.516 2.311,-0.245 2.164,-0.169 1.495,0.175 0.714,0.201 -0.01,0.075 -0.055,0.067 -0.04,0.003 0,0"
           style="fill:#f47e1e;fill-opacity:1;fill-rule:nonzero;stroke:none"
           id="path8198" />
      </g>
      <g
         id="g8200"
         transform="matrix(0.35277777,0,0,-0.35277777,147.33057,120.41397)">
        <path
           d="M 0,0 C 0.537,-0.118 0.91,-0.462 1.382,-0.703 1.488,-0.757 1.631,-0.642 1.556,-0.528 1.237,-0.04 0.56,0.192 0,0.104 -0.053,0.095 -0.05,0.011 0,0"
           style="fill:#f47e1e;fill-opacity:1;fill-rule:nonzero;stroke:none"
           id="path8202" />
      </g>
      <g
         id="g8204"
         transform="matrix(0.35277777,0,0,-0.35277777,142.98424,123.3512)">
        <path
           d="M 0,0 C 0.295,0.441 0.439,1.121 0.44,1.647 0.44,1.777 0.254,1.834 0.19,1.715 -0.058,1.252 -0.296,0.602 -0.267,0.072 -0.259,-0.072 -0.08,-0.12 0,0"
           style="fill:#f47e1e;fill-opacity:1;fill-rule:nonzero;stroke:none"
           id="path8206" />
      </g>
      <g
         id="g8208"
         transform="matrix(0.35277777,0,0,-0.35277777,143.18356,122.35626)">
        <path
           d="M 0,0 C 0.188,0.23 0.236,0.575 0.353,0.847 0.474,1.129 0.581,1.38 0.598,1.691 0.606,1.836 0.405,1.877 0.335,1.762 0.082,1.346 -0.502,0.457 -0.089,0 -0.068,-0.023 -0.021,-0.025 0,0"
           style="fill:#f47e1e;fill-opacity:1;fill-rule:nonzero;stroke:none"
           id="path8210" />
      </g>
      <g
         id="g8212"
         transform="matrix(0.35277777,0,0,-0.35277777,143.64651,121.49749)">
        <path
           d="M 0,0 C 0.417,0.267 0.886,0.685 1.141,1.111 1.222,1.245 1.061,1.405 0.927,1.325 0.489,1.065 -0.045,0.656 -0.197,0.152 -0.23,0.042 -0.099,-0.063 0,0"
           style="fill:#f47e1e;fill-opacity:1;fill-rule:nonzero;stroke:none"
           id="path8214" />
      </g>
      <g
         id="g8216"
         transform="matrix(0.35277777,0,0,-0.35277777,132.58146,128.86875)">
        <path
           d="M 0,0 C 1.925,-0.795 3.699,-1.98 5.708,-2.577 5.822,-2.611 5.904,-2.433 5.791,-2.381 4.676,-1.868 3.55,-1.379 2.433,-0.868 1.65,-0.51 0.884,0.01 0.009,0.066 -0.032,0.069 -0.032,0.013 0,0"
           style="fill:#f47e1e;fill-opacity:1;fill-rule:nonzero;stroke:none"
           id="path8218" />
      </g>
      <g
         id="g8220"
         transform="matrix(0.35277777,0,0,-0.35277777,133.53833,129.05625)">
        <path
           d="M 0,0 C 0.535,-0.206 1.065,-0.348 1.584,-0.609 2.018,-0.827 2.441,-1.093 2.919,-1.206 3.061,-1.24 3.138,-1.053 3.017,-0.973 2.502,-0.633 1.926,-0.347 1.356,-0.11 0.941,0.062 0.449,0.274 0,0.125 -0.064,0.104 -0.059,0.023 0,0"
           style="fill:#f47e1e;fill-opacity:1;fill-rule:nonzero;stroke:none"
           id="path8222" />
      </g>
      <g
         id="g8224"
         transform="matrix(0.35277777,0,0,-0.35277777,132.98888,128.1247)">
        <path
           d="m 0,0 c 0.443,-0.376 1.119,-0.604 1.651,-0.83 0.127,-0.054 0.28,0.095 0.16,0.207 C 1.387,-0.229 0.664,0.066 0.098,0.168 0.009,0.184 -0.084,0.071 0,0"
           style="fill:#f47e1e;fill-opacity:1;fill-rule:nonzero;stroke:none"
           id="path8226" />
      </g>
      <g
         id="g8228"
         transform="matrix(0.35277777,0,0,-0.35277777,133.83869,127.9027)">
        <path
           d="M 0,0 C 0.242,-0.423 0.784,-0.675 1.224,-0.838 1.301,-0.866 1.332,-0.757 1.276,-0.715 0.892,-0.431 0.438,-0.23 0.04,0.04 0.015,0.057 -0.014,0.024 0,0"
           style="fill:#f47e1e;fill-opacity:1;fill-rule:nonzero;stroke:none"
           id="path8230" />
      </g>
      <g
         id="g8232"
         transform="matrix(0.35277777,0,0,-0.35277777,143.37,130.61912)">
        <path
           d="M 0,0 C 0.622,-0.01 1.313,0.661 1.791,1.004 1.898,1.081 1.872,1.275 1.718,1.271 1.082,1.252 0.311,0.686 -0.089,0.214 -0.157,0.133 -0.114,0.002 0,0"
           style="fill:#f47e1e;fill-opacity:1;fill-rule:nonzero;stroke:none"
           id="path8234" />
      </g>
      <g
         id="g8236"
         transform="matrix(0.35277777,0,0,-0.35277777,144.51261,129.57483)">
        <path
           d="M 0,0 C 0.547,0.333 1.085,1.076 1.2,1.708 1.229,1.869 1.023,1.97 0.93,1.822 0.609,1.312 -0.045,0.66 -0.05,0.029 -0.051,0.004 -0.022,-0.013 0,0"
           style="fill:#f47e1e;fill-opacity:1;fill-rule:nonzero;stroke:none"
           id="path8238" />
      </g>
      <g
         id="g8240"
         transform="matrix(0.35277777,0,0,-0.35277777,145.33204,128.35623)">
        <path
           d="M 0,0 C 0.643,0.434 1.172,1.463 1.207,2.231 1.211,2.334 1.046,2.388 1.002,2.286 0.831,1.889 0.665,1.493 0.447,1.118 0.253,0.784 -0.001,0.469 -0.141,0.109 -0.171,0.031 -0.067,-0.045 0,0"
           style="fill:#f47e1e;fill-opacity:1;fill-rule:nonzero;stroke:none"
           id="path8242" />
      </g>
      <g
         id="g8244"
         transform="matrix(0.35277777,0,0,-0.35277777,145.9887,127.20021)">
        <path
           d="M 0,0 C 0.271,0.424 0.658,0.781 0.877,1.237 0.955,1.401 0.767,1.548 0.627,1.429 0.222,1.086 -0.148,0.578 -0.104,0.028 -0.1,-0.026 -0.031,-0.049 0,0"
           style="fill:#f47e1e;fill-opacity:1;fill-rule:nonzero;stroke:none"
           id="path8246" />
      </g>
      <g
         id="g8248"
         transform="matrix(0.35277777,0,0,-0.35277777,146.76065,125.83232)">
        <path
           d="M 0,0 C 0.422,0.437 0.827,1.062 1.043,1.628 1.087,1.743 0.941,1.833 0.846,1.78 0.292,1.467 -0.054,0.712 -0.209,0.122 -0.241,0.003 -0.088,-0.091 0,0"
           style="fill:#f47e1e;fill-opacity:1;fill-rule:nonzero;stroke:none"
           id="path8250" />
      </g>
      <g
         id="g8252"
         transform="matrix(0.35277777,0,0,-0.35277777,148.64907,124.39524)">
        <path
           d="M 0,0 C 0.352,-0.046 0.707,-0.065 1.052,-0.154 1.326,-0.225 1.577,-0.321 1.862,-0.329 1.975,-0.332 2.053,-0.17 1.96,-0.092 1.441,0.341 0.563,0.468 -0.049,0.179 -0.146,0.133 -0.083,0.011 0,0"
           style="fill:#f47e1e;fill-opacity:1;fill-rule:nonzero;stroke:none"
           id="path8254" />
      </g>
      <g
         id="g8256"
         transform="matrix(0.35277777,0,0,-0.35277777,144.95856,131.76685)">
        <path
           d="M 0,0 C 0.678,-0.388 2.103,-0.081 2.612,0.488 2.695,0.581 2.616,0.777 2.477,0.72 2.073,0.555 1.694,0.373 1.266,0.27 0.857,0.172 0.397,0.173 0.004,0.029 -0.008,0.024 -0.012,0.007 0,0"
           style="fill:#ffcf9f;fill-opacity:1;fill-rule:nonzero;stroke:none"
           id="path8258" />
      </g>
      <g
         id="g8260"
         transform="matrix(0.35277777,0,0,-0.35277777,146.65366,130.99088)">
        <path
           d="M 0,0 C 1.191,0.057 2.524,1.048 3.098,2.057 3.158,2.163 3.02,2.264 2.933,2.184 2.441,1.735 1.951,1.287 1.389,0.925 0.927,0.628 0.398,0.411 -0.024,0.057 -0.046,0.039 -0.028,-0.001 0,0"
           style="fill:#ffcf9f;fill-opacity:1;fill-rule:nonzero;stroke:none"
           id="path8262" />
      </g>
      <g
         id="g8264"
         transform="matrix(0.35277777,0,0,-0.35277777,148.04392,129.66944)">
        <path
           d="M 0,0 C 0.184,0.04 0.335,0.505 0.416,0.651 0.615,1.01 0.82,1.361 0.912,1.766 0.944,1.907 0.746,2.003 0.671,1.867 0.388,1.354 -0.15,0.706 -0.08,0.084 -0.075,0.045 -0.057,0.019 -0.02,0.005 -0.014,0.003 -0.007,-0.001 0,0"
           style="fill:#ffcf9f;fill-opacity:1;fill-rule:nonzero;stroke:none"
           id="path8266" />
      </g>
      <g
         id="g8268"
         transform="matrix(0.35277777,0,0,-0.35277777,149.56076,125.67067)">
        <path
           d="m 0,0 c -0.051,0.025 -0.101,0.052 -0.149,0.083 -0.07,0.041 -0.157,0.002 -0.179,-0.073 -0.157,-0.512 -0.083,-1.134 -0.117,-1.668 -0.01,-0.147 0.219,-0.213 0.283,-0.077 0.122,0.259 0.157,0.513 0.158,0.799 0,0.128 -0.133,0.835 0.004,0.913 0.008,0.005 0.009,0.018 0,0.023"
           style="fill:#ffcf9f;fill-opacity:1;fill-rule:nonzero;stroke:none"
           id="path8270" />
      </g>
      <g
         id="g8272"
         transform="matrix(0.35277777,0,0,-0.35277777,148.99889,125.4969)">
        <path
           d="M 0,0 C -0.182,-0.566 -0.082,-1.346 0.144,-1.887 0.176,-1.966 0.324,-1.969 0.311,-1.865 0.231,-1.248 0.151,-0.607 0.022,0 0.019,0.011 0.003,0.01 0,0"
           style="fill:#ffcf9f;fill-opacity:1;fill-rule:nonzero;stroke:none"
           id="path8274" />
      </g>
      <g
         id="g8276"
         transform="matrix(0.35277777,0,0,-0.35277777,149.1751,127.05579)">
        <path
           d="m 0,0 c -0.301,-0.853 -0.687,-1.687 -0.879,-2.572 -0.024,-0.115 0.136,-0.194 0.197,-0.083 0.442,0.808 0.715,1.698 0.85,2.609 C 0.185,0.063 0.038,0.108 0,0"
           style="fill:#ffcf9f;fill-opacity:1;fill-rule:nonzero;stroke:none"
           id="path8278" />
      </g>
      <g
         id="g8280"
         transform="matrix(0.35277777,0,0,-0.35277777,136.5804,128.89168)">
        <path
           d="m 0,0 c 0.785,-0.521 1.953,-0.349 2.85,-0.408 0.144,-0.01 0.204,0.21 0.074,0.275 C 2.078,0.29 1.041,0.062 0.151,0.358 -0.069,0.432 -0.178,0.118 0,0"
           style="fill:#e54554;fill-opacity:1;fill-rule:nonzero;stroke:none"
           id="path8282" />
      </g>
      <g
         id="g8284"
         transform="matrix(0.35277777,0,0,-0.35277777,138.00132,129.16014)">
        <path
           d="M 0,0 C 1.266,-0.301 3.055,-0.492 4.259,0.1 4.402,0.171 4.294,0.365 4.157,0.341 3.392,0.211 2.642,0.203 1.871,0.251 1.25,0.289 0.615,0.406 0,0.285 -0.144,0.256 -0.138,0.033 0,0"
           style="fill:#e54554;fill-opacity:1;fill-rule:nonzero;stroke:none"
           id="path8286" />
      </g>
      <g
         id="g8288"
         transform="matrix(0.35277777,0,0,-0.35277777,139.85595,129.50022)">
        <path
           d="M 0,0 C 1.261,-0.378 2.9,0.345 4.057,0.823 4.193,0.879 4.198,1.128 4.018,1.109 3.36,1.037 2.751,0.799 2.123,0.597 1.424,0.371 0.702,0.268 0,0.065 -0.032,0.055 -0.032,0.009 0,0"
           style="fill:#e54554;fill-opacity:1;fill-rule:nonzero;stroke:none"
           id="path8290" />
      </g>
      <g
         id="g8292"
         transform="matrix(0.35277777,0,0,-0.35277777,140.3051,129.01483)">
        <path
           d="M 0,0 C 1.128,-0.211 3.009,0.479 3.672,1.439 3.765,1.574 3.584,1.74 3.451,1.66 2.882,1.314 2.368,0.951 1.74,0.704 1.172,0.481 0.582,0.353 0,0.177 -0.081,0.152 -0.094,0.018 0,0"
           style="fill:#e54554;fill-opacity:1;fill-rule:nonzero;stroke:none"
           id="path8294" />
      </g>
      <g
         id="g8296"
         transform="matrix(0.35277777,0,0,-0.35277777,141.5514,129.01046)">
        <path
           d="M 0,0 C 0.662,0.047 1.234,0.487 1.718,0.911 2.297,1.418 2.854,2.003 3.249,2.668 3.32,2.787 3.166,2.882 3.07,2.806 2.546,2.392 2.127,1.86 1.649,1.396 1.133,0.895 0.548,0.545 -0.038,0.142 -0.095,0.103 -0.081,-0.006 0,0"
           style="fill:#e54554;fill-opacity:1;fill-rule:nonzero;stroke:none"
           id="path8298" />
      </g>
      <g
         id="g8300"
         transform="matrix(0.35277777,0,0,-0.35277777,142.56994,128.86409)">
        <path
           d="M 0,0 C 0.945,0.453 1.774,1.253 2.37,2.107 2.437,2.203 2.304,2.337 2.208,2.27 1.361,1.667 0.752,0.809 -0.19,0.325 -0.406,0.213 -0.216,-0.104 0,0"
           style="fill:#e54554;fill-opacity:1;fill-rule:nonzero;stroke:none"
           id="path8302" />
      </g>
      <g
         id="g8304"
         transform="matrix(0.35277777,0,0,-0.35277777,143.7861,127.76406)">
        <path
           d="M 0,0 C 0.679,0.225 1.093,0.913 1.395,1.518 1.741,2.213 2.088,3.05 2.22,3.817 2.241,3.94 2.093,4.005 2.019,3.901 1.625,3.343 1.429,2.622 1.134,2.009 0.808,1.333 0.451,0.708 -0.124,0.213 -0.22,0.13 -0.118,-0.039 0,0"
           style="fill:#e54554;fill-opacity:1;fill-rule:nonzero;stroke:none"
           id="path8306" />
      </g>
      <g
         id="g8308"
         transform="matrix(0.35277777,0,0,-0.35277777,143.26882,127.38479)">
        <path
           d="M 0,0 C 0.817,0.473 1.074,1.268 1.448,2.076 1.502,2.193 1.349,2.284 1.274,2.177 0.801,1.504 0.455,0.772 -0.171,0.221 -0.293,0.114 -0.136,-0.079 0,0"
           style="fill:#e54554;fill-opacity:1;fill-rule:nonzero;stroke:none"
           id="path8310" />
      </g>
      <g
         id="g8312"
         transform="matrix(0.35277777,0,0,-0.35277777,143.3385,126.55255)">
        <path
           d="M 0,0 C 0.592,0.702 0.98,1.872 1.067,2.775 1.08,2.905 0.908,2.917 0.846,2.834 0.562,2.455 0.446,1.998 0.308,1.551 0.157,1.061 -0.01,0.573 -0.127,0.074 -0.143,0.005 -0.052,-0.062 0,0"
           style="fill:#e54554;fill-opacity:1;fill-rule:nonzero;stroke:none"
           id="path8314" />
      </g>
      <g
         id="g8316"
         transform="matrix(0.35277777,0,0,-0.35277777,143.66662,124.73853)">
        <path
           d="M 0,0 C 0.722,-0.198 0.945,-1.047 1.119,-1.684 1.158,-1.824 1.341,-1.779 1.356,-1.651 1.446,-0.929 0.899,0.357 0,0.134 -0.067,0.117 -0.065,0.018 0,0"
           style="fill:#e54554;fill-opacity:1;fill-rule:nonzero;stroke:none"
           id="path8318" />
      </g>
      <g
         id="g8320"
         transform="matrix(0.35277777,0,0,-0.35277777,144.33615,124.91072)">
        <path
           d="m 0,0 c 0.628,-0.544 0.464,-1.272 0.632,-1.989 0.033,-0.143 0.236,-0.13 0.276,0 C 1.137,-1.253 0.816,-0.208 0.092,0.12 0.02,0.152 -0.071,0.061 0,0"
           style="fill:#e54554;fill-opacity:1;fill-rule:nonzero;stroke:none"
           id="path8322" />
      </g>
      <g
         id="g8324"
         transform="matrix(0.35277777,0,0,-0.35277777,143.66365,131.61053)">
        <path
           d="m 0,0 c -0.078,-1.367 0.305,-2.816 0.464,-4.165 0.25,-2.12 0.152,-4.168 0.174,-6.288 0.003,-0.282 0.407,-0.335 0.488,-0.067 C 2.133,-7.176 0.983,-3.29 0.475,0.064 0.432,0.346 0.015,0.257 0,0"
           style="fill:#ba5c15;fill-opacity:1;fill-rule:nonzero;stroke:none"
           id="path8326" />
      </g>
      <g
         id="g8328"
         transform="matrix(0.35277777,0,0,-0.35277777,143.88548,135.25473)">
        <path
           d="m 0,0 c -0.54,-0.36 -1.315,-0.114 -1.775,-0.615 -0.118,-0.128 10e-4,-0.304 0.161,-0.277 0.644,0.11 1.538,-0.086 1.923,0.583 C 0.417,-0.121 0.194,0.129 0,0"
           style="fill:#ba5c15;fill-opacity:1;fill-rule:nonzero;stroke:none"
           id="path8330" />
      </g>
      <g
         id="g8332"
         transform="matrix(0.35277777,0,0,-0.35277777,143.89465,135.42724)">
        <path
           d="m 0,0 c 0.368,-0.178 0.825,-0.204 1.217,-0.317 0.421,-0.121 0.815,-0.374 1.242,-0.457 0.118,-0.023 0.256,0.077 0.21,0.209 C 2.514,-0.123 1.958,0.026 1.555,0.149 1.13,0.279 0.477,0.498 0.042,0.319 -0.082,0.268 -0.15,0.073 0,0"
           style="fill:#ba5c15;fill-opacity:1;fill-rule:nonzero;stroke:none"
           id="path8334" />
      </g>
      <g
         id="g8336"
         transform="matrix(0.35277777,0,0,-0.35277777,143.92573,135.30934)">
        <path
           d="M 0,0 C 1.202,0.065 2.135,0.333 3.164,-0.468 3.273,-0.553 3.459,-0.479 3.414,-0.322 3.076,0.87 0.738,0.775 -0.052,0.192 -0.127,0.137 -0.112,-0.006 0,0"
           style="fill:#ba5c15;fill-opacity:1;fill-rule:nonzero;stroke:none"
           id="path8338" />
      </g>
    </g>
  </g>
</svg>
