<?xml version="1.0" encoding="UTF-8" standalone="no"?>
<!-- Created with Inkscape (http://www.inkscape.org/) -->

<svg
   width="19.175869mm"
   height="29.917202mm"
   viewBox="0 0 19.175869 29.917202"
   version="1.1"
   id="svg51013"
   inkscape:version="1.1-rc (52f87abb86, 2021-05-02)"
   sodipodi:docname="o-owl.svg"
   xmlns:inkscape="http://www.inkscape.org/namespaces/inkscape"
   xmlns:sodipodi="http://sodipodi.sourceforge.net/DTD/sodipodi-0.dtd"
   xmlns="http://www.w3.org/2000/svg"
   xmlns:svg="http://www.w3.org/2000/svg">
  <sodipodi:namedview
     id="namedview51015"
     pagecolor="#ffffff"
     bordercolor="#666666"
     borderopacity="1.0"
     objecttolerance="10.0"
     gridtolerance="10.0"
     guidetolerance="10.0"
     inkscape:pageshadow="2"
     inkscape:pageopacity="0.0"
     inkscape:pagecheckerboard="0"
     inkscape:document-units="mm"
     showgrid="false"
     inkscape:zoom="0.94875842"
     inkscape:cx="-173.9115"
     inkscape:cy="171.27648"
     inkscape:window-width="3840"
     inkscape:window-height="2066"
     inkscape:window-x="2869"
     inkscape:window-y="-11"
     inkscape:window-maximized="1"
     inkscape:current-layer="layer1"
     fit-margin-top="0"
     fit-margin-left="0"
     fit-margin-right="0"
     fit-margin-bottom="0" />
  <defs
     id="defs51010">
    <clipPath
       clipPathUnits="userSpaceOnUse"
       id="clipPath6818">
      <path
         d="m 71.138,158.803 h 1.9844 v -2.095 H 71.138 Z"
         id="path6816" />
    </clipPath>
    <clipPath
       clipPathUnits="userSpaceOnUse"
       id="clipPath6838">
      <path
         d="m 72.3897,158.742 h 1.5877 v -2.515 h -1.5877 z"
         id="path6836" />
    </clipPath>
    <clipPath
       clipPathUnits="userSpaceOnUse"
       id="clipPath6858">
      <path
         d="M 73.7332,158.914 H 74.79 v -2.77 h -1.0568 z"
         id="path6856" />
    </clipPath>
    <clipPath
       clipPathUnits="userSpaceOnUse"
       id="clipPath6878">
      <path
         d="m 88.597,158.803 h 1.9845 v -2.095 H 88.597 Z"
         id="path6876" />
    </clipPath>
    <clipPath
       clipPathUnits="userSpaceOnUse"
       id="clipPath6898">
      <path
         d="m 87.7421,158.742 h 1.5877 v -2.515 h -1.5877 z"
         id="path6896" />
    </clipPath>
    <clipPath
       clipPathUnits="userSpaceOnUse"
       id="clipPath6918">
      <path
         d="m 86.9294,158.914 h 1.0569 v -2.77 h -1.0569 z"
         id="path6916" />
    </clipPath>
    <clipPath
       clipPathUnits="userSpaceOnUse"
       id="clipPath6938">
      <path
         d="m 63.0641,177.57 h 7.5174 v -15.442 h -7.5174 z"
         id="path6936" />
    </clipPath>
    <clipPath
       clipPathUnits="userSpaceOnUse"
       id="clipPath6958">
      <path
         d="m 91.138,177.625 h 7.5166 V 162.128 H 91.138 Z"
         id="path6956" />
    </clipPath>
    <clipPath
       clipPathUnits="userSpaceOnUse"
       id="clipPath7050">
      <path
         d="M 69.5315,188.388 H 95.3938 V 158.252 H 69.5315 Z"
         id="path7048" />
    </clipPath>
  </defs>
  <g
     inkscape:label="Layer 1"
     inkscape:groupmode="layer"
     id="layer1"
     transform="translate(-151.04305,-103.28365)">
    <g
       id="g27752"
       transform="translate(224.48184,-39.68583)">
      <g
         id="g6804"
         transform="matrix(0.35277777,0,0,-0.35277777,-64.66485,166.80068)">
        <path
           d="m 0,0 c 5.539,0 11.295,11.729 11.295,30.192 0,17.377 -4.778,24.437 -9.992,24.437 -6.082,0 -11.729,-11.73 -11.729,-30.084 C -10.426,7.168 -5.43,0 0,0 M 1.303,67.553 C 14.01,67.553 25.74,56.692 25.74,30.192 25.74,3.91 12.707,-12.815 0,-12.815 c -12.924,0 -24.871,10.752 -24.871,37.36 0,26.283 12.49,43.008 26.174,43.008"
           style="fill:#ce8d61;fill-opacity:1;fill-rule:nonzero;stroke:none"
           id="path6806" />
      </g>
      <g
         id="g6808"
         transform="matrix(0.35277777,0,0,-0.35277777,-63.962293,172.62204)">
        <path
           d="M 0,0 C -0.261,0.055 -0.45,0.294 -0.437,0.568 -0.411,1.113 -0.015,2.214 1.294,2.486 1.594,2.547 1.887,2.355 1.949,2.055 2.011,1.756 1.819,1.462 1.519,1.4 0.714,1.234 0.671,0.544 0.67,0.515 0.655,0.21 0.395,-0.026 0.09,-0.012 0.059,-0.01 0.029,-0.006 0,0"
           style="fill:#915920;fill-opacity:1;fill-rule:nonzero;stroke:none"
           id="path6810" />
      </g>
      <g
         id="g6812"
         transform="matrix(0.35277777,0,0,-0.35277777,-89.066312,227.90994)">
        <g
           id="g6814" />
        <g
           id="g6826">
          <g
             clip-path="url(#clipPath6818)"
             opacity="0.399994"
             id="g6824">
            <g
               transform="translate(72.6789,158.1217)"
               id="g6822">
              <path
                 d="m 0,0 c -0.803,-0.166 -0.848,-0.856 -0.848,-0.884 -0.013,-0.307 -0.274,-0.543 -0.581,-0.529 -0.031,0.003 -0.059,0.006 -0.089,0.014 -0.003,0 -0.003,0 -0.006,0.003 -0.013,0.047 -0.019,0.097 -0.016,0.149 0.027,0.544 0.424,1.646 1.731,1.917 C 0.274,0.687 0.355,0.685 0.429,0.665 0.429,0.662 0.432,0.657 0.432,0.654 0.493,0.355 0.302,0.061 0,0"
                 style="fill:#915920;fill-opacity:1;fill-rule:nonzero;stroke:none"
                 id="path6820" />
            </g>
          </g>
        </g>
      </g>
      <g
         id="g6828"
         transform="matrix(0.35277777,0,0,-0.35277777,-63.085676,172.20333)">
        <path
           d="m 0,0 c -0.754,-0.332 -0.651,-1.014 -0.646,-1.042 0.05,-0.301 -0.155,-0.587 -0.457,-0.637 -0.011,-0.003 -0.022,-0.003 -0.033,-0.003 -0.019,-0.005 -0.039,-0.005 -0.058,-0.005 -0.266,0 -0.501,0.194 -0.546,0.465 -0.086,0.538 0.069,1.699 1.294,2.236 0.244,0.105 0.521,0.025 0.67,-0.18 C 0.249,0.804 0.269,0.767 0.285,0.732 0.407,0.449 0.28,0.122 0,0"
           style="fill:#915920;fill-opacity:1;fill-rule:nonzero;stroke:none"
           id="path6830" />
      </g>
      <g
         id="g6832"
         transform="matrix(0.35277777,0,0,-0.35277777,-89.066312,227.90994)">
        <g
           id="g6834" />
        <g
           id="g6846">
          <g
             clip-path="url(#clipPath6838)"
             opacity="0.399994"
             id="g6844">
            <g
               transform="translate(73.6459,157.9085)"
               id="g6842">
              <path
                 d="m 0,0 c -0.754,-0.332 -0.651,-1.014 -0.646,-1.042 0.05,-0.301 -0.155,-0.587 -0.457,-0.637 -0.011,-0.003 -0.022,-0.003 -0.033,-0.003 -0.05,0.067 -0.086,0.147 -0.1,0.236 -0.088,0.538 0.069,1.695 1.291,2.236 C 0.111,0.812 0.166,0.828 0.224,0.834 0.249,0.804 0.269,0.767 0.285,0.732 0.407,0.449 0.28,0.122 0,0"
                 style="fill:#915920;fill-opacity:1;fill-rule:nonzero;stroke:none"
                 id="path6840" />
            </g>
          </g>
        </g>
      </g>
      <g
         id="g6848"
         transform="matrix(0.35277777,0,0,-0.35277777,-62.74461,172.17592)">
        <path
           d="m 0,0 c -0.604,-0.56 -0.283,-1.169 -0.269,-1.197 0.119,-0.216 0.078,-0.476 -0.086,-0.645 -0.041,-0.042 -0.085,-0.078 -0.138,-0.106 -0.025,-0.013 -0.053,-0.027 -0.08,-0.036 -0.253,-0.088 -0.538,0.017 -0.671,0.261 -0.258,0.479 -0.49,1.626 0.491,2.535 0.157,0.147 0.376,0.182 0.565,0.116 C -0.108,0.9 -0.033,0.85 0.028,0.784 0.238,0.56 0.224,0.208 0,0"
           style="fill:#915920;fill-opacity:1;fill-rule:nonzero;stroke:none"
           id="path6850" />
      </g>
      <g
         id="g6852"
         transform="matrix(0.35277777,0,0,-0.35277777,-89.066312,227.90994)">
        <g
           id="g6854" />
        <g
           id="g6866">
          <g
             clip-path="url(#clipPath6858)"
             opacity="0.399994"
             id="g6864">
            <g
               transform="translate(74.6127,157.9862)"
               id="g6862">
              <path
                 d="m 0,0 c -0.604,-0.56 -0.283,-1.169 -0.269,-1.197 0.119,-0.216 0.078,-0.476 -0.086,-0.645 -0.124,0.044 -0.232,0.132 -0.299,0.257 -0.257,0.477 -0.487,1.607 0.466,2.513 C -0.108,0.9 -0.033,0.85 0.028,0.784 0.238,0.56 0.224,0.208 0,0"
                 style="fill:#915920;fill-opacity:1;fill-rule:nonzero;stroke:none"
                 id="path6860" />
            </g>
          </g>
        </g>
      </g>
      <g
         id="g6868"
         transform="matrix(0.35277777,0,0,-0.35277777,-57.119322,172.62204)">
        <path
           d="M 0,0 C 0.261,0.055 0.45,0.294 0.437,0.568 0.411,1.113 0.015,2.214 -1.294,2.486 -1.594,2.547 -1.887,2.355 -1.949,2.055 -2.011,1.756 -1.819,1.462 -1.519,1.4 -0.714,1.234 -0.671,0.544 -0.67,0.515 -0.655,0.21 -0.395,-0.026 -0.09,-0.012 -0.059,-0.01 -0.029,-0.006 0,0"
           style="fill:#915920;fill-opacity:1;fill-rule:nonzero;stroke:none"
           id="path6870" />
      </g>
      <g
         id="g6872"
         transform="matrix(0.35277777,0,0,-0.35277777,-89.066312,227.90994)">
        <g
           id="g6874" />
        <g
           id="g6886">
          <g
             clip-path="url(#clipPath6878)"
             opacity="0.399994"
             id="g6884">
            <g
               transform="translate(89.0405,158.1217)"
               id="g6882">
              <path
                 d="m 0,0 c 0.803,-0.166 0.848,-0.856 0.848,-0.884 0.013,-0.307 0.274,-0.543 0.581,-0.529 0.031,0.003 0.059,0.006 0.089,0.014 0.003,0 0.003,0 0.006,0.003 0.014,0.047 0.019,0.097 0.016,0.149 C 1.513,-0.703 1.116,0.399 -0.191,0.67 -0.274,0.687 -0.355,0.685 -0.429,0.665 -0.429,0.662 -0.432,0.657 -0.432,0.654 -0.493,0.355 -0.302,0.061 0,0"
                 style="fill:#915920;fill-opacity:1;fill-rule:nonzero;stroke:none"
                 id="path6880" />
            </g>
          </g>
        </g>
      </g>
      <g
         id="g6888"
         transform="matrix(0.35277777,0,0,-0.35277777,-57.995939,172.20333)">
        <path
           d="m 0,0 c 0.754,-0.332 0.651,-1.014 0.646,-1.042 -0.05,-0.301 0.155,-0.587 0.457,-0.637 0.011,-0.003 0.022,-0.003 0.033,-0.003 0.019,-0.005 0.039,-0.005 0.058,-0.005 0.266,0 0.502,0.194 0.546,0.465 C 1.826,-0.684 1.671,0.477 0.446,1.014 0.202,1.119 -0.075,1.039 -0.224,0.834 -0.249,0.804 -0.269,0.767 -0.285,0.732 -0.407,0.449 -0.28,0.122 0,0"
           style="fill:#915920;fill-opacity:1;fill-rule:nonzero;stroke:none"
           id="path6890" />
      </g>
      <g
         id="g6892"
         transform="matrix(0.35277777,0,0,-0.35277777,-89.066312,227.90994)">
        <g
           id="g6894" />
        <g
           id="g6906">
          <g
             clip-path="url(#clipPath6898)"
             opacity="0.399994"
             id="g6904">
            <g
               transform="translate(88.0735,157.9085)"
               id="g6902">
              <path
                 d="m 0,0 c 0.754,-0.332 0.651,-1.014 0.646,-1.042 -0.05,-0.301 0.155,-0.587 0.457,-0.637 0.011,-0.003 0.022,-0.003 0.033,-0.003 0.05,0.067 0.086,0.147 0.1,0.236 C 1.324,-0.908 1.167,0.249 -0.055,0.79 -0.111,0.812 -0.166,0.828 -0.224,0.834 -0.249,0.804 -0.269,0.767 -0.285,0.732 -0.407,0.449 -0.28,0.122 0,0"
                 style="fill:#915920;fill-opacity:1;fill-rule:nonzero;stroke:none"
                 id="path6900" />
            </g>
          </g>
        </g>
      </g>
      <g
         id="g6908"
         transform="matrix(0.35277777,0,0,-0.35277777,-58.336969,172.17592)">
        <path
           d="M 0,0 C 0.604,-0.56 0.283,-1.169 0.269,-1.197 0.15,-1.413 0.191,-1.673 0.355,-1.842 0.396,-1.884 0.44,-1.92 0.493,-1.948 c 0.025,-0.013 0.053,-0.027 0.08,-0.036 0.253,-0.088 0.538,0.017 0.671,0.261 0.258,0.479 0.49,1.626 -0.491,2.535 C 0.596,0.959 0.377,0.994 0.188,0.928 0.108,0.9 0.033,0.85 -0.028,0.784 -0.238,0.56 -0.224,0.208 0,0"
           style="fill:#915920;fill-opacity:1;fill-rule:nonzero;stroke:none"
           id="path6910" />
      </g>
      <g
         id="g6912"
         transform="matrix(0.35277777,0,0,-0.35277777,-89.066312,227.90994)">
        <g
           id="g6914" />
        <g
           id="g6926">
          <g
             clip-path="url(#clipPath6918)"
             opacity="0.399994"
             id="g6924">
            <g
               transform="translate(87.1068,157.9862)"
               id="g6922">
              <path
                 d="M 0,0 C 0.604,-0.56 0.283,-1.169 0.269,-1.197 0.15,-1.413 0.191,-1.673 0.355,-1.842 0.479,-1.798 0.587,-1.71 0.654,-1.585 0.911,-1.108 1.141,0.022 0.188,0.928 0.108,0.9 0.033,0.85 -0.028,0.784 -0.238,0.56 -0.224,0.208 0,0"
                 style="fill:#915920;fill-opacity:1;fill-rule:nonzero;stroke:none"
                 id="path6920" />
            </g>
          </g>
        </g>
      </g>
      <g
         id="g6928"
         transform="matrix(0.35277777,0,0,-0.35277777,-64.166446,170.71531)">
        <path
           d="M 0,0 V 17.788 C -14.554,17.788 -4.242,0 0,0"
           style="fill:#4e3620;fill-opacity:1;fill-rule:nonzero;stroke:none"
           id="path6930" />
      </g>
      <g
         id="g6932"
         transform="matrix(0.35277777,0,0,-0.35277777,-89.066312,227.90994)">
        <g
           id="g6934" />
        <g
           id="g6946">
          <g
             clip-path="url(#clipPath6938)"
             opacity="0.399994"
             id="g6944">
            <g
               transform="translate(70.5815,163.9784)"
               id="g6942">
              <path
                 d="m 0,0 v -1.851 c -3.277,0 -10.176,10.614 -6.436,15.443 C -7.823,8.804 -3.072,1.28 0,0"
                 style="fill:#4e3620;fill-opacity:1;fill-rule:nonzero;stroke:none"
                 id="path6940" />
            </g>
          </g>
        </g>
      </g>
      <g
         id="g6948"
         transform="matrix(0.35277777,0,0,-0.35277777,-56.915099,170.71531)">
        <path
           d="M 0,0 V 17.788 C 14.554,17.788 4.242,0 0,0"
           style="fill:#4e3620;fill-opacity:1;fill-rule:nonzero;stroke:none"
           id="path6950" />
      </g>
      <g
         id="g6952"
         transform="matrix(0.35277777,0,0,-0.35277777,-89.066312,227.90994)">
        <g
           id="g6954" />
        <g
           id="g6966">
          <g
             clip-path="url(#clipPath6958)"
             opacity="0.399994"
             id="g6964">
            <g
               transform="translate(91.138,162.1279)"
               id="g6962">
              <path
                 d="m 0,0 v 2.327 c 3,1.407 7.436,8.45 6.391,13.17 C 10.228,10.694 3.288,0 0,0"
                 style="fill:#4e3620;fill-opacity:1;fill-rule:nonzero;stroke:none"
                 id="path6960" />
            </g>
          </g>
        </g>
      </g>
      <g
         id="g6968"
         transform="matrix(0.35277777,0,0,-0.35277777,-56.910971,171.7195)">
        <path
           d="m 0,0 c -2.155,-1.468 -5.28,-0.69 -8.874,-0.493 -0.149,0.008 -0.296,0.017 -0.446,0.022 -0.318,0.014 -0.642,0.022 -0.969,0.022 -3.596,0 -6.749,-1.152 -9.209,-0.205 -8.148,3.139 -7.184,32.342 9.209,32.342 C 6.103,31.688 7.231,4.937 0,0"
           style="fill:#915920;fill-opacity:1;fill-rule:nonzero;stroke:none"
           id="path6970" />
      </g>
      <g
         id="g6972"
         transform="matrix(0.35277777,0,0,-0.35277777,-58.757163,162.03938)">
        <path
           d="M 0,0 C -2.137,0 -4.005,-1.129 -5.056,-2.819 -6.107,-1.129 -7.975,0 -10.112,0 c -3.289,0 -5.956,-2.667 -5.956,-5.956 0,-3.29 2.667,-5.957 5.956,-5.957 2.137,0 4.005,1.129 5.056,2.819 1.051,-1.69 2.919,-2.819 5.056,-2.819 3.29,0 5.956,2.667 5.956,5.957 C 5.956,-2.667 3.29,0 0,0"
           style="fill:#cb9f70;fill-opacity:1;fill-rule:nonzero;stroke:none"
           id="path6974" />
      </g>
      <g
         id="g6976"
         transform="matrix(0.35277777,0,0,-0.35277777,-61.139401,164.1406)">
        <path
           d="m 0,0 c 0,-1.817 -1.473,-3.29 -3.29,-3.29 -1.817,0 -3.29,1.473 -3.29,3.29 0,1.817 1.473,3.29 3.29,3.29 C -1.473,3.29 0,1.817 0,0"
           style="fill:#ffffff;fill-opacity:1;fill-rule:nonzero;stroke:none"
           id="path6978" />
      </g>
      <g
         id="g6980"
         transform="matrix(0.35277777,0,0,-0.35277777,-57.621007,164.1406)">
        <path
           d="m 0,0 c 0,-1.817 -1.473,-3.29 -3.29,-3.29 -1.817,0 -3.29,1.473 -3.29,3.29 0,1.817 1.473,3.29 3.29,3.29 C -1.473,3.29 0,1.817 0,0"
           style="fill:#ffffff;fill-opacity:1;fill-rule:nonzero;stroke:none"
           id="path6982" />
      </g>
      <g
         id="g6984"
         transform="matrix(0.35277777,0,0,-0.35277777,-60.542783,163.03298)">
        <path
           d="M 0,0 -0.018,0.018 0.011,0 c 0,0 -0.415,6.095 -5.402,8.034 -4.616,1.795 -7.688,-0.069 -7.688,-0.069 0,0 -2.462,-1.263 -1.848,-1.362 0.613,-0.098 3.226,0.179 3.483,-0.118 0.258,-0.297 -2.157,-0.851 -1.88,-1.188 0.277,-0.336 3.325,0.277 3.543,-0.059 0.218,-0.337 -1.9,-0.93 -1.366,-1.227 0.535,-0.297 2.283,0.532 2.652,0.217 0.37,-0.314 -1.274,-0.732 -0.963,-1.049 0.31,-0.316 2.47,0.456 2.924,0.099 C -6.08,2.922 -7.604,2.249 -6.971,1.972 -6.515,1.773 -4.426,1.495 -2.429,0.866 -1.842,0.681 -1.002,0.522 -0.444,0.277 L -0.043,0.033 C -0.03,0.022 -0.012,0.012 0,0"
           style="fill:#4e3620;fill-opacity:1;fill-rule:nonzero;stroke:none"
           id="path6986" />
      </g>
      <g
         id="g6988"
         transform="matrix(0.35277777,0,0,-0.35277777,-60.534775,163.03298)">
        <path
           d="M 0,0 0.018,0.018 -0.011,0 c 0,0 0.415,6.095 5.402,8.034 4.616,1.795 7.688,-0.069 7.688,-0.069 0,0 2.462,-1.263 1.848,-1.362 C 14.313,6.505 11.701,6.782 11.444,6.485 11.186,6.188 13.601,5.634 13.324,5.297 13.047,4.961 9.999,5.574 9.781,5.238 9.563,4.901 11.681,4.308 11.147,4.011 10.612,3.714 8.864,4.543 8.495,4.228 8.125,3.914 9.769,3.496 9.458,3.179 9.148,2.863 6.988,3.635 6.534,3.278 6.08,2.922 7.604,2.249 6.971,1.972 6.515,1.773 4.426,1.495 2.429,0.866 1.842,0.681 1.002,0.522 0.444,0.277 L 0.043,0.033 C 0.03,0.022 0.012,0.012 0,0"
           style="fill:#4e3620;fill-opacity:1;fill-rule:nonzero;stroke:none"
           id="path6990" />
      </g>
      <g
         id="g6992"
         transform="matrix(0.35277777,0,0,-0.35277777,-56.908078,171.50353)">
        <path
           d="m 0,0 c 0,-0.205 -0.003,-0.41 -0.008,-0.612 -2.156,-1.468 -5.281,-0.69 -8.874,-0.493 -0.149,0.008 -0.296,0.016 -0.446,0.022 -0.318,0.014 -0.642,0.022 -0.969,0.022 -3.596,0 -6.749,-1.153 -9.209,-0.205 -0.385,0.194 -0.746,0.41 -1.081,0.654 -0.005,0.202 -0.008,0.407 -0.008,0.612 0,8.239 4.61,14.916 10.298,14.916 C -4.61,14.916 0,8.239 0,0"
           style="fill:#cb9f70;fill-opacity:1;fill-rule:nonzero;stroke:none"
           id="path6994" />
      </g>
      <g
         id="g6996"
         transform="matrix(0.35277777,0,0,-0.35277777,-61.432524,164.1406)">
        <path
           d="m 0,0 c 0,-1.358 -1.101,-2.459 -2.459,-2.459 -1.358,0 -2.459,1.101 -2.459,2.459 0,1.358 1.101,2.459 2.459,2.459 C -1.101,2.459 0,1.358 0,0"
           style="fill:#623f1f;fill-opacity:1;fill-rule:nonzero;stroke:none"
           id="path6998" />
      </g>
      <g
         id="g7000"
         transform="matrix(0.35277777,0,0,-0.35277777,-61.839806,164.1406)">
        <path
           d="m 0,0 c 0,-0.72 -0.584,-1.304 -1.304,-1.304 -0.721,0 -1.305,0.584 -1.305,1.304 0,0.72 0.584,1.304 1.305,1.304 C -0.584,1.304 0,0.72 0,0"
           style="fill:#231f20;fill-opacity:1;fill-rule:nonzero;stroke:none"
           id="path7002" />
      </g>
      <g
         id="g7004"
         transform="matrix(0.35277777,0,0,-0.35277777,-61.746178,163.79452)">
        <path
           d="m 0,0 c 0,-0.338 -0.274,-0.612 -0.612,-0.612 -0.338,0 -0.612,0.274 -0.612,0.612 0,0.338 0.274,0.612 0.612,0.612 C -0.274,0.612 0,0.338 0,0"
           style="fill:#fefefe;fill-opacity:1;fill-rule:nonzero;stroke:none"
           id="path7006" />
      </g>
      <g
         id="g7008"
         transform="matrix(0.35277777,0,0,-0.35277777,-57.91413,164.1406)">
        <path
           d="m 0,0 c 0,-1.358 -1.101,-2.459 -2.459,-2.459 -1.358,0 -2.459,1.101 -2.459,2.459 0,1.358 1.101,2.459 2.459,2.459 C -1.101,2.459 0,1.358 0,0"
           style="fill:#623f1f;fill-opacity:1;fill-rule:nonzero;stroke:none"
           id="path7010" />
      </g>
      <g
         id="g7012"
         transform="matrix(0.35277777,0,0,-0.35277777,-58.321412,164.1406)">
        <path
           d="m 0,0 c 0,-0.72 -0.584,-1.304 -1.304,-1.304 -0.721,0 -1.305,0.584 -1.305,1.304 0,0.72 0.584,1.304 1.305,1.304 C -0.584,1.304 0,0.72 0,0"
           style="fill:#231f20;fill-opacity:1;fill-rule:nonzero;stroke:none"
           id="path7014" />
      </g>
      <g
         id="g7016"
         transform="matrix(0.35277777,0,0,-0.35277777,-58.22782,163.79452)">
        <path
           d="m 0,0 c 0,-0.338 -0.274,-0.612 -0.612,-0.612 -0.338,0 -0.612,0.274 -0.612,0.612 0,0.338 0.274,0.612 0.612,0.612 C -0.274,0.612 0,0.338 0,0"
           style="fill:#fefefe;fill-opacity:1;fill-rule:nonzero;stroke:none"
           id="path7018" />
      </g>
      <g
         id="g7020"
         transform="matrix(0.35277777,0,0,-0.35277777,-60.540772,165.75198)">
        <path
           d="M 0,0 -1.82,3.641 H 1.82 Z"
           style="fill:#fdc51b;fill-opacity:1;fill-rule:nonzero;stroke:none"
           id="path7022" />
      </g>
      <g
         id="g7024"
         transform="matrix(0.35277777,0,0,-0.35277777,-61.395905,167.47826)">
        <path
           d="m 0,0 c 0,0 -0.019,-0.264 -0.153,-0.628 -0.075,-0.177 -0.155,-0.393 -0.301,-0.602 -0.072,-0.103 -0.155,-0.214 -0.269,-0.312 -0.12,-0.092 -0.262,-0.204 -0.501,-0.217 -0.165,-0.004 -0.412,0.129 -0.501,0.217 -0.114,0.097 -0.197,0.208 -0.269,0.312 -0.147,0.208 -0.226,0.425 -0.301,0.602 C -2.429,-0.264 -2.447,0 -2.447,0 c 0,0 0.181,-0.191 0.421,-0.471 0.113,-0.145 0.265,-0.298 0.411,-0.452 0.071,-0.08 0.156,-0.142 0.227,-0.204 0.104,-0.058 0.076,-0.065 0.164,-0.078 0.048,-0.015 0.255,0.132 0.392,0.282 0.147,0.153 0.298,0.307 0.411,0.451 C -0.181,-0.191 0,0 0,0"
           style="fill:#4e3620;fill-opacity:1;fill-rule:nonzero;stroke:none"
           id="path7026" />
      </g>
      <g
         id="g7028"
         transform="matrix(0.35277777,0,0,-0.35277777,-60.158008,167.71529)">
        <path
           d="m 0,0 c 0,0 -0.019,-0.264 -0.153,-0.628 -0.075,-0.177 -0.155,-0.393 -0.301,-0.602 -0.072,-0.103 -0.155,-0.214 -0.269,-0.312 -0.12,-0.092 -0.262,-0.204 -0.501,-0.217 -0.165,-0.004 -0.412,0.13 -0.501,0.217 -0.114,0.097 -0.197,0.208 -0.269,0.312 -0.147,0.208 -0.225,0.425 -0.301,0.602 C -2.429,-0.264 -2.447,0 -2.447,0 c 0,0 0.181,-0.191 0.421,-0.471 0.113,-0.145 0.265,-0.298 0.411,-0.452 0.071,-0.08 0.156,-0.142 0.227,-0.203 0.104,-0.059 0.076,-0.066 0.164,-0.079 0.048,-0.015 0.255,0.132 0.393,0.282 0.146,0.153 0.297,0.307 0.41,0.451 C -0.181,-0.191 0,0 0,0"
           style="fill:#4e3620;fill-opacity:1;fill-rule:nonzero;stroke:none"
           id="path7030" />
      </g>
      <g
         id="g7032"
         transform="matrix(0.35277777,0,0,-0.35277777,-60.170179,166.71351)">
        <path
           d="m 0,0 c 0,0 -0.019,-0.264 -0.153,-0.628 -0.075,-0.177 -0.155,-0.393 -0.301,-0.602 -0.072,-0.103 -0.155,-0.214 -0.269,-0.312 -0.138,-0.091 -0.221,-0.207 -0.542,-0.214 -0.054,0.009 -0.118,0.015 -0.242,0.071 -0.11,0.05 -0.149,0.093 -0.218,0.143 -0.114,0.097 -0.197,0.208 -0.269,0.312 -0.147,0.208 -0.225,0.425 -0.301,0.602 C -2.429,-0.264 -2.447,0 -2.447,0 c 0,0 0.181,-0.191 0.421,-0.471 0.113,-0.145 0.265,-0.298 0.411,-0.452 0.071,-0.08 0.156,-0.142 0.227,-0.203 0.031,-0.021 0.087,-0.06 0.092,-0.056 -0.015,-0.006 0.044,-0.02 0.113,-0.026 -0.066,10e-4 0.07,0.026 0.123,0.081 0.073,0.061 0.157,0.124 0.229,0.204 0.146,0.153 0.297,0.307 0.41,0.451 C -0.181,-0.191 0,0 0,0"
           style="fill:#4e3620;fill-opacity:1;fill-rule:nonzero;stroke:none"
           id="path7034" />
      </g>
      <g
         id="g7036"
         transform="matrix(0.35277777,0,0,-0.35277777,-58.920005,167.48722)">
        <path
           d="m 0,0 c 0,0 -0.019,-0.264 -0.153,-0.628 -0.075,-0.177 -0.155,-0.393 -0.301,-0.602 -0.072,-0.103 -0.155,-0.214 -0.269,-0.312 -0.12,-0.092 -0.262,-0.204 -0.501,-0.217 -0.165,-0.004 -0.412,0.13 -0.501,0.217 -0.114,0.097 -0.197,0.208 -0.269,0.312 -0.147,0.208 -0.225,0.425 -0.301,0.602 C -2.429,-0.264 -2.447,0 -2.447,0 c 0,0 0.181,-0.191 0.421,-0.471 0.113,-0.145 0.265,-0.298 0.411,-0.452 0.071,-0.08 0.156,-0.142 0.227,-0.203 0.104,-0.059 0.076,-0.066 0.164,-0.079 0.048,-0.015 0.255,0.132 0.393,0.282 0.146,0.153 0.297,0.307 0.41,0.451 C -0.181,-0.191 0,0 0,0"
           style="fill:#4e3620;fill-opacity:1;fill-rule:nonzero;stroke:none"
           id="path7038" />
      </g>
      <g
         id="g7040"
         transform="matrix(0.35277777,0,0,-0.35277777,-60.711834,169.1487)">
        <path
           d="m 0,0 c 0,0 -0.019,-0.264 -0.153,-0.628 -0.075,-0.177 -0.155,-0.393 -0.301,-0.602 -0.072,-0.103 -0.155,-0.214 -0.269,-0.312 -0.138,-0.091 -0.221,-0.207 -0.542,-0.214 -0.054,0.009 -0.118,0.015 -0.242,0.071 -0.11,0.05 -0.149,0.093 -0.218,0.143 -0.114,0.097 -0.197,0.208 -0.269,0.312 -0.147,0.208 -0.225,0.425 -0.301,0.602 C -2.429,-0.264 -2.447,0 -2.447,0 c 0,0 0.181,-0.191 0.421,-0.471 0.113,-0.145 0.265,-0.298 0.411,-0.452 0.071,-0.08 0.156,-0.142 0.227,-0.203 0.031,-0.021 0.087,-0.06 0.092,-0.056 -0.015,-0.006 0.044,-0.02 0.113,-0.026 -0.066,10e-4 0.07,0.026 0.123,0.081 0.073,0.061 0.157,0.124 0.229,0.204 0.146,0.153 0.297,0.307 0.41,0.451 C -0.181,-0.191 0,0 0,0"
           style="fill:#4e3620;fill-opacity:1;fill-rule:nonzero;stroke:none"
           id="path7042" />
      </g>
      <g
         id="g7044"
         transform="matrix(0.35277777,0,0,-0.35277777,-89.066312,227.90994)">
        <g
           id="g7046" />
        <g
           id="g7058">
          <g
             clip-path="url(#clipPath7050)"
             opacity="0.399994"
             id="g7056">
            <g
               transform="translate(91.149,159.28)"
               id="g7054">
              <path
                 d="m 0,0 c -2.155,-1.468 -5.28,-0.69 -8.874,-0.493 -0.149,0.008 -0.296,0.017 -0.446,0.022 -0.318,0.014 -0.642,0.022 -0.969,0.022 -3.596,0 -6.749,-1.152 -9.209,-0.205 -0.795,0.308 -1.504,0.862 -2.119,1.615 0.235,-0.146 0.482,-0.271 0.734,-0.368 2.46,-0.948 5.613,0.205 9.209,0.205 0.326,0 0.651,-0.008 0.969,-0.022 0.15,-0.006 0.297,-0.014 0.446,-0.023 3.593,-0.196 6.718,-0.975 8.874,0.494 C 4.142,5.02 4.784,21.531 -2.535,29.108 6.231,22.288 5.854,3.998 0,0"
                 style="fill:#915920;fill-opacity:1;fill-rule:nonzero;stroke:none"
                 id="path7052" />
            </g>
          </g>
        </g>
      </g>
      <g
         id="g7060"
         transform="matrix(0.35277777,0,0,-0.35277777,-62.031152,168.65107)">
        <path
           d="m 0,0 c 0,0 -0.019,-0.264 -0.153,-0.628 -0.075,-0.177 -0.155,-0.393 -0.301,-0.602 -0.072,-0.103 -0.155,-0.214 -0.269,-0.312 -0.12,-0.092 -0.262,-0.204 -0.501,-0.217 -0.165,-0.005 -0.412,0.129 -0.501,0.217 -0.114,0.097 -0.197,0.208 -0.269,0.312 -0.147,0.208 -0.226,0.425 -0.301,0.602 C -2.429,-0.264 -2.447,0 -2.447,0 c 0,0 0.181,-0.191 0.421,-0.471 0.113,-0.145 0.265,-0.298 0.411,-0.452 0.071,-0.08 0.156,-0.142 0.227,-0.204 0.104,-0.058 0.076,-0.065 0.164,-0.078 0.048,-0.015 0.255,0.132 0.392,0.282 0.147,0.153 0.298,0.307 0.411,0.451 C -0.181,-0.191 0,0 0,0"
           style="fill:#4e3620;fill-opacity:1;fill-rule:nonzero;stroke:none"
           id="path7062" />
      </g>
      <g
         id="g7064"
         transform="matrix(0.35277777,0,0,-0.35277777,-59.44127,169.18126)">
        <path
           d="m 0,0 c 0,0 -0.019,-0.264 -0.153,-0.628 -0.075,-0.177 -0.155,-0.393 -0.301,-0.602 -0.072,-0.103 -0.155,-0.214 -0.269,-0.312 -0.12,-0.092 -0.262,-0.204 -0.501,-0.217 -0.165,-0.004 -0.412,0.13 -0.501,0.217 -0.114,0.097 -0.197,0.208 -0.269,0.312 -0.147,0.208 -0.225,0.425 -0.301,0.602 C -2.429,-0.264 -2.447,0 -2.447,0 c 0,0 0.181,-0.191 0.421,-0.471 0.113,-0.145 0.265,-0.298 0.411,-0.452 0.071,-0.08 0.156,-0.142 0.227,-0.203 0.104,-0.059 0.076,-0.066 0.164,-0.079 0.048,-0.015 0.255,0.132 0.393,0.282 0.146,0.153 0.297,0.307 0.41,0.451 C -0.181,-0.191 0,0 0,0"
           style="fill:#4e3620;fill-opacity:1;fill-rule:nonzero;stroke:none"
           id="path7066" />
      </g>
      <g
         id="g7068"
         transform="matrix(0.35277777,0,0,-0.35277777,-58.317249,168.65107)">
        <path
           d="m 0,0 c 0,0 -0.019,-0.264 -0.153,-0.628 -0.075,-0.177 -0.155,-0.393 -0.301,-0.602 -0.072,-0.103 -0.155,-0.214 -0.269,-0.312 -0.138,-0.091 -0.221,-0.207 -0.542,-0.214 -0.054,0.009 -0.118,0.015 -0.242,0.071 -0.11,0.05 -0.149,0.093 -0.218,0.143 -0.114,0.097 -0.197,0.208 -0.269,0.312 -0.147,0.208 -0.225,0.425 -0.301,0.602 C -2.429,-0.264 -2.447,0 -2.447,0 c 0,0 0.181,-0.191 0.421,-0.471 0.113,-0.145 0.265,-0.298 0.411,-0.452 0.071,-0.08 0.156,-0.142 0.227,-0.204 0.031,-0.02 0.087,-0.059 0.092,-0.056 -0.015,-0.005 0.044,-0.019 0.113,-0.025 -0.066,10e-4 0.07,0.026 0.123,0.081 0.073,0.061 0.157,0.124 0.229,0.204 0.146,0.153 0.297,0.307 0.41,0.451 C -0.181,-0.191 0,0 0,0"
           style="fill:#4e3620;fill-opacity:1;fill-rule:nonzero;stroke:none"
           id="path7070" />
      </g>
      <g
         id="g7072"
         transform="matrix(0.35277777,0,0,-0.35277777,-61.510029,169.94679)">
        <path
           d="m 0,0 c 0,0 -0.019,-0.264 -0.153,-0.628 -0.075,-0.177 -0.155,-0.393 -0.301,-0.602 -0.072,-0.103 -0.155,-0.214 -0.269,-0.312 -0.12,-0.092 -0.262,-0.204 -0.501,-0.217 -0.165,-0.004 -0.412,0.13 -0.501,0.217 -0.114,0.097 -0.197,0.208 -0.269,0.312 -0.147,0.208 -0.225,0.425 -0.301,0.602 C -2.429,-0.264 -2.447,0 -2.447,0 c 0,0 0.181,-0.191 0.421,-0.471 0.113,-0.145 0.265,-0.298 0.411,-0.452 0.071,-0.08 0.156,-0.142 0.227,-0.203 0.104,-0.059 0.076,-0.066 0.164,-0.079 0.048,-0.015 0.255,0.132 0.393,0.282 0.146,0.153 0.297,0.307 0.41,0.451 C -0.181,-0.191 0,0 0,0"
           style="fill:#4e3620;fill-opacity:1;fill-rule:nonzero;stroke:none"
           id="path7074" />
      </g>
      <g
         id="g7076"
         transform="matrix(0.35277777,0,0,-0.35277777,-60.158008,170.45179)">
        <path
           d="m 0,0 c 0,0 -0.019,-0.264 -0.153,-0.628 -0.075,-0.177 -0.155,-0.393 -0.301,-0.602 -0.072,-0.103 -0.155,-0.214 -0.269,-0.312 -0.12,-0.092 -0.262,-0.204 -0.501,-0.217 -0.165,-0.004 -0.412,0.13 -0.501,0.217 -0.114,0.097 -0.197,0.208 -0.269,0.312 -0.147,0.208 -0.225,0.425 -0.301,0.602 C -2.429,-0.264 -2.447,0 -2.447,0 c 0,0 0.181,-0.191 0.421,-0.471 0.113,-0.145 0.265,-0.298 0.411,-0.452 0.071,-0.08 0.156,-0.142 0.227,-0.203 0.104,-0.059 0.076,-0.066 0.164,-0.079 0.048,-0.015 0.255,0.132 0.393,0.282 0.146,0.153 0.297,0.307 0.41,0.451 C -0.181,-0.191 0,0 0,0"
           style="fill:#4e3620;fill-opacity:1;fill-rule:nonzero;stroke:none"
           id="path7078" />
      </g>
      <g
         id="g7080"
         transform="matrix(0.35277777,0,0,-0.35277777,-58.789654,170.01198)">
        <path
           d="m 0,0 c 0,0 -0.019,-0.264 -0.153,-0.628 -0.075,-0.177 -0.155,-0.393 -0.301,-0.602 -0.072,-0.103 -0.155,-0.214 -0.269,-0.312 -0.12,-0.092 -0.262,-0.204 -0.501,-0.217 -0.165,-0.004 -0.412,0.129 -0.501,0.217 -0.114,0.097 -0.197,0.208 -0.269,0.312 -0.147,0.208 -0.226,0.425 -0.301,0.602 C -2.429,-0.264 -2.447,0 -2.447,0 c 0,0 0.181,-0.191 0.421,-0.471 0.113,-0.145 0.265,-0.298 0.411,-0.452 0.071,-0.08 0.156,-0.142 0.227,-0.204 0.104,-0.058 0.076,-0.065 0.164,-0.078 0.048,-0.015 0.255,0.132 0.392,0.282 0.147,0.153 0.298,0.307 0.411,0.451 C -0.181,-0.191 0,0 0,0"
           style="fill:#4e3620;fill-opacity:1;fill-rule:nonzero;stroke:none"
           id="path7082" />
      </g>
    </g>
  </g>
</svg>
