<?xml version="1.0" encoding="UTF-8" standalone="no"?>
<!-- Created with Inkscape (http://www.inkscape.org/) -->

<svg
   width="20.588884mm"
   height="29.343637mm"
   viewBox="0 0 20.588884 29.343637"
   version="1.1"
   id="svg51978"
   inkscape:version="1.1-rc (52f87abb86, 2021-05-02)"
   sodipodi:docname="p-pig.svg"
   xmlns:inkscape="http://www.inkscape.org/namespaces/inkscape"
   xmlns:sodipodi="http://sodipodi.sourceforge.net/DTD/sodipodi-0.dtd"
   xmlns="http://www.w3.org/2000/svg"
   xmlns:svg="http://www.w3.org/2000/svg">
  <sodipodi:namedview
     id="namedview51980"
     pagecolor="#ffffff"
     bordercolor="#666666"
     borderopacity="1.0"
     objecttolerance="10.0"
     gridtolerance="10.0"
     guidetolerance="10.0"
     inkscape:pageshadow="2"
     inkscape:pageopacity="0.0"
     inkscape:pagecheckerboard="0"
     inkscape:document-units="mm"
     showgrid="false"
     fit-margin-top="0"
     fit-margin-left="0"
     fit-margin-right="0"
     fit-margin-bottom="0"
     inkscape:zoom="0.94875842"
     inkscape:cx="-289.8525"
     inkscape:cy="143.87224"
     inkscape:window-width="3840"
     inkscape:window-height="2066"
     inkscape:window-x="2869"
     inkscape:window-y="-11"
     inkscape:window-maximized="1"
     inkscape:current-layer="layer1" />
  <defs
     id="defs51975">
    <clipPath
       clipPathUnits="userSpaceOnUse"
       id="clipPath4084">
      <path
         d="m 175.172,168.95 h 5.516 v -5.472 h -5.516 z"
         id="path4082" />
    </clipPath>
    <clipPath
       clipPathUnits="userSpaceOnUse"
       id="clipPath4100">
      <path
         d="m 175.172,168.95 h 5.516 v -5.472 h -5.516 z"
         id="path4098" />
    </clipPath>
    <clipPath
       clipPathUnits="userSpaceOnUse"
       id="clipPath4120">
      <path
         d="m 194.821,162.729 h 6.427 v -4.602 h -6.427 z"
         id="path4118" />
    </clipPath>
    <clipPath
       clipPathUnits="userSpaceOnUse"
       id="clipPath4136">
      <path
         d="m 194.821,162.729 h 6.427 v -4.602 h -6.427 z"
         id="path4134" />
    </clipPath>
    <clipPath
       clipPathUnits="userSpaceOnUse"
       id="clipPath4160">
      <path
         d="m 166.042,194.748 h 5.906 v -6.468 h -5.906 z"
         id="path4158" />
    </clipPath>
    <clipPath
       clipPathUnits="userSpaceOnUse"
       id="clipPath4180">
      <path
         d="m 186.229,192.909 h 5.983 v -6.308 h -5.983 z"
         id="path4178" />
    </clipPath>
    <clipPath
       clipPathUnits="userSpaceOnUse"
       id="clipPath4196">
      <path
         d="m 173.503,185.316 h 18.118 v -17.435 h -18.118 z"
         id="path4194" />
    </clipPath>
    <clipPath
       clipPathUnits="userSpaceOnUse"
       id="clipPath4228">
      <path
         d="m 168.509,182.174 h 14.916 v -10.319 h -14.916 z"
         id="path4226" />
    </clipPath>
    <clipPath
       clipPathUnits="userSpaceOnUse"
       id="clipPath4244">
      <path
         d="m 169.329,179.571 h 14.096 v -7.715 h -14.096 z"
         id="path4242" />
    </clipPath>
    <linearGradient
       x1="0"
       y1="0"
       x2="1"
       y2="0"
       gradientUnits="userSpaceOnUse"
       gradientTransform="matrix(1.5857911,-0.2330443,-0.2330443,-1.5857911,171.00597,177.52512)"
       spreadMethod="pad"
       id="linearGradient4272">
      <stop
         style="stop-opacity:1;stop-color:#50252f"
         offset="0"
         id="stop4266" />
      <stop
         style="stop-opacity:1;stop-color:#50252f"
         offset="0.00540541"
         id="stop4268" />
      <stop
         style="stop-opacity:1;stop-color:#231f20"
         offset="1"
         id="stop4270" />
    </linearGradient>
    <clipPath
       clipPathUnits="userSpaceOnUse"
       id="clipPath4282">
      <path
         d="M 0,500 H 750 V 0 H 0 Z"
         id="path4280" />
    </clipPath>
    <clipPath
       clipPathUnits="userSpaceOnUse"
       id="clipPath4290">
      <path
         d="m 170.987,178.596 h 0.938 v -2.376 h -0.938 z"
         id="path4288" />
    </clipPath>
    <linearGradient
       x1="0"
       y1="0"
       x2="1"
       y2="0"
       gradientUnits="userSpaceOnUse"
       gradientTransform="matrix(1.063297,0.1020141,0.1020141,-1.063297,170.97351,177.32883)"
       spreadMethod="pad"
       id="linearGradient4302">
      <stop
         style="stop-opacity:1;stop-color:#50252f"
         offset="0"
         id="stop4296" />
      <stop
         style="stop-opacity:1;stop-color:#50252f"
         offset="0.00540541"
         id="stop4298" />
      <stop
         style="stop-opacity:1;stop-color:#231f20"
         offset="1"
         id="stop4300" />
    </linearGradient>
    <linearGradient
       x1="0"
       y1="0"
       x2="1"
       y2="0"
       gradientUnits="userSpaceOnUse"
       gradientTransform="matrix(1.5857911,-0.2330443,-0.2330443,-1.5857911,177.80869,176.9052)"
       spreadMethod="pad"
       id="linearGradient4336">
      <stop
         style="stop-opacity:1;stop-color:#50252f"
         offset="0"
         id="stop4330" />
      <stop
         style="stop-opacity:1;stop-color:#50252f"
         offset="0.00540541"
         id="stop4332" />
      <stop
         style="stop-opacity:1;stop-color:#231f20"
         offset="1"
         id="stop4334" />
    </linearGradient>
    <clipPath
       clipPathUnits="userSpaceOnUse"
       id="clipPath4354">
      <path
         d="m 177.79,177.976 h 0.938 V 175.6 h -0.938 z"
         id="path4352" />
    </clipPath>
    <linearGradient
       x1="0"
       y1="0"
       x2="1"
       y2="0"
       gradientUnits="userSpaceOnUse"
       gradientTransform="matrix(1.0632864,0.1020131,0.1020131,-1.0632864,177.77621,176.70885)"
       spreadMethod="pad"
       id="linearGradient4366">
      <stop
         style="stop-opacity:1;stop-color:#50252f"
         offset="0"
         id="stop4360" />
      <stop
         style="stop-opacity:1;stop-color:#50252f"
         offset="0.00540541"
         id="stop4362" />
      <stop
         style="stop-opacity:1;stop-color:#231f20"
         offset="1"
         id="stop4364" />
    </linearGradient>
    <clipPath
       clipPathUnits="userSpaceOnUse"
       id="clipPath4396">
      <path
         d="m 170.104,184.99 h 2.46 v -0.857 h -2.46 z"
         id="path4394" />
    </clipPath>
    <clipPath
       clipPathUnits="userSpaceOnUse"
       id="clipPath4420">
      <path
         d="m 182.554,183.767 h 2.459 v -0.857 h -2.459 z"
         id="path4418" />
    </clipPath>
    <clipPath
       clipPathUnits="userSpaceOnUse"
       id="clipPath4436">
      <path
         d="m 169.095,181.735 h 9.59 v -3.708 h -9.59 z"
         id="path4434" />
    </clipPath>
    <clipPath
       clipPathUnits="userSpaceOnUse"
       id="clipPath4452">
      <path
         d="m 180.831,175.586 h 6.365 v -4.139 h -6.365 z"
         id="path4450" />
    </clipPath>
  </defs>
  <g
     inkscape:label="Layer 1"
     inkscape:groupmode="layer"
     id="layer1"
     transform="translate(-181.84922,-110.54227)">
    <g
       id="g27898"
       transform="translate(217.05547,-32.312218)">
      <g
         id="g4070"
         transform="matrix(0.35277777,0,0,-0.35277777,-29.957268,157.98865)">
        <path
           d="m 0,0 c 9.123,2.933 14.77,9.666 14.77,17.269 0,8.037 -4.995,12.924 -9.666,12.924 -1.737,0 -3.041,-0.326 -4.452,-0.543 C 0.325,19.549 0.109,9.883 0,0 m -14.445,-35.949 c -0.325,9.232 -0.434,18.03 -0.434,26.175 0,16.508 0.434,32.038 1.086,49.307 C -7.603,41.814 -1.195,42.9 5.104,42.9 16.833,42.9 29.65,33.343 29.65,17.269 29.65,3.149 16.942,-7.603 0,-12.381 0,-20.201 0.109,-28.78 0.325,-37.36 Z"
           style="fill:#ea765c;fill-opacity:1;fill-rule:nonzero;stroke:none"
           id="path4072" />
      </g>
      <g
         id="g4074"
         transform="matrix(0.35277777,0,0,-0.35277777,-25.272167,169.73061)">
        <path
           d="m 0,0 c -0.046,-0.052 -0.096,-0.1 -0.146,-0.149 -0.006,-0.011 -0.017,-0.02 -0.027,-0.028 -0.466,-0.464 -1.005,-0.888 -1.57,-1.263 -1.553,-1.035 -3.302,-1.727 -4.229,-2.06 -0.324,-0.115 -0.668,0.122 -0.679,0.47 l -0.014,0.521 c -0.007,0.309 -0.285,0.537 -0.586,0.49 l -0.504,-0.074 c -0.352,-0.055 -0.644,0.256 -0.579,0.601 0.277,1.492 1.487,3.624 2.263,4.88 0.158,0.256 0.297,0.473 0.409,0.644 0.159,0.245 0.254,0.386 0.254,0.386 l 1.512,-1.237 z"
           style="fill:#ffdcd2;fill-opacity:1;fill-rule:nonzero;stroke:none"
           id="path4076" />
      </g>
      <g
         id="g4078"
         transform="matrix(0.35277777,0,0,-0.35277777,-89.066312,227.90994)">
        <g
           id="g4080" />
        <g
           id="g4092">
          <g
             clip-path="url(#clipPath4084)"
             opacity="0.5"
             id="g4090">
            <g
               transform="translate(180.6876,164.7688)"
               id="g4088">
              <path
                 d="m 0,0 c -0.006,-0.012 -0.016,-0.02 -0.026,-0.028 -0.466,-0.464 -1.005,-0.888 -1.571,-1.263 -0.577,0.543 -3.282,3.167 -3.919,5.472 0.452,-0.371 0.785,-0.77 0.785,-0.77 0,0 1.884,-1.664 4.731,-3.411"
                 style="fill:#f6c4c2;fill-opacity:1;fill-rule:nonzero;stroke:none"
                 id="path4086" />
            </g>
          </g>
        </g>
      </g>
      <g
         id="g4094"
         transform="matrix(0.35277777,0,0,-0.35277777,-89.066312,227.90994)">
        <g
           id="g4096" />
        <g
           id="g4108">
          <g
             clip-path="url(#clipPath4100)"
             opacity="0.5"
             id="g4106">
            <g
               transform="translate(180.6876,164.7688)"
               id="g4104">
              <path
                 d="m 0,0 c -0.006,-0.012 -0.016,-0.02 -0.026,-0.028 -0.466,-0.464 -1.005,-0.888 -1.571,-1.263 -0.577,0.543 -3.282,3.167 -3.919,5.472 0.452,-0.371 0.785,-0.77 0.785,-0.77 0,0 1.884,-1.664 4.731,-3.411"
                 style="fill:#f6c4c2;fill-opacity:1;fill-rule:nonzero;stroke:none"
                 id="path4102" />
            </g>
          </g>
        </g>
      </g>
      <g
         id="g4110"
         transform="matrix(0.35277777,0,0,-0.35277777,-20.337865,170.6666)">
        <path
           d="m 0,0 c 0,0 -0.024,-1.247 0.75,-3.45 0.164,-0.468 0.729,-0.655 1.138,-0.375 0.151,0.103 0.289,0.202 0.408,0.289 0.268,0.196 0.631,0.191 0.895,-0.009 L 3.77,-3.984 c 0.353,-0.268 0.859,-0.176 1.091,0.202 0.577,0.936 1.508,2.676 1.566,4.246"
           style="fill:#ffdcd2;fill-opacity:1;fill-rule:nonzero;stroke:none"
           id="path4112" />
      </g>
      <g
         id="g4114"
         transform="matrix(0.35277777,0,0,-0.35277777,-89.066312,227.90994)">
        <g
           id="g4116" />
        <g
           id="g4128">
          <g
             clip-path="url(#clipPath4120)"
             opacity="0.5"
             id="g4126">
            <g
               transform="translate(194.8208,162.2646)"
               id="g4124">
              <path
                 d="m 0,0 c 0,0 -0.024,-1.247 0.75,-3.45 0.164,-0.468 0.729,-0.655 1.138,-0.375 0.151,0.103 0.289,0.202 0.408,0.289 0.268,0.196 0.631,0.191 0.895,-0.009 L 3.77,-3.984 c 0.353,-0.268 0.859,-0.176 1.091,0.202 0.577,0.936 1.508,2.676 1.566,4.246"
                 style="fill:#f6c4c2;fill-opacity:1;fill-rule:nonzero;stroke:none"
                 id="path4122" />
            </g>
          </g>
        </g>
      </g>
      <g
         id="g4130"
         transform="matrix(0.35277777,0,0,-0.35277777,-89.066312,227.90994)">
        <g
           id="g4132" />
        <g
           id="g4144">
          <g
             clip-path="url(#clipPath4136)"
             opacity="0.5"
             id="g4142">
            <g
               transform="translate(194.8208,162.2646)"
               id="g4140">
              <path
                 d="m 0,0 c 0,0 -0.024,-1.247 0.75,-3.45 0.164,-0.468 0.729,-0.655 1.138,-0.375 0.151,0.103 0.289,0.202 0.408,0.289 0.268,0.196 0.631,0.191 0.895,-0.009 L 3.77,-3.984 c 0.353,-0.268 0.859,-0.176 1.091,0.202 0.577,0.936 1.508,2.676 1.566,4.246"
                 style="fill:#f6c4c2;fill-opacity:1;fill-rule:nonzero;stroke:none"
                 id="path4138" />
            </g>
          </g>
        </g>
      </g>
      <g
         id="g4146"
         transform="matrix(0.35277777,0,0,-0.35277777,-15.271799,166.97224)">
        <path
           d="m 0,0 c 0.01,-2.876 -0.479,-5.617 -1.035,-7.493 -3.593,-1.613 -6.746,-2.915 -10.84,-3.417 -2.208,-0.273 -4.688,-0.311 -7.656,-0.037 -0.636,0.055 -1.292,0.127 -1.975,0.215 -1.458,0.268 -4.149,1.111 -7.014,2.736 -1.512,0.865 -3.074,1.944 -4.525,3.274 -0.06,0.056 -0.12,0.109 -0.18,0.165 -0.268,0.248 -0.53,0.503 -0.785,0.77 -0.355,0.364 -0.698,0.747 -1.032,1.145 -4.429,5.317 15.716,14.996 15.716,14.996 0,0 0.387,0.1 1.05,0.225 0.268,0.051 0.584,0.107 0.94,0.163 1.037,0.165 2.399,0.332 3.893,0.377 2.487,0.078 5.337,-0.177 7.669,-1.31 0.692,-0.334 1.337,-0.746 1.914,-1.253 1.879,-1.642 2.934,-3.94 3.447,-6.407 C -0.126,2.792 -0.005,1.381 0,0"
           style="fill:#ffdcd2;fill-opacity:1;fill-rule:nonzero;stroke:none"
           id="path4148" />
      </g>
      <g
         id="g4150"
         transform="matrix(0.35277777,0,0,-0.35277777,-27.927667,159.47603)">
        <path
           d="m 0,0 -4.305,-4.266 -1.931,-1.91 c 0.076,0.151 -3.038,2.145 -2.39,7.599 0.048,0.402 0.372,0.72 0.775,0.76 C -3.615,2.608 -2.6,2.411 0,0"
           style="fill:#ffdcd2;fill-opacity:1;fill-rule:nonzero;stroke:none"
           id="path4152" />
      </g>
      <g
         id="g4154"
         transform="matrix(0.35277777,0,0,-0.35277777,-89.066312,227.90994)">
        <g
           id="g4156" />
        <g
           id="g4168">
          <g
             clip-path="url(#clipPath4160)"
             id="g4166">
            <g
               transform="translate(168.9319,188.28)"
               id="g4164">
              <path
                 d="m 0,0 c 0,0 -2.945,1.196 -2.889,5.622 0.004,0.315 0.228,0.584 0.536,0.649 2.342,0.489 4.227,0.111 5.369,-1.607"
                 style="fill:#f6c4c2;fill-opacity:1;fill-rule:nonzero;stroke:none"
                 id="path4162" />
            </g>
          </g>
        </g>
      </g>
      <g
         id="g4170"
         transform="matrix(0.35277777,0,0,-0.35277777,-23.749825,159.76559)">
        <path
           d="m 0,0 3.2,-5.147 1.437,-2.305 c -0.039,0.164 3.452,1.384 4.084,6.84 C 8.767,-0.21 8.526,0.174 8.144,0.306 4.121,1.7 3.088,1.744 0,0"
           style="fill:#ffdcd2;fill-opacity:1;fill-rule:nonzero;stroke:none"
           id="path4172" />
      </g>
      <g
         id="g4174"
         transform="matrix(0.35277777,0,0,-0.35277777,-89.066312,227.90994)">
        <g
           id="g4176" />
        <g
           id="g4188">
          <g
             clip-path="url(#clipPath4180)"
             id="g4186">
            <g
               transform="translate(188.0839,186.6014)"
               id="g4184">
              <path
                 d="M 0,0 C 0,0 3.142,0.482 4.112,4.801 4.181,5.107 4.025,5.422 3.741,5.556 1.576,6.574 -0.346,6.643 -1.855,5.236"
                 style="fill:#f6c4c2;fill-opacity:1;fill-rule:nonzero;stroke:none"
                 id="path4182" />
            </g>
          </g>
        </g>
      </g>
      <g
         id="g4190"
         transform="matrix(0.35277777,0,0,-0.35277777,-89.066312,227.90994)">
        <g
           id="g4192" />
        <g
           id="g4204">
          <g
             clip-path="url(#clipPath4196)"
             opacity="0.5"
             id="g4202">
            <g
               transform="translate(178.1779,167.9005)"
               id="g4200">
              <path
                 d="m 0,0 c -0.706,0.023 -1.388,0.064 -2.042,0.114 -0.06,0.056 -0.119,0.109 -0.18,0.165 -0.268,0.248 -0.529,0.504 -0.784,0.771 -0.356,0.363 -0.699,0.746 -1.033,1.144 -4.429,5.317 15.716,14.997 15.716,14.997 0,0 0.388,0.099 1.05,0.224 0.157,-0.681 0.285,-1.409 0.395,-2.182 C 14.257,7.201 12.925,-0.463 0,0"
                 style="fill:#f6c4c2;fill-opacity:1;fill-rule:nonzero;stroke:none"
                 id="path4198" />
            </g>
          </g>
        </g>
      </g>
      <g
         id="g4206"
         transform="matrix(0.35277777,0,0,-0.35277777,-25.95257,158.83644)">
        <path
           d="m 0,0 c 0,0 -9.076,1.138 -13.135,-9.402 -4.142,-10.757 -1.224,-17.01 11.702,-17.472 12.926,-0.461 14.257,7.201 13.122,15.235 C 10.554,-3.606 7.1,-0.534 0,0"
           style="fill:#ffdcd2;fill-opacity:1;fill-rule:nonzero;stroke:none"
           id="path4208" />
      </g>
      <g
         id="g4210"
         transform="matrix(0.35277777,0,0,-0.35277777,-15.612018,169.52702)">
        <path
           d="m 0,0 c 0,0 -1.008,-4.654 -2.559,-7.074 -0.013,-0.02 -0.026,-0.039 -0.038,-0.058 -0.194,-0.3 -0.608,-0.354 -0.871,-0.117 -0.157,0.146 -0.299,0.267 -0.422,0.372 -0.242,0.202 -0.607,0.16 -0.797,-0.095 l -0.284,-0.381 c -0.224,-0.291 -0.661,-0.293 -0.879,0.003 -0.232,0.321 -0.535,0.784 -0.862,1.38 -0.491,0.897 -1.029,2.103 -1.452,3.623 C -9.203,1.381 0,0 0,0"
           style="fill:#ffdcd2;fill-opacity:1;fill-rule:nonzero;stroke:none"
           id="path4212" />
      </g>
      <g
         id="g4214"
         transform="matrix(0.35277777,0,0,-0.35277777,-16.837321,163.40594)">
        <path
           d="M 0,0 C -0.221,0.28 -0.349,0.655 -0.341,1.039 -0.342,1.426 -0.198,1.802 0.006,2.123 0.211,2.447 0.484,2.728 0.811,2.933 1.133,3.142 1.508,3.286 1.904,3.315 2.302,3.339 2.697,3.231 3.036,3.042 3.373,2.833 3.619,2.512 3.73,2.15 3.842,1.786 3.791,1.384 3.588,1.056 3.386,0.74 2.996,0.464 2.534,0.57 2.309,0.619 2.107,0.785 1.997,0.989 1.893,1.192 1.842,1.403 1.852,1.622 1.868,2.059 2.069,2.434 2.305,2.738 2.548,3.043 2.83,3.301 3.173,3.507 3.515,3.709 3.905,3.83 4.315,3.852 4.722,3.862 5.167,3.771 5.514,3.507 5.865,3.251 6.087,2.881 6.198,2.506 6.413,1.753 6.252,0.956 5.819,0.389 L 5.755,0.424 C 5.965,1.072 5.915,1.766 5.662,2.306 5.402,2.858 4.914,3.138 4.357,3.079 3.801,3.042 3.239,2.749 2.83,2.301 2.63,2.08 2.48,1.826 2.433,1.573 2.404,1.449 2.421,1.311 2.446,1.198 2.478,1.09 2.547,0.998 2.653,0.949 2.866,0.848 3.211,0.948 3.385,1.196 3.571,1.437 3.618,1.789 3.507,2.075 3.396,2.367 3.136,2.585 2.858,2.68 2.566,2.766 2.265,2.772 1.978,2.715 1.408,2.589 0.85,2.273 0.464,1.797 0.061,1.331 -0.121,0.704 0.064,0.034 Z"
           style="fill:#ffdcd2;fill-opacity:1;fill-rule:nonzero;stroke:none"
           id="path4216" />
      </g>
      <g
         id="g4218"
         transform="matrix(0.35277777,0,0,-0.35277777,-25.417018,169.74426)">
        <path
           d="M 0,0 C 0,0 1.242,-4.5 3.073,-6.743 3.276,-6.993 3.657,-7 3.882,-6.769 c 0.157,0.159 0.293,0.3 0.406,0.415 0.198,0.203 0.516,0.22 0.736,0.041 l 0.427,-0.348 c 0.279,-0.227 0.696,-0.128 0.844,0.2 0.429,0.947 1.148,2.796 1.115,4.483"
           style="fill:#ffdcd2;fill-opacity:1;fill-rule:nonzero;stroke:none"
           id="path4220" />
      </g>
      <g
         id="g4222"
         transform="matrix(0.35277777,0,0,-0.35277777,-89.066312,227.90994)">
        <g
           id="g4224" />
        <g
           id="g4236">
          <g
             clip-path="url(#clipPath4228)"
             id="g4234">
            <g
               transform="translate(183.3876,175.9238)"
               id="g4232">
              <path
                 d="m 0,0 c -0.409,-2.784 -4.063,-4.553 -8.162,-3.951 -4.098,0.602 -7.088,3.348 -6.679,6.132 0.409,2.785 4.063,4.554 8.162,3.951 C -2.581,5.53 0.409,2.784 0,0"
                 style="fill:#f6c4c2;fill-opacity:1;fill-rule:nonzero;stroke:none"
                 id="path4230" />
            </g>
          </g>
        </g>
      </g>
      <g
         id="g4238"
         transform="matrix(0.35277777,0,0,-0.35277777,-89.066312,227.90994)">
        <g
           id="g4240" />
        <g
           id="g4252">
          <g
             clip-path="url(#clipPath4244)"
             opacity="0.199997"
             id="g4250">
            <g
               transform="translate(183.3875,175.9251)"
               id="g4248">
              <path
                 d="m 0,0 c -0.408,-2.784 -4.062,-4.553 -8.163,-3.951 -2.618,0.383 -4.784,1.645 -5.895,3.23 1.204,-1.234 3.088,-2.172 5.285,-2.497 4.097,-0.603 7.752,1.166 8.16,3.95 0.147,1.01 -0.15,2.017 -0.79,2.914 C -0.353,2.58 0.189,1.294 0,0"
                 style="fill:#f6c4c2;fill-opacity:1;fill-rule:nonzero;stroke:none"
                 id="path4246" />
            </g>
          </g>
        </g>
      </g>
      <g
         id="g4254"
         transform="matrix(0.35277777,0,0,-0.35277777,-89.066312,227.90994)">
        <g
           id="g4256">
          <g
             id="g4262">
            <g
               id="g4264">
              <path
                 d="m 171.006,177.525 c -0.096,-0.653 0.181,-1.234 0.62,-1.299 v 0 c 0.437,-0.064 0.87,0.413 0.966,1.066 v 0 c 0.095,0.652 -0.182,1.234 -0.619,1.299 v 0 c -0.027,0.003 -0.053,0.005 -0.079,0.005 v 0 c -0.41,0 -0.798,-0.458 -0.888,-1.071"
                 style="fill:url(#linearGradient4272);stroke:none"
                 id="path4274" />
            </g>
          </g>
        </g>
      </g>
      <g
         id="g4276"
         transform="matrix(0.35277777,0,0,-0.35277777,-89.066312,227.90994)">
        <g
           id="g4278"
           clip-path="url(#clipPath4282)">
          <g
             id="g4284">
            <g
               id="g4286" />
            <g
               id="g4316">
              <g
                 clip-path="url(#clipPath4290)"
                 id="g4314">
                <g
                   id="g4312">
                  <g
                     id="g4310">
                    <g
                       id="g4308">
                      <g
                         id="g4306">
                        <path
                           d="m 171.804,176.243 c 0.015,-0.002 0.03,-0.004 0.044,-0.003 -0.07,-0.021 -0.147,-0.025 -0.224,-0.014 -0.437,0.064 -0.715,0.646 -0.617,1.3 0.089,0.625 0.493,1.094 0.918,1.069 -0.352,-0.095 -0.658,-0.515 -0.738,-1.051 -0.097,-0.655 0.181,-1.237 0.617,-1.301"
                           style="fill:url(#linearGradient4302);stroke:none"
                           id="path4304" />
                      </g>
                    </g>
                  </g>
                </g>
              </g>
            </g>
          </g>
        </g>
      </g>
      <g
         id="g4318"
         transform="matrix(0.35277777,0,0,-0.35277777,-89.066312,227.90994)">
        <g
           id="g4320">
          <g
             id="g4326">
            <g
               id="g4328">
              <path
                 d="m 177.809,176.905 c -0.096,-0.653 0.181,-1.234 0.619,-1.298 v 0 c 0.438,-0.065 0.871,0.412 0.966,1.065 v 0 c 0.097,0.653 -0.181,1.235 -0.619,1.298 v 0 c -0.027,0.004 -0.053,0.006 -0.08,0.006 v 0 c -0.409,0 -0.796,-0.458 -0.886,-1.071"
                 style="fill:url(#linearGradient4336);stroke:none"
                 id="path4338" />
            </g>
          </g>
        </g>
      </g>
      <g
         id="g4348"
         transform="matrix(0.35277777,0,0,-0.35277777,-89.066312,227.90994)">
        <g
           id="g4350" />
        <g
           id="g4380">
          <g
             clip-path="url(#clipPath4354)"
             id="g4378">
            <g
               id="g4376">
              <g
                 id="g4374">
                <g
                   id="g4372">
                  <g
                     id="g4370">
                    <path
                       d="m 178.607,175.623 c 0.015,-0.002 0.03,-0.004 0.044,-0.003 -0.071,-0.021 -0.147,-0.025 -0.225,-0.014 -0.436,0.064 -0.714,0.646 -0.617,1.301 0.09,0.624 0.494,1.093 0.919,1.068 -0.352,-0.095 -0.658,-0.515 -0.738,-1.051 -0.098,-0.655 0.181,-1.237 0.617,-1.301"
                       style="fill:url(#linearGradient4366);stroke:none"
                       id="path4368" />
                  </g>
                </g>
              </g>
            </g>
          </g>
        </g>
      </g>
      <g
         id="g4382"
         transform="matrix(0.35277777,0,0,-0.35277777,-28.035052,162.23553)">
        <path
           d="M 0,0 C 0.079,-0.824 -0.525,-1.556 -1.349,-1.635 -2.172,-1.714 -2.904,-1.11 -2.983,-0.286 -3.062,0.538 -2.458,1.27 -1.635,1.349 -0.811,1.428 -0.079,0.824 0,0"
           style="fill:#210f0a;fill-opacity:1;fill-rule:nonzero;stroke:none"
           id="path4384" />
      </g>
      <g
         id="g4386"
         transform="matrix(0.35277777,0,0,-0.35277777,-28.450836,162.14814)">
        <path
           d="M 0,0 C 0.034,-0.352 -0.224,-0.665 -0.577,-0.699 -0.929,-0.733 -1.242,-0.475 -1.276,-0.122 -1.31,0.23 -1.051,0.543 -0.699,0.577 -0.347,0.611 -0.034,0.352 0,0"
           style="fill:#ffffff;fill-opacity:1;fill-rule:nonzero;stroke:none"
           id="path4388" />
      </g>
      <g
         id="g4390"
         transform="matrix(0.35277777,0,0,-0.35277777,-89.066312,227.90994)">
        <g
           id="g4392" />
        <g
           id="g4404">
          <g
             clip-path="url(#clipPath4396)"
             id="g4402">
            <g
               transform="translate(170.1039,184.9899)"
               id="g4400">
              <path
                 d="m 0,0 c 0,0 0.108,-0.145 0.308,-0.309 0.188,-0.176 0.5,-0.343 0.832,-0.364 0.328,-0.051 0.676,0.028 0.912,0.134 0.243,0.092 0.408,0.166 0.408,0.166 0,0 -0.036,-0.027 -0.098,-0.074 C 2.296,-0.487 2.218,-0.577 2.092,-0.628 1.858,-0.757 1.498,-0.879 1.12,-0.853 0.743,-0.795 0.421,-0.58 0.24,-0.379 0.057,-0.174 0,0 0,0"
                 style="fill:#f6c4c2;fill-opacity:1;fill-rule:nonzero;stroke:none"
                 id="path4398" />
            </g>
          </g>
        </g>
      </g>
      <g
         id="g4406"
         transform="matrix(0.35277777,0,0,-0.35277777,-23.642969,162.66708)">
        <path
           d="m 0,0 c 0.079,-0.824 -0.525,-1.556 -1.349,-1.635 -0.823,-0.079 -1.555,0.525 -1.634,1.349 -0.079,0.824 0.525,1.555 1.348,1.635 C -0.811,1.428 -0.079,0.824 0,0"
           style="fill:#210f0a;fill-opacity:1;fill-rule:nonzero;stroke:none"
           id="path4408" />
      </g>
      <g
         id="g4410"
         transform="matrix(0.35277777,0,0,-0.35277777,-24.058788,162.57977)">
        <path
           d="M 0,0 C 0.034,-0.352 -0.224,-0.665 -0.577,-0.699 -0.929,-0.733 -1.242,-0.475 -1.276,-0.122 -1.31,0.23 -1.052,0.543 -0.699,0.577 -0.347,0.611 -0.034,0.352 0,0"
           style="fill:#ffffff;fill-opacity:1;fill-rule:nonzero;stroke:none"
           id="path4412" />
      </g>
      <g
         id="g4414"
         transform="matrix(0.35277777,0,0,-0.35277777,-89.066312,227.90994)">
        <g
           id="g4416" />
        <g
           id="g4428">
          <g
             clip-path="url(#clipPath4420)"
             id="g4426">
            <g
               transform="translate(182.5539,183.7665)"
               id="g4424">
              <path
                 d="m 0,0 c 0,0 0.108,-0.145 0.308,-0.309 0.188,-0.176 0.5,-0.343 0.832,-0.364 0.328,-0.051 0.676,0.028 0.912,0.134 0.243,0.092 0.408,0.165 0.408,0.165 0,0 -0.036,-0.026 -0.098,-0.073 C 2.296,-0.487 2.218,-0.577 2.092,-0.628 1.858,-0.757 1.498,-0.879 1.12,-0.853 0.743,-0.795 0.421,-0.58 0.24,-0.379 0.057,-0.174 0,0 0,0"
                 style="fill:#f6c4c2;fill-opacity:1;fill-rule:nonzero;stroke:none"
                 id="path4422" />
            </g>
          </g>
        </g>
      </g>
      <g
         id="g4430"
         transform="matrix(0.35277777,0,0,-0.35277777,-89.066312,227.90994)">
        <g
           id="g4432" />
        <g
           id="g4444">
          <g
             clip-path="url(#clipPath4436)"
             opacity="0.5"
             id="g4442">
            <g
               transform="translate(178.6855,180.9819)"
               id="g4440">
              <path
                 d="M 0,0 C -0.43,0.181 -0.877,0.298 -1.333,0.361 -1.786,0.433 -2.245,0.462 -2.704,0.458 -3.62,0.449 -4.536,0.35 -5.424,0.135 -6.312,-0.073 -7.18,-0.387 -7.953,-0.861 c -0.763,-0.472 -1.431,-1.173 -1.638,-2.094 0.025,0.467 0.208,0.924 0.47,1.322 0.272,0.393 0.626,0.725 1.012,1.004 0.779,0.557 1.685,0.894 2.601,1.117 0.921,0.214 1.87,0.306 2.812,0.248 C -1.762,0.676 -0.799,0.499 0,0"
                 style="fill:#f6c4c2;fill-opacity:1;fill-rule:nonzero;stroke:none"
                 id="path4438" />
            </g>
          </g>
        </g>
      </g>
      <g
         id="g4446"
         transform="matrix(0.35277777,0,0,-0.35277777,-89.066312,227.90994)">
        <g
           id="g4448" />
        <g
           id="g4460">
          <g
             clip-path="url(#clipPath4452)"
             id="g4458">
            <g
               transform="translate(186.6555,173.3063)"
               id="g4456">
              <path
                 d="M 0,0 -0.524,0.139 C -0.858,0.261 -1.196,0.369 -1.476,0.566 -2.057,0.923 -2.449,1.533 -2.538,2.28 -2.642,1.916 -2.601,1.509 -2.443,1.147 -2.345,0.913 -2.189,0.708 -2.006,0.531 -2.089,0.166 -2.201,-0.178 -2.391,-0.473 c -0.226,-0.352 -0.549,-0.625 -0.926,-0.8 -0.374,-0.181 -0.796,-0.272 -1.223,-0.298 -0.428,-0.019 -0.864,0.017 -1.285,0.186 0.346,-0.302 0.822,-0.437 1.283,-0.468 0.467,-0.032 0.946,0.05 1.381,0.253 0.432,0.205 0.812,0.553 1.017,0.988 0.166,0.341 0.223,0.713 0.209,1.074 0.083,-0.073 0.17,-0.142 0.263,-0.201 0.331,-0.222 0.712,-0.325 1.085,-0.398 0.19,-0.019 0.379,-0.037 0.567,-0.04 0.189,0.011 0.376,0.022 0.561,0.049 C 0.359,-0.075 0.178,-0.038 0,0"
                 style="fill:#f6c4c2;fill-opacity:1;fill-rule:nonzero;stroke:none"
                 id="path4454" />
            </g>
          </g>
        </g>
      </g>
      <g
         id="g4462"
         transform="matrix(0.35277777,0,0,-0.35277777,-17.308632,162.80614)">
        <path
           d="m 0,0 c -0.191,-0.328 -0.544,-0.559 -0.926,-0.61 -0.256,-0.032 -0.564,-0.014 -0.723,-0.219 -0.132,-0.177 -0.082,-0.438 -0.19,-0.634 -0.181,-0.328 -0.685,-0.27 -0.997,-0.06 -0.312,0.208 -0.565,0.526 -0.927,0.619 -0.61,0.16 -1.355,-0.356 -1.835,0.05 -0.349,0.295 -0.315,0.921 -0.715,1.138 C -6.566,0.417 -6.87,0.322 -7.151,0.277 -7.431,0.232 -7.789,0.285 -7.884,0.553 -7.971,0.807 -7.757,1.05 -7.669,1.31 -5.183,1.388 -2.333,1.133 0,0"
           style="fill:#3d2118;fill-opacity:1;fill-rule:nonzero;stroke:none"
           id="path4464" />
      </g>
      <g
         id="g4466"
         transform="matrix(0.35277777,0,0,-0.35277777,-19.782734,163.04533)">
        <path
           d="m 0,0 c -0.279,-0.076 -0.595,-0.211 -0.801,-0.419 -0.046,-0.047 -0.088,-0.1 -0.106,-0.164 -0.026,-0.095 0.007,-0.202 0.077,-0.271 0.111,-0.11 0.29,-0.123 0.422,-0.047 0.139,0.08 0.216,0.234 0.284,0.379 C -0.068,-0.403 -0.047,-0.173 0,0"
           style="fill:#3d2118;fill-opacity:1;fill-rule:nonzero;stroke:none"
           id="path4468" />
      </g>
      <g
         id="g4470"
         transform="matrix(0.35277777,0,0,-0.35277777,-19.571208,163.03573)">
        <path
           d="m 0,0 c -0.062,-0.201 -0.102,-0.449 -0.053,-0.657 0.011,-0.047 0.028,-0.094 0.06,-0.129 0.048,-0.054 0.127,-0.075 0.197,-0.059 0.111,0.026 0.189,0.131 0.193,0.243 0.005,0.117 -0.06,0.223 -0.123,0.322 C 0.222,-0.199 0.088,-0.096 0,0"
           style="fill:#3d2118;fill-opacity:1;fill-rule:nonzero;stroke:none"
           id="path4472" />
      </g>
      <g
         id="g4474"
         transform="matrix(0.35277777,0,0,-0.35277777,-15.271799,166.97224)">
        <path
           d="m 0,0 c -0.202,-0.136 -0.361,-0.337 -0.538,-0.507 -0.2,-0.195 -0.454,-0.365 -0.729,-0.344 -0.32,0.024 -0.561,0.293 -0.763,0.54 -0.335,0.412 -0.693,0.918 -0.549,1.431 0.105,0.385 0.488,0.685 0.479,1.088 -0.011,0.302 -0.243,0.553 -0.294,0.855 -0.074,0.43 0.273,0.846 0.684,1.002 0.408,0.16 0.86,0.123 1.297,0.084 C -0.126,2.792 -0.005,1.381 0,0"
           style="fill:#3d2118;fill-opacity:1;fill-rule:nonzero;stroke:none"
           id="path4476" />
      </g>
    </g>
  </g>
</svg>
