<?xml version="1.0" encoding="UTF-8" standalone="no"?>
<!-- Created with Inkscape (http://www.inkscape.org/) -->

<svg
   width="30.572149mm"
   height="33.417091mm"
   viewBox="0 0 30.572149 33.417091"
   version="1.1"
   id="svg47599"
   inkscape:version="1.1-rc (52f87abb86, 2021-05-02)"
   sodipodi:docname="q-quokka.svg"
   xmlns:inkscape="http://www.inkscape.org/namespaces/inkscape"
   xmlns:sodipodi="http://sodipodi.sourceforge.net/DTD/sodipodi-0.dtd"
   xmlns="http://www.w3.org/2000/svg"
   xmlns:svg="http://www.w3.org/2000/svg">
  <sodipodi:namedview
     id="namedview47601"
     pagecolor="#ffffff"
     bordercolor="#666666"
     borderopacity="1.0"
     objecttolerance="10.0"
     gridtolerance="10.0"
     guidetolerance="10.0"
     inkscape:pageshadow="2"
     inkscape:pageopacity="0.0"
     inkscape:pagecheckerboard="0"
     inkscape:document-units="mm"
     showgrid="false"
     fit-margin-top="0"
     fit-margin-left="0"
     fit-margin-right="0"
     fit-margin-bottom="0"
     inkscape:zoom="0.94875842"
     inkscape:cx="52.700455"
     inkscape:cy="136.49418"
     inkscape:window-width="3840"
     inkscape:window-height="2066"
     inkscape:window-x="2869"
     inkscape:window-y="-11"
     inkscape:window-maximized="1"
     inkscape:current-layer="layer1" />
  <defs
     id="defs47596" />
  <g
     inkscape:label="Layer 1"
     inkscape:groupmode="layer"
     id="layer1"
     transform="translate(-91.243504,-112.40976)">
    <g
       id="g8732"
       transform="matrix(0.35277777,0,0,-0.35277777,100.01744,136.24096)">
      <path
         d="m 0,0 c 0.434,0 0.977,0.109 1.411,0.218 -1.52,3.257 -2.606,6.515 -3.258,9.773 L 8.145,9.232 c 1.846,5.213 3.149,12.381 3.149,20.96 0,17.377 -4.779,24.437 -9.991,24.437 -6.082,0 -11.73,-11.73 -11.73,-30.084 C -10.427,7.168 -5.43,0 0,0 m 1.303,67.553 c 12.706,0 24.436,-10.861 24.436,-37.361 0,-13.684 -3.584,-24.762 -8.688,-32.255 2.932,-3.911 6.408,-7.494 10.643,-11.187 l -14.01,-5.214 c -1.955,2.39 -4.019,4.997 -5.865,7.821 -2.606,-1.413 -5.212,-2.172 -7.819,-2.172 -12.924,0 -24.871,10.752 -24.871,37.36 0,26.283 12.49,43.008 26.174,43.008"
         style="fill:#661414;fill-opacity:1;fill-rule:nonzero;stroke:none"
         id="path8734" />
    </g>
    <g
       id="g11068"
       transform="matrix(0.28413517,0,0,0.28413517,135.93648,72.190561)">
      <path
         style="fill:#5b362f;fill-opacity:1;fill-rule:nonzero;stroke:none;stroke-width:0.264583"
         d="m -93.089235,239.49202 c 0,0 -1.23472,2.82222 -0.61736,2.82222 0.61736,0 0.88194,-1.4993 0.88194,-1.4993 0,0 0.17639,1.32291 0.793753,1.05833 0.529167,-0.17639 -0.264583,-1.49931 -0.264583,-1.49931 0,0 0.970138,1.23473 1.411111,0.88195 0.352777,-0.35278 -0.793751,-1.32292 -0.793751,-1.32292 0,0 1.411112,0.70556 1.763889,0.26458 0.264584,-0.35277 -1.499304,-0.70555 -1.499304,-0.70555 0,0 1.411111,0.35278 1.675694,-0.17639 0.264583,-0.61736 -2.116667,-1.05833 -2.293056,-0.88194 -0.08819,0.0882 -1.058333,1.05833 -1.058333,1.05833 z"
         id="path10887" />
      <path
         style="fill:#f6c632;fill-opacity:1;fill-rule:nonzero;stroke:none;stroke-width:0.264583"
         d="m -107.99409,230.49619 c 0,0 0.70554,-0.35278 0,-2.29306 -0.61737,-1.85208 -0.17639,-3.35139 1.5875,-4.14514 1.76389,-0.88194 1.14653,-1.32292 2.38125,-2.38125 1.23471,-1.05833 4.321525,-0.0882 5.115275,0.88195 0.88194,0.97013 2.11666,0.52916 4.23333,0.97013 2.20486,0.44098 6.438195,5.20348 6.173612,8.90764 -0.17639,3.79236 -0.0882,5.64445 -2.116667,6.52639 -2.028475,0.79375 -2.293055,0.44097 -2.734025,1.85209 -0.35278,1.4993 -6.879175,3.0868 -9.525005,1.23472 -2.64584,-1.85209 -7.76112,-5.11528 -5.11527,-11.55347 z"
         id="path10889" />
      <path
         style="fill:#f8d76b;fill-opacity:1;fill-rule:nonzero;stroke:none;stroke-width:0.264583"
         d="m -96.969795,238.52188 c -0.70555,-0.61736 -1.41111,-1.14653 -2.11666,-1.85208 -0.70556,-0.79375 -1.587505,-1.49931 -2.645835,-1.85209 -1.05834,-0.35277 -2.20486,0.0882 -2.55764,1.23473 -0.35278,1.05833 0.0882,2.11666 0.70556,2.99861 0.70555,0.97014 2.46944,2.20486 3.968745,2.46944 0.70556,0.52917 1.5875,0.79375 2.46945,0.26458 1.23472,-0.70555 1.23472,-2.38125 0.17638,-3.26319 z"
         id="path10891" />
      <path
         style="fill:#f8d76b;fill-opacity:1;fill-rule:nonzero;stroke:none;stroke-width:0.264583"
         d="m -95.646875,234.37674 c -0.61736,-0.44097 -1.41111,-0.61736 -2.11667,0 -0.61736,0.61736 -0.35277,1.49931 0,2.20486 0.26459,0.52917 0.61737,1.05834 1.05834,1.49931 0.35278,0.44097 0.88194,0.79375 1.4993,0.79375 0.79375,0.0882 1.5875,-0.44097 1.76389,-1.23472 0.35278,-1.32292 -1.14653,-2.64584 -2.20486,-3.2632 z"
         id="path10893" />
      <path
         style="fill:#f8d76b;fill-opacity:1;fill-rule:nonzero;stroke:none;stroke-width:0.264583"
         d="m -89.82604,235.25869 c 0,-0.26459 0,-0.26459 -0.176389,-0.52917 -0.08819,-0.17639 -0.352778,-0.44097 -0.529168,-0.52917 -0.176389,-0.17639 -0.440972,-0.17639 -0.705556,-0.17639 -0.176388,0 -0.440972,0 -0.617361,0.17639 -0.08819,0 -0.176389,0.0882 -0.264582,0.17639 -0.08819,0.0882 -0.08819,0.0882 -0.08819,0.17639 -0.176389,0.0882 -0.264589,0.26458 -0.264589,0.44097 0,0.0882 0,0.26459 -0.0882,0.35278 0,0.26458 0.0882,0.44097 0.176394,0.61736 0.08819,0.0882 0.08819,0.17639 0.176389,0.17639 0.08819,0.17639 0.176388,0.26458 0.352777,0.35278 0.08819,0.17639 0.264584,0.26458 0.440973,0.26458 0.08819,0.0882 0.264582,0.0882 0.440971,0 0.17639,0 0.352779,0 0.529167,-0.17639 0.0882,0 0.176389,-0.0882 0.264583,-0.17639 0,0 0,0 0,0 0,0 0,0 0,0 0.17639,-0.17639 0.264583,-0.35277 0.352779,-0.52916 0,-0.35278 0,-0.35278 0,-0.61736 z"
         id="path10895" />
      <path
         style="fill:#f8d76b;fill-opacity:1;fill-rule:nonzero;stroke:none;stroke-width:0.264583"
         d="m -104.64271,228.11494 c 0,0 0,0 0,0 0,-0.26459 -0.0882,-0.35278 -0.17639,-0.52917 -0.0882,-0.17639 -0.0882,-0.44097 -0.26458,-0.70556 0.0882,0 0.0882,0.0882 0.0882,0.0882 -0.0882,-0.0882 -0.0882,-0.26458 -0.17638,-0.35277 -0.0882,-0.17639 -0.17639,-0.26459 -0.35278,-0.44098 -0.44097,-0.26458 -0.97014,-0.35277 -1.41111,0 -0.61736,0.52917 -0.61736,1.41112 -0.17639,2.02848 0.0882,0.26458 0.26458,0.44097 0.44097,0.61736 0.0882,0.0882 0.17639,0.17639 0.35278,0.26458 0.0882,0.0882 0.17639,0.0882 0.26458,0.17639 -0.17639,-0.0882 -0.17639,-0.0882 0,0 0.70556,0.35278 1.5875,-0.26458 1.4111,-1.14653 0,0 0,0 0,0 z"
         id="path10897" />
      <path
         style="fill:#f8d76b;fill-opacity:1;fill-rule:nonzero;stroke:none;stroke-width:0.264583"
         d="m -103.2316,226.88021 c 0.44097,-0.35277 0.52916,-0.97014 0.0882,-1.41111 -0.17639,-0.17639 -0.35278,-0.35278 -0.52917,-0.52916 -0.17639,-0.26459 -0.61737,-0.26459 -0.88195,-0.0882 -0.35278,0.17638 -0.52917,0.52916 -0.35278,0.79375 0.0882,0.35277 0.17639,0.70555 0.35278,0.97013 0.35278,0.44098 0.88195,0.52917 1.32291,0.26459 z"
         id="path10899" />
      <path
         style="fill:#f8d76b;fill-opacity:1;fill-rule:nonzero;stroke:none;stroke-width:0.264583"
         d="m -102.79063,224.85174 c 0.17639,0.17639 0.44097,0.44097 0.70557,0.61736 0.52916,0.35278 1.4993,0.26459 1.94027,-0.26458 0.176385,-0.26458 0.264585,-0.35278 0.352775,-0.70556 0.17639,-0.26458 0.0882,-0.70555 -0.0882,-0.97014 -0.0882,-0.35277 -0.352775,-0.61736 -0.617365,-0.79375 -0.44097,-0.17638 -0.79375,-0.26458 -1.23471,-0.35277 -0.26458,0 -0.44097,0 -0.61737,0 -1.05834,0 -1.5875,1.23472 -0.88195,2.02847 0.17639,0.0882 0.26459,0.26458 0.44098,0.44097 z"
         id="path10901" />
      <path
         style="fill:#7c4e42;fill-opacity:1;fill-rule:nonzero;stroke:none;stroke-width:0.264583"
         d="m -110.55174,219.91285 c 0.26458,0.17639 0.44097,0.35278 0.70556,0.52917 0.17639,0.17639 0.44098,0.26458 0.70555,0.44097 0.44097,0.26458 0.88195,0.61736 1.32293,0.97014 0.44097,0.35278 0.88193,0.70556 1.23471,1.05833 0.17639,0.26459 0.35278,0.44098 0.52917,0.61736 0.17639,0.26459 0.44097,0.52917 0.70556,0.61737 0.26458,0.0882 0.61735,0 0.52916,-0.35278 0,-0.61736 -0.52916,-1.14653 -0.97014,-1.5875 -0.35278,-0.44097 -0.79375,-0.88195 -1.23472,-1.32292 -0.44097,-0.35278 -0.88195,-0.79375 -1.41111,-1.05833 -0.26459,-0.17639 -0.52917,-0.35278 -0.79374,-0.44097 -0.35278,-0.17639 -0.61737,-0.26459 -0.97015,-0.35278 -0.52917,-0.0882 -0.79375,0.52916 -0.35278,0.88194 z"
         id="path10903" />
      <path
         style="fill:#75991d;fill-opacity:1;fill-rule:nonzero;stroke:none;stroke-width:0.264583"
         d="m -107.55312,221.32396 c -1.41112,0.52917 -1.94028,2.02848 -2.55765,3.2632 -0.35278,0.70555 -0.79375,1.32291 -1.23471,1.85208 -0.44097,0.61736 -0.97015,1.14653 -1.49932,1.76389 -0.17639,0.17639 0.0882,0.35278 0.26459,0.26458 0.52917,-0.52916 1.05834,-1.05833 1.4993,-1.67569 0.44097,-0.52917 0.79376,-1.14653 1.14654,-1.76389 0.70556,-1.14653 1.14652,-2.73403 2.55764,-3.35139 0.17638,-0.0882 0,-0.44097 -0.17639,-0.35278 z"
         id="path10905" />
      <path
         style="fill:#75991d;fill-opacity:1;fill-rule:nonzero;stroke:none;stroke-width:0.264583"
         d="m -108.87605,222.73507 c 0,0 2.46945,2.29306 1.94028,4.93889 -0.52916,2.64584 -4.49791,5.37986 -10.58332,4.32153 0,0 0.61735,-12.25903 8.64304,-9.26042 z"
         id="path10907" />
      <path
         style="fill:#8aaa27;fill-opacity:1;fill-rule:nonzero;stroke:none;stroke-width:0.264583"
         d="m -108.25869,225.82188 c -0.0882,-0.35278 -0.44097,-0.70556 -0.79375,-0.79375 -1.41111,-0.44097 -2.91041,1.32292 -3.88055,2.20486 -1.05833,0.79375 -2.82222,1.41111 -2.55764,3.08681 0.17639,0.79375 1.05833,0.97014 1.76389,0.70555 1.05833,-0.52916 2.38125,-0.44097 3.52778,-0.97014 0.70555,-0.44097 1.23472,-0.97014 1.4993,-1.67569 0.44097,-0.70556 0.70556,-1.6757 0.44097,-2.55764 z"
         id="path10909" />
      <path
         style="fill:#5a5a5a;fill-opacity:1;fill-rule:nonzero;stroke:none;stroke-width:0.264583"
         d="m -64.60243,244.69549 c 0,0 10.583334,5.82083 14.904861,14.46389 0,0 -1.940277,-11.90625 -8.466667,-17.37431 -6.438193,-5.55625 -8.466666,0.44098 -6.438194,2.91042 z"
         id="path10911" />
      <path
         style="fill:#6b7477;fill-opacity:1;fill-rule:nonzero;stroke:none;stroke-width:0.264583"
         d="m -57.811456,245.57744 c 0.352777,1.05833 0.970137,1.94027 1.675693,2.82222 0.529167,0.79375 1.234723,1.94028 2.204861,2.11666 0.264583,0.0882 0.617362,-0.0882 0.617362,-0.35277 0.352777,-1.05834 -0.440973,-2.20486 -1.058333,-2.91042 -0.79375,-0.97014 -1.499306,-1.76389 -2.645833,-2.29306 -0.440973,-0.17638 -1.058334,0.0882 -0.79375,0.61737 z"
         id="path10913" />
      <path
         style="fill:#6b7477;fill-opacity:1;fill-rule:nonzero;stroke:none;stroke-width:0.264583"
         d="m -53.31354,252.63299 c 0.08819,0.0882 0.176388,0.26458 0.264584,0.35278 0.176387,0.17639 0.352777,0.35278 0.529166,0.44097 0.176388,0.0882 0.440971,0.0882 0.617361,0 0.176389,-0.17639 0.264583,-0.44097 0.176389,-0.61736 0,-0.17639 0,-0.35278 -0.0882,-0.52917 -0.08819,-0.0882 -0.176387,-0.26458 -0.264583,-0.35277 -0.264583,-0.35278 -0.61736,-0.44098 -0.970137,-0.26459 -0.264584,0.17639 -0.440973,0.61736 -0.264584,0.97014 z"
         id="path10915" />
      <path
         style="fill:#5a5a5a;fill-opacity:1;fill-rule:nonzero;stroke:none;stroke-width:0.264583"
         d="m -82.241319,240.28577 c 0,0 -6.879167,4.85069 -5.909027,6.43819 0.97014,1.5875 2.99861,-0.97014 2.99861,-0.97014 0,0 -2.822221,2.29306 -1.763888,3.35139 1.058334,0.97014 3.175001,-0.97014 3.175001,-0.97014 0,0 -2.204863,1.94028 -0.440973,2.46945 1.763889,0.61736 4.056944,-4.32153 5.115277,-5.99722 1.146529,-1.6757 -0.61736,-6.61459 -3.175,-4.32153 z"
         id="path10917" />
      <path
         style="fill:#7c4e42;fill-opacity:1;fill-rule:nonzero;stroke:none;stroke-width:0.264583"
         d="m -92.912845,219.47188 c 0,0 6.261804,2.29306 5.203472,8.55486 -0.97014,6.26181 -0.35278,19.93195 13.229166,21.25486 13.581944,1.41111 18.785416,-7.9375 20.108333,-10.58333 1.322918,-2.64583 0.529168,-10.49514 -2.293056,-16.49236 -2.734026,-5.99723 -37.306245,-12.96459 -36.247915,-2.73403 z"
         id="path10919" />
      <path
         style="fill:#8e5e54;fill-opacity:1;fill-rule:nonzero;stroke:none;stroke-width:0.264583"
         d="m -65.660763,241.4323 c -2.822223,-0.52917 -5.732639,-0.17639 -8.202083,-1.94028 -2.38125,-1.76389 -3.704167,-4.40972 -5.644444,-6.4382 -1.5875,-1.5875 -4.145139,-1.94027 -5.203473,0.44098 -0.529166,1.23472 -0.529166,2.55764 -0.264584,3.88055 -0.08819,2.02847 0.793751,4.40972 1.675694,5.73264 2.116667,2.82222 5.468056,3.70417 8.819446,3.96875 2.02847,0.0882 4.056944,0 5.99722,-0.35278 1.675696,-0.26458 3.175,-0.61736 4.056946,-2.20486 0.617361,-1.05833 0.08819,-2.73403 -1.234722,-3.0868 z"
         id="path10921" />
      <path
         style="fill:#5a5a5a;fill-opacity:1;fill-rule:nonzero;stroke:none;stroke-width:0.264583"
         d="m -93.971175,228.11494 c 0,0 -0.35278,3.70416 1.587496,4.23333 1.852082,0.61736 3.615973,-1.94028 3.439583,-2.29306 -0.08819,-0.35277 -5.027079,-2.55764 -5.027079,-1.94027 z"
         id="path10923" />
      <path
         style="fill:#7c4e42;fill-opacity:1;fill-rule:nonzero;stroke:none;stroke-width:0.264583"
         d="m -86.210069,218.67813 c -4.674304,2.29306 -8.113886,6.52639 -7.937496,10.31875 0.17639,3.88056 5.027079,3.26319 6.085413,1.32292 1.146529,-2.11667 2.293056,-2.38125 6.614583,-4.7625 4.321529,-2.38125 4.321529,-5.90903 4.321529,-5.90903 z"
         id="path10925" />
      <path
         style="fill:#5b362f;fill-opacity:1;fill-rule:nonzero;stroke:none;stroke-width:0.264583"
         d="m -77.214236,219.64827 c 0,1.67569 -1.146527,3.26319 -2.293054,4.32153 -1.322916,1.23472 -2.998612,2.02847 -4.586112,2.82222 -0.970138,0.52917 -1.940277,1.05833 -2.734028,1.76389 -0.264584,0.26458 -0.61736,0.52916 -0.793749,0.88194 -0.352777,0.35278 -0.529167,0.79375 -0.79375,1.14653 -0.617361,0.70556 -1.675695,1.05833 -2.55764,1.14653 -0.970138,0 -2.028476,-0.26459 -2.557636,-1.14653 -0.70556,-1.14653 -0.52917,-2.73403 -0.17639,-3.88056 1.14653,-3.61597 4.321526,-6.35 7.584721,-7.9375 0.08819,-0.0882 0,-0.26458 -0.176389,-0.17639 -3.086806,1.49931 -5.909028,3.96876 -7.320142,7.14376 -0.79375,1.94027 -1.32291,5.29166 1.411114,6.08541 0.970138,0.26459 2.028472,0.17639 2.910418,-0.26458 0.352776,-0.17639 0.793749,-0.44097 1.058332,-0.79375 0.352777,-0.35278 0.529168,-0.79375 0.79375,-1.14653 0.617361,-0.88194 1.499304,-1.4993 2.469444,-1.94028 1.499306,-0.97014 3.263194,-1.67569 4.674306,-2.73402 1.675694,-1.14653 3.263194,-3.175 3.351388,-5.29167 0,-0.17639 -0.264583,-0.17639 -0.264583,0 z"
         id="path10927" />
      <path
         style="fill:#8e5e54;fill-opacity:1;fill-rule:nonzero;stroke:none;stroke-width:0.264583"
         d="m -88.23854,223.44063 c -0.881946,-0.70556 -1.852084,-0.61736 -2.645833,-0.17639 -0.440973,0.17639 -0.793751,0.61736 -1.146529,1.05833 -0.08819,0.0882 -0.176388,0.17639 -0.264583,0.35278 -0.44097,0.61736 -0.70556,1.32292 -0.88194,1.94028 0,0.17639 0,0.26458 0,0.44097 -0.17639,0.61736 -0.17639,1.32292 0.17638,1.94028 0,0 0,0.0882 0.0882,0.0882 0.17639,0.35278 0.529172,0.70555 1.146533,0.79375 0.352778,0.0882 0.617361,0.0882 0.881944,0 0.881944,-0.0882 1.675694,-0.70556 2.204861,-1.49931 0.264584,-0.35277 0.529167,-0.88194 0.793749,-1.32291 0,-0.0882 0.08819,-0.26459 0.176391,-0.35278 0.529167,-1.05833 0.529167,-2.46945 -0.529167,-3.2632 z"
         id="path10929" />
      <path
         style="fill:#7c4e42;fill-opacity:1;fill-rule:nonzero;stroke:none;stroke-width:0.264583"
         d="m -96.881595,196.62952 c 0,2.02847 -1.6757,3.70416 -3.792365,3.70416 -2.02848,0 -3.70417,-1.67569 -3.70417,-3.70416 0,-2.11667 1.67569,-3.79236 3.70417,-3.79236 2.116665,0 3.792365,1.67569 3.792365,3.79236 z"
         id="path10931" />
      <path
         style="fill:#5b362f;fill-opacity:1;fill-rule:nonzero;stroke:none;stroke-width:0.264583"
         d="m -98.821875,197.07049 c 0,1.14653 -0.88194,2.11667 -2.028475,2.11667 -1.14652,0 -2.11667,-0.97014 -2.11667,-2.11667 0,-1.14653 0.97015,-2.02847 2.11667,-2.02847 1.146535,0 2.028475,0.88194 2.028475,2.02847 z"
         id="path10933" />
      <path
         style="fill:#7c4e42;fill-opacity:1;fill-rule:nonzero;stroke:none;stroke-width:0.264583"
         d="m -103.3198,218.23716 c 0,0 4.409735,3.88055 15.257648,1.94028 10.847916,-1.94028 11.200696,-8.11389 11.200696,-10.23056 0.08819,-2.02847 -1.94028,-8.55486 -6.967363,-12.08264 -4.938887,-3.61597 -9.613196,-3.35139 -14.640276,-0.88194 -5.115285,2.46944 -4.762505,6.35 -6.967365,8.90763 -2.29306,2.46945 -3.79236,8.29028 2.11666,12.34723 z"
         id="path10935" />
      <path
         style="fill:#8e5e54;fill-opacity:1;fill-rule:nonzero;stroke:none;stroke-width:0.264583"
         d="m -98.028125,212.32813 c -0.26458,-0.61736 0.17639,-1.76389 0.17639,-2.38125 -0.0882,-0.61736 -0.17639,-1.32292 -0.35278,-1.85208 -0.88194,-2.73403 -3.968745,-4.05695 -6.085405,-1.76389 -0.0882,0 -0.0882,0.0882 -0.17639,0.17639 -2.46945,1.4993 -2.38125,5.37986 -1.05834,7.67291 1.49931,2.55764 4.93889,4.8507 8.025695,4.23334 1.4993,-0.35278 2.38125,-2.46945 1.4993,-3.70417 -0.52916,-0.79375 -1.76389,-1.5875 -2.02847,-2.38125 z"
         id="path10937" />
      <path
         style="fill:#8e5e54;fill-opacity:1;fill-rule:nonzero;stroke:none;stroke-width:0.264583"
         d="m -96.881595,197.51146 c -0.17639,0.0882 -0.26458,0.17639 -0.44097,0.26459 -0.26459,0.0882 -0.52917,0.26458 -0.70556,0.52916 -0.26458,0.26459 -0.44097,0.61736 -0.44097,1.05834 0,0.44097 0.17639,0.79375 0.44097,1.05833 0.35278,0.35278 0.70556,0.52917 1.23472,0.52917 0.26459,0 0.52917,-0.0882 0.79375,-0.26459 0,0 0,0 0.0882,0 0.26459,-0.26458 0.35278,-0.35278 0.17639,-0.17639 -0.0882,0.0882 -0.0882,0.0882 0,0 0,0 0.0882,0 0.0882,-0.0882 0.0882,0 0.17639,-0.0882 0.26459,-0.17639 0.0882,0 0.0882,0 0.0882,0 0,0 0,0 0,0 0.26458,-0.26458 0.52916,-0.44097 0.79375,-0.79375 0.26458,-0.44097 0.26458,-1.05833 0,-1.49931 -0.52916,-0.88194 -1.58749,-0.88194 -2.38124,-0.44097 z m 0.70555,2.82222 c 0,0 0,0 0,0 0,0 0,0 0,0 z"
         id="path10939" />
      <path
         style="fill:#8e5e54;fill-opacity:1;fill-rule:nonzero;stroke:none;stroke-width:0.264583"
         d="m -79.948263,212.50452 c -0.176389,-0.88195 -1.234723,-1.49931 -2.028473,-1.23472 -0.705554,0.26458 -1.058333,0.61736 -1.41111,1.14652 -0.08819,0 -0.17639,0.17639 -0.17639,0.26459 -0.08819,0 -0.176387,0.17639 -0.264583,0.17639 -0.176387,0.17638 -0.352777,0.35277 -0.529167,0.52916 0,0.0882 -0.176387,0.17639 -0.264583,0.17639 -0.08819,0.0882 -0.264584,0.17639 -0.352778,0.26458 -1.675694,0.88195 -0.529167,3.70417 1.234724,3.08681 1.852083,-0.61736 4.321526,-2.20486 3.79236,-4.40972 z"
         id="path10941" />
      <path
         style="fill:#090001;fill-opacity:1;fill-rule:nonzero;stroke:none;stroke-width:0.264583"
         d="m -86.82743,202.09757 c 0,0.97014 -0.705557,1.6757 -1.675693,1.6757 -0.881946,0 -1.675696,-0.70556 -1.675696,-1.6757 0,-0.97014 0.79375,-1.67569 1.675696,-1.67569 0.970136,0 1.675693,0.70555 1.675693,1.67569 z"
         id="path10943" />
      <path
         style="fill:#ffffff;fill-opacity:1;fill-rule:nonzero;stroke:none;stroke-width:0.264583"
         d="m -88.855902,201.6566 c 0,0.26458 -0.176388,0.44097 -0.440971,0.44097 -0.264583,0 -0.440973,-0.17639 -0.440973,-0.44097 0,-0.26458 0.17639,-0.44097 0.440973,-0.44097 0.264583,0 0.440971,0.17639 0.440971,0.44097 z"
         id="path10945" />
      <path
         style="fill:#ffffff;fill-opacity:1;fill-rule:nonzero;stroke:none;stroke-width:0.264583"
         d="m -87.180206,202.53855 c 0,0.0882 -0.0882,0.17638 -0.176391,0.17638 -0.17639,0 -0.264582,-0.0882 -0.264582,-0.17638 0,-0.17639 0.08819,-0.26459 0.264583,-0.26459 0.08819,0 0.17639,0.0882 0.17639,0.26459 z"
         id="path10947" />
      <path
         style="fill:#090001;fill-opacity:1;fill-rule:nonzero;stroke:none;stroke-width:0.264583"
         d="m -98.116315,202.36216 c 0,0.97014 -0.79375,1.67569 -1.6757,1.67569 -0.970145,0 -1.763895,-0.70555 -1.763895,-1.67569 0,-0.88195 0.79375,-1.6757 1.763895,-1.6757 0.88195,0 1.6757,0.79375 1.6757,1.6757 z"
         id="path10949" />
      <path
         style="fill:#ffffff;fill-opacity:1;fill-rule:nonzero;stroke:none;stroke-width:0.264583"
         d="m -100.23299,201.92118 c 0,0.26459 -0.17639,0.44098 -0.44097,0.44098 -0.26459,0 -0.44097,-0.17639 -0.44097,-0.44098 0,-0.17638 0.17638,-0.44097 0.44097,-0.44097 0.26458,0 0.44097,0.26459 0.44097,0.44097 z"
         id="path10951" />
      <path
         style="fill:#ffffff;fill-opacity:1;fill-rule:nonzero;stroke:none;stroke-width:0.264583"
         d="m -98.469095,202.80313 c 0,0.0882 -0.17639,0.26458 -0.26458,0.26458 -0.17639,0 -0.26459,-0.17639 -0.26459,-0.26458 0,-0.0882 0.0882,-0.26458 0.26459,-0.26458 0.0882,0 0.26458,0.17638 0.26458,0.26458 z"
         id="path10953" />
      <path
         style="fill:#f0908f;fill-opacity:1;fill-rule:nonzero;stroke:none;stroke-width:0.264583"
         d="m -82.594097,204.8316 c 0,0.97014 -0.705556,1.6757 -1.675694,1.6757 -0.970139,0 -1.675695,-0.70556 -1.675695,-1.6757 0,-0.97014 0.705557,-1.67569 1.675695,-1.67569 0.970138,0 1.675694,0.70555 1.675694,1.67569 z"
         id="path10955" />
      <path
         style="fill:#f0908f;fill-opacity:1;fill-rule:nonzero;stroke:none;stroke-width:0.264583"
         d="m -100.93855,205.00799 c 0,0.88194 -0.61735,1.5875 -1.4993,1.5875 -0.88195,0 -1.5875,-0.70556 -1.5875,-1.5875 0,-0.88194 0.70555,-1.5875 1.5875,-1.5875 0.88195,0 1.4993,0.70556 1.4993,1.5875 z"
         id="path10957" />
      <path
         style="fill:#1d1514;fill-opacity:1;fill-rule:nonzero;stroke:none;stroke-width:0.264583"
         d="m -93.706595,211.00521 c 0,0.79375 -0.26458,1.76389 -0.97014,2.20486 -0.61736,0.35278 -1.23472,-0.0882 -1.49931,-0.70555 -0.26458,-0.44097 -0.35277,-0.97014 -0.35277,-1.49931 0,-0.17639 -0.26459,-0.17639 -0.26459,0 0,0.88195 0.26459,1.94028 1.05834,2.46945 0.35277,0.17639 0.70555,0.17639 1.05833,0 0.35278,-0.0882 0.61736,-0.44098 0.79375,-0.79375 0.26458,-0.52917 0.44097,-1.05834 0.44097,-1.6757 0,-0.17639 -0.26458,-0.17639 -0.26458,0 z"
         id="path10959" />
      <path
         style="fill:#5b362f;fill-opacity:1;fill-rule:nonzero;stroke:none;stroke-width:0.264583"
         d="m -95.117705,196.36493 c -0.52917,0.52917 -1.05834,1.05834 -1.41111,1.76389 -0.26459,0.44098 -0.79375,1.23473 -0.17639,1.5875 0.52916,0.35278 1.23472,0 1.76389,-0.26458 0.61736,-0.44097 1.23472,-0.97014 1.76389,-1.5875 0.0882,-0.0882 -0.0882,-0.26458 -0.26459,-0.17639 -0.44097,0.52917 -1.85208,2.46945 -0.35278,2.55764 0.61737,0.0882 1.14653,-0.35278 1.587505,-0.70556 0.617361,-0.52916 1.058333,-1.05833 1.499304,-1.67569 0.08819,-0.0882 -0.176387,-0.26458 -0.264583,-0.0882 -0.352777,0.44097 -0.61736,0.97013 -0.705555,1.5875 -0.08819,0.35277 0.08819,0.88194 0.61736,0.97013 0.440973,0 0.881945,-0.52916 1.146528,-0.79375 0.35278,-0.44097 0.617363,-0.88194 0.881946,-1.41111 0,-0.17639 -0.176389,-0.26458 -0.264583,-0.0882 -0.264583,0.70555 -0.793751,1.32292 -1.322918,1.76389 -0.264582,0.17639 -0.529167,0.35278 -0.705556,0 -0.176389,-0.26459 -0.08819,-0.52917 0,-0.79375 0.176389,-0.44097 0.352778,-0.79375 0.617361,-1.14653 -0.08819,0 -0.176387,-0.0882 -0.264583,-0.0882 -0.529167,0.79375 -1.234722,1.5875 -2.028476,2.02847 -0.26458,0.17639 -0.52916,0.26458 -0.79375,0.17639 -0.26458,0 -0.44097,-0.26459 -0.35277,-0.52917 0,-0.0882 0,-0.17639 0.0882,-0.26458 0.17639,-0.52917 0.44097,-0.97014 0.88194,-1.32292 -0.0882,0 -0.17639,-0.0882 -0.26458,-0.17639 -0.35277,0.44097 -0.70555,0.88195 -1.23472,1.23472 -0.44097,0.35278 -1.05833,0.70556 -1.5875,0.61736 -0.88194,-0.0882 -0.0882,-1.32291 0.17639,-1.67569 0.35278,-0.44097 0.70556,-0.88194 1.14653,-1.32292 0.0882,-0.0882 -0.0882,-0.26458 -0.17639,-0.17639 z"
         id="path10961" />
      <path
         style="fill:#3d2421;fill-opacity:1;fill-rule:nonzero;stroke:none;stroke-width:0.264583"
         d="m -95.999655,209.5941 c 0,0 -1.5875,-0.17639 -2.02847,-2.11667 -0.44097,-1.85208 1.05833,-5.37986 3.35139,-5.55625 2.20486,-0.17638 4.056944,1.85209 3.792362,4.32153 -0.176391,2.38125 -1.411112,2.91042 -1.852082,3.08681 -0.44097,0.26458 -2.64584,0.44097 -3.2632,0.26458 z"
         id="path10963" />
      <path
         style="fill:#090001;fill-opacity:1;fill-rule:nonzero;stroke:none;stroke-width:0.264583"
         d="m -96.705205,207.30105 c -0.0882,-0.0882 -0.17639,-0.0882 -0.26459,0 -0.0882,0 -0.17638,0.0882 -0.17638,0.17638 0,0.17639 0,0.35278 0.0882,0.52917 0.0882,0.17639 0.17638,0.26458 0.26458,0.35278 0.0882,0 0.17639,0.0882 0.26458,0.0882 0.0882,0 0.26459,-0.0882 0.26459,-0.17639 0.0882,-0.17639 0.0882,-0.44097 0,-0.61736 -0.0882,-0.17639 -0.26459,-0.35278 -0.44098,-0.35278 z"
         id="path10965" />
      <path
         style="fill:#090001;fill-opacity:1;fill-rule:nonzero;stroke:none;stroke-width:0.264583"
         d="m -93.001045,207.65382 c 0,-0.17639 -0.17638,-0.17639 -0.26458,-0.17639 -0.0882,0.0882 -0.17639,0.0882 -0.17639,0.0882 0,0 0,0 0,0 -0.0882,0.0882 -0.0882,0.0882 -0.17639,0.0882 0,0 0,0 0,0.0882 0,0 -0.0882,0 -0.0882,0.0882 0,0 0,0 0,0 0,0 0,0 0,0 0,0 0,0 -0.0882,0 0,0.0882 0,0.17639 -0.0882,0.26459 0,0 0,0.0882 0,0.17639 0,0.0882 0.0882,0.17639 0.17639,0.17639 0,0 0,0 0.0882,0.0882 0.0882,0 0.17639,0 0.26459,0 0.0882,-0.0882 0.17638,-0.0882 0.17638,-0.17639 0,0 0,0 0,0 0.0882,-0.0882 0.0882,-0.17639 0.17639,-0.26459 0,0 0.0882,-0.0882 0.0882,-0.17639 0,-0.0882 0,-0.0882 0,-0.0882 0,-0.0882 0,-0.17638 -0.0882,-0.17638 z"
         id="path10967" />
      <path
         style="fill:#4c2f2d;fill-opacity:1;fill-rule:nonzero;stroke:none;stroke-width:0.264583"
         d="m -95.029515,202.36216 c -0.70555,0.17639 -1.23472,0.70555 -1.5875,1.23472 -0.26458,0.26458 -0.44097,0.61736 -0.52916,0.97014 -0.26459,0.35278 -0.35278,0.79375 -0.26459,1.14653 0.17639,0.88194 1.05834,1.23472 1.76389,0.70555 0.61736,-0.35278 0.79375,-0.97014 1.23472,-1.41111 0.52917,-0.52917 0.97014,-1.05833 0.97014,-1.76389 0,-0.88194 -0.88194,-1.05833 -1.5875,-0.88194 z"
         id="path10969" />
      <path
         style="fill:#7c4e42;fill-opacity:1;fill-rule:nonzero;stroke:none;stroke-width:0.264583"
         d="m -77.12604,196.62952 c 0,2.38125 -1.940279,4.32153 -4.321529,4.32153 -2.469444,0 -4.409721,-1.94028 -4.409721,-4.32153 0,-2.46945 1.940277,-4.40972 4.409721,-4.40972 2.38125,0 4.321529,1.94027 4.321529,4.40972 z"
         id="path10971" />
      <path
         style="fill:#5b362f;fill-opacity:1;fill-rule:nonzero;stroke:none;stroke-width:0.264583"
         d="m -79.330902,197.15868 c 0,1.32292 -1.058334,2.46945 -2.38125,2.46945 -1.322917,0 -2.38125,-1.14653 -2.38125,-2.46945 0,-1.32291 1.058333,-2.38125 2.38125,-2.38125 1.322916,0 2.38125,1.05834 2.38125,2.38125 z"
         id="path10973" />
    </g>
  </g>
</svg>
