<?xml version="1.0" encoding="UTF-8" standalone="no"?>
<!-- Created with Inkscape (http://www.inkscape.org/) -->

<svg
   width="23.136028mm"
   height="32.341537mm"
   viewBox="0 0 23.136028 32.341537"
   version="1.1"
   id="svg53087"
   inkscape:version="1.1-rc (52f87abb86, 2021-05-02)"
   sodipodi:docname="q-quail.svg"
   xmlns:inkscape="http://www.inkscape.org/namespaces/inkscape"
   xmlns:sodipodi="http://sodipodi.sourceforge.net/DTD/sodipodi-0.dtd"
   xmlns="http://www.w3.org/2000/svg"
   xmlns:svg="http://www.w3.org/2000/svg">
  <sodipodi:namedview
     id="namedview53089"
     pagecolor="#ffffff"
     bordercolor="#666666"
     borderopacity="1.0"
     objecttolerance="10.0"
     gridtolerance="10.0"
     guidetolerance="10.0"
     inkscape:pageshadow="2"
     inkscape:pageopacity="0.0"
     inkscape:pagecheckerboard="0"
     inkscape:document-units="mm"
     showgrid="false"
     fit-margin-top="0"
     fit-margin-left="0"
     fit-margin-right="0"
     fit-margin-bottom="0"
     inkscape:zoom="0.94875842"
     inkscape:cx="-225.55795"
     inkscape:cy="-49.011423"
     inkscape:window-width="3840"
     inkscape:window-height="2066"
     inkscape:window-x="2869"
     inkscape:window-y="-11"
     inkscape:window-maximized="1"
     inkscape:current-layer="layer1" />
  <defs
     id="defs53084" />
  <g
     inkscape:label="Layer 1"
     inkscape:groupmode="layer"
     id="layer1"
     transform="translate(-164.67988,-161.47148)">
    <g
       id="g28006"
       transform="translate(170.37106,18.502001)">
      <g
         id="g8732"
         transform="matrix(0.35277777,0,0,-0.35277777,7.6750186,166.80068)">
        <path
           d="m 0,0 c 0.434,0 0.977,0.109 1.411,0.218 -1.52,3.257 -2.606,6.515 -3.258,9.773 L 8.145,9.232 c 1.846,5.213 3.149,12.381 3.149,20.96 0,17.377 -4.779,24.437 -9.991,24.437 -6.082,0 -11.73,-11.73 -11.73,-30.084 C -10.427,7.168 -5.43,0 0,0 m 1.303,67.553 c 12.706,0 24.436,-10.861 24.436,-37.361 0,-13.684 -3.584,-24.762 -8.688,-32.255 2.932,-3.911 6.408,-7.494 10.643,-11.187 l -14.01,-5.214 c -1.955,2.39 -4.019,4.997 -5.865,7.821 -2.606,-1.413 -5.212,-2.172 -7.819,-2.172 -12.924,0 -24.871,10.752 -24.871,37.36 0,26.283 12.49,43.008 26.174,43.008"
           style="fill:#661414;fill-opacity:1;fill-rule:nonzero;stroke:none"
           id="path8734" />
      </g>
      <g
         id="g8736"
         transform="matrix(0.35277777,0,0,-0.35277777,-0.35945979,170.02719)">
        <path
           d="m 0,0 c -0.508,-3.354 -1.658,-7.241 -0.651,-10.584 0.08,-0.266 0.485,-0.218 0.488,0.066 0.022,2.119 -0.076,4.17 0.174,6.289 0.159,1.351 0.542,2.796 0.464,4.165 C 0.46,0.19 0.043,0.284 0,0"
           style="fill:#ba5c15;fill-opacity:1;fill-rule:nonzero;stroke:none"
           id="path8738" />
      </g>
      <g
         id="g8740"
         transform="matrix(0.35277777,0,0,-0.35277777,-0.52290173,173.80307)">
        <path
           d="M 0,0 C 0.385,-0.669 1.279,-0.473 1.923,-0.583 2.083,-0.61 2.202,-0.434 2.084,-0.306 1.624,0.195 0.849,-0.051 0.309,0.309 0.116,0.438 -0.108,0.188 0,0"
           style="fill:#ba5c15;fill-opacity:1;fill-rule:nonzero;stroke:none"
           id="path8742" />
      </g>
      <g
         id="g8744"
         transform="matrix(0.35277777,0,0,-0.35277777,-0.4377059,173.754)">
        <path
           d="m 0,0 c -0.436,0.179 -1.089,-0.04 -1.513,-0.17 -0.405,-0.123 -0.959,-0.27 -1.114,-0.714 -0.046,-0.132 0.092,-0.232 0.209,-0.209 0.428,0.083 0.822,0.337 1.243,0.457 0.393,0.113 0.848,0.139 1.217,0.317 C 0.193,-0.246 0.124,-0.051 0,0"
           style="fill:#ba5c15;fill-opacity:1;fill-rule:nonzero;stroke:none"
           id="path8746" />
      </g>
      <g
         id="g8748"
         transform="matrix(0.35277777,0,0,-0.35277777,-0.43576562,173.68101)">
        <path
           d="m 0,0 c -0.79,0.583 -3.128,0.678 -3.466,-0.514 -0.045,-0.157 0.141,-0.231 0.25,-0.145 1.029,0.801 1.962,0.532 3.164,0.467 C 0.06,-0.198 0.075,-0.055 0,0"
           style="fill:#ba5c15;fill-opacity:1;fill-rule:nonzero;stroke:none"
           id="path8750" />
      </g>
      <g
         id="g8752"
         transform="matrix(0.35277777,0,0,-0.35277777,-3.1658422,157.4084)">
        <path
           d="M 0,0 C 0,0 -0.875,2.596 -2.592,4.231 -3.871,5.45 -6.274,6.353 -6.929,5.103 -8.461,2.18 -1.884,4.066 -0.14,-0.271"
           style="fill:#3b5266;fill-opacity:1;fill-rule:nonzero;stroke:none"
           id="path8754" />
      </g>
      <g
         id="g8756"
         transform="matrix(0.35277777,0,0,-0.35277777,11.820193,172.02345)">
        <path
           d="m 0,0 c -1.727,-1.482 -8.181,-1.444 -16.919,-1.682 -0.163,-0.008 -0.328,-0.011 -0.494,-0.015 -8.988,-0.253 -22.128,3.142 -26.59,9.806 -2.184,3.262 -2.531,6.962 -2.161,10.368 v 0.008 c 0.03,0.275 0.064,0.554 0.105,0.826 0.461,3.221 1.501,6.113 2.12,8.033 1.022,3.161 -0.366,5.722 -1.049,6.717 -0.196,0.291 -0.335,0.449 -0.335,0.449 -0.377,2.787 0.516,4.975 2.025,6.348 2.267,2.081 5.925,2.323 8.724,0 1.61,-1.332 1.931,-3.599 2.15,-6.156 v -0.007 c 0,-0.008 0,-0.015 0.003,-0.019 0.321,-3.734 0.43,-8.086 4.006,-11.104 1.984,-1.67 3.741,-1.885 7.766,-5.657 4.02,-3.771 7.32,-13.578 9.017,-14.456 1.698,-0.883 3.459,1.633 7.106,1.067 2.557,-0.396 -1.075,-1.38 -3.466,-1.935 2.47,0.483 6.725,1.139 7.864,0.174 C 1.297,1.561 -4.613,0.739 -6.17,0.543 -4.579,0.717 1.531,1.316 0,0"
           style="fill:#6481a1;fill-opacity:1;fill-rule:nonzero;stroke:none"
           id="path8758" />
      </g>
      <g
         id="g8760"
         transform="matrix(0.35277777,0,0,-0.35277777,-3.6805097,162.37713)">
        <path
           d="M 0,0 C 1.022,3.161 -0.366,5.722 -1.049,6.717 -0.181,7.034 2.859,8.628 4.462,5.092 6.013,1.67 -0.309,-3.383 -2.12,-8.033 -1.66,-4.812 -0.619,-1.92 0,0"
           style="fill:#3b5266;fill-opacity:1;fill-rule:nonzero;stroke:none"
           id="path8762" />
      </g>
      <g
         id="g8764"
         transform="matrix(0.35277777,0,0,-0.35277777,-3.5020042,160.08284)">
        <path
           d="m 0,0 c 0.193,1.18 -1.048,2.09 -2.156,1.639 -1.5,-0.612 -3.809,-1.629 -3.584,-2.014 0.33,-0.565 5.28,-0.518 5.61,0 C -0.068,-0.277 -0.024,-0.149 0,0"
           style="fill:#535353;fill-opacity:1;fill-rule:nonzero;stroke:none"
           id="path8766" />
      </g>
      <g
         id="g8768"
         transform="matrix(0.35277777,0,0,-0.35277777,0.38158519,159.78125)">
        <path
           d="m 0,0 c -0.373,3.76 -3.851,3.892 -7.272,4.209 -2.391,0.219 -3.281,1.309 -3.602,1.946 2.267,2.082 5.926,2.324 8.724,0 C -0.539,4.824 -0.219,2.557 0,0"
           style="fill:#3b5266;fill-opacity:1;fill-rule:nonzero;stroke:none"
           id="path8770" />
      </g>
      <g
         id="g8772"
         transform="matrix(0.35277777,0,0,-0.35277777,5.8514045,172.61686)">
        <path
           d="m 0,0 c -0.162,-0.008 -0.328,-0.011 -0.494,-0.015 -8.988,-0.253 -22.128,3.142 -26.59,9.806 -2.183,3.262 -2.531,6.962 -2.161,10.368 0.015,-0.26 0.479,-7.026 4.424,-9.678 4.025,-2.7 15.464,-3.455 18.04,-5.091 C -4.202,3.756 -4.315,0.389 -0.015,0 Z"
           style="fill:#9c4443;fill-opacity:1;fill-rule:nonzero;stroke:none"
           id="path8774" />
      </g>
      <g
         id="g8776"
         transform="matrix(0.35277777,0,0,-0.35277777,1.9247763,165.10777)">
        <path
           d="m 0,0 c -2.445,2.518 -6.192,3.404 -9.371,1.916 -1.304,-0.61 -2.494,-1.607 -3.093,-3.227 -1.745,-4.715 0.377,-9.335 4.526,-12.447 4.148,-3.111 17.16,-3.253 18.716,-3.017 1.556,0.236 -2.782,1.037 -2.782,1.037 0,0 1.603,-0.235 1.698,0.472 0.094,0.707 -3.16,0.754 -4.668,4.95 C 3.899,-7.182 3.062,-3.154 0,0"
           style="fill:#664e42;fill-opacity:1;fill-rule:nonzero;stroke:none"
           id="path8778" />
      </g>
      <g
         id="g8780"
         transform="matrix(0.35277777,0,0,-0.35277777,-2.8074906,158.42986)">
        <path
           d="M 0,0 C 0,0 -0.932,-0.057 -1.018,-0.868 -1.104,-1.678 -0.533,-2.052 0,-2.128 0.533,-2.203 1.172,-1.821 1.147,-1.067 1.123,-0.314 0.335,-0.011 0,0"
           style="fill:#ffffff;fill-opacity:1;fill-rule:nonzero;stroke:none"
           id="path8782" />
      </g>
      <g
         id="g8784"
         transform="matrix(0.35277777,0,0,-0.35277777,-2.9435217,158.62019)">
        <path
           d="M 0,0 C 0,0 -0.338,-0.021 -0.369,-0.315 -0.401,-0.609 -0.194,-0.745 0,-0.772 0.193,-0.799 0.425,-0.661 0.416,-0.387 0.407,-0.114 0.121,-0.004 0,0"
           style="fill:#303030;fill-opacity:1;fill-rule:nonzero;stroke:none"
           id="path8786" />
      </g>
      <g
         id="g8788"
         transform="matrix(0.35277777,0,0,-0.35277777,-2.22576,166.78163)">
        <path
           d="M 0,0 C -0.231,-0.865 0.862,-1.714 1.41,-2.22 1.479,-2.285 1.59,-2.204 1.542,-2.119 1.121,-1.37 0.348,-0.886 0.173,0 0.156,0.089 0.022,0.082 0,0"
           style="fill:#9e8878;fill-opacity:1;fill-rule:nonzero;stroke:none"
           id="path8790" />
      </g>
      <g
         id="g8792"
         transform="matrix(0.35277777,0,0,-0.35277777,-1.956767,167.87817)">
        <path
           d="M 0,0 C 0.107,-0.575 0.804,-1.005 1.201,-1.391 1.706,-1.88 2.223,-2.402 2.864,-2.71 2.945,-2.748 3.049,-2.639 2.968,-2.575 1.935,-1.771 1.026,-0.824 0.027,0.016 0.014,0.026 -0.003,0.016 0,0"
           style="fill:#9e8878;fill-opacity:1;fill-rule:nonzero;stroke:none"
           id="path8794" />
      </g>
      <g
         id="g8796"
         transform="matrix(0.35277777,0,0,-0.35277777,-1.1362764,169.14217)">
        <path
           d="M 0,0 C 0.214,-0.522 0.774,-0.879 1.238,-1.153 1.813,-1.492 2.473,-1.844 3.143,-1.938 3.202,-1.947 3.256,-1.86 3.188,-1.831 2.08,-1.354 0.847,-0.913 0.027,0.016 0.017,0.027 -0.006,0.015 0,0"
           style="fill:#9e8878;fill-opacity:1;fill-rule:nonzero;stroke:none"
           id="path8798" />
      </g>
      <g
         id="g8800"
         transform="matrix(0.35277777,0,0,-0.35277777,-1.2251764,168.03184)">
        <path
           d="M 0,0 C 0.047,-0.606 0.648,-1.027 1.104,-1.348 1.763,-1.811 2.501,-2.263 3.233,-2.603 3.334,-2.65 3.447,-2.529 3.358,-2.441 2.9,-1.991 2.228,-1.72 1.683,-1.392 1.043,-1.007 0.496,-0.572 0.028,0.011 0.019,0.022 -0.001,0.013 0,0"
           style="fill:#9e8878;fill-opacity:1;fill-rule:nonzero;stroke:none"
           id="path8802" />
      </g>
      <g
         id="g8804"
         transform="matrix(0.35277777,0,0,-0.35277777,0.1040902,169.39159)">
        <path
           d="M 0,0 C 1.578,-1.236 3.857,-1.365 5.72,-1.938 5.8,-1.963 5.856,-1.837 5.778,-1.801 3.93,-0.954 1.857,-0.916 0.034,0.044 0.007,0.058 -0.026,0.021 0,0"
           style="fill:#9e8878;fill-opacity:1;fill-rule:nonzero;stroke:none"
           id="path8806" />
      </g>
      <g
         id="g8808"
         transform="matrix(0.35277777,0,0,-0.35277777,0.81585463,170.06737)">
        <path
           d="m 0,0 c 1.329,-0.513 2.777,-1.059 4.225,-0.908 0.1,0.01 0.102,0.148 0,0.156 C 2.774,-0.637 1.409,-0.359 0.027,0.099 -0.036,0.121 -0.061,0.023 0,0"
           style="fill:#9e8878;fill-opacity:1;fill-rule:nonzero;stroke:none"
           id="path8810" />
      </g>
      <g
         id="g8812"
         transform="matrix(0.35277777,0,0,-0.35277777,0.35339825,169.0768)">
        <path
           d="m 0,0 c 0.815,-0.58 1.997,-0.557 2.944,-0.801 0.06,-0.015 0.101,0.072 0.043,0.103 C 2.099,-0.224 0.971,-0.251 0.007,0.016 -0.003,0.019 -0.008,0.006 0,0"
           style="fill:#9e8878;fill-opacity:1;fill-rule:nonzero;stroke:none"
           id="path8814" />
      </g>
      <g
         id="g8816"
         transform="matrix(0.35277777,0,0,-0.35277777,2.193734,169.60946)">
        <path
           d="M 0,0 C 0.928,-0.523 2.091,-0.683 3.127,-0.885 3.21,-0.901 3.274,-0.782 3.188,-0.74 2.216,-0.257 1.029,-0.35 0.008,0.019 -0.003,0.023 -0.01,0.006 0,0"
           style="fill:#9e8878;fill-opacity:1;fill-rule:nonzero;stroke:none"
           id="path8818" />
      </g>
      <g
         id="g8820"
         transform="matrix(0.35277777,0,0,-0.35277777,2.8117654,170.26644)">
        <path
           d="m 0,0 c 0.432,-0.115 0.882,-0.173 1.319,-0.277 0.4,-0.096 0.797,-0.182 1.209,-0.137 0.087,0.009 0.125,0.148 0.022,0.167 C 2.072,-0.155 1.595,-0.066 1.117,0.029 0.748,0.101 0.372,0.182 0,0.097 -0.049,0.085 -0.047,0.012 0,0"
           style="fill:#9e8878;fill-opacity:1;fill-rule:nonzero;stroke:none"
           id="path8822" />
      </g>
      <g
         id="g8824"
         transform="matrix(0.35277777,0,0,-0.35277777,-0.91476728,167.38876)">
        <path
           d="M 0,0 C 0.097,-0.755 0.987,-1.138 1.478,-1.618 1.531,-1.67 1.623,-1.603 1.582,-1.538 1.184,-0.908 0.442,-0.619 0.03,0.008 0.022,0.02 -0.002,0.017 0,0"
           style="fill:#9e8878;fill-opacity:1;fill-rule:nonzero;stroke:none"
           id="path8826" />
      </g>
      <g
         id="g8828"
         transform="matrix(0.35277777,0,0,-0.35277777,-1.480905,166.92309)">
        <path
           d="M 0,0 C -0.076,0.598 -0.431,1.155 -0.635,1.716 -0.661,1.787 -0.788,1.784 -0.777,1.697 -0.695,1.078 -0.439,0.462 -0.023,-0.009 -0.016,-0.017 0.001,-0.011 0,0"
           style="fill:#9e8878;fill-opacity:1;fill-rule:nonzero;stroke:none"
           id="path8830" />
      </g>
      <g
         id="g8832"
         transform="matrix(0.35277777,0,0,-0.35277777,-2.2063572,166.28305)">
        <path
           d="M 0,0 C 0.115,0.578 0.045,1.166 0.164,1.75 0.177,1.812 0.092,1.882 0.043,1.82 -0.341,1.332 -0.195,0.559 -0.062,0 -0.055,-0.03 -0.006,-0.032 0,0"
           style="fill:#9e8878;fill-opacity:1;fill-rule:nonzero;stroke:none"
           id="path8834" />
      </g>
      <g
         id="g8836"
         transform="matrix(0.35277777,0,0,-0.35277777,-1.7912084,165.3218)">
        <path
           d="M 0,0 C 0.388,0.147 0.792,0.291 1.167,0.469 1.251,0.509 1.213,0.662 1.118,0.65 0.676,0.595 0.238,0.442 -0.05,0.086 -0.079,0.051 -0.053,-0.02 0,0"
           style="fill:#9e8878;fill-opacity:1;fill-rule:nonzero;stroke:none"
           id="path8838" />
      </g>
      <g
         id="g8840"
         transform="matrix(0.35277777,0,0,-0.35277777,2.2129604,164.35551)">
        <path
           d="M 0,0 C 0.421,-0.403 0.937,-0.773 1.505,-0.93 1.577,-0.95 1.621,-0.847 1.556,-0.809 1.054,-0.521 0.552,-0.204 0.023,0.03 0.005,0.038 -0.017,0.016 0,0"
           style="fill:#3b5266;fill-opacity:1;fill-rule:nonzero;stroke:none"
           id="path8842" />
      </g>
      <g
         id="g8844"
         transform="matrix(0.35277777,0,0,-0.35277777,2.9676226,164.88527)">
        <path
           d="m 0,0 c 0.198,-0.304 0.521,-0.502 0.796,-0.731 0.32,-0.265 0.6,-0.563 0.861,-0.886 0.045,-0.056 0.148,0.004 0.123,0.072 C 1.516,-0.848 0.721,-0.199 0.015,0.019 0.004,0.023 -0.006,0.01 0,0"
           style="fill:#3b5266;fill-opacity:1;fill-rule:nonzero;stroke:none"
           id="path8846" />
      </g>
      <g
         id="g8848"
         transform="matrix(0.35277777,0,0,-0.35277777,3.7348085,165.64452)">
        <path
           d="M 0,0 C 0.288,-0.467 0.742,-0.887 1.109,-1.295 1.178,-1.372 1.276,-1.274 1.241,-1.193 1.014,-0.676 0.519,-0.253 0.058,0.058 0.023,0.083 -0.022,0.035 0,0"
           style="fill:#3b5266;fill-opacity:1;fill-rule:nonzero;stroke:none"
           id="path8850" />
      </g>
      <g
         id="g8852"
         transform="matrix(0.35277777,0,0,-0.35277777,4.2909979,165.90956)">
        <path
           d="M 0,0 C 0.406,-0.554 0.917,-1.079 1.368,-1.6 1.41,-1.648 1.503,-1.597 1.479,-1.535 1.232,-0.898 0.66,-0.26 0.05,0.05 0.021,0.066 -0.024,0.032 0,0"
           style="fill:#3b5266;fill-opacity:1;fill-rule:nonzero;stroke:none"
           id="path8854" />
      </g>
      <g
         id="g8856"
         transform="matrix(0.35277777,0,0,-0.35277777,4.3629293,166.46081)">
        <path
           d="m 0,0 c 0.247,-0.547 0.757,-0.999 1.222,-1.362 0.073,-0.058 0.167,0.03 0.104,0.104 -0.387,0.452 -0.827,0.921 -1.3,1.284 C 0.009,0.039 -0.007,0.015 0,0"
           style="fill:#3b5266;fill-opacity:1;fill-rule:nonzero;stroke:none"
           id="path8858" />
      </g>
      <g
         id="g8860"
         transform="matrix(0.35277777,0,0,-0.35277777,4.9873106,166.92712)">
        <path
           d="M 0,0 C 0.582,-0.449 0.969,-1.135 1.402,-1.716 1.437,-1.764 1.537,-1.737 1.509,-1.67 1.199,-0.928 0.64,-0.444 0.013,0.023 0,0.033 -0.013,0.01 0,0"
           style="fill:#3b5266;fill-opacity:1;fill-rule:nonzero;stroke:none"
           id="path8862" />
      </g>
      <g
         id="g8864"
         transform="matrix(0.35277777,0,0,-0.35277777,4.8311359,167.30335)">
        <path
           d="M 0,0 C 0.531,-0.66 1.185,-1.295 1.517,-2.083 1.543,-2.144 1.655,-2.147 1.647,-2.065 1.561,-1.116 0.576,-0.633 0.019,0.019 0.008,0.032 -0.011,0.013 0,0"
           style="fill:#3b5266;fill-opacity:1;fill-rule:nonzero;stroke:none"
           id="path8866" />
      </g>
      <g
         id="g8868"
         transform="matrix(0.35277777,0,0,-0.35277777,5.5385259,168.07774)">
        <path
           d="M 0,0 C 0.134,-0.735 0.527,-1.447 0.964,-2.041 1.005,-2.096 1.113,-2.066 1.085,-1.99 0.831,-1.285 0.447,-0.61 0.03,0.012 0.019,0.028 -0.003,0.018 0,0"
           style="fill:#3b5266;fill-opacity:1;fill-rule:nonzero;stroke:none"
           id="path8870" />
      </g>
      <g
         id="g8872"
         transform="matrix(0.35277777,0,0,-0.35277777,6.1157056,169.32093)">
        <path
           d="m 0,0 c 0.319,-0.648 0.694,-1.297 1.222,-1.801 0.056,-0.053 0.149,0.015 0.109,0.084 -0.367,0.624 -0.947,1.1 -1.303,1.733 C 0.018,0.035 -0.009,0.019 0,0"
           style="fill:#3b5266;fill-opacity:1;fill-rule:nonzero;stroke:none"
           id="path8874" />
      </g>
      <g
         id="g8876"
         transform="matrix(0.35277777,0,0,-0.35277777,6.4704589,169.49834)">
        <path
           d="M 0,0 C 0.372,-0.596 0.706,-1.249 1.228,-1.732 1.279,-1.778 1.357,-1.72 1.323,-1.658 0.987,-1.039 0.526,-0.473 0.025,0.02 0.013,0.032 -0.01,0.016 0,0"
           style="fill:#3b5266;fill-opacity:1;fill-rule:nonzero;stroke:none"
           id="path8878" />
      </g>
      <g
         id="g8880"
         transform="matrix(0.35277777,0,0,-0.35277777,6.7368414,170.29378)">
        <path
           d="m 0,0 c 0.062,-0.7 1.099,-1.362 1.691,-1.581 0.073,-0.027 0.121,0.075 0.073,0.125 -0.241,0.251 -0.551,0.43 -0.829,0.633 C 0.592,-0.572 0.318,-0.291 0.023,0.009 0.015,0.017 -0.001,0.012 0,0"
           style="fill:#3b5266;fill-opacity:1;fill-rule:nonzero;stroke:none"
           id="path8882" />
      </g>
      <g
         id="g8884"
         transform="matrix(0.35277777,0,0,-0.35277777,6.2838748,169.0985)">
        <path
           d="M 0,0 C 0.242,0.718 -0.495,1.775 -1.007,2.228 -1.113,2.321 -1.249,2.206 -1.194,2.083 -1.042,1.739 -0.764,1.446 -0.564,1.128 -0.339,0.769 -0.165,0.406 -0.045,0 -0.039,-0.023 -0.007,-0.022 0,0"
           style="fill:#3b5266;fill-opacity:1;fill-rule:nonzero;stroke:none"
           id="path8886" />
      </g>
      <g
         id="g8888"
         transform="matrix(0.35277777,0,0,-0.35277777,1.0247696,163.72527)">
        <path
           d="M 0,0 C 0.419,-0.462 0.952,-0.907 1.455,-1.277 1.52,-1.325 1.61,-1.231 1.566,-1.166 1.215,-0.646 0.687,-0.069 0.069,0.118 -0.002,0.14 -0.045,0.05 0,0"
           style="fill:#3b5266;fill-opacity:1;fill-rule:nonzero;stroke:none"
           id="path8890" />
      </g>
      <g
         id="g8892"
         transform="matrix(0.35277777,0,0,-0.35277777,0.63311574,163.14993)">
        <path
           d="M 0,0 C -0.142,0.713 -0.644,1.377 -1.006,1.996 -1.068,2.101 -1.261,2.03 -1.211,1.909 -0.928,1.237 -0.543,0.515 -0.059,-0.034 -0.034,-0.063 0.006,-0.032 0,0"
           style="fill:#3b5266;fill-opacity:1;fill-rule:nonzero;stroke:none"
           id="path8894" />
      </g>
      <g
         id="g8896"
         transform="matrix(0.35277777,0,0,-0.35277777,-1.8480056,158.5981)">
        <path
           d="m 0,0 c 0.448,-0.279 1.133,-0.502 1.656,-0.565 0.099,-0.012 0.131,0.14 0.05,0.184 C 1.237,-0.128 0.549,0.159 0.01,0.078 -0.028,0.072 -0.028,0.018 0,0"
           style="fill:#3b5266;fill-opacity:1;fill-rule:nonzero;stroke:none"
           id="path8898" />
      </g>
      <g
         id="g8900"
         transform="matrix(0.35277777,0,0,-0.35277777,-0.97551561,158.79404)">
        <path
           d="M 0,0 C 0.493,-0.021 0.94,-0.419 1.35,-0.658 1.417,-0.697 1.473,-0.611 1.429,-0.556 1.1,-0.151 0.52,0.14 -0.007,0.052 -0.038,0.047 -0.029,0.001 0,0"
           style="fill:#3b5266;fill-opacity:1;fill-rule:nonzero;stroke:none"
           id="path8902" />
      </g>
      <g
         id="g8904"
         transform="matrix(0.35277777,0,0,-0.35277777,-0.22741507,159.1429)">
        <path
           d="M 0,0 C 0.278,-0.376 0.46,-0.793 0.666,-1.209 0.692,-1.262 0.763,-1.222 0.755,-1.172 0.676,-0.691 0.416,-0.266 0.026,0.026 0.011,0.037 -0.011,0.015 0,0"
           style="fill:#3b5266;fill-opacity:1;fill-rule:nonzero;stroke:none"
           id="path8906" />
      </g>
      <g
         id="g8908"
         transform="matrix(0.35277777,0,0,-0.35277777,-4.1799725,165.46256)">
        <path
           d="M 0,0 C 0.129,0.484 0.427,0.953 0.468,1.454 0.472,1.511 0.382,1.537 0.358,1.484 0.151,1.028 -0.178,0.517 -0.063,0 -0.055,-0.032 -0.008,-0.03 0,0"
           style="fill:#3b5266;fill-opacity:1;fill-rule:nonzero;stroke:none"
           id="path8910" />
      </g>
      <g
         id="g8912"
         transform="matrix(0.35277777,0,0,-0.35277777,-3.6939505,164.54386)">
        <path
           d="M 0,0 C 0.431,0.287 0.8,0.738 0.991,1.219 1.026,1.306 0.898,1.341 0.851,1.278 0.552,0.881 0.156,0.515 -0.071,0.071 -0.092,0.028 -0.046,-0.03 0,0"
           style="fill:#3b5266;fill-opacity:1;fill-rule:nonzero;stroke:none"
           id="path8914" />
      </g>
      <g
         id="g8916"
         transform="matrix(0.35277777,0,0,-0.35277777,-3.1519428,163.71913)">
        <path
           d="M 0,0 C 0.569,-0.21 0.934,0.91 1.077,1.273 1.102,1.336 1.012,1.377 0.969,1.336 0.783,1.158 0.665,0.937 0.532,0.72 0.374,0.461 0.184,0.278 -0.015,0.057 -0.033,0.037 -0.024,0.009 0,0"
           style="fill:#3b5266;fill-opacity:1;fill-rule:nonzero;stroke:none"
           id="path8918" />
      </g>
      <g
         id="g8920"
         transform="matrix(0.35277777,0,0,-0.35277777,-2.7007047,162.99237)">
        <path
           d="M 0,0 C 0.447,0.115 0.818,0.608 1,1.012 1.036,1.091 0.942,1.18 0.873,1.11 0.556,0.792 0.229,0.434 -0.047,0.081 -0.076,0.045 -0.051,-0.013 0,0"
           style="fill:#3b5266;fill-opacity:1;fill-rule:nonzero;stroke:none"
           id="path8922" />
      </g>
      <g
         id="g8924"
         transform="matrix(0.35277777,0,0,-0.35277777,-2.1342847,162.31515)">
        <path
           d="M 0,0 C 0.135,0.414 0.286,0.831 0.41,1.248 0.436,1.338 0.306,1.392 0.259,1.312 0.045,0.945 -0.131,0.441 -0.095,0.013 -0.091,-0.041 -0.018,-0.054 0,0"
           style="fill:#3b5266;fill-opacity:1;fill-rule:nonzero;stroke:none"
           id="path8926" />
      </g>
      <g
         id="g8928"
         transform="matrix(0.35277777,0,0,-0.35277777,0.71376074,171.19742)">
        <path
           d="m 0,0 c -0.508,-3.354 -1.658,-7.241 -0.651,-10.584 0.08,-0.266 0.485,-0.218 0.488,0.066 0.022,2.119 -0.076,4.17 0.174,6.289 0.159,1.351 0.542,2.796 0.464,4.165 C 0.46,0.19 0.043,0.284 0,0"
           style="fill:#ba5c15;fill-opacity:1;fill-rule:nonzero;stroke:none"
           id="path8930" />
      </g>
      <g
         id="g8932"
         transform="matrix(0.35277777,0,0,-0.35277777,0.5503188,174.97334)">
        <path
           d="M 0,0 C 0.385,-0.669 1.279,-0.473 1.923,-0.583 2.083,-0.61 2.202,-0.434 2.084,-0.306 1.624,0.195 0.849,-0.051 0.309,0.309 0.116,0.438 -0.108,0.188 0,0"
           style="fill:#ba5c15;fill-opacity:1;fill-rule:nonzero;stroke:none"
           id="path8934" />
      </g>
      <g
         id="g8936"
         transform="matrix(0.35277777,0,0,-0.35277777,0.63551463,174.92427)">
        <path
           d="m 0,0 c -0.436,0.179 -1.089,-0.04 -1.513,-0.17 -0.405,-0.123 -0.959,-0.27 -1.114,-0.714 -0.046,-0.132 0.092,-0.232 0.209,-0.209 0.428,0.083 0.822,0.337 1.243,0.457 0.393,0.113 0.848,0.139 1.217,0.317 C 0.193,-0.246 0.124,-0.051 0,0"
           style="fill:#ba5c15;fill-opacity:1;fill-rule:nonzero;stroke:none"
           id="path8938" />
      </g>
      <g
         id="g8940"
         transform="matrix(0.35277777,0,0,-0.35277777,0.63749019,174.85125)">
        <path
           d="m 0,0 c -0.79,0.583 -3.128,0.678 -3.466,-0.514 -0.045,-0.157 0.14,-0.231 0.25,-0.145 1.029,0.801 1.962,0.532 3.164,0.467 C 0.06,-0.198 0.075,-0.055 0,0"
           style="fill:#ba5c15;fill-opacity:1;fill-rule:nonzero;stroke:none"
           id="path8942" />
      </g>
    </g>
  </g>
</svg>
