<?xml version="1.0" encoding="UTF-8" standalone="no"?>
<!-- Created with Inkscape (http://www.inkscape.org/) -->

<svg
   width="26.714434mm"
   height="30.173227mm"
   viewBox="0 0 26.714434 30.173227"
   version="1.1"
   id="svg53798"
   inkscape:version="1.1-rc (52f87abb86, 2021-05-02)"
   sodipodi:docname="r-rabbit.svg"
   xmlns:inkscape="http://www.inkscape.org/namespaces/inkscape"
   xmlns:sodipodi="http://sodipodi.sourceforge.net/DTD/sodipodi-0.dtd"
   xmlns="http://www.w3.org/2000/svg"
   xmlns:svg="http://www.w3.org/2000/svg">
  <sodipodi:namedview
     id="namedview53800"
     pagecolor="#ffffff"
     bordercolor="#666666"
     borderopacity="1.0"
     objecttolerance="10.0"
     gridtolerance="10.0"
     guidetolerance="10.0"
     inkscape:pageshadow="2"
     inkscape:pageopacity="0.0"
     inkscape:pagecheckerboard="0"
     inkscape:document-units="mm"
     showgrid="false"
     fit-margin-top="0"
     fit-margin-left="0"
     fit-margin-right="0"
     fit-margin-bottom="0"
     inkscape:zoom="0.94875842"
     inkscape:cx="26.350227"
     inkscape:cy="93.279805"
     inkscape:window-width="3840"
     inkscape:window-height="2066"
     inkscape:window-x="2869"
     inkscape:window-y="-11"
     inkscape:window-maximized="1"
     inkscape:current-layer="layer1" />
  <defs
     id="defs53795" />
  <g
     inkscape:label="Layer 1"
     inkscape:groupmode="layer"
     id="layer1"
     transform="translate(-98.192079,-123.79226)">
    <g
       id="g28098"
       transform="translate(66.046701,-18.717451)">
      <g
         id="g4870"
         transform="matrix(0.35277777,0,0,-0.35277777,37.815928,157.26076)">
        <path
           d="m 0,0 c 10.861,5.105 19.332,13.685 19.332,19.115 0,7.06 -4.452,9.992 -9.232,9.992 -3.04,0 -6.299,-0.543 -9.991,-1.846 C 0.109,18.246 0.109,8.906 0,0 m -16.074,-37.143 c 0.979,18.029 1.413,36.057 1.413,54.086 0,6.408 0,12.815 -0.109,19.223 7.819,3.693 16.942,5.648 24.87,5.648 11.947,0 22.482,-7.82 22.482,-23.242 0,-9.774 -8.471,-18.354 -18.137,-24.653 6.843,-8.58 13.794,-18.03 20.201,-27.26 L 24.22,-41.053 c -6.517,9.775 -15.097,21.179 -24.545,33.668 -0.218,-10.1 -0.543,-21.069 -0.978,-31.387 z"
           style="fill:#ffaa22;fill-opacity:1;fill-rule:nonzero;stroke:none"
           id="path4872" />
      </g>
      <g
         id="g4874"
         transform="matrix(0.35277777,0,0,-0.35277777,47.149722,171.28622)">
        <path
           d="m 0,0 c -0.961,-0.268 -1.844,-0.705 -2.565,-1.27 -0.28,-0.22 -0.545,-0.572 -0.297,-0.815 0.11,-0.107 0.288,-0.151 0.456,-0.188 2.721,-0.601 5.625,-0.687 8.396,-0.248 0.604,0.095 1.221,0.223 1.705,0.522 0.803,0.496 1.073,1.411 0.777,2.177 C 8.176,0.945 7.389,1.557 6.471,1.909"
           style="fill:#ffdee5;fill-opacity:1;fill-rule:nonzero;stroke:none"
           id="path4876" />
      </g>
      <g
         id="g4878"
         transform="matrix(0.35277777,0,0,-0.35277777,55.53398,169.82092)">
        <path
           d="M 0,0 C 1.822,4.212 8.849,-0.486 6.298,-4.29 5.263,-5.833 3.24,-6.626 1.443,-6.16 c -1.085,0.282 -2.084,1.036 -2.465,2.09"
           style="fill:#ffffff;fill-opacity:1;fill-rule:nonzero;stroke:none"
           id="path4880" />
      </g>
      <g
         id="g4882"
         transform="matrix(0.35277777,0,0,-0.35277777,55.53398,169.82092)">
        <path
           d="M 0,0 C 0.172,0.397 0.39,0.715 0.642,0.962 L 0.658,0.965 C 1.16,0.157 1.37,-0.828 1.241,-1.77 1.165,-2.323 1.07,-2.752 1.248,-3.299 1.403,-3.777 1.685,-4.214 2.064,-4.544 3.438,-5.739 5.016,-5.084 6.343,-4.214 6.326,-4.24 6.315,-4.265 6.298,-4.29 5.263,-5.833 3.24,-6.626 1.443,-6.16 c -1.085,0.282 -2.084,1.036 -2.465,2.09 z"
           style="fill:#ffdee5;fill-opacity:1;fill-rule:nonzero;stroke:none"
           id="path4884" />
      </g>
      <g
         id="g4886"
         transform="matrix(0.35277777,0,0,-0.35277777,52.576961,165.8734)">
        <path
           d="m 0,0 c 1.509,-0.646 2.382,-2.201 3.564,-3.339 2.003,-1.929 4.136,-3.564 5.17,-6.285 1.49,-3.917 -0.898,-7.454 -4.738,-8.62 -0.906,-0.276 -1.853,-0.378 -2.794,-0.479 -1.777,-0.19 -3.066,-0.348 -4.817,0.046 -1.854,0.417 -3.708,0.834 -5.562,1.251 -1.806,0.406 -3.798,0.937 -4.792,2.499 -0.988,1.551 -0.639,3.567 -0.254,5.365 0.599,2.801 1.697,8.816 5.263,9.434"
           style="fill:#ffffff;fill-opacity:1;fill-rule:nonzero;stroke:none"
           id="path4888" />
      </g>
      <g
         id="g4890"
         transform="matrix(0.35277777,0,0,-0.35277777,53.173967,166.31656)">
        <path
           d="m 0,0 c 0,0 0.292,-0.327 0.709,-0.797 -1.58,-0.968 -3.082,-1.177 -4.723,-1.178 -2.521,-0.002 -5.981,1.26 -6.568,1.746 C -7.182,-0.876 -3.487,-1.444 0,0"
           style="fill:#ffdee5;fill-opacity:1;fill-rule:nonzero;stroke:none"
           id="path4892" />
      </g>
      <g
         id="g4894"
         transform="matrix(0.35277777,0,0,-0.35277777,49.582866,158.01327)">
        <path
           d="M 0,0 C -1.257,4.09 -3.873,11.392 1.048,17.851 1.659,18.654 3.173,18.615 3.655,17.576 4.796,15.113 4.297,12.17 3.74,9.623 3.067,6.547 2.503,3.326 2.436,0.192"
           style="fill:#ffffff;fill-opacity:1;fill-rule:nonzero;stroke:none"
           id="path4896" />
      </g>
      <g
         id="g4898"
         transform="matrix(0.35277777,0,0,-0.35277777,49.78155,157.89562)">
        <path
           d="m 0,0 c -1.209,4.134 -1.532,8.693 -0.291,12.96 0.152,0.523 0.335,1.094 0.755,1.468 1.357,1.211 1.55,-2.06 1.561,-2.719 C 2.088,7.776 0.321,4.013 0.732,0.058"
           style="fill:#ffb3c0;fill-opacity:1;fill-rule:nonzero;stroke:none"
           id="path4900" />
      </g>
      <g
         id="g4902"
         transform="matrix(0.35277777,0,0,-0.35277777,46.155736,159.81526)">
        <path
           d="m 0,0 c 2.45,3.122 5.922,5.494 10.243,6.379 3.267,0.669 5.905,0.295 9.056,-0.928 3.241,-1.258 6.546,-4.163 7.918,-7.325 1.359,-3.13 1.663,-6.87 0.616,-10.136 -2.726,-8.506 -14.082,-8.482 -20.875,-5.709 -2.06,0.841 -4.005,1.988 -5.688,3.448 -1.031,0.895 -1.944,1.935 -2.617,3.128 C -3.299,-7.688 -2.45,-3.122 0,0"
           style="fill:#ffffff;fill-opacity:1;fill-rule:nonzero;stroke:none"
           id="path4904" />
      </g>
      <g
         id="g4906"
         transform="matrix(0.35277777,0,0,-0.35277777,48.4036,163.3769)">
        <path
           d="M 0,0 C -0.439,-1.503 -0.822,-3.588 0.008,-5.028 0.05,-5.102 0.172,-5.053 0.146,-4.97 -0.371,-3.306 -0.123,-1.729 0.181,-0.05 0.202,0.067 0.034,0.118 0,0"
           style="fill:#b2445b;fill-opacity:1;fill-rule:nonzero;stroke:none"
           id="path4908" />
      </g>
      <g
         id="g4910"
         transform="matrix(0.35277777,0,0,-0.35277777,48.687833,164.52466)">
        <path
           d="m 0,0 c -0.151,-0.511 -0.156,-1.863 -1.016,-1.64 -0.626,0.163 -0.834,1.076 -1.112,1.59 -0.051,0.093 -0.194,0.029 -0.169,-0.072 0.153,-0.606 0.626,-1.927 1.443,-1.84 C -0.101,-1.881 0.355,-0.623 0.105,0 0.086,0.048 0.016,0.055 0,0"
           style="fill:#b2445b;fill-opacity:1;fill-rule:nonzero;stroke:none"
           id="path4912" />
      </g>
      <g
         id="g4914"
         transform="matrix(0.35277777,0,0,-0.35277777,45.606037,162.57991)">
        <path
           d="M 0,0 C -0.832,0.688 -2.053,1.063 -3.108,1.209 -3.194,1.221 -3.234,1.1 -3.145,1.074 -2.075,0.759 -1.056,0.454 -0.083,-0.108 -0.018,-0.145 0.062,-0.051 0,0"
           style="fill:#ffb3c0;fill-opacity:1;fill-rule:nonzero;stroke:none"
           id="path4916" />
      </g>
      <g
         id="g4918"
         transform="matrix(0.35277777,0,0,-0.35277777,45.418042,163.16926)">
        <path
           d="m 0,0 c -0.968,0.273 -2.071,0.261 -3.062,0.139 -0.082,-0.011 -0.086,-0.127 0,-0.132 1.019,-0.06 2.007,0.015 3.023,-0.15 C 0.053,-0.158 0.094,-0.026 0,0"
           style="fill:#ffb3c0;fill-opacity:1;fill-rule:nonzero;stroke:none"
           id="path4920" />
      </g>
      <g
         id="g4922"
         transform="matrix(0.35277777,0,0,-0.35277777,45.4076,163.74517)">
        <path
           d="m 0,0 c -0.864,-0.046 -1.777,-0.135 -2.614,-0.358 -0.081,-0.022 -0.068,-0.161 0.02,-0.151 0.872,0.1 1.741,0.265 2.61,0.388 C 0.085,-0.111 0.069,0.004 0,0"
           style="fill:#ffb3c0;fill-opacity:1;fill-rule:nonzero;stroke:none"
           id="path4924" />
      </g>
      <g
         id="g4926"
         transform="matrix(0.35277777,0,0,-0.35277777,55.495527,165.51329)">
        <path
           d="M 0,0 C -1.413,0.796 -2.916,1.492 -4.494,1.891 -4.577,1.912 -4.609,1.791 -4.529,1.764 -2.99,1.234 -1.492,0.679 -0.051,-0.087 0.006,-0.117 0.057,-0.032 0,0"
           style="fill:#ffb3c0;fill-opacity:1;fill-rule:nonzero;stroke:none"
           id="path4928" />
      </g>
      <g
         id="g4930"
         transform="matrix(0.35277777,0,0,-0.35277777,54.901873,166.36175)">
        <path
           d="M 0,0 C -0.922,1.144 -2.244,2.141 -3.567,2.779 -3.646,2.817 -3.71,2.71 -3.636,2.66 -2.38,1.82 -1.086,1.076 -0.099,-0.099 -0.041,-0.168 0.056,-0.069 0,0"
           style="fill:#ffb3c0;fill-opacity:1;fill-rule:nonzero;stroke:none"
           id="path4932" />
      </g>
      <g
         id="g4934"
         transform="matrix(0.35277777,0,0,-0.35277777,53.970222,166.79461)">
        <path
           d="M 0,0 C -0.656,1.064 -1.256,2.208 -2.082,3.152 -2.141,3.218 -2.254,3.131 -2.205,3.057 -1.528,2.009 -0.838,0.951 -0.126,-0.073 -0.073,-0.149 0.05,-0.081 0,0"
           style="fill:#ffb3c0;fill-opacity:1;fill-rule:nonzero;stroke:none"
           id="path4936" />
      </g>
      <g
         id="g4938"
         transform="matrix(0.35277777,0,0,-0.35277777,48.049482,162.72839)">
        <path
           d="M 0,0 C 0.067,0.148 0.167,0.276 0.296,0.36 0.582,0.547 0.943,0.496 1.268,0.419 1.792,0.294 2.328,0.183 2.817,-0.069 3.244,-0.288 3.662,-0.791 3.335,-1.313 3.017,-1.819 2.206,-2.112 1.667,-2.149 1.1,-2.187 0.715,-2.015 0.319,-1.564 0.095,-1.31 -0.073,-0.908 -0.098,-0.554 -0.111,-0.365 -0.077,-0.169 0,0"
           style="fill:#3d2118;fill-opacity:1;fill-rule:nonzero;stroke:none"
           id="path4940" />
      </g>
      <g
         id="g4942"
         transform="matrix(0.35277777,0,0,-0.35277777,48.309267,162.63187)">
        <path
           d="M 0,0 C 0.213,-0.003 0.441,-0.058 0.647,-0.108 0.81,-0.147 1.026,-0.178 1.131,-0.323 1.229,-0.459 1.182,-0.638 1.051,-0.732 0.784,-0.925 0.288,-0.73 0.019,-0.619 -0.128,-0.558 -0.294,-0.459 -0.308,-0.283 -0.323,-0.099 -0.166,0.003 0,0"
           style="fill:#ffffff;fill-opacity:1;fill-rule:nonzero;stroke:none"
           id="path4944" />
      </g>
      <g
         id="g4946"
         transform="matrix(0.35277777,0,0,-0.35277777,55.214504,160.40002)">
        <path
           d="m 0,0 c -0.285,0.438 -1.39,1.623 -1.951,1.748 -0.207,0.047 0.384,0.333 0.205,0.446 -0.342,0.217 -0.517,0.611 -0.759,0.935 -0.241,0.324 -0.656,0.607 -1.03,0.451 0.263,0.593 0.077,1.31 -0.312,1.829 -0.372,0.496 -0.902,0.843 -1.437,1.158 2.866,-1.43 5.605,-4.03 6.823,-6.835 C 2.897,-3.399 3.202,-7.139 2.155,-10.405 2.06,-10.7 1.953,-10.983 1.838,-11.258 2.057,-9.451 2.169,-7.631 2.025,-5.819 1.838,-3.475 1.28,-1.972 0,0"
           style="fill:#ffdee5;fill-opacity:1;fill-rule:nonzero;stroke:none"
           id="path4948" />
      </g>
      <g
         id="g4950"
         transform="matrix(0.35277777,0,0,-0.35277777,54.438005,159.8311)">
        <path
           d="m 0,0 c 4.012,2.183 11.458,5.803 12.524,14.405 0.133,1.069 -1.051,2.17 -2.195,1.736 C 7.62,15.113 5.804,12.495 4.328,10.135 2.546,7.286 0.573,4.407 -1.716,1.965"
           style="fill:#ffffff;fill-opacity:1;fill-rule:nonzero;stroke:none"
           id="path4952" />
      </g>
      <g
         id="g4954"
         transform="matrix(0.35277777,0,0,-0.35277777,56.912318,155.9074)">
        <path
           d="M 0,0 C 0.5,0.495 3.088,2.847 3.221,0.91 3.262,0.311 2.975,-0.261 2.701,-0.774 1.558,-2.91 0.03,-4.824 -1.735,-6.478 -2.611,-7.3 -3.546,-8.059 -4.525,-8.756 c -0.486,-0.346 -0.984,-0.678 -1.491,-0.993 -0.263,-0.164 -0.529,-0.322 -0.796,-0.48 -0.465,-0.274 -0.581,0.009 -0.898,0.372 C -4.444,-7.145 -2.984,-2.955 0,0"
           style="fill:#ffb3c0;fill-opacity:1;fill-rule:nonzero;stroke:none"
           id="path4956" />
      </g>
      <g
         id="g4958"
         transform="matrix(0.35277777,0,0,-0.35277777,49.991382,167.38915)">
        <path
           d="m 0,0 c -1.607,-1.13 -3.582,-1.788 -5.006,-3.141 -0.97,-0.922 0.173,-1.959 1.106,-2.023 2.173,-0.149 6.215,2.161 6.215,2.161"
           style="fill:#ffdee5;fill-opacity:1;fill-rule:nonzero;stroke:none"
           id="path4960" />
      </g>
      <g
         id="g4962"
         transform="matrix(0.35277777,0,0,-0.35277777,48.965222,166.63279)">
        <path
           d="m 0,0 c 1.455,-2.134 2.152,-4.773 1.941,-7.347 -0.212,-2.574 -1.331,-5.064 -3.115,-6.931 -0.297,-0.311 -0.668,-0.626 -1.097,-0.59 -0.207,0.018 -0.397,0.118 -0.577,0.221 -0.362,0.208 -0.711,0.44 -1.043,0.693 -0.348,0.266 -0.681,0.558 -0.933,0.917 -0.279,0.398 -0.447,0.863 -0.566,1.335 -0.208,0.821 -0.275,1.67 -0.332,2.515 -0.074,1.084 -0.134,2.17 -0.181,3.256"
           style="fill:#ffdee5;fill-opacity:1;fill-rule:nonzero;stroke:none"
           id="path4964" />
      </g>
      <g
         id="g4966"
         transform="matrix(0.35277777,0,0,-0.35277777,55.668953,169.29881)">
        <path
           d="m 0,0 c 0.378,-1.588 0.136,-3.145 -0.404,-4.119 -0.097,-0.175 -0.266,-0.366 -0.459,-0.311 -0.185,0.053 -0.373,1.157 -0.447,1.336 -0.065,0.157 -0.173,0.295 -0.31,0.396 -0.061,0.044 -0.144,0.082 -0.209,0.045 -0.052,-0.03 -0.071,-0.095 -0.085,-0.153 -0.493,-1.961 -5.756,3.351 -5.756,3.351 -0.695,0.176 -1.431,0.118 -2.128,-0.049 -1.531,-0.367 -2.43,-1.091 -3.39,-2.339 -0.961,-1.247 -1.322,-2.876 -1.285,-4.451 -0.918,0.023 -2.687,-0.665 -2.429,-1.656 1.508,-0.339 3.015,-0.678 4.523,-1.017 1.751,-0.394 3.039,-0.237 4.816,-0.046 0.941,0.101 1.889,0.203 2.794,0.478 C -0.957,-7.377 1.422,-3.883 0,0"
           style="fill:#ffdee5;fill-opacity:1;fill-rule:nonzero;stroke:none"
           id="path4968" />
      </g>
      <g
         id="g4970"
         transform="matrix(0.35277777,0,0,-0.35277777,53.130787,169.10749)">
        <path
           d="m 0,0 c -1.881,0.353 -3.823,-0.738 -4.908,-2.314 -1.085,-1.577 -1.441,-3.547 -1.5,-5.46 -0.709,0.115 -1.48,0.219 -2.109,-0.128 -0.628,-0.347 -0.914,-1.35 -0.34,-1.781 0.221,-0.165 0.508,-0.207 0.781,-0.24 2.984,-0.355 6.387,-0.284 9.321,0.362 1.308,0.288 2.655,0.709 3.591,1.666 1.216,1.243 1.128,3.258 0.767,4.959"
           style="fill:#ffffff;fill-opacity:1;fill-rule:nonzero;stroke:none"
           id="path4972" />
      </g>
      <g
         id="g4974"
         transform="matrix(0.35277777,0,0,-0.35277777,49.364038,169.1675)">
        <path
           d="m 0,0 c 0,0 0.265,-7.61 -1.122,-7.943 -0.071,-0.018 -0.15,-0.026 -0.229,-0.018 -1.401,0.078 -3.558,3.489 -3.558,3.489 -1.146,1.552 -5.725,7.897 -5.31,9.864 0.111,0.531 0.326,0.996 0.613,1.408 0.007,0.008 0.011,0.018 0.018,0.026 0.007,0.017 0.018,0.032 0.029,0.046 0.018,0.032 0.039,0.065 0.064,0.097 0.33,0.433 0.745,0.802 1.211,1.103 0.344,0.23 0.72,0.42 1.114,0.577 0.015,0.008 0.033,0.011 0.047,0.018 0.366,0.147 0.745,0.258 1.129,0.348 0.003,0 0.007,0.003 0.01,0 0.355,0.079 0.706,0.136 1.054,0.168 h 0.011 c 0.344,0.032 0.677,0.04 0.996,0.025 C -2.709,9.158 -1.702,8.8 -1.347,8.173 -0.043,5.883 0.122,2.551 0,0"
           style="fill:#ffaa22;fill-opacity:1;fill-rule:nonzero;stroke:none"
           id="path4976" />
      </g>
      <g
         id="g4978"
         transform="matrix(0.35277777,0,0,-0.35277777,49.364038,169.1675)">
        <path
           d="m 0,0 c 0,0 0.265,-7.61 -1.122,-7.943 -0.071,-0.018 -0.15,-0.026 -0.229,-0.018 0.047,1.078 -0.011,2.956 -0.326,6.402 -0.011,0.097 -0.011,0.194 -0.018,0.287 -0.122,1.695 -0.362,3.361 -0.713,4.722 L -2.462,3.651 C -2.816,4.937 -3.275,5.926 -3.845,6.374 -4.694,7.044 -5.432,6.84 -9.004,5.715 -9.524,5.554 -9.993,6.13 -9.606,6.8 c 0.004,0.008 0.011,0.018 0.014,0.026 0.011,0.017 0.018,0.032 0.033,0.046 0.018,0.032 0.039,0.065 0.064,0.097 0.33,0.433 0.745,0.802 1.211,1.103 0.344,0.23 0.72,0.42 1.114,0.577 0.015,0.008 0.033,0.011 0.047,0.018 0.366,0.147 0.745,0.258 1.129,0.348 0.003,0 0.007,0.003 0.01,0 0.355,0.079 0.706,0.136 1.054,0.168 h 0.011 c 0.344,0.032 0.677,0.04 0.996,0.025 C -2.709,9.158 -1.702,8.8 -1.347,8.173 -0.043,5.883 0.122,2.551 0,0"
           style="fill:#ff8f15;fill-opacity:1;fill-rule:nonzero;stroke:none"
           id="path4980" />
      </g>
      <g
         id="g4982"
         transform="matrix(0.35277777,0,0,-0.35277777,47.915532,166.21175)">
        <path
           d="m 0,0 c -0.001,-0.014 -0.003,-0.023 -0.008,-0.038 -0.093,-0.367 -0.166,-0.613 -0.166,-0.613 l -2.811,-0.747 c 0,0 -3.376,2.846 -4.411,5.199 -0.023,0.052 -0.04,0.101 -0.056,0.145 -0.006,0.003 -0.006,0.003 -0.005,-0.001 -0.512,1.327 0.974,0.37 2.544,-1.32 0.006,-0.008 0.012,-0.015 0.018,-0.018 0.643,-0.696 1.3,-1.513 1.833,-2.345 10e-4,-0.004 0.002,-0.008 0.007,-0.011 0.128,-0.198 0.252,-0.396 0.362,-0.593 -0.671,1.271 -3.709,7.178 -2.974,8.845 0.055,0.13 0.133,0.235 0.238,0.308 1.238,0.863 2.775,-4.901 3.438,-7.695 -0.022,0.101 -0.042,0.207 -0.062,0.317 -0.003,0.03 -0.01,0.055 -0.018,0.084 -0.323,1.702 -0.618,4.016 0.074,4.471 l 0.004,10e-4 c 0.038,0.028 0.073,0.046 0.114,0.057 0.963,0.309 1.078,-3.102 1.064,-5.022 0.016,0.227 0.036,0.468 0.059,0.7 0.003,0.006 0.005,0.015 0.004,0.019 0.083,0.756 0.245,1.471 0.555,1.575 0.061,0.021 0.123,0.02 0.193,-0.006 C 0.662,3.062 0.26,1.061 0,0"
           style="fill:#8baa37;fill-opacity:1;fill-rule:nonzero;stroke:none"
           id="path4984" />
      </g>
      <g
         id="g4986"
         transform="matrix(0.35277777,0,0,-0.35277777,46.984269,166.37308)">
        <path
           d="m 0,0 c -0.282,0.325 -2.547,2.974 -3.553,3.916 -0.932,0.877 -1.206,0.586 -1.26,0.487 -0.005,0.003 -0.005,0.003 -0.004,-10e-4 -0.513,1.327 0.974,0.37 2.544,-1.32 0.006,-0.007 0.012,-0.014 0.018,-0.017 0.643,-0.697 1.3,-1.514 1.833,-2.346 C -0.421,0.715 -0.42,0.711 -0.415,0.708 -0.294,0.504 -0.156,0.27 0,0"
           style="fill:#7a9127;fill-opacity:1;fill-rule:nonzero;stroke:none"
           id="path4988" />
      </g>
      <g
         id="g4990"
         transform="matrix(0.35277777,0,0,-0.35277777,47.213187,165.81809)">
        <path
           d="M 0,0 C -0.022,0.101 -0.042,0.207 -0.062,0.317 0.163,-0.681 0.33,-1.46 0.33,-1.46 c 0,0 -2.011,6.127 -2.707,7.609 -0.664,1.407 -1.242,1.258 -1.299,1.238 0.054,0.13 0.133,0.236 0.238,0.308 C -2.2,8.558 -0.663,2.794 0,0"
           style="fill:#7a9127;fill-opacity:1;fill-rule:nonzero;stroke:none"
           id="path4992" />
      </g>
      <g
         id="g4994"
         transform="matrix(0.35277777,0,0,-0.35277777,47.628089,165.85047)">
        <path
           d="m 0,0 c 0.015,0.226 0.036,0.467 0.058,0.7 -0.03,-0.755 -0.062,-1.355 -0.062,-1.355 0,0 -0.248,2.743 -0.496,4.124 -0.274,1.525 -0.634,1.481 -0.678,1.496 0.037,0.028 0.073,0.046 0.114,0.057 C -0.101,5.331 0.014,1.92 0,0"
           style="fill:#7a9127;fill-opacity:1;fill-rule:nonzero;stroke:none"
           id="path4996" />
      </g>
      <g
         id="g4998"
         transform="matrix(0.35277777,0,0,-0.35277777,47.915532,166.21175)">
        <path
           d="M 0,0 C 0.209,1.198 0.283,2.133 0.18,2.667 0.062,3.278 -0.197,3.318 -0.197,3.318 -0.136,3.339 -0.074,3.338 -0.004,3.312 0.662,3.062 0.26,1.061 0,0"
           style="fill:#7a9127;fill-opacity:1;fill-rule:nonzero;stroke:none"
           id="path5000" />
      </g>
      <g
         id="g5002"
         transform="matrix(0.35277777,0,0,-0.35277777,46.707515,166.67435)">
        <path
           d="m 0,0 c 0,0 0.57,0.782 2.182,0.784 0,0 0.963,0.905 1.953,0.111 C 5.124,0.102 0.346,-0.464 0.346,-0.464 Z"
           style="fill:#ff8f15;fill-opacity:1;fill-rule:nonzero;stroke:none"
           id="path5004" />
      </g>
      <g
         id="g5006"
         transform="matrix(0.35277777,0,0,-0.35277777,46.401093,167.90191)">
        <path
           d="M 0,0 C 1.351,-0.123 2.252,0.094 3.362,0.974 3.627,1.183 3.415,1.235 3.29,1.135 2.385,0.418 1.076,0.31 -0.047,0.247 -0.797,0.205 -0.081,0.007 0,0"
           style="fill:#dd730a;fill-opacity:1;fill-rule:nonzero;stroke:none"
           id="path5008" />
      </g>
      <g
         id="g5010"
         transform="matrix(0.35277777,0,0,-0.35277777,49.016587,167.59648)">
        <path
           d="M 0,0 C 0.24,0.3 -0.138,0.283 -0.381,-0.031 -1.077,-0.928 -2.225,-1.036 -3.246,-0.964 -3.393,-0.953 -3.437,-1.147 -3.244,-1.152 -1.808,-1.192 -0.882,-1.103 0,0"
           style="fill:#dd730a;fill-opacity:1;fill-rule:nonzero;stroke:none"
           id="path5012" />
      </g>
      <g
         id="g5014"
         transform="matrix(0.35277777,0,0,-0.35277777,47.010834,169.10058)">
        <path
           d="M 0,0 C 1.405,0.055 2.425,0.216 3.521,1.151 3.782,1.375 3.789,1.553 3.188,1.154 2.19,0.49 0.977,0.275 -0.149,0.266 -0.837,0.26 -0.711,-0.035 -0.523,-0.028 Z"
           style="fill:#dd730a;fill-opacity:1;fill-rule:nonzero;stroke:none"
           id="path5016" />
      </g>
      <g
         id="g5018"
         transform="matrix(0.35277777,0,0,-0.35277777,47.473431,170.03273)">
        <path
           d="M 0,0 C 1.423,-0.015 2.98,0.126 4.038,1.202 4.29,1.459 3.966,1.54 3.7,1.224 2.907,0.283 1.41,0.226 0.267,0.272 -0.211,0.291 -0.19,0.002 0,0"
           style="fill:#dd730a;fill-opacity:1;fill-rule:nonzero;stroke:none"
           id="path5020" />
      </g>
      <g
         id="g5022"
         transform="matrix(0.35277777,0,0,-0.35277777,49.991382,167.38915)">
        <path
           d="m 0,0 c -1.563,-0.861 -3.063,-1.836 -4.483,-2.917 -0.967,-0.736 0.327,-1.109 0.969,-1.219 1.95,-0.335 6.211,1.271 6.211,1.271"
           style="fill:#ffffff;fill-opacity:1;fill-rule:nonzero;stroke:none"
           id="path5024" />
      </g>
      <g
         id="g5026"
         transform="matrix(0.35277777,0,0,-0.35277777,47.845929,161.34254)">
        <path
           d="m 0,0 c 0,-1.136 -0.921,-2.057 -2.057,-2.057 -1.136,0 -2.057,0.921 -2.057,2.057 0,1.136 0.921,2.057 2.057,2.057 C -0.921,2.057 0,1.136 0,0"
           style="fill:#3d2118;fill-opacity:1;fill-rule:nonzero;stroke:none"
           id="path5028" />
      </g>
      <g
         id="g5030"
         transform="matrix(0.35277777,0,0,-0.35277777,47.289211,161.16873)">
        <path
           d="m 0,0 c 0,-0.486 -0.394,-0.88 -0.88,-0.88 -0.486,0 -0.88,0.394 -0.88,0.88 0,0.486 0.394,0.88 0.88,0.88 C -0.394,0.88 0,0.486 0,0"
           style="fill:#ffffff;fill-opacity:1;fill-rule:nonzero;stroke:none"
           id="path5032" />
      </g>
      <g
         id="g5034"
         transform="matrix(0.35277777,0,0,-0.35277777,52.680678,162.77538)">
        <path
           d="m 0,0 c 0,-1.136 -0.921,-2.057 -2.057,-2.057 -1.136,0 -2.057,0.921 -2.057,2.057 0,1.136 0.921,2.057 2.057,2.057 C -0.921,2.057 0,1.136 0,0"
           style="fill:#3d2118;fill-opacity:1;fill-rule:nonzero;stroke:none"
           id="path5036" />
      </g>
      <g
         id="g5038"
         transform="matrix(0.35277777,0,0,-0.35277777,52.017985,162.71174)">
        <path
           d="m 0,0 c 0,-0.486 -0.394,-0.88 -0.88,-0.88 -0.486,0 -0.88,0.394 -0.88,0.88 0,0.486 0.394,0.88 0.88,0.88 C -0.394,0.88 0,0.486 0,0"
           style="fill:#ffffff;fill-opacity:1;fill-rule:nonzero;stroke:none"
           id="path5040" />
      </g>
      <g
         id="g5042"
         transform="matrix(0.35277777,0,0,-0.35277777,46.394707,161.77437)">
        <path
           d="m 0,0 c 0,0 0.118,-0.217 0.366,-0.475 0.232,-0.27 0.638,-0.548 1.097,-0.629 0.451,-0.107 0.939,-0.037 1.276,0.081 0.343,0.102 0.573,0.19 0.573,0.19 0,0 -0.053,-0.03 -0.146,-0.082 C 3.07,-0.959 2.948,-1.062 2.77,-1.114 2.433,-1.256 1.929,-1.367 1.426,-1.278 0.927,-1.158 0.515,-0.831 0.293,-0.537 0.065,-0.241 0,0 0,0"
           style="fill:#ffb3c0;fill-opacity:1;fill-rule:nonzero;stroke:none"
           id="path5044" />
      </g>
      <g
         id="g5046"
         transform="matrix(0.35277777,0,0,-0.35277777,51.138686,163.07277)">
        <path
           d="m 0,0 c 0,0 0.082,-0.227 0.276,-0.519 0.178,-0.299 0.507,-0.649 0.925,-0.834 0.398,-0.224 0.879,-0.27 1.226,-0.24 0.35,0.013 0.589,0.048 0.589,0.048 0,0 -0.057,-0.016 -0.157,-0.046 C 2.757,-1.612 2.617,-1.682 2.435,-1.689 2.082,-1.741 1.573,-1.73 1.122,-1.514 0.678,-1.282 0.358,-0.888 0.193,-0.567 0.027,-0.242 0,0 0,0"
           style="fill:#ffb3c0;fill-opacity:1;fill-rule:nonzero;stroke:none"
           id="path5048" />
      </g>
    </g>
  </g>
</svg>
