<?xml version="1.0" encoding="UTF-8" standalone="no"?>
<!-- Created with Inkscape (http://www.inkscape.org/) -->

<svg
   width="29.646423mm"
   height="31.140835mm"
   viewBox="0 0 29.646423 31.140835"
   version="1.1"
   id="svg48282"
   inkscape:version="1.1-rc (52f87abb86, 2021-05-02)"
   sodipodi:docname="r-renard.svg"
   xmlns:inkscape="http://www.inkscape.org/namespaces/inkscape"
   xmlns:sodipodi="http://sodipodi.sourceforge.net/DTD/sodipodi-0.dtd"
   xmlns="http://www.w3.org/2000/svg"
   xmlns:svg="http://www.w3.org/2000/svg">
  <sodipodi:namedview
     id="namedview48284"
     pagecolor="#ffffff"
     bordercolor="#666666"
     borderopacity="1.0"
     objecttolerance="10.0"
     gridtolerance="10.0"
     guidetolerance="10.0"
     inkscape:pageshadow="2"
     inkscape:pageopacity="0.0"
     inkscape:pagecheckerboard="0"
     inkscape:document-units="mm"
     showgrid="false"
     fit-margin-top="0"
     fit-margin-left="0"
     fit-margin-right="0"
     fit-margin-bottom="0"
     inkscape:zoom="0.94875842"
     inkscape:cx="-9.4860818"
     inkscape:cy="186.03261"
     inkscape:window-width="3840"
     inkscape:window-height="2066"
     inkscape:window-x="2869"
     inkscape:window-y="-11"
     inkscape:window-maximized="1"
     inkscape:current-layer="layer1" />
  <defs
     id="defs48279">
    <clipPath
       clipPathUnits="userSpaceOnUse"
       id="clipPath2172">
      <path
         d="m 547.527,421.031 h 16.541 v -5.423 h -16.541 z"
         id="path2170" />
    </clipPath>
    <clipPath
       clipPathUnits="userSpaceOnUse"
       id="clipPath2188">
      <path
         d="m 543.383,392.34 h 14.125 v -5.461 h -14.125 z"
         id="path2186" />
    </clipPath>
    <clipPath
       clipPathUnits="userSpaceOnUse"
       id="clipPath2248">
      <path
         d="m 544.828,420.276 h 2.324 v -1.421 h -2.324 z"
         id="path2246" />
    </clipPath>
    <clipPath
       clipPathUnits="userSpaceOnUse"
       id="clipPath2264">
      <path
         d="m 548.426,439.665 h 15.809 v -16.738 h -15.809 z"
         id="path2262" />
    </clipPath>
    <clipPath
       clipPathUnits="userSpaceOnUse"
       id="clipPath2588">
      <path
         d="m 540.436,405.08 h 20.14 v -18.547 h -20.14 z"
         id="path2586" />
    </clipPath>
  </defs>
  <g
     inkscape:label="Layer 1"
     inkscape:groupmode="layer"
     id="layer1"
     transform="translate(-107.60214,-99.32536)">
    <g
       id="g4870"
       transform="matrix(0.35277777,0,0,-0.35277777,113.27269,114.07641)">
      <path
         d="m 0,0 c 10.861,5.105 19.332,13.685 19.332,19.115 0,7.06 -4.452,9.992 -9.232,9.992 -3.04,0 -6.299,-0.543 -9.991,-1.846 C 0.109,18.246 0.109,8.906 0,0 m -16.074,-37.143 c 0.979,18.029 1.413,36.057 1.413,54.086 0,6.408 0,12.815 -0.109,19.223 7.819,3.693 16.942,5.648 24.87,5.648 11.947,0 22.482,-7.82 22.482,-23.242 0,-9.774 -8.471,-18.354 -18.137,-24.653 6.843,-8.58 13.794,-18.03 20.201,-27.26 L 24.22,-41.053 c -6.517,9.775 -15.097,21.179 -24.545,33.668 -0.218,-10.1 -0.543,-21.069 -0.978,-31.387 z"
         style="fill:#ffaa22;fill-opacity:1;fill-rule:nonzero;stroke:none"
         id="path4872" />
    </g>
    <g
       id="g11293"
       transform="translate(23.504661,38.671658)">
      <g
         id="g2162"
         transform="matrix(0.35277777,0,0,-0.35277777,110.1734,90.224586)">
        <path
           d="m 0,0 c -2.427,-4.483 -11.852,-5.498 -18.013,-3.41 -1.306,0.442 -2.463,1.026 -3.378,1.744 -0.502,0.391 -0.932,0.829 -1.271,1.303 -3.884,5.427 0.789,13.225 2.293,15.704 0.477,0.789 0.923,1.662 1.326,2.585 0.343,0.782 0.655,1.595 0.931,2.42 0.734,2.194 1.224,4.467 1.37,6.385 0.13,1.725 -0.016,3.162 -0.505,4.01 l 15.708,-0.994 c 0,0 0.355,-1.859 0.833,-4.428 0.58,-3.126 1.341,-7.294 1.854,-10.416 C 2.025,9.563 1.993,3.682 0,0"
           style="fill:#ed8037;fill-opacity:1;fill-rule:nonzero;stroke:none"
           id="path2164" />
      </g>
      <g
         id="g2166"
         transform="matrix(0.35277777,0,0,-0.35277777,-89.066312,227.90994)">
        <g
           id="g2168" />
        <g
           id="g2180">
          <g
             clip-path="url(#clipPath2172)"
             opacity="0.300003"
             id="g2178">
            <g
               transform="translate(564.0676,415.6078)"
               id="g2176">
              <path
                 d="m 0,0 c -5.301,2.186 -14.481,1.587 -14.481,1.587 -0.264,-0.304 -1.117,-0.233 -1.555,-0.174 0.13,1.725 -0.015,3.161 -0.505,4.01 L -0.833,4.428 c 0,0 0.355,-1.859 0.833,-4.428"
                 style="fill:#ed8037;fill-opacity:1;fill-rule:nonzero;stroke:none"
                 id="path2174" />
            </g>
          </g>
        </g>
      </g>
      <g
         id="g2182"
         transform="matrix(0.35277777,0,0,-0.35277777,-89.066312,227.90994)">
        <g
           id="g2184" />
        <g
           id="g2196">
          <g
             clip-path="url(#clipPath2188)"
             opacity="0.300003"
             id="g2194">
            <g
               transform="translate(557.5081,388.1265)"
               id="g2192">
              <path
                 d="m 0,0 c 0,0 -2.419,-0.446 -2.092,-0.205 0.324,0.244 0.401,1.416 -0.566,1.842 -0.962,0.43 -3.248,-0.453 -5.245,-1.661 -1.007,-0.608 -1.98,-1.053 -2.844,-1.223 -1.306,0.442 -2.463,1.026 -3.379,1.744 0.012,0.028 0.024,0.052 0.032,0.071 0.123,0.245 1.997,1.109 2.514,1.441 0.521,0.331 1.603,0.927 2.049,1.2 0.446,0.272 2.17,0.69 3.181,0.88 1.014,0.189 2.857,0.106 2.857,0.106 0,0 2.198,-1.16 2.4,-1.282 C -0.896,2.786 0,0 0,0"
                 style="fill:#ed8037;fill-opacity:1;fill-rule:nonzero;stroke:none"
                 id="path2190" />
            </g>
          </g>
        </g>
      </g>
      <g
         id="g2198"
         transform="matrix(0.35277777,0,0,-0.35277777,111.38276,79.550201)">
        <path
           d="m 0,0 c 2.098,1.788 1.485,6.89 1.613,6.99 2.435,1.904 4.187,4.355 5.08,5.364 -2.364,0.195 -4.746,0.183 -7.108,-0.038 -2.551,4.103 -6.617,7.239 -11.233,8.666 0.66,1.809 1.163,3.675 1.501,5.571 -4.978,-2.471 -10.829,-6.583 -15.225,-9.983 l 2.635,-5.679 0.946,-2.962 -0.479,-6.71 -0.487,-2.331 1.431,-1.24 7.43,3.728 10.773,0.95 1.849,-1.722"
           style="fill:#ed8037;fill-opacity:1;fill-rule:nonzero;stroke:none"
           id="path2200" />
      </g>
      <g
         id="g2202"
         transform="matrix(0.35277777,0,0,-0.35277777,103.6372,80.55142)">
        <path
           d="m 0,0 c 4.796,1.333 9.925,0.979 14.78,-0.122 1.672,-0.379 3.414,-0.897 4.591,-2.145 -0.27,0.741 -0.54,1.482 -0.811,2.223 0.668,-0.026 1.329,-0.184 1.937,-0.46 -0.023,0.45 -0.1,0.898 -0.229,1.331 1.291,-0.153 2.546,-0.593 3.65,-1.279 C 23.791,0.33 23.456,1.077 22.955,1.691 22.97,3.203 23.099,5.214 22.376,6.542 21.743,7.704 20.607,8.538 19.365,8.997 18.124,9.456 16.78,9.569 15.457,9.544 9.303,9.433 3.277,6.276 -0.318,1.279"
           style="fill:#ffffff;fill-opacity:1;fill-rule:nonzero;stroke:none"
           id="path2204" />
      </g>
      <g
         id="g2206"
         transform="matrix(0.35277777,0,0,-0.35277777,103.15344,80.306169)">
        <path
           d="m 0,0 c 1.594,2.162 2.942,4.434 3.761,7.752 0.995,4.029 -0.41,9.097 -4.42,10.688 -2.53,1.003 -4.313,0.512 -4.702,0.351 0,0 1.94,-1.46 2.624,-3.975 -0.93,0.336 -2.642,0.742 -3.505,0.305 2.216,-1.702 3.844,-4.105 4.819,-6.723 0.975,-2.618 1.316,-5.445 1.224,-8.237"
           style="fill:#ffffff;fill-opacity:1;fill-rule:nonzero;stroke:none"
           id="path2208" />
      </g>
      <g
         id="g2210"
         transform="matrix(0.35277777,0,0,-0.35277777,103.47087,75.808041)">
        <path
           d="M 0,0 C -0.237,-0.379 -0.246,-0.902 -0.002,-1.278 0.485,-2.028 1.513,-2.022 2.002,-1.135 2.246,-0.693 2.21,-0.356 1.872,0.02 1.681,0.233 1.419,0.374 1.143,0.451 0.642,0.59 0.227,0.363 0,0"
           style="fill:#3f1e0e;fill-opacity:1;fill-rule:nonzero;stroke:none"
           id="path2212" />
      </g>
      <g
         id="g2214"
         transform="matrix(0.35277777,0,0,-0.35277777,103.51479,75.877079)">
        <path
           d="m 0,0 c -0.083,-0.132 -0.086,-0.315 -0.001,-0.446 0.17,-0.262 0.54,-0.35 0.711,-0.04 0.085,0.154 0.062,0.362 -0.056,0.493 C 0.587,0.082 0.495,0.131 0.399,0.157 0.224,0.206 0.079,0.127 0,0"
           style="fill:#ffffff;fill-opacity:1;fill-rule:nonzero;stroke:none"
           id="path2216" />
      </g>
      <g
         id="g2218"
         transform="matrix(0.35277777,0,0,-0.35277777,108.07846,78.045004)">
        <path
           d="M 0,0 C -0.237,-0.379 -0.246,-0.902 -0.002,-1.278 0.486,-2.028 1.513,-2.022 2.002,-1.135 2.246,-0.693 2.21,-0.356 1.872,0.02 1.681,0.233 1.419,0.374 1.143,0.451 0.642,0.59 0.227,0.363 0,0"
           style="fill:#3f1e0e;fill-opacity:1;fill-rule:nonzero;stroke:none"
           id="path2220" />
      </g>
      <g
         id="g2222"
         transform="matrix(0.35277777,0,0,-0.35277777,108.12239,78.114043)">
        <path
           d="m 0,0 c -0.083,-0.132 -0.086,-0.315 -0.001,-0.446 0.17,-0.262 0.54,-0.35 0.711,-0.04 0.085,0.154 0.062,0.362 -0.056,0.493 C 0.587,0.081 0.496,0.131 0.399,0.157 0.224,0.206 0.079,0.127 0,0"
           style="fill:#ffffff;fill-opacity:1;fill-rule:nonzero;stroke:none"
           id="path2224" />
      </g>
      <g
         id="g2226"
         transform="matrix(0.35277777,0,0,-0.35277777,106.44997,71.456421)">
        <path
           d="m 0,0 c -0.708,-0.599 -1.416,-1.197 -2.124,-1.796 0.878,-0.094 1.755,-0.188 2.632,-0.283 0.035,-0.003 0.072,-0.006 0.101,0.014 0.033,0.023 0.041,0.068 0.047,0.109 C 0.789,-0.989 1.611,0.771 2.2,1.549 1.9,1.429 0.247,0.209 0,0"
           style="fill:#ffc783;fill-opacity:1;fill-rule:nonzero;stroke:none"
           id="path2228" />
      </g>
      <g
         id="g2230"
         transform="matrix(0.35277777,0,0,-0.35277777,111.48499,75.768529)">
        <path
           d="M 0,0 C 0.389,-0.807 0.508,-1.329 0.783,-1.921 1.881,-1.408 3.484,-0.003 4.49,0.674 3.485,0.699 1.644,0.497 0,0"
           style="fill:#ffc783;fill-opacity:1;fill-rule:nonzero;stroke:none"
           id="path2232" />
      </g>
      <g
         id="g2234"
         transform="matrix(0.35277777,0,0,-0.35277777,104.25072,80.001757)">
        <path
           d="m 0,0 c -0.491,0.358 -1.025,0.651 -1.571,0.915 -0.275,0.133 -0.553,0.258 -0.832,0.381 -0.325,0.143 -0.825,0.402 -1.116,0.063 -0.426,-0.497 -0.198,-1.367 -0.152,-1.951 0.053,-0.679 0.105,-1.637 0.785,-2.013 0.221,-0.122 0.483,-0.152 0.734,-0.123 0.333,0.038 0.645,0.172 0.95,0.304 0.484,0.21 0.969,0.421 1.426,0.686 0.292,0.17 0.604,0.419 0.598,0.757 C 0.818,-0.714 0.612,-0.497 0.41,-0.324 0.277,-0.21 0.14,-0.102 0,0"
           style="fill:#77451c;fill-opacity:1;fill-rule:nonzero;stroke:none"
           id="path2236" />
      </g>
      <g
         id="g2238"
         transform="matrix(0.35277777,0,0,-0.35277777,105.49895,79.79965)">
        <path
           d="M 0,0 C 0.418,-1.044 2.11,-0.602 1.817,0.521 1.78,0.661 1.59,0.619 1.578,0.488 1.498,-0.328 0.665,-0.68 0.169,0.071 0.115,0.153 -0.041,0.103 0,0"
           style="fill:#353c44;fill-opacity:1;fill-rule:nonzero;stroke:none"
           id="path2240" />
      </g>
      <g
         id="g2242"
         transform="matrix(0.35277777,0,0,-0.35277777,-89.066312,227.90994)">
        <g
           id="g2244" />
        <g
           id="g2256">
          <g
             clip-path="url(#clipPath2248)"
             opacity="0.5"
             id="g2254">
            <g
               transform="translate(546.9031,419.558)"
               id="g2252">
              <path
                 d="M 0,0 C -0.006,0.005 -0.012,0.01 -0.018,0.014 -0.384,0.295 -1.37,0.931 -1.876,0.647 -2.37,0.37 -1.821,-0.202 -1.564,-0.423 -0.984,-0.925 0.924,-0.732 0,0"
                 style="fill:#77451c;fill-opacity:1;fill-rule:nonzero;stroke:none"
                 id="path2250" />
            </g>
          </g>
        </g>
      </g>
      <g
         id="g2258"
         transform="matrix(0.35277777,0,0,-0.35277777,-89.066312,227.90994)">
        <g
           id="g2260" />
        <g
           id="g2428">
          <g
             clip-path="url(#clipPath2264)"
             opacity="0.5"
             id="g2426">
            <g
               transform="translate(548.5361,422.9553)"
               id="g2268">
              <path
                 d="M 0,0 C 0.179,0.301 0.391,0.57 0.615,0.838 0.657,0.889 0.59,0.959 0.54,0.912 0.272,0.659 0.078,0.38 -0.102,0.06 -0.139,-0.007 -0.039,-0.065 0,0"
                 style="fill:#dd6819;fill-opacity:1;fill-rule:nonzero;stroke:none"
                 id="path2266" />
            </g>
            <g
               transform="translate(550.2505,424.6298)"
               id="g2272">
              <path
                 d="M 0,0 C 0.247,0.313 0.518,0.597 0.782,0.895 0.833,0.952 0.756,1.029 0.699,0.978 0.402,0.716 0.146,0.409 -0.1,0.1 -0.156,0.029 -0.056,-0.071 0,0"
                 style="fill:#dd6819;fill-opacity:1;fill-rule:nonzero;stroke:none"
                 id="path2270" />
            </g>
            <g
               transform="translate(549.8867,425.5384)"
               id="g2276">
              <path
                 d="M 0,0 C 0.323,0.454 0.682,0.88 1.019,1.323 1.057,1.373 0.977,1.43 0.935,1.388 0.533,0.992 0.195,0.535 -0.131,0.076 -0.187,-0.003 -0.056,-0.079 0,0"
                 style="fill:#dd6819;fill-opacity:1;fill-rule:nonzero;stroke:none"
                 id="path2274" />
            </g>
            <g
               transform="translate(550.994,426.1184)"
               id="g2280">
              <path
                 d="M 0,0 C 0.215,0.324 0.442,0.641 0.67,0.957 0.696,0.992 0.639,1.035 0.61,1.003 0.342,0.707 0.111,0.397 -0.109,0.063 -0.153,-0.004 -0.045,-0.067 0,0"
                 style="fill:#dd6819;fill-opacity:1;fill-rule:nonzero;stroke:none"
                 id="path2278" />
            </g>
            <g
               transform="translate(552.5381,427.1338)"
               id="g2284">
              <path
                 d="M 0,0 C 0.361,0.36 0.722,0.717 1.068,1.091 1.104,1.13 1.049,1.184 1.01,1.149 0.634,0.806 0.273,0.447 -0.089,0.089 -0.146,0.032 -0.057,-0.057 0,0"
                 style="fill:#dd6819;fill-opacity:1;fill-rule:nonzero;stroke:none"
                 id="path2282" />
            </g>
            <g
               transform="translate(551.8204,429.297)"
               id="g2288">
              <path
                 d="M 0,0 C 0.423,0.433 0.858,0.857 1.255,1.314 1.292,1.356 1.235,1.414 1.193,1.375 0.748,0.966 0.336,0.52 -0.085,0.085 -0.139,0.03 -0.054,-0.056 0,0"
                 style="fill:#dd6819;fill-opacity:1;fill-rule:nonzero;stroke:none"
                 id="path2286" />
            </g>
            <g
               transform="translate(552.3032,428.3131)"
               id="g2292">
              <path
                 d="M 0,0 C 0.198,0.286 0.427,0.538 0.654,0.8 0.699,0.852 0.632,0.917 0.58,0.874 0.299,0.645 0.08,0.37 -0.128,0.075 -0.184,-0.003 -0.054,-0.078 0,0"
                 style="fill:#dd6819;fill-opacity:1;fill-rule:nonzero;stroke:none"
                 id="path2290" />
            </g>
            <g
               transform="translate(551.1547,428.0119)"
               id="g2296">
              <path
                 d="M 0,0 C 0.143,0.227 0.317,0.425 0.491,0.629 0.527,0.672 0.479,0.75 0.425,0.713 0.177,0.544 0.012,0.34 -0.151,0.088 -0.211,-0.007 -0.06,-0.095 0,0"
                 style="fill:#dd6819;fill-opacity:1;fill-rule:nonzero;stroke:none"
                 id="path2294" />
            </g>
            <g
               transform="translate(551.7766,430.767)"
               id="g2300">
              <path
                 d="M 0,0 C 0.242,0.484 0.494,0.963 0.698,1.465 0.717,1.513 0.641,1.542 0.616,1.5 0.342,1.038 0.115,0.552 -0.122,0.071 -0.162,-0.01 -0.041,-0.081 0,0"
                 style="fill:#dd6819;fill-opacity:1;fill-rule:nonzero;stroke:none"
                 id="path2298" />
            </g>
            <g
               transform="translate(552.6244,431.2395)"
               id="g2304">
              <path
                 d="M 0,0 C 0.234,0.319 0.501,0.59 0.765,0.883 0.827,0.953 0.734,1.042 0.663,0.985 0.348,0.73 0.096,0.409 -0.139,0.082 -0.2,-0.003 -0.061,-0.083 0,0"
                 style="fill:#dd6819;fill-opacity:1;fill-rule:nonzero;stroke:none"
                 id="path2302" />
            </g>
            <g
               transform="translate(553.7328,430.6559)"
               id="g2308">
              <path
                 d="M 0,0 C 0.187,0.183 0.376,0.362 0.548,0.561 0.598,0.618 0.522,0.693 0.464,0.644 0.263,0.476 0.081,0.289 -0.105,0.105 -0.173,0.038 -0.068,-0.067 0,0"
                 style="fill:#dd6819;fill-opacity:1;fill-rule:nonzero;stroke:none"
                 id="path2306" />
            </g>
            <g
               transform="translate(554.44,429.545)"
               id="g2312">
              <path
                 d="M 0,0 C 0.29,0.233 0.586,0.46 0.861,0.71 0.902,0.747 0.848,0.819 0.802,0.787 0.494,0.569 0.204,0.327 -0.091,0.091 -0.155,0.039 -0.064,-0.051 0,0"
                 style="fill:#dd6819;fill-opacity:1;fill-rule:nonzero;stroke:none"
                 id="path2310" />
            </g>
            <g
               transform="translate(555.6816,431.8905)"
               id="g2316">
              <path
                 d="M 0,0 C 0.286,0.218 0.583,0.427 0.853,0.665 0.901,0.707 0.838,0.789 0.785,0.754 0.488,0.56 0.212,0.334 -0.07,0.12 -0.14,0.066 -0.071,-0.054 0,0"
                 style="fill:#dd6819;fill-opacity:1;fill-rule:nonzero;stroke:none"
                 id="path2314" />
            </g>
            <g
               transform="translate(557.407,431.6839)"
               id="g2320">
              <path
                 d="M 0,0 C 0.246,0.174 0.496,0.343 0.729,0.533 0.784,0.577 0.713,0.666 0.655,0.63 0.404,0.474 0.168,0.294 -0.071,0.122 -0.144,0.069 -0.074,-0.053 0,0"
                 style="fill:#dd6819;fill-opacity:1;fill-rule:nonzero;stroke:none"
                 id="path2318" />
            </g>
            <g
               transform="translate(554.9742,430.6602)"
               id="g2324">
              <path
                 d="M 0,0 C 0.175,0.199 0.367,0.371 0.56,0.55 0.61,0.597 0.544,0.687 0.485,0.647 0.261,0.493 0.076,0.308 -0.103,0.103 -0.165,0.033 -0.062,-0.071 0,0"
                 style="fill:#dd6819;fill-opacity:1;fill-rule:nonzero;stroke:none"
                 id="path2322" />
            </g>
            <g
               transform="translate(555.7731,433.1809)"
               id="g2328">
              <path
                 d="M 0,0 C 0.212,0.249 0.441,0.479 0.664,0.718 0.695,0.751 0.652,0.815 0.612,0.784 0.346,0.581 0.123,0.349 -0.096,0.096 -0.153,0.03 -0.057,-0.067 0,0"
                 style="fill:#dd6819;fill-opacity:1;fill-rule:nonzero;stroke:none"
                 id="path2326" />
            </g>
            <g
               transform="translate(554.5373,433.6694)"
               id="g2332">
              <path
                 d="M 0,0 C 0.208,0.207 0.421,0.41 0.615,0.63 0.668,0.691 0.587,0.773 0.526,0.719 0.306,0.525 0.104,0.311 -0.103,0.103 -0.17,0.037 -0.067,-0.067 0,0"
                 style="fill:#dd6819;fill-opacity:1;fill-rule:nonzero;stroke:none"
                 id="path2330" />
            </g>
            <g
               transform="translate(554.2255,432.1266)"
               id="g2336">
              <path
                 d="M 0,0 C 0.149,0.197 0.302,0.387 0.425,0.601 0.456,0.653 0.384,0.71 0.341,0.666 0.163,0.485 0.017,0.281 -0.137,0.08 -0.199,-0.001 -0.061,-0.081 0,0"
                 style="fill:#dd6819;fill-opacity:1;fill-rule:nonzero;stroke:none"
                 id="path2334" />
            </g>
            <g
               transform="translate(553.2067,433.8797)"
               id="g2340">
              <path
                 d="M 0,0 C 0.298,0.427 0.623,0.832 0.942,1.244 0.981,1.295 0.917,1.365 0.869,1.317 0.496,0.935 0.179,0.511 -0.122,0.071 -0.173,-0.004 -0.052,-0.074 0,0"
                 style="fill:#dd6819;fill-opacity:1;fill-rule:nonzero;stroke:none"
                 id="path2338" />
            </g>
            <g
               transform="translate(554.6381,434.6287)"
               id="g2344">
              <path
                 d="M 0,0 C 0.175,0.29 0.398,0.508 0.646,0.734 0.697,0.78 0.632,0.862 0.573,0.829 0.263,0.649 0.044,0.386 -0.137,0.08 -0.19,-0.008 -0.053,-0.088 0,0"
                 style="fill:#dd6819;fill-opacity:1;fill-rule:nonzero;stroke:none"
                 id="path2342" />
            </g>
            <g
               transform="translate(555.4027,436.6071)"
               id="g2348">
              <path
                 d="M 0,0 C 0.223,0.3 0.476,0.566 0.734,0.836 0.776,0.879 0.719,0.962 0.668,0.923 0.352,0.684 0.097,0.397 -0.137,0.08 -0.198,-0.002 -0.06,-0.081 0,0"
                 style="fill:#dd6819;fill-opacity:1;fill-rule:nonzero;stroke:none"
                 id="path2346" />
            </g>
            <g
               transform="translate(553.1368,432.6225)"
               id="g2352">
              <path
                 d="M 0,0 C 0.163,0.235 0.328,0.467 0.47,0.716 0.508,0.783 0.412,0.865 0.359,0.801 0.172,0.575 0.009,0.333 -0.157,0.092 -0.224,-0.005 -0.066,-0.096 0,0"
                 style="fill:#dd6819;fill-opacity:1;fill-rule:nonzero;stroke:none"
                 id="path2350" />
            </g>
            <g
               transform="translate(557.1253,437.0237)"
               id="g2356">
              <path
                 d="M 0,0 C 0.16,0.215 0.336,0.374 0.539,0.543 0.59,0.585 0.524,0.666 0.469,0.633 0.223,0.489 0.042,0.302 -0.128,0.075 -0.186,-0.001 -0.057,-0.076 0,0"
                 style="fill:#dd6819;fill-opacity:1;fill-rule:nonzero;stroke:none"
                 id="path2354" />
            </g>
            <g
               transform="translate(556.7278,435.7751)"
               id="g2360">
              <path
                 d="M 0,0 C 0.179,0.219 0.378,0.392 0.594,0.572 0.65,0.619 0.578,0.71 0.516,0.673 0.268,0.523 0.077,0.331 -0.105,0.105 -0.165,0.031 -0.061,-0.074 0,0"
                 style="fill:#dd6819;fill-opacity:1;fill-rule:nonzero;stroke:none"
                 id="path2358" />
            </g>
            <g
               transform="translate(556.4489,434.7289)"
               id="g2364">
              <path
                 d="M 0,0 C 0.171,0.181 0.334,0.366 0.49,0.56 0.53,0.609 0.468,0.674 0.419,0.631 0.235,0.465 0.058,0.293 -0.112,0.112 -0.183,0.038 -0.071,-0.074 0,0"
                 style="fill:#dd6819;fill-opacity:1;fill-rule:nonzero;stroke:none"
                 id="path2362" />
            </g>
            <g
               transform="translate(557.9575,434.2504)"
               id="g2368">
              <path
                 d="M 0,0 C 0.186,0.192 0.374,0.38 0.546,0.583 0.598,0.645 0.517,0.728 0.457,0.672 0.262,0.49 0.083,0.294 -0.1,0.1 -0.162,0.034 -0.063,-0.065 0,0"
                 style="fill:#dd6819;fill-opacity:1;fill-rule:nonzero;stroke:none"
                 id="path2366" />
            </g>
            <g
               transform="translate(559.8143,433.8651)"
               id="g2372">
              <path
                 d="M 0,0 C 0.256,0.224 0.53,0.408 0.807,0.602 0.867,0.644 0.815,0.737 0.748,0.702 0.438,0.54 0.169,0.324 -0.091,0.091 -0.152,0.035 -0.062,-0.054 0,0"
                 style="fill:#dd6819;fill-opacity:1;fill-rule:nonzero;stroke:none"
                 id="path2370" />
            </g>
            <g
               transform="translate(561.5515,434.238)"
               id="g2376">
              <path
                 d="M 0,0 C 0.295,0.176 0.604,0.311 0.916,0.453 0.976,0.48 0.933,0.577 0.872,0.558 0.537,0.456 0.233,0.293 -0.065,0.111 -0.135,0.068 -0.071,-0.042 0,0"
                 style="fill:#dd6819;fill-opacity:1;fill-rule:nonzero;stroke:none"
                 id="path2374" />
            </g>
            <g
               transform="translate(557.8394,432.8557)"
               id="g2380">
              <path
                 d="M 0,0 C 0.244,0.201 0.493,0.397 0.718,0.619 0.766,0.667 0.702,0.757 0.643,0.716 0.378,0.531 0.137,0.318 -0.111,0.111 -0.188,0.046 -0.077,-0.064 0,0"
                 style="fill:#dd6819;fill-opacity:1;fill-rule:nonzero;stroke:none"
                 id="path2378" />
            </g>
            <g
               transform="translate(560.8254,435.6841)"
               id="g2384">
              <path
                 d="M 0,0 C 0.242,0.131 0.495,0.249 0.716,0.413 0.765,0.449 0.739,0.545 0.671,0.521 0.405,0.425 0.163,0.279 -0.085,0.146 -0.182,0.095 -0.096,-0.052 0,0"
                 style="fill:#dd6819;fill-opacity:1;fill-rule:nonzero;stroke:none"
                 id="path2382" />
            </g>
            <g
               transform="translate(559.4541,436.4621)"
               id="g2388">
              <path
                 d="M 0,0 C 0.321,0.236 0.631,0.46 0.921,0.733 0.961,0.77 0.91,0.834 0.864,0.807 0.526,0.614 0.223,0.385 -0.089,0.153 -0.179,0.086 -0.092,-0.068 0,0"
                 style="fill:#dd6819;fill-opacity:1;fill-rule:nonzero;stroke:none"
                 id="path2386" />
            </g>
            <g
               transform="translate(559.7188,438.0658)"
               id="g2392">
              <path
                 d="M 0,0 C 0.214,0.142 0.429,0.277 0.629,0.438 0.685,0.482 0.614,0.564 0.556,0.532 0.336,0.413 0.132,0.27 -0.076,0.131 -0.157,0.077 -0.082,-0.054 0,0"
                 style="fill:#dd6819;fill-opacity:1;fill-rule:nonzero;stroke:none"
                 id="path2390" />
            </g>
            <g
               transform="translate(558.3719,436.6778)"
               id="g2396">
              <path
                 d="M 0,0 C 0.126,0.109 0.248,0.215 0.365,0.333 0.418,0.386 0.347,0.487 0.283,0.44 0.143,0.339 0.014,0.23 -0.118,0.118 -0.2,0.049 -0.081,-0.07 0,0"
                 style="fill:#dd6819;fill-opacity:1;fill-rule:nonzero;stroke:none"
                 id="path2394" />
            </g>
            <g
               transform="translate(558.8555,435.1247)"
               id="g2400">
              <path
                 d="M 0,0 C 0.202,0.163 0.4,0.316 0.569,0.514 0.608,0.559 0.559,0.629 0.504,0.598 0.27,0.47 0.073,0.301 -0.132,0.132 -0.226,0.056 -0.093,-0.075 0,0"
                 style="fill:#dd6819;fill-opacity:1;fill-rule:nonzero;stroke:none"
                 id="path2398" />
            </g>
            <g
               transform="translate(557.5437,438.9037)"
               id="g2404">
              <path
                 d="M 0,0 C 0.201,0.263 0.446,0.46 0.72,0.644 0.773,0.68 0.741,0.784 0.672,0.756 0.323,0.613 0.072,0.39 -0.155,0.091 -0.225,-0.002 -0.069,-0.09 0,0"
                 style="fill:#dd6819;fill-opacity:1;fill-rule:nonzero;stroke:none"
                 id="path2402" />
            </g>
            <g
               transform="translate(558.4901,438.7166)"
               id="g2408">
              <path
                 d="M 0,0 C 0.248,0.205 0.511,0.392 0.764,0.592 0.825,0.641 0.747,0.72 0.686,0.693 0.372,0.551 0.116,0.365 -0.147,0.147 -0.25,0.062 -0.102,-0.085 0,0"
                 style="fill:#dd6819;fill-opacity:1;fill-rule:nonzero;stroke:none"
                 id="path2406" />
            </g>
            <g
               transform="translate(561.2736,437.7686)"
               id="g2412">
              <path
                 d="M 0,0 C 0.219,0.198 0.448,0.307 0.72,0.415 0.775,0.437 0.774,0.53 0.705,0.526 0.364,0.51 0.11,0.367 -0.138,0.138 -0.23,0.052 -0.093,-0.084 0,0"
                 style="fill:#dd6819;fill-opacity:1;fill-rule:nonzero;stroke:none"
                 id="path2410" />
            </g>
            <g
               transform="translate(562.5148,437.0008)"
               id="g2416">
              <path
                 d="M 0,0 C 0.232,0.107 0.476,0.186 0.718,0.269 0.778,0.289 0.773,0.393 0.702,0.387 0.41,0.365 0.171,0.282 -0.091,0.155 -0.195,0.104 -0.104,-0.048 0,0"
                 style="fill:#dd6819;fill-opacity:1;fill-rule:nonzero;stroke:none"
                 id="path2414" />
            </g>
            <g
               transform="translate(562.1211,435.3639)"
               id="g2420">
              <path
                 d="M 0,0 C 0.382,0.175 0.766,0.343 1.132,0.551 1.168,0.571 1.144,0.633 1.103,0.619 0.704,0.471 0.324,0.286 -0.061,0.104 -0.131,0.071 -0.07,-0.032 0,0"
                 style="fill:#dd6819;fill-opacity:1;fill-rule:nonzero;stroke:none"
                 id="path2418" />
            </g>
            <g
               transform="translate(563.4828,435.1177)"
               id="g2424">
              <path
                 d="M 0,0 C 0.243,0.13 0.491,0.253 0.722,0.403 0.791,0.448 0.731,0.545 0.658,0.512 0.407,0.399 0.169,0.257 -0.073,0.124 -0.154,0.079 -0.081,-0.044 0,0"
                 style="fill:#dd6819;fill-opacity:1;fill-rule:nonzero;stroke:none"
                 id="path2422" />
            </g>
          </g>
        </g>
      </g>
      <g
         id="g2430"
         transform="matrix(0.35277777,0,0,-0.35277777,108.47569,80.28793)">
        <path
           d="M 0,0 C 0.554,0.004 1.094,-0.082 1.645,-0.112 1.697,-0.115 1.704,-0.038 1.657,-0.024 1.121,0.138 0.555,0.133 0,0.105 -0.067,0.102 -0.068,0 0,0"
           style="fill:#ffe3c5;fill-opacity:1;fill-rule:nonzero;stroke:none"
           id="path2432" />
      </g>
      <g
         id="g2434"
         transform="matrix(0.35277777,0,0,-0.35277777,108.92104,80.474514)">
        <path
           d="m 0,0 c 0.368,-0.113 0.735,-0.238 1.113,-0.314 0.094,-0.019 0.13,0.111 0.04,0.143 C 0.79,-0.041 0.411,0.041 0.037,0.136 -0.051,0.158 -0.087,0.026 0,0"
           style="fill:#ffe3c5;fill-opacity:1;fill-rule:nonzero;stroke:none"
           id="path2436" />
      </g>
      <g
         id="g2438"
         transform="matrix(0.35277777,0,0,-0.35277777,109.07626,80.030085)">
        <path
           d="M 0,0 C 0.252,-0.115 0.504,-0.226 0.772,-0.294 0.861,-0.316 0.889,-0.193 0.809,-0.16 0.565,-0.06 0.316,0.022 0.074,0.126 -0.011,0.163 -0.086,0.039 0,0"
           style="fill:#ffe3c5;fill-opacity:1;fill-rule:nonzero;stroke:none"
           id="path2440" />
      </g>
      <g
         id="g2442"
         transform="matrix(0.35277777,0,0,-0.35277777,109.57523,80.438531)">
        <path
           d="M 0,0 C 0.223,-0.087 0.433,-0.194 0.656,-0.279 0.713,-0.301 0.734,-0.221 0.694,-0.19 0.494,-0.038 0.273,0.056 0.041,0.148 -0.051,0.185 -0.092,0.036 0,0"
           style="fill:#ffe3c5;fill-opacity:1;fill-rule:nonzero;stroke:none"
           id="path2444" />
      </g>
      <g
         id="g2446"
         transform="matrix(0.35277777,0,0,-0.35277777,109.79565,79.999852)">
        <path
           d="M 0,0 C 0.363,-0.077 0.689,-0.212 1.033,-0.344 1.093,-0.367 1.15,-0.273 1.098,-0.233 0.783,0.012 0.413,0.109 0.017,0.123 -0.053,0.126 -0.07,0.015 0,0"
           style="fill:#ffe3c5;fill-opacity:1;fill-rule:nonzero;stroke:none"
           id="path2448" />
      </g>
      <g
         id="g2450"
         transform="matrix(0.35277777,0,0,-0.35277777,110.47153,80.310014)">
        <path
           d="M 0,0 C 0.166,-0.108 0.304,-0.199 0.487,-0.27 0.543,-0.291 0.583,-0.212 0.544,-0.174 0.402,-0.036 0.259,0.05 0.091,0.155 -0.008,0.216 -0.096,0.063 0,0"
           style="fill:#ffe3c5;fill-opacity:1;fill-rule:nonzero;stroke:none"
           id="path2452" />
      </g>
      <g
         id="g2454"
         transform="matrix(0.35277777,0,0,-0.35277777,108.84054,79.429622)">
        <path
           d="M 0,0 C 0.377,0.037 0.757,0.08 1.127,0.158 1.193,0.172 1.179,0.283 1.111,0.277 0.734,0.24 0.359,0.166 -0.012,0.088 -0.061,0.078 -0.051,-0.005 0,0"
           style="fill:#ffe3c5;fill-opacity:1;fill-rule:nonzero;stroke:none"
           id="path2456" />
      </g>
      <g
         id="g2458"
         transform="matrix(0.35277777,0,0,-0.35277777,110.49866,79.547238)">
        <path
           d="m 0,0 c 0.146,-0.031 0.281,-0.073 0.422,-0.119 0.053,-0.017 0.09,0.066 0.039,0.091 C 0.317,0.043 0.19,0.083 0.032,0.116 -0.044,0.132 -0.076,0.016 0,0"
           style="fill:#ffe3c5;fill-opacity:1;fill-rule:nonzero;stroke:none"
           id="path2460" />
      </g>
      <g
         id="g2462"
         transform="matrix(0.35277777,0,0,-0.35277777,109.9654,79.678612)">
        <path
           d="M 0,0 C 0.325,-0.045 0.639,-0.125 0.959,-0.193 1.021,-0.206 1.044,-0.12 0.985,-0.099 0.671,0.013 0.344,0.063 0.014,0.101 -0.043,0.107 -0.057,0.008 0,0"
           style="fill:#ffe3c5;fill-opacity:1;fill-rule:nonzero;stroke:none"
           id="path2464" />
      </g>
      <g
         id="g2466"
         transform="matrix(0.35277777,0,0,-0.35277777,110.79697,80.01047)">
        <path
           d="M 0,0 C 0.297,-0.127 0.572,-0.254 0.891,-0.314 0.948,-0.325 0.98,-0.254 0.93,-0.22 0.661,-0.039 0.379,0.063 0.077,0.183 -0.027,0.224 -0.104,0.044 0,0"
           style="fill:#ffe3c5;fill-opacity:1;fill-rule:nonzero;stroke:none"
           id="path2468" />
      </g>
      <g
         id="g2470"
         transform="matrix(0.35277777,0,0,-0.35277777,111.27509,79.869395)">
        <path
           d="M 0,0 C 0.328,-0.234 0.562,-0.53 0.838,-0.817 0.897,-0.878 0.989,-0.8 0.953,-0.728 0.759,-0.347 0.427,-0.101 0.065,0.111 -0.008,0.153 -0.066,0.047 0,0"
           style="fill:#ffe3c5;fill-opacity:1;fill-rule:nonzero;stroke:none"
           id="path2472" />
      </g>
      <g
         id="g2474"
         transform="matrix(0.35277777,0,0,-0.35277777,110.72634,79.072964)">
        <path
           d="M 0,0 C 0.376,-0.189 0.711,-0.426 1.069,-0.643 1.128,-0.678 1.196,-0.594 1.144,-0.546 0.829,-0.257 0.455,-0.062 0.069,0.117 -0.01,0.154 -0.079,0.04 0,0"
           style="fill:#ffe3c5;fill-opacity:1;fill-rule:nonzero;stroke:none"
           id="path2476" />
      </g>
      <g
         id="g2478"
         transform="matrix(0.35277777,0,0,-0.35277777,109.99518,78.959263)">
        <path
           d="m 0,0 c 0.418,-0.128 0.842,-0.261 1.279,-0.296 0.06,-0.005 0.067,0.084 0.014,0.101 C 0.881,-0.067 0.45,0.006 0.034,0.124 -0.046,0.146 -0.079,0.024 0,0"
           style="fill:#ffe3c5;fill-opacity:1;fill-rule:nonzero;stroke:none"
           id="path2480" />
      </g>
      <g
         id="g2482"
         transform="matrix(0.35277777,0,0,-0.35277777,110.7594,79.428528)">
        <path
           d="M 0,0 C 0.231,-0.16 0.451,-0.323 0.707,-0.44 0.772,-0.47 0.851,-0.389 0.789,-0.333 0.575,-0.14 0.334,0.001 0.089,0.153 -0.009,0.214 -0.092,0.064 0,0"
           style="fill:#ffe3c5;fill-opacity:1;fill-rule:nonzero;stroke:none"
           id="path2484" />
      </g>
      <g
         id="g2486"
         transform="matrix(0.35277777,0,0,-0.35277777,109.83692,80.271985)">
        <path
           d="m 0,0 c 0.206,-0.092 0.382,-0.211 0.571,-0.332 0.056,-0.036 0.114,0.044 0.07,0.091 C 0.471,-0.064 0.281,0.037 0.055,0.131 -0.019,0.162 -0.074,0.033 0,0"
           style="fill:#ffe3c5;fill-opacity:1;fill-rule:nonzero;stroke:none"
           id="path2488" />
      </g>
      <g
         id="g2490"
         transform="matrix(0.35277777,0,0,-0.35277777,109.81875,80.766367)">
        <path
           d="M 0,0 C 0.115,-0.077 0.224,-0.151 0.346,-0.215 0.415,-0.252 0.497,-0.158 0.433,-0.103 0.324,-0.007 0.21,0.072 0.091,0.155 -0.004,0.221 -0.096,0.064 0,0"
           style="fill:#ffe3c5;fill-opacity:1;fill-rule:nonzero;stroke:none"
           id="path2492" />
      </g>
      <g
         id="g2494"
         transform="matrix(0.35277777,0,0,-0.35277777,110.92175,78.874597)">
        <path
           d="m 0,0 c 0.336,-0.221 0.604,-0.502 0.913,-0.754 0.049,-0.04 0.139,0.012 0.096,0.075 C 0.774,-0.332 0.42,-0.102 0.057,0.097 -0.007,0.133 -0.06,0.04 0,0"
           style="fill:#ffe3c5;fill-opacity:1;fill-rule:nonzero;stroke:none"
           id="path2496" />
      </g>
      <g
         id="g2498"
         transform="matrix(0.35277777,0,0,-0.35277777,111.29679,79.55066)">
        <path
           d="m 0,0 c 0.126,-0.145 0.211,-0.304 0.34,-0.445 0.042,-0.046 0.113,0.003 0.1,0.059 C 0.391,-0.167 0.272,-0.045 0.107,0.107 0.035,0.174 -0.063,0.073 0,0"
           style="fill:#ffe3c5;fill-opacity:1;fill-rule:nonzero;stroke:none"
           id="path2500" />
      </g>
      <g
         id="g2502"
         transform="matrix(0.35277777,0,0,-0.35277777,109.92607,79.266039)">
        <path
           d="m 0,0 c 0.263,-0.022 0.522,-0.042 0.786,-0.042 0.063,0 0.081,0.102 0.015,0.113 C 0.535,0.116 0.269,0.141 0,0.164 -0.105,0.173 -0.105,0.009 0,0"
           style="fill:#ffe3c5;fill-opacity:1;fill-rule:nonzero;stroke:none"
           id="path2504" />
      </g>
      <g
         id="g2506"
         transform="matrix(0.35277777,0,0,-0.35277777,111.19984,78.301897)">
        <path
           d="m 0,0 c 0.22,-0.177 0.408,-0.378 0.611,-0.572 0.05,-0.048 0.142,0.016 0.1,0.078 C 0.548,-0.252 0.342,-0.068 0.112,0.112 0.033,0.175 -0.08,0.064 0,0"
           style="fill:#ffe3c5;fill-opacity:1;fill-rule:nonzero;stroke:none"
           id="path2508" />
      </g>
      <g
         id="g2510"
         transform="matrix(0.35277777,0,0,-0.35277777,111.62991,79.100269)">
        <path
           d="M 0,0 C 0.044,-0.15 0.085,-0.293 0.144,-0.439 0.181,-0.531 0.315,-0.498 0.294,-0.397 0.264,-0.244 0.219,-0.102 0.173,0.048 0.139,0.158 -0.032,0.112 0,0"
           style="fill:#ffe3c5;fill-opacity:1;fill-rule:nonzero;stroke:none"
           id="path2512" />
      </g>
      <g
         id="g2514"
         transform="matrix(0.35277777,0,0,-0.35277777,101.29525,75.207683)">
        <path
           d="m 0,0 c 0.226,-0.171 0.42,-0.375 0.649,-0.539 0.044,-0.032 0.102,0.03 0.074,0.074 C 0.559,-0.212 0.323,-0.038 0.08,0.137 -0.004,0.198 -0.08,0.061 0,0"
           style="fill:#ffe3c5;fill-opacity:1;fill-rule:nonzero;stroke:none"
           id="path2516" />
      </g>
      <g
         id="g2518"
         transform="matrix(0.35277777,0,0,-0.35277777,101.7248,75.123793)">
        <path
           d="m 0,0 c 0.359,-0.135 0.629,-0.346 0.915,-0.593 0.066,-0.058 0.191,0.02 0.131,0.101 C 0.793,-0.155 0.445,0.051 0.055,0.198 -0.069,0.244 -0.123,0.046 0,0"
           style="fill:#ffe3c5;fill-opacity:1;fill-rule:nonzero;stroke:none"
           id="path2520" />
      </g>
      <g
         id="g2522"
         transform="matrix(0.35277777,0,0,-0.35277777,101.66493,75.368409)">
        <path
           d="M 0,0 C 0.248,-0.198 0.496,-0.398 0.77,-0.559 0.836,-0.597 0.918,-0.499 0.854,-0.45 0.603,-0.256 0.337,-0.083 0.082,0.107 0.021,0.152 -0.06,0.048 0,0"
           style="fill:#ffe3c5;fill-opacity:1;fill-rule:nonzero;stroke:none"
           id="path2524" />
      </g>
      <g
         id="g2526"
         transform="matrix(0.35277777,0,0,-0.35277777,102.11733,75.982172)">
        <path
           d="M 0,0 C 0.251,-0.295 0.436,-0.619 0.638,-0.947 0.677,-1.009 0.791,-0.969 0.763,-0.894 0.617,-0.513 0.375,-0.197 0.1,0.1 0.037,0.167 -0.058,0.068 0,0"
           style="fill:#ffe3c5;fill-opacity:1;fill-rule:nonzero;stroke:none"
           id="path2528" />
      </g>
      <g
         id="g2530"
         transform="matrix(0.35277777,0,0,-0.35277777,102.20009,75.644528)">
        <path
           d="M 0,0 C 0.266,-0.254 0.503,-0.539 0.779,-0.781 0.837,-0.832 0.938,-0.766 0.891,-0.694 0.686,-0.377 0.406,-0.124 0.129,0.129 0.042,0.207 -0.085,0.081 0,0"
           style="fill:#ffe3c5;fill-opacity:1;fill-rule:nonzero;stroke:none"
           id="path2532" />
      </g>
      <g
         id="g2534"
         transform="matrix(0.35277777,0,0,-0.35277777,102.41903,75.347383)">
        <path
           d="M 0,0 C 0.145,-0.131 0.268,-0.273 0.392,-0.424 0.425,-0.463 0.484,-0.413 0.461,-0.371 0.359,-0.19 0.237,-0.057 0.078,0.078 0.024,0.123 -0.053,0.048 0,0"
           style="fill:#ffe3c5;fill-opacity:1;fill-rule:nonzero;stroke:none"
           id="path2536" />
      </g>
      <g
         id="g2538"
         transform="matrix(0.35277777,0,0,-0.35277777,101.78121,73.81908)">
        <path
           d="m 0,0 c 0.277,-0.277 0.549,-0.56 0.844,-0.817 0.055,-0.047 0.131,0.027 0.08,0.08 C 0.653,-0.455 0.357,-0.196 0.067,0.067 0.022,0.108 -0.043,0.043 0,0"
           style="fill:#ffe3c5;fill-opacity:1;fill-rule:nonzero;stroke:none"
           id="path2540" />
      </g>
      <g
         id="g2542"
         transform="matrix(0.35277777,0,0,-0.35277777,102.35599,74.698837)">
        <path
           d="M 0,0 C 0.243,-0.317 0.461,-0.651 0.701,-0.97 0.743,-1.026 0.829,-0.979 0.796,-0.914 0.609,-0.55 0.364,-0.234 0.103,0.079 0.056,0.136 -0.045,0.059 0,0"
           style="fill:#ffe3c5;fill-opacity:1;fill-rule:nonzero;stroke:none"
           id="path2544" />
      </g>
      <g
         id="g2546"
         transform="matrix(0.35277777,0,0,-0.35277777,102.74524,75.914403)">
        <path
           d="M 0,0 C 0.123,-0.255 0.222,-0.517 0.355,-0.768 0.389,-0.833 0.479,-0.786 0.467,-0.721 0.412,-0.419 0.295,-0.183 0.146,0.085 0.093,0.182 -0.047,0.097 0,0"
           style="fill:#ffe3c5;fill-opacity:1;fill-rule:nonzero;stroke:none"
           id="path2548" />
      </g>
      <g
         id="g2550"
         transform="matrix(0.35277777,0,0,-0.35277777,102.53629,76.446392)">
        <path
           d="M 0,0 C 0.145,-0.382 0.239,-0.774 0.357,-1.164 0.383,-1.25 0.531,-1.239 0.521,-1.142 0.477,-0.716 0.333,-0.321 0.162,0.068 0.122,0.159 -0.036,0.094 0,0"
           style="fill:#ffe3c5;fill-opacity:1;fill-rule:nonzero;stroke:none"
           id="path2552" />
      </g>
      <g
         id="g2554"
         transform="matrix(0.35277777,0,0,-0.35277777,101.94486,74.345036)">
        <path
           d="M 0,0 C 0.183,-0.347 0.355,-0.699 0.574,-1.026 0.62,-1.094 0.714,-1.036 0.682,-0.962 0.524,-0.603 0.319,-0.268 0.124,0.073 0.078,0.153 -0.043,0.082 0,0"
           style="fill:#ffe3c5;fill-opacity:1;fill-rule:nonzero;stroke:none"
           id="path2556" />
      </g>
      <g
         id="g2558"
         transform="matrix(0.35277777,0,0,-0.35277777,102.28942,74.13979)">
        <path
           d="m 0,0 c 0.228,-0.199 0.416,-0.425 0.618,-0.65 0.048,-0.053 0.141,0.017 0.1,0.078 C 0.544,-0.308 0.314,-0.107 0.062,0.081 0.016,0.115 -0.044,0.038 0,0"
           style="fill:#ffe3c5;fill-opacity:1;fill-rule:nonzero;stroke:none"
           id="path2560" />
      </g>
      <g
         id="g2562"
         transform="matrix(0.35277777,0,0,-0.35277777,101.88485,73.687952)">
        <path
           d="M 0,0 C 0.418,-0.137 0.819,-0.308 1.229,-0.465 1.275,-0.483 1.306,-0.408 1.263,-0.386 0.867,-0.183 0.448,-0.042 0.024,0.087 -0.032,0.103 -0.055,0.018 0,0"
           style="fill:#ffe3c5;fill-opacity:1;fill-rule:nonzero;stroke:none"
           id="path2564" />
      </g>
      <g
         id="g2566"
         transform="matrix(0.35277777,0,0,-0.35277777,102.65101,73.851112)">
        <path
           d="m 0,0 c 0.315,-0.204 0.578,-0.463 0.829,-0.741 0.03,-0.032 0.082,0.01 0.06,0.047 C 0.684,-0.342 0.41,-0.101 0.066,0.113 -0.006,0.158 -0.07,0.046 0,0"
           style="fill:#ffe3c5;fill-opacity:1;fill-rule:nonzero;stroke:none"
           id="path2568" />
      </g>
      <g
         id="g2570"
         transform="matrix(0.35277777,0,0,-0.35277777,102.58028,74.089343)">
        <path
           d="m 0,0 c 0.196,-0.137 0.388,-0.277 0.594,-0.399 0.079,-0.047 0.138,0.067 0.07,0.119 -0.19,0.146 -0.391,0.274 -0.59,0.406 C -0.005,0.179 -0.076,0.053 0,0"
           style="fill:#ffe3c5;fill-opacity:1;fill-rule:nonzero;stroke:none"
           id="path2572" />
      </g>
      <g
         id="g2574"
         transform="matrix(0.35277777,0,0,-0.35277777,103.22054,74.126243)">
        <path
           d="M 0,0 C 0.172,-0.17 0.333,-0.337 0.531,-0.475 0.562,-0.497 0.607,-0.453 0.584,-0.423 0.438,-0.232 0.263,-0.077 0.087,0.087 0.029,0.141 -0.057,0.056 0,0"
           style="fill:#ffe3c5;fill-opacity:1;fill-rule:nonzero;stroke:none"
           id="path2576" />
      </g>
      <g
         id="g2578"
         transform="matrix(0.35277777,0,0,-0.35277777,107.34451,91.549831)">
        <path
           d="m 0,0 c 6.219,4.427 3.815,13.484 -1.735,16.903 -3.937,2.425 -10.288,1.38 -14.584,0.533 -0.253,-0.05 -0.501,-0.097 -0.744,-0.142 -1.976,-0.364 -4.112,-0.791 -5.97,-0.025 -1.438,0.593 -1.489,2.425 -1.489,2.425 0,0 -4.268,-4.352 -0.561,-11.506 1.816,-3.504 5.096,-6.41 8.997,-7.018 2.215,-0.345 4.505,0.057 6.582,0.901 2.076,0.843 4.037,2.136 6.27,2.319 0.383,0.032 0.783,0.026 1.134,-0.13 0.849,-0.377 2.309,-1.623 0.761,-2.87 0,0 -1.043,-0.562 -0.627,-1.494 C -1.55,-1.035 0,0 0,0"
           style="fill:#ed8037;fill-opacity:1;fill-rule:nonzero;stroke:none"
           id="path2580" />
      </g>
      <g
         id="g2582"
         transform="matrix(0.35277777,0,0,-0.35277777,-89.066312,227.90994)">
        <g
           id="g2584" />
        <g
           id="g2596">
          <g
             clip-path="url(#clipPath2588)"
             opacity="0.300003"
             id="g2594">
            <g
               transform="translate(556.7551,386.5326)"
               id="g2592">
              <path
                 d="M 0,0 C 0,0 0.103,0.089 0.296,0.256 0.484,0.429 0.786,0.657 1.122,0.993 1.41,1.371 1.855,1.751 2.167,2.338 2.539,2.882 2.846,3.565 3.104,4.326 3.34,5.096 3.513,5.962 3.513,6.886 3.514,7.116 3.516,7.35 3.517,7.587 3.491,7.822 3.464,8.061 3.437,8.301 3.405,8.786 3.275,9.266 3.17,9.758 3.056,10.248 2.866,10.727 2.7,11.216 2.469,11.68 2.303,12.183 2.012,12.627 c -0.493,0.939 -1.185,1.772 -1.913,2.554 -0.775,0.736 -1.599,1.433 -2.553,1.902 -0.934,0.466 -1.945,0.748 -2.939,0.922 -1.994,0.34 -3.91,0.279 -5.531,0.155 -1.625,-0.141 -2.975,-0.328 -3.917,-0.478 -0.941,-0.157 -1.478,-0.246 -1.478,-0.246 0,0 0.533,0.113 1.467,0.311 0.936,0.183 2.275,0.458 3.907,0.634 1.627,0.156 3.561,0.296 5.609,-0.038 1.018,-0.17 2.065,-0.45 3.058,-0.936 0.982,-0.474 1.853,-1.192 2.657,-1.949 0.749,-0.814 1.454,-1.681 1.954,-2.652 0.295,-0.461 0.464,-0.98 0.697,-1.459 0.168,-0.506 0.358,-1 0.472,-1.506 C 3.604,9.333 3.739,8.839 3.758,8.337 3.779,8.088 3.8,7.842 3.821,7.599 3.814,7.356 3.807,7.115 3.799,6.877 3.776,5.926 3.576,5.04 3.314,4.256 3.035,3.479 2.688,2.796 2.285,2.26 1.943,1.68 1.47,1.308 1.165,0.943 0.813,0.621 0.503,0.407 0.307,0.243 0.107,0.085 0,0 0,0"
                 style="fill:#ed8037;fill-opacity:1;fill-rule:nonzero;stroke:none"
                 id="path2590" />
            </g>
          </g>
        </g>
      </g>
      <g
         id="g2598"
         transform="matrix(0.35277777,0,0,-0.35277777,98.693835,84.602191)">
        <path
           d="m 0,0 c 0,0 -4.462,-4.389 -0.756,-11.542 1.377,-2.657 3.79,-4.93 6.481,-6.159 0.012,0.013 0.028,0.02 0.037,0.035 0.104,0.163 -0.009,0.38 -0.153,0.508 -0.144,0.129 -0.326,0.228 -0.41,0.402 1.285,-0.263 2.624,-0.261 3.909,0.006 0.748,0.156 1.553,0.463 1.888,1.15 0.317,0.649 0.097,1.457 -0.351,2.022 -0.449,0.566 -1.089,0.942 -1.713,1.304 1.022,-0.097 2.222,-0.124 2.876,0.668 0.409,0.496 0.477,1.214 0.289,1.829 -0.187,0.616 -0.598,1.14 -1.063,1.585 -1.004,0.962 -2.3,1.614 -3.67,1.848 0.44,0.134 0.88,0.268 1.32,0.401 0.237,0.072 0.523,0.209 0.513,0.456 -0.007,0.19 -0.193,0.317 -0.362,0.403 -0.623,0.317 -1.304,0.518 -1.999,0.59 0.673,0.338 1.438,0.813 1.472,1.565 C 8.319,-2.698 8.252,-2.474 8.14,-2.27 7.91,-2.315 7.681,-2.359 7.459,-2.4 5.482,-2.764 3.347,-3.192 1.489,-2.426 0.051,-1.832 0,0 0,0"
           style="fill:#ffffff;fill-opacity:1;fill-rule:nonzero;stroke:none"
           id="path2600" />
      </g>
      <g
         id="g2602"
         transform="matrix(0.35277777,0,0,-0.35277777,107.87985,90.285158)">
        <path
           d="M 0,0 C 0.049,0.164 0.098,0.324 0.136,0.49 0.152,0.559 0.056,0.583 0.032,0.519 -0.028,0.359 -0.077,0.199 -0.126,0.035 -0.15,-0.046 -0.024,-0.081 0,0"
           style="fill:#e07228;fill-opacity:1;fill-rule:nonzero;stroke:none"
           id="path2604" />
      </g>
      <g
         id="g2606"
         transform="matrix(0.35277777,0,0,-0.35277777,108.27934,89.545383)">
        <path
           d="M 0,0 C 0.046,0.393 0.057,0.776 -0.021,1.165 -0.036,1.241 -0.162,1.225 -0.157,1.147 -0.132,0.759 -0.108,0.388 -0.144,0 -0.152,-0.093 -0.01,-0.09 0,0"
           style="fill:#e07228;fill-opacity:1;fill-rule:nonzero;stroke:none"
           id="path2608" />
      </g>
      <g
         id="g2610"
         transform="matrix(0.35277777,0,0,-0.35277777,107.96907,89.43066)">
        <path
           d="M 0,0 C 0.017,0.366 -0.029,0.683 -0.161,1.025 -0.198,1.12 -0.352,1.081 -0.317,0.982 -0.202,0.658 -0.152,0.343 -0.169,0 -0.175,-0.109 -0.005,-0.109 0,0"
           style="fill:#e07228;fill-opacity:1;fill-rule:nonzero;stroke:none"
           id="path2612" />
      </g>
      <g
         id="g2614"
         transform="matrix(0.35277777,0,0,-0.35277777,107.69616,88.27182)">
        <path
           d="M 0,0 C -0.173,0.437 -0.369,0.859 -0.678,1.217 -0.722,1.268 -0.799,1.202 -0.769,1.147 -0.55,0.746 -0.307,0.367 -0.122,-0.051 -0.092,-0.12 0.028,-0.07 0,0"
           style="fill:#e07228;fill-opacity:1;fill-rule:nonzero;stroke:none"
           id="path2616" />
      </g>
      <g
         id="g2618"
         transform="matrix(0.35277777,0,0,-0.35277777,108.04181,88.605442)">
        <path
           d="M 0,0 C -0.104,0.359 -0.22,0.72 -0.444,1.023 -0.487,1.081 -0.598,1.05 -0.571,0.97 -0.454,0.624 -0.29,0.299 -0.178,-0.049 -0.142,-0.162 0.034,-0.115 0,0"
           style="fill:#e07228;fill-opacity:1;fill-rule:nonzero;stroke:none"
           id="path2620" />
      </g>
      <g
         id="g2622"
         transform="matrix(0.35277777,0,0,-0.35277777,107.60888,88.774776)">
        <path
           d="M 0,0 C -0.067,0.365 -0.165,0.713 -0.351,1.035 -0.388,1.1 -0.503,1.057 -0.475,0.983 -0.347,0.641 -0.228,0.316 -0.163,-0.045 -0.144,-0.152 0.02,-0.107 0,0"
           style="fill:#e07228;fill-opacity:1;fill-rule:nonzero;stroke:none"
           id="path2624" />
      </g>
      <g
         id="g2626"
         transform="matrix(0.35277777,0,0,-0.35277777,106.92813,87.471509)">
        <path
           d="M 0,0 C -0.292,0.388 -0.591,0.756 -0.949,1.086 -0.979,1.114 -1.037,1.076 -1.009,1.039 -0.721,0.663 -0.416,0.301 -0.131,-0.076 -0.073,-0.153 0.059,-0.078 0,0"
           style="fill:#e07228;fill-opacity:1;fill-rule:nonzero;stroke:none"
           id="path2628" />
      </g>
      <g
         id="g2630"
         transform="matrix(0.35277777,0,0,-0.35277777,107.32366,87.602636)">
        <path
           d="M 0,0 C -0.151,0.202 -0.289,0.412 -0.436,0.617 -0.485,0.685 -0.592,0.627 -0.551,0.549 -0.433,0.325 -0.29,0.122 -0.14,-0.082 -0.078,-0.164 0.062,-0.083 0,0"
           style="fill:#e07228;fill-opacity:1;fill-rule:nonzero;stroke:none"
           id="path2632" />
      </g>
      <g
         id="g2634"
         transform="matrix(0.35277777,0,0,-0.35277777,107.70999,87.692736)">
        <path
           d="M 0,0 C -0.142,0.218 -0.273,0.435 -0.442,0.632 -0.492,0.69 -0.569,0.617 -0.541,0.556 -0.433,0.327 -0.29,0.123 -0.153,-0.089 -0.091,-0.185 0.062,-0.096 0,0"
           style="fill:#e07228;fill-opacity:1;fill-rule:nonzero;stroke:none"
           id="path2636" />
      </g>
      <g
         id="g2638"
         transform="matrix(0.35277777,0,0,-0.35277777,107.20792,88.097866)">
        <path
           d="M 0,0 C -0.049,0.081 -0.103,0.159 -0.163,0.232 -0.202,0.283 -0.284,0.24 -0.251,0.18 -0.209,0.096 -0.161,0.015 -0.106,-0.062 -0.063,-0.128 0.043,-0.067 0,0"
           style="fill:#e07228;fill-opacity:1;fill-rule:nonzero;stroke:none"
           id="path2640" />
      </g>
      <g
         id="g2642"
         transform="matrix(0.35277777,0,0,-0.35277777,106.51231,87.963739)">
        <path
           d="M 0,0 C -0.183,0.304 -0.394,0.55 -0.675,0.771 -0.727,0.812 -0.798,0.747 -0.749,0.697 -0.517,0.457 -0.316,0.202 -0.144,-0.084 -0.089,-0.176 0.056,-0.092 0,0"
           style="fill:#e07228;fill-opacity:1;fill-rule:nonzero;stroke:none"
           id="path2644" />
      </g>
      <g
         id="g2646"
         transform="matrix(0.35277777,0,0,-0.35277777,105.88271,86.56935)">
        <path
           d="M 0,0 C -0.233,0.157 -0.463,0.306 -0.712,0.436 -0.76,0.461 -0.817,0.396 -0.772,0.357 -0.556,0.167 -0.331,0.003 -0.094,-0.162 0.004,-0.231 0.1,-0.067 0,0"
           style="fill:#e07228;fill-opacity:1;fill-rule:nonzero;stroke:none"
           id="path2648" />
      </g>
      <g
         id="g2650"
         transform="matrix(0.35277777,0,0,-0.35277777,106.67635,86.778547)">
        <path
           d="M 0,0 C -0.237,0.326 -0.486,0.64 -0.801,0.896 -0.867,0.949 -0.951,0.867 -0.895,0.801 -0.643,0.505 -0.378,0.228 -0.144,-0.084 -0.081,-0.169 0.064,-0.087 0,0"
           style="fill:#e07228;fill-opacity:1;fill-rule:nonzero;stroke:none"
           id="path2652" />
      </g>
      <g
         id="g2654"
         transform="matrix(0.35277777,0,0,-0.35277777,107.36684,87.162546)">
        <path
           d="M 0,0 C -0.246,0.45 -0.518,0.909 -0.885,1.272 -0.952,1.339 -1.075,1.251 -1.02,1.168 -0.738,0.742 -0.422,0.346 -0.162,-0.094 -0.1,-0.198 0.058,-0.106 0,0"
           style="fill:#e07228;fill-opacity:1;fill-rule:nonzero;stroke:none"
           id="path2656" />
      </g>
      <g
         id="g2658"
         transform="matrix(0.35277777,0,0,-0.35277777,106.09779,85.944369)">
        <path
           d="M 0,0 C -0.292,0.22 -0.578,0.456 -0.891,0.647 -0.969,0.695 -1.06,0.582 -0.99,0.518 -0.714,0.264 -0.401,0.05 -0.102,-0.175 0.002,-0.253 0.103,-0.078 0,0"
           style="fill:#e07228;fill-opacity:1;fill-rule:nonzero;stroke:none"
           id="path2660" />
      </g>
      <g
         id="g2662"
         transform="matrix(0.35277777,0,0,-0.35277777,105.88627,86.193218)">
        <path
           d="M 0,0 C -0.274,0.166 -0.543,0.342 -0.831,0.483 -0.932,0.533 -1.01,0.397 -0.919,0.332 -0.658,0.147 -0.374,-0.006 -0.098,-0.168 0.01,-0.232 0.107,-0.065 0,0"
           style="fill:#e07228;fill-opacity:1;fill-rule:nonzero;stroke:none"
           id="path2664" />
      </g>
      <g
         id="g2666"
         transform="matrix(0.35277777,0,0,-0.35277777,106.11469,87.20689)">
        <path
           d="M 0,0 C -0.455,0.335 -0.891,0.693 -1.35,1.023 -1.397,1.057 -1.45,0.984 -1.411,0.944 -1.004,0.538 -0.55,0.19 -0.089,-0.153 0.002,-0.221 0.091,-0.067 0,0"
           style="fill:#e07228;fill-opacity:1;fill-rule:nonzero;stroke:none"
           id="path2668" />
      </g>
      <g
         id="g2670"
         transform="matrix(0.35277777,0,0,-0.35277777,103.94532,86.084245)">
        <path
           d="M 0,0 C 0.422,-0.07 0.843,-0.156 1.269,-0.197 1.338,-0.204 1.353,-0.091 1.285,-0.076 0.874,0.013 0.45,0.058 0.033,0.119 -0.044,0.13 -0.079,0.013 0,0"
           style="fill:#e07228;fill-opacity:1;fill-rule:nonzero;stroke:none"
           id="path2672" />
      </g>
      <g
         id="g2674"
         transform="matrix(0.35277777,0,0,-0.35277777,104.53897,85.684478)">
        <path
           d="M 0,0 C 0.35,-0.048 0.703,-0.115 1.057,-0.114 1.128,-0.113 1.143,-0.009 1.074,0.01 0.733,0.104 0.375,0.132 0.024,0.179 -0.077,0.192 -0.102,0.014 0,0"
           style="fill:#e07228;fill-opacity:1;fill-rule:nonzero;stroke:none"
           id="path2676" />
      </g>
      <g
         id="g2678"
         transform="matrix(0.35277777,0,0,-0.35277777,104.69413,85.260403)">
        <path
           d="M 0,0 C 0.503,-0.018 0.944,-0.149 1.418,-0.298 1.505,-0.325 1.56,-0.194 1.48,-0.15 1.027,0.099 0.511,0.17 0,0.156 -0.101,0.154 -0.101,0.004 0,0"
           style="fill:#e07228;fill-opacity:1;fill-rule:nonzero;stroke:none"
           id="path2680" />
      </g>
      <g
         id="g2682"
         transform="matrix(0.35277777,0,0,-0.35277777,105.29124,85.756444)">
        <path
           d="M 0,0 C 0.219,-0.145 0.421,-0.288 0.665,-0.385 0.73,-0.411 0.785,-0.312 0.733,-0.267 0.536,-0.095 0.315,0.02 0.087,0.148 -0.01,0.203 -0.092,0.061 0,0"
           style="fill:#e07228;fill-opacity:1;fill-rule:nonzero;stroke:none"
           id="path2684" />
      </g>
      <g
         id="g2686"
         transform="matrix(0.35277777,0,0,-0.35277777,104.92005,86.132858)">
        <path
           d="M 0,0 C 0.248,-0.073 0.494,-0.151 0.747,-0.206 0.838,-0.225 0.872,-0.099 0.785,-0.067 0.542,0.021 0.292,0.086 0.043,0.156 -0.057,0.184 -0.1,0.029 0,0"
           style="fill:#e07228;fill-opacity:1;fill-rule:nonzero;stroke:none"
           id="path2688" />
      </g>
      <g
         id="g2690"
         transform="matrix(0.35277777,0,0,-0.35277777,104.87418,86.446936)">
        <path
           d="m 0,0 c 0.279,-0.024 0.54,-0.087 0.812,-0.143 0.047,-0.01 0.083,0.058 0.035,0.082 C 0.571,0.071 0.304,0.117 0,0.138 -0.089,0.145 -0.088,0.008 0,0"
           style="fill:#e07228;fill-opacity:1;fill-rule:nonzero;stroke:none"
           id="path2692" />
      </g>
      <g
         id="g2694"
         transform="matrix(0.35277777,0,0,-0.35277777,106.34908,86.861485)">
        <path
           d="M 0,0 C -0.193,0.135 -0.319,0.297 -0.443,0.492 -0.476,0.543 -0.558,0.511 -0.542,0.451 -0.468,0.174 -0.324,0.008 -0.091,-0.155 0.004,-0.221 0.094,-0.066 0,0"
           style="fill:#e07228;fill-opacity:1;fill-rule:nonzero;stroke:none"
           id="path2696" />
      </g>
      <g
         id="g2698"
         transform="matrix(0.35277777,0,0,-0.35277777,106.87719,86.227473)">
        <path
           d="M 0,0 C -0.236,0.23 -0.467,0.465 -0.721,0.676 -0.781,0.726 -0.861,0.649 -0.808,0.589 -0.59,0.341 -0.349,0.117 -0.112,-0.112 -0.039,-0.184 0.073,-0.072 0,0"
           style="fill:#e07228;fill-opacity:1;fill-rule:nonzero;stroke:none"
           id="path2700" />
      </g>
      <g
         id="g2702"
         transform="matrix(0.35277777,0,0,-0.35277777,103.75577,85.253313)">
        <path
           d="M 0,0 C 0.162,-0.039 0.318,-0.076 0.484,-0.1 0.586,-0.114 0.631,0.025 0.527,0.059 0.368,0.109 0.212,0.143 0.049,0.178 -0.066,0.203 -0.116,0.028 0,0"
           style="fill:#e07228;fill-opacity:1;fill-rule:nonzero;stroke:none"
           id="path2704" />
      </g>
      <g
         id="g2706"
         transform="matrix(0.35277777,0,0,-0.35277777,103.82217,86.681428)">
        <path
           d="m 0,0 c 0.258,0.01 0.512,-0.007 0.769,-0.007 0.072,0 0.091,0.112 0.017,0.128 C 0.523,0.182 0.271,0.184 0,0.172 -0.11,0.167 -0.111,-0.004 0,0"
           style="fill:#e07228;fill-opacity:1;fill-rule:nonzero;stroke:none"
           id="path2708" />
      </g>
      <g
         id="g2710"
         transform="matrix(0.35277777,0,0,-0.35277777,104.96961,87.056148)">
        <path
           d="M 0,0 C 0.16,-0.087 0.312,-0.17 0.48,-0.239 0.568,-0.276 0.609,-0.142 0.541,-0.094 0.398,0.007 0.254,0.088 0.101,0.173 -0.012,0.235 -0.113,0.062 0,0"
           style="fill:#e07228;fill-opacity:1;fill-rule:nonzero;stroke:none"
           id="path2712" />
      </g>
      <g
         id="g2714"
         transform="matrix(0.35277777,0,0,-0.35277777,102.86254,86.395536)">
        <path
           d="M 0,0 C 0.288,0.026 0.555,-0.004 0.84,-0.058 0.915,-0.073 0.943,0.028 0.872,0.055 0.578,0.166 0.314,0.184 0,0.154 -0.098,0.145 -0.099,-0.009 0,0"
           style="fill:#e07228;fill-opacity:1;fill-rule:nonzero;stroke:none"
           id="path2716" />
      </g>
      <g
         id="g2718"
         transform="matrix(0.35277777,0,0,-0.35277777,103.16688,85.772002)">
        <path
           d="M 0,0 C 0.286,-0.03 0.569,-0.068 0.856,-0.063 0.912,-0.062 0.929,0.027 0.87,0.038 0.582,0.092 0.292,0.104 0,0.123 -0.08,0.128 -0.077,0.008 0,0"
           style="fill:#e07228;fill-opacity:1;fill-rule:nonzero;stroke:none"
           id="path2720" />
      </g>
      <g
         id="g2722"
         transform="matrix(0.35277777,0,0,-0.35277777,103.94105,85.476868)">
        <path
           d="M 0,0 C 0.29,-0.01 0.578,-0.029 0.865,0.01 0.95,0.021 0.916,0.136 0.847,0.146 0.567,0.183 0.282,0.162 0,0.151 -0.097,0.148 -0.098,0.004 0,0"
           style="fill:#e07228;fill-opacity:1;fill-rule:nonzero;stroke:none"
           id="path2724" />
      </g>
      <g
         id="g2726"
         transform="matrix(0.35277777,0,0,-0.35277777,103.29402,86.249381)">
        <path
           d="M 0,0 C 0.247,-0.02 0.46,-0.014 0.695,0.057 0.776,0.081 0.764,0.212 0.675,0.208 0.449,0.198 0.226,0.176 0,0.18 -0.117,0.181 -0.114,0.009 0,0"
           style="fill:#e07228;fill-opacity:1;fill-rule:nonzero;stroke:none"
           id="path2728" />
      </g>
      <g
         id="g2730"
         transform="matrix(0.35277777,0,0,-0.35277777,102.70076,85.28658)">
        <path
           d="M 0,0 C 0.331,0.055 0.657,0.038 0.988,0.069 1.057,0.076 1.078,0.173 1.005,0.195 0.656,0.297 0.301,0.253 -0.053,0.193 -0.18,0.171 -0.126,-0.021 0,0"
           style="fill:#e07228;fill-opacity:1;fill-rule:nonzero;stroke:none"
           id="path2732" />
      </g>
      <g
         id="g2734"
         transform="matrix(0.35277777,0,0,-0.35277777,103.19038,85.468719)">
        <path
           d="M 0,0 C 0.288,-0.024 0.569,-0.051 0.858,-0.038 0.927,-0.035 0.951,0.077 0.875,0.09 0.584,0.141 0.295,0.151 0,0.164 -0.107,0.169 -0.104,0.009 0,0"
           style="fill:#e07228;fill-opacity:1;fill-rule:nonzero;stroke:none"
           id="path2736" />
      </g>
      <g
         id="g2738"
         transform="matrix(0.35277777,0,0,-0.35277777,102.30466,85.70508)">
        <path
           d="m 0,0 c 0.313,0.001 0.625,-0.01 0.935,0.029 0.086,0.011 0.086,0.123 0,0.133 C 0.625,0.2 0.312,0.188 0,0.187 -0.12,0.187 -0.121,0 0,0"
           style="fill:#e07228;fill-opacity:1;fill-rule:nonzero;stroke:none"
           id="path2740" />
      </g>
      <g
         id="g2742"
         transform="matrix(0.35277777,0,0,-0.35277777,102.6634,86.162527)">
        <path
           d="M 0,0 C 0.347,0.053 0.696,0.098 1.037,0.18 1.088,0.193 1.079,0.278 1.024,0.273 0.669,0.246 0.318,0.18 -0.034,0.124 -0.116,0.111 -0.081,-0.012 0,0"
           style="fill:#e07228;fill-opacity:1;fill-rule:nonzero;stroke:none"
           id="path2744" />
      </g>
      <g
         id="g2746"
         transform="matrix(0.35277777,0,0,-0.35277777,103.85497,85.908844)">
        <path
           d="M 0,0 C 0.19,0.017 0.375,0.034 0.563,0.068 0.64,0.082 0.622,0.208 0.544,0.204 0.354,0.195 0.17,0.169 -0.019,0.144 -0.1,0.133 -0.082,-0.007 0,0"
           style="fill:#e07228;fill-opacity:1;fill-rule:nonzero;stroke:none"
           id="path2748" />
      </g>
      <g
         id="g2750"
         transform="matrix(0.35277777,0,0,-0.35277777,101.79207,85.534547)">
        <path
           d="M 0,0 C 0.404,0.001 0.804,0.032 1.188,0.164 1.272,0.193 1.238,0.31 1.152,0.295 0.767,0.228 0.393,0.157 0,0.146 -0.094,0.144 -0.094,0 0,0"
           style="fill:#e07228;fill-opacity:1;fill-rule:nonzero;stroke:none"
           id="path2752" />
      </g>
      <g
         id="g2754"
         transform="matrix(0.35277777,0,0,-0.35277777,101.83398,86.041065)">
        <path
           d="m 0,0 c 0.256,-0.009 0.512,-0.022 0.768,-0.015 0.086,0.003 0.083,0.122 0,0.131 C 0.513,0.144 0.257,0.151 0,0.162 -0.104,0.166 -0.104,0.004 0,0"
           style="fill:#e07228;fill-opacity:1;fill-rule:nonzero;stroke:none"
           id="path2756" />
      </g>
      <g
         id="g2758"
         transform="matrix(0.35277777,0,0,-0.35277777,102.28427,86.369784)">
        <path
           d="M 0,0 C 0.216,-0.03 0.162,-0.034 0.375,0.013 0.439,0.027 0.426,0.135 0.359,0.129 0.252,0.13 0.144,0.132 0.037,0.134 -0.05,0.146 -0.088,0.012 0,0"
           style="fill:#e07228;fill-opacity:1;fill-rule:nonzero;stroke:none"
           id="path2760" />
      </g>
      <g
         id="g2762"
         transform="matrix(0.35277777,0,0,-0.35277777,100.79293,85.799201)">
        <path
           d="m 0,0 c 0.298,-0.085 0.578,-0.14 0.888,-0.124 0.087,0.005 0.085,0.126 0,0.134 C 0.6,0.034 0.316,0.055 0.032,0.116 -0.043,0.133 -0.075,0.021 0,0"
           style="fill:#ffe3c5;fill-opacity:1;fill-rule:nonzero;stroke:none"
           id="path2764" />
      </g>
      <g
         id="g2766"
         transform="matrix(0.35277777,0,0,-0.35277777,101.21602,85.642356)">
        <path
           d="M 0,0 C 0.204,0.021 0.397,0.041 0.597,0.086 0.655,0.099 0.642,0.189 0.583,0.189 0.384,0.188 0.198,0.165 0,0.141 -0.089,0.13 -0.091,-0.01 0,0"
           style="fill:#ffe3c5;fill-opacity:1;fill-rule:nonzero;stroke:none"
           id="path2768" />
      </g>
      <g
         id="g2770"
         transform="matrix(0.35277777,0,0,-0.35277777,100.06074,85.854128)">
        <path
           d="m 0,0 c 0.315,-0.063 0.622,-0.119 0.944,-0.115 0.052,0 0.067,0.084 0.013,0.093 C 0.648,0.029 0.337,0.052 0.027,0.099 -0.037,0.109 -0.066,0.013 0,0"
           style="fill:#ffe3c5;fill-opacity:1;fill-rule:nonzero;stroke:none"
           id="path2772" />
      </g>
      <g
         id="g2774"
         transform="matrix(0.35277777,0,0,-0.35277777,100.06942,86.34322)">
        <path
           d="m 0,0 c 0.399,-0.065 0.799,-0.104 1.202,-0.058 0.07,0.008 0.074,0.112 0,0.113 -0.401,0.002 -0.789,0 -1.187,0.053 C -0.046,0.116 -0.061,0.01 0,0"
           style="fill:#ffe3c5;fill-opacity:1;fill-rule:nonzero;stroke:none"
           id="path2776" />
      </g>
      <g
         id="g2778"
         transform="matrix(0.35277777,0,0,-0.35277777,100.56821,86.171205)">
        <path
           d="M 0,0 C 0.308,-0.042 0.591,-0.051 0.887,0.053 0.933,0.069 0.93,0.147 0.875,0.143 0.582,0.121 0.31,0.093 0.017,0.126 -0.054,0.134 -0.072,0.01 0,0"
           style="fill:#ffe3c5;fill-opacity:1;fill-rule:nonzero;stroke:none"
           id="path2780" />
      </g>
      <g
         id="g2782"
         transform="matrix(0.35277777,0,0,-0.35277777,98.973729,86.003671)">
        <path
           d="M 0,0 C 0.419,-0.297 0.919,-0.565 1.441,-0.593 1.509,-0.597 1.515,-0.5 1.456,-0.48 0.966,-0.308 0.51,-0.175 0.074,0.126 -0.004,0.18 -0.076,0.054 0,0"
           style="fill:#ffe3c5;fill-opacity:1;fill-rule:nonzero;stroke:none"
           id="path2784" />
      </g>
      <g
         id="g2786"
         transform="matrix(0.35277777,0,0,-0.35277777,99.405952,85.909656)">
        <path
           d="m 0,0 c 0.307,-0.215 0.641,-0.365 1.018,-0.382 0.081,-0.003 0.099,0.124 0.02,0.141 C 0.686,-0.166 0.378,-0.075 0.074,0.126 -0.005,0.179 -0.076,0.053 0,0"
           style="fill:#ffe3c5;fill-opacity:1;fill-rule:nonzero;stroke:none"
           id="path2788" />
      </g>
      <g
         id="g2790"
         transform="matrix(0.35277777,0,0,-0.35277777,99.614162,85.775988)">
        <path
           d="m 0,0 c 0.213,-0.089 0.385,-0.134 0.61,-0.092 0.043,0.008 0.042,0.078 0,0.086 C 0.416,0.036 0.223,0.063 0.037,0.136 -0.047,0.17 -0.082,0.034 0,0"
           style="fill:#ffe3c5;fill-opacity:1;fill-rule:nonzero;stroke:none"
           id="path2792" />
      </g>
      <g
         id="g2794"
         transform="matrix(0.35277777,0,0,-0.35277777,98.898517,85.573176)">
        <path
           d="M 0,0 C -0.207,0.14 -0.384,0.302 -0.565,0.471 -0.609,0.512 -0.688,0.459 -0.652,0.404 -0.498,0.174 -0.312,0.012 -0.084,-0.144 0.005,-0.204 0.089,-0.06 0,0"
           style="fill:#ffe3c5;fill-opacity:1;fill-rule:nonzero;stroke:none"
           id="path2796" />
      </g>
      <g
         id="g2798"
         transform="matrix(0.35277777,0,0,-0.35277777,99.226318,85.631878)">
        <path
           d="M 0,0 C -0.135,0.072 -0.259,0.152 -0.387,0.237 -0.441,0.273 -0.504,0.191 -0.457,0.146 -0.337,0.032 -0.221,-0.048 -0.076,-0.131 0.008,-0.179 0.086,-0.046 0,0"
           style="fill:#ffe3c5;fill-opacity:1;fill-rule:nonzero;stroke:none"
           id="path2800" />
      </g>
      <g
         id="g2802"
         transform="matrix(0.35277777,0,0,-0.35277777,98.700503,85.15196)">
        <path
           d="M 0,0 C -0.136,0.212 -0.201,0.439 -0.295,0.669 -0.324,0.739 -0.432,0.735 -0.434,0.65 -0.439,0.364 -0.321,0.142 -0.157,-0.092 -0.091,-0.187 0.064,-0.1 0,0"
           style="fill:#ffe3c5;fill-opacity:1;fill-rule:nonzero;stroke:none"
           id="path2804" />
      </g>
      <g
         id="g2806"
         transform="matrix(0.35277777,0,0,-0.35277777,100.84553,86.559049)">
        <path
           d="M 0,0 C 0.341,-0.039 0.674,-0.048 1.011,0.026 1.079,0.04 1.065,0.153 0.994,0.149 0.658,0.13 0.336,0.109 0,0.141 -0.091,0.15 -0.089,0.01 0,0"
           style="fill:#ffe3c5;fill-opacity:1;fill-rule:nonzero;stroke:none"
           id="path2808" />
      </g>
    </g>
  </g>
</svg>
