<?xml version="1.0" encoding="UTF-8" standalone="no"?>
<!-- Created with Inkscape (http://www.inkscape.org/) -->

<svg
   width="26.354425mm"
   height="30.407026mm"
   viewBox="0 0 26.354425 30.407026"
   version="1.1"
   id="svg50247"
   inkscape:version="1.1-rc (52f87abb86, 2021-05-02)"
   sodipodi:docname="s-souris.svg"
   xmlns:inkscape="http://www.inkscape.org/namespaces/inkscape"
   xmlns:sodipodi="http://sodipodi.sourceforge.net/DTD/sodipodi-0.dtd"
   xmlns="http://www.w3.org/2000/svg"
   xmlns:svg="http://www.w3.org/2000/svg">
  <sodipodi:namedview
     id="namedview50249"
     pagecolor="#ffffff"
     bordercolor="#666666"
     borderopacity="1.0"
     objecttolerance="10.0"
     gridtolerance="10.0"
     guidetolerance="10.0"
     inkscape:pageshadow="2"
     inkscape:pageopacity="0.0"
     inkscape:pagecheckerboard="0"
     inkscape:document-units="mm"
     showgrid="false"
     fit-margin-top="0"
     fit-margin-left="0"
     fit-margin-right="0"
     fit-margin-bottom="0"
     inkscape:zoom="0.94875842"
     inkscape:cx="-138.07519"
     inkscape:cy="25.823223"
     inkscape:window-width="3840"
     inkscape:window-height="2066"
     inkscape:window-x="2869"
     inkscape:window-y="-11"
     inkscape:window-maximized="1"
     inkscape:current-layer="layer1" />
  <defs
     id="defs50244">
    <clipPath
       clipPathUnits="userSpaceOnUse"
       id="clipPath7106">
      <path
         d="m 573.337,280.408 h 4.632 v -4.518 h -4.632 z"
         id="path7104" />
    </clipPath>
    <clipPath
       clipPathUnits="userSpaceOnUse"
       id="clipPath7126">
      <path
         d="m 547.535,295.379 h 23.714 v -21.406 h -23.714 z"
         id="path7124" />
    </clipPath>
    <clipPath
       clipPathUnits="userSpaceOnUse"
       id="clipPath7162">
      <path
         d="m 570.943,296.696 h 8.851 V 285.12 h -8.851 z"
         id="path7160" />
    </clipPath>
    <clipPath
       clipPathUnits="userSpaceOnUse"
       id="clipPath7178">
      <path
         d="m 555.51,294.653 h 5.92 v -14.466 h -5.92 z"
         id="path7176" />
    </clipPath>
    <clipPath
       clipPathUnits="userSpaceOnUse"
       id="clipPath7310">
      <path
         d="m 549.024,301.049 h 33.793 v -21.13 h -33.793 z"
         id="path7308" />
    </clipPath>
  </defs>
  <g
     inkscape:label="Layer 1"
     inkscape:groupmode="layer"
     id="layer1"
     transform="translate(-141.59744,-141.80212)">
    <g
       id="g5050"
       transform="matrix(0.35277777,0,0,-0.35277777,152.59352,152.33818)">
      <path
         d="m 0,0 c 0.869,3.258 1.412,6.191 1.412,8.471 0,5.648 -3.149,8.689 -6.734,8.689 -4.669,0 -7.494,-5.104 -7.494,-9.991 0,-5.322 3.476,-9.775 8.689,-13.034 11.947,-7.494 19.549,-12.272 19.549,-23.676 0,-13.902 -11.295,-21.396 -21.395,-21.396 -13.793,0 -21.07,13.794 -25.197,23.134 l 10.535,5.105 c 2.933,-7.82 8.145,-15.531 14.227,-15.531 3.041,0 7.06,1.846 7.06,6.842 0,5.54 -5.105,9.557 -10.209,13.033 -9.232,6.408 -18.137,12.924 -18.137,25.305 0,13.685 10.752,22.915 22.155,22.915 13.25,0 21.83,-12.272 21.83,-22.046 0,-2.715 -0.652,-8.145 -2.824,-12.272 z"
         style="fill:#fc9949;fill-opacity:1;fill-rule:nonzero;stroke:none"
         id="path5052" />
    </g>
    <g
       id="g12773"
       transform="translate(51.323694,39.16407)">
      <g
         id="g7088"
         transform="matrix(0.35277777,0,0,-0.35277777,102.7106,129.34933)">
        <path
           d="m 0,0 c 0,0 -0.044,-0.007 -0.129,-0.02 -0.09,-0.013 -0.186,-0.034 -0.438,-0.059 -0.241,-0.029 -0.486,-0.038 -0.78,-0.041 -0.291,0.002 -0.625,0.016 -0.989,0.061 -0.729,0.087 -1.589,0.28 -2.516,0.662 -0.919,0.387 -1.923,0.952 -2.828,1.843 -0.902,0.876 -1.695,2.131 -1.961,3.599 -0.137,0.727 -0.145,1.487 -0.04,2.225 0.057,0.367 0.13,0.733 0.232,1.09 l 0.036,0.135 0.023,0.073 0.005,0.015 0.011,0.029 0.02,0.058 0.086,0.231 c 0.056,0.155 0.112,0.31 0.17,0.467 0.031,0.079 0.052,0.152 0.09,0.238 l 0.128,0.266 c 0.088,0.176 0.176,0.354 0.264,0.531 l 0.135,0.264 0.156,0.239 0.315,0.476 c 0.1,0.163 0.219,0.311 0.345,0.456 l 0.371,0.44 c 0.248,0.291 0.544,0.538 0.817,0.808 1.151,1.021 2.517,1.738 3.9,2.273 1.39,0.532 2.816,0.88 4.215,1.138 0.693,0.129 1.412,0.235 2.062,0.328 0.7,0.104 1.277,0.234 1.898,0.416 1.201,0.382 2.305,0.949 3.163,1.709 0.863,0.75 1.489,1.676 1.76,2.628 0.277,0.948 0.225,1.897 -0.063,2.655 -0.266,0.771 -0.73,1.348 -1.148,1.769 -0.208,0.216 -0.423,0.378 -0.603,0.527 -0.192,0.134 -0.353,0.252 -0.491,0.338 -0.28,0.165 -0.43,0.254 -0.43,0.254 l -0.01,0.005 c -0.076,0.046 -0.102,0.145 -0.057,0.221 0.044,0.074 0.138,0.1 0.213,0.062 0,0 0.161,-0.083 0.463,-0.239 0.149,-0.082 0.326,-0.196 0.537,-0.326 0.2,-0.147 0.437,-0.308 0.674,-0.526 0.475,-0.427 1.021,-1.029 1.373,-1.881 0.373,-0.838 0.501,-1.93 0.241,-3.043 C 10.969,21.278 10.31,20.179 9.385,19.279 8.463,18.365 7.269,17.665 5.965,17.17 5.321,16.935 4.586,16.733 3.938,16.601 3.24,16.46 2.594,16.328 1.922,16.163 0.592,15.839 -0.729,15.433 -1.961,14.879 -3.188,14.324 -4.335,13.625 -5.228,12.733 -5.435,12.497 -5.669,12.286 -5.853,12.039 l -0.276,-0.37 C -6.224,11.55 -6.314,11.427 -6.383,11.291 L -6.611,10.9 -6.725,10.707 -6.807,10.513 -6.973,10.131 -7.058,9.943 C -7.086,9.875 -7.108,9.787 -7.132,9.71 -7.18,9.551 -7.229,9.392 -7.276,9.235 L -7.348,8.998 -7.365,8.94 -7.375,8.91 -7.379,8.895 C -7.372,8.917 -7.4,8.826 -7.365,8.94 L -7.386,8.836 C -7.448,8.56 -7.485,8.289 -7.512,8.022 -7.557,7.488 -7.517,6.98 -7.401,6.514 c 0.23,-0.932 0.77,-1.691 1.419,-2.257 0.648,-0.571 1.4,-0.943 2.083,-1.184 0.689,-0.239 1.32,-0.341 1.825,-0.371 0.253,-0.017 0.475,-0.012 0.665,-0.003 0.187,0.013 0.353,0.03 0.441,0.048 0.079,0.007 0.231,0.043 0.31,0.059 0.085,0.019 0.128,0.028 0.128,0.028 h 0.002 C 0.25,3.002 1.017,2.507 1.185,1.729 1.354,0.95 0.859,0.183 0.08,0.015 0.055,0.01 0.025,0.004 0,0"
           style="fill:#9b4a31;fill-opacity:1;fill-rule:nonzero;stroke:none"
           id="path7090" />
      </g>
      <g
         id="g7092"
         transform="matrix(0.35277777,0,0,-0.35277777,102.69998,129.31095)">
        <path
           d="m 0,0 c -2.795,-0.436 -5.824,0.561 -7.776,2.626 -1.864,1.97 -2.239,4.712 -1.326,7.214 0.625,1.709 1.647,3.197 3.073,4.343 2.55,2.052 5.889,2.839 9.057,3.318 2.732,0.413 5.63,1.247 7.132,3.791 0.684,1.158 0.897,2.583 0.437,3.862 -0.412,1.146 -1.274,2.06 -2.294,2.702 -0.025,0.016 -0.564,0.282 -0.384,0.34 0.116,0.037 0.607,-0.324 0.694,-0.377 0.598,-0.363 1.142,-0.814 1.585,-1.357 1.038,-1.27 1.32,-2.967 0.841,-4.526 C 10.081,18.82 6.813,17.191 3.843,16.582 -0.335,15.726 -5.781,14.244 -7.211,9.631 -7.296,9.356 -7.377,9.079 -7.462,8.804 c 0.073,-0.02 0.145,-0.04 0.218,-0.06 0.006,0.019 0.012,0.038 0.017,0.058 -0.072,0.02 -0.145,0.04 -0.217,0.06 C -7.68,7.65 -7.683,6.45 -7.071,5.341 -6.474,4.26 -5.439,3.487 -4.316,3.016 -3.136,2.522 -1.855,2.346 -0.598,2.589 0.108,2.725 0.833,2.465 1.071,1.724 1.326,0.932 0.792,0.149 0,0 -0.142,-0.027 -0.082,-0.244 0.06,-0.217 1.091,-0.024 1.681,1.12 1.171,2.06 0.942,2.484 0.515,2.777 0.042,2.852 -0.474,2.933 -1.012,2.714 -1.527,2.697 c -1.63,-0.052 -3.388,0.579 -4.557,1.727 -1.224,1.201 -1.459,2.75 -1.143,4.378 0.028,0.141 -0.175,0.2 -0.217,0.06 -0.006,-0.02 -0.012,-0.039 -0.018,-0.058 -0.042,-0.139 0.175,-0.198 0.218,-0.06 0.182,0.59 0.352,1.176 0.62,1.733 0.37,0.771 0.912,1.458 1.506,2.067 2.393,2.456 6.07,3.178 9.279,3.874 2.813,0.61 5.734,2.151 6.904,4.932 0.552,1.311 0.589,2.808 0.007,4.113 -0.542,1.218 -1.561,2.155 -2.729,2.768 -0.19,0.099 -0.56,0.354 -0.702,0.037 -0.15,-0.332 0.419,-0.524 0.602,-0.642 1.385,-0.892 2.426,-2.327 2.376,-4.031 C 10.511,19.972 6.583,18.248 3.521,17.8 0.276,17.324 -3.126,16.624 -5.818,14.631 -7.243,13.575 -8.387,12.159 -9.087,10.527 -10.074,8.224 -10.135,5.596 -8.716,3.45 c 1.544,-2.335 4.414,-3.701 7.172,-3.787 0.54,-0.017 1.071,0.036 1.604,0.12 C 0.203,-0.195 0.142,0.022 0,0"
           style="fill:#9b4a31;fill-opacity:1;fill-rule:nonzero;stroke:none"
           id="path7094" />
      </g>
      <g
         id="g7096"
         transform="matrix(0.35277777,0,0,-0.35277777,116.62627,130.92029)">
        <path
           d="m 0,0 c -0.192,-0.789 -4.972,0.304 -7.487,0.958 -0.327,0.079 -0.609,0.147 -0.845,0.215 -1.421,0.394 -1.94,2.852 -0.688,3.867 0.293,0.248 0.688,0.406 1.195,0.429 0.417,0.033 0.913,-0.034 1.488,-0.215 0,0 0.508,-0.338 1.241,-0.845 C -3.202,3.089 0.158,0.643 0,0"
           style="fill:#dd8345;fill-opacity:1;fill-rule:nonzero;stroke:none"
           id="path7098" />
      </g>
      <g
         id="g7100"
         transform="matrix(0.35277777,0,0,-0.35277777,-89.066312,227.90994)">
        <g
           id="g7102" />
        <g
           id="g7114">
          <g
             clip-path="url(#clipPath7106)"
             opacity="0.100006"
             id="g7112">
            <g
               transform="translate(577.9691,279.3398)"
               id="g7110">
              <path
                 d="m 0,0 c -0.462,-0.767 -1.488,-2.458 -2.39,-3.45 -0.327,0.079 -0.609,0.146 -0.846,0.214 -1.421,0.395 -1.939,2.853 -0.688,3.867 l 1.195,0.429 c 0.418,0.034 0.914,-0.034 1.489,-0.214 0,0 0.507,-0.339 1.24,-0.846"
                 style="fill:#180200;fill-opacity:1;fill-rule:nonzero;stroke:none"
                 id="path7108" />
            </g>
          </g>
        </g>
      </g>
      <g
         id="g7116"
         transform="matrix(0.35277777,0,0,-0.35277777,112.87137,133.04041)">
        <path
           d="m 0,0 c -1.376,-0.203 -6.202,1.985 -10.565,2.83 -4.352,0.846 -9.091,2.221 -9.091,2.221 1.049,-0.157 4.825,-3.649 3.815,-4.651 -0.505,-0.501 -15.02,3.355 -13.971,4.403 0,0 -2.21,0.97 -2.819,6.281 -0.744,6.528 2.3,11.963 9.156,14.466 0.62,0.225 1.251,0.406 1.894,0.541 4.747,1.015 10.125,-0.203 14.59,-2.12 1.692,-0.733 3.236,-1.556 4.578,-2.39 3.405,-3.946 2.605,-8.005 1.24,-10.802 C -2.221,8.592 -3.619,7.182 -3.619,7.182 -2.875,6.619 -2.052,5.852 -1.297,5.051 0.079,3.586 1.263,2.018 1.432,1.421 1.703,0.485 1.375,0.203 0,0"
           style="fill:#dd8345;fill-opacity:1;fill-rule:nonzero;stroke:none"
           id="path7118" />
      </g>
      <g
         id="g7120"
         transform="matrix(0.35277777,0,0,-0.35277777,-89.066312,227.90994)">
        <g
           id="g7122" />
        <g
           id="g7134">
          <g
             clip-path="url(#clipPath7126)"
             opacity="0.100006"
             id="g7132">
            <g
               transform="translate(571.125,273.9728)"
               id="g7130">
              <path
                 d="m 0,0 c -5.13,0.654 -12.741,5.085 -12.741,5.085 0,0 -2.086,-0.721 -3.541,-0.8 -1.443,-0.079 -6.302,0.642 -7.193,7.284 -0.699,5.175 1.984,8.332 3.191,9.471 4.747,1.015 10.125,-0.203 14.59,-2.12 C -3.653,14.827 -1.206,9.64 0.124,5.728 -0.925,3.54 -2.323,2.131 -2.323,2.131 -1.579,1.567 -0.755,0.801 0,0"
                 style="fill:#180200;fill-opacity:1;fill-rule:nonzero;stroke:none"
                 id="path7128" />
            </g>
          </g>
        </g>
      </g>
      <g
         id="g7136"
         transform="matrix(0.35277777,0,0,-0.35277777,109.01505,124.13722)">
        <path
           d="m 0,0 -0.061,-0.457 -1.702,-12.557 c -0.23,-0.318 -0.51,-0.582 -0.822,-0.802 0,-0.002 -0.003,-0.002 -0.003,-0.002 -0.066,-0.048 -0.132,-0.093 -0.204,-0.132 -0.172,-0.106 -0.349,-0.201 -0.536,-0.286 -0.833,-0.375 -1.801,-0.537 -2.721,-0.579 -0.949,-0.045 -1.922,0.005 -2.81,0.339 -1.771,0.668 -2.961,2.376 -3.561,4.176 -0.01,0.03 -0.018,0.059 -0.029,0.088 -0.042,0.132 -0.082,0.267 -0.119,0.401 -0.711,2.552 -0.439,5.367 0.74,7.738 0.109,0.215 0.223,0.426 0.344,0.632 0.064,0.109 0.13,0.214 0.196,0.32 0.066,0.106 0.137,0.212 0.209,0.315 0.142,0.206 0.293,0.407 0.452,0.602 0.949,1.172 2.165,2.123 3.571,2.652 0.209,0.079 0.423,0.148 0.64,0.204 0.074,0.018 0.148,0.037 0.219,0.05 0.072,0.016 0.146,0.029 0.22,0.042 0.071,0.011 0.145,0.021 0.219,0.029 0.074,0.008 0.148,0.016 0.222,0.021 C -5.44,2.8 -5.345,2.802 -5.25,2.8 -5.089,2.797 -4.93,2.784 -4.772,2.763 -4.507,2.726 -4.246,2.662 -3.987,2.583 -3.78,2.519 -3.579,2.443 -3.379,2.361 -3.281,2.318 -3.18,2.276 -3.082,2.231 -2.985,2.186 -2.887,2.139 -2.789,2.091 -2.657,2.028 -2.527,1.962 -2.398,1.893 -2.266,1.824 -2.139,1.753 -2.009,1.679 -1.89,1.61 -1.771,1.536 -1.655,1.462 -1.642,1.454 -1.628,1.446 -1.618,1.438 -1.594,1.425 -1.573,1.409 -1.552,1.393 -0.965,1.01 -0.428,0.555 0,0"
           style="fill:#ed9858;fill-opacity:1;fill-rule:nonzero;stroke:none"
           id="path7138" />
      </g>
      <g
         id="g7140"
         transform="matrix(0.35277777,0,0,-0.35277777,108.08503,129.01585)">
        <path
           d="M 0,0 C 0.018,0.011 0.034,0.016 0.05,0.013 0.05,0.011 0.048,0.011 0.048,0.011 0.032,0.008 0.016,0.005 0,0"
           style="fill:#e58e53;fill-opacity:1;fill-rule:nonzero;stroke:none"
           id="path7142" />
      </g>
      <g
         id="g7144"
         transform="matrix(0.35277777,0,0,-0.35277777,106.76384,125.8713)">
        <path
           d="M 0,0 C 1.195,1.528 3.189,2.46 4.976,1.226 4.642,0.904 4.347,0.546 4.091,0.158 2.739,-1.906 2.175,-3.982 2.56,-6.579 2.574,-6.686 2.771,-7.016 2.791,-7.12 2.37,-7.217 1.279,-7.26 0.854,-7.09 -1.555,-6.13 -1.582,-2.799 -0.538,-0.828 -0.385,-0.539 -0.204,-0.261 0,0"
           style="fill:#9b4a31;fill-opacity:1;fill-rule:nonzero;stroke:none"
           id="path7146" />
      </g>
      <g
         id="g7148"
         transform="matrix(0.35277777,0,0,-0.35277777,116.1877,126.11669)">
        <path
           d="M 0,0 C -0.783,-1.158 -1.985,-1.983 -3.675,-2.165 -3.891,-2.189 -5.073,0.063 -5.2,0.267 -6.133,1.761 -7.066,3.252 -8,4.743 -8.42,5.414 -8.869,6.075 -9.263,6.76 c -0.019,0.031 -0.035,0.063 -0.05,0.092 -0.614,1.158 -0.468,2.72 0.198,3.939 0.521,0.955 1.356,1.697 2.392,1.872 2.792,0.468 5.475,-1.385 6.781,-3.73 C 1.462,6.413 1.668,2.456 0,0"
           style="fill:#ed9858;fill-opacity:1;fill-rule:nonzero;stroke:none"
           id="path7150" />
      </g>
      <g
         id="g7152"
         transform="matrix(0.35277777,0,0,-0.35277777,115.8086,124.72244)">
        <path
           d="m 0,0 c 0.08,-0.369 0.106,-0.746 0.07,-1.12 -0.145,-1.482 -1.145,-2.776 -2.583,-3.194 -0.01,0.422 -0.073,0.837 -0.184,1.24 -0.595,2.133 -1.655,4.183 -3.799,5.354 -0.088,0.049 -0.178,0.095 -0.266,0.138 0.211,0.36 0.556,0.69 0.965,0.904 C -3.399,4.564 -0.529,2.445 0,0"
           style="fill:#9b4a31;fill-opacity:1;fill-rule:nonzero;stroke:none"
           id="path7154" />
      </g>
      <g
         id="g7156"
         transform="matrix(0.35277777,0,0,-0.35277777,-89.066312,227.90994)">
        <g
           id="g7158" />
        <g
           id="g7170">
          <g
             clip-path="url(#clipPath7162)"
             opacity="0.300003"
             id="g7168">
            <g
               transform="translate(578.6531,292.8707)"
               id="g7166">
              <path
                 d="M 0,0 C 1.48,-2.475 1.39,-4.908 0.472,-7.316 0.42,-7.453 0.356,-7.595 0.235,-7.675 0.091,-7.771 -0.097,-7.758 -0.267,-7.729 c -1.57,0.274 -2.066,1.464 -3.021,2.74 -0.67,0.896 -1.31,1.813 -1.919,2.752 -1.066,1.644 -2.955,2.89 -2.405,4.935 C -7.044,4.808 -2.38,3.981 0,0"
                 style="fill:#180200;fill-opacity:1;fill-rule:nonzero;stroke:none"
                 id="path7164" />
            </g>
          </g>
        </g>
      </g>
      <g
         id="g7172"
         transform="matrix(0.35277777,0,0,-0.35277777,-89.066312,227.90994)">
        <g
           id="g7174" />
        <g
           id="g7186">
          <g
             clip-path="url(#clipPath7178)"
             opacity="0.300003"
             id="g7184">
            <g
               transform="translate(561.4296,293.7016)"
               id="g7182">
              <path
                 d="m 0,0 -1.702,-12.557 c -0.23,-0.318 -0.511,-0.582 -0.825,-0.804 -0.066,-0.047 -0.132,-0.092 -0.204,-0.132 -0.172,-0.106 0.391,0.216 0.203,0.132 -0.696,-0.314 -1.769,1.015 -2.1,1.472 -1.183,1.633 -1.476,3.774 -1.19,5.733 0.318,2.17 1.581,3.811 3.062,5.398 0.071,0.076 0.459,0.207 0.531,0.282 0.476,0.495 -0.569,0.78 0.092,1.039 0.573,0.222 1.295,0.695 1.742,0.098 C -0.238,0.455 -0.108,0.233 0,0"
                 style="fill:#180200;fill-opacity:1;fill-rule:nonzero;stroke:none"
                 id="path7180" />
            </g>
          </g>
        </g>
      </g>
      <g
         id="g7188"
         transform="matrix(0.35277777,0,0,-0.35277777,114.34507,129.64038)">
        <path
           d="m 0,0 c 5.261,6.47 2.953,17.868 -5.535,18.81 -3.551,0.394 -7.519,-0.119 -10.437,-2.385 -3.332,-2.588 -4.9,-7.483 -3.579,-11.507 0.044,-0.132 0.09,-0.264 0.14,-0.394 0.237,-0.621 0.548,-1.213 0.93,-1.757 0.898,-1.277 2.12,-2.356 3.551,-3.149 2.632,-1.458 5.589,-2.369 8.633,-2.838 1.622,-0.25 2.656,-0.723 3.921,0.346 C -1.433,-2.076 -0.8,-0.984 0,0"
           style="fill:#ed9858;fill-opacity:1;fill-rule:nonzero;stroke:none"
           id="path7190" />
      </g>
      <g
         id="g7192"
         transform="matrix(0.35277777,0,0,-0.35277777,113.04194,126.31467)">
        <path
           d="m 0,0 c -0.941,-0.863 -0.641,-2.455 -0.081,-3.448 0.126,-0.223 0.274,-0.438 0.468,-0.605 0.44,-0.376 1.079,-0.459 1.643,-0.325 1.238,0.295 2.521,1.393 2.473,2.75 C 4.424,0.61 1.56,1.375 0.027,0.024 0.018,0.016 0.009,0.008 0,0"
           style="fill:#fffffd;fill-opacity:1;fill-rule:nonzero;stroke:none"
           id="path7194" />
      </g>
      <g
         id="g7196"
         transform="matrix(0.35277777,0,0,-0.35277777,113.05249,126.59255)">
        <path
           d="m 0,0 c -0.096,-0.203 -0.146,-0.436 -0.142,-0.694 0.013,-0.848 0.512,-1.785 1.327,-2.105 0.486,-0.19 1.065,-0.082 1.517,0.158 0.595,0.316 0.969,0.996 0.941,1.669 C 3.615,-0.298 3.196,0.339 2.6,0.654 2.124,0.906 1.572,0.94 1.055,0.811 0.563,0.687 0.191,0.403 0,0"
           style="fill:#180200;fill-opacity:1;fill-rule:nonzero;stroke:none"
           id="path7198" />
      </g>
      <g
         id="g7200"
         transform="matrix(0.35277777,0,0,-0.35277777,113.24158,126.87749)">
        <path
           d="m 0,0 c -0.028,-0.05 -0.033,-0.109 -0.033,-0.166 0.001,-0.316 0.131,-0.63 0.355,-0.853 0.069,-0.069 0.149,-0.131 0.241,-0.163 0.122,-0.042 0.262,-0.028 0.373,0.037 0.135,0.079 0.22,0.226 0.257,0.379 C 1.268,-0.455 1.145,-0.162 0.941,0.069 0.799,0.23 0.665,0.339 0.441,0.289 0.283,0.253 0.083,0.145 0,0"
           style="fill:#fffffd;fill-opacity:1;fill-rule:nonzero;stroke:none"
           id="path7202" />
      </g>
      <g
         id="g7204"
         transform="matrix(0.35277777,0,0,-0.35277777,109.63284,129.02238)">
        <path
           d="m 0,0 c 1.002,-0.792 2.525,-0.242 3.417,0.469 0.2,0.159 0.389,0.339 0.522,0.558 0.302,0.494 0.282,1.138 0.06,1.674 C 3.511,3.876 2.223,4.968 0.891,4.705 -1.306,4.27 -1.606,1.322 -0.028,0.022 -0.019,0.015 -0.009,0.007 0,0"
           style="fill:#fffffd;fill-opacity:1;fill-rule:nonzero;stroke:none"
           id="path7206" />
      </g>
      <g
         id="g7208"
         transform="matrix(0.35277777,0,0,-0.35277777,109.40731,128.00878)">
        <path
           d="m 0,0 c -0.063,-0.216 -0.075,-0.454 -0.031,-0.707 0.148,-0.836 0.788,-1.683 1.643,-1.869 0.511,-0.111 1.065,0.087 1.473,0.395 0.538,0.406 0.8,1.137 0.666,1.797 C 3.616,0.277 3.102,0.84 2.464,1.057 1.955,1.23 1.404,1.177 0.914,0.967 0.447,0.768 0.125,0.428 0,0"
           style="fill:#180200;fill-opacity:1;fill-rule:nonzero;stroke:none"
           id="path7210" />
      </g>
      <g
         id="g7212"
         transform="matrix(0.35277777,0,0,-0.35277777,109.63905,128.26027)">
        <path
           d="m 0,0 c -0.02,-0.053 -0.015,-0.113 -0.006,-0.169 0.05,-0.312 0.229,-0.602 0.485,-0.787 0.079,-0.057 0.168,-0.105 0.264,-0.122 0.127,-0.023 0.263,0.013 0.362,0.095 0.121,0.1 0.181,0.259 0.194,0.415 C 1.324,-0.249 1.156,0.021 0.919,0.217 0.753,0.354 0.603,0.44 0.39,0.355 0.24,0.294 0.059,0.157 0,0"
           style="fill:#fffffd;fill-opacity:1;fill-rule:nonzero;stroke:none"
           id="path7214" />
      </g>
      <g
         id="g7216"
         transform="matrix(0.35277777,0,0,-0.35277777,113.39789,125.41092)">
        <path
           d="M 0,0 C 0.498,0.114 0.911,-0.041 1.357,-0.258 1.803,-0.475 2.117,0.392 1.724,0.583 1.175,0.851 0.622,1.059 0.008,0.918 -0.42,0.819 -0.473,-0.109 0,0"
           style="fill:#9b4a31;fill-opacity:1;fill-rule:nonzero;stroke:none"
           id="path7218" />
      </g>
      <g
         id="g7220"
         transform="matrix(0.35277777,0,0,-0.35277777,108.95596,126.80676)">
        <path
           d="m 0,0 c -0.594,-0.322 -0.91,-0.88 -1.153,-1.491 -0.194,-0.486 0.372,-0.951 0.599,-0.38 0.16,0.4 0.331,0.796 0.727,1.011 C 0.552,-0.655 0.467,0.253 0,0"
           style="fill:#9b4a31;fill-opacity:1;fill-rule:nonzero;stroke:none"
           id="path7222" />
      </g>
      <g
         id="g7224"
         transform="matrix(0.35277777,0,0,-0.35277777,113.762,129.65163)">
        <path
           d="m 0,0 c 0.392,-0.508 0.47,-0.848 0.219,-1.461 -0.066,-0.162 0.122,-0.316 0.2,-0.127 0.305,0.746 0.237,1.197 -0.25,1.826 C 0.061,0.378 -0.088,0.114 0,0"
           style="fill:#9b4a31;fill-opacity:1;fill-rule:nonzero;stroke:none"
           id="path7226" />
      </g>
      <g
         id="g7228"
         transform="matrix(0.35277777,0,0,-0.35277777,113.22606,130.39846)">
        <path
           d="M 0,0 C 0,0 0.167,0.25 0.458,0.58 0.745,0.916 1.179,1.309 1.629,1.685 2.518,2.448 3.408,3.211 3.408,3.211 L 3.429,3.189 C 3.429,3.189 2.614,2.346 1.8,1.504 1.398,1.077 0.98,0.667 0.628,0.401 0.281,0.129 0.021,-0.023 0.021,-0.023 Z"
           style="fill:#d3702d;fill-opacity:1;fill-rule:nonzero;stroke:none"
           id="path7230" />
      </g>
      <g
         id="g7232"
         transform="matrix(0.35277777,0,0,-0.35277777,113.31566,130.47967)">
        <path
           d="M 0,0 C 0,0 0.306,0.197 0.789,0.437 1.268,0.683 1.936,0.942 2.613,1.178 3.961,1.666 5.308,2.155 5.308,2.155 L 5.32,2.126 c 0,0 -1.307,-0.589 -2.613,-1.178 C 2.056,0.646 1.397,0.365 0.882,0.208 0.369,0.043 0.012,-0.029 0.012,-0.029 Z"
           style="fill:#d3702d;fill-opacity:1;fill-rule:nonzero;stroke:none"
           id="path7234" />
      </g>
      <g
         id="g7236"
         transform="matrix(0.35277777,0,0,-0.35277777,113.3586,130.59725)">
        <path
           d="M 0,0 C 0,0 0.291,0.064 0.726,0.1 1.162,0.143 1.742,0.125 2.321,0.083 3.481,0.016 4.64,-0.051 4.64,-0.051 V -0.082 L 2.318,-0.165 C 1.738,-0.194 1.158,-0.2 0.723,-0.147 0.289,-0.102 0,-0.031 0,-0.031 Z"
           style="fill:#d3702d;fill-opacity:1;fill-rule:nonzero;stroke:none"
           id="path7238" />
      </g>
      <g
         id="g7240"
         transform="matrix(0.35277777,0,0,-0.35277777,112.57402,130.60261)">
        <path
           d="M 0,0 C 0,0 -0.318,0.017 -0.78,0.117 -1.243,0.209 -1.836,0.42 -2.409,0.673 -3.571,1.147 -4.665,1.755 -4.665,1.755 l 0.014,0.028 c 0,0 1.151,-0.483 2.329,-0.877 C -1.728,0.721 -1.138,0.535 -0.707,0.353 -0.275,0.177 0.008,0.03 0.008,0.03 Z"
           style="fill:#d3702d;fill-opacity:1;fill-rule:nonzero;stroke:none"
           id="path7242" />
      </g>
      <g
         id="g7244"
         transform="matrix(0.35277777,0,0,-0.35277777,112.66031,130.71578)">
        <path
           d="M 0,0 C 0,0 -0.298,-0.137 -0.758,-0.283 -1.216,-0.437 -1.844,-0.568 -2.477,-0.676 -3.74,-0.908 -5.003,-1.14 -5.003,-1.14 l -0.007,0.031 c 0,0 1.239,0.338 2.477,0.675 0.618,0.178 1.241,0.331 1.72,0.391 0.478,0.068 0.806,0.073 0.806,0.073 z"
           style="fill:#d3702d;fill-opacity:1;fill-rule:nonzero;stroke:none"
           id="path7246" />
      </g>
      <g
         id="g7248"
         transform="matrix(0.35277777,0,0,-0.35277777,112.42511,130.73053)">
        <path
           d="m 0,0 c -0.055,-0.133 -0.098,-0.283 -0.054,-0.42 0.066,-0.204 0.294,-0.304 0.501,-0.359 0.664,-0.176 1.381,-0.148 2.029,0.081 0.166,0.059 0.329,0.131 0.468,0.24 0.322,0.253 0.473,0.707 0.367,1.103 C 3.204,1.042 2.846,1.358 2.439,1.416 2.255,1.442 2.067,1.419 1.885,1.383 0.99,1.207 0.351,0.851 0,0"
           style="fill:#9b4a31;fill-opacity:1;fill-rule:nonzero;stroke:none"
           id="path7250" />
      </g>
      <g
         id="g7252"
         transform="matrix(0.35277777,0,0,-0.35277777,113.13508,130.74944)">
        <path
           d="M 0,0 C 0.114,0.027 0.231,0.057 0.328,0.14 0.426,0.223 0.498,0.372 0.471,0.506 0.436,0.686 0.258,0.743 0.107,0.759 -0.062,0.776 -0.232,0.777 -0.403,0.762 -0.652,0.74 -1.296,0.573 -1.224,0.092 -1.163,-0.314 -0.23,-0.054 0,0"
           style="fill:#ba6149;fill-opacity:1;fill-rule:nonzero;stroke:none"
           id="path7254" />
      </g>
      <g
         id="g7256"
         transform="matrix(0.35277777,0,0,-0.35277777,111.55569,126.8014)">
        <path
           d="M 0,0 C 0.325,-0.708 0.649,-1.415 0.973,-2.123 1.054,-2.298 1.24,-2.076 1.178,-1.942 0.854,-1.234 0.529,-0.527 0.205,0.181 0.124,0.356 -0.062,0.135 0,0"
           style="fill:#ffaa7b;fill-opacity:1;fill-rule:nonzero;stroke:none"
           id="path7258" />
      </g>
      <g
         id="g7260"
         transform="matrix(0.35277777,0,0,-0.35277777,112.0046,127.79461)">
        <path
           d="m 0,0 c 0.146,-0.451 0.292,-0.901 0.439,-1.352 0.058,-0.18 0.249,0.044 0.205,0.181 C 0.497,-0.72 0.351,-0.269 0.205,0.181 0.146,0.362 -0.045,0.137 0,0"
           style="fill:#ffaa7b;fill-opacity:1;fill-rule:nonzero;stroke:none"
           id="path7262" />
      </g>
      <g
         id="g7264"
         transform="matrix(0.35277777,0,0,-0.35277777,112.30079,128.60847)">
        <path
           d="M 0,0 C 0.182,-0.32 0.323,-0.645 0.426,-0.999 0.483,-1.193 0.698,-1.041 0.653,-0.887 0.543,-0.511 0.398,-0.16 0.205,0.181 0.109,0.349 -0.074,0.13 0,0"
           style="fill:#ffaa7b;fill-opacity:1;fill-rule:nonzero;stroke:none"
           id="path7266" />
      </g>
      <g
         id="g7268"
         transform="matrix(0.35277777,0,0,-0.35277777,112.19111,127.49154)">
        <path
           d="m 0,0 c 0.148,-0.45 0.297,-0.9 0.445,-1.35 0.06,-0.18 0.25,0.044 0.205,0.181 -0.149,0.45 -0.297,0.9 -0.445,1.35 C 0.145,0.362 -0.045,0.137 0,0"
           style="fill:#ffaa7b;fill-opacity:1;fill-rule:nonzero;stroke:none"
           id="path7270" />
      </g>
      <g
         id="g7272"
         transform="matrix(0.35277777,0,0,-0.35277777,112.4763,128.22408)">
        <path
           d="M 0,0 C 0.135,-0.392 0.246,-0.788 0.337,-1.193 0.382,-1.391 0.599,-1.236 0.564,-1.08 0.468,-0.652 0.348,-0.234 0.205,0.181 0.143,0.361 -0.047,0.137 0,0"
           style="fill:#ffaa7b;fill-opacity:1;fill-rule:nonzero;stroke:none"
           id="path7274" />
      </g>
      <g
         id="g7276"
         transform="matrix(0.35277777,0,0,-0.35277777,112.74116,128.99303)">
        <path
           d="M 0,0 C 0.127,-0.464 0.254,-0.928 0.381,-1.392 0.434,-1.588 0.65,-1.435 0.608,-1.28 0.481,-0.816 0.354,-0.352 0.227,0.112 0.173,0.308 -0.042,0.155 0,0"
           style="fill:#ffaa7b;fill-opacity:1;fill-rule:nonzero;stroke:none"
           id="path7278" />
      </g>
      <g
         id="g7280"
         transform="matrix(0.35277777,0,0,-0.35277777,112.58146,129.29656)">
        <path
           d="m 0,0 c 0.162,-0.468 0.351,-0.922 0.57,-1.366 0.085,-0.173 0.27,0.048 0.205,0.181 -0.22,0.444 -0.409,0.898 -0.57,1.366 C 0.143,0.361 -0.047,0.137 0,0"
           style="fill:#ffaa7b;fill-opacity:1;fill-rule:nonzero;stroke:none"
           id="path7282" />
      </g>
      <g
         id="g7284"
         transform="matrix(0.35277777,0,0,-0.35277777,111.55347,127.64168)">
        <path
           d="M 0,0 C 0.246,-0.476 0.516,-0.936 0.81,-1.383 0.906,-1.529 1.058,-1.264 0.98,-1.145 0.698,-0.716 0.441,-0.275 0.205,0.181 0.116,0.353 -0.068,0.132 0,0"
           style="fill:#ffaa7b;fill-opacity:1;fill-rule:nonzero;stroke:none"
           id="path7286" />
      </g>
      <g
         id="g7288"
         transform="matrix(0.35277777,0,0,-0.35277777,111.97415,128.39892)">
        <path
           d="M 0,0 C 0.153,-0.309 0.306,-0.618 0.458,-0.927 0.544,-1.101 0.729,-0.879 0.663,-0.746 0.51,-0.437 0.358,-0.128 0.205,0.181 0.119,0.354 -0.066,0.133 0,0"
           style="fill:#ffaa7b;fill-opacity:1;fill-rule:nonzero;stroke:none"
           id="path7290" />
      </g>
      <g
         id="g7292"
         transform="matrix(0.35277777,0,0,-0.35277777,112.27031,129.19062)">
        <path
           d="M 0,0 C 0.186,-0.215 0.328,-0.439 0.444,-0.7 0.522,-0.876 0.708,-0.654 0.648,-0.519 0.523,-0.236 0.372,0.003 0.169,0.238 0.053,0.373 -0.095,0.11 0,0"
           style="fill:#ffaa7b;fill-opacity:1;fill-rule:nonzero;stroke:none"
           id="path7294" />
      </g>
      <g
         id="g7296"
         transform="matrix(0.35277777,0,0,-0.35277777,112.53779,129.66758)">
        <path
           d="M 0,0 C 0.22,-0.448 0.416,-0.903 0.591,-1.371 0.658,-1.55 0.847,-1.326 0.796,-1.189 0.621,-0.722 0.425,-0.267 0.205,0.181 0.12,0.355 -0.065,0.133 0,0"
           style="fill:#ffaa7b;fill-opacity:1;fill-rule:nonzero;stroke:none"
           id="path7298" />
      </g>
      <g
         id="g7300"
         transform="matrix(0.35277777,0,0,-0.35277777,112.91085,129.78473)">
        <path
           d="m 0,0 c 0.028,-0.401 0.074,-0.798 0.139,-1.195 0.033,-0.2 0.253,-0.043 0.227,0.112 C 0.305,-0.712 0.26,-0.341 0.234,0.035 0.22,0.236 -0.012,0.177 0,0"
           style="fill:#ffaa7b;fill-opacity:1;fill-rule:nonzero;stroke:none"
           id="path7302" />
      </g>
      <g
         id="g7304"
         transform="matrix(0.35277777,0,0,-0.35277777,-89.066312,227.90994)">
        <g
           id="g7306" />
        <g
           id="g7482">
          <g
             clip-path="url(#clipPath7310)"
             opacity="0.300003"
             id="g7480">
            <g
               transform="translate(551.2515,281.4742)"
               id="g7314">
              <path
                 d="M 0,0 C -0.406,0.279 -0.577,0.712 -0.74,1.158 -0.805,1.338 -0.994,1.114 -0.944,0.977 -0.765,0.485 -0.566,0.024 -0.122,-0.28 0.012,-0.372 0.121,-0.083 0,0"
                 style="fill:#9b4a31;fill-opacity:1;fill-rule:nonzero;stroke:none"
                 id="path7312" />
            </g>
            <g
               transform="translate(550.2745,283.2299)"
               id="g7318">
              <path
                 d="M 0,0 C -0.179,0.379 -0.27,0.757 -0.277,1.177 -0.28,1.381 -0.514,1.319 -0.511,1.143 -0.504,0.673 -0.406,0.243 -0.205,-0.181 -0.122,-0.356 0.063,-0.134 0,0"
                 style="fill:#9b4a31;fill-opacity:1;fill-rule:nonzero;stroke:none"
                 id="path7316" />
            </g>
            <g
               transform="translate(551.6672,282.6684)"
               id="g7322">
              <path
                 d="M 0,0 C -0.171,0.122 -0.213,0.475 -0.275,0.661 -0.335,0.841 -0.525,0.617 -0.48,0.48 -0.392,0.215 -0.359,-0.111 -0.122,-0.28 0.01,-0.375 0.12,-0.086 0,0"
                 style="fill:#9b4a31;fill-opacity:1;fill-rule:nonzero;stroke:none"
                 id="path7320" />
            </g>
            <g
               transform="translate(550.6799,284.3618)"
               id="g7326">
              <path
                 d="M 0,0 C -0.117,0.296 -0.174,0.576 -0.181,0.895 -0.185,1.098 -0.418,1.037 -0.415,0.86 -0.407,0.494 -0.34,0.159 -0.205,-0.181 -0.134,-0.359 0.054,-0.136 0,0"
                 style="fill:#9b4a31;fill-opacity:1;fill-rule:nonzero;stroke:none"
                 id="path7324" />
            </g>
            <g
               transform="translate(549.5181,285.1522)"
               id="g7330">
              <path
                 d="M 0,0 C -0.149,0.505 -0.236,1.01 -0.26,1.538 -0.269,1.74 -0.502,1.68 -0.494,1.503 -0.469,0.951 -0.383,0.418 -0.227,-0.112 -0.17,-0.306 0.045,-0.154 0,0"
                 style="fill:#9b4a31;fill-opacity:1;fill-rule:nonzero;stroke:none"
                 id="path7328" />
            </g>
            <g
               transform="translate(549.9509,285.9597)"
               id="g7334">
              <path
                 d="M 0,0 C -0.078,0.404 -0.088,0.778 -0.028,1.183 0,1.373 -0.225,1.424 -0.253,1.231 -0.32,0.777 -0.314,0.338 -0.227,-0.112 -0.188,-0.312 0.03,-0.156 0,0"
                 style="fill:#9b4a31;fill-opacity:1;fill-rule:nonzero;stroke:none"
                 id="path7332" />
            </g>
            <g
               transform="translate(549.3154,287.8043)"
               id="g7338">
              <path
                 d="M 0,0 C 0.086,0.517 0.207,1.021 0.37,1.52 0.423,1.683 0.234,1.841 0.17,1.646 -0.002,1.122 -0.134,0.592 -0.225,0.048 -0.256,-0.141 -0.032,-0.192 0,0"
                 style="fill:#9b4a31;fill-opacity:1;fill-rule:nonzero;stroke:none"
                 id="path7336" />
            </g>
            <g
               transform="translate(549.5814,290.2234)"
               id="g7342">
              <path
                 d="M 0,0 C 0.095,0.386 0.232,0.745 0.412,1.098 0.493,1.256 0.305,1.406 0.212,1.225 0.019,0.847 -0.123,0.46 -0.225,0.048 -0.271,-0.14 -0.046,-0.187 0,0"
                 style="fill:#9b4a31;fill-opacity:1;fill-rule:nonzero;stroke:none"
                 id="path7340" />
            </g>
            <g
               transform="translate(550.0637,288.2519)"
               id="g7346">
              <path
                 d="M 0,0 C 0.045,0.399 0.049,0.843 0.193,1.222 0.255,1.384 0.066,1.54 -0.007,1.349 -0.164,0.936 -0.176,0.483 -0.225,0.048 -0.246,-0.141 -0.022,-0.194 0,0"
                 style="fill:#9b4a31;fill-opacity:1;fill-rule:nonzero;stroke:none"
                 id="path7344" />
            </g>
            <g
               transform="translate(550.2516,290.3668)"
               id="g7350">
              <path
                 d="M 0,0 C 0.176,0.447 0.351,0.894 0.527,1.341 0.591,1.503 0.402,1.658 0.327,1.468 0.151,1.021 -0.024,0.574 -0.2,0.127 -0.263,-0.035 -0.075,-0.191 0,0"
                 style="fill:#9b4a31;fill-opacity:1;fill-rule:nonzero;stroke:none"
                 id="path7348" />
            </g>
            <g
               transform="translate(550.4504,292.1912)"
               id="g7354">
              <path
                 d="M 0,0 C 0.216,0.394 0.467,0.752 0.758,1.094 0.863,1.216 0.728,1.443 0.597,1.289 0.289,0.928 0.028,0.542 -0.2,0.127 -0.285,-0.029 -0.097,-0.177 0,0"
                 style="fill:#9b4a31;fill-opacity:1;fill-rule:nonzero;stroke:none"
                 id="path7352" />
            </g>
            <g
               transform="translate(551.6859,293.7991)"
               id="g7358">
              <path
                 d="M 0,0 C 0.221,0.238 0.452,0.462 0.696,0.677 0.807,0.774 0.728,1.053 0.583,0.926 0.339,0.711 0.108,0.487 -0.113,0.249 -0.212,0.143 -0.13,-0.14 0,0"
                 style="fill:#9b4a31;fill-opacity:1;fill-rule:nonzero;stroke:none"
                 id="path7356" />
            </g>
            <g
               transform="translate(551.489,292.3593)"
               id="g7362">
              <path
                 d="M 0,0 C 0.17,0.269 0.362,0.507 0.59,0.729 0.695,0.831 0.615,1.112 0.477,0.978 0.231,0.739 0.023,0.486 -0.162,0.195 -0.246,0.062 -0.109,-0.172 0,0"
                 style="fill:#9b4a31;fill-opacity:1;fill-rule:nonzero;stroke:none"
                 id="path7360" />
            </g>
            <g
               transform="translate(550.9323,289.4171)"
               id="g7366">
              <path
                 d="M 0,0 C 0.088,0.477 0.194,0.948 0.32,1.416 0.37,1.603 0.144,1.649 0.095,1.464 -0.031,0.996 -0.137,0.524 -0.225,0.048 -0.26,-0.141 -0.035,-0.191 0,0"
                 style="fill:#9b4a31;fill-opacity:1;fill-rule:nonzero;stroke:none"
                 id="path7364" />
            </g>
            <g
               transform="translate(550.7349,286.6571)"
               id="g7370">
              <path
                 d="M 0,0 C -0.001,0.322 0.03,0.633 0.094,0.948 0.133,1.137 -0.092,1.186 -0.131,0.996 -0.201,0.652 -0.235,0.317 -0.234,-0.035 -0.234,-0.238 0,-0.176 0,0"
                 style="fill:#9b4a31;fill-opacity:1;fill-rule:nonzero;stroke:none"
                 id="path7368" />
            </g>
            <g
               transform="translate(553.0107,294.8813)"
               id="g7374">
              <path
                 d="M 0,0 C 0.325,0.33 0.687,0.588 1.107,0.786 1.237,0.847 1.211,1.148 1.049,1.072 0.609,0.865 0.228,0.596 -0.113,0.249 -0.216,0.145 -0.134,-0.136 0,0"
                 style="fill:#9b4a31;fill-opacity:1;fill-rule:nonzero;stroke:none"
                 id="path7372" />
            </g>
            <g
               transform="translate(552.8467,293.6789)"
               id="g7378">
              <path
                 d="M 0,0 C 0.223,0.267 0.466,0.501 0.738,0.717 0.854,0.81 0.776,1.086 0.625,0.966 0.333,0.734 0.077,0.481 -0.162,0.195 -0.264,0.072 -0.13,-0.156 0,0"
                 style="fill:#9b4a31;fill-opacity:1;fill-rule:nonzero;stroke:none"
                 id="path7376" />
            </g>
            <g
               transform="translate(554.8461,296.0756)"
               id="g7382">
              <path
                 d="M 0,0 C 0.616,0.193 1.227,0.23 1.862,0.108 2.013,0.079 2.078,0.383 1.927,0.412 1.273,0.538 0.639,0.505 0.003,0.306 -0.136,0.263 -0.151,-0.047 0,0"
                 style="fill:#9b4a31;fill-opacity:1;fill-rule:nonzero;stroke:none"
                 id="path7380" />
            </g>
            <g
               transform="translate(554.5187,294.8845)"
               id="g7386">
              <path
                 d="M 0,0 C 0.267,0.103 0.535,0.184 0.814,0.246 0.957,0.278 0.975,0.587 0.817,0.552 0.516,0.485 0.229,0.398 -0.058,0.287 -0.192,0.234 -0.167,-0.065 0,0"
                 style="fill:#9b4a31;fill-opacity:1;fill-rule:nonzero;stroke:none"
                 id="path7384" />
            </g>
            <g
               transform="translate(559.1823,295.3578)"
               id="g7390">
              <path
                 d="M 0,0 C -0.488,0.257 -0.979,0.542 -1.543,0.548 -1.687,0.549 -1.711,0.244 -1.545,0.242 -1.032,0.237 -0.565,-0.048 -0.122,-0.28 0.024,-0.357 0.13,-0.068 0,0"
                 style="fill:#9b4a31;fill-opacity:1;fill-rule:nonzero;stroke:none"
                 id="path7388" />
            </g>
            <g
               transform="translate(557.5695,295.218)"
               id="g7394">
              <path
                 d="m 0,0 c -0.307,0.123 -0.61,0.196 -0.94,0.226 -0.154,0.014 -0.215,-0.29 -0.065,-0.304 0.33,-0.03 0.633,-0.103 0.94,-0.226 C 0.073,-0.359 0.143,-0.057 0,0"
                 style="fill:#9b4a31;fill-opacity:1;fill-rule:nonzero;stroke:none"
                 id="path7392" />
            </g>
            <g
               transform="translate(552.4447,292.706)"
               id="g7398">
              <path
                 d="m 0,0 c -0.435,-0.462 -0.73,-0.98 -0.91,-1.589 -0.055,-0.187 0.171,-0.231 0.225,-0.048 0.156,0.529 0.421,0.988 0.798,1.388 C 0.213,-0.143 0.131,0.139 0,0"
                 style="fill:#9b4a31;fill-opacity:1;fill-rule:nonzero;stroke:none"
                 id="path7396" />
            </g>
            <g
               transform="translate(551.879,280.5122)"
               id="g7402">
              <path
                 d="m 0,0 c 0.348,-0.305 0.731,-0.494 1.182,-0.591 0.15,-0.032 0.215,0.272 0.065,0.304 C 0.81,-0.193 0.456,-0.012 0.122,0.28 0.003,0.385 -0.11,0.096 0,0"
                 style="fill:#9b4a31;fill-opacity:1;fill-rule:nonzero;stroke:none"
                 id="path7400" />
            </g>
            <g
               transform="translate(552.2274,281.551)"
               id="g7406">
              <path
                 d="m 0,0 c 0.303,-0.331 0.647,-0.581 1.057,-0.765 0.18,-0.081 0.338,0.186 0.156,0.268 -0.389,0.174 -0.705,0.4 -0.994,0.716 C 0.084,0.366 -0.134,0.147 0,0"
                 style="fill:#9b4a31;fill-opacity:1;fill-rule:nonzero;stroke:none"
                 id="path7404" />
            </g>
            <g
               transform="translate(554.418,280.4642)"
               id="g7410">
              <path
                 d="M 0,0 C 0.588,-0.158 1.176,-0.222 1.783,-0.198 1.929,-0.193 1.952,0.114 1.786,0.108 1.199,0.085 0.631,0.152 0.065,0.304 -0.082,0.344 -0.149,0.04 0,0"
                 style="fill:#9b4a31;fill-opacity:1;fill-rule:nonzero;stroke:none"
                 id="path7408" />
            </g>
            <g
               transform="translate(553.2788,293.2392)"
               id="g7414">
              <path
                 d="M 0,0 C 0.298,0.401 0.647,0.729 1.068,0.997 1.187,1.073 1.157,1.378 1.01,1.284 0.549,0.99 0.164,0.634 -0.162,0.195 -0.256,0.067 -0.121,-0.163 0,0"
                 style="fill:#9b4a31;fill-opacity:1;fill-rule:nonzero;stroke:none"
                 id="path7412" />
            </g>
            <g
               transform="translate(578.994,299.7701)"
               id="g7418">
              <path
                 d="M 0,0 C 0.229,-0.212 0.419,-0.44 0.588,-0.703 0.681,-0.849 0.833,-0.585 0.757,-0.465 0.589,-0.202 0.399,0.026 0.169,0.238 0.038,0.36 -0.106,0.098 0,0"
                 style="fill:#9b4a31;fill-opacity:1;fill-rule:nonzero;stroke:none"
                 id="path7416" />
            </g>
            <g
               transform="translate(578.8141,299.0618)"
               id="g7422">
              <path
                 d="m 0,0 c 0.213,-0.195 0.39,-0.401 0.55,-0.641 0.097,-0.144 0.249,0.12 0.17,0.239 C 0.559,-0.162 0.382,0.044 0.169,0.238 0.037,0.359 -0.107,0.098 0,0"
                 style="fill:#9b4a31;fill-opacity:1;fill-rule:nonzero;stroke:none"
                 id="path7420" />
            </g>
            <g
               transform="translate(579.6968,298.4724)"
               id="g7426">
              <path
                 d="M 0,0 C 0.198,-0.296 0.387,-0.596 0.569,-0.902 0.667,-1.068 0.85,-0.849 0.774,-0.721 0.58,-0.396 0.379,-0.076 0.169,0.238 0.073,0.383 -0.079,0.119 0,0"
                 style="fill:#9b4a31;fill-opacity:1;fill-rule:nonzero;stroke:none"
                 id="path7424" />
            </g>
            <g
               transform="translate(580.2421,298.5731)"
               id="g7430">
              <path
                 d="m 0,0 c 0.243,-0.266 0.44,-0.546 0.604,-0.869 0.087,-0.173 0.272,0.048 0.205,0.181 -0.173,0.34 -0.382,0.644 -0.64,0.926 C 0.049,0.37 -0.098,0.107 0,0"
                 style="fill:#9b4a31;fill-opacity:1;fill-rule:nonzero;stroke:none"
                 id="path7428" />
            </g>
            <g
               transform="translate(581.194,297.0268)"
               id="g7434">
              <path
                 d="M 0,0 C 0.166,-0.283 0.324,-0.57 0.476,-0.861 0.565,-1.032 0.749,-0.812 0.681,-0.68 0.529,-0.389 0.371,-0.102 0.205,0.181 0.107,0.348 -0.076,0.129 0,0"
                 style="fill:#9b4a31;fill-opacity:1;fill-rule:nonzero;stroke:none"
                 id="path7432" />
            </g>
            <g
               transform="translate(580.5416,297.0718)"
               id="g7438">
              <path
                 d="M 0,0 C 0.172,-0.313 0.309,-0.631 0.419,-0.971 0.477,-1.152 0.668,-0.927 0.624,-0.79 0.514,-0.45 0.377,-0.132 0.205,0.181 0.112,0.351 -0.072,0.131 0,0"
                 style="fill:#9b4a31;fill-opacity:1;fill-rule:nonzero;stroke:none"
                 id="path7436" />
            </g>
            <g
               transform="translate(581.4855,295.4783)"
               id="g7442">
              <path
                 d="M 0,0 C 0.135,-0.319 0.244,-0.642 0.33,-0.977 0.38,-1.174 0.596,-1.02 0.556,-0.865 0.465,-0.505 0.35,-0.161 0.205,0.181 0.13,0.358 -0.057,0.136 0,0"
                 style="fill:#9b4a31;fill-opacity:1;fill-rule:nonzero;stroke:none"
                 id="path7440" />
            </g>
            <g
               transform="translate(582.1857,295.1595)"
               id="g7446">
              <path
                 d="M 0,0 C 0.117,-0.391 0.197,-0.781 0.242,-1.188 0.265,-1.389 0.487,-1.23 0.469,-1.075 0.424,-0.669 0.344,-0.279 0.227,0.112 0.169,0.306 -0.046,0.154 0,0"
                 style="fill:#9b4a31;fill-opacity:1;fill-rule:nonzero;stroke:none"
                 id="path7444" />
            </g>
            <g
               transform="translate(581.9835,293.7375)"
               id="g7450">
              <path
                 d="M 0,0 C 0.076,-0.294 0.111,-0.579 0.106,-0.884 0.104,-1.088 0.338,-1.025 0.341,-0.849 0.345,-0.517 0.31,-0.211 0.227,0.112 0.176,0.309 -0.04,0.155 0,0"
                 style="fill:#9b4a31;fill-opacity:1;fill-rule:nonzero;stroke:none"
                 id="path7448" />
            </g>
            <g
               transform="translate(582.5599,292.7878)"
               id="g7454">
              <path
                 d="m 0,0 c 0.018,-0.512 0.09,-1.053 -0.109,-1.538 -0.067,-0.162 0.122,-0.317 0.2,-0.127 0.224,0.546 0.163,1.122 0.143,1.7 C 0.227,0.238 -0.006,0.177 0,0"
                 style="fill:#9b4a31;fill-opacity:1;fill-rule:nonzero;stroke:none"
                 id="path7452" />
            </g>
            <g
               transform="translate(582.1183,292.1594)"
               id="g7458">
              <path
                 d="m 0,0 c 0.01,-0.344 -0.011,-0.678 -0.067,-1.018 -0.032,-0.189 0.193,-0.24 0.225,-0.048 0.061,0.368 0.087,0.728 0.076,1.101 C 0.228,0.238 -0.005,0.177 0,0"
                 style="fill:#9b4a31;fill-opacity:1;fill-rule:nonzero;stroke:none"
                 id="path7456" />
            </g>
            <g
               transform="translate(577.6887,300.5172)"
               id="g7462">
              <path
                 d="m 0,0 c 0.252,-0.133 0.491,-0.25 0.681,-0.47 0.117,-0.135 0.264,0.129 0.17,0.238 C 0.647,0.004 0.396,0.136 0.122,0.28 -0.024,0.357 -0.13,0.068 0,0"
                 style="fill:#9b4a31;fill-opacity:1;fill-rule:nonzero;stroke:none"
                 id="path7460" />
            </g>
            <g
               transform="translate(576.4338,300.4947)"
               id="g7466">
              <path
                 d="m 0,0 c 0.308,-0.129 0.592,-0.208 0.864,-0.417 0.127,-0.098 0.238,0.191 0.122,0.28 C 0.704,0.08 0.439,0.148 0.122,0.28 -0.031,0.344 -0.133,0.056 0,0"
                 style="fill:#9b4a31;fill-opacity:1;fill-rule:nonzero;stroke:none"
                 id="path7464" />
            </g>
            <g
               transform="translate(577.767,299.7143)"
               id="g7470">
              <path
                 d="M 0,0 C 0.222,-0.148 0.505,-0.304 0.663,-0.526 0.764,-0.669 0.915,-0.405 0.832,-0.288 0.661,-0.046 0.364,0.12 0.122,0.28 -0.014,0.371 -0.122,0.082 0,0"
                 style="fill:#9b4a31;fill-opacity:1;fill-rule:nonzero;stroke:none"
                 id="path7468" />
            </g>
            <g
               transform="translate(575.0557,300.5562)"
               id="g7474">
              <path
                 d="M 0,0 C 0.289,0.141 0.559,0.195 0.875,0.187 1.018,0.183 1.043,0.488 0.877,0.492 0.535,0.502 0.248,0.436 -0.058,0.287 -0.187,0.223 -0.16,-0.078 0,0"
                 style="fill:#9b4a31;fill-opacity:1;fill-rule:nonzero;stroke:none"
                 id="path7472" />
            </g>
            <g
               transform="translate(575.7506,299.9742)"
               id="g7478">
              <path
                 d="M 0,0 C 0.242,-0.037 0.575,-0.032 0.753,-0.236 0.87,-0.37 1.017,-0.107 0.922,0.002 0.7,0.258 0.383,0.255 0.065,0.304 -0.088,0.328 -0.151,0.023 0,0"
                 style="fill:#9b4a31;fill-opacity:1;fill-rule:nonzero;stroke:none"
                 id="path7476" />
            </g>
          </g>
        </g>
      </g>
      <g
         id="g7484"
         transform="matrix(0.35277777,0,0,-0.35277777,104.15995,129.24255)">
        <path
           d="m 0,0 c 2.376,-0.811 4.734,-2.266 5.049,-4.974 0.018,-0.153 0.244,-0.162 0.246,0 C 5.313,-2.27 2.403,-0.36 0.055,0.199 -0.075,0.23 -0.125,0.043 0,0"
           style="fill:#c1682d;fill-opacity:1;fill-rule:nonzero;stroke:none"
           id="path7486" />
      </g>
      <g
         id="g7488"
         transform="matrix(0.35277777,0,0,-0.35277777,105.85533,130.05754)">
        <path
           d="M 0,0 C 0.417,-0.425 0.574,-0.838 0.763,-1.39 0.811,-1.53 1,-1.471 0.979,-1.33 0.897,-0.755 0.651,-0.14 0.124,0.161 0.023,0.219 -0.082,0.084 0,0"
           style="fill:#c1682d;fill-opacity:1;fill-rule:nonzero;stroke:none"
           id="path7490" />
      </g>
      <g
         id="g7492"
         transform="matrix(0.35277777,0,0,-0.35277777,106.20673,130.32325)">
        <path
           d="m 0,0 c 0.213,-0.393 0.383,-0.755 0.458,-1.198 0.02,-0.116 0.196,-0.083 0.2,0.027 C 0.673,-0.674 0.456,-0.264 0.157,0.121 0.085,0.214 -0.052,0.096 0,0"
           style="fill:#c1682d;fill-opacity:1;fill-rule:nonzero;stroke:none"
           id="path7494" />
      </g>
      <g
         id="g7496"
         transform="matrix(0.35277777,0,0,-0.35277777,101.73605,127.28901)">
        <path
           d="M 0,0 C 0.051,0.874 0.607,1.516 0.87,2.318 0.912,2.444 0.716,2.527 0.654,2.409 0.253,1.65 -0.229,0.883 -0.227,0 c 0,-0.147 0.219,-0.145 0.227,0"
           style="fill:#c1682d;fill-opacity:1;fill-rule:nonzero;stroke:none"
           id="path7498" />
      </g>
      <g
         id="g7500"
         transform="matrix(0.35277777,0,0,-0.35277777,102.25961,126.12886)">
        <path
           d="M 0,0 C 0.027,0.471 0.576,0.877 0.884,1.183 0.983,1.282 0.857,1.437 0.738,1.373 0.292,1.135 -0.239,0.538 -0.188,0 -0.177,-0.12 -0.007,-0.122 0,0"
           style="fill:#c1682d;fill-opacity:1;fill-rule:nonzero;stroke:none"
           id="path7502" />
      </g>
      <g
         id="g7504"
         transform="matrix(0.35277777,0,0,-0.35277777,102.82994,125.45626)">
        <path
           d="M 0,0 C 0.181,0.192 0.373,0.359 0.575,0.529 0.676,0.613 0.548,0.756 0.442,0.702 0.195,0.577 -0.032,0.367 -0.148,0.114 -0.189,0.023 -0.078,-0.083 0,0"
           style="fill:#c1682d;fill-opacity:1;fill-rule:nonzero;stroke:none"
           id="path7506" />
      </g>
      <g
         id="g7508"
         transform="matrix(0.35277777,0,0,-0.35277777,103.16642,125.31818)">
        <path
           d="M 0,0 C 0.156,0.095 0.289,0.199 0.419,0.327 0.52,0.428 0.372,0.563 0.266,0.48 0.141,0.382 0.018,0.283 -0.115,0.196 -0.236,0.117 -0.126,-0.076 0,0"
           style="fill:#c1682d;fill-opacity:1;fill-rule:nonzero;stroke:none"
           id="path7510" />
      </g>
      <g
         id="g7512"
         transform="matrix(0.35277777,0,0,-0.35277777,110.57137,132.19121)">
        <path
           d="M 0,0 C 0.827,-0.169 1.656,-0.513 2.433,-0.834 2.567,-0.889 2.641,-0.68 2.528,-0.609 2.156,-0.37 1.725,-0.243 1.306,-0.112 0.883,0.02 0.469,0.156 0.023,0.171 -0.073,0.174 -0.097,0.02 0,0"
           style="fill:#c1682d;fill-opacity:1;fill-rule:nonzero;stroke:none"
           id="path7514" />
      </g>
      <g
         id="g7516"
         transform="matrix(0.35277777,0,0,-0.35277777,108.85585,131.84196)">
        <path
           d="m 0,0 c 0.427,-0.056 0.798,-0.264 1.213,-0.365 0.152,-0.036 0.21,0.182 0.064,0.232 C 0.863,0.01 0.451,0.266 0,0.208 -0.133,0.19 -0.133,0.018 0,0"
           style="fill:#c1682d;fill-opacity:1;fill-rule:nonzero;stroke:none"
           id="path7518" />
      </g>
    </g>
  </g>
</svg>
