<?xml version="1.0" encoding="UTF-8" standalone="no"?>
<!-- Created with Inkscape (http://www.inkscape.org/) -->

<svg
   width="23.634468mm"
   height="28.314932mm"
   viewBox="0 0 23.634468 28.314932"
   version="1.1"
   id="svg55298"
   inkscape:version="1.1-rc (52f87abb86, 2021-05-02)"
   sodipodi:docname="t-toucan.svg"
   xmlns:inkscape="http://www.inkscape.org/namespaces/inkscape"
   xmlns:sodipodi="http://sodipodi.sourceforge.net/DTD/sodipodi-0.dtd"
   xmlns="http://www.w3.org/2000/svg"
   xmlns:svg="http://www.w3.org/2000/svg">
  <sodipodi:namedview
     id="namedview55300"
     pagecolor="#ffffff"
     bordercolor="#666666"
     borderopacity="1.0"
     objecttolerance="10.0"
     gridtolerance="10.0"
     guidetolerance="10.0"
     inkscape:pageshadow="2"
     inkscape:pageopacity="0.0"
     inkscape:pagecheckerboard="0"
     inkscape:document-units="mm"
     showgrid="false"
     fit-margin-top="0"
     fit-margin-left="0"
     fit-margin-right="0"
     fit-margin-bottom="0"
     inkscape:zoom="0.94875842"
     inkscape:cx="-301.4466"
     inkscape:cy="155.46634"
     inkscape:window-width="3840"
     inkscape:window-height="2066"
     inkscape:window-x="2869"
     inkscape:window-y="-11"
     inkscape:window-maximized="1"
     inkscape:current-layer="layer1" />
  <defs
     id="defs55295">
    <clipPath
       clipPathUnits="userSpaceOnUse"
       id="clipPath5854">
      <path
         d="m 543.224,196.585 h 26.694 v -8.536 h -26.694 z"
         id="path5852" />
    </clipPath>
    <clipPath
       clipPathUnits="userSpaceOnUse"
       id="clipPath5874">
      <path
         d="m 576.138,182.651 h 15.123 v -16.055 h -15.123 z"
         id="path5872" />
    </clipPath>
  </defs>
  <g
     inkscape:label="Layer 1"
     inkscape:groupmode="layer"
     id="layer1"
     transform="translate(-184.7884,-107.43127)">
    <g
       id="g28296"
       transform="translate(83.112847,-34.981185)">
      <g
         id="g5832"
         transform="matrix(0.35277777,0,0,-0.35277777,115.07595,169.88361)">
        <path
           d="m 0,0 c -0.651,11.513 -1.086,24.22 -1.086,36.492 0,8.906 0.109,13.902 0.652,26.826 -7.386,-0.869 -13.25,-1.847 -13.25,-1.847 l -2.39,12.599 c 0,0 10.644,1.846 21.07,2.715 10.101,0.76 20.309,1.086 20.309,1.086 l 2.064,-12.056 c 0,0 -5.974,-0.325 -13.467,-0.977 C 13.467,54.413 13.25,46.592 13.25,36.492 13.25,23.46 13.467,10.97 13.684,-1.194 Z"
           style="fill:#10826c;fill-opacity:1;fill-rule:nonzero;stroke:none"
           id="path5834" />
      </g>
      <g
         id="g5836"
         transform="matrix(0.35277777,0,0,-0.35277777,110.16313,154.99681)">
        <path
           d="m 0,0 c -1.747,-0.613 -4.056,0.387 -5.41,-1.064 -1.102,-1.182 -0.647,-3.482 -0.567,-4.945 0.098,-1.782 0.452,-3.551 1.06,-5.229 0.385,-1.064 0.879,-2.108 1.634,-2.951 1.003,-1.117 2.386,-1.801 3.66,-2.595 1.666,-1.039 4.941,-1.279 4.797,-3.326 -0.161,-2.282 0.148,-5.069 0,-7.354 -0.146,-2.246 0.043,-3.927 0.772,-6.057 0.849,-2.482 1.71,-4.276 3.973,-5.602 2.263,-1.326 4.699,-2.821 7.313,-3.04 2.936,-0.246 4.407,-0.448 7.161,0.599 2.755,1.047 5.244,2.887 6.839,5.365 l -0.423,0.164 c -0.956,-0.085 -1.917,-0.099 -2.875,-0.041 -0.394,0.024 -0.805,0.065 -1.138,0.278 -0.384,0.245 -0.603,0.677 -0.773,1.099 -1.255,3.104 -0.869,6.585 -0.78,9.931 0.12,4.493 0.197,10.356 -1.015,14.683 C 23.019,-5.766 20.727,-1.127 16.81,0.963 12.019,3.52 5.078,2.714 0,0"
           style="fill:#1e5359;fill-opacity:1;fill-rule:nonzero;stroke:none"
           id="path5838" />
      </g>
      <g
         id="g5840"
         transform="matrix(0.35277777,0,0,-0.35277777,117.41819,168.98282)">
        <path
           d="m 0,0 c -0.349,1.464 -1.494,2.599 -2.681,3.523 -1.187,0.925 -2.491,1.749 -3.396,2.952 -1.276,1.697 -1.591,3.949 -1.422,6.065 0.169,2.116 0.772,4.17 1.159,6.258 0.429,2.318 0.59,4.685 0.48,7.039 -0.125,2.646 -0.753,5.549 -2.892,7.111 -0.879,0.642 -1.936,0.993 -2.998,1.231 -2.518,0.566 -4.024,-0.074 -6.556,-1.639 l -5.846,-3.499 c -0.279,-0.618 -0.546,-1.243 -0.806,-1.871 0.299,-0.617 0.653,-1.204 1.11,-1.713 1.002,-1.118 2.385,-1.801 3.66,-2.596 1.665,-1.039 3.055,-2.249 2.911,-4.296 -0.161,-2.282 -0.459,-4.554 -0.607,-6.838 -0.146,-2.246 -0.21,-4.557 0.518,-6.687 0.849,-2.481 2.744,-4.528 5.007,-5.854 2.263,-1.325 4.875,-1.971 7.488,-2.19 1.36,-0.114 2.735,-0.108 4.093,0.029 C -0.015,-2.267 0.225,-0.945 0,0"
           style="fill:#ffffff;fill-opacity:1;fill-rule:nonzero;stroke:none"
           id="path5842" />
      </g>
      <g
         id="g5844"
         transform="matrix(0.35277777,0,0,-0.35277777,102.53763,162.3306)">
        <path
           d="m 0,0 c 0.982,1.402 2.68,2.107 4.334,2.547 2.688,0.715 5.792,-0.224 8.392,-0.683 1.963,-0.346 4.978,-1.256 6.968,-1.166 1.748,0.078 3.979,0.324 5.13,1.375 1.681,1.536 2.14,5.963 1.91,6.391 -1.328,1.098 -3.389,1.893 -4.696,2.093 -1.307,0.201 -8.787,0.164 -11.21,-0.035 C 9.531,10.416 8.27,10.055 7.019,9.696 5.452,9.246 3.866,8.788 2.465,7.954 1.565,7.42 0.76,6.74 0.002,6.019 -0.732,5.32 -1.478,4.435 -1.364,3.427"
           style="fill:#ffa227;fill-opacity:1;fill-rule:nonzero;stroke:none"
           id="path5846" />
      </g>
      <g
         id="g5848"
         transform="matrix(0.35277777,0,0,-0.35277777,-89.066312,227.90994)">
        <g
           id="g5850" />
        <g
           id="g5862">
          <g
             clip-path="url(#clipPath5854)"
             opacity="0.550003"
             id="g5860">
            <g
               transform="translate(565.1673,196.4516)"
               id="g5858">
              <path
                 d="m 0,0 c -1.307,0.201 -8.787,0.164 -11.21,-0.035 -0.24,-0.02 -0.478,-0.056 -0.716,-0.092 -3.859,-2.033 -7.303,-4.86 -10.017,-8.276 2.321,1.847 5.258,2.795 8.205,3.135 2.947,0.34 5.928,0.107 8.879,-0.195 2.782,-0.285 5.747,-0.6 8.241,0.667 0.475,0.241 0.942,0.568 1.265,0.983 0.124,0.879 0.133,1.565 0.049,1.72 C 3.368,-0.995 1.307,-0.201 0,0"
                 style="fill:#cca581;fill-opacity:1;fill-rule:nonzero;stroke:none"
                 id="path5856" />
            </g>
          </g>
        </g>
      </g>
      <g
         id="g5864"
         transform="matrix(0.35277777,0,0,-0.35277777,120.90536,167.87531)">
        <path
           d="m 0,0 c -0.41,2.952 -0.232,5.985 0.521,8.869 0.404,1.547 1.174,3.249 2.713,3.684 0.256,0.073 0.546,0.1 0.774,-0.035 C 4.305,12.341 4.395,11.959 4.441,11.616 5,7.469 2.361,4.466 0.577,0.68 3.16,3.884 6.898,6.213 10.9,7.172 11.368,7.284 11.931,7.335 12.266,6.989 12.758,6.48 12.336,5.636 11.857,5.115 9.047,2.062 4.137,0.313 0,0"
           style="fill:#1e5359;fill-opacity:1;fill-rule:nonzero;stroke:none"
           id="path5866" />
      </g>
      <g
         id="g5868"
         transform="matrix(0.35277777,0,0,-0.35277777,-89.066312,227.90994)">
        <g
           id="g5870" />
        <g
           id="g5882">
          <g
             clip-path="url(#clipPath5874)"
             opacity="0.550003"
             id="g5880">
            <g
               transform="translate(589.8551,169.2383)"
               id="g5878">
              <path
                 d="m 0,0 c -0.295,0.56 -0.55,1.015 -0.591,1.096 -1.36,2.679 -1.515,5.775 -2.947,8.421 -0.821,1.516 -2.054,2.87 -3.651,3.519 -1.598,0.649 -3.582,0.481 -4.858,-0.68 -1.052,-0.958 -1.494,-2.425 -1.629,-3.842 -0.314,-3.311 1.194,-7.032 4.026,-8.891 3.027,-1.988 6.749,-2.931 11.015,-1.74 C 1.63,-2.044 0.546,-1.035 0,0"
                 style="fill:#cca581;fill-opacity:1;fill-rule:nonzero;stroke:none"
                 id="path5876" />
            </g>
          </g>
        </g>
      </g>
      <g
         id="g5884"
         transform="matrix(0.35277777,0,0,-0.35277777,119.14334,167.93345)">
        <path
           d="m 0,0 c -0.295,0.56 -0.55,1.015 -0.591,1.096 -1.359,2.679 -1.515,5.775 -2.947,8.42 -0.821,1.517 -2.053,2.87 -3.651,3.52 -1.598,0.649 -3.582,0.481 -4.857,-0.68 -1.053,-0.959 -1.495,-2.425 -1.63,-3.842 -0.145,-1.528 0.023,-3.109 0.668,-4.501 0.756,-1.629 2.121,-2.91 3.623,-3.896 3.026,-1.988 6.738,-2.91 10.343,-2.569 C 1.231,-2.426 0.546,-1.036 0,0"
           style="fill:#21a58f;fill-opacity:1;fill-rule:nonzero;stroke:none"
           id="path5886" />
      </g>
      <g
         id="g5888"
         transform="matrix(0.35277777,0,0,-0.35277777,115.81957,166.31476)">
        <path
           d="m 0,0 c 2.276,-3.391 6.133,-6.705 10.317,-7.27 0.298,-0.04 0.421,0.352 0.126,0.459 C 6.403,-5.343 2.859,-3.397 0.285,0.167 0.163,0.336 -0.12,0.179 0,0"
           style="fill:#078e74;fill-opacity:1;fill-rule:nonzero;stroke:none"
           id="path5890" />
      </g>
      <g
         id="g5892"
         transform="matrix(0.35277777,0,0,-0.35277777,117.58459,166.13118)">
        <path
           d="M 0,0 C 0.587,-1.654 1.296,-3.284 2.213,-4.783 2.922,-5.94 3.92,-7.425 5.306,-7.816 5.607,-7.9 5.748,-7.498 5.51,-7.333 2.978,-5.58 1.575,-2.681 0.516,0.142 0.397,0.46 -0.116,0.327 0,0"
           style="fill:#078e74;fill-opacity:1;fill-rule:nonzero;stroke:none"
           id="path5894" />
      </g>
      <g
         id="g5896"
         transform="matrix(0.35277777,0,0,-0.35277777,110.44553,154.9604)">
        <path
           d="m 0,0 c -3.625,1.82 -9.905,0.014 -13.662,-1.444 -4.019,-1.56 -8.001,-4.169 -9.855,-8.407 -1.815,-4.15 -1.588,-13.575 -0.512,-13.575 1.075,0 1.639,4.909 6.049,7.087 2.71,1.338 5.74,1.576 8.702,1.779 5.142,0.354 11.334,-1.107 13.047,1.061 C 5.482,-11.33 5.14,-3.839 0,0"
           style="fill:#fedd14;fill-opacity:1;fill-rule:nonzero;stroke:none"
           id="path5898" />
      </g>
      <g
         id="g5900"
         transform="matrix(0.35277777,0,0,-0.35277777,105.45507,156.62075)">
        <path
           d="m 0,0 c -0.904,0.17 -1.824,-0.169 -2.643,-0.587 -3.061,-1.56 -5.55,-4.519 -5.878,-7.938 0,0 1.113,1.252 1.729,1.639 2.166,1.362 4.498,2.281 7.082,3.435 C 0.911,-3.174 1.444,-2.6 1.565,-1.93 1.729,-1.025 0.904,-0.171 0,0"
           style="fill:#fff772;fill-opacity:1;fill-rule:nonzero;stroke:none"
           id="path5902" />
      </g>
      <g
         id="g5904"
         transform="matrix(0.35277777,0,0,-0.35277777,113.06156,158.75262)">
        <path
           d="m 0,0 c 0.152,-0.391 0.358,-0.789 0.708,-1.006 0.594,-0.369 1.17,-0.451 1.831,-0.166 1.156,0.501 1.238,2.116 0.43,2.854 C 2.429,2.175 1.635,2.3 0.943,2.067 0.129,1.793 -0.338,0.871 0,0"
           style="fill:#1e405b;fill-opacity:1;fill-rule:nonzero;stroke:none"
           id="path5906" />
      </g>
      <g
         id="g5908"
         transform="matrix(0.35277777,0,0,-0.35277777,113.32106,158.55351)">
        <path
           d="M 0,0 C 0.061,-0.157 0.143,-0.316 0.284,-0.403 0.522,-0.551 0.753,-0.584 1.018,-0.47 1.481,-0.269 1.514,0.378 1.19,0.674 0.974,0.872 0.656,0.922 0.378,0.829 0.052,0.719 -0.135,0.349 0,0"
           style="fill:#ffffff;fill-opacity:1;fill-rule:nonzero;stroke:none"
           id="path5910" />
      </g>
      <g
         id="g5912"
         transform="matrix(0.35277777,0,0,-0.35277777,114.68158,169.74267)">
        <path
           d="M 0,0 C -0.024,0.234 -0.128,0.431 -0.244,0.61 -0.644,1.229 -0.926,1.488 -1.637,1.6 -2.496,1.735 -3.711,1.318 -4.134,0.348 -4.211,0.17 -4.274,-0.014 -4.321,-0.2 c -0.162,-0.645 -0.157,-1.299 -0.078,-1.915 0.008,-0.064 0.018,-0.131 0.053,-0.178 0.056,-0.072 0.162,-0.073 0.252,-0.032 0.09,0.04 0.169,0.115 0.249,0.185 0.903,0.798 2.006,1.11 3.054,1.251 0.193,0.026 0.401,0.055 0.564,0.208 C -0.05,-0.515 0.024,-0.234 0,0"
           style="fill:#dd7303;fill-opacity:1;fill-rule:nonzero;stroke:none"
           id="path5914" />
      </g>
      <g
         id="g5916"
         transform="matrix(0.35277777,0,0,-0.35277777,115.57517,169.62879)">
        <path
           d="M 0,0 C -0.249,0.181 -0.525,0.327 -0.82,0.417 -1.279,0.555 -1.789,0.55 -2.226,0.354 -2.631,0.172 -2.952,-0.161 -3.207,-0.525 -3.345,-0.723 -3.468,-0.934 -3.551,-1.161 -3.643,-1.408 -3.686,-1.67 -3.729,-1.93 l -0.163,-0.984 c -0.005,-0.031 -0.009,-0.066 0.009,-0.091 0.024,-0.035 0.074,-0.035 0.116,-0.03 0.152,0.02 0.298,0.068 0.443,0.116 1.183,0.391 2.386,0.791 3.403,1.511 0.285,0.202 0.495,0.439 0.462,0.811 C 0.513,-0.284 0.233,-0.169 0,0"
           style="fill:#dd7303;fill-opacity:1;fill-rule:nonzero;stroke:none"
           id="path5918" />
      </g>
      <g
         id="g5920"
         transform="matrix(0.35277777,0,0,-0.35277777,115.44983,169.69886)">
        <path
           d="M 0,0 C -0.092,0.26 -0.209,0.515 -0.378,0.733 -0.822,1.306 -1.597,1.566 -2.317,1.487 -3.037,1.408 -3.7,1.026 -4.22,0.522 -4.637,0.12 -4.828,-0.428 -4.985,-0.971 c -0.175,-0.6 -0.304,-1.221 -0.031,-1.815 0.018,-0.038 0.037,-0.077 0.071,-0.101 0.068,-0.051 0.165,-0.024 0.245,0.007 0.692,0.268 1.309,0.699 1.993,0.986 0.782,0.329 1.654,0.472 2.349,0.959"
           style="fill:#dd7303;fill-opacity:1;fill-rule:nonzero;stroke:none"
           id="path5922" />
      </g>
      <g
         id="g5924"
         transform="matrix(0.35277777,0,0,-0.35277777,114.79306,169.91691)">
        <path
           d="M 0,0 C 0.055,0 0.055,0.085 0,0.085 -0.054,0.085 -0.054,0 0,0"
           style="fill:#c66610;fill-opacity:1;fill-rule:nonzero;stroke:none"
           id="path5926" />
      </g>
      <g
         id="g5928"
         transform="matrix(0.35277777,0,0,-0.35277777,115.06523,169.59461)">
        <path
           d="m 0,0 c -1.061,-0.314 -2.259,-1.407 -2.317,-2.585 -0.006,-0.123 0.162,-0.154 0.222,-0.06 0.303,0.474 0.494,0.972 0.881,1.4 0.375,0.414 0.827,0.744 1.306,1.028 C 0.206,-0.149 0.132,0.039 0,0"
           style="fill:#c66610;fill-opacity:1;fill-rule:nonzero;stroke:none"
           id="path5930" />
      </g>
      <g
         id="g5932"
         transform="matrix(0.35277777,0,0,-0.35277777,114.28083,169.26949)">
        <path
           d="m 0,0 c -0.947,-0.434 -1.827,-1.492 -1.872,-2.573 -0.005,-0.122 0.161,-0.156 0.221,-0.06 0.266,0.426 0.407,0.914 0.702,1.33 0.304,0.429 0.693,0.779 1.093,1.116 C 0.255,-0.093 0.114,0.052 0,0"
           style="fill:#c66610;fill-opacity:1;fill-rule:nonzero;stroke:none"
           id="path5934" />
      </g>
      <g
         id="g5936"
         transform="matrix(0.35277777,0,0,-0.35277777,116.7961,164.07523)">
        <path
           d="m 0,0 c -0.457,0.308 -0.993,0.491 -1.403,0.181 -0.116,-0.089 -0.169,-0.242 -0.168,-0.389 0.002,-0.146 0.052,-0.287 0.108,-0.422 0.175,-0.419 0.423,-0.812 0.758,-1.119 0.335,-0.307 0.759,-0.524 1.21,-0.573 0.085,-0.01 0.174,-0.012 0.251,0.025 0.673,0.322 0.389,1.128 0.015,1.592 C 0.6,-0.493 0.32,-0.216 0,0"
           style="fill:#fedd14;fill-opacity:1;fill-rule:nonzero;stroke:none"
           id="path5938" />
      </g>
      <g
         id="g5940"
         transform="matrix(0.35277777,0,0,-0.35277777,117.73921,164.74011)">
        <path
           d="M 0,0 C -0.202,0.347 -0.496,0.636 -0.863,0.562 -0.967,0.541 -1.05,0.457 -1.095,0.36 -1.14,0.264 -1.153,0.155 -1.158,0.049 c -0.018,-0.33 0.02,-0.666 0.143,-0.973 0.122,-0.307 0.332,-0.583 0.612,-0.758 0.053,-0.033 0.11,-0.063 0.173,-0.063 0.543,-10e-4 0.611,0.617 0.513,1.039 C 0.238,-0.513 0.141,-0.242 0,0"
           style="fill:#fedd14;fill-opacity:1;fill-rule:nonzero;stroke:none"
           id="path5942" />
      </g>
      <g
         id="g5944"
         transform="matrix(0.35277777,0,0,-0.35277777,117.41046,165.38809)">
        <path
           d="M 0,0 C -0.111,0.19 -0.272,0.348 -0.472,0.308 -0.529,0.296 -0.575,0.25 -0.6,0.197 -0.625,0.144 -0.631,0.085 -0.634,0.027 c -0.01,-0.181 0.011,-0.365 0.078,-0.533 0.067,-0.168 0.182,-0.319 0.335,-0.415 0.029,-0.018 0.061,-0.035 0.095,-0.035 0.297,0 0.335,0.338 0.281,0.569 C 0.13,-0.281 0.077,-0.133 0,0"
           style="fill:#fedd14;fill-opacity:1;fill-rule:nonzero;stroke:none"
           id="path5946" />
      </g>
      <g
         id="g5948"
         transform="matrix(0.35277777,0,0,-0.35277777,115.73822,155.53553)">
        <path
           d="M 0,0 C 1.33,-0.443 2.264,-1.264 3.314,-2.142 3.452,-2.258 3.688,-2.111 3.579,-1.938 2.829,-0.751 1.401,-0.044 0.083,0.299 -0.112,0.35 -0.189,0.063 0,0"
           style="fill:#153144;fill-opacity:1;fill-rule:nonzero;stroke:none"
           id="path5950" />
      </g>
      <g
         id="g5952"
         transform="matrix(0.35277777,0,0,-0.35277777,117.27976,156.68774)">
        <path
           d="M 0,0 C 0.237,-0.227 0.434,-0.481 0.573,-0.778 0.687,-1.021 0.726,-1.291 0.919,-1.485 0.971,-1.538 1.082,-1.534 1.116,-1.46 1.393,-0.858 0.757,-0.048 0.35,0.35 0.122,0.574 -0.23,0.221 0,0"
           style="fill:#153144;fill-opacity:1;fill-rule:nonzero;stroke:none"
           id="path5954" />
      </g>
      <g
         id="g5956"
         transform="matrix(0.35277777,0,0,-0.35277777,116.55646,156.65141)">
        <path
           d="M 0,0 C 0.363,-0.248 0.705,-0.559 0.967,-0.914 1.186,-1.211 1.313,-1.566 1.544,-1.852 1.651,-1.986 1.901,-1.877 1.887,-1.71 1.818,-0.839 0.907,-0.057 0.183,0.314 -0.026,0.421 -0.193,0.132 0,0"
           style="fill:#153144;fill-opacity:1;fill-rule:nonzero;stroke:none"
           id="path5958" />
      </g>
      <g
         id="g5960"
         transform="matrix(0.35277777,0,0,-0.35277777,117.80003,157.86136)">
        <path
           d="M 0,0 C 0.216,-0.467 0.317,-0.976 0.566,-1.424 0.641,-1.56 0.824,-1.485 0.837,-1.351 0.89,-0.792 0.641,-0.258 0.411,0.24 0.282,0.518 -0.128,0.276 0,0"
           style="fill:#153144;fill-opacity:1;fill-rule:nonzero;stroke:none"
           id="path5962" />
      </g>
      <g
         id="g5964"
         transform="matrix(0.35277777,0,0,-0.35277777,117.34481,157.80781)">
        <path
           d="M 0,0 C 0.113,-0.388 0.202,-0.825 0.433,-1.162 0.525,-1.296 0.79,-1.265 0.772,-1.07 0.732,-0.644 0.519,-0.242 0.35,0.147 0.263,0.348 -0.06,0.205 0,0"
           style="fill:#153144;fill-opacity:1;fill-rule:nonzero;stroke:none"
           id="path5966" />
      </g>
      <g
         id="g5968"
         transform="matrix(0.35277777,0,0,-0.35277777,118.33174,158.88904)">
        <path
           d="m 0,0 c 0.018,-0.722 -0.069,-1.558 0.159,-2.25 0.047,-0.14 0.27,-0.162 0.306,0 C 0.623,-1.538 0.457,-0.721 0.403,0 0.384,0.255 -0.007,0.262 0,0"
           style="fill:#153144;fill-opacity:1;fill-rule:nonzero;stroke:none"
           id="path5970" />
      </g>
      <g
         id="g5972"
         transform="matrix(0.35277777,0,0,-0.35277777,117.70182,158.77276)">
        <path
           d="M 0,0 C 0.059,-0.306 0.108,-0.613 0.146,-0.922 0.174,-1.148 0.182,-1.342 0.309,-1.536 0.39,-1.66 0.554,-1.627 0.605,-1.498 0.786,-1.033 0.527,-0.35 0.414,0.114 0.348,0.385 -0.052,0.269 0,0"
           style="fill:#153144;fill-opacity:1;fill-rule:nonzero;stroke:none"
           id="path5974" />
      </g>
      <g
         id="g5976"
         transform="matrix(0.35277777,0,0,-0.35277777,116.53479,157.58196)">
        <path
           d="M 0,0 C 0.366,-0.431 0.588,-1.069 1.033,-1.414 1.137,-1.495 1.283,-1.447 1.292,-1.307 1.333,-0.681 0.75,-0.073 0.35,0.35 0.129,0.585 -0.204,0.24 0,0"
           style="fill:#153144;fill-opacity:1;fill-rule:nonzero;stroke:none"
           id="path5978" />
      </g>
      <g
         id="g5980"
         transform="matrix(0.35277777,0,0,-0.35277777,115.74161,156.30868)">
        <path
           d="m 0,0 c 0.302,-0.087 0.597,-0.19 0.882,-0.322 0.233,-0.109 0.444,-0.257 0.692,-0.325 0.188,-0.052 0.317,0.183 0.187,0.32 C 1.374,0.081 0.642,0.279 0.116,0.42 -0.155,0.493 -0.27,0.078 0,0"
           style="fill:#153144;fill-opacity:1;fill-rule:nonzero;stroke:none"
           id="path5982" />
      </g>
      <g
         id="g5984"
         transform="matrix(0.35277777,0,0,-0.35277777,118.4218,160.41724)">
        <path
           d="M 0,0 C 0.015,-0.326 -0.094,-0.731 0.104,-1.007 0.144,-1.061 0.213,-1.075 0.265,-1.027 0.534,-0.781 0.451,-0.334 0.429,0 0.411,0.273 -0.013,0.278 0,0"
           style="fill:#153144;fill-opacity:1;fill-rule:nonzero;stroke:none"
           id="path5986" />
      </g>
      <g
         id="g5988"
         transform="matrix(0.35277777,0,0,-0.35277777,117.72454,159.63749)">
        <path
           d="m 0,0 c -0.052,-0.334 -0.126,-0.722 0,-1.041 0.062,-0.156 0.257,-0.156 0.319,0 0.126,0.319 0.052,0.707 0,1.041 C 0.294,0.158 0.025,0.158 0,0"
           style="fill:#153144;fill-opacity:1;fill-rule:nonzero;stroke:none"
           id="path5990" />
      </g>
      <g
         id="g5992"
         transform="matrix(0.35277777,0,0,-0.35277777,117.14432,159.03064)">
        <path
           d="M 0,0 C 0.057,-0.295 0.094,-0.587 0.215,-0.862 0.293,-1.039 0.567,-0.942 0.566,-0.767 0.564,-0.467 0.47,-0.181 0.401,0.111 0.339,0.373 -0.05,0.26 0,0"
           style="fill:#153144;fill-opacity:1;fill-rule:nonzero;stroke:none"
           id="path5994" />
      </g>
    </g>
  </g>
</svg>
