<?xml version="1.0" encoding="UTF-8" standalone="no"?>
<!-- Created with Inkscape (http://www.inkscape.org/) -->

<svg
   width="28.041246mm"
   height="27.669001mm"
   viewBox="0 0 28.041246 27.669001"
   version="1.1"
   id="svg55973"
   inkscape:version="1.1-rc (52f87abb86, 2021-05-02)"
   sodipodi:docname="u-unicorn.svg"
   xmlns:inkscape="http://www.inkscape.org/namespaces/inkscape"
   xmlns:sodipodi="http://sodipodi.sourceforge.net/DTD/sodipodi-0.dtd"
   xmlns="http://www.w3.org/2000/svg"
   xmlns:svg="http://www.w3.org/2000/svg">
  <sodipodi:namedview
     id="namedview55975"
     pagecolor="#ffffff"
     bordercolor="#666666"
     borderopacity="1.0"
     objecttolerance="10.0"
     gridtolerance="10.0"
     guidetolerance="10.0"
     inkscape:pageshadow="2"
     inkscape:pageopacity="0.0"
     inkscape:pagecheckerboard="0"
     inkscape:document-units="mm"
     showgrid="false"
     fit-margin-top="0"
     fit-margin-left="0"
     fit-margin-right="0"
     fit-margin-bottom="0"
     inkscape:zoom="0.94875842"
     inkscape:cx="-321.47277"
     inkscape:cy="24.769214"
     inkscape:window-width="3840"
     inkscape:window-height="2066"
     inkscape:window-x="2869"
     inkscape:window-y="-11"
     inkscape:window-maximized="1"
     inkscape:current-layer="layer1" />
  <defs
     id="defs55970">
    <clipPath
       clipPathUnits="userSpaceOnUse"
       id="clipPath6178">
      <path
         d="m 705.084,181.006 h 8.04 v -16.897 h -8.04 z"
         id="path6176" />
    </clipPath>
    <clipPath
       clipPathUnits="userSpaceOnUse"
       id="clipPath6202">
      <path
         d="m 676.285,213.239 h 4.327 v -5.391 h -4.327 z"
         id="path6200" />
    </clipPath>
    <clipPath
       clipPathUnits="userSpaceOnUse"
       id="clipPath6222">
      <path
         d="m 685.01,185.435 h 8.36 v -21.331 h -8.36 z"
         id="path6220" />
    </clipPath>
    <clipPath
       clipPathUnits="userSpaceOnUse"
       id="clipPath6262">
      <path
         d="m 690.262,212.076 h 4.49 v -4.897 h -4.49 z"
         id="path6260" />
    </clipPath>
    <clipPath
       clipPathUnits="userSpaceOnUse"
       id="clipPath6278">
      <path
         d="m 681.611,212.701 h 15.25 v -27.264 h -15.25 z"
         id="path6276" />
    </clipPath>
    <linearGradient
       x1="0"
       y1="0"
       x2="1"
       y2="0"
       gradientUnits="userSpaceOnUse"
       gradientTransform="matrix(1.3337023,-3.2948158,-3.2948158,-1.3337023,678.75049,196.01431)"
       spreadMethod="pad"
       id="linearGradient6314">
      <stop
         style="stop-opacity:1;stop-color:#50252f"
         offset="0"
         id="stop6308" />
      <stop
         style="stop-opacity:1;stop-color:#50252f"
         offset="0.00540541"
         id="stop6310" />
      <stop
         style="stop-opacity:1;stop-color:#231f20"
         offset="1"
         id="stop6312" />
    </linearGradient>
    <clipPath
       clipPathUnits="userSpaceOnUse"
       id="clipPath6324">
      <path
         d="M 0,500 H 750 V 0 H 0 Z"
         id="path6322" />
    </clipPath>
    <clipPath
       clipPathUnits="userSpaceOnUse"
       id="clipPath6332">
      <path
         d="m 678.647,195.842 h 1.201 v -2.618 h -1.201 z"
         id="path6330" />
    </clipPath>
    <linearGradient
       x1="0"
       y1="0"
       x2="1"
       y2="0"
       gradientUnits="userSpaceOnUse"
       gradientTransform="matrix(1.2413948,-3.3457766,-3.3457766,-1.2413948,678.48676,195.91631)"
       spreadMethod="pad"
       id="linearGradient6344">
      <stop
         style="stop-opacity:1;stop-color:#50252f"
         offset="0"
         id="stop6338" />
      <stop
         style="stop-opacity:1;stop-color:#50252f"
         offset="0.00540541"
         id="stop6340" />
      <stop
         style="stop-opacity:1;stop-color:#231f20"
         offset="1"
         id="stop6342" />
    </linearGradient>
    <linearGradient
       x1="0"
       y1="0"
       x2="1"
       y2="0"
       gradientUnits="userSpaceOnUse"
       gradientTransform="matrix(0.8250708,-3.4574981,-3.4574981,-0.8250708,690.13708,195.36429)"
       spreadMethod="pad"
       id="linearGradient6378">
      <stop
         style="stop-opacity:1;stop-color:#50252f"
         offset="0"
         id="stop6372" />
      <stop
         style="stop-opacity:1;stop-color:#50252f"
         offset="0.00540541"
         id="stop6374" />
      <stop
         style="stop-opacity:1;stop-color:#231f20"
         offset="1"
         id="stop6376" />
    </linearGradient>
    <clipPath
       clipPathUnits="userSpaceOnUse"
       id="clipPath6396">
      <path
         d="m 689.797,195.147 h 1.084 v -2.617 h -1.084 z"
         id="path6394" />
    </clipPath>
    <linearGradient
       x1="0"
       y1="0"
       x2="1"
       y2="0"
       gradientUnits="userSpaceOnUse"
       gradientTransform="matrix(0.7264422,-3.4938519,-3.4938519,-0.7264422,689.86157,195.30676)"
       spreadMethod="pad"
       id="linearGradient6408">
      <stop
         style="stop-opacity:1;stop-color:#50252f"
         offset="0"
         id="stop6402" />
      <stop
         style="stop-opacity:1;stop-color:#50252f"
         offset="0.00540541"
         id="stop6404" />
      <stop
         style="stop-opacity:1;stop-color:#231f20"
         offset="1"
         id="stop6406" />
    </linearGradient>
    <clipPath
       clipPathUnits="userSpaceOnUse"
       id="clipPath6438">
      <path
         d="m 678.356,202.259 h 2.491 v -0.775 h -2.491 z"
         id="path6436" />
    </clipPath>
    <clipPath
       clipPathUnits="userSpaceOnUse"
       id="clipPath6462">
      <path
         d="m 689.244,202.269 h 2.491 v -0.775 h -2.491 z"
         id="path6460" />
    </clipPath>
    <clipPath
       clipPathUnits="userSpaceOnUse"
       id="clipPath6514">
      <path
         d="m 674.088,199.215 h 14.242 v -7.839 h -14.242 z"
         id="path6512" />
    </clipPath>
  </defs>
  <g
     inkscape:label="Layer 1"
     inkscape:groupmode="layer"
     id="layer1"
     transform="translate(-190.11459,-142.05564)">
    <g
       id="g27006"
       transform="translate(49.872245,-0.35161972)">
      <g
         id="g6152"
         transform="matrix(0.35277777,0,0,-0.35277777,146.33411,143.59471)">
        <path
           d="m 0,0 c -1.629,-16.183 -2.389,-30.411 -2.389,-47.462 0,-7.167 3.475,-14.553 8.797,-14.553 8.58,0 9.557,19.658 9.557,28.564 0,11.947 -0.651,24.762 -1.412,36.817 l 14.77,-1.52 c 0.761,-11.187 1.522,-24.22 1.522,-35.297 0,-12.925 -2.824,-41.38 -24.437,-41.38 -14.227,0 -23.676,14.228 -23.676,27.369 0,17.378 0.869,31.931 2.498,48.873 z"
           style="fill:#e06caf;fill-opacity:1;fill-rule:nonzero;stroke:none"
           id="path6154" />
      </g>
      <g
         id="g6156"
         transform="matrix(0.35277777,0,0,-0.35277777,149.77172,154.66657)">
        <path
           d="M 0,0 C 0,0 -2.223,2.04 -1.656,6.896 3.665,6.297 4.587,4.149 4.587,4.149 Z"
           style="fill:#ffffff;fill-opacity:1;fill-rule:nonzero;stroke:none"
           id="path6158" />
      </g>
      <g
         id="g6160"
         transform="matrix(0.35277777,0,0,-0.35277777,168.28359,165.75611)">
        <path
           d="m 0,0 c -2.658,-0.783 -7.039,-0.981 -9.397,6.048 -2.362,7.028 -3.508,7.28 -3.508,7.28 l 0.427,1.351 c 0,0 3.269,0.776 5.537,-1.126 C -4.673,11.648 -4.925,5.265 -3.975,2.52 -3.024,-0.222 0,0 0,0"
           style="fill:#f0a7d1;fill-opacity:1;fill-rule:nonzero;stroke:none"
           id="path6162" />
      </g>
      <g
         id="g6164"
         transform="matrix(0.35277777,0,0,-0.35277777,168.28359,165.75611)">
        <path
           d="m 0,0 c -2.658,-0.783 -7.039,-0.981 -9.397,6.048 -2.362,7.028 -3.508,7.28 -3.508,7.28 l -0.285,0.917 c 0,0 3.141,0.538 4.68,-5.594 C -6.971,2.52 -5.597,-0.924 0,0"
           style="fill:#ffe779;fill-opacity:1;fill-rule:nonzero;stroke:none"
           id="path6166" />
      </g>
      <g
         id="g6168"
         transform="matrix(0.35277777,0,0,-0.35277777,162.47503,166.22488)">
        <path
           d="m 0,0 c 0,0 -0.336,-7.172 -1.386,-10.747 h -3.318 c 0,0 0.672,6.883 -2.603,12.805 C -10.583,7.979 -0.21,5.796 0,5.586 0.21,5.376 0,0 0,0"
           style="fill:#ffffff;fill-opacity:1;fill-rule:nonzero;stroke:none"
           id="path6170" />
      </g>
      <g
         id="g6172"
         transform="matrix(0.35277777,0,0,-0.35277777,-89.066312,227.90994)">
        <g
           id="g6174" />
        <g
           id="g6186">
          <g
             clip-path="url(#clipPath6178)"
             id="g6184">
            <g
               transform="translate(713.0306,174.8553)"
               id="g6182">
              <path
                 d="m 0,0 c 0,0 -0.336,-7.172 -1.386,-10.747 h -3.318 c 0,0 0.672,6.883 -2.603,12.805 C -10.583,7.979 -0.21,5.796 0,5.586 0.21,5.376 0,0 0,0"
                 style="fill:#dadedd;fill-opacity:1;fill-rule:nonzero;stroke:none"
                 id="path6180" />
            </g>
          </g>
        </g>
      </g>
      <g
         id="g6188"
         transform="matrix(0.35277777,0,0,-0.35277777,162.08691,169.61408)">
        <path
           d="m 0,0 c -0.087,-0.406 -0.185,-0.79 -0.286,-1.139 h -3.319 c 0,0 0.071,0.722 0.054,1.902 l 0.003,0.003 c 0,0 1.693,0.212 3.548,-0.766"
           style="fill:#f3a5cf;fill-opacity:1;fill-rule:nonzero;stroke:none"
           id="path6190" />
      </g>
      <g
         id="g6192"
         transform="matrix(0.35277777,0,0,-0.35277777,163.7003,160.73093)">
        <path
           d="m 0,0 c 0,0 3.171,0.704 4.805,-1.406 3.527,-4.552 2.261,-9.223 4.715,-10.133 0,0 0.079,16.069 -9.817,11.973"
           style="fill:#73dae5;fill-opacity:1;fill-rule:nonzero;stroke:none"
           id="path6194" />
      </g>
      <g
         id="g6196"
         transform="matrix(0.35277777,0,0,-0.35277777,-89.066312,227.90994)">
        <g
           id="g6198" />
        <g
           id="g6210">
          <g
             clip-path="url(#clipPath6202)"
             opacity="0.5"
             id="g6208">
            <g
               transform="translate(677.7689,207.9238)"
               id="g6206">
              <path
                 d="M 0,0 C 0,0 -1.703,2.588 -1.46,5.315 0.897,4.835 1.186,5.017 2.843,3.512 1.931,1.292 0.03,-0.076 0.03,-0.076"
                 style="fill:#f2c3bc;fill-opacity:1;fill-rule:nonzero;stroke:none"
                 id="path6204" />
            </g>
          </g>
        </g>
      </g>
      <g
         id="g6212"
         transform="matrix(0.35277777,0,0,-0.35277777,155.50598,166.22488)">
        <path
           d="m 0,0 c 0,0 -0.336,-7.172 -1.386,-10.747 h -3.318 c 0,0 0.137,8.844 -2.396,15.046 C -7.507,5.294 -8.366,9.471 -8.251,9.972 -7.645,12.623 -0.177,5.762 0,5.586 0.21,5.376 0,0 0,0"
           style="fill:#ffffff;fill-opacity:1;fill-rule:nonzero;stroke:none"
           id="path6214" />
      </g>
      <g
         id="g6216"
         transform="matrix(0.35277777,0,0,-0.35277777,-89.066312,227.90994)">
        <g
           id="g6218" />
        <g
           id="g6230">
          <g
             clip-path="url(#clipPath6222)"
             id="g6228">
            <g
               transform="translate(693.2796,174.8585)"
               id="g6226">
              <path
                 d="m 0,0 c 0,0 -0.266,-5.7 -1.089,-9.475 -0.089,-0.456 -0.19,-0.887 -0.304,-1.279 h -3.319 c 0,0 0.012,0.988 -0.064,2.533 -0.139,3.078 -0.646,8.386 -2.33,12.515 C -7.512,5.295 -8.373,9.462 -8.259,9.969 -7.651,12.616 -0.177,5.764 0,5.586 0.203,5.371 0,0 0,0"
                 style="fill:#dadedd;fill-opacity:1;fill-rule:nonzero;stroke:none"
                 id="path6224" />
            </g>
          </g>
        </g>
      </g>
      <g
         id="g6232"
         transform="matrix(0.35277777,0,0,-0.35277777,164.86673,164.78745)">
        <path
           d="m 0,0 c -3.779,-1.428 -15.372,-5.126 -25.368,-1.597 -5.831,2.06 -8.832,5.119 -10.536,8.19 -0.394,0.712 -0.716,1.42 -0.992,2.121 -0.099,0.249 -0.191,0.497 -0.275,0.742 -0.418,1.199 -0.709,2.351 -0.961,3.393 -0.138,0.566 -0.058,1.236 0.187,1.975 1.279,3.825 7.045,9.437 9.736,11.903 0.031,0.031 0.065,0.057 0.096,0.088 0.793,0.727 1.29,1.156 1.29,1.156 0,0 -0.011,-0.207 -0.015,-0.562 0,-0.077 -0.004,-0.165 -0.004,-0.257 0,-1.022 0.061,-2.864 0.433,-4.824 0.413,-2.171 1.213,-4.479 2.749,-5.942 0.203,-0.199 0.421,-0.379 0.654,-0.544 0.234,-0.164 0.483,-0.313 0.747,-0.44 5.123,-2.469 9.525,-0.551 13.051,-0.635 0.402,-0.008 0.904,-0.123 1.382,-0.215 C -4.054,13.836 1.639,10.352 0,0"
           style="fill:#ffffff;fill-opacity:1;fill-rule:nonzero;stroke:none"
           id="path6234" />
      </g>
      <g
         id="g6236"
         transform="matrix(0.35277777,0,0,-0.35277777,162.10751,159.65485)">
        <path
           d="M 0,0 C -0.633,0.114 -1.444,0.228 -2.065,0.139 -2.723,0.051 -2.989,-0.291 -3.509,-0.671 -3.686,-0.798 -3.863,-0.925 -4.041,-1.026 -4.383,-1.241 -4.75,-1.419 -5.13,-1.545 -5.421,-1.634 -5.713,-1.697 -6.017,-1.748 h -0.012 -0.026 c -0.354,-0.051 -0.709,-0.063 -1.051,-0.076 -0.722,0 -1.419,0.089 -2.078,0.393 -0.392,0.19 -0.772,0.418 -1.19,0.544 -1.368,0.456 -2.838,-0.101 -4.218,0.342 -0.431,0.14 -0.811,0.355 -1.166,0.646 -0.671,0.532 -1.203,1.28 -1.659,2.027 -0.253,0.418 -0.469,0.836 -0.684,1.279 -0.33,0.684 -0.608,1.394 -0.849,2.116 -0.38,1.178 -0.646,2.419 -0.773,3.661 -0.076,0.848 -0.101,1.71 0.102,2.533 v 0.013 c -0.228,0.177 -0.469,0.354 -0.672,0.532 -0.443,0.392 -0.772,0.798 -0.848,1.165 -0.076,0.418 -0.241,0.975 -0.418,1.52 -0.292,0.925 -0.608,1.824 -0.608,2.103 0,0.266 0.025,1.191 0.05,1.938 v 0.051 c 0.026,0.532 0.038,0.95 0.038,0.95 0,0 0.178,-0.026 0.482,-0.114 1.279,-0.342 4.763,-1.761 6.485,-7.183 0.304,-0.772 0.393,-1.672 0.545,-2.508 0.215,-1.127 0.697,-2.381 1.723,-2.736 0.367,-0.139 0.76,-0.139 1.14,-0.139 0.62,0.013 1.228,0.013 1.862,0.013 0.557,0 1.152,-0.013 1.646,-0.317 1.128,-0.722 1.052,-2.61 2.053,-3.534 0.671,-0.634 1.646,-0.646 2.52,-0.836 C -2.153,2.331 -0.139,1.596 0,0"
           style="fill:#f3a5cf;fill-opacity:1;fill-rule:nonzero;stroke:none"
           id="path6238" />
      </g>
      <g
         id="g6240"
         transform="matrix(0.35277777,0,0,-0.35277777,159.97151,160.27151)">
        <path
           d="m 0,0 c -0.355,-0.051 -0.709,-0.063 -1.051,-0.076 -0.722,0 -1.419,0.089 -2.078,0.393 -0.392,0.19 -0.772,0.418 -1.19,0.544 -1.368,0.456 -2.838,-0.101 -4.219,0.342 -0.43,0.14 -0.81,0.355 -1.165,0.646 -0.671,0.532 -1.203,1.28 -1.659,2.027 -0.254,0.418 -0.469,0.836 -0.684,1.279 l 0.861,0.482 c 0,0 1.317,-1.862 3.369,-2.179 2.053,-0.304 2.42,0.735 3.408,-0.659 C -3.42,1.406 -1.457,0 0,0"
           style="fill:#73dae5;fill-opacity:1;fill-rule:nonzero;stroke:none"
           id="path6242" />
      </g>
      <g
         id="g6244"
         transform="matrix(0.35277777,0,0,-0.35277777,162.10751,159.65485)">
        <path
           d="m 0,0 c -0.633,0.114 -1.444,0.228 -2.065,0.139 -0.658,-0.088 -0.924,-0.43 -1.444,-0.81 -0.177,-0.127 -0.354,-0.254 -0.532,-0.355 -1.482,0.494 -3.699,0.722 -4.509,1.406 -1.166,0.963 -1.064,2.837 -1.584,3.319 -0.532,0.481 -3.382,0 -4.99,0.899 -1.622,0.899 -3.877,8.829 -3.877,8.829 0,0 -1.38,0.76 -2.558,1.52 -0.735,0.469 -1.368,0.925 -1.571,1.203 -0.253,0.355 0.304,1.597 1.013,2.838 0.165,0.291 0.342,0.595 0.52,0.887 1.279,-0.342 4.763,-1.761 6.485,-7.183 0.304,-0.772 0.393,-1.672 0.545,-2.508 0.215,-1.127 0.697,-2.381 1.723,-2.736 0.367,-0.139 0.76,-0.139 1.14,-0.139 0.62,0.013 1.228,0.013 1.862,0.013 0.557,0 1.152,-0.013 1.646,-0.317 1.128,-0.722 1.052,-2.61 2.053,-3.534 0.671,-0.634 1.646,-0.646 2.52,-0.836 C -2.153,2.331 -0.139,1.596 0,0"
           style="fill:#ffe779;fill-opacity:1;fill-rule:nonzero;stroke:none"
           id="path6246" />
      </g>
      <g
         id="g6248"
         transform="matrix(0.35277777,0,0,-0.35277777,162.10613,159.6533)">
        <path
           d="m 0,0 c -0.625,0.107 -1.435,0.228 -2.066,0.138 -0.03,-0.004 -0.061,-0.01 -0.088,-0.017 -0.725,0.632 -1.807,1.025 -2.697,1.253 -0.867,0.222 -1.838,0.282 -2.483,0.941 -0.958,0.967 -0.796,2.849 -1.902,3.622 -0.47,0.325 -1.068,0.356 -1.633,0.376 -0.621,0.027 -1.239,0.054 -1.861,0.077 -0.38,0.017 -0.766,0.034 -1.122,0.178 -1.011,0.403 -1.448,1.67 -1.606,2.809 -0.121,0.847 -0.165,1.744 -0.437,2.53 l 0.004,0.003 c -1.499,5.53 -4.966,7.082 -6.209,7.469 0.013,0.359 0.02,0.608 0.02,0.608 0,0 4.848,-0.581 6.978,-7.297 v -0.004 c 0.302,-0.772 0.386,-1.666 0.541,-2.506 0.208,-1.132 0.699,-2.379 1.727,-2.738 0.359,-0.131 0.749,-0.131 1.129,-0.131 0.621,0.003 1.239,0.003 1.861,0.003 0.565,0.004 1.162,-0.003 1.646,-0.309 C -7.059,6.283 -7.139,4.394 -6.141,3.467 -5.47,2.839 -4.495,2.819 -3.622,2.634 -2.147,2.322 -0.141,1.596 0,0"
           style="fill:#eb7a92;fill-opacity:1;fill-rule:nonzero;stroke:none"
           id="path6250" />
      </g>
      <g
         id="g6252"
         transform="matrix(0.35277777,0,0,-0.35277777,155.52549,154.98305)">
        <path
           d="M 0,0 C 0,0 2.569,1.581 2.933,6.458 -2.405,6.878 -3.718,4.943 -3.718,4.943 Z"
           style="fill:#ffffff;fill-opacity:1;fill-rule:nonzero;stroke:none"
           id="path6254" />
      </g>
      <g
         id="g6256"
         transform="matrix(0.35277777,0,0,-0.35277777,-89.066312,227.90994)">
        <g
           id="g6258" />
        <g
           id="g6270">
          <g
             clip-path="url(#clipPath6262)"
             opacity="0.5"
             id="g6268">
            <g
               transform="translate(690.262,210.8027)"
               id="g6266">
              <path
                 d="M 0,0 C 0,0 1.175,1.606 4.49,1.211 4.338,-0.309 3.892,-2.621 2.245,-3.624 0.628,-1.921 0,0 0,0"
                 style="fill:#f2c3bc;fill-opacity:1;fill-rule:nonzero;stroke:none"
                 id="path6264" />
            </g>
          </g>
        </g>
      </g>
      <g
         id="g6272"
         transform="matrix(0.35277777,0,0,-0.35277777,-89.066312,227.90994)">
        <g
           id="g6274" />
        <g
           id="g6286">
          <g
             clip-path="url(#clipPath6278)"
             id="g6284">
            <g
               transform="translate(696.8542,192.3643)"
               id="g6282">
              <path
                 d="m 0,0 c -0.004,-0.077 -0.008,-0.157 -0.011,-0.234 -0.127,-2.033 -0.847,-3.985 -2.539,-5.245 -1.906,-1.416 -4.533,-1.343 -6.807,-1.424 -1.198,-0.042 -2.4,-0.034 -3.591,0.061 -0.394,0.712 -0.716,1.421 -0.992,2.121 -0.099,0.249 -0.191,0.498 -0.275,0.743 -0.418,1.198 -0.709,2.351 -0.961,3.392 -0.138,0.567 -0.058,1.237 0.187,1.976 2.129,4.073 7.497,9.253 10.058,11.596 -0.115,0.1 -0.222,0.203 -0.322,0.307 -0.268,0.271 -0.471,0.547 -0.559,0.811 -0.019,0.046 -0.03,0.092 -0.038,0.138 -0.226,1.225 -1.118,3.453 -1.118,3.936 0,0.283 0.031,1.34 0.054,2.159 0.084,-0.027 0.164,-0.061 0.249,-0.099 1.489,-0.64 2.963,-2.673 3.897,-4.648 0.295,-0.624 0.536,-1.241 0.712,-1.807 0.816,-2.677 2.259,-8.358 2.006,-10.981 0,0 0.008,-0.141 0,-0.394 C -0.054,2.316 -0.061,2.205 -0.073,2.083 V 2.075 C -0.084,1.979 -0.096,1.868 -0.111,1.761 -0.103,1.723 -0.099,1.692 -0.096,1.654 -0.05,1.378 -0.019,1.095 -0.008,0.804 0.008,0.54 0.012,0.272 0,0"
                 style="fill:#dadedd;fill-opacity:1;fill-rule:nonzero;stroke:none"
                 id="path6280" />
            </g>
          </g>
        </g>
      </g>
      <g
         id="g6288"
         transform="matrix(0.35277777,0,0,-0.35277777,156.5194,158.82709)">
        <path
           d="m 0,0 c 0,0 0.015,-0.274 -0.026,-0.723 0.004,-0.003 0.004,-0.003 0,-0.007 -0.182,-2.054 -1.518,-7.761 -10.735,-8.137 -11.257,-0.464 -11.37,5.864 -11.502,8.907 -0.011,0.223 -0.014,0.449 -0.014,0.672 -0.004,3.174 0.948,6.345 2.163,9.359 0.216,0.54 0.457,1.077 0.716,1.602 0.854,1.734 1.963,3.357 3.503,4.587 2.007,1.602 5.871,2.646 9.279,1.175 1.489,-0.642 2.963,-2.675 3.897,-4.649 0.296,-0.624 0.537,-1.24 0.712,-1.806 C -1.19,8.302 0.252,2.62 0,0"
           style="fill:#ffffff;fill-opacity:1;fill-rule:nonzero;stroke:none"
           id="path6290" />
      </g>
      <g
         id="g6292"
         transform="matrix(0.35277777,0,0,-0.35277777,156.53722,159.81797)">
        <path
           d="m 0,0 c 0.044,1.078 -0.096,2.14 -0.448,2.998 -0.801,1.951 -3.459,2.864 -5.331,3.28 -2.13,0.474 -4.323,0.533 -6.495,0.615 -3.14,0.12 -5.852,-0.413 -8.144,-1.797 -2.267,-1.37 -2.967,-4.207 -2.177,-6.639 0.839,-2.581 3.354,-4.039 5.851,-4.683 2.411,-0.622 4.907,-0.759 7.387,-0.672 2.272,0.081 4.899,0.004 6.807,1.423 C -0.796,-4.171 -0.087,-2.119 0,0"
           style="fill:#ffe3f6;fill-opacity:1;fill-rule:nonzero;stroke:none"
           id="path6294" />
      </g>
      <g
         id="g6296"
         transform="matrix(0.35277777,0,0,-0.35277777,-89.066312,227.90994)">
        <g
           id="g6298">
          <g
             id="g6304">
            <g
               id="g6306">
              <path
                 d="m 679.304,195.926 c -0.916,-0.142 -0.653,-1.792 -0.505,-2.328 v 0 c 0.147,-0.535 0.707,-0.459 0.986,-0.002 v 0 c 0.271,0.442 0.423,2.338 -0.391,2.338 v 0 c -0.029,0 -0.059,-0.003 -0.09,-0.008"
                 style="fill:url(#linearGradient6314);stroke:none"
                 id="path6316" />
            </g>
          </g>
        </g>
      </g>
      <g
         id="g6318"
         transform="matrix(0.35277777,0,0,-0.35277777,-89.066312,227.90994)">
        <g
           id="g6320"
           clip-path="url(#clipPath6324)">
          <g
             id="g6326">
            <g
               id="g6328" />
            <g
               id="g6358">
              <g
                 clip-path="url(#clipPath6332)"
                 id="g6356">
                <g
                   id="g6354">
                  <g
                     id="g6352">
                    <g
                       id="g6350">
                      <g
                         id="g6348">
                        <path
                           d="m 678.995,193.916 c -0.09,0.391 -0.217,1.37 0.07,1.926 -0.625,-0.375 -0.399,-1.762 -0.266,-2.244 0.146,-0.535 0.707,-0.459 0.987,-0.002 0.021,0.036 0.042,0.084 0.062,0.138 -0.308,-0.299 -0.745,-0.285 -0.853,0.182"
                           style="fill:url(#linearGradient6344);stroke:none"
                           id="path6346" />
                      </g>
                    </g>
                  </g>
                </g>
              </g>
            </g>
          </g>
        </g>
      </g>
      <g
         id="g6360"
         transform="matrix(0.35277777,0,0,-0.35277777,-89.066312,227.90994)">
        <g
           id="g6362">
          <g
             id="g6368">
            <g
               id="g6370">
              <path
                 d="m 690.671,195.195 c -0.926,-0.004 -0.914,-1.676 -0.848,-2.227 v 0 c 0.065,-0.552 0.631,-0.56 0.976,-0.149 v 0 c 0.344,0.41 0.798,2.376 -0.125,2.376 v 0 c -10e-4,0 -0.002,0 -0.003,0"
                 style="fill:url(#linearGradient6378);stroke:none"
                 id="path6380" />
            </g>
          </g>
        </g>
      </g>
      <g
         id="g6390"
         transform="matrix(0.35277777,0,0,-0.35277777,-89.066312,227.90994)">
        <g
           id="g6392" />
        <g
           id="g6422">
          <g
             clip-path="url(#clipPath6396)"
             id="g6420">
            <g
               id="g6418">
              <g
                 id="g6416">
                <g
                   id="g6414">
                  <g
                     id="g6412">
                    <path
                       d="m 690.065,193.253 c -0.031,0.4 -0.01,1.387 0.357,1.894 -0.674,-0.277 -0.658,-1.682 -0.599,-2.179 0.065,-0.551 0.631,-0.56 0.975,-0.149 0.027,0.032 0.055,0.076 0.083,0.126 -0.35,-0.249 -0.779,-0.17 -0.816,0.308"
                       style="fill:url(#linearGradient6408);stroke:none"
                       id="path6410" />
                  </g>
                </g>
              </g>
            </g>
          </g>
        </g>
      </g>
      <g
         id="g6424"
         transform="matrix(0.35277777,0,0,-0.35277777,151.14134,155.98744)">
        <path
           d="m 0,0 c 0.275,-0.785 -0.138,-1.645 -0.924,-1.92 -0.785,-0.275 -1.645,0.138 -1.92,0.924 -0.275,0.785 0.139,1.645 0.924,1.92 C -1.135,1.199 -0.275,0.785 0,0"
           style="fill:#210f0a;fill-opacity:1;fill-rule:nonzero;stroke:none"
           id="path6426" />
      </g>
      <g
         id="g6428"
         transform="matrix(0.35277777,0,0,-0.35277777,150.71441,156.00212)">
        <path
           d="m 0,0 c 0.118,-0.336 -0.059,-0.704 -0.395,-0.821 -0.336,-0.118 -0.704,0.059 -0.821,0.395 -0.118,0.336 0.059,0.703 0.395,0.821 C -0.485,0.513 -0.118,0.336 0,0"
           style="fill:#ffffff;fill-opacity:1;fill-rule:nonzero;stroke:none"
           id="path6430" />
      </g>
      <g
         id="g6432"
         transform="matrix(0.35277777,0,0,-0.35277777,-89.066312,227.90994)">
        <g
           id="g6434" />
        <g
           id="g6446">
          <g
             clip-path="url(#clipPath6438)"
             opacity="0.699997"
             id="g6444">
            <g
               transform="translate(678.3564,202.0321)"
               id="g6442">
              <path
                 d="m 0,0 c 0.186,-0.147 0.39,-0.267 0.608,-0.339 0.217,-0.072 0.446,-0.106 0.67,-0.07 0.225,0.03 0.44,0.113 0.642,0.226 0.102,0.054 0.194,0.127 0.293,0.189 C 2.305,0.079 2.394,0.155 2.491,0.227 2.416,0.135 2.335,0.048 2.255,-0.043 2.161,-0.117 2.074,-0.202 1.973,-0.269 1.772,-0.406 1.539,-0.496 1.295,-0.539 0.799,-0.6 0.294,-0.374 0,0"
                 style="fill:#f79437;fill-opacity:1;fill-rule:nonzero;stroke:none"
                 id="path6440" />
            </g>
          </g>
        </g>
      </g>
      <g
         id="g6448"
         transform="matrix(0.35277777,0,0,-0.35277777,154.98228,155.98374)">
        <path
           d="m 0,0 c 0.275,-0.785 -0.138,-1.645 -0.924,-1.92 -0.785,-0.275 -1.645,0.138 -1.92,0.924 -0.275,0.785 0.139,1.645 0.924,1.92 C -1.135,1.199 -0.275,0.785 0,0"
           style="fill:#210f0a;fill-opacity:1;fill-rule:nonzero;stroke:none"
           id="path6450" />
      </g>
      <g
         id="g6452"
         transform="matrix(0.35277777,0,0,-0.35277777,154.55535,155.99845)">
        <path
           d="m 0,0 c 0.118,-0.336 -0.059,-0.704 -0.395,-0.821 -0.336,-0.118 -0.704,0.059 -0.821,0.395 -0.118,0.336 0.059,0.703 0.395,0.821 C -0.485,0.513 -0.118,0.336 0,0"
           style="fill:#ffffff;fill-opacity:1;fill-rule:nonzero;stroke:none"
           id="path6454" />
      </g>
      <g
         id="g6456"
         transform="matrix(0.35277777,0,0,-0.35277777,-89.066312,227.90994)">
        <g
           id="g6458" />
        <g
           id="g6470">
          <g
             clip-path="url(#clipPath6462)"
             opacity="0.699997"
             id="g6468">
            <g
               transform="translate(689.244,202.0426)"
               id="g6466">
              <path
                 d="m 0,0 c 0.186,-0.148 0.39,-0.267 0.608,-0.339 0.217,-0.072 0.446,-0.106 0.67,-0.07 0.225,0.03 0.44,0.113 0.642,0.226 0.102,0.054 0.194,0.127 0.293,0.189 0.092,0.072 0.182,0.149 0.278,0.22 C 2.416,0.135 2.335,0.047 2.255,-0.043 2.161,-0.117 2.074,-0.202 1.973,-0.269 1.772,-0.406 1.539,-0.496 1.295,-0.539 0.799,-0.6 0.295,-0.375 0,0"
                 style="fill:#f79437;fill-opacity:1;fill-rule:nonzero;stroke:none"
                 id="path6464" />
            </g>
          </g>
        </g>
      </g>
      <g
         id="g6472"
         transform="matrix(0.35277777,0,0,-0.35277777,151.92913,152.54405)">
        <path
           d="M 0,0 C 0,0 1.208,10.79 2.188,12.182 3.168,13.575 4.49,-0.349 4.49,-0.349"
           style="fill:#ffe779;fill-opacity:1;fill-rule:nonzero;stroke:none"
           id="path6474" />
      </g>
      <g
         id="g6476"
         transform="matrix(0.35277777,0,0,-0.35277777,152.66153,160.73442)">
        <path
           d="m 0,0 c -0.212,-0.462 -0.505,-2.122 -1.286,-1.793 -0.569,0.239 -0.64,1.13 -0.832,1.653 -0.035,0.096 -0.18,0.054 -0.17,-0.044 0.061,-0.594 0.327,-1.906 1.111,-1.935 0.722,-0.027 1.412,1.479 1.276,2.105 C 0.077,0.088 0,0 0,0"
           style="fill:#cb3524;fill-opacity:1;fill-rule:nonzero;stroke:none"
           id="path6478" />
      </g>
      <g
         id="g6480"
         transform="matrix(0.35277777,0,0,-0.35277777,164.61766,169.64728)">
        <path
           d="m 0,0 c -0.034,-0.339 -0.081,-0.675 -0.135,-1.008 -1.007,-0.084 -3.779,0 -3.779,0 0,0 0.037,0.87 0.013,2.016 C -3.934,2.51 -4.069,4.489 -4.529,5.601 -5.342,7.559 -6.938,7.475 -8.309,8.735 -9.683,9.995 -11.138,14 -11.138,14 L 0.705,13.775 c 0,0 -0.362,-3.807 -0.587,-5.46 C -0.087,6.817 0.356,3.276 0,0"
           style="fill:#ffffff;fill-opacity:1;fill-rule:nonzero;stroke:none"
           id="path6482" />
      </g>
      <g
         id="g6484"
         transform="matrix(0.35277777,0,0,-0.35277777,156.50589,169.61765)">
        <path
           d="m 0,0 c -0.06,-0.796 -0.114,-1.3 -0.114,-1.3 l -3.232,0.171 c 0,0 0.003,0.773 -0.084,1.925 -0.182,2.315 -0.739,6.162 -2.476,8.326 -2.567,3.192 -5.033,9.148 -5.107,9.333 l 9.683,-4.932 c 0,0 0.561,-2.211 1.226,-5.292 C 0.376,6.011 0.158,2.046 0,0"
           style="fill:#ffffff;fill-opacity:1;fill-rule:nonzero;stroke:none"
           id="path6486" />
      </g>
      <g
         id="g6488"
         transform="matrix(0.35277777,0,0,-0.35277777,151.97707,152.68386)">
        <path
           d="m 0,0 c 0,0 -1.574,-0.228 -2.661,0.907 0,0 0.365,-2.481 3.096,-3.457 2.732,-0.976 7.705,0.366 5.825,2.571"
           style="fill:#eb7a92;fill-opacity:1;fill-rule:nonzero;stroke:none"
           id="path6490" />
      </g>
      <g
         id="g6492"
         transform="matrix(0.35277777,0,0,-0.35277777,154.33204,152.92505)">
        <path
           d="m 0,0 c -0.507,-0.722 -1.545,-1.001 -2.356,-1.14 -1.115,-0.203 -2.255,-0.089 -3.306,0.329 -0.253,0.102 -0.494,0.216 -0.71,0.342 -1.494,0.874 -2.406,2.445 -2.204,4.244 0.076,0.646 0.355,1.482 0.697,1.862 -0.038,-0.634 0.291,-1.267 0.836,-1.609 0,0 -0.013,0.089 -0.025,0.203 -0.026,0.354 0.063,0.836 0.279,1.026 0,-0.038 0.037,-0.152 0.037,-0.178 0.026,-0.063 0.051,-0.114 0.076,-0.177 0.064,-0.114 0.14,-0.215 0.216,-0.317 0.329,-0.418 0.773,-0.747 1.267,-0.95 0.076,-0.038 0.164,-0.076 0.266,-0.101 0.671,-0.203 1.228,0.165 1.874,0.279 0.545,0.101 1.102,0.063 1.609,-0.114 C -1.229,3.635 -1.013,3.534 -0.823,3.407 -0.393,3.116 -0.038,2.711 0.139,2.166 0.367,1.507 0.418,0.595 0,0"
           style="fill:#f3a5cf;fill-opacity:1;fill-rule:nonzero;stroke:none"
           id="path6494" />
      </g>
      <g
         id="g6496"
         transform="matrix(0.35277777,0,0,-0.35277777,154.33229,152.92484)">
        <path
           d="m 0,0 c -0.507,-0.726 -1.54,-0.996 -2.361,-1.142 -1.109,-0.197 -2.255,-0.088 -3.306,0.328 -0.248,0.099 -0.485,0.215 -0.708,0.347 -1.489,0.872 -2.401,2.437 -2.2,4.244 0.073,0.642 0.357,1.478 0.693,1.861 -0.328,-0.374 -0.262,-1.505 -0.229,-1.945 0.09,-1.241 0.744,-2.292 1.87,-2.851 0.765,-0.38 1.676,-0.547 2.525,-0.57 1.774,-0.048 3.232,1.3 2.891,3.133 C -0.391,3.12 -0.044,2.708 0.142,2.164 0.368,1.503 0.416,0.598 0,0"
           style="fill:#ffe779;fill-opacity:1;fill-rule:nonzero;stroke:none"
           id="path6498" />
      </g>
      <g
         id="g6500"
         transform="matrix(0.35277777,0,0,-0.35277777,164.61766,169.64728)">
        <path
           d="m 0,0 c -0.034,-0.339 -0.081,-0.675 -0.135,-1.008 -1.007,-0.084 -3.779,0 -3.779,0 0,0 0.037,0.87 0.013,2.016 0,0 2.187,0.413 3.901,-1.008"
           style="fill:#f3a5cf;fill-opacity:1;fill-rule:nonzero;stroke:none"
           id="path6502" />
      </g>
      <g
         id="g6504"
         transform="matrix(0.35277777,0,0,-0.35277777,156.50589,169.61765)">
        <path
           d="m 0,0 c -0.06,-0.796 -0.114,-1.3 -0.114,-1.3 l -3.232,0.171 c 0,0 0.003,0.773 -0.084,1.925 C -3.397,0.796 -1.344,0.793 0,0"
           style="fill:#f3a5cf;fill-opacity:1;fill-rule:nonzero;stroke:none"
           id="path6506" />
      </g>
      <g
         id="g6508"
         transform="matrix(0.35277777,0,0,-0.35277777,-89.066312,227.90994)">
        <g
           id="g6510" />
        <g
           id="g6522">
          <g
             clip-path="url(#clipPath6514)"
             opacity="0.5"
             id="g6520">
            <g
               transform="translate(688.3303,198.7887)"
               id="g6518">
              <path
                 d="m 0,0 c -1.579,0.112 -3.157,0.105 -4.723,0.015 -1.565,-0.102 -3.123,-0.308 -4.625,-0.715 -0.747,-0.206 -1.5,-0.44 -2.164,-0.795 -0.668,-0.354 -1.257,-0.853 -1.688,-1.474 -0.869,-1.246 -1.042,-2.932 -0.592,-4.443 -0.326,0.723 -0.472,1.531 -0.448,2.34 0.032,0.808 0.262,1.624 0.704,2.324 0.431,0.708 1.074,1.274 1.787,1.681 0.355,0.207 0.741,0.369 1.117,0.502 0.377,0.14 0.762,0.258 1.148,0.368 1.553,0.414 3.152,0.6 4.745,0.621 C -3.147,0.447 -1.554,0.315 0,0"
                 style="fill:#ffeddf;fill-opacity:1;fill-rule:nonzero;stroke:none"
                 id="path6516" />
            </g>
          </g>
        </g>
      </g>
      <g
         id="g6524"
         transform="matrix(0.35277777,0,0,-0.35277777,155.123,169.56628)">
        <path
           d="m 0,0 c -0.089,-0.456 -0.19,-0.887 -0.304,-1.279 h -3.319 c 0,0 0.013,0.988 -0.063,2.533 C -2.875,1.153 -0.697,0.798 0,0"
           style="fill:#f3a5cf;fill-opacity:1;fill-rule:nonzero;stroke:none"
           id="path6526" />
      </g>
      <g
         id="g6528"
         transform="matrix(0.35277777,0,0,-0.35277777,153.82263,151.6202)">
        <path
           d="m 0,0 c -1.317,-0.013 -1.621,-0.747 -3.091,-0.773 -1.482,-0.012 -2.508,1.102 -2.508,1.102 0,0 -0.013,0.089 -0.025,0.203 -0.025,0.355 0.063,0.836 0.279,1.026 0,-0.038 0.038,-0.152 0.038,-0.177 0.025,-0.064 0.05,-0.114 0.075,-0.178 0.064,-0.114 0.14,-0.215 0.216,-0.316 0.329,-0.418 0.773,-0.748 1.267,-0.95 0.076,-0.038 0.164,-0.076 0.266,-0.102 C -2.812,-0.367 -2.255,0 -1.609,0.114 -1.064,0.215 -0.507,0.177 0,0"
           style="fill:#73dae5;fill-opacity:1;fill-rule:nonzero;stroke:none"
           id="path6530" />
      </g>
    </g>
  </g>
</svg>
