<?xml version="1.0" encoding="UTF-8" standalone="no"?>
<!-- Created with Inkscape (http://www.inkscape.org/) -->

<svg
   width="25.350731mm"
   height="28.117479mm"
   viewBox="0 0 25.350731 28.117479"
   version="1.1"
   id="svg57004"
   inkscape:version="1.1-rc (52f87abb86, 2021-05-02)"
   sodipodi:docname="v-vulture.svg"
   xmlns:inkscape="http://www.inkscape.org/namespaces/inkscape"
   xmlns:sodipodi="http://sodipodi.sourceforge.net/DTD/sodipodi-0.dtd"
   xmlns="http://www.w3.org/2000/svg"
   xmlns:svg="http://www.w3.org/2000/svg">
  <sodipodi:namedview
     id="namedview57006"
     pagecolor="#ffffff"
     bordercolor="#666666"
     borderopacity="1.0"
     objecttolerance="10.0"
     gridtolerance="10.0"
     guidetolerance="10.0"
     inkscape:pageshadow="2"
     inkscape:pageopacity="0.0"
     inkscape:pagecheckerboard="0"
     inkscape:document-units="mm"
     showgrid="false"
     fit-margin-top="0"
     fit-margin-left="0"
     fit-margin-right="0"
     fit-margin-bottom="0"
     inkscape:zoom="0.94875842"
     inkscape:cx="-114.88699"
     inkscape:cy="-34.255296"
     inkscape:window-width="3840"
     inkscape:window-height="2066"
     inkscape:window-x="2869"
     inkscape:window-y="-11"
     inkscape:window-maximized="1"
     inkscape:current-layer="layer1" />
  <defs
     id="defs57001" />
  <g
     inkscape:label="Layer 1"
     inkscape:groupmode="layer"
     id="layer1"
     transform="translate(-135.40632,-157.4483)">
    <g
       id="g27482"
       transform="translate(183.06859,-23.233584)">
      <g
         id="g1310"
         transform="matrix(0.35277777,0,0,-0.35277777,-42.71985,182.52127)">
        <path
           d="m 0,0 c 2.063,-13.466 5.322,-31.821 10.317,-52.021 l 0.434,0.107 c 4.778,18.464 9.123,38.448 12.272,57.128 L 37.36,4.019 C 32.689,-19.875 24.327,-49.306 15.747,-73.2 l -12.49,1.086 C -3.585,-48.004 -9.45,-24.111 -14.01,1.304 Z"
           style="fill:#a55308;fill-opacity:1;fill-rule:nonzero;stroke:none"
           id="path1312" />
      </g>
      <g
         id="g1314"
         transform="matrix(0.35277777,0,0,-0.35277777,-28.829226,207.5221)">
        <path
           d="m 0,0 c -0.467,0.634 -1.493,0.634 -1.493,0.634 0,0 -0.317,3.733 -0.28,4.106 0.037,0.373 0.467,3.229 0.504,3.77 0.037,0.541 -0.74,1.456 -1.191,0 0,0 -0.582,-3.486 -0.507,-4.151 0.069,-0.62 0.216,-3.233 0.244,-3.765 C -3.007,0.581 -3.802,0.578 -4.684,0.877 -5.785,1.25 -6.146,0.418 -5.91,-0.556 l 0.005,0.001 c -0.086,-0.271 -0.084,-0.562 0.064,-0.826 0,0 0.448,0.821 1.026,0.821 0.579,0 1.973,-0.139 2.491,-0.202 1.153,-0.141 1.428,0.575 1.727,0.389 0.298,-0.187 0.205,-0.616 0.205,-0.616 0,0 0.859,0.354 0.392,0.989"
           style="fill:#d35353;fill-opacity:1;fill-rule:nonzero;stroke:none"
           id="path1316" />
      </g>
      <g
         id="g1318"
         transform="matrix(0.35277777,0,0,-0.35277777,-30.830357,207.59936)">
        <path
           d="m 0,0 c 0,0 0.057,0.166 0.258,0.329 0.194,0.172 0.52,0.295 0.849,0.356 0.333,0.046 0.666,0.036 0.91,-0.007 0.243,-0.046 0.4,-0.097 0.4,-0.097 0,0 -0.163,-0.015 -0.406,-0.037 C 1.77,0.521 1.453,0.508 1.146,0.449 0.838,0.408 0.539,0.319 0.33,0.217 0.115,0.122 0,0 0,0"
           style="fill:#b73d3d;fill-opacity:1;fill-rule:nonzero;stroke:none"
           id="path1320" />
      </g>
      <g
         id="g1322"
         transform="matrix(0.35277777,0,0,-0.35277777,-30.109174,204.53242)">
        <path
           d="m 0,0 c 0,0 -0.224,-3.695 1.437,-3.807 1.661,-0.112 2.277,3.564 2.277,3.564 L 3.285,0.971"
           style="fill:#0f0f0f;fill-opacity:1;fill-rule:nonzero;stroke:none"
           id="path1324" />
      </g>
      <g
         id="g1326"
         transform="matrix(0.35277777,0,0,-0.35277777,-26.603903,202.36054)">
        <path
           d="m 0,0 c 0,0 7.764,0 10.003,4.852 0,0 1.418,1.792 2.09,-0.97 C 12.765,1.12 8.883,-6.047 0.373,-2.09"
           style="fill:#0f0f0f;fill-opacity:1;fill-rule:nonzero;stroke:none"
           id="path1328" />
      </g>
      <g
         id="g1330"
         transform="matrix(0.35277777,0,0,-0.35277777,-26.371246,201.9498)">
        <path
           d="m 0,0 c 0,0 4.849,1.225 5.483,4.609 0,0 0.603,1.342 1.458,-0.277 C 7.797,2.713 6.502,-2.375 0.563,-1.247"
           style="fill:#0f0f0f;fill-opacity:1;fill-rule:nonzero;stroke:none"
           id="path1332" />
      </g>
      <g
         id="g1334"
         transform="matrix(0.35277777,0,0,-0.35277777,-26.127689,203.2688)">
        <path
           d="m 0,0 c 0,0 6.513,-1.968 9.231,0.24 0,0 1.499,0.666 1.585,-1.085 0.087,-1.75 -4.409,-4.866 -10.864,-0.445"
           style="fill:#0f0f0f;fill-opacity:1;fill-rule:nonzero;stroke:none"
           id="path1336" />
      </g>
      <g
         id="g1338"
         transform="matrix(0.35277777,0,0,-0.35277777,-34.082968,196.23335)">
        <path
           d="m 0,0 c 0,0 -3.583,-26.774 -1.194,-29.462 2.388,-2.687 4.678,8.461 4.678,8.461 0,0 0.398,-2.688 1.692,-1.891 1.294,0.796 1.662,5.971 1.662,5.971 0,0 0.428,-2.388 2.02,-0.995 1.593,1.394 0.598,18.414 0.598,18.414"
           style="fill:#363b3e;fill-opacity:1;fill-rule:nonzero;stroke:none"
           id="path1340" />
      </g>
      <g
         id="g1342"
         transform="matrix(0.35277777,0,0,-0.35277777,-33.507588,195.93744)">
        <path
           d="m 0,0 c 0,0 1.467,-23.731 11.731,-27.555 6.787,-2.528 8.695,4.841 8.286,10.824 -0.746,10.916 -6.718,19.185 -6.718,19.185"
           style="fill:#0f0f0f;fill-opacity:1;fill-rule:nonzero;stroke:none"
           id="path1344" />
      </g>
      <g
         id="g1346"
         transform="matrix(0.35277777,0,0,-0.35277777,-29.895743,192.72209)">
        <path
           d="m 0,0 c 0,0 6.121,-0.322 9.182,-6.917 3.06,-6.594 5.822,-26.078 3.583,-32.199 -2.239,-6.121 -4.33,8.46 -4.33,8.46 0,0 -0.995,-6.868 -2.588,-3.981 -1.592,2.886 -4.08,9.654 -4.08,9.654 0,0 0.099,-4.578 -1.095,-2.886 -1.195,1.692 -5.241,9.953 -5.241,9.953 0,0 -0.93,-1.194 -1.726,0.796 -0.797,1.991 -2.091,7.664 -2.091,7.664"
           style="fill:#363b3e;fill-opacity:1;fill-rule:nonzero;stroke:none"
           id="path1348" />
      </g>
      <g
         id="g1350"
         transform="matrix(0.35277777,0,0,-0.35277777,-34.478009,194.04088)">
        <path
           d="m 0,0 c -1.269,-3.77 0.017,-5.326 0.403,-6.076 0.699,-1.355 1.766,-2.819 3.252,-3.365 -0.151,0.476 -0.584,0.949 -0.22,1.479 0.328,-0.679 1.331,-1.231 2.006,-1.511 1.103,-0.459 2.217,-0.771 3.366,-1.07 -0.083,0.373 -0.627,0.743 -0.803,1.139 -0.152,0.345 -0.201,0.74 -0.152,1.109 0.458,-0.379 1.171,-0.531 1.684,-0.86 0.511,-0.327 0.988,-0.976 1.498,-1.218 0.053,0.433 0.022,0.922 -0.026,1.355 -0.044,0.389 -0.038,1.257 -0.324,1.549 0.577,-0.058 1.16,-0.666 1.498,-1.096 0.252,-0.32 0.92,-1.669 1.069,-0.683 0.108,0.712 0.081,1.693 -0.008,2.409 -0.05,0.405 -0.207,0.796 -0.31,1.187 -0.115,0.433 -0.163,0.569 0.317,0.469 0.459,-0.096 0.897,-0.337 1.309,-0.558 0.301,-0.16 0.684,-0.618 0.973,-0.668 0.403,1.479 -0.92,2.451 -1.457,3.642 0.798,0.107 1.835,-0.46 2.38,-0.984 0.062,0.426 -0.279,0.933 -0.462,1.307 -0.283,0.58 -0.578,1.186 -1.05,1.641 -0.794,0.767 -1.689,1.499 -2.627,2.065 1.217,0.264 2.239,0.379 3.461,0.236 -0.291,0.325 -0.775,0.671 -1.166,0.907 -0.336,0.202 -0.849,0.285 -1.12,0.542 0.586,0.409 1.468,-0.002 1.996,0.316 C 15.156,3.87 13.665,4.154 13.029,4.311 12.118,4.537 11.177,4.626 10.236,4.666 8.289,4.747 6.189,4.705 4.302,4.226 3.233,3.954 1.854,3.567 1.157,2.65"
           style="fill:#ffffff;fill-opacity:1;fill-rule:nonzero;stroke:none"
           id="path1352" />
      </g>
      <g
         id="g1354"
         transform="matrix(0.35277777,0,0,-0.35277777,-31.647003,193.79065)">
        <path
           d="m 0,0 c -3.21,-0.672 -7.652,0.784 -7.801,4.292 -0.149,3.509 2.167,14.744 -6.494,15.229 -11.123,0.622 -12.355,-12.765 -6.458,-15.378 3.207,-1.421 5.645,-1.206 7.209,-0.716 V 3.424 c 0,0 1.942,-0.011 2.403,-1.463 l 10e-4,0.003 c 0.42,-1.672 1.279,-3.743 3.041,-4.726 3.21,-1.792 7.763,-0.907 7.763,-0.907 C 1.082,-2.4 0,0 0,0"
           style="fill:#e8645f;fill-opacity:1;fill-rule:nonzero;stroke:none"
           id="path1356" />
      </g>
      <g
         id="g1358"
         transform="matrix(0.35277777,0,0,-0.35277777,-41.24598,191.8969)">
        <path
           d="m 0,0 c 0,0 0.199,-1.17 2.973,-1.468 2.775,-0.299 4.99,0.647 5.388,1.319 C 8.759,0.523 8.062,1.344 7.54,1.493"
           style="fill:#f2eb5f;fill-opacity:1;fill-rule:nonzero;stroke:none"
           id="path1360" />
      </g>
      <g
         id="g1362"
         transform="matrix(0.35277777,0,0,-0.35277777,-39.578117,189.73307)">
        <path
           d="m 0,0 c 0,0 -0.982,0.034 -1.381,-0.97 -0.399,-1.005 -1.93,-1.253 -3.745,-0.933 -4.031,0.709 -4.893,-5.873 -2.936,-4.927 2.239,1.082 7.465,-0.598 10.451,0.895 2.986,1.493 0.373,1.945 -0.597,3.38 C 0.821,-1.12 1.082,-0.224 0,0"
           style="fill:#ffc536;fill-opacity:1;fill-rule:nonzero;stroke:none"
           id="path1364" />
      </g>
      <g
         id="g1366"
         transform="matrix(0.35277777,0,0,-0.35277777,-37.981692,188.13915)">
        <path
           d="M 0,0 C 0,0 -1.977,-0.494 -1.68,-2.174 -1.384,-3.855 0.264,-3.657 1.384,-2.998 2.504,-2.339 1.812,0.231 0,0"
           style="fill:#363b3e;fill-opacity:1;fill-rule:nonzero;stroke:none"
           id="path1368" />
      </g>
      <g
         id="g1370"
         transform="matrix(0.35277777,0,0,-0.35277777,-38.116488,188.53426)">
        <path
           d="M 0,0 C 0,0 -0.751,-0.188 -0.638,-0.826 -0.526,-1.464 0.1,-1.389 0.526,-1.139 0.951,-0.888 0.688,0.088 0,0"
           style="fill:#ffffff;fill-opacity:1;fill-rule:nonzero;stroke:none"
           id="path1372" />
      </g>
      <g
         id="g1374"
         transform="matrix(0.35277777,0,0,-0.35277777,-28.111605,208.31218)">
        <path
           d="m 0,0 c -0.467,0.635 -1.493,0.635 -1.493,0.635 0,0 -0.317,3.732 -0.28,4.105 0.038,0.373 0.467,3.229 0.504,3.77 0.037,0.541 -0.74,1.456 -1.191,0 0,0 -0.582,-3.486 -0.507,-4.151 0.069,-0.62 0.216,-3.233 0.244,-3.765 C -3.007,0.581 -3.802,0.578 -4.684,0.877 -5.785,1.25 -6.146,0.418 -5.91,-0.556 l 0.005,0.001 c -0.086,-0.27 -0.084,-0.562 0.064,-0.826 0,0 0.448,0.821 1.026,0.821 0.579,0 1.973,-0.139 2.491,-0.202 1.153,-0.141 1.428,0.575 1.727,0.389 0.298,-0.187 0.205,-0.616 0.205,-0.616 0,0 0.859,0.355 0.392,0.989"
           style="fill:#e8645f;fill-opacity:1;fill-rule:nonzero;stroke:none"
           id="path1376" />
      </g>
      <g
         id="g1378"
         transform="matrix(0.35277777,0,0,-0.35277777,-30.112737,208.38944)">
        <path
           d="m 0,0 c 0,0 0.057,0.166 0.258,0.329 0.194,0.172 0.52,0.295 0.849,0.356 0.333,0.046 0.666,0.036 0.91,-0.007 0.243,-0.046 0.4,-0.097 0.4,-0.097 0,0 -0.163,-0.015 -0.406,-0.037 C 1.77,0.521 1.453,0.508 1.146,0.449 0.838,0.408 0.539,0.319 0.33,0.217 0.115,0.122 0,0 0,0"
           style="fill:#d84e4e;fill-opacity:1;fill-rule:nonzero;stroke:none"
           id="path1380" />
      </g>
      <g
         id="g1382"
         transform="matrix(0.35277777,0,0,-0.35277777,-29.415154,204.97427)">
        <path
           d="m 0,0 c 0,0 -0.224,-3.695 1.437,-3.807 1.661,-0.112 2.277,3.564 2.277,3.564 L 3.285,0.97"
           style="fill:#0f0f0f;fill-opacity:1;fill-rule:nonzero;stroke:none"
           id="path1384" />
      </g>
      <g
         id="g1386"
         transform="matrix(0.35277777,0,0,-0.35277777,-31.73809,198.21953)">
        <path
           d="M 0,0 C 0.049,-0.362 0.229,-0.707 0.38,-1.037 0.474,-1.241 0.754,-1.086 0.72,-0.893 0.651,-0.507 0.523,-0.146 0.266,0.155 0.15,0.292 -0.019,0.138 0,0"
           style="fill:#232323;fill-opacity:1;fill-rule:nonzero;stroke:none"
           id="path1388" />
      </g>
      <g
         id="g1390"
         transform="matrix(0.35277777,0,0,-0.35277777,-31.401928,198.65771)">
        <path
           d="M 0,0 C 0.296,-0.645 0.347,-1.368 0.73,-1.975 0.837,-2.144 1.142,-2.038 1.068,-1.833 0.823,-1.157 0.685,-0.44 0.302,0.176 0.181,0.371 -0.093,0.202 0,0"
           style="fill:#232323;fill-opacity:1;fill-rule:nonzero;stroke:none"
           id="path1392" />
      </g>
      <g
         id="g1394"
         transform="matrix(0.35277777,0,0,-0.35277777,-30.966847,199.34729)">
        <path
           d="M 0,0 C 0.242,-0.482 0.411,-1.003 0.679,-1.472 0.792,-1.67 1.106,-1.537 1.047,-1.317 0.904,-0.782 0.651,-0.258 0.368,0.215 0.227,0.453 -0.123,0.244 0,0"
           style="fill:#232323;fill-opacity:1;fill-rule:nonzero;stroke:none"
           id="path1396" />
      </g>
      <g
         id="g1398"
         transform="matrix(0.35277777,0,0,-0.35277777,-30.537658,199.86785)">
        <path
           d="m 0,0 c 0.047,-0.42 0.249,-0.812 0.432,-1.189 0.232,-0.477 0.446,-0.955 0.73,-1.405 0.13,-0.206 0.437,-0.025 0.326,0.191 -0.204,0.4 -0.363,0.822 -0.566,1.223 -0.209,0.412 -0.45,0.783 -0.6,1.224 C 0.266,0.207 -0.022,0.194 0,0"
           style="fill:#232323;fill-opacity:1;fill-rule:nonzero;stroke:none"
           id="path1400" />
      </g>
      <g
         id="g1402"
         transform="matrix(0.35277777,0,0,-0.35277777,-29.990852,200.84278)">
        <path
           d="M 0,0 C 0.043,-0.143 0.051,-0.167 0.134,-0.291 0.274,-0.502 0.58,-0.32 0.472,-0.093 0.446,-0.026 0.42,0.041 0.394,0.109 0.317,0.359 -0.075,0.254 0,0"
           style="fill:#232323;fill-opacity:1;fill-rule:nonzero;stroke:none"
           id="path1404" />
      </g>
      <g
         id="g1406"
         transform="matrix(0.35277777,0,0,-0.35277777,-32.2499,203.07594)">
        <path
           d="m 0,0 c -0.095,-0.445 -0.199,-0.877 -0.397,-1.291 -0.111,-0.232 0.195,-0.41 0.344,-0.201 0.31,0.437 0.393,0.914 0.455,1.438 C 0.429,0.174 0.048,0.224 0,0"
           style="fill:#232323;fill-opacity:1;fill-rule:nonzero;stroke:none"
           id="path1408" />
      </g>
      <g
         id="g1410"
         transform="matrix(0.35277777,0,0,-0.35277777,-32.642118,203.21945)">
        <path
           d="M 0,0 C -0.04,-0.171 -0.09,-0.334 -0.144,-0.501 -0.237,-0.79 0.189,-0.888 0.299,-0.623 0.356,-0.482 0.417,-0.341 0.48,-0.202 0.648,0.153 0.083,0.361 0,0"
           style="fill:#232323;fill-opacity:1;fill-rule:nonzero;stroke:none"
           id="path1412" />
      </g>
      <g
         id="g1414"
         transform="matrix(0.35277777,0,0,-0.35277777,-33.273802,204.13279)">
        <path
           d="m 0,0 c -0.312,-0.802 -0.557,-1.628 -0.986,-2.379 -0.366,-0.64 -0.815,-1.227 -1.189,-1.862 -0.112,-0.189 0.169,-0.425 0.314,-0.243 1.07,1.345 1.812,2.711 2.219,4.385 C 0.416,0.138 0.085,0.219 0,0"
           style="fill:#232323;fill-opacity:1;fill-rule:nonzero;stroke:none"
           id="path1416" />
      </g>
      <g
         id="g1418"
         transform="matrix(0.35277777,0,0,-0.35277777,-33.861671,205.70791)">
        <path
           d="m 0,0 c -0.133,-0.598 -0.607,-1.024 -1.027,-1.438 -0.142,-0.14 0.051,-0.411 0.22,-0.285 0.584,0.437 1.129,0.901 1.198,1.67 C 0.411,0.17 0.048,0.218 0,0"
           style="fill:#232323;fill-opacity:1;fill-rule:nonzero;stroke:none"
           id="path1420" />
      </g>
      <g
         id="g1422"
         transform="matrix(0.35277777,0,0,-0.35277777,-28.18904,193.94933)">
        <path
           d="m 0,0 c 0.499,-0.334 0.868,-0.764 1.293,-1.179 0.175,-0.17 0.401,0.078 0.26,0.26 C 1.173,-0.43 0.695,-0.034 0.172,0.294 -0.015,0.412 -0.181,0.121 0,0"
           style="fill:#232323;fill-opacity:1;fill-rule:nonzero;stroke:none"
           id="path1424" />
      </g>
      <g
         id="g1426"
         transform="matrix(0.35277777,0,0,-0.35277777,-27.282013,194.78559)">
        <path
           d="M 0,0 C 0.396,-0.59 0.834,-1.129 1.027,-1.825 1.082,-2.023 1.422,-1.993 1.398,-1.775 1.315,-0.99 0.738,-0.438 0.308,0.18 0.178,0.366 -0.129,0.192 0,0"
           style="fill:#232323;fill-opacity:1;fill-rule:nonzero;stroke:none"
           id="path1428" />
      </g>
      <g
         id="g1430"
         transform="matrix(0.35277777,0,0,-0.35277777,-28.223471,194.58285)">
        <path
           d="m 0,0 c 0.219,-0.215 0.433,-0.434 0.644,-0.658 0.173,-0.183 0.44,0.089 0.275,0.276 C 0.716,-0.152 0.509,0.074 0.297,0.297 0.111,0.493 -0.193,0.19 0,0"
           style="fill:#232323;fill-opacity:1;fill-rule:nonzero;stroke:none"
           id="path1432" />
      </g>
      <g
         id="g1434"
         transform="matrix(0.35277777,0,0,-0.35277777,-27.586107,195.1371)">
        <path
           d="M 0,0 C 0.653,-0.6 0.859,-1.59 1.456,-2.238 1.597,-2.391 1.81,-2.197 1.729,-2.028 1.503,-1.56 1.262,-1.088 0.969,-0.66 0.74,-0.324 0.553,0.04 0.173,0.225 0.035,0.292 -0.127,0.116 0,0"
           style="fill:#232323;fill-opacity:1;fill-rule:nonzero;stroke:none"
           id="path1436" />
      </g>
      <g
         id="g1438"
         transform="matrix(0.35277777,0,0,-0.35277777,-26.740323,195.7631)">
        <path
           d="M 0,0 C 0.081,-0.519 0.408,-0.93 0.609,-1.404 0.827,-1.917 0.881,-2.477 1.095,-2.99 1.177,-3.187 1.459,-3.118 1.419,-2.9 1.326,-2.385 1.255,-1.835 1.056,-1.348 0.85,-0.844 0.488,-0.439 0.333,0.092 0.269,0.31 -0.034,0.215 0,0"
           style="fill:#232323;fill-opacity:1;fill-rule:nonzero;stroke:none"
           id="path1440" />
      </g>
      <g
         id="g1442"
         transform="matrix(0.35277777,0,0,-0.35277777,-35.631451,187.58539)">
        <path
           d="M 0,0 C 0.508,-0.384 0.904,-0.899 1.095,-1.509 1.153,-1.692 1.464,-1.671 1.447,-1.461 1.386,-0.708 0.806,-0.007 0.109,0.259 -0.054,0.322 -0.117,0.088 0,0"
           style="fill:#db5252;fill-opacity:1;fill-rule:nonzero;stroke:none"
           id="path1444" />
      </g>
      <g
         id="g1446"
         transform="matrix(0.35277777,0,0,-0.35277777,-35.023192,188.28693)">
        <path
           d="m 0,0 c -0.017,-0.36 0.166,-0.659 0.248,-1.001 0.092,-0.391 0.114,-0.797 0.178,-1.193 0.028,-0.169 0.322,-0.173 0.346,0 0.051,0.368 0.043,0.707 -0.036,1.07 C 0.644,-0.703 0.408,-0.366 0.279,0.038 0.23,0.191 0.008,0.161 0,0"
           style="fill:#db5252;fill-opacity:1;fill-rule:nonzero;stroke:none"
           id="path1448" />
      </g>
      <g
         id="g1450"
         transform="matrix(0.35277777,0,0,-0.35277777,-34.789653,189.56547)">
        <path
           d="m 0,0 c -0.019,-0.508 0.023,-1.007 0.056,-1.513 0.014,-0.208 0.318,-0.211 0.325,0 C 0.399,-1.004 0.335,-0.506 0.297,0 0.283,0.189 0.007,0.193 0,0"
           style="fill:#db5252;fill-opacity:1;fill-rule:nonzero;stroke:none"
           id="path1452" />
      </g>
      <g
         id="g1454"
         transform="matrix(0.35277777,0,0,-0.35277777,-34.776918,190.43238)">
        <path
           d="m 0,0 c -0.068,-0.393 -0.032,-0.806 0.001,-1.202 0.02,-0.233 0.345,-0.234 0.363,0 C 0.395,-0.805 0.417,-0.383 0.295,0 0.253,0.132 0.027,0.158 0,0"
           style="fill:#db5252;fill-opacity:1;fill-rule:nonzero;stroke:none"
           id="path1456" />
      </g>
      <g
         id="g1458"
         transform="matrix(0.35277777,0,0,-0.35277777,-34.791276,191.48941)">
        <path
           d="m 0,0 c -0.016,-0.43 -0.08,-0.85 -0.022,-1.28 0.024,-0.174 0.323,-0.171 0.35,0 C 0.395,-0.855 0.383,-0.429 0.376,0 0.372,0.243 0.009,0.242 0,0"
           style="fill:#db5252;fill-opacity:1;fill-rule:nonzero;stroke:none"
           id="path1460" />
      </g>
      <g
         id="g1462"
         transform="matrix(0.35277777,0,0,-0.35277777,-36.376976,187.34332)">
        <path
           d="M 0,0 C 0.558,-0.157 1.068,-0.39 1.573,-0.672 1.764,-0.778 1.909,-0.509 1.741,-0.385 1.246,-0.02 0.664,0.131 0.077,0.28 -0.104,0.326 -0.18,0.05 0,0"
           style="fill:#db5252;fill-opacity:1;fill-rule:nonzero;stroke:none"
           id="path1464" />
      </g>
      <g
         id="g1466"
         transform="matrix(0.35277777,0,0,-0.35277777,-34.733455,192.63135)">
        <path
           d="m 0,0 c 0.024,-0.484 0.225,-0.931 0.508,-1.319 0.13,-0.18 0.398,-0.029 0.3,0.175 C 0.624,-0.764 0.409,-0.371 0.324,0.044 0.287,0.225 -0.009,0.186 0,0"
           style="fill:#db5252;fill-opacity:1;fill-rule:nonzero;stroke:none"
           id="path1468" />
      </g>
      <g
         id="g1470"
         transform="matrix(0.35277777,0,0,-0.35277777,-34.190142,193.47438)">
        <path
           d="M 0,0 C 0.538,-0.628 1.233,-0.994 1.992,-1.295 2.175,-1.368 2.293,-1.073 2.125,-0.98 1.457,-0.608 0.768,-0.33 0.205,0.205 0.068,0.336 -0.12,0.141 0,0"
           style="fill:#db5252;fill-opacity:1;fill-rule:nonzero;stroke:none"
           id="path1472" />
      </g>
      <g
         id="g1474"
         transform="matrix(0.35277777,0,0,-0.35277777,-33.137065,193.99568)">
        <path
           d="m 0,0 c 0.813,-0.201 1.662,-0.34 2.501,-0.312 0.217,0.007 0.216,0.325 0,0.337 C 1.684,0.07 0.877,0.089 0.076,0.276 -0.103,0.317 -0.179,0.044 0,0"
           style="fill:#db5252;fill-opacity:1;fill-rule:nonzero;stroke:none"
           id="path1476" />
      </g>
      <g
         id="g1478"
         transform="matrix(0.35277777,0,0,-0.35277777,-32.00539,194.14537)">
        <path
           d="M 0,0 C 0.162,0.031 0.323,0.03 0.485,-0.003 0.669,-0.03 0.755,0.242 0.564,0.283 0.339,0.332 0.146,0.342 -0.077,0.28 -0.259,0.229 -0.182,-0.036 0,0"
           style="fill:#db5252;fill-opacity:1;fill-rule:nonzero;stroke:none"
           id="path1480" />
      </g>
      <g
         id="g1482"
         transform="matrix(0.35277777,0,0,-0.35277777,-32.205203,194.39894)">
        <path
           d="M 0,0 C 0.156,-0.005 0.213,0.014 0.355,0.075 0.589,0.177 0.413,0.513 0.189,0.467 L 0,0.451 C -0.291,0.452 -0.289,0.01 0,0"
           style="fill:#db5252;fill-opacity:1;fill-rule:nonzero;stroke:none"
           id="path1484" />
      </g>
    </g>
  </g>
</svg>
