<?xml version="1.0" encoding="UTF-8" standalone="no"?>
<!-- Created with Inkscape (http://www.inkscape.org/) -->

<svg
   width="42.266205mm"
   height="30.778849mm"
   viewBox="0 0 42.266205 30.778849"
   version="1.1"
   id="svg57681"
   inkscape:version="1.1-rc (52f87abb86, 2021-05-02)"
   sodipodi:docname="w-whale.svg"
   xmlns:inkscape="http://www.inkscape.org/namespaces/inkscape"
   xmlns:sodipodi="http://sodipodi.sourceforge.net/DTD/sodipodi-0.dtd"
   xmlns="http://www.w3.org/2000/svg"
   xmlns:svg="http://www.w3.org/2000/svg">
  <sodipodi:namedview
     id="namedview57683"
     pagecolor="#ffffff"
     bordercolor="#666666"
     borderopacity="1.0"
     objecttolerance="10.0"
     gridtolerance="10.0"
     guidetolerance="10.0"
     inkscape:pageshadow="2"
     inkscape:pageopacity="0.0"
     inkscape:pagecheckerboard="0"
     inkscape:document-units="mm"
     showgrid="false"
     fit-margin-top="0"
     fit-margin-left="0"
     fit-margin-right="0"
     fit-margin-bottom="0"
     inkscape:zoom="0.94875842"
     inkscape:cx="141.23722"
     inkscape:cy="-175.49251"
     inkscape:window-width="3840"
     inkscape:window-height="2066"
     inkscape:window-x="2869"
     inkscape:window-y="-11"
     inkscape:window-maximized="1"
     inkscape:current-layer="layer1" />
  <defs
     id="defs57678">
    <clipPath
       clipPathUnits="userSpaceOnUse"
       id="clipPath1068">
      <path
         d="m 270.531,65.468 c -2.639,-0.372 -5.227,-1.734 -6.375,-4.242 v 0 c -1.055,-2.305 -0.532,-4.74 0.508,-6.941 v 0 c 0.012,-0.027 0.028,-0.052 0.041,-0.078 v 0 c 4.853,-3.793 11.162,-5.831 17.158,-6.284 v 0 c 10.118,-0.765 21.992,0.832 30.198,7.458 v 0 c -2.07,-1.233 -4.279,-2.247 -6.655,-2.856 v 0 c -6.394,-1.641 -14.654,-1.422 -19.57,3.499 v 0 c -2.265,2.267 -4.215,4.877 -6.733,6.883 v 0 c -2.09,1.665 -4.512,2.663 -7.122,2.663 v 0 c -0.477,0 -0.961,-0.033 -1.45,-0.102"
         id="path1066" />
    </clipPath>
  </defs>
  <g
     inkscape:label="Layer 1"
     inkscape:groupmode="layer"
     id="layer1"
     transform="translate(-67.827461,-194.881)">
    <g
       id="g27628"
       transform="translate(82.396527,13.547495)">
      <g
         id="g1010"
         transform="matrix(0.35277777,0,0,-0.35277777,-0.81426089,184.47499)">
        <path
           d="m 0,0 c 0.868,-11.079 2.824,-26.609 4.561,-43.225 l 0.543,0.108 c 3.91,16.834 7.929,34.971 9.992,52.022 L 29.323,7.71 C 25.413,-15.205 18.571,-43.225 11.512,-66.142 l -10.426,0.87 c -3.258,11.186 -5.865,22.589 -8.255,33.559 -2.606,-12.382 -5.429,-24.654 -8.905,-35.732 l -10.425,0.869 c -4.888,24.436 -9.559,49.09 -12.491,74.721 l 14.011,-1.194 c 1.194,-12.925 3.149,-30.736 5.43,-50.176 l 0.542,0.108 c 3.151,14.553 6.3,29.215 8.146,44.094 z"
           style="fill:#487fd8;fill-opacity:1;fill-rule:nonzero;stroke:none"
           id="path1012" />
      </g>
      <g
         id="g1014"
         transform="matrix(0.35277777,0,0,-0.35277777,2.8971729,205.66416)">
        <path
           d="m 0,0 c -1.584,-1.847 -8.099,-9.823 -6.334,-11.61 1.765,-1.787 12.486,2.886 15.861,3.722"
           style="fill:#51d4f2;fill-opacity:1;fill-rule:nonzero;stroke:none"
           id="path1016" />
      </g>
      <g
         id="g1018"
         transform="matrix(0.35277777,0,0,-0.35277777,23.210717,202.28713)">
        <path
           d="m 0,0 c -1.126,-0.425 -1.577,-1.639 -2.344,-2.462 -2.352,-2.524 -6.181,-1.502 -8.748,0.05 -3.377,2.044 -4.664,5.901 -6,9.388 -1.588,4.144 -3.792,7.668 -7.441,10.317 -5.605,4.067 -13.027,5.505 -19.79,4.18 -7.996,-1.566 -14.617,-7.997 -16.907,-15.739 -1.702,-5.749 -1.024,-12.166 1.86,-17.425 4.495,-8.196 14.078,-12.346 22.968,-13.018 11.461,-0.866 25.181,1.293 33.264,10.369 2.077,2.332 3.636,5.034 4.543,8.025 C 1.871,-4.78 3.617,1.367 0,0"
           style="fill:#85e3ff;fill-opacity:1;fill-rule:nonzero;stroke:none"
           id="path1020" />
      </g>
      <g
         id="g1022"
         transform="matrix(0.35277777,0,0,-0.35277777,6.9301989,189.97529)">
        <path
           d="m 0,0 c -2.242,0.774 -4.547,-0.933 -5.04,-2.611 -0.453,-1.539 0.607,-3.173 1.969,-4.021 1.362,-0.849 2.984,-1.143 4.504,-1.657 1.089,-0.368 2.192,-0.911 2.964,-1.731 0.275,-0.291 0.76,-0.112 0.755,0.289 C 5.102,-6.04 4.308,-1.489 0,0"
           style="fill:#85e3ff;fill-opacity:1;fill-rule:nonzero;stroke:none"
           id="path1024" />
      </g>
      <g
         id="g1026"
         transform="matrix(0.35277777,0,0,-0.35277777,12.74313,190.23532)">
        <path
           d="m 0,0 c -0.424,1.441 -2.404,2.907 -4.329,2.242 -3.642,-1.258 -4.36,-5.065 -4.422,-8.208 -0.008,-0.384 0.458,-0.582 0.73,-0.311 0.658,0.656 1.565,1.097 2.461,1.4 1.305,0.441 2.699,0.694 3.868,1.423 C -0.522,-2.726 0.389,-1.322 0,0"
           style="fill:#85e3ff;fill-opacity:1;fill-rule:nonzero;stroke:none"
           id="path1028" />
      </g>
      <g
         id="g1030"
         transform="matrix(0.35277777,0,0,-0.35277777,21.642725,199.25412)">
        <path
           d="M 0,0 C -2.3,0.725 -3.676,1.773 -4.386,2.457 -4.674,2.735 -5.153,2.598 -5.254,2.21 -6.018,-0.731 -6.258,-3.215 -4.531,-5.987 -2.77,-8.812 1.707,-9.942 5.294,-9.861 5.294,-9.861 5.251,-1.656 0,0"
           style="fill:#85e3ff;fill-opacity:1;fill-rule:nonzero;stroke:none"
           id="path1032" />
      </g>
      <g
         id="g1034"
         transform="matrix(0.35277777,0,0,-0.35277777,25.670177,199.53267)">
        <path
           d="m 0,0 c 2.604,0.583 3.944,1.42 4.624,2.056 0.31,0.291 0.814,0.121 0.881,-0.3 0.456,-2.888 0.418,-5.316 -1.496,-7.849 -2.007,-2.657 -6.566,-3.38 -10.132,-2.978 0,0 -0.246,7.645 6.123,9.071"
           style="fill:#85e3ff;fill-opacity:1;fill-rule:nonzero;stroke:none"
           id="path1036" />
      </g>
      <g
         id="g1038"
         transform="matrix(0.35277777,0,0,-0.35277777,10.367877,200.45727)">
        <path
           d="m 0,0 c 0,-1.558 -1.263,-2.822 -2.821,-2.822 -1.559,0 -2.822,1.264 -2.822,2.822 0,1.558 1.263,2.822 2.822,2.822 C -1.263,2.822 0,1.558 0,0"
           style="fill:#155284;fill-opacity:1;fill-rule:nonzero;stroke:none"
           id="path1040" />
      </g>
      <g
         id="g1042"
         transform="matrix(0.35277777,0,0,-0.35277777,9.7481525,200.20891)">
        <path
           d="m 0,0 c 0,-0.779 -0.632,-1.411 -1.411,-1.411 -0.779,0 -1.41,0.632 -1.41,1.411 0,0.779 0.631,1.411 1.41,1.411 C -0.632,1.411 0,0.779 0,0"
           style="fill:#ffffff;fill-opacity:1;fill-rule:nonzero;stroke:none"
           id="path1044" />
      </g>
      <g
         id="g1046"
         transform="matrix(0.35277777,0,0,-0.35277777,4.0904437,200.41709)">
        <path
           d="m 0,0 c 0,-1.558 -1.263,-2.822 -2.822,-2.822 -1.558,0 -2.821,1.264 -2.821,2.822 0,1.558 1.263,2.822 2.821,2.822 C -1.263,2.822 0,1.558 0,0"
           style="fill:#155284;fill-opacity:1;fill-rule:nonzero;stroke:none"
           id="path1048" />
      </g>
      <g
         id="g1050"
         transform="matrix(0.35277777,0,0,-0.35277777,3.3659793,200.20891)">
        <path
           d="m 0,0 c 0,-0.779 -0.632,-1.411 -1.411,-1.411 -0.779,0 -1.411,0.632 -1.411,1.411 0,0.779 0.632,1.411 1.411,1.411 C -0.632,1.411 0,0.779 0,0"
           style="fill:#ffffff;fill-opacity:1;fill-rule:nonzero;stroke:none"
           id="path1052" />
      </g>
      <g
         id="g1054"
         transform="matrix(0.35277777,0,0,-0.35277777,5.0975184,202.40982)">
        <path
           d="m 0,0 c -0.538,-1.775 0.778,-3.379 2.565,-3.518 2.102,-0.163 3.48,1.633 3.269,3.634 -0.01,0.085 -0.129,0.088 -0.135,0 C 5.57,-1.67 4.691,-3.379 2.648,-3.266 0.816,-3.165 -0.043,-1.706 0.071,-0.01 0.074,0.032 0.012,0.038 0,0"
           style="fill:#155284;fill-opacity:1;fill-rule:nonzero;stroke:none"
           id="path1056" />
      </g>
      <g
         id="g1058"
         transform="matrix(0.35277777,0,0,-0.35277777,18.674065,209.38036)">
        <path
           d="m 0,0 c -6.394,-1.64 -14.653,-1.422 -19.57,3.499 -2.265,2.267 -4.215,4.878 -6.733,6.883 -2.473,1.969 -5.408,3.006 -8.572,2.561 -2.639,-0.372 -5.227,-1.734 -6.375,-4.242 -1.055,-2.305 -0.531,-4.74 0.508,-6.94 0.013,-0.027 0.028,-0.052 0.041,-0.079 4.853,-3.792 11.162,-5.831 17.158,-6.284 C -13.425,-5.366 -1.551,-3.77 6.655,2.856 4.585,1.624 2.376,0.61 0,0"
           style="fill:#caf5ff;fill-opacity:1;fill-rule:nonzero;stroke:none"
           id="path1060" />
      </g>
      <g
         id="g1062"
         transform="matrix(0.35277777,0,0,-0.35277777,-89.066312,227.90994)">
        <g
           id="g1064"
           clip-path="url(#clipPath1068)">
          <g
             id="g1070"
             transform="translate(276.4108,67.7497)">
            <path
               d="m 0,0 c 0.502,-7.149 3.944,-12.74 10.528,-15.852 7.756,-3.668 18.339,-2.667 25.937,0.968 0.523,0.251 0.134,0.983 -0.373,0.885 -4.338,-0.833 -8.396,-2.393 -12.85,-2.736 -4.095,-0.315 -8.372,0.158 -12.144,1.859 C 4.749,-12.013 1.392,-6.669 0.204,0.028 0.183,0.142 -0.008,0.117 0,0"
               style="fill:#a6f2ff;fill-opacity:1;fill-rule:nonzero;stroke:none"
               id="path1072" />
          </g>
          <g
             id="g1074"
             transform="translate(269.5497,66.6384)">
            <path
               d="m 0,0 c 0.522,-7.384 4.774,-12.977 11.597,-15.778 3.381,-1.389 7.034,-2.036 10.674,-2.204 5.147,-0.238 10.984,0.086 15.794,2.093 0.564,0.235 0.362,1.022 -0.253,0.92 -8.256,-1.372 -16.473,-2.897 -24.641,-0.099 C 6.202,-12.68 1.61,-7.219 0.462,0.063 0.421,0.323 -0.019,0.264 0,0"
               style="fill:#a6f2ff;fill-opacity:1;fill-rule:nonzero;stroke:none"
               id="path1076" />
          </g>
          <g
             id="g1078"
             transform="translate(262.0226,66.2432)">
            <path
               d="m 0,0 c 1.518,-8.616 6.712,-15.018 15.346,-17.12 9.25,-2.252 20.156,-1.456 29.09,1.759 0.556,0.2 0.336,0.984 -0.243,0.88 -9.051,-1.616 -17.797,-3.548 -27.019,-1.795 C 13.272,-15.535 9.5,-14.108 6.59,-11.325 3.387,-8.262 1.413,-4.156 0.347,0.096 0.29,0.323 -0.04,0.224 0,0"
               style="fill:#a6f2ff;fill-opacity:1;fill-rule:nonzero;stroke:none"
               id="path1080" />
          </g>
        </g>
      </g>
      <g
         id="g1090"
         transform="matrix(0.35277777,0,0,-0.35277777,10.985767,206.99071)">
        <path
           d="m 0,0 c 1.247,-1.716 12.899,-17.846 14.982,-13.898 1.366,2.589 -0.04,8.9 -0.399,11.683"
           style="fill:#85e3ff;fill-opacity:1;fill-rule:nonzero;stroke:none"
           id="path1092" />
      </g>
      <g
         id="g1094"
         transform="matrix(0.35277777,0,0,-0.35277777,17.61873,202.19653)">
        <path
           d="M 0,0 C 0.266,-0.706 0.857,-1.544 1.58,-1.832 1.686,-1.874 1.751,-1.725 1.684,-1.653 1.437,-1.386 1.128,-1.187 0.881,-0.916 0.604,-0.612 0.395,-0.273 0.183,0.077 0.127,0.171 -0.041,0.11 0,0"
           style="fill:#37c6f7;fill-opacity:1;fill-rule:nonzero;stroke:none"
           id="path1096" />
      </g>
      <g
         id="g1098"
         transform="matrix(0.35277777,0,0,-0.35277777,18.45686,202.96241)">
        <path
           d="M 0,0 C 0.232,-0.453 0.624,-0.861 1.146,-0.946 1.229,-0.96 1.291,-0.848 1.207,-0.801 0.778,-0.559 0.399,-0.35 0.099,0.058 0.056,0.116 -0.034,0.067 0,0"
           style="fill:#37c6f7;fill-opacity:1;fill-rule:nonzero;stroke:none"
           id="path1100" />
      </g>
      <g
         id="g1102"
         transform="matrix(0.35277777,0,0,-0.35277777,19.149433,203.49818)">
        <path
           d="M 0,0 C 0.408,-0.348 0.965,-0.696 1.523,-0.659 1.635,-0.651 1.65,-0.508 1.548,-0.468 1.045,-0.273 0.57,-0.169 0.126,0.163 0.032,0.233 -0.089,0.076 0,0"
           style="fill:#37c6f7;fill-opacity:1;fill-rule:nonzero;stroke:none"
           id="path1104" />
      </g>
      <g
         id="g1106"
         transform="matrix(0.35277777,0,0,-0.35277777,18.702605,203.73909)">
        <path
           d="M 0,0 C 0.397,-0.436 0.981,-0.873 1.593,-0.883 1.683,-0.884 1.72,-0.755 1.64,-0.712 1.113,-0.429 0.595,-0.267 0.125,0.125 0.038,0.197 -0.078,0.085 0,0"
           style="fill:#37c6f7;fill-opacity:1;fill-rule:nonzero;stroke:none"
           id="path1108" />
      </g>
      <g
         id="g1110"
         transform="matrix(0.35277777,0,0,-0.35277777,19.85139,203.76033)">
        <path
           d="m 0,0 c 0.496,-0.243 1.126,-0.489 1.682,-0.36 0.076,0.017 0.065,0.12 0,0.143 C 1.164,-0.038 0.587,-0.027 0.055,0.13 -0.021,0.152 -0.073,0.036 0,0"
           style="fill:#37c6f7;fill-opacity:1;fill-rule:nonzero;stroke:none"
           id="path1112" />
      </g>
      <g
         id="g1114"
         transform="matrix(0.35277777,0,0,-0.35277777,19.678423,204.19139)">
        <path
           d="M 0,0 C 0.435,-0.126 0.884,-0.237 1.339,-0.193 1.421,-0.185 1.455,-0.055 1.36,-0.037 0.924,0.047 0.484,0.076 0.051,0.183 -0.068,0.213 -0.118,0.034 0,0"
           style="fill:#37c6f7;fill-opacity:1;fill-rule:nonzero;stroke:none"
           id="path1116" />
      </g>
      <g
         id="g1118"
         transform="matrix(0.35277777,0,0,-0.35277777,20.915791,203.94546)">
        <path
           d="M 0,0 C 0.438,-0.027 0.839,-0.003 1.26,0.123 1.358,0.153 1.315,0.288 1.218,0.273 0.813,0.213 0.41,0.163 0,0.166 -0.108,0.167 -0.106,0.007 0,0"
           style="fill:#37c6f7;fill-opacity:1;fill-rule:nonzero;stroke:none"
           id="path1120" />
      </g>
      <g
         id="g1122"
         transform="matrix(0.35277777,0,0,-0.35277777,20.58799,204.30597)">
        <path
           d="M 0,0 C 0.441,-0.012 0.876,0.002 1.302,0.125 1.39,0.151 1.378,0.3 1.279,0.292 0.85,0.254 0.433,0.195 0,0.197 -0.127,0.198 -0.127,0.003 0,0"
           style="fill:#37c6f7;fill-opacity:1;fill-rule:nonzero;stroke:none"
           id="path1124" />
      </g>
      <g
         id="g1126"
         transform="matrix(0.35277777,0,0,-0.35277777,21.454271,204.156)">
        <path
           d="M 0,0 C 0.509,0.071 1.007,0.201 1.453,0.462 1.52,0.501 1.476,0.62 1.398,0.592 0.923,0.419 0.46,0.236 -0.032,0.117 -0.11,0.098 -0.075,-0.01 0,0"
           style="fill:#37c6f7;fill-opacity:1;fill-rule:nonzero;stroke:none"
           id="path1128" />
      </g>
      <g
         id="g1130"
         transform="matrix(0.35277777,0,0,-0.35277777,21.743408,203.84792)">
        <path
           d="M 0,0 C 0.474,0.186 0.916,0.426 1.263,0.805 1.31,0.857 1.246,0.954 1.183,0.908 0.783,0.619 0.397,0.335 -0.052,0.123 -0.12,0.091 -0.071,-0.028 0,0"
           style="fill:#37c6f7;fill-opacity:1;fill-rule:nonzero;stroke:none"
           id="path1132" />
      </g>
      <g
         id="g1134"
         transform="matrix(0.35277777,0,0,-0.35277777,22.519237,203.45831)">
        <path
           d="M 0,0 C 0.347,0.153 0.617,0.359 0.824,0.678 0.872,0.751 0.762,0.837 0.702,0.772 0.469,0.519 0.217,0.311 -0.098,0.167 -0.211,0.115 -0.113,-0.05 0,0"
           style="fill:#37c6f7;fill-opacity:1;fill-rule:nonzero;stroke:none"
           id="path1136" />
      </g>
      <g
         id="g1138"
         transform="matrix(0.35277777,0,0,-0.35277777,19.672391,204.59648)">
        <path
           d="m 0,0 c 0.606,-0.301 1.32,-0.515 1.992,-0.333 0.074,0.02 0.052,0.119 -0.017,0.126 C 1.307,-0.142 0.688,-0.125 0.056,0.133 -0.02,0.164 -0.073,0.036 0,0"
           style="fill:#37c6f7;fill-opacity:1;fill-rule:nonzero;stroke:none"
           id="path1140" />
      </g>
      <g
         id="g1142"
         transform="matrix(0.35277777,0,0,-0.35277777,20.811158,204.64672)">
        <path
           d="M 0,0 C 0.351,-0.06 0.678,-0.068 1.013,0.063 1.114,0.102 1.074,0.239 0.969,0.223 0.644,0.175 0.349,0.138 0.024,0.177 -0.076,0.188 -0.1,0.017 0,0"
           style="fill:#37c6f7;fill-opacity:1;fill-rule:nonzero;stroke:none"
           id="path1144" />
      </g>
      <g
         id="g1146"
         transform="matrix(0.35277777,0,0,-0.35277777,21.626815,204.43646)">
        <path
           d="M 0,0 C 0.475,0.06 0.932,0.228 1.313,0.521 1.386,0.577 1.325,0.688 1.239,0.646 0.824,0.441 0.425,0.27 -0.018,0.136 -0.089,0.114 -0.08,-0.01 0,0"
           style="fill:#37c6f7;fill-opacity:1;fill-rule:nonzero;stroke:none"
           id="path1148" />
      </g>
      <g
         id="g1150"
         transform="matrix(0.35277777,0,0,-0.35277777,22.469213,203.86559)">
        <path
           d="M 0,0 C 0.18,0.113 0.358,0.219 0.524,0.351 0.588,0.402 0.506,0.499 0.438,0.462 0.258,0.363 0.096,0.241 -0.072,0.122 -0.145,0.071 -0.079,-0.049 0,0"
           style="fill:#37c6f7;fill-opacity:1;fill-rule:nonzero;stroke:none"
           id="path1152" />
      </g>
      <g
         id="g1154"
         transform="matrix(0.35277777,0,0,-0.35277777,21.093203,205.03855)">
        <path
           d="M 0,0 C 0.433,0 0.846,0.059 1.233,0.261 1.3,0.296 1.254,0.4 1.183,0.381 0.786,0.276 0.411,0.165 0,0.124 -0.078,0.117 -0.082,0 0,0"
           style="fill:#37c6f7;fill-opacity:1;fill-rule:nonzero;stroke:none"
           id="path1156" />
      </g>
      <g
         id="g1158"
         transform="matrix(0.35277777,0,0,-0.35277777,19.911468,204.92477)">
        <path
           d="M 0,0 C 0.425,-0.158 0.88,-0.305 1.337,-0.247 1.389,-0.241 1.41,-0.163 1.35,-0.149 0.912,-0.042 0.467,-0.015 0.033,0.12 -0.044,0.144 -0.074,0.027 0,0"
           style="fill:#37c6f7;fill-opacity:1;fill-rule:nonzero;stroke:none"
           id="path1160" />
      </g>
      <g
         id="g1162"
         transform="matrix(0.35277777,0,0,-0.35277777,18.028305,203.40279)">
        <path
           d="M 0,0 C 0.148,-0.249 0.326,-0.425 0.615,-0.483 0.7,-0.5 0.745,-0.394 0.673,-0.344 0.476,-0.207 0.291,-0.084 0.136,0.105 0.073,0.182 -0.049,0.083 0,0"
           style="fill:#37c6f7;fill-opacity:1;fill-rule:nonzero;stroke:none"
           id="path1164" />
      </g>
      <g
         id="g1166"
         transform="matrix(0.35277777,0,0,-0.35277777,17.233885,201.33025)">
        <path
           d="M 0,0 C 0.071,-0.381 0.19,-0.706 0.424,-1.017 0.479,-1.09 0.593,-1.028 0.55,-0.943 0.385,-0.624 0.251,-0.303 0.18,0.05 0.156,0.168 -0.022,0.117 0,0"
           style="fill:#37c6f7;fill-opacity:1;fill-rule:nonzero;stroke:none"
           id="path1168" />
      </g>
      <g
         id="g1170"
         transform="matrix(0.35277777,0,0,-0.35277777,16.768606,200.32399)">
        <path
           d="M 0,0 C -0.023,-0.279 0.011,-0.514 0.183,-0.739 0.235,-0.808 0.375,-0.773 0.338,-0.674 0.254,-0.448 0.192,-0.246 0.207,0 0.216,0.134 0.011,0.132 0,0"
           style="fill:#37c6f7;fill-opacity:1;fill-rule:nonzero;stroke:none"
           id="path1172" />
      </g>
      <g
         id="g1174"
         transform="matrix(0.35277777,0,0,-0.35277777,17.299643,202.54769)">
        <path
           d="M 0,0 C 0.198,-0.57 0.485,-1.079 0.972,-1.448 1.033,-1.494 1.087,-1.401 1.047,-1.35 0.7,-0.912 0.371,-0.478 0.16,0.044 0.121,0.141 -0.036,0.103 0,0"
           style="fill:#37c6f7;fill-opacity:1;fill-rule:nonzero;stroke:none"
           id="path1176" />
      </g>
      <g
         id="g1178"
         transform="matrix(0.35277777,0,0,-0.35277777,20.170901,198.69423)">
        <path
           d="m 0,0 c 0.393,-0.423 0.884,-0.83 1.463,-0.949 0.083,-0.017 0.141,0.097 0.06,0.142 C 1.015,-0.525 0.521,-0.314 0.076,0.076 0.024,0.121 -0.047,0.051 0,0"
           style="fill:#37c6f7;fill-opacity:1;fill-rule:nonzero;stroke:none"
           id="path1180" />
      </g>
      <g
         id="g1182"
         transform="matrix(0.35277777,0,0,-0.35277777,20.924646,199.16906)">
        <path
           d="m 0,0 c 0.329,-0.258 0.698,-0.492 1.126,-0.497 0.052,-0.001 0.075,0.075 0.028,0.1 C 0.802,-0.212 0.417,-0.109 0.067,0.087 0.015,0.116 -0.051,0.04 0,0"
           style="fill:#37c6f7;fill-opacity:1;fill-rule:nonzero;stroke:none"
           id="path1184" />
      </g>
      <g
         id="g1186"
         transform="matrix(0.35277777,0,0,-0.35277777,21.473815,199.39908)">
        <path
           d="M 0,0 C 0.55,-0.231 0.958,-0.605 1.46,-0.905 1.515,-0.938 1.593,-0.869 1.553,-0.813 1.207,-0.33 0.581,-0.06 0.032,0.117 -0.044,0.141 -0.069,0.029 0,0"
           style="fill:#37c6f7;fill-opacity:1;fill-rule:nonzero;stroke:none"
           id="path1188" />
      </g>
      <g
         id="g1190"
         transform="matrix(0.35277777,0,0,-0.35277777,22.113542,199.78374)">
        <path
           d="M 0,0 C 0.392,-0.276 0.632,-0.634 0.968,-0.96 1,-0.992 1.067,-0.961 1.049,-0.913 0.878,-0.464 0.457,-0.143 0.063,0.107 -0.006,0.151 -0.065,0.045 0,0"
           style="fill:#37c6f7;fill-opacity:1;fill-rule:nonzero;stroke:none"
           id="path1192" />
      </g>
      <g
         id="g1194"
         transform="matrix(0.35277777,0,0,-0.35277777,22.639852,200.43607)">
        <path
           d="M 0,0 C 0.135,-0.244 0.259,-0.491 0.435,-0.708 0.47,-0.751 0.552,-0.705 0.531,-0.653 0.423,-0.394 0.265,-0.169 0.113,0.066 0.068,0.137 -0.041,0.074 0,0"
           style="fill:#37c6f7;fill-opacity:1;fill-rule:nonzero;stroke:none"
           id="path1196" />
      </g>
      <g
         id="g1198"
         transform="matrix(0.35277777,0,0,-0.35277777,21.76334,199.84167)">
        <path
           d="m 0,0 c 0.426,-0.296 0.743,-0.667 1.124,-1.01 0.052,-0.047 0.138,0.013 0.1,0.078 C 0.958,-0.481 0.505,-0.158 0.065,0.11 -0.007,0.154 -0.067,0.046 0,0"
           style="fill:#37c6f7;fill-opacity:1;fill-rule:nonzero;stroke:none"
           id="path1200" />
      </g>
      <g
         id="g1202"
         transform="matrix(0.35277777,0,0,-0.35277777,21.04138,199.51207)">
        <path
           d="M 0,0 C 0.361,-0.141 0.657,-0.341 0.981,-0.545 1.033,-0.577 1.09,-0.503 1.046,-0.461 0.758,-0.181 0.403,-0.03 0.02,0.073 -0.028,0.086 -0.045,0.017 0,0"
           style="fill:#37c6f7;fill-opacity:1;fill-rule:nonzero;stroke:none"
           id="path1204" />
      </g>
      <g
         id="g1206"
         transform="matrix(0.35277777,0,0,-0.35277777,20.500678,199.22688)">
        <path
           d="M 0,0 C 0.307,-0.238 0.616,-0.465 0.983,-0.598 1.063,-0.627 1.1,-0.512 1.038,-0.469 0.733,-0.257 0.395,-0.093 0.08,0.103 0.018,0.142 -0.06,0.046 0,0"
           style="fill:#37c6f7;fill-opacity:1;fill-rule:nonzero;stroke:none"
           id="path1208" />
      </g>
      <g
         id="g1210"
         transform="matrix(0.35277777,0,0,-0.35277777,20.828691,199.71008)">
        <path
           d="m 0,0 c 0.407,-0.241 0.811,-0.508 1.247,-0.695 0.067,-0.028 0.12,0.056 0.058,0.099 C 0.914,-0.327 0.472,-0.129 0.051,0.087 -0.007,0.116 -0.056,0.033 0,0"
           style="fill:#37c6f7;fill-opacity:1;fill-rule:nonzero;stroke:none"
           id="path1212" />
      </g>
      <g
         id="g1214"
         transform="matrix(0.35277777,0,0,-0.35277777,21.548569,199.99132)">
        <path
           d="M 0,0 C 0.325,-0.274 0.653,-0.569 1.026,-0.775 1.1,-0.816 1.181,-0.717 1.118,-0.655 0.814,-0.355 0.44,-0.125 0.084,0.109 0.019,0.151 -0.06,0.051 0,0"
           style="fill:#37c6f7;fill-opacity:1;fill-rule:nonzero;stroke:none"
           id="path1216" />
      </g>
      <g
         id="g1218"
         transform="matrix(0.35277777,0,0,-0.35277777,21.552449,200.30762)">
        <path
           d="m 0,0 c 0.208,-0.188 0.406,-0.387 0.641,-0.54 0.062,-0.042 0.125,0.048 0.077,0.1 C 0.532,-0.239 0.305,-0.079 0.09,0.09 0.028,0.14 -0.062,0.056 0,0"
           style="fill:#37c6f7;fill-opacity:1;fill-rule:nonzero;stroke:none"
           id="path1220" />
      </g>
      <g
         id="g1222"
         transform="matrix(0.35277777,0,0,-0.35277777,22.179159,200.41063)">
        <path
           d="M 0,0 C 0.193,-0.239 0.354,-0.5 0.567,-0.721 0.601,-0.756 0.674,-0.72 0.654,-0.671 0.528,-0.367 0.321,-0.143 0.093,0.093 0.033,0.155 -0.052,0.064 0,0"
           style="fill:#37c6f7;fill-opacity:1;fill-rule:nonzero;stroke:none"
           id="path1224" />
      </g>
      <g
         id="g1226"
         transform="matrix(0.35277777,0,0,-0.35277777,22.569261,200.85912)">
        <path
           d="M 0,0 C 0.028,-0.259 0.088,-0.434 0.275,-0.619 0.316,-0.66 0.38,-0.609 0.353,-0.559 0.254,-0.372 0.168,-0.19 0.119,0.016 0.103,0.081 -0.007,0.069 0,0"
           style="fill:#37c6f7;fill-opacity:1;fill-rule:nonzero;stroke:none"
           id="path1228" />
      </g>
      <g
         id="g1230"
         transform="matrix(0.35277777,0,0,-0.35277777,22.900272,201.01318)">
        <path
           d="M 0,0 C 0.098,-0.368 0.2,-0.739 0.362,-1.085 0.395,-1.156 0.496,-1.103 0.482,-1.034 0.408,-0.666 0.27,-0.312 0.133,0.037 0.102,0.118 -0.023,0.088 0,0"
           style="fill:#37c6f7;fill-opacity:1;fill-rule:nonzero;stroke:none"
           id="path1232" />
      </g>
      <g
         id="g1234"
         transform="matrix(0.35277777,0,0,-0.35277777,24.152034,201.03713)">
        <path
           d="M 0,0 C 0.172,0.514 0.458,0.909 0.78,1.335 0.829,1.4 0.727,1.469 0.672,1.419 0.269,1.052 0.041,0.545 -0.097,0.027 -0.113,-0.036 -0.02,-0.061 0,0"
           style="fill:#37c6f7;fill-opacity:1;fill-rule:nonzero;stroke:none"
           id="path1236" />
      </g>
      <g
         id="g1238"
         transform="matrix(0.35277777,0,0,-0.35277777,24.534127,200.37532)">
        <path
           d="M 0,0 C 0.338,0.33 0.715,0.566 1.108,0.82 1.161,0.854 1.128,0.954 1.063,0.927 0.616,0.744 0.245,0.433 -0.088,0.088 -0.144,0.03 -0.057,-0.056 0,0"
           style="fill:#37c6f7;fill-opacity:1;fill-rule:nonzero;stroke:none"
           id="path1240" />
      </g>
      <g
         id="g1242"
         transform="matrix(0.35277777,0,0,-0.35277777,25.124571,199.95456)">
        <path
           d="M 0,0 C 0.441,0.097 0.904,0.167 1.324,0.335 1.375,0.355 1.375,0.448 1.31,0.44 0.853,0.389 0.412,0.232 -0.029,0.107 -0.098,0.087 -0.069,-0.015 0,0"
           style="fill:#37c6f7;fill-opacity:1;fill-rule:nonzero;stroke:none"
           id="path1244" />
      </g>
      <g
         id="g1246"
         transform="matrix(0.35277777,0,0,-0.35277777,25.828645,199.76184)">
        <path
           d="M 0,0 C 0.391,0.057 0.799,0.139 1.101,0.406 1.152,0.451 1.097,0.525 1.039,0.513 0.67,0.437 0.323,0.248 -0.038,0.137 -0.127,0.109 -0.088,-0.013 0,0"
           style="fill:#37c6f7;fill-opacity:1;fill-rule:nonzero;stroke:none"
           id="path1248" />
      </g>
      <g
         id="g1250"
         transform="matrix(0.35277777,0,0,-0.35277777,26.529015,199.53888)">
        <path
           d="M 0,0 C 0.296,0.069 0.556,0.218 0.717,0.48 0.767,0.561 0.658,0.631 0.592,0.576 0.382,0.403 0.193,0.245 -0.052,0.123 -0.123,0.088 -0.072,-0.017 0,0"
           style="fill:#37c6f7;fill-opacity:1;fill-rule:nonzero;stroke:none"
           id="path1252" />
      </g>
      <g
         id="g1254"
         transform="matrix(0.35277777,0,0,-0.35277777,25.588545,200.06533)">
        <path
           d="m 0,0 c 0.375,0.05 0.771,0.152 1.043,0.429 0.043,0.044 0,0.133 -0.064,0.11 C 0.639,0.414 0.333,0.223 -0.015,0.109 -0.07,0.09 -0.065,-0.009 0,0"
           style="fill:#37c6f7;fill-opacity:1;fill-rule:nonzero;stroke:none"
           id="path1256" />
      </g>
      <g
         id="g1258"
         transform="matrix(0.35277777,0,0,-0.35277777,24.855578,200.41296)">
        <path
           d="M 0,0 C 0.255,0.19 0.538,0.291 0.825,0.417 0.885,0.443 0.856,0.549 0.791,0.542 0.45,0.505 0.176,0.325 -0.08,0.103 -0.135,0.055 -0.06,-0.045 0,0"
           style="fill:#37c6f7;fill-opacity:1;fill-rule:nonzero;stroke:none"
           id="path1260" />
      </g>
      <g
         id="g1262"
         transform="matrix(0.35277777,0,0,-0.35277777,24.570604,200.85707)">
        <path
           d="M 0,0 C 0.109,0.228 0.277,0.386 0.431,0.58 0.453,0.608 0.434,0.661 0.393,0.646 0.12,0.551 -0.023,0.341 -0.143,0.084 -0.188,-0.012 -0.046,-0.097 0,0"
           style="fill:#37c6f7;fill-opacity:1;fill-rule:nonzero;stroke:none"
           id="path1264" />
      </g>
      <g
         id="g1266"
         transform="matrix(0.35277777,0,0,-0.35277777,25.081568,200.63503)">
        <path
           d="M 0,0 C 0.298,0.185 0.619,0.3 0.929,0.459 0.984,0.487 0.944,0.565 0.889,0.554 0.539,0.483 0.241,0.286 -0.045,0.078 -0.091,0.044 -0.05,-0.031 0,0"
           style="fill:#37c6f7;fill-opacity:1;fill-rule:nonzero;stroke:none"
           id="path1268" />
      </g>
      <g
         id="g1270"
         transform="matrix(0.35277777,0,0,-0.35277777,25.842051,200.29675)">
        <path
           d="M 0,0 C 0.323,0.135 0.658,0.257 0.964,0.426 1.022,0.458 0.983,0.555 0.919,0.534 0.586,0.424 0.27,0.262 -0.049,0.117 -0.114,0.087 -0.067,-0.028 0,0"
           style="fill:#37c6f7;fill-opacity:1;fill-rule:nonzero;stroke:none"
           id="path1272" />
      </g>
      <g
         id="g1274"
         transform="matrix(0.35277777,0,0,-0.35277777,26.356154,199.95777)">
        <path
           d="M 0,0 C 0.306,0.057 0.55,0.153 0.778,0.368 0.846,0.431 0.76,0.535 0.682,0.493 0.444,0.364 0.216,0.245 -0.048,0.173 -0.161,0.143 -0.112,-0.021 0,0"
           style="fill:#37c6f7;fill-opacity:1;fill-rule:nonzero;stroke:none"
           id="path1276" />
      </g>
      <g
         id="g1278"
         transform="matrix(0.35277777,0,0,-0.35277777,25.415013,200.72827)">
        <path
           d="M 0,0 C 0.308,0.136 0.617,0.26 0.872,0.482 0.923,0.527 0.868,0.603 0.81,0.589 0.48,0.511 0.199,0.329 -0.091,0.155 -0.193,0.094 -0.104,-0.046 0,0"
           style="fill:#37c6f7;fill-opacity:1;fill-rule:nonzero;stroke:none"
           id="path1280" />
      </g>
      <g
         id="g1282"
         transform="matrix(0.35277777,0,0,-0.35277777,24.869372,200.88674)">
        <path
           d="m 0,0 c -0.15,-0.165 -0.289,-0.307 -0.379,-0.51 -0.027,-0.061 0.042,-0.122 0.095,-0.073 0.165,0.148 0.258,0.326 0.368,0.518 C 0.114,-0.013 0.042,0.046 0,0"
           style="fill:#37c6f7;fill-opacity:1;fill-rule:nonzero;stroke:none"
           id="path1284" />
      </g>
      <g
         id="g1286"
         transform="matrix(0.35277777,0,0,-0.35277777,24.34151,201.16935)">
        <path
           d="m 0,0 c -0.112,-0.199 -0.21,-0.383 -0.26,-0.605 -0.011,-0.049 0.062,-0.086 0.085,-0.036 0.092,0.196 0.161,0.399 0.253,0.596 C 0.102,0.006 0.029,0.051 0,0"
           style="fill:#37c6f7;fill-opacity:1;fill-rule:nonzero;stroke:none"
           id="path1288" />
      </g>
      <g
         id="g1290"
         transform="matrix(0.35277777,0,0,-0.35277777,9.9649697,195.12464)">
        <path
           d="m 0,0 c -3.252,1.678 -7.454,0.34 -10.577,-1.006 -3.396,-1.462 -6.571,-3.636 -7.844,-7.281 -0.176,-0.504 -0.29,-1.127 0.07,-1.522 0.589,-0.647 1.628,-0.012 2.272,0.581 2.309,2.124 5.061,3.759 8.018,4.806 1.443,0.51 9.63,0.725 9.312,2.748 C 1.126,-0.887 0.673,-0.348 0,0"
           style="fill:#99ecff;fill-opacity:1;fill-rule:nonzero;stroke:none"
           id="path1292" />
      </g>
      <g
         id="g1294"
         transform="matrix(0.35277777,0,0,-0.35277777,10.906992,202.24437)">
        <path
           d="m 0,0 c -0.828,0.548 -1.828,0.513 -2.775,0.49 -0.972,-0.023 -2.034,0.192 -2.928,-0.3 -0.449,-0.247 -0.843,-0.719 -0.761,-1.226 0.11,-0.678 0.933,-0.946 1.616,-1.021 1.407,-0.157 2.839,-0.086 4.224,0.209 0.425,0.09 0.897,0.242 1.082,0.634 C 0.695,-0.711 0.427,-0.283 0,0"
           style="fill:#f6a7a1;fill-opacity:1;fill-rule:nonzero;stroke:none"
           id="path1296" />
      </g>
      <g
         id="g1298"
         transform="matrix(0.35277777,0,0,-0.35277777,3.3426607,202.48334)">
        <path
           d="m 0,0 c -0.689,0.548 -1.522,0.513 -2.31,0.49 -0.808,-0.023 -1.692,0.192 -2.436,-0.3 -0.375,-0.247 -0.703,-0.719 -0.634,-1.226 0.092,-0.678 0.777,-0.946 1.345,-1.022 1.171,-0.156 2.363,-0.085 3.516,0.21 0.353,0.09 0.746,0.242 0.9,0.634 C 0.578,-0.711 0.355,-0.283 0,0"
           style="fill:#f6a7a1;fill-opacity:1;fill-rule:nonzero;stroke:none"
           id="path1300" />
      </g>
      <g
         id="g1302"
         transform="matrix(0.35277777,0,0,-0.35277777,8.225105,192.0142)">
        <path
           d="M 0,0 C -0.266,1.84 -5.902,7.388 -6.664,3.749 -7.107,1.638 -1.197,0.705 0.047,-0.327 Z"
           style="fill:#caf5ff;fill-opacity:1;fill-rule:nonzero;stroke:none"
           id="path1304" />
      </g>
      <g
         id="g1306"
         transform="matrix(0.35277777,0,0,-0.35277777,11.764842,190.03829)">
        <path
           d="M 0,0 C -0.034,0.385 -0.258,0.679 -0.736,0.802 -2.477,1.249 -4.438,-0.983 -4.944,-3.868 -3.62,-4.032 0.141,-1.603 0,0"
           style="fill:#caf5ff;fill-opacity:1;fill-rule:nonzero;stroke:none"
           id="path1308" />
      </g>
    </g>
    <g
       id="g58625"
       transform="translate(82.396527,13.547495)">
      <g
         id="g58339"
         transform="matrix(0.35277777,0,0,-0.35277777,-0.81426089,184.47499)">
        <path
           d="m 0,0 c 0.868,-11.079 2.824,-26.609 4.561,-43.225 l 0.543,0.108 c 3.91,16.834 7.929,34.971 9.992,52.022 L 29.323,7.71 C 25.413,-15.205 18.571,-43.225 11.512,-66.142 l -10.426,0.87 c -3.258,11.186 -5.865,22.589 -8.255,33.559 -2.606,-12.382 -5.429,-24.654 -8.905,-35.732 l -10.425,0.869 c -4.888,24.436 -9.559,49.09 -12.491,74.721 l 14.011,-1.194 c 1.194,-12.925 3.149,-30.736 5.43,-50.176 l 0.542,0.108 c 3.151,14.553 6.3,29.215 8.146,44.094 z"
           style="fill:#487fd8;fill-opacity:1;fill-rule:nonzero;stroke:none"
           id="path58337" />
      </g>
      <g
         id="g58343"
         transform="matrix(0.35277777,0,0,-0.35277777,2.8971729,205.66416)">
        <path
           d="m 0,0 c -1.584,-1.847 -8.099,-9.823 -6.334,-11.61 1.765,-1.787 12.486,2.886 15.861,3.722"
           style="fill:#51d4f2;fill-opacity:1;fill-rule:nonzero;stroke:none"
           id="path58341" />
      </g>
      <g
         id="g58347"
         transform="matrix(0.35277777,0,0,-0.35277777,23.210717,202.28713)">
        <path
           d="m 0,0 c -1.126,-0.425 -1.577,-1.639 -2.344,-2.462 -2.352,-2.524 -6.181,-1.502 -8.748,0.05 -3.377,2.044 -4.664,5.901 -6,9.388 -1.588,4.144 -3.792,7.668 -7.441,10.317 -5.605,4.067 -13.027,5.505 -19.79,4.18 -7.996,-1.566 -14.617,-7.997 -16.907,-15.739 -1.702,-5.749 -1.024,-12.166 1.86,-17.425 4.495,-8.196 14.078,-12.346 22.968,-13.018 11.461,-0.866 25.181,1.293 33.264,10.369 2.077,2.332 3.636,5.034 4.543,8.025 C 1.871,-4.78 3.617,1.367 0,0"
           style="fill:#85e3ff;fill-opacity:1;fill-rule:nonzero;stroke:none"
           id="path58345" />
      </g>
      <g
         id="g58351"
         transform="matrix(0.35277777,0,0,-0.35277777,6.9301989,189.97529)">
        <path
           d="m 0,0 c -2.242,0.774 -4.547,-0.933 -5.04,-2.611 -0.453,-1.539 0.607,-3.173 1.969,-4.021 1.362,-0.849 2.984,-1.143 4.504,-1.657 1.089,-0.368 2.192,-0.911 2.964,-1.731 0.275,-0.291 0.76,-0.112 0.755,0.289 C 5.102,-6.04 4.308,-1.489 0,0"
           style="fill:#85e3ff;fill-opacity:1;fill-rule:nonzero;stroke:none"
           id="path58349" />
      </g>
      <g
         id="g58355"
         transform="matrix(0.35277777,0,0,-0.35277777,12.74313,190.23532)">
        <path
           d="m 0,0 c -0.424,1.441 -2.404,2.907 -4.329,2.242 -3.642,-1.258 -4.36,-5.065 -4.422,-8.208 -0.008,-0.384 0.458,-0.582 0.73,-0.311 0.658,0.656 1.565,1.097 2.461,1.4 1.305,0.441 2.699,0.694 3.868,1.423 C -0.522,-2.726 0.389,-1.322 0,0"
           style="fill:#85e3ff;fill-opacity:1;fill-rule:nonzero;stroke:none"
           id="path58353" />
      </g>
      <g
         id="g58359"
         transform="matrix(0.35277777,0,0,-0.35277777,21.642725,199.25412)">
        <path
           d="M 0,0 C -2.3,0.725 -3.676,1.773 -4.386,2.457 -4.674,2.735 -5.153,2.598 -5.254,2.21 -6.018,-0.731 -6.258,-3.215 -4.531,-5.987 -2.77,-8.812 1.707,-9.942 5.294,-9.861 5.294,-9.861 5.251,-1.656 0,0"
           style="fill:#85e3ff;fill-opacity:1;fill-rule:nonzero;stroke:none"
           id="path58357" />
      </g>
      <g
         id="g58363"
         transform="matrix(0.35277777,0,0,-0.35277777,25.670177,199.53267)">
        <path
           d="m 0,0 c 2.604,0.583 3.944,1.42 4.624,2.056 0.31,0.291 0.814,0.121 0.881,-0.3 0.456,-2.888 0.418,-5.316 -1.496,-7.849 -2.007,-2.657 -6.566,-3.38 -10.132,-2.978 0,0 -0.246,7.645 6.123,9.071"
           style="fill:#85e3ff;fill-opacity:1;fill-rule:nonzero;stroke:none"
           id="path58361" />
      </g>
      <g
         id="g58367"
         transform="matrix(0.35277777,0,0,-0.35277777,10.367877,200.45727)">
        <path
           d="m 0,0 c 0,-1.558 -1.263,-2.822 -2.821,-2.822 -1.559,0 -2.822,1.264 -2.822,2.822 0,1.558 1.263,2.822 2.822,2.822 C -1.263,2.822 0,1.558 0,0"
           style="fill:#155284;fill-opacity:1;fill-rule:nonzero;stroke:none"
           id="path58365" />
      </g>
      <g
         id="g58371"
         transform="matrix(0.35277777,0,0,-0.35277777,9.7481525,200.20891)">
        <path
           d="m 0,0 c 0,-0.779 -0.632,-1.411 -1.411,-1.411 -0.779,0 -1.41,0.632 -1.41,1.411 0,0.779 0.631,1.411 1.41,1.411 C -0.632,1.411 0,0.779 0,0"
           style="fill:#ffffff;fill-opacity:1;fill-rule:nonzero;stroke:none"
           id="path58369" />
      </g>
      <g
         id="g58375"
         transform="matrix(0.35277777,0,0,-0.35277777,4.0904437,200.41709)">
        <path
           d="m 0,0 c 0,-1.558 -1.263,-2.822 -2.822,-2.822 -1.558,0 -2.821,1.264 -2.821,2.822 0,1.558 1.263,2.822 2.821,2.822 C -1.263,2.822 0,1.558 0,0"
           style="fill:#155284;fill-opacity:1;fill-rule:nonzero;stroke:none"
           id="path58373" />
      </g>
      <g
         id="g58379"
         transform="matrix(0.35277777,0,0,-0.35277777,3.3659793,200.20891)">
        <path
           d="m 0,0 c 0,-0.779 -0.632,-1.411 -1.411,-1.411 -0.779,0 -1.411,0.632 -1.411,1.411 0,0.779 0.632,1.411 1.411,1.411 C -0.632,1.411 0,0.779 0,0"
           style="fill:#ffffff;fill-opacity:1;fill-rule:nonzero;stroke:none"
           id="path58377" />
      </g>
      <g
         id="g58383"
         transform="matrix(0.35277777,0,0,-0.35277777,5.0975184,202.40982)">
        <path
           d="m 0,0 c -0.538,-1.775 0.778,-3.379 2.565,-3.518 2.102,-0.163 3.48,1.633 3.269,3.634 -0.01,0.085 -0.129,0.088 -0.135,0 C 5.57,-1.67 4.691,-3.379 2.648,-3.266 0.816,-3.165 -0.043,-1.706 0.071,-0.01 0.074,0.032 0.012,0.038 0,0"
           style="fill:#155284;fill-opacity:1;fill-rule:nonzero;stroke:none"
           id="path58381" />
      </g>
      <g
         id="g58387"
         transform="matrix(0.35277777,0,0,-0.35277777,18.674065,209.38036)">
        <path
           d="m 0,0 c -6.394,-1.64 -14.653,-1.422 -19.57,3.499 -2.265,2.267 -4.215,4.878 -6.733,6.883 -2.473,1.969 -5.408,3.006 -8.572,2.561 -2.639,-0.372 -5.227,-1.734 -6.375,-4.242 -1.055,-2.305 -0.531,-4.74 0.508,-6.94 0.013,-0.027 0.028,-0.052 0.041,-0.079 4.853,-3.792 11.162,-5.831 17.158,-6.284 C -13.425,-5.366 -1.551,-3.77 6.655,2.856 4.585,1.624 2.376,0.61 0,0"
           style="fill:#caf5ff;fill-opacity:1;fill-rule:nonzero;stroke:none"
           id="path58385" />
      </g>
      <g
         id="g58403"
         transform="matrix(0.35277777,0,0,-0.35277777,-89.066312,227.90994)">
        <g
           id="g58401"
           clip-path="url(#clipPath1068)">
          <g
             id="g58391"
             transform="translate(276.4108,67.7497)">
            <path
               d="m 0,0 c 0.502,-7.149 3.944,-12.74 10.528,-15.852 7.756,-3.668 18.339,-2.667 25.937,0.968 0.523,0.251 0.134,0.983 -0.373,0.885 -4.338,-0.833 -8.396,-2.393 -12.85,-2.736 -4.095,-0.315 -8.372,0.158 -12.144,1.859 C 4.749,-12.013 1.392,-6.669 0.204,0.028 0.183,0.142 -0.008,0.117 0,0"
               style="fill:#a6f2ff;fill-opacity:1;fill-rule:nonzero;stroke:none"
               id="path58389" />
          </g>
          <g
             id="g58395"
             transform="translate(269.5497,66.6384)">
            <path
               d="m 0,0 c 0.522,-7.384 4.774,-12.977 11.597,-15.778 3.381,-1.389 7.034,-2.036 10.674,-2.204 5.147,-0.238 10.984,0.086 15.794,2.093 0.564,0.235 0.362,1.022 -0.253,0.92 -8.256,-1.372 -16.473,-2.897 -24.641,-0.099 C 6.202,-12.68 1.61,-7.219 0.462,0.063 0.421,0.323 -0.019,0.264 0,0"
               style="fill:#a6f2ff;fill-opacity:1;fill-rule:nonzero;stroke:none"
               id="path58393" />
          </g>
          <g
             id="g58399"
             transform="translate(262.0226,66.2432)">
            <path
               d="m 0,0 c 1.518,-8.616 6.712,-15.018 15.346,-17.12 9.25,-2.252 20.156,-1.456 29.09,1.759 0.556,0.2 0.336,0.984 -0.243,0.88 -9.051,-1.616 -17.797,-3.548 -27.019,-1.795 C 13.272,-15.535 9.5,-14.108 6.59,-11.325 3.387,-8.262 1.413,-4.156 0.347,0.096 0.29,0.323 -0.04,0.224 0,0"
               style="fill:#a6f2ff;fill-opacity:1;fill-rule:nonzero;stroke:none"
               id="path58397" />
          </g>
        </g>
      </g>
      <g
         id="g58407"
         transform="matrix(0.35277777,0,0,-0.35277777,10.985767,206.99071)">
        <path
           d="m 0,0 c 1.247,-1.716 12.899,-17.846 14.982,-13.898 1.366,2.589 -0.04,8.9 -0.399,11.683"
           style="fill:#85e3ff;fill-opacity:1;fill-rule:nonzero;stroke:none"
           id="path58405" />
      </g>
      <g
         id="g58411"
         transform="matrix(0.35277777,0,0,-0.35277777,17.61873,202.19653)">
        <path
           d="M 0,0 C 0.266,-0.706 0.857,-1.544 1.58,-1.832 1.686,-1.874 1.751,-1.725 1.684,-1.653 1.437,-1.386 1.128,-1.187 0.881,-0.916 0.604,-0.612 0.395,-0.273 0.183,0.077 0.127,0.171 -0.041,0.11 0,0"
           style="fill:#37c6f7;fill-opacity:1;fill-rule:nonzero;stroke:none"
           id="path58409" />
      </g>
      <g
         id="g58415"
         transform="matrix(0.35277777,0,0,-0.35277777,18.45686,202.96241)">
        <path
           d="M 0,0 C 0.232,-0.453 0.624,-0.861 1.146,-0.946 1.229,-0.96 1.291,-0.848 1.207,-0.801 0.778,-0.559 0.399,-0.35 0.099,0.058 0.056,0.116 -0.034,0.067 0,0"
           style="fill:#37c6f7;fill-opacity:1;fill-rule:nonzero;stroke:none"
           id="path58413" />
      </g>
      <g
         id="g58419"
         transform="matrix(0.35277777,0,0,-0.35277777,19.149433,203.49818)">
        <path
           d="M 0,0 C 0.408,-0.348 0.965,-0.696 1.523,-0.659 1.635,-0.651 1.65,-0.508 1.548,-0.468 1.045,-0.273 0.57,-0.169 0.126,0.163 0.032,0.233 -0.089,0.076 0,0"
           style="fill:#37c6f7;fill-opacity:1;fill-rule:nonzero;stroke:none"
           id="path58417" />
      </g>
      <g
         id="g58423"
         transform="matrix(0.35277777,0,0,-0.35277777,18.702605,203.73909)">
        <path
           d="M 0,0 C 0.397,-0.436 0.981,-0.873 1.593,-0.883 1.683,-0.884 1.72,-0.755 1.64,-0.712 1.113,-0.429 0.595,-0.267 0.125,0.125 0.038,0.197 -0.078,0.085 0,0"
           style="fill:#37c6f7;fill-opacity:1;fill-rule:nonzero;stroke:none"
           id="path58421" />
      </g>
      <g
         id="g58427"
         transform="matrix(0.35277777,0,0,-0.35277777,19.85139,203.76033)">
        <path
           d="m 0,0 c 0.496,-0.243 1.126,-0.489 1.682,-0.36 0.076,0.017 0.065,0.12 0,0.143 C 1.164,-0.038 0.587,-0.027 0.055,0.13 -0.021,0.152 -0.073,0.036 0,0"
           style="fill:#37c6f7;fill-opacity:1;fill-rule:nonzero;stroke:none"
           id="path58425" />
      </g>
      <g
         id="g58431"
         transform="matrix(0.35277777,0,0,-0.35277777,19.678423,204.19139)">
        <path
           d="M 0,0 C 0.435,-0.126 0.884,-0.237 1.339,-0.193 1.421,-0.185 1.455,-0.055 1.36,-0.037 0.924,0.047 0.484,0.076 0.051,0.183 -0.068,0.213 -0.118,0.034 0,0"
           style="fill:#37c6f7;fill-opacity:1;fill-rule:nonzero;stroke:none"
           id="path58429" />
      </g>
      <g
         id="g58435"
         transform="matrix(0.35277777,0,0,-0.35277777,20.915791,203.94546)">
        <path
           d="M 0,0 C 0.438,-0.027 0.839,-0.003 1.26,0.123 1.358,0.153 1.315,0.288 1.218,0.273 0.813,0.213 0.41,0.163 0,0.166 -0.108,0.167 -0.106,0.007 0,0"
           style="fill:#37c6f7;fill-opacity:1;fill-rule:nonzero;stroke:none"
           id="path58433" />
      </g>
      <g
         id="g58439"
         transform="matrix(0.35277777,0,0,-0.35277777,20.58799,204.30597)">
        <path
           d="M 0,0 C 0.441,-0.012 0.876,0.002 1.302,0.125 1.39,0.151 1.378,0.3 1.279,0.292 0.85,0.254 0.433,0.195 0,0.197 -0.127,0.198 -0.127,0.003 0,0"
           style="fill:#37c6f7;fill-opacity:1;fill-rule:nonzero;stroke:none"
           id="path58437" />
      </g>
      <g
         id="g58443"
         transform="matrix(0.35277777,0,0,-0.35277777,21.454271,204.156)">
        <path
           d="M 0,0 C 0.509,0.071 1.007,0.201 1.453,0.462 1.52,0.501 1.476,0.62 1.398,0.592 0.923,0.419 0.46,0.236 -0.032,0.117 -0.11,0.098 -0.075,-0.01 0,0"
           style="fill:#37c6f7;fill-opacity:1;fill-rule:nonzero;stroke:none"
           id="path58441" />
      </g>
      <g
         id="g58447"
         transform="matrix(0.35277777,0,0,-0.35277777,21.743408,203.84792)">
        <path
           d="M 0,0 C 0.474,0.186 0.916,0.426 1.263,0.805 1.31,0.857 1.246,0.954 1.183,0.908 0.783,0.619 0.397,0.335 -0.052,0.123 -0.12,0.091 -0.071,-0.028 0,0"
           style="fill:#37c6f7;fill-opacity:1;fill-rule:nonzero;stroke:none"
           id="path58445" />
      </g>
      <g
         id="g58451"
         transform="matrix(0.35277777,0,0,-0.35277777,22.519237,203.45831)">
        <path
           d="M 0,0 C 0.347,0.153 0.617,0.359 0.824,0.678 0.872,0.751 0.762,0.837 0.702,0.772 0.469,0.519 0.217,0.311 -0.098,0.167 -0.211,0.115 -0.113,-0.05 0,0"
           style="fill:#37c6f7;fill-opacity:1;fill-rule:nonzero;stroke:none"
           id="path58449" />
      </g>
      <g
         id="g58455"
         transform="matrix(0.35277777,0,0,-0.35277777,19.672391,204.59648)">
        <path
           d="m 0,0 c 0.606,-0.301 1.32,-0.515 1.992,-0.333 0.074,0.02 0.052,0.119 -0.017,0.126 C 1.307,-0.142 0.688,-0.125 0.056,0.133 -0.02,0.164 -0.073,0.036 0,0"
           style="fill:#37c6f7;fill-opacity:1;fill-rule:nonzero;stroke:none"
           id="path58453" />
      </g>
      <g
         id="g58459"
         transform="matrix(0.35277777,0,0,-0.35277777,20.811158,204.64672)">
        <path
           d="M 0,0 C 0.351,-0.06 0.678,-0.068 1.013,0.063 1.114,0.102 1.074,0.239 0.969,0.223 0.644,0.175 0.349,0.138 0.024,0.177 -0.076,0.188 -0.1,0.017 0,0"
           style="fill:#37c6f7;fill-opacity:1;fill-rule:nonzero;stroke:none"
           id="path58457" />
      </g>
      <g
         id="g58463"
         transform="matrix(0.35277777,0,0,-0.35277777,21.626815,204.43646)">
        <path
           d="M 0,0 C 0.475,0.06 0.932,0.228 1.313,0.521 1.386,0.577 1.325,0.688 1.239,0.646 0.824,0.441 0.425,0.27 -0.018,0.136 -0.089,0.114 -0.08,-0.01 0,0"
           style="fill:#37c6f7;fill-opacity:1;fill-rule:nonzero;stroke:none"
           id="path58461" />
      </g>
      <g
         id="g58467"
         transform="matrix(0.35277777,0,0,-0.35277777,22.469213,203.86559)">
        <path
           d="M 0,0 C 0.18,0.113 0.358,0.219 0.524,0.351 0.588,0.402 0.506,0.499 0.438,0.462 0.258,0.363 0.096,0.241 -0.072,0.122 -0.145,0.071 -0.079,-0.049 0,0"
           style="fill:#37c6f7;fill-opacity:1;fill-rule:nonzero;stroke:none"
           id="path58465" />
      </g>
      <g
         id="g58471"
         transform="matrix(0.35277777,0,0,-0.35277777,21.093203,205.03855)">
        <path
           d="M 0,0 C 0.433,0 0.846,0.059 1.233,0.261 1.3,0.296 1.254,0.4 1.183,0.381 0.786,0.276 0.411,0.165 0,0.124 -0.078,0.117 -0.082,0 0,0"
           style="fill:#37c6f7;fill-opacity:1;fill-rule:nonzero;stroke:none"
           id="path58469" />
      </g>
      <g
         id="g58475"
         transform="matrix(0.35277777,0,0,-0.35277777,19.911468,204.92477)">
        <path
           d="M 0,0 C 0.425,-0.158 0.88,-0.305 1.337,-0.247 1.389,-0.241 1.41,-0.163 1.35,-0.149 0.912,-0.042 0.467,-0.015 0.033,0.12 -0.044,0.144 -0.074,0.027 0,0"
           style="fill:#37c6f7;fill-opacity:1;fill-rule:nonzero;stroke:none"
           id="path58473" />
      </g>
      <g
         id="g58479"
         transform="matrix(0.35277777,0,0,-0.35277777,18.028305,203.40279)">
        <path
           d="M 0,0 C 0.148,-0.249 0.326,-0.425 0.615,-0.483 0.7,-0.5 0.745,-0.394 0.673,-0.344 0.476,-0.207 0.291,-0.084 0.136,0.105 0.073,0.182 -0.049,0.083 0,0"
           style="fill:#37c6f7;fill-opacity:1;fill-rule:nonzero;stroke:none"
           id="path58477" />
      </g>
      <g
         id="g58483"
         transform="matrix(0.35277777,0,0,-0.35277777,17.233885,201.33025)">
        <path
           d="M 0,0 C 0.071,-0.381 0.19,-0.706 0.424,-1.017 0.479,-1.09 0.593,-1.028 0.55,-0.943 0.385,-0.624 0.251,-0.303 0.18,0.05 0.156,0.168 -0.022,0.117 0,0"
           style="fill:#37c6f7;fill-opacity:1;fill-rule:nonzero;stroke:none"
           id="path58481" />
      </g>
      <g
         id="g58487"
         transform="matrix(0.35277777,0,0,-0.35277777,16.768606,200.32399)">
        <path
           d="M 0,0 C -0.023,-0.279 0.011,-0.514 0.183,-0.739 0.235,-0.808 0.375,-0.773 0.338,-0.674 0.254,-0.448 0.192,-0.246 0.207,0 0.216,0.134 0.011,0.132 0,0"
           style="fill:#37c6f7;fill-opacity:1;fill-rule:nonzero;stroke:none"
           id="path58485" />
      </g>
      <g
         id="g58491"
         transform="matrix(0.35277777,0,0,-0.35277777,17.299643,202.54769)">
        <path
           d="M 0,0 C 0.198,-0.57 0.485,-1.079 0.972,-1.448 1.033,-1.494 1.087,-1.401 1.047,-1.35 0.7,-0.912 0.371,-0.478 0.16,0.044 0.121,0.141 -0.036,0.103 0,0"
           style="fill:#37c6f7;fill-opacity:1;fill-rule:nonzero;stroke:none"
           id="path58489" />
      </g>
      <g
         id="g58495"
         transform="matrix(0.35277777,0,0,-0.35277777,20.170901,198.69423)">
        <path
           d="m 0,0 c 0.393,-0.423 0.884,-0.83 1.463,-0.949 0.083,-0.017 0.141,0.097 0.06,0.142 C 1.015,-0.525 0.521,-0.314 0.076,0.076 0.024,0.121 -0.047,0.051 0,0"
           style="fill:#37c6f7;fill-opacity:1;fill-rule:nonzero;stroke:none"
           id="path58493" />
      </g>
      <g
         id="g58499"
         transform="matrix(0.35277777,0,0,-0.35277777,20.924646,199.16906)">
        <path
           d="m 0,0 c 0.329,-0.258 0.698,-0.492 1.126,-0.497 0.052,-0.001 0.075,0.075 0.028,0.1 C 0.802,-0.212 0.417,-0.109 0.067,0.087 0.015,0.116 -0.051,0.04 0,0"
           style="fill:#37c6f7;fill-opacity:1;fill-rule:nonzero;stroke:none"
           id="path58497" />
      </g>
      <g
         id="g58503"
         transform="matrix(0.35277777,0,0,-0.35277777,21.473815,199.39908)">
        <path
           d="M 0,0 C 0.55,-0.231 0.958,-0.605 1.46,-0.905 1.515,-0.938 1.593,-0.869 1.553,-0.813 1.207,-0.33 0.581,-0.06 0.032,0.117 -0.044,0.141 -0.069,0.029 0,0"
           style="fill:#37c6f7;fill-opacity:1;fill-rule:nonzero;stroke:none"
           id="path58501" />
      </g>
      <g
         id="g58507"
         transform="matrix(0.35277777,0,0,-0.35277777,22.113542,199.78374)">
        <path
           d="M 0,0 C 0.392,-0.276 0.632,-0.634 0.968,-0.96 1,-0.992 1.067,-0.961 1.049,-0.913 0.878,-0.464 0.457,-0.143 0.063,0.107 -0.006,0.151 -0.065,0.045 0,0"
           style="fill:#37c6f7;fill-opacity:1;fill-rule:nonzero;stroke:none"
           id="path58505" />
      </g>
      <g
         id="g58511"
         transform="matrix(0.35277777,0,0,-0.35277777,22.639852,200.43607)">
        <path
           d="M 0,0 C 0.135,-0.244 0.259,-0.491 0.435,-0.708 0.47,-0.751 0.552,-0.705 0.531,-0.653 0.423,-0.394 0.265,-0.169 0.113,0.066 0.068,0.137 -0.041,0.074 0,0"
           style="fill:#37c6f7;fill-opacity:1;fill-rule:nonzero;stroke:none"
           id="path58509" />
      </g>
      <g
         id="g58515"
         transform="matrix(0.35277777,0,0,-0.35277777,21.76334,199.84167)">
        <path
           d="m 0,0 c 0.426,-0.296 0.743,-0.667 1.124,-1.01 0.052,-0.047 0.138,0.013 0.1,0.078 C 0.958,-0.481 0.505,-0.158 0.065,0.11 -0.007,0.154 -0.067,0.046 0,0"
           style="fill:#37c6f7;fill-opacity:1;fill-rule:nonzero;stroke:none"
           id="path58513" />
      </g>
      <g
         id="g58519"
         transform="matrix(0.35277777,0,0,-0.35277777,21.04138,199.51207)">
        <path
           d="M 0,0 C 0.361,-0.141 0.657,-0.341 0.981,-0.545 1.033,-0.577 1.09,-0.503 1.046,-0.461 0.758,-0.181 0.403,-0.03 0.02,0.073 -0.028,0.086 -0.045,0.017 0,0"
           style="fill:#37c6f7;fill-opacity:1;fill-rule:nonzero;stroke:none"
           id="path58517" />
      </g>
      <g
         id="g58523"
         transform="matrix(0.35277777,0,0,-0.35277777,20.500678,199.22688)">
        <path
           d="M 0,0 C 0.307,-0.238 0.616,-0.465 0.983,-0.598 1.063,-0.627 1.1,-0.512 1.038,-0.469 0.733,-0.257 0.395,-0.093 0.08,0.103 0.018,0.142 -0.06,0.046 0,0"
           style="fill:#37c6f7;fill-opacity:1;fill-rule:nonzero;stroke:none"
           id="path58521" />
      </g>
      <g
         id="g58527"
         transform="matrix(0.35277777,0,0,-0.35277777,20.828691,199.71008)">
        <path
           d="m 0,0 c 0.407,-0.241 0.811,-0.508 1.247,-0.695 0.067,-0.028 0.12,0.056 0.058,0.099 C 0.914,-0.327 0.472,-0.129 0.051,0.087 -0.007,0.116 -0.056,0.033 0,0"
           style="fill:#37c6f7;fill-opacity:1;fill-rule:nonzero;stroke:none"
           id="path58525" />
      </g>
      <g
         id="g58531"
         transform="matrix(0.35277777,0,0,-0.35277777,21.548569,199.99132)">
        <path
           d="M 0,0 C 0.325,-0.274 0.653,-0.569 1.026,-0.775 1.1,-0.816 1.181,-0.717 1.118,-0.655 0.814,-0.355 0.44,-0.125 0.084,0.109 0.019,0.151 -0.06,0.051 0,0"
           style="fill:#37c6f7;fill-opacity:1;fill-rule:nonzero;stroke:none"
           id="path58529" />
      </g>
      <g
         id="g58535"
         transform="matrix(0.35277777,0,0,-0.35277777,21.552449,200.30762)">
        <path
           d="m 0,0 c 0.208,-0.188 0.406,-0.387 0.641,-0.54 0.062,-0.042 0.125,0.048 0.077,0.1 C 0.532,-0.239 0.305,-0.079 0.09,0.09 0.028,0.14 -0.062,0.056 0,0"
           style="fill:#37c6f7;fill-opacity:1;fill-rule:nonzero;stroke:none"
           id="path58533" />
      </g>
      <g
         id="g58539"
         transform="matrix(0.35277777,0,0,-0.35277777,22.179159,200.41063)">
        <path
           d="M 0,0 C 0.193,-0.239 0.354,-0.5 0.567,-0.721 0.601,-0.756 0.674,-0.72 0.654,-0.671 0.528,-0.367 0.321,-0.143 0.093,0.093 0.033,0.155 -0.052,0.064 0,0"
           style="fill:#37c6f7;fill-opacity:1;fill-rule:nonzero;stroke:none"
           id="path58537" />
      </g>
      <g
         id="g58543"
         transform="matrix(0.35277777,0,0,-0.35277777,22.569261,200.85912)">
        <path
           d="M 0,0 C 0.028,-0.259 0.088,-0.434 0.275,-0.619 0.316,-0.66 0.38,-0.609 0.353,-0.559 0.254,-0.372 0.168,-0.19 0.119,0.016 0.103,0.081 -0.007,0.069 0,0"
           style="fill:#37c6f7;fill-opacity:1;fill-rule:nonzero;stroke:none"
           id="path58541" />
      </g>
      <g
         id="g58547"
         transform="matrix(0.35277777,0,0,-0.35277777,22.900272,201.01318)">
        <path
           d="M 0,0 C 0.098,-0.368 0.2,-0.739 0.362,-1.085 0.395,-1.156 0.496,-1.103 0.482,-1.034 0.408,-0.666 0.27,-0.312 0.133,0.037 0.102,0.118 -0.023,0.088 0,0"
           style="fill:#37c6f7;fill-opacity:1;fill-rule:nonzero;stroke:none"
           id="path58545" />
      </g>
      <g
         id="g58551"
         transform="matrix(0.35277777,0,0,-0.35277777,24.152034,201.03713)">
        <path
           d="M 0,0 C 0.172,0.514 0.458,0.909 0.78,1.335 0.829,1.4 0.727,1.469 0.672,1.419 0.269,1.052 0.041,0.545 -0.097,0.027 -0.113,-0.036 -0.02,-0.061 0,0"
           style="fill:#37c6f7;fill-opacity:1;fill-rule:nonzero;stroke:none"
           id="path58549" />
      </g>
      <g
         id="g58555"
         transform="matrix(0.35277777,0,0,-0.35277777,24.534127,200.37532)">
        <path
           d="M 0,0 C 0.338,0.33 0.715,0.566 1.108,0.82 1.161,0.854 1.128,0.954 1.063,0.927 0.616,0.744 0.245,0.433 -0.088,0.088 -0.144,0.03 -0.057,-0.056 0,0"
           style="fill:#37c6f7;fill-opacity:1;fill-rule:nonzero;stroke:none"
           id="path58553" />
      </g>
      <g
         id="g58559"
         transform="matrix(0.35277777,0,0,-0.35277777,25.124571,199.95456)">
        <path
           d="M 0,0 C 0.441,0.097 0.904,0.167 1.324,0.335 1.375,0.355 1.375,0.448 1.31,0.44 0.853,0.389 0.412,0.232 -0.029,0.107 -0.098,0.087 -0.069,-0.015 0,0"
           style="fill:#37c6f7;fill-opacity:1;fill-rule:nonzero;stroke:none"
           id="path58557" />
      </g>
      <g
         id="g58563"
         transform="matrix(0.35277777,0,0,-0.35277777,25.828645,199.76184)">
        <path
           d="M 0,0 C 0.391,0.057 0.799,0.139 1.101,0.406 1.152,0.451 1.097,0.525 1.039,0.513 0.67,0.437 0.323,0.248 -0.038,0.137 -0.127,0.109 -0.088,-0.013 0,0"
           style="fill:#37c6f7;fill-opacity:1;fill-rule:nonzero;stroke:none"
           id="path58561" />
      </g>
      <g
         id="g58567"
         transform="matrix(0.35277777,0,0,-0.35277777,26.529015,199.53888)">
        <path
           d="M 0,0 C 0.296,0.069 0.556,0.218 0.717,0.48 0.767,0.561 0.658,0.631 0.592,0.576 0.382,0.403 0.193,0.245 -0.052,0.123 -0.123,0.088 -0.072,-0.017 0,0"
           style="fill:#37c6f7;fill-opacity:1;fill-rule:nonzero;stroke:none"
           id="path58565" />
      </g>
      <g
         id="g58571"
         transform="matrix(0.35277777,0,0,-0.35277777,25.588545,200.06533)">
        <path
           d="m 0,0 c 0.375,0.05 0.771,0.152 1.043,0.429 0.043,0.044 0,0.133 -0.064,0.11 C 0.639,0.414 0.333,0.223 -0.015,0.109 -0.07,0.09 -0.065,-0.009 0,0"
           style="fill:#37c6f7;fill-opacity:1;fill-rule:nonzero;stroke:none"
           id="path58569" />
      </g>
      <g
         id="g58575"
         transform="matrix(0.35277777,0,0,-0.35277777,24.855578,200.41296)">
        <path
           d="M 0,0 C 0.255,0.19 0.538,0.291 0.825,0.417 0.885,0.443 0.856,0.549 0.791,0.542 0.45,0.505 0.176,0.325 -0.08,0.103 -0.135,0.055 -0.06,-0.045 0,0"
           style="fill:#37c6f7;fill-opacity:1;fill-rule:nonzero;stroke:none"
           id="path58573" />
      </g>
      <g
         id="g58579"
         transform="matrix(0.35277777,0,0,-0.35277777,24.570604,200.85707)">
        <path
           d="M 0,0 C 0.109,0.228 0.277,0.386 0.431,0.58 0.453,0.608 0.434,0.661 0.393,0.646 0.12,0.551 -0.023,0.341 -0.143,0.084 -0.188,-0.012 -0.046,-0.097 0,0"
           style="fill:#37c6f7;fill-opacity:1;fill-rule:nonzero;stroke:none"
           id="path58577" />
      </g>
      <g
         id="g58583"
         transform="matrix(0.35277777,0,0,-0.35277777,25.081568,200.63503)">
        <path
           d="M 0,0 C 0.298,0.185 0.619,0.3 0.929,0.459 0.984,0.487 0.944,0.565 0.889,0.554 0.539,0.483 0.241,0.286 -0.045,0.078 -0.091,0.044 -0.05,-0.031 0,0"
           style="fill:#37c6f7;fill-opacity:1;fill-rule:nonzero;stroke:none"
           id="path58581" />
      </g>
      <g
         id="g58587"
         transform="matrix(0.35277777,0,0,-0.35277777,25.842051,200.29675)">
        <path
           d="M 0,0 C 0.323,0.135 0.658,0.257 0.964,0.426 1.022,0.458 0.983,0.555 0.919,0.534 0.586,0.424 0.27,0.262 -0.049,0.117 -0.114,0.087 -0.067,-0.028 0,0"
           style="fill:#37c6f7;fill-opacity:1;fill-rule:nonzero;stroke:none"
           id="path58585" />
      </g>
      <g
         id="g58591"
         transform="matrix(0.35277777,0,0,-0.35277777,26.356154,199.95777)">
        <path
           d="M 0,0 C 0.306,0.057 0.55,0.153 0.778,0.368 0.846,0.431 0.76,0.535 0.682,0.493 0.444,0.364 0.216,0.245 -0.048,0.173 -0.161,0.143 -0.112,-0.021 0,0"
           style="fill:#37c6f7;fill-opacity:1;fill-rule:nonzero;stroke:none"
           id="path58589" />
      </g>
      <g
         id="g58595"
         transform="matrix(0.35277777,0,0,-0.35277777,25.415013,200.72827)">
        <path
           d="M 0,0 C 0.308,0.136 0.617,0.26 0.872,0.482 0.923,0.527 0.868,0.603 0.81,0.589 0.48,0.511 0.199,0.329 -0.091,0.155 -0.193,0.094 -0.104,-0.046 0,0"
           style="fill:#37c6f7;fill-opacity:1;fill-rule:nonzero;stroke:none"
           id="path58593" />
      </g>
      <g
         id="g58599"
         transform="matrix(0.35277777,0,0,-0.35277777,24.869372,200.88674)">
        <path
           d="m 0,0 c -0.15,-0.165 -0.289,-0.307 -0.379,-0.51 -0.027,-0.061 0.042,-0.122 0.095,-0.073 0.165,0.148 0.258,0.326 0.368,0.518 C 0.114,-0.013 0.042,0.046 0,0"
           style="fill:#37c6f7;fill-opacity:1;fill-rule:nonzero;stroke:none"
           id="path58597" />
      </g>
      <g
         id="g58603"
         transform="matrix(0.35277777,0,0,-0.35277777,24.34151,201.16935)">
        <path
           d="m 0,0 c -0.112,-0.199 -0.21,-0.383 -0.26,-0.605 -0.011,-0.049 0.062,-0.086 0.085,-0.036 0.092,0.196 0.161,0.399 0.253,0.596 C 0.102,0.006 0.029,0.051 0,0"
           style="fill:#37c6f7;fill-opacity:1;fill-rule:nonzero;stroke:none"
           id="path58601" />
      </g>
      <g
         id="g58607"
         transform="matrix(0.35277777,0,0,-0.35277777,9.9649697,195.12464)">
        <path
           d="m 0,0 c -3.252,1.678 -7.454,0.34 -10.577,-1.006 -3.396,-1.462 -6.571,-3.636 -7.844,-7.281 -0.176,-0.504 -0.29,-1.127 0.07,-1.522 0.589,-0.647 1.628,-0.012 2.272,0.581 2.309,2.124 5.061,3.759 8.018,4.806 1.443,0.51 9.63,0.725 9.312,2.748 C 1.126,-0.887 0.673,-0.348 0,0"
           style="fill:#99ecff;fill-opacity:1;fill-rule:nonzero;stroke:none"
           id="path58605" />
      </g>
      <g
         id="g58611"
         transform="matrix(0.35277777,0,0,-0.35277777,10.906992,202.24437)">
        <path
           d="m 0,0 c -0.828,0.548 -1.828,0.513 -2.775,0.49 -0.972,-0.023 -2.034,0.192 -2.928,-0.3 -0.449,-0.247 -0.843,-0.719 -0.761,-1.226 0.11,-0.678 0.933,-0.946 1.616,-1.021 1.407,-0.157 2.839,-0.086 4.224,0.209 0.425,0.09 0.897,0.242 1.082,0.634 C 0.695,-0.711 0.427,-0.283 0,0"
           style="fill:#f6a7a1;fill-opacity:1;fill-rule:nonzero;stroke:none"
           id="path58609" />
      </g>
      <g
         id="g58615"
         transform="matrix(0.35277777,0,0,-0.35277777,3.3426607,202.48334)">
        <path
           d="m 0,0 c -0.689,0.548 -1.522,0.513 -2.31,0.49 -0.808,-0.023 -1.692,0.192 -2.436,-0.3 -0.375,-0.247 -0.703,-0.719 -0.634,-1.226 0.092,-0.678 0.777,-0.946 1.345,-1.022 1.171,-0.156 2.363,-0.085 3.516,0.21 0.353,0.09 0.746,0.242 0.9,0.634 C 0.578,-0.711 0.355,-0.283 0,0"
           style="fill:#f6a7a1;fill-opacity:1;fill-rule:nonzero;stroke:none"
           id="path58613" />
      </g>
      <g
         id="g58619"
         transform="matrix(0.35277777,0,0,-0.35277777,8.225105,192.0142)">
        <path
           d="M 0,0 C -0.266,1.84 -5.902,7.388 -6.664,3.749 -7.107,1.638 -1.197,0.705 0.047,-0.327 Z"
           style="fill:#caf5ff;fill-opacity:1;fill-rule:nonzero;stroke:none"
           id="path58617" />
      </g>
      <g
         id="g58623"
         transform="matrix(0.35277777,0,0,-0.35277777,11.764842,190.03829)">
        <path
           d="M 0,0 C -0.034,0.385 -0.258,0.679 -0.736,0.802 -2.477,1.249 -4.438,-0.983 -4.944,-3.868 -3.62,-4.032 0.141,-1.603 0,0"
           style="fill:#caf5ff;fill-opacity:1;fill-rule:nonzero;stroke:none"
           id="path58621" />
      </g>
    </g>
  </g>
</svg>
