<?xml version="1.0" encoding="UTF-8" standalone="no"?>
<!-- Created with Inkscape (http://www.inkscape.org/) -->

<svg
   width="39.44492mm"
   height="30.035933mm"
   viewBox="0 0 39.44492 30.035933"
   version="1.1"
   id="svg51502"
   inkscape:version="1.1-rc (52f87abb86, 2021-05-02)"
   sodipodi:docname="w-wombat.svg"
   xmlns:inkscape="http://www.inkscape.org/namespaces/inkscape"
   xmlns:sodipodi="http://sodipodi.sourceforge.net/DTD/sodipodi-0.dtd"
   xmlns="http://www.w3.org/2000/svg"
   xmlns:svg="http://www.w3.org/2000/svg">
  <sodipodi:namedview
     id="namedview51504"
     pagecolor="#ffffff"
     bordercolor="#666666"
     borderopacity="1.0"
     objecttolerance="10.0"
     gridtolerance="10.0"
     guidetolerance="10.0"
     inkscape:pageshadow="2"
     inkscape:pageopacity="0.0"
     inkscape:pagecheckerboard="0"
     inkscape:document-units="mm"
     showgrid="false"
     fit-margin-top="0"
     fit-margin-left="0"
     fit-margin-right="0"
     fit-margin-bottom="0"
     inkscape:zoom="0.94875842"
     inkscape:cx="-77.996673"
     inkscape:cy="-186.03261"
     inkscape:window-width="3840"
     inkscape:window-height="2066"
     inkscape:window-x="2869"
     inkscape:window-y="-11"
     inkscape:window-maximized="1"
     inkscape:current-layer="layer1" />
  <defs
     id="defs51499" />
  <g
     inkscape:label="Layer 1"
     inkscape:groupmode="layer"
     id="layer1"
     transform="translate(-125.84937,-197.76231)">
    <g
       id="g1010"
       transform="matrix(0.35277777,0,0,-0.35277777,139.60418,200.9038)"
       style="fill:#fbc430;fill-opacity:1">
      <path
         d="m 0,0 c 0.868,-11.079 2.824,-26.609 4.561,-43.225 l 0.543,0.108 c 3.91,16.834 7.929,34.971 9.992,52.022 L 29.323,7.71 C 25.413,-15.205 18.571,-43.225 11.512,-66.142 l -10.426,0.87 c -3.258,11.186 -5.865,22.589 -8.255,33.559 -2.606,-12.382 -5.429,-24.654 -8.905,-35.732 l -10.425,0.869 c -4.888,24.436 -9.559,49.09 -12.491,74.721 l 14.011,-1.194 c 1.194,-12.925 3.149,-30.736 5.43,-50.176 l 0.542,0.108 c 3.151,14.553 6.3,29.215 8.146,44.094 z"
         style="fill:#fbc430;fill-opacity:1;fill-rule:nonzero;stroke:none"
         id="path1012" />
    </g>
    <g
       id="g58684"
       transform="matrix(0.5893124,0,0,0.5893124,178.10742,177.6174)">
      <path
         style="fill:#946353;fill-opacity:1;fill-rule:nonzero;stroke:none;stroke-width:0.264583"
         d="m -21.750134,56.488321 c -0.352777,0.26458 -0.705556,0.52917 -1.058333,0.70556 -0.705556,0.52916 -1.322917,0.88194 -1.76389,1.5875 -0.705554,0.88194 -0.881943,2.02847 -1.41111,2.99861 0,0.17639 0.08819,0.26458 0.17639,0.0882 0.529166,-0.52916 -0.0882,0.61736 -0.0882,0.70556 -0.264584,0.35278 -0.617361,0.88194 -0.881944,1.23472 -0.264583,0.26458 -0.705556,0.52917 -0.881944,0.88194 0,0 -0.0882,0.17639 0,0.17639 0.08819,-0.0882 0.617361,-0.26458 0.529167,-0.17639 -0.264583,0.52917 -0.97014,1.23473 -1.411113,1.49931 -0.881943,0.61736 -1.41111,0.61736 -2.293054,0.88194 -0.79375,0.17639 -5.379862,-0.17638 -5.291666,-1.4993 0,0 0,0 0,0 0.881943,0.17639 1.852083,0.0882 2.557637,-0.17639 0.97014,-0.52917 1.852083,-1.5875 2.55764,-2.38125 0.881943,-0.97014 1.322916,-2.02847 1.852083,-3.175 0.264583,-0.61736 0.705556,-1.41111 1.234723,-1.94028 0.08819,-0.0882 0.79375,-0.70555 0.440971,-0.17639 -0.08819,0.0882 -0.08819,0.17639 -0.08819,0.35278 0,0 0,0 0,0 0.08819,0.0882 0.08819,0.0882 0.08819,0.0882 0.0882,0 0.0882,0 0.0882,0 0.44097,-0.26458 0.705554,-0.70555 1.146527,-0.88194 0.440973,-0.26458 0.970139,-0.44097 1.41111,-0.61736 -0.176387,0.17639 -0.352777,0.35278 -0.529167,0.52917 0,0 -0.08819,0.26458 0.0882,0.17638 0.264584,-0.17638 0.617361,-0.44097 0.970138,-0.61736 0.529166,-0.26458 1.234723,-0.35277 1.940279,-0.35277 0,0 0.705554,0.0882 0.61736,0.0882 z"
         id="path56373" />
      <path
         style="fill:#946353;fill-opacity:1;fill-rule:nonzero;stroke:none;stroke-width:0.264583"
         d="m -28.01194,58.869571 c 0.0882,-0.17639 0.264583,0 0.264583,0.0882 -0.08819,0.26458 -0.176387,0.44097 -0.176387,0.70555 0.440971,-0.97014 1.234721,-1.76389 2.20486,-2.20486 0.08819,0 0.264584,0.0882 0.17639,0.26458 0,0.0882 -0.0882,0.17639 -0.17639,0.26459 0.617361,-0.52917 1.411111,-1.05834 2.116667,-1.32292 0.17639,-0.0882 0.352777,-0.17639 0.529167,-0.26458 -0.440973,0.0882 -0.881944,0.17639 -1.234723,0.35277 -0.352777,0.17639 -0.705554,0.44098 -0.970138,0.61737 -0.176389,0.0882 -0.0882,-0.17639 -0.0882,-0.17639 0.17639,-0.17639 0.35278,-0.35278 0.529167,-0.52917 -0.440971,0.17639 -0.970137,0.35278 -1.41111,0.61736 -0.440973,0.17639 -0.705557,0.61736 -1.146527,0.88195 -0.0882,0 -0.0882,0 -0.0882,0 -0.08819,-0.0882 -0.08819,-0.0882 -0.08819,-0.0882 0,0 0,0 0,0 0,-0.17639 0,-0.26458 0.08819,-0.35278 0.352779,-0.52916 -0.352777,0.0882 -0.440971,0.17639 -0.529167,0.52917 -0.97014,1.32292 -1.234723,1.94028 -0.529167,1.14653 -0.97014,2.20486 -1.852083,3.175 -0.705557,0.79375 -1.5875,1.85208 -2.55764,2.38125 -0.176387,0 -0.264583,0.0882 -0.440971,0.0882 3.439584,0.44098 4.321527,-4.58611 5.997221,-6.61458 z"
         id="path56375" />
      <path
         style="fill:#d2a08b;fill-opacity:1;fill-rule:nonzero;stroke:none;stroke-width:0.264583"
         d="m -29.511244,61.515401 c -0.264583,0.52917 -0.529167,1.05834 -0.881946,1.5875 0.17639,-0.17638 0.264583,-0.35277 0.352779,-0.61736 0.176388,-0.26458 0.352777,-0.61736 0.529167,-0.97014 m 2.910417,-3.52777 c -0.35278,0.26458 -0.705557,0.61736 -0.97014,1.05833 0,0 0,0 0,0 0.264583,-0.44097 0.61736,-0.70556 0.97014,-1.05833 m 4.233333,-1.5875 c 0,0 0,0 0,0 0,0 0,0 0,0 -0.617363,0 -1.234723,0.0882 -1.76389,0.26458 0.352777,-0.0882 0.705557,-0.17639 1.058334,-0.26458 -0.17639,0.0882 -0.352777,0.17639 -0.529167,0.26458 -0.705556,0.26458 -1.499306,0.79375 -2.116667,1.32292 0.08819,-0.0882 0.17639,-0.17639 0.17639,-0.26459 0.08819,-0.17639 0,-0.26458 -0.0882,-0.26458 0,0 -0.08819,0 -0.08819,0 -0.08819,0.0882 -0.08819,0.0882 -0.176389,0.0882 0,0.17639 -0.08819,0.61736 -0.08819,0.79375 1.058333,-1.14652 2.469444,-1.85208 4.056944,-1.85208 0,0 0.0882,0 0.176389,0 -0.176389,-0.0882 -0.61736,-0.0882 -0.61736,-0.0882 z"
         id="path56377" />
      <path
         style="fill:#d2a08b;fill-opacity:1;fill-rule:nonzero;stroke:none;stroke-width:0.264583"
         d="m -23.07305,56.400131 c -0.352777,0.0882 -0.705557,0.17639 -1.058334,0.26458 0,0 0,0 0,0 -0.08819,0.0882 -0.176389,0.0882 -0.176389,0.0882 0,0 0,0 0,0 -0.352777,0.17639 -0.705554,0.44098 -0.970138,0.61736 -0.0882,0 -0.0882,0 -0.0882,0 0,0 0,0 0,0 0,-0.0882 0,-0.17638 0,-0.17638 0.17639,-0.17639 0.35278,-0.35278 0.529167,-0.52917 -0.440971,0.17639 -0.970137,0.35278 -1.41111,0.61736 -0.440973,0.17639 -0.705557,0.61736 -1.146527,0.88194 -0.0882,0 -0.0882,0 -0.0882,0 -0.08819,-0.0882 -0.08819,-0.0882 -0.08819,-0.0882 0,0 0,0 0,0 0,0 0,0 0,0 0,-0.17639 0,-0.26458 0.08819,-0.35278 0.0882,-0.0882 0.0882,-0.17639 0.0882,-0.17639 0,0 0,0 0,0 -0.0882,0 -0.440973,0.26459 -0.529167,0.35278 -0.529167,0.52917 -0.97014,1.32292 -1.234723,1.94028 -0.529167,1.14653 -0.97014,2.20486 -1.852083,3.175 -0.529167,0.61736 -1.146527,1.41111 -1.852084,1.94028 0.08819,0.0882 0.08819,0.17639 0.17639,0.26458 0.881944,-0.35278 1.763887,-1.23472 2.293054,-2.11667 0.352779,-0.52916 0.617363,-1.05833 0.881946,-1.5875 0.440971,-1.14652 0.881944,-2.38125 1.763887,-3.0868 0,0 0,-0.0882 0,-0.0882 0.0882,0 0.17639,0.52917 0.17639,0.70556 0.264583,-0.44097 0.61736,-0.79375 0.97014,-1.05833 0.176387,-0.17639 0.44097,-0.26459 0.61736,-0.44098 0,0 0,0 0,0 0.08819,0 0.08819,0 0.08819,0 0.0882,0 0.0882,0 0.176389,-0.0882 0,0 0.08819,0 0.08819,0 0.0882,0 0.17639,0.0882 0.0882,0.26458 0,0.0882 -0.0882,0.17639 -0.17639,0.26459 0.617361,-0.52917 1.411111,-1.05834 2.116667,-1.32292 0.17639,-0.0882 0.352777,-0.17639 0.529167,-0.26458 z"
         id="path56379" />
      <path
         style="fill:#4c230c;fill-opacity:1;fill-rule:nonzero;stroke:none;stroke-width:0.264583"
         d="m -31.8043,67.159851 c 0.08819,0 0.176389,0 0.264583,0 0,0 0,0 0,0 -0.08819,0 -0.17639,0 -0.264583,0 m 0.970139,-0.0882 c -0.176389,0 -0.440973,0.0882 -0.705556,0.0882 0.264583,0 0.529167,-0.0882 0.705556,-0.0882 m 3.175,-2.20486 c 0,0 0,0 0,0 0,0 0,0 0,0 0,0 0,0 0,0 m 0.08819,-0.0882 c 0,0 0,0.0882 -0.08819,0.0882 0,0 0,0 0,0 0,0 0,0 0,0 0.08819,0 0.08819,-0.0882 0.08819,-0.0882 m 0.440973,-0.0882 c 0,0 0,0 0,0 0,0 0,0 0,0 m 0,0 c 0,0 0,0 0,0 0,0 0,0 0,0 0,0 0,0 0,0 m 1.234725,-2.73402 c 0,0 0,0 0,0 0,0 0,0 0,0 0,0 0,0 0,0 m 0.0882,-0.0882 c -0.0882,0.0882 -0.0882,0.0882 -0.0882,0.0882 0,0 0,0 0.0882,-0.0882 m 0,0 c 0,0 0,0 0,0 0,0 0,0 0,0 0,0 0,0 0,0 0,0 0,0 0,0 m 0,0 c 0,0 0,0 0,0 0,0 0,0 0,0 m 0,0 c 0,0 0,0 0,0 0,0 0,0 0,0 m 0.08819,-0.0882 c -0.08819,0 -0.08819,0 -0.08819,0.0882 0,-0.0882 0,-0.0882 0.08819,-0.0882 m 0,0 c 0,0 0,0 0,0 0,0 0,0 0,0 m -0.264583,0 c 0,0 0,0 0,0 0,0 0,0 0,0 m 0.264583,0 c 0,0 0,0 0,0 0,0 0,0 0,0 m 0.08819,0 c 0,0 -0.08819,0 -0.08819,0 0,0 0.08819,0 0.08819,0 m 0,0 c 0,0 0,0 0,0 0,0 0,0 0,0 m 0,-0.0882 c 0,0.0882 0,0.0882 0,0.0882 0,0 0,0 0,-0.0882 m 0,0 c 0,0 0,0 0,0 0,0 0,0 0,0 0,0 0,0 0,0 0,0 0,0 0,0 m 2.910417,-4.49791 c -0.08819,0 -0.08819,0 -0.08819,0 0,0 0,0 0.08819,0 z"
         id="path56381" />
      <path
         style="fill:#5c2f10;fill-opacity:1;fill-rule:nonzero;stroke:none;stroke-width:0.256552"
         d="m -32.243348,75.089013 c 0.344757,-0.84851 0.603326,-1.697011 0.775706,-2.545512 0.172378,-0.84851 0.08618,-1.697012 -0.17238,-2.460666 -0.08619,-0.424261 -0.17238,-0.848511 -0.344759,-1.187915 0,-0.169693 -0.0862,-0.254549 -0.172379,-0.339395 0.08618,0 0.08618,0 0.08618,0 0.0862,0.08486 0.172381,-0.08486 0.172381,-0.169702 -0.172381,-0.678809 -0.517138,-1.272761 -0.861896,-1.866714 0,0 0,-0.08486 0,-0.08486 -0.430949,-1.697011 -1.896174,-3.139474 -3.361398,-3.903129 -1.551414,-0.933357 -3.447589,-1.018203 -5.17138,-0.763655 -3.3614,0.42425 -6.808988,3.987976 -10.256574,2.884917 -0.603328,-0.593953 -1.465225,-0.933357 -2.327121,-0.933357 -1.206656,-0.254548 -2.413313,0 -3.619968,0.42426 -0.258568,0.08486 -0.517137,0.254549 -0.689518,0.42425 -0.258569,-0.593952 -1.379035,-0.509106 -1.723792,-0.169701 -0.344758,0.339404 -0.775708,1.442453 0,1.527309 -0.08619,0.08486 -0.17238,0.169702 -0.17238,0.169702 -1.637604,1.357608 -3.706157,2.206108 -3.964726,4.581929 0,0.08486 0,0 0.08618,0 -0.08618,0.169702 -0.08618,0.339404 0,0.509096 0,0.08486 0.08618,0 0.08618,0 -0.08618,0.339405 0,0.678809 0.172378,1.018214 0.34476,0.8485 1.206657,1.357607 2.154743,1.527308 0.775707,0.509097 1.982363,0.593953 2.758071,0.6788 0.08619,0 0.08619,0 0.172379,0 -0.172379,0.593953 -0.344759,1.187914 0,1.612165 0,0.08486 0.172379,-0.08486 0.172379,-0.169702 0,-0.08486 0,-0.08486 0,-0.169702 0.08619,-0.08486 0.08619,-0.169703 0.08619,-0.254548 0,0.08486 0,0.08486 0,0.08486 0,0.254549 0,0.509097 0,0.848501 0.258569,0.763655 0.689516,1.357608 1.292843,1.95156 0.34476,0.254558 0.51714,0.763655 0.689518,1.103059 0.172381,0.509107 0,1.018203 -0.172378,1.442464 -0.430949,0.42425 -0.689518,0.933357 -1.120467,1.357607 -0.430947,0.339404 -0.861896,0.678798 -1.206656,1.103058 -0.258567,0.424251 -0.0862,0.593953 0.172381,0.509097 0,0.169703 0,0.254559 0.08618,0.339404 0.17238,0.08486 0.51714,0 0.603328,-0.08486 0.17238,0 0.25857,-0.08486 0.344759,-0.08486 -0.08618,0 -0.08618,0.08486 0,0.08486 0.08619,0.339404 0.603327,0.169702 0.861897,0.08486 0.344759,-0.08486 0.775707,-0.169701 1.120465,-0.339404 0.948087,-0.254548 1.723795,-0.933357 2.413313,-1.527309 0.344758,-0.424251 0.689516,-0.848501 0.948086,-1.272752 0.25857,-0.42426 0.430947,-0.84851 0.603328,-1.357617 0.603327,0.08486 1.206655,0.08486 1.809982,0.254559 0.258569,1.187904 -0.861896,2.460665 -1.637603,3.394022 -0.34476,0.424251 -0.517137,1.187906 0,1.10305 0,0.08486 0,0.254558 0.08618,0.254558 0.258568,0.169702 0.689517,0 0.948086,-0.169702 0.08618,0 0.08618,-0.08486 0.17238,-0.08486 -0.17238,0.169703 -0.258569,0.339404 -0.17238,0.509107 0.17238,0.169692 0.689519,-0.08486 0.775707,-0.169703 0.08618,-0.08486 0.258569,-0.169701 0.344759,-0.254558 -0.08619,0.169702 0,0.254558 0.08618,0.254558 0.34476,0.169703 0.775708,-0.254558 1.120466,-0.42426 0.25857,-0.169693 0.51714,-0.339394 0.689518,-0.593953 0.689517,-0.509096 1.292845,-1.187905 1.809984,-1.697011 0.603328,-0.593953 1.206654,-1.10305 1.896173,-1.697002 0.344758,0 0.861897,0 1.034276,-0.08486 0.775706,-0.08486 1.379035,-0.254558 2.068553,-0.42426 0.603327,-0.169693 1.206655,-0.339394 1.723793,-0.509097 -0.08618,0.08486 -0.172379,0.254549 -0.258569,0.339404 -0.08618,0.169693 -0.08618,0.42425 0.08618,0.509097 0.258569,0.08486 0.517138,0 0.775707,-0.169702 -0.08618,0.339404 0.172379,0.509107 0.517136,0.509107 0.258571,0 0.60333,-0.169703 0.775708,-0.339405 0.08619,0.08486 0.08619,0.08486 0.08619,0.08486 0,0 0,0 0,0 0,0 0,0 0,0 0.344759,0.254558 0.775705,-0.08486 1.034275,-0.254548 0.948087,-0.678809 1.896175,-0.763655 2.93045,-1.018203 0.344758,-0.08486 0.861898,-0.254559 1.206655,-0.509107 0.17238,-0.339404 0.258568,-0.678809 0,-1.018203 -0.172379,-0.254558 -0.603328,-0.509107 -0.689515,-0.848511 -0.08619,-0.339404 -0.08619,-0.678799 0.08618,-1.018203 0.08618,-0.169701 0.172382,-0.339404 0.172382,-0.509106 z"
         id="path56385" />
      <path
         style="fill:#a77657;fill-opacity:1;fill-rule:nonzero;stroke:none;stroke-width:0.264583"
         d="m -60.555689,64.866791 c 0,-0.44097 0.352778,-0.79375 0.705555,-0.88194 0.440973,-0.0882 0.970139,-0.0882 1.234723,0.17639 -0.176389,0.17639 -0.352778,0.35278 -0.529167,0.52916 -0.0882,-0.17638 -0.440972,-0.26458 -0.617361,-0.26458 -0.08819,0 -0.176389,0 -0.264584,0.0882 -0.08819,0.0882 -0.08819,0.17638 -0.176388,0.26458 0,0 -0.0882,0 0,0 0.08819,-0.0882 0.176388,-0.17639 0.352777,-0.17639 0.176389,0 0.440973,0.0882 0.529167,0.17639 -0.264583,0.26458 -0.529167,0.52917 -0.79375,0.70555 -0.264583,-0.0882 -0.440972,-0.35277 -0.440972,-0.61736 z"
         id="path56387" />
      <path
         style="fill:#4c230c;fill-opacity:1;fill-rule:nonzero;stroke:none;stroke-width:0.264583"
         d="m -59.850134,64.602211 c 0,0 0,0 0,0 0,0 0,0 0,0 m 0,0 c 0,0 0,0 0,0 0,0 0,0 0,0 0,0 0,0 0,0 0,0 0,0 0,0 m 0.08819,0 c 0,0 0,0 0,0 0,0 0,0 0.08819,0 -0.08819,0 -0.08819,0 -0.08819,0 z"
         id="path56389" />
      <path
         style="fill:#8b593f;fill-opacity:1;fill-rule:nonzero;stroke:none;stroke-width:0.264583"
         d="m -59.761939,64.602211 c 0,0 -0.08819,0 -0.08819,0 0,0 0,0 0,0 0,0 0,0 0,0 0,0 0,0 0,0 0,0 0,0 0,0 -0.08819,0 -0.08819,0 -0.176389,0.0882 -0.176388,0.17639 -0.176388,0.52917 -0.08819,0.79375 0,0 0,0 0,0 0.264583,-0.17639 0.529167,-0.44097 0.79375,-0.70555 0,0 0,0 0,0 -0.08819,-0.0882 -0.264583,-0.17639 -0.352778,-0.17639 -0.08819,0 -0.08819,0 -0.08819,0 z"
         id="path56391" />
      <path
         style="fill:#4c230c;fill-opacity:1;fill-rule:nonzero;stroke:none;stroke-width:0.264583"
         d="m -59.58555,64.425821 c 0,0 0,0 0,0 0.08819,0 0.352777,0.0882 0.440972,0.26458 -0.0882,-0.17638 -0.352778,-0.26458 -0.440972,-0.26458 m 0.970139,-0.17639 c 0,0 0,0 0,0 -0.176389,0.0882 -0.352778,0.17639 -0.440973,0.35278 0.0882,-0.17639 0.264584,-0.26458 0.440973,-0.35278 z"
         id="path56393" />
      <path
         style="fill:#8b593f;fill-opacity:1;fill-rule:nonzero;stroke:none;stroke-width:0.264583"
         d="m -58.615411,64.249431 c -0.352778,0 -0.705556,0.0882 -0.970139,0.17639 0.08819,0 0.352777,0.0882 0.440972,0.26458 0,0 0,0 0,0 0,-0.0882 0.08819,-0.0882 0.08819,-0.0882 0.0882,-0.17639 0.264584,-0.26458 0.440973,-0.35278 z"
         id="path56395" />
      <path
         style="fill:#a77657;fill-opacity:1;fill-rule:nonzero;stroke:none;stroke-width:0.264583"
         d="m -32.157077,77.037631 c 0.264583,0.26458 0.529166,0.44097 0.705554,0.70555 0.264583,1.14653 -1.763888,1.32292 -2.557638,1.49931 -0.352779,0 -0.705556,0.17639 -0.970139,0.26458 -0.08819,0.0882 -0.17639,0.0882 -0.264584,0.17639 -0.08819,0 -0.176389,0.0882 -0.264583,0.17639 -0.08819,0.0882 -0.17639,0.17639 -0.264583,0.17639 -0.08819,0.0882 -0.08819,0.0882 -0.17639,0.17639 -0.176387,0.0882 -0.529167,0.35277 -0.61736,0 0,-0.26459 0.176389,-0.52917 0.352777,-0.70556 0.264583,-0.26458 0.617362,-0.52917 0.970139,-0.79375 -0.440973,0.26458 -0.970139,0.61736 -1.234723,1.05833 -0.08819,0 -0.176387,0.17639 -0.264583,0.35278 -0.176387,0.0882 -0.352777,0.26459 -0.61736,0.26459 -0.08819,0.0882 -0.17639,0 -0.352777,0 -0.17639,0 -0.17639,-0.17639 -0.0882,-0.35278 v -0.0882 c 0.0882,-0.35278 0.529166,-0.70556 0.705556,-0.88195 0.264583,-0.17639 0.440973,-0.35277 0.705556,-0.52916 -0.705556,0.35277 -1.411112,0.88194 -1.675695,1.4993 -0.176389,0 -0.264583,0.0882 -0.352778,0.0882 h -0.352777 c -0.176389,-0.17639 0,-0.44097 0.176388,-0.52916 0,-0.0882 0.08819,-0.17639 0.176389,-0.26459 0.617361,-0.17639 1.234723,-0.44097 1.76389,-0.70555 1.5875,-0.79375 3.175,-2.20486 3.615971,-3.96875 0.0882,-0.0882 0.0882,-0.26459 0.0882,-0.35278 0,-0.17639 0,-0.35278 -0.0882,-0.52917 -0.176388,2.55764 -2.469444,4.14514 -4.7625,5.02709 -0.08819,0.0882 -0.176388,0.0882 -0.264583,0.17639 h -0.08819 c -1.234723,0.52916 -2.557639,0.88194 -3.880556,1.23472 -0.529167,0.0882 -1.058333,0.17639 -1.5875,0.26458 0.0882,-0.0882 0.264583,-0.26458 0.352778,-0.35278 0.176389,-0.17639 0.264583,-0.26458 0.352778,-0.35277 0.881944,-0.70556 1.5875,-1.5875 1.852083,-2.64584 v 0.52917 h 0.08819 c 0,0 0.08819,-0.0882 0.08819,-0.17639 0.08819,-0.17639 0.08819,-0.35278 0.176389,-0.52917 0,-0.17639 -0.08819,-0.26458 -0.08819,-0.44097 0,0.35278 -0.08819,0.61736 -0.176389,0.88195 0.08819,-0.26459 0.08819,-0.52917 0,-0.79375 -0.08819,-0.0882 -0.176388,0.0882 -0.176388,0.0882 -0.264584,1.4993 -1.322917,2.55763 -2.469445,3.43958 -0.440972,0.52917 -0.881944,0.88194 -1.411111,1.32292 v 0 c -0.08819,0.17638 -0.264583,0.26458 -0.352778,0.35277 -0.617361,0.61736 -1.234722,1.32292 -1.940278,1.85209 -0.352777,0.26458 -0.617361,0.52916 -0.970138,0.79375 v 0.0882 c -0.264584,0.0882 -0.440973,0.26458 -0.617362,0.35278 -0.08819,0 -0.264583,-0.0882 -0.264583,-0.17639 0.08819,-0.35278 0.264583,-0.61736 0.440972,-0.88195 -0.176389,0.17639 -0.352777,0.35278 -0.440972,0.61736 -0.176389,0.0882 -0.264583,0.17639 -0.352778,0.26459 -0.176389,0.0882 -0.264583,0.17639 -0.440972,0.26458 v 0 c 0,0 -0.08819,0 -0.08819,0.0882 -0.176389,0 -0.352778,-0.0882 -0.264584,-0.17639 0.08819,-0.26458 0.352778,-0.44097 0.529167,-0.61736 0.176389,-0.17639 0.264583,-0.35278 0.352778,-0.52917 -0.08819,0.0882 -0.176389,0.26459 -0.352778,0.35278 -0.08819,0.0882 -0.176389,0.17639 -0.352778,0.26459 l -0.08819,0.0882 c -0.176389,0.0882 -0.617361,0.44097 -0.881945,0.35277 -0.617361,-0.17638 0.352778,-1.05833 0.529167,-1.23472 v -0.0882 c 0.08819,-0.0882 0,-0.0882 0,0 -0.264583,0.26459 -0.529167,0.52917 -0.705556,0.79375 -0.08819,0 -0.08819,0.0882 -0.176388,0.17639 -0.352778,0 0,-0.70555 0.176388,-0.97014 0.264584,-0.26458 0.440973,-0.52916 0.617362,-0.79375 0.352777,-0.44097 0.617361,-0.88194 0.79375,-1.32291 0.176388,-0.35278 0.264583,-0.70556 0.264583,-0.97014 -0.08819,-0.61736 -0.352778,-1.05833 -0.970139,-1.32292 0.264583,0.26459 0.440972,0.52917 0.529167,0.79375 -0.79375,-0.17639 -1.5875,-0.17639 -2.38125,-0.35278 -0.79375,-0.0882 -1.5875,-0.26458 -2.293056,-0.70555 -0.440972,-0.26458 -0.705555,-0.61736 -0.79375,-1.05833 -0.176389,-0.17639 -0.264583,-0.35278 -0.264583,-0.61737 -0.0882,0 -0.0882,0.0882 -0.0882,0.17639 -0.08819,0.17639 -0.08819,0.44098 -0.176389,0.70556 -0.176388,-0.26458 -0.176388,-0.70556 -0.176388,-1.14653 -0.08819,0.26458 -0.176389,0.52917 -0.176389,0.70556 0,0.35277 0.08819,0.61736 0.352777,0.79375 0,0.0882 0.08819,-0.0882 0.176389,-0.0882 0,-0.17639 0,-0.35278 0.0882,-0.52917 0.08819,0.35278 0.176389,0.70556 0.529166,1.05833 0.440973,0.44098 1.058334,0.61736 1.675695,0.79375 0.529167,0.17639 1.058333,0.26459 1.675694,0.26459 -0.08819,0.17639 -0.176389,0.26458 -0.176389,0.44097 -0.264583,0.52917 -0.617361,0.97014 -0.970138,1.41111 -0.79375,1.14653 -1.940278,1.94028 -3.263195,2.38125 h -0.08819 c -0.176389,0 -0.352778,0.0882 -0.529167,0.0882 -0.08819,0 -0.79375,0.17639 -0.617361,-0.0882 v 0 c 0.08819,-0.0882 0.176389,-0.0882 0.264583,-0.17639 v -0.0882 l 0.08819,-0.0882 v 0 0 c 0.176389,-0.17639 0.264583,-0.26458 0.352777,-0.44097 -0.264583,0.0882 -0.529166,0.35278 -0.705555,0.52917 -0.08819,0 -0.08819,0.0882 -0.176389,0.0882 0,0.0882 -0.08819,0.0882 -0.176389,0.0882 -0.176389,0.0882 -0.352778,0.17639 -0.529167,0.17639 h -0.176388 v -0.17639 h 0.08819 c 0,-0.0882 0.08819,-0.17639 0.08819,-0.17639 0.08819,-0.0882 0.176389,-0.17639 0.264584,-0.26458 0.08819,-0.0882 0.176389,-0.26459 0.264583,-0.35278 0.0882,0 0.176389,-0.0882 0.0882,-0.0882 v 0 h -0.0882 c -0.176389,0.17639 -0.617361,0.44097 -0.79375,0.70555 -0.176389,0.0882 -0.264583,0.0882 -0.08819,-0.26458 0.264583,-0.35278 0.617361,-0.61736 0.881944,-0.88195 0.176389,-0.17638 0.352778,-0.35277 0.440972,-0.44097 0.08819,-0.17639 0.176389,-0.35278 0.352778,-0.52916 v 0 0 c 0.08819,-0.0882 0.08819,-0.0882 0.176389,-0.17639 0.08819,-0.17639 0.264583,-0.35278 0.352778,-0.52917 0.264583,-0.61736 0.352778,-1.14653 0.08819,-1.76389 -0.176389,-0.70555 -0.705555,-1.05833 -1.058333,-1.4993 -0.705556,-0.79375 -1.146528,-1.76389 -0.79375,-2.73403 0.08819,-0.0882 -0.08819,-0.0882 -0.08819,0 -0.176388,0.17639 -0.264583,0.44097 -0.352777,0.70555 -0.176389,-0.35277 -0.0882,-0.97014 0,-1.32291 1.234722,0.17639 2.38125,0.17639 3.615972,-0.17639 1.499305,-0.35278 3.263194,-1.49931 3.96875,-2.99861 0.176389,-0.17639 0.264583,-0.35278 0.352778,-0.52917 0.02124,-0.324015 0.04227,-0.648683 0.08819,-0.97013 0.0882,0 0.176389,-0.17639 0.176389,-0.17639 0,-0.17639 -0.08819,-0.35278 -0.08819,-0.52916 l 0.08819,0.0882 c 0,0 0.08819,-0.0882 0.08819,-0.17639 0,-0.0882 0,-0.17639 -0.08819,-0.26458 0,-0.0882 -0.08819,-0.17639 -0.08819,-0.17639 -0.176389,-0.17639 -0.352778,-0.26458 -0.529167,-0.26458 0.264583,0.17638 0.440972,0.35277 0.529167,0.61736 -0.176389,-0.0882 -0.352778,-0.26459 -0.529167,-0.26459 -0.08819,0 -0.176389,0.0882 -0.176389,0.0882 0.264583,0.17639 0.529167,0.44097 0.617361,0.70555 -0.176389,-0.0882 -0.352778,-0.26458 -0.529167,-0.35278 0.264584,0.35278 0.352778,0.79375 0.264584,1.23473 0,0.17639 0,0.26458 -0.08819,0.35277 v 0 0.0882 c -0.08819,0.17639 -0.176389,0.35278 -0.264583,0.52917 -0.264583,0.26458 -0.529167,0.52916 -0.79375,0.79375 -0.08819,0.0882 -0.08819,0.17638 0,0.0882 0.176389,-0.0882 0.352778,-0.26459 0.529167,-0.44098 -0.970139,1.32292 -2.645834,2.20486 -4.145139,2.46945 -1.146528,0.26458 -2.204861,0.17639 -3.351389,0.0882 -0.705556,-0.0882 -1.499306,-0.17639 -2.293056,-0.44098 0.176389,0.0882 0.352778,0.0882 0.617361,0.0882 0,0 0.08819,-0.0882 0,-0.0882 -0.881944,-0.0882 -1.675694,-0.35277 -2.293055,-1.05833 -0.529172,-0.52916 -0.88195,-1.05832 -0.88195,-1.58749 -0.08819,-0.26458 -0.08819,-0.52917 -0.08819,-0.70556 -0.08819,0.0882 -0.176389,0.26459 -0.176389,0.44098 0,-0.26459 0.08819,-0.52917 0.264583,-0.79375 0,-0.0882 0,-0.26459 0.08819,-0.35278 -0.08819,0.0882 -0.264583,0.26458 -0.352777,0.44097 v 0 0 c 0.08819,-0.26458 0.176388,-0.52917 0.264583,-0.79375 0.264583,-0.70556 0.705556,-1.23472 1.322917,-1.67569 0.705556,-0.52917 1.499306,-1.05834 2.116667,-1.6757 0.970139,-0.88194 1.940278,-1.76389 3.175,-2.20486 0.970139,-0.44097 1.940278,-0.52917 2.910416,-0.44097 -0.176388,0 -0.352777,0 -0.440972,0.0882 h 0.352778 c 1.146528,0 2.293056,0.35278 3.086806,1.23472 h -0.176389 -0.0882 c 0.0882,0.0882 0.0882,0.17639 0.0882,0.26459 0.176389,0.0882 0.264583,0.0882 0.352777,0.17639 h -0.176388 c 0.08819,0.17639 0.176388,0.26458 0.264583,0.44097 v 0.0882 c 0.08819,0.0882 0.176389,0.17639 0.176389,0.26459 0.08819,0.0882 0.176389,0.17639 0.176389,0.26458 v -0.26458 c -0.08819,-0.17639 -0.176389,-0.26459 -0.264584,-0.44098 0.08819,0 0.176389,-0.0882 0.176389,-0.17638 -0.08819,-0.0882 -0.176389,-0.17639 -0.264583,-0.35278 0.08819,0 0.08819,-0.0882 0.08819,-0.0882 -0.08819,-0.0882 -0.08819,-0.17639 -0.176389,-0.26458 0.970139,0.26458 2.028473,0.17639 2.910417,-0.17639 0.970139,-0.35278 1.940278,-0.79375 2.822222,-1.23472 0.881945,-0.52917 1.763889,-1.05833 2.734028,-1.32292 2.028472,-0.52916 3.880556,-0.70555 5.820833,0 1.940279,0.61736 3.351389,2.29306 4.321529,4.05695 -0.264583,-0.26459 -0.529167,-0.52917 -0.705556,-0.70556 l -0.08819,0.0882 c 0.705554,0.70555 1.234721,1.5875 1.5875,2.55763 -0.17639,-0.17638 -0.264583,-0.35277 -0.529167,-0.35277 v 0 c 0.176388,0.26458 0.352777,0.52916 0.440971,0.79375 0.0882,0.17639 0.0882,0.35277 0.17639,0.52916 0,0.0882 0,0.0882 0.08819,0.17639 0.0882,0.44097 0.17639,0.88195 0.35278,1.32292 0.264583,1.23472 0.08819,2.29306 -0.264584,3.52778 -0.176389,0.79375 -0.881946,1.76389 -0.881946,2.64583 0.0882,0.26458 0.0882,0.44097 0.35278,0.52917 z"
         id="path56397"
         sodipodi:nodetypes="cccccscccsccccscccccscccscsccccccscccccccccccsssscccccccscccscccccccccccccccccccccccscccscccccssssccccsccccsccccscsccccscscscccccccccccccccsccccsccccscccscccccccccccccscsccccccsccccccccccccccccccccccccsscccccccc" />
      <path
         style="fill:#c78f62;fill-opacity:1;fill-rule:nonzero;stroke:none;stroke-width:0.264583"
         d="m -58.703606,75.450131 c -0.08819,0.0882 -0.08819,0.17639 -0.08819,0.26458 0,-0.0882 0,-0.17639 0.08819,-0.26458 0,0 0,0 0,0 z"
         id="path56399" />
      <path
         style="fill:#e1b590;fill-opacity:1;fill-rule:nonzero;stroke:none;stroke-width:0.264583"
         d="m -58.350828,74.744571 c -0.264583,0 -0.440972,0.17639 -0.529167,0.35278 0,0.0882 0,0.0882 0,0.0882 0,0.17639 0,0.35278 0.0882,0.52917 0,0 0,0 0,0 0,-0.0882 0,-0.17639 0.08819,-0.26459 0.08819,-0.26458 0.176389,-0.52916 0.352778,-0.70555 z"
         id="path56401" />
      <path
         style="fill:#c78f62;fill-opacity:1;fill-rule:nonzero;stroke:none;stroke-width:0.264583"
         d="m -51.295273,83.475821 c 0,0 -0.08819,0.0882 -0.08819,0.26458 0,-0.17638 0.08819,-0.26458 0.08819,-0.26458 m 1.675695,-3.175 c 0,0 0,0.0882 0,0.0882 0,0 0,-0.0882 0,-0.0882 m 0,0 c 0,0 0,0 0,0 0,0 0,0 0,0 m 0,0 c 0,0 0,0 0,0 0,0 0,0 0,0 m 0,0 c 0,0 0,0 0,0 0,0 0,0 0,0 m -0.440972,-0.88194 c 0,0 0,0 0,0 0.264583,0.26458 0.352777,0.52916 0.440972,0.88194 -0.08819,-0.35278 -0.264583,-0.70555 -0.440972,-0.88194 z"
         id="path56403" />
      <path
         style="fill:#e1b590;fill-opacity:1;fill-rule:nonzero;stroke:none;stroke-width:0.264583"
         d="m -50.413328,77.214021 c -0.176389,0.61736 -0.176389,1.23472 0.176389,1.94027 0,0 0,0 0,0.0882 0.08819,0 0.08819,0.0882 0.176389,0.17639 0.176389,0.17639 0.352777,0.52917 0.440972,0.88195 0,0 0,0 0,0 0,0 0,0 0,0 0,0 0,0 0,0 0,0 0,0 0,0 0,0 0,0 0,0 0,0 0,0 0,0 0,0 0,0 0,0 0,0 0,0.0882 0,0.0882 0,0 0,0 0,0 0,0 0,0 0,0 0,0.35277 -0.08819,0.70555 -0.264583,0.97013 -0.176389,0.44098 -0.440973,0.88195 -0.79375,1.32292 -0.176389,0.26458 -0.352778,0.52917 -0.617362,0.79375 0,0 0,0 0,0 0,0 0,0 0,0 0,0 -0.08819,0.0882 -0.08819,0.26458 -0.176389,0.26459 -0.352778,0.61737 -0.176389,0.70556 0.176389,-0.44097 0.529167,-0.79375 0.79375,-1.14653 0.352778,-0.44097 0.79375,-0.97014 1.146528,-1.4993 0,-0.0882 0,-0.0882 0,-0.0882 0.264583,-0.52917 0.440972,-1.05834 0.352778,-1.6757 -0.176389,-0.44097 -0.352778,-0.88194 -0.617361,-1.32291 -0.264584,-0.44098 -0.440973,-0.97014 -0.529167,-1.49931 z"
         id="path56405" />
      <path
         style="fill:#e1b590;fill-opacity:1;fill-rule:nonzero;stroke:none;stroke-width:0.264583"
         d="m -58.174439,64.161241 c -0.881945,0.52916 -1.5875,1.23472 -2.38125,1.85208 0,0 0,0 0,0 -0.617361,0.61736 -1.411111,1.14653 -2.116667,1.6757 -0.617361,0.44097 -1.058333,0.97013 -1.322917,1.67569 0,0 0,0 0,0 -0.08819,0 -0.08819,0.0882 -0.08819,0.0882 0.705556,-1.14652 1.940278,-2.11666 2.998612,-2.82222 0.08819,0 0.176389,-0.0882 0.264583,-0.17639 0,0 0,0 0,0 0.08819,-0.26458 0.264583,-0.44097 0.529166,-0.44097 0,0 0,0 0,0 0.264583,-0.17639 0.529167,-0.44097 0.79375,-0.61736 0.352778,-0.44097 0.705556,-0.79375 1.146528,-1.14653 0.08819,0 0.08819,-0.0882 0.17639,-0.0882 z"
         id="path56407" />
      <path
         style="fill:#c78f62;fill-opacity:1;fill-rule:nonzero;stroke:none;stroke-width:0.264583"
         d="m -50.236939,64.778601 c 0,0 0,0 0.08819,0 0,0 0,0 0,0 -0.08819,0 -0.08819,0 -0.08819,0 m 1.675694,-0.26458 c -0.440972,0.17638 -1.058333,0.26458 -1.5875,0.26458 0.529167,0 1.146528,-0.0882 1.5875,-0.26458 m 5.997222,-2.73403 c -0.08819,0.0882 -0.176388,0.0882 -0.264583,0.0882 -0.970139,0.26459 -1.852083,0.79375 -2.734028,1.32292 -0.881944,0.44097 -1.852083,0.88194 -2.822222,1.23472 0,0 0,0 -0.08819,0 0.08819,0 0.08819,0 0.08819,0 0.970139,-0.35278 1.940278,-0.79375 2.822222,-1.23472 0.881945,-0.52917 1.763889,-1.05833 2.734028,-1.32292 0.0882,0 0.176389,0 0.264583,-0.0882 m 0,0 c 0,0 0,0 0,0 0,0 0,0 0,0 z"
         id="path56409" />
      <path
         style="fill:#e1b590;fill-opacity:1;fill-rule:nonzero;stroke:none;stroke-width:0.264583"
         d="m -41.505689,61.603601 c -0.352778,0 -0.705556,0.0882 -1.058334,0.17639 0,0 0,0 0,0 0,0 0,0 0,0 -0.08819,0.0882 -0.176388,0.0882 -0.264583,0.0882 -0.970139,0.26459 -1.852083,0.79375 -2.734028,1.32292 -0.881944,0.44097 -1.852083,0.88194 -2.822222,1.23472 0,0 0,0 -0.08819,0 0,0 0,0 -0.08819,0.0882 -0.440972,0.17638 -1.058333,0.26458 -1.5875,0.26458 0,0 0,0 0,0 0,0 0,0 0,0 0,0 0,0 0,0 -0.08819,0 -0.08819,0 -0.08819,0 0,0 -0.08819,0 -0.08819,0 -0.08819,0.0882 -0.176389,0.17639 -0.176389,0.35278 0.264584,0 0.529167,0.0882 0.881945,0.0882 0.617361,0 1.322917,-0.17639 1.940278,-0.44097 1.411111,-0.44097 2.645833,-1.23472 3.880555,-2.02847 0.705556,-0.52917 1.499306,-0.88195 2.293056,-1.14653 z"
         id="path56411" />
      <path
         style="fill:#cc9970;fill-opacity:1;fill-rule:nonzero;stroke:none;stroke-width:0.264583"
         d="m -56.322356,76.155681 c 0.08819,0.61736 0.08819,1.14653 0.176389,1.6757 0.08819,0.0882 0.08819,0.0882 0.08819,0.17639 0.08819,-0.26459 0.08819,-0.52917 0.176389,-0.70556 0,-0.0882 0,-0.17639 0.0882,-0.17639 0,0.26458 0.08819,0.44097 0.264583,0.61736 0.0882,0.44097 0.352778,0.79375 0.79375,1.05834 0.705556,0.44097 1.499306,0.61736 2.293056,0.70555 0.79375,0.17639 1.5875,0.17639 2.38125,0.35278 -0.08819,-0.26458 -0.264584,-0.52917 -0.529167,-0.79375 0.176389,0.0882 0.264583,0.0882 0.352778,0.17639 -0.352778,-0.61736 -0.617361,-1.32292 -0.529167,-2.11667 0.176389,-1.05833 0.440972,-2.46944 -0.705555,-3.0868 -0.176389,-0.0882 0,-0.35278 0.08819,-0.26459 0.352778,0.0882 0.705556,0.26459 0.970139,0.44097 -0.176389,-0.44097 -0.529167,-0.79375 -0.970139,-0.97013 -0.176389,-0.0882 -0.08819,-0.26459 0,-0.26459 0.264583,-0.0882 0.529167,0 0.79375,0.0882 -0.264583,-0.44097 -0.705556,-0.88194 -1.146528,-0.97014 -0.881944,1.05834 -2.204861,1.85209 -3.439583,2.11667 -0.529167,0.17639 -0.970139,0.26458 -1.499306,0.26458 -0.176389,0.70556 -0.352777,1.49931 -0.264583,2.20486 0.08819,-0.26458 0.617361,-0.70555 0.617361,-0.52916 z"
         id="path56415" />
      <path
         style="fill:#cc9970;fill-opacity:1;fill-rule:nonzero;stroke:none;stroke-width:0.264583"
         d="m -38.066106,78.977901 c 0.08819,-0.0882 0.176389,-0.0882 0.264583,-0.17638 2.116666,-0.79375 4.233333,-2.29306 4.674306,-4.49792 0,-0.26458 0,-0.52917 0.08819,-0.79375 -1.499304,2.82222 -5.115277,4.49792 -8.290277,4.23333 -0.352778,0.79375 -0.881945,1.41111 -1.5875,2.02847 -0.08819,0.0882 -0.176389,0.17639 -0.352778,0.35278 -0.08819,0.0882 -0.264583,0.26459 -0.352778,0.35278 0.529167,-0.0882 1.058333,-0.17639 1.5875,-0.26458 1.322917,-0.35278 2.645833,-0.70556 3.880556,-1.23473 0.08819,0 0.08819,0 0.08819,0 z"
         id="path56417" />
      <path
         style="fill:#321000;fill-opacity:1;fill-rule:nonzero;stroke:none;stroke-width:0.264583"
         d="m -55.440411,66.895271 c 0,0.44097 -0.176389,0.70555 -0.440973,0.70555 -0.264583,0.0882 -0.529166,-0.17639 -0.529166,-0.61736 0,-0.35278 0.176389,-0.61736 0.440972,-0.70556 0.264583,0 0.529167,0.26459 0.529167,0.61737 z"
         id="path56419" />
      <path
         style="fill:#ffffff;fill-opacity:1;fill-rule:nonzero;stroke:none;stroke-width:0.264583"
         d="m -55.969578,66.718881 c 0,0.0882 0,0.17639 -0.08819,0.17639 -0.08819,0.0882 -0.176388,0 -0.176388,-0.17639 0,-0.0882 0,-0.17639 0.08819,-0.17639 0.08819,0 0.176389,0.0882 0.176388,0.17639 z"
         id="path56421" />
      <path
         style="fill:#321000;fill-opacity:1;fill-rule:nonzero;stroke:none;stroke-width:0.264583"
         d="m -60.026523,66.807071 c -0.176388,0.35278 -0.440972,0.44097 -0.705555,0.35278 -0.176389,-0.0882 -0.264583,-0.44097 -0.08819,-0.70556 0.176389,-0.35277 0.440973,-0.44097 0.705556,-0.35277 0.176389,0.0882 0.264583,0.44097 0.08819,0.70555 z"
         id="path56423" />
      <path
         style="fill:#ffffff;fill-opacity:1;fill-rule:nonzero;stroke:none;stroke-width:0.264583"
         d="m -60.291106,66.454291 c -0.08819,0.0882 -0.176389,0.0882 -0.264583,0.0882 -0.0882,-0.0882 -0.0882,-0.17639 0,-0.26459 0,-0.0882 0.08819,-0.0882 0.176389,-0.0882 0.08819,0 0.08819,0.17639 0.08819,0.26458 z"
         id="path56425" />
      <path
         style="fill:#321000;fill-opacity:1;fill-rule:nonzero;stroke:none;stroke-width:0.264583"
         d="m -52.882773,64.249431 c -0.264583,-0.0882 -0.529166,0 -0.705555,0.0882 -0.352778,0.26458 -0.529167,0.61736 -0.617361,1.05833 0.08819,-0.0882 0.176389,-0.26458 0.264583,-0.35278 0.08819,-0.35278 0.440972,-0.61736 0.881945,-0.61736 0.352777,0.0882 0.529166,0.17639 0.705555,0.52917 0.264583,0.26458 0.352778,0.52916 0.352778,0.88194 0,0.17639 0,0.44097 0,0.61736 -0.08819,0.61736 -0.529167,0.61736 -0.970139,0.61736 0.08819,0.0882 0.176389,0.17639 0.352778,0.17639 0.264583,-0.0882 0.529166,-0.26458 0.705555,-0.52916 0.0882,-0.26459 0.0882,-0.44098 0.0882,-0.70556 0,-0.70556 -0.440972,-1.49931 -1.058334,-1.76389 z"
         id="path56427" />
      <path
         style="fill:#321000;fill-opacity:1;fill-rule:nonzero;stroke:none;stroke-width:0.264583"
         d="m -52.4418,66.189711 c 0,-0.0882 0,-0.17639 0,-0.26458 -0.08819,-0.26459 -0.264584,-0.44098 -0.440973,-0.61736 -0.08819,-0.0882 -0.264583,-0.0882 -0.440972,-0.0882 0,0 0,0 0,0 -0.08819,0.0882 -0.08819,0.0882 -0.176389,0.17639 0,0.0882 0,0.0882 0,0.0882 0.08819,-0.0882 0.176389,-0.0882 0.264584,-0.0882 0.176389,0 0.264583,0.17639 0.440972,0.26458 0.08819,0.17639 0.176389,0.35278 0.176389,0.52917 -0.0882,0.0882 -0.0882,0.17639 -0.176389,0.17639 -0.176389,0 -0.264583,0 -0.440972,0 0.08819,0.0882 0.08819,0.0882 0.176389,0.17639 0.08819,0 0.176388,0 0.264583,0 0,-0.0882 0.176389,-0.0882 0.176389,-0.17639 0,0.0882 0,0.17639 0,0.26458 0.176389,-0.0882 0.176389,-0.35278 0.176389,-0.44097 z"
         id="path56429" />
      <path
         style="fill:#321000;fill-opacity:1;fill-rule:nonzero;stroke:none;stroke-width:0.264583"
         d="m -60.114717,73.245271 c -0.264583,-0.26459 -0.617361,-0.44098 -0.881944,-0.61737 -0.176389,-0.17638 -0.264584,-0.26458 -0.352778,-0.44097 -0.0882,0 -0.0882,-0.0882 -0.176389,-0.0882 -0.440972,-0.79375 -1.058333,-1.5875 -0.970139,-2.55764 0,-0.0882 -0.08819,0 -0.08819,0 -0.08819,0.97014 0.352777,1.85209 0.881944,2.46945 0,0.0882 0,0.0882 0,0.0882 0.176389,0.0882 0.352778,0.44097 0.352778,0.52916 0.08819,0.0882 0.08819,0.17639 0.08819,0.26459 0,0.0882 0,0.17639 0.08819,0.26458 0,-0.0882 0,-0.17639 0,-0.26458 0,-0.0882 0,-0.0882 0,-0.17639 0,-0.0882 0,-0.0882 0,-0.0882 0.08819,0 0.08819,0.0882 0.176389,0.17639 0.264583,0.17638 0.617361,0.26458 0.881944,0.44097 z"
         id="path56431" />
      <path
         style="fill:#2a0c00;fill-opacity:1;fill-rule:nonzero;stroke:none;stroke-width:0.264583"
         d="m -56.322356,67.248041 c 0.08819,0.26459 0.264583,0.35278 0.440972,0.35278 0,0 0,0 0,0 0.0882,0 0.0882,0 0.0882,0 -0.176389,-0.0882 -0.352778,-0.26458 -0.529167,-0.35278 z"
         id="path56435" />
      <path
         style="fill:#2a0c00;fill-opacity:1;fill-rule:nonzero;stroke:none;stroke-width:0.264583"
         d="m -60.026523,66.895271 c -0.264583,0 -0.529166,0 -0.881944,0.0882 0.08819,0.0882 0.08819,0.17639 0.176389,0.17639 0.08819,0 0.08819,0.0882 0.176389,0.0882 0.176389,0 0.440972,-0.17639 0.529166,-0.35277 z"
         id="path56437" />
      <path
         style="fill:#d4c1ba;fill-opacity:1;fill-rule:nonzero;stroke:none;stroke-width:0.264583"
         d="m -58.968189,84.181381 c 0,0 0,0 0,0 0,0 0,0 0,0 m -0.264584,0 c 0,0 0.0882,0 0.176389,0 0,0 0.0882,0 0.0882,0 0,0 -0.0882,0 -0.0882,0 -0.08819,0 -0.176389,0 -0.176389,0 m 9.260417,-4.05695 c 0.08819,0.26459 0,0.61736 -0.08819,0.97014 0,-0.0882 0,-0.0882 0,-0.0882 0.08819,-0.26458 0.176389,-0.61736 0.08819,-0.88194 z"
         id="path56439" />
      <path
         style="fill:#8b593f;fill-opacity:1;fill-rule:nonzero;stroke:none;stroke-width:0.264583"
         d="m -50.413328,79.066101 c 0.08819,0 0.08819,0.0882 0.176389,0.17639 0,0 0.08819,0.0882 0.08819,0.0882 0,-0.0882 -0.08819,-0.0882 -0.08819,-0.0882 0,-0.0882 -0.08819,-0.17639 -0.176389,-0.17639 m -4.850695,-0.26458 c 0.176389,0.35277 0.529167,0.70555 0.79375,0.97013 0,0.0882 0,0.0882 0,0.17639 -0.705555,1.41111 -1.675694,2.82223 -2.998611,3.70417 -0.264583,0.0882 -0.705555,0.44097 -1.146527,0.52917 0,0 0,0 0,0 0.08819,0 0.08819,0 0.176388,0 0,0 0,0 0,0 0.176389,0 0.352778,-0.0882 0.529167,-0.17639 0.0882,0 0.176389,0 0.176389,-0.0882 0.08819,0 0.08819,-0.0882 0.176389,-0.0882 0.176389,-0.17639 0.440972,-0.44098 0.705555,-0.52917 -0.08819,0.17639 -0.176388,0.26458 -0.352777,0.44097 0,0 0,0 0,0 0,0 0,0 0,0 -0.08819,0.0882 -0.08819,0.0882 -0.08819,0.0882 0,0.0882 0,0.0882 0,0.0882 -0.08819,0.0882 -0.176389,0.0882 -0.264583,0.17639 0,0 0,0 0,0 -0.08819,0.0882 0,0.17639 0.176389,0.17639 0.176389,0 0.440972,-0.0882 0.440972,-0.0882 0.176389,0 0.352778,-0.0882 0.529167,-0.0882 0.08819,0 0.08819,0 0.08819,0 1.322917,-0.44098 2.469445,-1.23473 3.263195,-2.38125 0.352777,-0.44098 0.705555,-0.88195 0.970138,-1.41111 0,-0.17639 0.08819,-0.26459 0.176389,-0.44098 -0.617361,0 -1.146527,-0.0882 -1.675694,-0.26458 -0.617361,-0.17639 -1.234722,-0.35278 -1.675695,-0.79375 z"
         id="path56443" />
      <path
         style="fill:#a56c48;fill-opacity:1;fill-rule:nonzero;stroke:none;stroke-width:0.264583"
         d="m -50.148745,79.330681 c 0,0 0,0 0,0 0,0 0.08819,0.0882 0.08819,0.0882 0,0 0,0 0,0 0,-0.0882 -0.08819,-0.0882 -0.08819,-0.0882 z"
         id="path56445" />
      <path
         style="fill:#bb8969;fill-opacity:1;fill-rule:nonzero;stroke:none;stroke-width:0.264583"
         d="m -50.236939,79.242491 c 0,0 0.08819,0 0.08819,0.0882 0,0 0.08819,0 0.08819,0.0882 -0.08819,-0.0882 -0.08819,-0.17639 -0.176389,-0.17639 z"
         id="path56447" />
      <path
         style="fill:#aa7352;fill-opacity:1;fill-rule:nonzero;stroke:none;stroke-width:0.264583"
         d="m -55.704995,77.566791 c 0.0882,0.0882 0.0882,0.17639 0.176389,0.17639 0.0882,0.44097 0.352778,0.79375 0.79375,1.05834 0.705556,0.44097 1.499306,0.61736 2.293056,0.70555 0.79375,0.17639 1.5875,0.17639 2.38125,0.35278 0,0 0,0 0,0 -0.08819,-0.26458 -0.264584,-0.52917 -0.529167,-0.79375 0,0 0,0 0,0 0,0 0,0 0,0 0.176389,0.0882 0.264583,0.0882 0.352778,0.17639 0,0 0,0 0,0 -0.08819,-0.0882 -0.08819,-0.17639 -0.176389,-0.17639 -0.264583,-0.35278 -0.705556,-0.70556 -1.146528,-0.88195 0.264583,0.26459 0.440972,0.52917 0.705556,0.79375 0,0.0882 -0.08819,0.0882 -0.08819,0.17639 -0.264583,0.0882 -0.617361,0.0882 -0.881944,0.0882 -0.705556,0 -1.322917,-0.17639 -1.940278,-0.44097 -0.617361,-0.26458 -1.411111,-0.70556 -1.940278,-1.23472 z"
         id="path56449" />
      <path
         style="fill:#d4c1ba;fill-opacity:1;fill-rule:nonzero;stroke:none;stroke-width:0.264583"
         d="m -35.684857,80.212631 c 0,0 0,0 0,0 0,0 0,0 0,0 z"
         id="path56451" />
      <path
         style="fill:#d4c1ba;fill-opacity:1;fill-rule:nonzero;stroke:none;stroke-width:0.264583"
         d="m -49.354995,85.151521 c 0,0 0,0 0,0 0,0 0,0 0,0 z"
         id="path56455" />
      <path
         style="fill:#8b593f;fill-opacity:1;fill-rule:nonzero;stroke:none;stroke-width:0.264583"
         d="m -42.828606,79.771651 c 0,0 0,0 -0.08819,0 0.08819,0 0.08819,0 0.08819,0 m 0,0 c 0,0 0,0 0,0 0,0 0,0 0,0 m 6.085416,-1.14652 c -0.529167,0.26458 -1.058333,0.52916 -1.675694,0.70555 0,0.0882 -0.08819,0.0882 -0.176389,0.17639 0.08819,0 0.08819,0 0.08819,0 0.617361,-0.26458 1.234721,-0.52917 1.763888,-0.88194 m -2.99861,-17.19792 c -0.176389,0 -0.352778,0 -0.529167,0 0.529167,0.0882 1.146528,0.17639 1.675694,0.44097 2.204862,0.70556 4.850696,2.55764 5.027083,5.11528 0,0.0882 -0.08819,0.0882 -0.176387,0.0882 0,0 0,0 0,0 -0.17639,-0.17639 -0.35278,-0.35277 -0.529167,-0.52916 0.705554,1.14652 1.146527,2.38125 1.146527,3.70416 0,0.0882 0,0.0882 -0.08819,0.0882 0,0 0,0 -0.0882,0 -0.176387,-0.26458 -0.44097,-0.61736 -0.61736,-0.97014 0.17639,1.41111 0.17639,2.82222 -0.352777,4.05694 -0.79375,1.49931 -2.469446,2.55764 -4.14514,2.73403 -0.176389,0 -0.529166,0.0882 -0.881944,0.0882 -0.352778,0 -0.705556,-0.0882 -0.970139,-0.35278 -0.176389,-0.17639 -0.176389,-0.52916 -0.264583,-0.70555 -0.176389,-0.44097 -0.352778,-0.79375 -0.617361,-1.14653 0.08819,0.52917 0.176388,1.05833 0.176388,1.5875 0,0.0882 0,0.0882 -0.08819,0.0882 0,0 -0.08819,0 -0.08819,-0.0882 -0.352778,-0.79375 -0.79375,-1.94028 -1.499306,-2.55764 0.264583,0.88195 0.352778,1.85208 0.176389,2.73403 -0.352778,2.29305 -2.116667,4.14514 -3.615972,5.64444 -0.970139,0.97014 -1.940278,1.94028 -2.734028,2.91042 -0.0882,0.0882 -0.176389,0.17639 -0.264583,0.26458 0,0.0882 0,0.0882 -0.08819,0.0882 0,0.0882 0.08819,0.17639 0.176389,0.17639 0,0 0.08819,0 0.08819,0 0.176389,-0.0882 0.352778,-0.26458 0.617362,-0.35277 0,-0.0882 0,-0.0882 0,-0.0882 0.352777,-0.26459 0.617361,-0.52917 0.970138,-0.79375 0.705556,-0.52917 1.322917,-1.23473 1.940278,-1.85209 0.08819,-0.0882 0.264584,-0.17639 0.352778,-0.35278 0,0 0,0 0,0 0.529167,-0.44097 0.970139,-0.79375 1.411111,-1.32291 1.146528,-0.88195 2.204861,-1.94028 2.469445,-3.43959 0,0 0.08819,-0.0882 0.08819,-0.0882 0.08819,0 0.08819,0 0.08819,0 0.08819,0.26459 0.08819,0.52917 0,0.79375 0.08819,-0.26458 0.176389,-0.52916 0.176389,-0.88194 0,0.17639 0.08819,0.26458 0.08819,0.44097 -0.08819,0.17639 -0.08819,0.35278 -0.176389,0.52917 0,0.0882 -0.08819,0.17639 -0.08819,0.17639 -0.08819,0 -0.08819,0 -0.08819,0 0,-0.17639 0,-0.35278 0,-0.52917 -0.08819,0.26458 -0.176389,0.44097 -0.264583,0.61736 0.176389,0 0.352777,0.0882 0.617361,0.0882 2.910416,0 6.261805,-1.67569 7.672916,-4.32153 0,0 0,0 0,0 0,0 0,0 0,0 -0.08819,0.26459 -0.08819,0.52917 -0.08819,0.79375 -0.440973,2.20486 -2.55764,3.70417 -4.674306,4.49792 -0.08819,0.0882 -0.176388,0.0882 -0.264583,0.17639 -0.08819,0 -0.08819,0 -0.08819,0 -1.234723,0.52917 -2.557639,0.88194 -3.880556,1.23472 -0.529167,0.0882 -1.058333,0.17639 -1.5875,0.26458 0,0 0,0 0,0 0.529167,-0.0882 1.058333,-0.17638 1.5875,-0.26458 1.322917,-0.35278 2.645833,-0.70555 3.880556,-1.23472 0.08819,0 0.08819,0 0.08819,0 0.08819,-0.0882 0.176389,-0.0882 0.264583,-0.17639 2.293056,-0.88194 4.586112,-2.46944 4.7625,-5.02708 0.0882,0.17639 0.0882,0.35277 0.0882,0.52916 0,0.0882 0,0.26459 -0.0882,0.35278 -0.08819,0.61736 -0.440971,1.23472 -0.79375,1.6757 0.0882,-0.0882 0.176389,-0.17639 0.352779,-0.35278 0,0 0,0 0,0 0.08819,0 0.08819,0 0.176387,0.0882 0.0882,0.35278 0,0.70555 0,1.05833 0,0.44097 0.264584,0.52917 0.529167,0.79375 0.352779,0.26458 0.264583,0.52917 -0.08819,0.70556 -0.705556,0.35277 -1.5875,0.35277 -2.20486,0.70555 -0.440973,0.26459 -0.617363,0.52917 -0.881946,0.88195 0.0882,-0.0882 0.0882,-0.0882 0.17639,-0.17639 0.08819,0 0.176389,-0.0882 0.264583,-0.17639 0.08819,-0.0882 0.17639,-0.17639 0.264583,-0.17639 0.08819,-0.0882 0.17639,-0.0882 0.264584,-0.17639 0.264583,-0.0882 0.61736,-0.26458 0.970139,-0.26458 0.79375,-0.17639 2.822221,-0.35278 2.557638,-1.49931 -0.176388,-0.26458 -0.440971,-0.44097 -0.705554,-0.70555 -0.264584,-0.0882 -0.264584,-0.26459 -0.35278,-0.52917 0,-0.88194 0.705557,-1.85208 0.881946,-2.64583 0.352777,-1.23473 0.529167,-2.29306 0.264584,-3.52778 -0.17639,-0.44097 -0.264584,-0.88195 -0.35278,-1.32292 -0.08819,-0.0882 -0.08819,-0.0882 -0.08819,-0.17639 -0.08819,-0.17639 -0.08819,-0.35277 -0.17639,-0.52916 -0.08819,-0.26459 -0.264583,-0.52917 -0.440971,-0.79375 0,0 0,0 0,0 0.264584,0 0.352777,0.17639 0.529167,0.35277 -0.352779,-0.97013 -0.881946,-1.85208 -1.5875,-2.55763 0.08819,-0.0882 0.08819,-0.0882 0.08819,-0.0882 0.176389,0.17639 0.440973,0.44097 0.705556,0.70556 -0.97014,-1.76389 -2.38125,-3.43959 -4.321529,-4.05695 -0.881944,-0.35278 -1.852083,-0.44097 -2.734027,-0.44097 z"
         id="path56459" />
      <path
         style="fill:#d4c1ba;fill-opacity:1;fill-rule:nonzero;stroke:none;stroke-width:0.264583"
         d="m -54.293884,63.191101 c 0.08819,0.0882 0.176389,0.0882 0.264584,0.0882 0,0 0,0 0,0 0.881944,0 1.763889,0.35278 2.38125,0.97014 0.440972,0.17639 0.970139,0.17639 1.411111,0.17639 0.08819,0 0.08819,0 0.08819,0 0,0 0,0 0,0 0,0 0,0 -0.08819,0 -0.440972,0 -0.970139,0 -1.411111,-0.17639 -0.617361,-0.61736 -1.499306,-0.97014 -2.38125,-0.97014 0,0 0,0 0,0 -0.08819,0 -0.176389,0 -0.264584,-0.0882 z"
         id="path56463" />
      <path
         style="fill:#a56c48;fill-opacity:1;fill-rule:nonzero;stroke:none;stroke-width:0.264583"
         d="m -58.7918,74.391791 c -0.0882,0.17639 -0.0882,0.44098 -0.0882,0.70556 0,0 0,0 0,0 0,-0.26458 0,-0.52917 0.0882,-0.70556 0.176389,0 0.440972,0.0882 0.617361,0.0882 0,0 0,0 0,0 -0.176389,0 -0.440972,-0.0882 -0.617361,-0.0882 z"
         id="path56471" />
      <path
         style="fill:#bb8969;fill-opacity:1;fill-rule:nonzero;stroke:none;stroke-width:0.264583"
         d="m -58.7918,74.391791 c -0.0882,0.17639 -0.0882,0.44098 -0.0882,0.70556 0.0882,-0.17639 0.264584,-0.35278 0.529167,-0.35278 0,-0.0882 0.08819,-0.17639 0.176389,-0.26458 -0.176389,0 -0.440972,-0.0882 -0.617361,-0.0882 z"
         id="path56473" />
      <path
         style="fill:#a56c48;fill-opacity:1;fill-rule:nonzero;stroke:none;stroke-width:0.264583"
         d="m -51.118884,64.866791 c 0,0 0,0 0,0 0,0 0,0 0,0 0,0 0,0 0,0 m -0.176389,-0.26458 c 0,0 0,0 0,0 0,0 0,0 0,0 z"
         id="path56475" />
      <path
         style="fill:#bb8969;fill-opacity:1;fill-rule:nonzero;stroke:none;stroke-width:0.264583"
         d="m -51.295273,64.602211 c 0.08819,0.0882 0.08819,0.17639 0.176389,0.26458 0,0 0,0 0,0 0,0 0,0 0,0 0.176389,0.0882 0.440973,0.17639 0.617361,0.26459 0,-0.17639 0.08819,-0.26459 0.176389,-0.35278 -0.352777,0 -0.617361,-0.0882 -0.970139,-0.17639 0,0 0,0 0,0 0,0 0,0 0,0 0,0 0,0 0,0 z"
         id="path56477" />
      <path
         style="fill:#2a0c00;fill-opacity:1;fill-rule:nonzero;stroke:none;stroke-width:0.264583"
         d="m -53.059161,64.249431 c -0.176389,0 -0.352778,0 -0.529167,0.0882 -0.352778,0.26458 -0.529167,0.61736 -0.617361,1.05833 0.264583,-0.52917 0.529166,-0.97014 0.970139,-0.97014 0.08819,0 0.08819,0 0.176389,0 0,0 0.08819,0.0882 0.08819,0.0882 0.264583,0 0.529167,0.17638 0.617361,0.44097 0,0 0.08819,0 0.08819,0 0.264583,0.44097 0.440972,0.97014 0.264583,1.41111 0,0 0,0 0,0.0882 -0.08819,0.52917 -0.352778,0.61736 -0.79375,0.61736 0,0 -0.0882,0 -0.176389,0 0.08819,0.0882 0.176389,0.17639 0.352778,0.17639 0.264583,-0.0882 0.529166,-0.26458 0.705555,-0.52916 0.0882,-0.26459 0.0882,-0.44098 0.0882,-0.70556 0,-0.70556 -0.440972,-1.49931 -1.058334,-1.76389 -0.08819,0 -0.08819,0 -0.176388,0 z"
         id="path56481" />
      <path
         style="fill:#2a0c00;fill-opacity:1;fill-rule:nonzero;stroke:none;stroke-width:0.264583"
         d="m -53.147356,65.219571 c -0.08819,0 -0.08819,0 -0.176389,0 0,0 0,0 0,0 -0.08819,0.0882 -0.08819,0.0882 -0.176389,0.17639 0,0.0882 0,0.0882 0,0.0882 0.08819,-0.0882 0.176389,-0.0882 0.264584,-0.0882 0,0 0,0 0,0 0.176389,0 0.264583,0.17639 0.440972,0.26458 0.08819,0.17639 0.176389,0.35278 0.176389,0.52917 -0.0882,0.0882 -0.0882,0.17639 -0.176389,0.17639 -0.0882,0 -0.176389,0 -0.176389,0 -0.08819,0 -0.176389,0 -0.264583,0 0.08819,0.0882 0.08819,0.0882 0.176389,0.17639 0,0 0.08819,0 0.08819,0 0.08819,0 0.08819,0 0.176389,0 0,-0.0882 0.176389,-0.0882 0.176389,-0.17639 0,0.0882 0,0.17639 0,0.26458 0.176389,-0.0882 0.176389,-0.35278 0.176389,-0.44097 0,-0.0882 0,-0.17639 0,-0.26458 -0.08819,-0.0882 -0.08819,-0.26459 -0.176389,-0.35278 -0.0882,-0.0882 -0.176389,-0.17639 -0.264584,-0.26458 -0.08819,-0.0882 -0.176388,-0.0882 -0.264583,-0.0882 z"
         id="path56483" />
      <path
         style="fill:#321000;fill-opacity:1;fill-rule:nonzero;stroke:none;stroke-width:0.264583"
         d="m -60.555689,69.364711 c 0,-0.35278 -0.529167,-0.44097 -0.79375,-0.52917 -0.529167,-0.0882 -0.970139,-0.0882 -1.499306,0 -0.264583,0 -0.881944,0.0882 -0.881944,0.52917 0,0.52917 0.881944,0.88194 1.146528,0.88194 0.440972,0 1.675694,-0.26458 1.940277,-0.61736 0.0882,-0.0882 0.176389,-0.17639 0.0882,-0.26458 z"
         id="path56485" />
    </g>
  </g>
</svg>
