<?xml version="1.0" encoding="UTF-8" standalone="no"?>
<!-- Created with Inkscape (http://www.inkscape.org/) -->

<svg
   width="29.58666mm"
   height="29.548853mm"
   viewBox="0 0 29.58666 29.548853"
   version="1.1"
   id="svg59059"
   inkscape:version="1.1-rc (52f87abb86, 2021-05-02)"
   sodipodi:docname="x-x-rayfish.svg"
   xmlns:inkscape="http://www.inkscape.org/namespaces/inkscape"
   xmlns:sodipodi="http://sodipodi.sourceforge.net/DTD/sodipodi-0.dtd"
   xmlns="http://www.w3.org/2000/svg"
   xmlns:svg="http://www.w3.org/2000/svg">
  <sodipodi:namedview
     id="namedview59061"
     pagecolor="#ffffff"
     bordercolor="#666666"
     borderopacity="1.0"
     objecttolerance="10.0"
     gridtolerance="10.0"
     guidetolerance="10.0"
     inkscape:pageshadow="2"
     inkscape:pageopacity="0.0"
     inkscape:pagecheckerboard="0"
     inkscape:document-units="mm"
     showgrid="false"
     fit-margin-top="0"
     fit-margin-left="0"
     fit-margin-right="0"
     fit-margin-bottom="0"
     inkscape:zoom="0.94875842"
     inkscape:cx="-116.99501"
     inkscape:cy="-43.741377"
     inkscape:window-width="3840"
     inkscape:window-height="2066"
     inkscape:window-x="2869"
     inkscape:window-y="-11"
     inkscape:window-maximized="1"
     inkscape:current-layer="layer1" />
  <defs
     id="defs59056">
    <clipPath
       clipPathUnits="userSpaceOnUse"
       id="clipPath1932">
      <path
         d="m 372.204,76.5697 h 10.7 V 66.2078 h -10.7 z"
         id="path1930" />
    </clipPath>
  </defs>
  <g
     inkscape:label="Layer 1"
     inkscape:groupmode="layer"
     id="layer1"
     transform="translate(-136.07709,-160.0791)">
    <g
       id="g27392"
       transform="translate(107.96241,-21.906694)">
      <g
         id="g1910"
         transform="matrix(0.35277777,0,0,-0.35277777,45.63246,195.9318)">
        <path
           d="M 0,0 C -6.3,14.118 -9.883,25.088 -12.272,35.949 L 2.823,34.645 C 3.801,27.585 5.648,20.418 8.254,10.969 13.467,21.504 18.897,31.387 23.676,39.532 L 34.211,30.518 C 28.454,21.938 21.612,10.317 15.531,-1.195 21.287,-15.314 27.586,-29.107 31.387,-37.36 l -14.662,1.52 c -2.389,5.538 -5.756,14.01 -9.123,23.241 C 2.823,-22.916 -1.303,-32.148 -3.801,-39.75 l -11.404,7.059 C -11.078,-22.59 -6.408,-12.164 0,0"
           style="fill:#0f7052;fill-opacity:1;fill-rule:nonzero;stroke:none"
           id="path1912" />
      </g>
      <g
         id="g1914"
         transform="matrix(0.35277777,0,0,-0.35277777,34.698501,203.57646)">
        <path
           d="m 0,0 c 0,0 -3.558,4.226 -3.377,5.58 0.181,1.355 17.246,10.936 26.533,2.015"
           style="fill:#6ed6c1;fill-opacity:1;fill-rule:nonzero;stroke:none"
           id="path1916" />
      </g>
      <g
         id="g1918"
         transform="matrix(0.35277777,0,0,-0.35277777,32.133701,205.44346)">
        <path
           d="m 0,0 c 0,0 -5.97,5.777 -9.859,4.104 -3.89,-1.673 2.216,-5.444 2.216,-5.444 0,0 -5.518,-2.064 -3.166,-5.139 C -8.457,-9.554 0,-1.594 0,-1.594"
           style="fill:#6ed6c1;fill-opacity:1;fill-rule:nonzero;stroke:none"
           id="path1920" />
      </g>
      <g
         id="g1922"
         transform="matrix(0.35277777,0,0,-0.35277777,47.152474,204.61789)">
        <path
           d="m 0,0 c 0,0 -0.241,10.613 -16.04,10.975 -15.799,0.362 -22.432,-11.94 -26.533,-12.302 -4.1,-0.361 -4.221,-3.618 0,-3.859 4.221,-0.241 10.734,-10.854 21.709,-11.819 C -9.89,-17.97 2.412,-13.869 0,0"
           style="fill:#28b790;fill-opacity:1;fill-rule:nonzero;stroke:none"
           id="path1924" />
      </g>
      <g
         id="g1926"
         transform="matrix(0.35277777,0,0,-0.35277777,-89.066312,227.90994)">
        <g
           id="g1928" />
        <g
           id="g1940">
          <g
             clip-path="url(#clipPath1932)"
             opacity="0.410004"
             id="g1938">
            <g
               transform="translate(381.9157,74.2793)"
               id="g1936">
              <path
                 d="m 0,0 c -1.896,2.568 -5.366,3.074 -7.81,1.02 -0.876,-0.736 -1.604,-1.775 -1.831,-3.236 -0.692,-4.447 3.854,-7.018 7.51,-5.337 C 0.611,-6.293 2.094,-2.836 0,0"
                 style="fill:#28b790;fill-opacity:1;fill-rule:nonzero;stroke:none"
                 id="path1934" />
            </g>
          </g>
        </g>
      </g>
      <g
         id="g1942"
         transform="matrix(0.35277777,0,0,-0.35277777,45.649394,201.63682)">
        <path
           d="M 0,0 C -1.735,2.35 -4.912,2.814 -7.148,0.934 -7.95,0.26 -8.617,-0.691 -8.825,-2.028 -9.458,-6.099 -5.297,-8.451 -1.95,-6.914 0.56,-5.76 1.916,-2.596 0,0"
           style="fill:#ffffff;fill-opacity:1;fill-rule:nonzero;stroke:none"
           id="path1944" />
      </g>
      <g
         id="g1946"
         transform="matrix(0.35277777,0,0,-0.35277777,45.244934,201.78872)">
        <path
           d="M 0,0 C -0.424,0.575 -1.202,0.688 -1.749,0.229 -1.945,0.064 -2.108,-0.169 -2.159,-0.496 -2.314,-1.492 -1.296,-2.068 -0.477,-1.691 0.137,-1.409 0.469,-0.635 0,0"
           style="fill:#4c4c4c;fill-opacity:1;fill-rule:nonzero;stroke:none"
           id="path1948" />
      </g>
      <g
         id="g1950"
         transform="matrix(0.35277777,0,0,-0.35277777,33.447199,204.73636)">
        <path
           d="m 0,0 c -1.636,-1.503 -1.716,-4.148 -0.335,-5.869 0.065,-0.081 0.197,0.007 0.17,0.099 -0.583,1.987 -0.466,3.8 0.184,5.759 C 0.023,0 0.008,0.007 0,0"
           style="fill:#ffffff;fill-opacity:1;fill-rule:nonzero;stroke:none"
           id="path1952" />
      </g>
      <g
         id="g1954"
         transform="matrix(0.35277777,0,0,-0.35277777,34.790788,203.88634)">
        <path
           d="m 0,0 c -1.128,-1.55 -1.053,-3.682 -0.957,-5.504 0.097,-1.842 0.252,-4.044 1.271,-5.639 0.059,-0.092 0.228,-0.035 0.186,0.078 -0.617,1.647 -0.651,3.565 -0.745,5.3 -0.089,1.629 -0.435,4.227 0.265,5.754 C 0.026,0.002 0.009,0.012 0,0"
           style="fill:#ffffff;fill-opacity:1;fill-rule:nonzero;stroke:none"
           id="path1956" />
      </g>
      <g
         id="g1958"
         transform="matrix(0.35277777,0,0,-0.35277777,36.468599,202.28646)">
        <path
           d="m 0,0 c -1.521,-2.188 -1.796,-5.365 -1.946,-7.94 -0.219,-3.737 0.011,-7.815 2.019,-11.082 0.069,-0.114 0.229,-0.014 0.175,0.103 -1.554,3.396 -1.719,7.303 -1.488,10.979 0.149,2.389 0.099,5.759 1.26,7.929 C 0.026,0.002 0.008,0.012 0,0"
           style="fill:#ffffff;fill-opacity:1;fill-rule:nonzero;stroke:none"
           id="path1960" />
      </g>
      <g
         id="g1962"
         transform="matrix(0.35277777,0,0,-0.35277777,39.40819,201.31798)">
        <path
           d="m 0,0 c -3.37,-7.729 -4.538,-16.426 0.148,-23.937 0.07,-0.112 0.234,-0.014 0.176,0.103 -3.789,7.61 -2.902,15.986 -0.303,23.825 C 0.025,0.003 0.005,0.012 0,0"
           style="fill:#ffffff;fill-opacity:1;fill-rule:nonzero;stroke:none"
           id="path1964" />
      </g>
      <g
         id="g1966"
         transform="matrix(0.35277777,0,0,-0.35277777,38.193118,201.37026)">
        <path
           d="m 0,0 c -3.37,-7.729 -4.538,-16.426 0.148,-23.937 0.07,-0.112 0.234,-0.014 0.176,0.103 -3.789,7.61 -2.902,15.986 -0.303,23.825 C 0.025,0.003 0.005,0.012 0,0"
           style="fill:#ffffff;fill-opacity:1;fill-rule:nonzero;stroke:none"
           id="path1968" />
      </g>
      <g
         id="g1970"
         transform="matrix(0.35277777,0,0,-0.35277777,41.214272,201.02602)">
        <path
           d="m 0,0 c -3.466,-8.127 -4.679,-18.316 0.177,-26.153 0.069,-0.112 0.234,-0.013 0.176,0.103 C -3.64,-18.123 -2.701,-8.237 0.021,-0.009 0.025,0.003 0.005,0.012 0,0"
           style="fill:#ffffff;fill-opacity:1;fill-rule:nonzero;stroke:none"
           id="path1972" />
      </g>
      <g
         id="g1974"
         transform="matrix(0.35277777,0,0,-0.35277777,32.751133,205.89562)">
        <path
           d="m 0,0 c 1.632,-0.355 3.184,-0.133 4.832,0.052 2.382,0.266 4.767,0.259 7.154,0.431 2.291,0.165 4.553,0.249 6.849,0.324 2.352,0.076 4.831,-0.285 7.138,-0.068 0.188,0.017 0.234,0.271 0.045,0.333 C 21.955,2.413 17.056,1.191 12.894,0.833 10.472,0.624 8.039,0.577 5.614,0.409 3.791,0.282 1.834,-0.065 0.014,0.1 -0.043,0.105 -0.056,0.012 0,0"
           style="fill:#ffffff;fill-opacity:1;fill-rule:nonzero;stroke:none"
           id="path1976" />
      </g>
      <g
         id="g1978"
         transform="matrix(0.35277777,0,0,-0.35277777,35.237334,208.03881)">
        <path
           d="M 0,0 C -0.625,-0.543 -2.341,-1.673 -2.221,-2.456 -2.1,-3.24 1.037,-4.567 1.64,-1.294 2.243,1.979 0.759,0.659 0,0"
           style="fill:#6ed6c1;fill-opacity:1;fill-rule:nonzero;stroke:none"
           id="path1980" />
      </g>
      <g
         id="g1982"
         transform="matrix(0.35277777,0,0,-0.35277777,41.141846,209.44125)">
        <path
           d="M 0,0 C -0.968,-1.051 -3.696,-3.319 -3.339,-4.641 -2.982,-5.963 2.656,-7.638 3.062,-1.905 3.469,3.827 1.176,1.277 0,0"
           style="fill:#6ed6c1;fill-opacity:1;fill-rule:nonzero;stroke:none"
           id="path1984" />
      </g>
      <g
         id="g1986"
         transform="matrix(0.35277777,0,0,-0.35277777,44.300125,205.73662)">
        <path
           d="M 0,0 C 1.35,-0.509 3.212,-0.324 4.63,-0.177 5.918,-0.043 7.367,0.169 8.543,0.724 9.174,1.021 8.704,1.907 8.095,1.788 6.889,1.554 5.699,1.104 4.495,0.822 2.963,0.464 1.572,0.225 0.009,0.067 -0.029,0.063 -0.037,0.014 0,0"
           style="fill:#6ed6c1;fill-opacity:1;fill-rule:nonzero;stroke:none"
           id="path1988" />
      </g>
      <g
         id="g1990"
         transform="matrix(0.35277777,0,0,-0.35277777,28.96304,204.29369)">
        <path
           d="m 0,0 c 1.349,-0.464 2.623,-0.9 3.93,-1.501 1.267,-0.581 2.459,-1.521 3.768,-1.952 0.212,-0.07 0.358,0.214 0.211,0.364 -1.2,1.223 -2.994,1.579 -4.467,2.347 C 2.464,-0.232 1.147,0.643 0,0.267 -0.133,0.224 -0.13,0.045 0,0"
           style="fill:#28b790;fill-opacity:1;fill-rule:nonzero;stroke:none"
           id="path1992" />
      </g>
      <g
         id="g1994"
         transform="matrix(0.35277777,0,0,-0.35277777,29.132056,204.90146)">
        <path
           d="M 0,0 C 1.116,-0.618 2.459,-0.81 3.635,-1.318 4.642,-1.752 5.688,-2.263 6.729,-2.581 6.865,-2.622 6.93,-2.457 6.856,-2.363 6.19,-1.518 4.927,-1.381 3.965,-1.025 2.637,-0.533 1.394,-0.269 0.015,0.036 -0.006,0.041 -0.02,0.011 0,0"
           style="fill:#28b790;fill-opacity:1;fill-rule:nonzero;stroke:none"
           id="path1996" />
      </g>
      <g
         id="g1998"
         transform="matrix(0.35277777,0,0,-0.35277777,29.6342,205.85752)">
        <path
           d="M 0,0 C 1.708,-0.436 3.681,-0.218 5.431,-0.281 5.569,-0.286 5.604,-0.126 5.533,-0.035 5.081,0.541 4.095,0.328 3.461,0.291 2.301,0.224 1.112,0.435 0,0.027 -0.012,0.023 -0.014,0.004 0,0"
           style="fill:#28b790;fill-opacity:1;fill-rule:nonzero;stroke:none"
           id="path2000" />
      </g>
      <g
         id="g2002"
         transform="matrix(0.35277777,0,0,-0.35277777,28.963817,206.84766)">
        <path
           d="M 0,0 C 1.01,-0.414 2.547,0.328 3.46,0.716 4.643,1.218 6.115,1.723 7.115,2.524 7.243,2.625 7.105,2.852 6.956,2.798 5.836,2.392 4.762,1.833 3.689,1.321 2.496,0.752 1.227,0.486 0,0.033 -0.016,0.027 -0.016,0.006 0,0"
           style="fill:#28b790;fill-opacity:1;fill-rule:nonzero;stroke:none"
           id="path2004" />
      </g>
      <g
         id="g2006"
         transform="matrix(0.35277777,0,0,-0.35277777,29.050494,207.37408)">
        <path
           d="M 0,0 C 1.423,0.106 2.724,0.656 3.983,1.296 5.333,1.982 6.64,2.687 7.714,3.775 7.843,3.905 7.677,4.13 7.515,4.032 6.987,3.711 6.556,3.285 6.054,2.925 5.459,2.5 4.798,2.201 4.149,1.867 2.797,1.169 1.476,0.509 -0.032,0.239 -0.166,0.215 -0.137,-0.01 0,0"
           style="fill:#28b790;fill-opacity:1;fill-rule:nonzero;stroke:none"
           id="path2008" />
      </g>
      <g
         id="g2010"
         transform="matrix(0.35277777,0,0,-0.35277777,34.67677,208.94697)">
        <path
           d="M 0,0 C 0.301,0.298 0.591,0.574 0.917,0.848 1.379,1.237 1.958,1.534 2.371,1.97 2.429,2.031 2.394,2.171 2.293,2.158 1.632,2.072 1.102,1.57 0.607,1.158 0.309,0.909 -0.309,0.572 -0.266,0.11 -0.254,-0.02 -0.102,-0.101 0,0"
           style="fill:#28b790;fill-opacity:1;fill-rule:nonzero;stroke:none"
           id="path2012" />
      </g>
      <g
         id="g2014"
         transform="matrix(0.35277777,0,0,-0.35277777,35.197788,208.93004)">
        <path
           d="M 0,0 C 0.267,0.176 0.563,0.285 0.772,0.532 0.978,0.775 1.134,1.068 1.196,1.38 1.236,1.58 0.993,1.676 0.876,1.515 0.672,1.236 0.547,0.924 0.309,0.667 0.148,0.494 -0.05,0.371 -0.159,0.159 -0.208,0.062 -0.103,-0.068 0,0"
           style="fill:#28b790;fill-opacity:1;fill-rule:nonzero;stroke:none"
           id="path2016" />
      </g>
      <g
         id="g2018"
         transform="matrix(0.35277777,0,0,-0.35277777,40.544241,210.83691)">
        <path
           d="M 0,0 C 0.953,1.19 2.6,1.632 3.156,3.187 3.185,3.268 3.078,3.352 3.006,3.302 2.342,2.833 1.859,2.13 1.213,1.623 0.673,1.2 0.121,0.736 -0.113,0.066 -0.135,0.004 -0.042,-0.053 0,0"
           style="fill:#28b790;fill-opacity:1;fill-rule:nonzero;stroke:none"
           id="path2020" />
      </g>
      <g
         id="g2022"
         transform="matrix(0.35277777,0,0,-0.35277777,41.352384,210.85158)">
        <path
           d="M 0,0 C 1.118,0.475 2.829,2.56 1.951,3.813 1.872,3.927 1.666,3.897 1.672,3.738 1.7,2.977 1.593,2.328 1.202,1.662 0.852,1.068 0.237,0.673 -0.046,0.046 -0.061,0.014 -0.032,-0.014 0,0"
           style="fill:#28b790;fill-opacity:1;fill-rule:nonzero;stroke:none"
           id="path2024" />
      </g>
      <g
         id="g2026"
         transform="matrix(0.35277777,0,0,-0.35277777,33.931245,201.6208)">
        <path
           d="M 0,0 C 0.579,-0.703 1.213,-1.366 1.797,-2.067 2.15,-2.491 2.506,-2.925 2.775,-3.409 2.996,-3.805 3.084,-4.152 3.468,-4.408 3.56,-4.47 3.724,-4.413 3.742,-4.297 3.908,-3.227 2.977,-2.283 2.309,-1.556 1.726,-0.921 0.976,0.111 0.004,0.01 -0.001,0.009 -0.003,0.004 0,0"
           style="fill:#28b790;fill-opacity:1;fill-rule:nonzero;stroke:none"
           id="path2028" />
      </g>
      <g
         id="g2030"
         transform="matrix(0.35277777,0,0,-0.35277777,34.76313,201.21436)">
        <path
           d="M 0,0 C 0.838,-0.685 1.439,-1.562 2.087,-2.419 2.559,-3.043 3,-4.046 3.732,-4.393 3.824,-4.437 3.959,-4.364 3.919,-4.25 3.579,-3.28 2.842,-2.412 2.221,-1.609 1.65,-0.869 1.047,-0.05 0.08,0.137 0.008,0.151 -0.069,0.057 0,0"
           style="fill:#28b790;fill-opacity:1;fill-rule:nonzero;stroke:none"
           id="path2032" />
      </g>
      <g
         id="g2034"
         transform="matrix(0.35277777,0,0,-0.35277777,35.884893,200.73085)">
        <path
           d="m 0,0 c 0.476,-0.548 0.954,-1.061 1.401,-1.638 0.524,-0.677 0.992,-1.371 1.443,-2.099 0.069,-0.111 0.287,-0.078 0.269,0.073 -0.1,0.835 -0.639,1.472 -1.166,2.097 -0.282,0.335 -0.56,0.687 -0.895,0.97 C 0.74,-0.333 0.368,-0.183 0.024,0.031 0.004,0.043 -0.014,0.016 0,0"
           style="fill:#28b790;fill-opacity:1;fill-rule:nonzero;stroke:none"
           id="path2036" />
      </g>
      <g
         id="g2038"
         transform="matrix(0.35277777,0,0,-0.35277777,36.908301,200.29132)">
        <path
           d="m 0,0 c 0.374,-0.81 0.829,-1.561 1.145,-2.402 0.261,-0.697 0.46,-1.522 0.892,-2.133 0.053,-0.075 0.17,-0.05 0.174,0.047 0.063,1.449 -0.738,3.913 -2.201,4.5 C 0.002,0.016 -0.003,0.006 0,0"
           style="fill:#28b790;fill-opacity:1;fill-rule:nonzero;stroke:none"
           id="path2040" />
      </g>
      <g
         id="g2042"
         transform="matrix(0.35277777,0,0,-0.35277777,38.191178,199.90877)">
        <path
           d="m 0,0 c 0.266,-0.757 0.691,-1.422 0.888,-2.217 0.166,-0.668 0.037,-1.63 0.432,-2.205 0.073,-0.106 0.221,-0.112 0.293,0 0.424,0.661 0.004,1.926 -0.227,2.596 -0.24,0.694 -0.627,1.572 -1.362,1.85 C 0.011,0.03 -0.005,0.014 0,0"
           style="fill:#28b790;fill-opacity:1;fill-rule:nonzero;stroke:none"
           id="path2044" />
      </g>
      <g
         id="g2046"
         transform="matrix(0.35277777,0,0,-0.35277777,39.26087,199.8337)">
        <path
           d="m 0,0 c 0.122,-0.512 0.459,-1.023 0.636,-1.532 0.25,-0.72 0.269,-1.641 0.637,-2.289 0.059,-0.105 0.236,-0.115 0.293,0 C 1.964,-3.015 1.49,-1.903 1.172,-1.133 1.003,-0.727 0.697,0.221 0.123,0.161 0.039,0.152 -0.021,0.087 0,0"
           style="fill:#28b790;fill-opacity:1;fill-rule:nonzero;stroke:none"
           id="path2048" />
      </g>
      <g
         id="g2050"
         transform="matrix(0.35277777,0,0,-0.35277777,40.483104,199.95844)">
        <path
           d="m 0,0 c 0.299,-0.426 0.601,-0.814 0.766,-1.32 0.214,-0.653 0.19,-1.357 0.535,-1.964 0.041,-0.071 0.178,-0.067 0.192,0.025 0.123,0.832 0.084,1.73 -0.306,2.491 C 0.999,-0.4 0.57,0.312 0.066,0.162 0.003,0.143 -0.042,0.06 0,0"
           style="fill:#28b790;fill-opacity:1;fill-rule:nonzero;stroke:none"
           id="path2052" />
      </g>
      <g
         id="g2054"
         transform="matrix(0.35277777,0,0,-0.35277777,41.643179,200.23661)">
        <path
           d="m 0,0 c -0.031,-0.325 0.174,-0.537 0.297,-0.82 0.188,-0.433 0.139,-0.9 0.269,-1.343 0.056,-0.193 0.321,-0.183 0.381,0 0.142,0.426 0.101,0.909 -0.056,1.327 C 0.736,-0.422 0.477,-0.217 0.159,0.066 0.096,0.123 0.008,0.081 0,0"
           style="fill:#28b790;fill-opacity:1;fill-rule:nonzero;stroke:none"
           id="path2056" />
      </g>
      <g
         id="g2058"
         transform="matrix(0.35277777,0,0,-0.35277777,44.260613,209.45864)">
        <path
           d="M 0,0 C 0.556,-0.589 1.781,0.266 2.147,0.733 2.24,0.851 2.199,1.097 2.005,1.076 1.621,1.033 1.342,0.846 1.004,0.668 0.686,0.5 0.267,0.45 0,0.212 -0.062,0.157 -0.053,0.056 0,0"
           style="fill:#20a57c;fill-opacity:1;fill-rule:nonzero;stroke:none"
           id="path2060" />
      </g>
      <g
         id="g2062"
         transform="matrix(0.35277777,0,0,-0.35277777,45.311009,208.90852)">
        <path
           d="M 0,0 C 0.623,-0.406 1.709,0.376 1.906,0.976 1.959,1.136 1.792,1.287 1.638,1.244 1.267,1.141 0.991,0.872 0.676,0.661 0.42,0.49 0.136,0.339 -0.016,0.062 -0.028,0.04 -0.021,0.014 0,0"
           style="fill:#20a57c;fill-opacity:1;fill-rule:nonzero;stroke:none"
           id="path2064" />
      </g>
      <g
         id="g2066"
         transform="matrix(0.35277777,0,0,-0.35277777,46.135663,208.23524)">
        <path
           d="M 0,0 C 0.517,0.071 1.037,0.704 1.089,1.206 1.1,1.322 0.956,1.382 0.867,1.333 0.472,1.117 -0.005,0.486 -0.039,0.03 -0.041,0.008 -0.018,-0.003 0,0"
           style="fill:#20a57c;fill-opacity:1;fill-rule:nonzero;stroke:none"
           id="path2068" />
      </g>
      <g
         id="g2070"
         transform="matrix(0.35277777,0,0,-0.35277777,46.499729,207.43292)">
        <path
           d="M 0,0 C 0.631,-0.059 0.866,1.013 0.741,1.461 0.708,1.577 0.562,1.613 0.476,1.531 0.204,1.27 -0.21,0.424 -0.06,0.046 -0.049,0.018 -0.03,0.003 0,0"
           style="fill:#20a57c;fill-opacity:1;fill-rule:nonzero;stroke:none"
           id="path2072" />
      </g>
      <g
         id="g2074"
         transform="matrix(0.35277777,0,0,-0.35277777,46.754153,206.57525)">
        <path
           d="M 0,0 C 0.341,0.174 0.524,0.674 0.417,1.03 0.368,1.189 0.146,1.223 0.06,1.076 -0.104,0.797 -0.298,0.331 -0.116,0.03 -0.091,-0.01 -0.041,-0.021 0,0"
           style="fill:#20a57c;fill-opacity:1;fill-rule:nonzero;stroke:none"
           id="path2076" />
      </g>
      <g
         id="g2078"
         transform="matrix(0.35277777,0,0,-0.35277777,46.636501,204.40217)">
        <path
           d="m 0,0 c 0.193,-0.297 0.15,-0.698 0.346,-0.985 0.077,-0.114 0.271,-0.143 0.342,0 0.231,0.468 -0.084,0.97 -0.514,1.159 C 0.068,0.221 -0.077,0.118 0,0"
           style="fill:#20a57c;fill-opacity:1;fill-rule:nonzero;stroke:none"
           id="path2080" />
      </g>
      <g
         id="g2082"
         transform="matrix(0.35277777,0,0,-0.35277777,46.389345,203.599)">
        <path
           d="M 0,0 C 0.075,-0.273 0.108,-0.519 0.301,-0.732 0.401,-0.843 0.623,-0.794 0.65,-0.64 0.714,-0.284 0.559,0 0.27,0.207 0.135,0.304 -0.04,0.145 0,0"
           style="fill:#20a57c;fill-opacity:1;fill-rule:nonzero;stroke:none"
           id="path2084" />
      </g>
      <g
         id="g2086"
         transform="matrix(0.35277777,0,0,-0.35277777,36.474455,208.10732)">
        <path
           d="M 0,0 C -0.282,-0.3 -0.078,-0.904 0.124,-1.197 0.231,-1.353 0.465,-1.294 0.477,-1.101 0.498,-0.746 0.4,-0.138 0.022,0.006 0.015,0.009 0.005,0.005 0,0"
           style="fill:#20a57c;fill-opacity:1;fill-rule:nonzero;stroke:none"
           id="path2088" />
      </g>
      <g
         id="g2090"
         transform="matrix(0.35277777,0,0,-0.35277777,36.246702,207.40822)">
        <path
           d="m 0,0 c 0.097,-0.33 0.172,-0.676 0.326,-0.984 0.072,-0.145 0.332,-0.158 0.4,0 0.18,0.42 0.008,0.738 -0.126,1.149 C 0.476,0.543 -0.114,0.387 0,0"
           style="fill:#20a57c;fill-opacity:1;fill-rule:nonzero;stroke:none"
           id="path2092" />
      </g>
      <g
         id="g2094"
         transform="matrix(0.35277777,0,0,-0.35277777,37.954323,207.72738)">
        <path
           d="m 0,0 c -0.145,-0.375 -0.066,-0.957 0.114,-1.31 0.054,-0.105 0.224,-0.105 0.278,0 0.218,0.421 0.082,1.086 -0.35,1.327 C 0.024,0.026 0.007,0.017 0,0"
           style="fill:#20a57c;fill-opacity:1;fill-rule:nonzero;stroke:none"
           id="path2096" />
      </g>
      <g
         id="g2098"
         transform="matrix(0.35277777,0,0,-0.35277777,38.144188,208.74645)">
        <path
           d="m 0,0 c -0.108,-0.465 0.114,-1.117 0.38,-1.502 0.075,-0.108 0.225,-0.114 0.298,0 0.302,0.469 0.121,1.257 -0.31,1.599 C 0.247,0.194 0.041,0.177 0,0"
           style="fill:#20a57c;fill-opacity:1;fill-rule:nonzero;stroke:none"
           id="path2100" />
      </g>
      <g
         id="g2102"
         transform="matrix(0.35277777,0,0,-0.35277777,38.40736,209.67059)">
        <path
           d="m 0,0 c 0.28,-0.387 0.538,-0.989 0.986,-1.197 0.15,-0.07 0.315,0.013 0.324,0.185 C 1.336,-0.477 0.852,0.026 0.511,0.394 0.264,0.659 -0.219,0.303 0,0"
           style="fill:#20a57c;fill-opacity:1;fill-rule:nonzero;stroke:none"
           id="path2104" />
      </g>
      <g
         id="g2106"
         transform="matrix(0.35277777,0,0,-0.35277777,40.704472,206.17262)">
        <path
           d="m 0,0 c -0.213,-0.534 -0.18,-1.191 -0.008,-1.731 0.034,-0.107 0.184,-0.108 0.218,0 C 0.382,-1.192 0.415,-0.533 0.202,0 0.162,0.099 0.039,0.099 0,0"
           style="fill:#20a57c;fill-opacity:1;fill-rule:nonzero;stroke:none"
           id="path2108" />
      </g>
      <g
         id="g2110"
         transform="matrix(0.35277777,0,0,-0.35277777,40.812528,207.1005)">
        <path
           d="m 0,0 c -0.299,-0.379 -0.199,-1.056 0.005,-1.466 0.056,-0.112 0.248,-0.117 0.303,0 0.191,0.41 0.113,1.086 -0.161,1.447 C 0.115,0.023 0.041,0.052 0,0"
           style="fill:#20a57c;fill-opacity:1;fill-rule:nonzero;stroke:none"
           id="path2112" />
      </g>
      <g
         id="g2114"
         transform="matrix(0.35277777,0,0,-0.35277777,40.918644,207.94321)">
        <path
           d="M 0,0 C -0.261,-0.491 -0.25,-1.227 -0.03,-1.73 0.06,-1.937 0.334,-1.837 0.398,-1.674 0.588,-1.195 0.455,-0.466 0.254,0 0.21,0.102 0.048,0.09 0,0"
           style="fill:#20a57c;fill-opacity:1;fill-rule:nonzero;stroke:none"
           id="path2116" />
      </g>
      <g
         id="g2118"
         transform="matrix(0.35277777,0,0,-0.35277777,38.939314,204.48906)">
        <path
           d="M 0,0 C 0.209,0.521 0.361,1.056 0.342,1.622 0.337,1.754 0.155,1.858 0.057,1.74 -0.352,1.249 -0.277,0.637 -0.289,0.039 -0.292,-0.138 -0.058,-0.145 0,0"
           style="fill:#20a57c;fill-opacity:1;fill-rule:nonzero;stroke:none"
           id="path2120" />
      </g>
      <g
         id="g2122"
         transform="matrix(0.35277777,0,0,-0.35277777,39.223794,203.4526)">
        <path
           d="M 0,0 C 0.208,0.361 0.423,0.747 0.426,1.171 0.427,1.373 0.153,1.504 0.011,1.343 -0.274,1.022 -0.325,0.593 -0.475,0.2 -0.582,-0.079 -0.144,-0.25 0,0"
           style="fill:#20a57c;fill-opacity:1;fill-rule:nonzero;stroke:none"
           id="path2124" />
      </g>
      <g
         id="g2126"
         transform="matrix(0.35277777,0,0,-0.35277777,39.477547,202.62283)">
        <path
           d="M 0,0 C 0.066,0.437 0.225,0.913 0.175,1.352 0.16,1.485 -0.006,1.592 -0.114,1.472 -0.44,1.108 -0.576,0.561 -0.633,0.086 -0.676,-0.271 -0.054,-0.359 0,0"
           style="fill:#20a57c;fill-opacity:1;fill-rule:nonzero;stroke:none"
           id="path2128" />
      </g>
      <g
         id="g2130"
         transform="matrix(0.35277777,0,0,-0.35277777,39.687379,201.76329)">
        <path
           d="M 0,0 C 0.305,0.279 0.659,0.704 0.552,1.139 0.522,1.259 0.367,1.326 0.261,1.257 -0.059,1.051 -0.188,0.619 -0.404,0.312 -0.579,0.063 -0.207,-0.189 0,0"
           style="fill:#20a57c;fill-opacity:1;fill-rule:nonzero;stroke:none"
           id="path2132" />
      </g>
      <g
         id="g2134"
         transform="matrix(0.35277777,0,0,-0.35277777,36.407921,203.60708)">
        <path
           d="M 0,0 C 0.381,0.405 0.356,1.007 0.295,1.519 0.276,1.675 0.044,1.792 -0.042,1.61 -0.258,1.153 -0.512,0.614 -0.368,0.097 -0.325,-0.059 -0.115,-0.122 0,0"
           style="fill:#20a57c;fill-opacity:1;fill-rule:nonzero;stroke:none"
           id="path2136" />
      </g>
      <g
         id="g2138"
         transform="matrix(0.35277777,0,0,-0.35277777,36.62047,202.67359)">
        <path
           d="M 0,0 C 0.342,0.246 0.536,0.717 0.521,1.134 0.515,1.288 0.302,1.41 0.188,1.272 -0.061,0.97 -0.225,0.53 -0.242,0.139 -0.247,0.024 -0.099,-0.071 0,0"
           style="fill:#20a57c;fill-opacity:1;fill-rule:nonzero;stroke:none"
           id="path2140" />
      </g>
      <g
         id="g2142"
         transform="matrix(0.35277777,0,0,-0.35277777,35.037874,204.2606)">
        <path
           d="M 0,0 C 0.103,0.339 0.136,0.758 0.114,1.11 0.103,1.28 -0.078,1.346 -0.204,1.242 -0.547,0.96 -0.609,0.409 -0.507,0 -0.442,-0.259 -0.074,-0.241 0,0"
           style="fill:#20a57c;fill-opacity:1;fill-rule:nonzero;stroke:none"
           id="path2144" />
      </g>
      <g
         id="g2146"
         transform="matrix(0.35277777,0,0,-0.35277777,35.332761,203.33735)">
        <path
           d="M 0,0 C 0.078,0.25 0.228,0.446 0.25,0.709 0.265,0.879 0.065,0.954 -0.064,0.89 -0.347,0.749 -0.455,0.438 -0.551,0.152 -0.667,-0.196 -0.11,-0.351 0,0"
           style="fill:#20a57c;fill-opacity:1;fill-rule:nonzero;stroke:none"
           id="path2148" />
      </g>
      <g
         id="g2150"
         transform="matrix(0.35277777,0,0,-0.35277777,33.595718,204.47872)">
        <path
           d="M 0,0 C -0.22,-0.223 -0.311,-0.634 -0.343,-0.94 -0.371,-1.202 -0.017,-1.301 0.149,-1.144 0.432,-0.874 0.545,-0.298 0.252,0 0.185,0.068 0.067,0.068 0,0"
           style="fill:#20a57c;fill-opacity:1;fill-rule:nonzero;stroke:none"
           id="path2152" />
      </g>
      <g
         id="g2154"
         transform="matrix(0.35277777,0,0,-0.35277777,33.571059,206.48232)">
        <path
           d="M 0,0 C -0.584,-0.177 0.335,-1.46 0.594,-1.627 0.712,-1.705 0.905,-1.605 0.891,-1.456 0.856,-1.081 0.546,-0.801 0.355,-0.493 0.299,-0.402 0.166,0.05 0,0"
           style="fill:#20a57c;fill-opacity:1;fill-rule:nonzero;stroke:none"
           id="path2156" />
      </g>
    </g>
  </g>
</svg>
