<?xml version="1.0" encoding="UTF-8" standalone="no"?>
<!-- Created with Inkscape (http://www.inkscape.org/) -->

<svg
   width="23.01824mm"
   height="30.705225mm"
   viewBox="0 0 23.01824 30.705225"
   version="1.1"
   id="svg59968"
   inkscape:version="1.1-rc (52f87abb86, 2021-05-02)"
   sodipodi:docname="y-yak.svg"
   xmlns:inkscape="http://www.inkscape.org/namespaces/inkscape"
   xmlns:sodipodi="http://sodipodi.sourceforge.net/DTD/sodipodi-0.dtd"
   xmlns="http://www.w3.org/2000/svg"
   xmlns:svg="http://www.w3.org/2000/svg">
  <sodipodi:namedview
     id="namedview59970"
     pagecolor="#ffffff"
     bordercolor="#666666"
     borderopacity="1.0"
     objecttolerance="10.0"
     gridtolerance="10.0"
     guidetolerance="10.0"
     inkscape:pageshadow="2"
     inkscape:pageopacity="0.0"
     inkscape:pagecheckerboard="0"
     inkscape:document-units="mm"
     showgrid="false"
     fit-margin-top="0"
     fit-margin-left="0"
     fit-margin-right="0"
     fit-margin-bottom="0"
     inkscape:zoom="0.94875842"
     inkscape:cx="-169.69546"
     inkscape:cy="-52.17345"
     inkscape:window-width="3840"
     inkscape:window-height="2066"
     inkscape:window-x="2869"
     inkscape:window-y="-11"
     inkscape:window-maximized="1"
     inkscape:current-layer="layer1" />
  <defs
     id="defs59965">
    <clipPath
       clipPathUnits="userSpaceOnUse"
       id="clipPath1532">
      <path
         d="m 474.638,82.9633 h 29.069 V 56.8795 h -29.069 z"
         id="path1530" />
    </clipPath>
    <clipPath
       clipPathUnits="userSpaceOnUse"
       id="clipPath1548">
      <path
         d="m 471.67,86.171 h 8.148 v -6.125 h -8.148 z"
         id="path1546" />
    </clipPath>
    <linearGradient
       x1="0"
       y1="0"
       x2="1"
       y2="0"
       gradientUnits="userSpaceOnUse"
       gradientTransform="matrix(1.9010106,-5.6998086,-5.6998086,-1.9010106,478.46246,69.2099)"
       spreadMethod="pad"
       id="linearGradient1672">
      <stop
         style="stop-opacity:1;stop-color:#50252f"
         offset="0"
         id="stop1666" />
      <stop
         style="stop-opacity:1;stop-color:#50252f"
         offset="0.00540541"
         id="stop1668" />
      <stop
         style="stop-opacity:1;stop-color:#231f20"
         offset="1"
         id="stop1670" />
    </linearGradient>
    <clipPath
       clipPathUnits="userSpaceOnUse"
       id="clipPath1682">
      <path
         d="M 0,500 H 750 V 0 H 0 Z"
         id="path1680" />
    </clipPath>
    <clipPath
       clipPathUnits="userSpaceOnUse"
       id="clipPath1690">
      <path
         d="m 478.477,68.8963 h 1.383 v -4.4315 h -1.383 z"
         id="path1688" />
    </clipPath>
    <linearGradient
       x1="0"
       y1="0"
       x2="1"
       y2="0"
       gradientUnits="userSpaceOnUse"
       gradientTransform="matrix(1.7354344,-5.7594905,-5.7594905,-1.7354344,478.18588,69.11142)"
       spreadMethod="pad"
       id="linearGradient1702">
      <stop
         style="stop-opacity:1;stop-color:#50252f"
         offset="0"
         id="stop1696" />
      <stop
         style="stop-opacity:1;stop-color:#50252f"
         offset="0.00540541"
         id="stop1698" />
      <stop
         style="stop-opacity:1;stop-color:#231f20"
         offset="1"
         id="stop1700" />
    </linearGradient>
    <linearGradient
       x1="0"
       y1="0"
       x2="1"
       y2="0"
       gradientUnits="userSpaceOnUse"
       gradientTransform="matrix(2.3565915,-5.5266118,-5.5266118,-2.3565915,492.03708,69.409386)"
       spreadMethod="pad"
       id="linearGradient1736">
      <stop
         style="stop-opacity:1;stop-color:#50252f"
         offset="0"
         id="stop1730" />
      <stop
         style="stop-opacity:1;stop-color:#50252f"
         offset="0.00540541"
         id="stop1732" />
      <stop
         style="stop-opacity:1;stop-color:#231f20"
         offset="1"
         id="stop1734" />
    </linearGradient>
    <clipPath
       clipPathUnits="userSpaceOnUse"
       id="clipPath1754">
      <path
         d="m 492.224,69.1451 h 1.527 v -4.4134 h -1.527 z"
         id="path1752" />
    </clipPath>
    <linearGradient
       x1="0"
       y1="0"
       x2="1"
       y2="0"
       gradientUnits="userSpaceOnUse"
       gradientTransform="matrix(2.1955209,-5.6002417,-5.6002417,-2.1955209,491.76978,69.2892)"
       spreadMethod="pad"
       id="linearGradient1766">
      <stop
         style="stop-opacity:1;stop-color:#50252f"
         offset="0"
         id="stop1760" />
      <stop
         style="stop-opacity:1;stop-color:#50252f"
         offset="0.00540541"
         id="stop1762" />
      <stop
         style="stop-opacity:1;stop-color:#231f20"
         offset="1"
         id="stop1764" />
    </linearGradient>
  </defs>
  <g
     inkscape:label="Layer 1"
     inkscape:groupmode="layer"
     id="layer1"
     transform="translate(-149.95849,-162.28964)">
    <g
       id="g27268"
       transform="translate(82.001684,-19.159856)">
      <g
         id="g1486"
         transform="matrix(0.35277777,0,0,-0.35277777,73.856657,209.07376)">
        <path
           d="m 0,0 c -0.651,6.734 -0.977,13.794 -0.977,21.504 v 8.364 c -7.819,16.508 -14.662,33.775 -15.747,43.334 l 13.575,-1.304 c 1.846,-9.341 4.778,-17.485 9.992,-29.107 5.973,13.142 10.643,24.98 14.009,35.514 L 33.451,77.111 C 28.239,62.232 22.047,47.135 14.119,30.518 14.011,25.631 13.902,20.202 13.902,15.205 c 0,-5.43 0.109,-11.077 0.435,-16.725 z"
           style="fill:#e2997d;fill-opacity:1;fill-rule:nonzero;stroke:none"
           id="path1488" />
      </g>
      <g
         id="g1490"
         transform="matrix(0.35277777,0,0,-0.35277777,82.083329,209.6157)">
        <path
           d="m 0,0 c 0,0 -0.147,-0.484 -0.377,-1.184 -0.003,-0.007 -0.003,-0.017 -0.007,-0.024 -0.126,-0.383 -0.276,-0.84 -0.443,-1.31 -0.12,-0.354 -0.25,-0.718 -0.381,-1.075 -0.507,-1.367 -1.047,-2.608 -1.341,-2.635 -0.663,-0.053 -0.84,1.281 -1.241,1.334 -0.4,0.057 -0.547,-1.778 -1.601,-0.61 -0.297,0.327 -0.554,1.268 -0.767,2.452 -0.374,2.035 -0.627,4.79 -0.751,6.391 -0.013,0.16 -0.026,0.311 -0.036,0.447 -0.004,0.027 -0.004,0.057 -0.007,0.084 V 3.873 C -6.955,3.94 -6.962,4 -6.965,4.06 c -0.027,0.367 -0.04,0.583 -0.04,0.583 l 2.308,-1.531 z"
           style="fill:#603422;fill-opacity:1;fill-rule:nonzero;stroke:none"
           id="path1492" />
      </g>
      <g
         id="g1494"
         transform="matrix(0.35277777,0,0,-0.35277777,81.65728,210.88312)">
        <path
           d="m 0,0 c -0.507,-1.368 -1.047,-2.609 -1.341,-2.635 -0.664,-0.054 -0.841,1.281 -1.241,1.334 -0.4,0.057 -0.547,-1.778 -1.601,-0.61 C -4.48,-1.585 -4.737,-0.644 -4.95,0.54 -4.824,0.497 -1.771,-0.537 0,0"
           style="fill:#210f0a;fill-opacity:1;fill-rule:nonzero;stroke:none"
           id="path1496" />
      </g>
      <g
         id="g1498"
         transform="matrix(0.35277777,0,0,-0.35277777,83.276459,208.54879)">
        <path
           d="m 0,0 c 0,0 0.528,-4.475 0.758,-5.176 0.004,-0.006 0.004,-0.016 0.007,-0.023 0.127,-0.384 0.277,-0.841 0.444,-1.311 0.12,-0.354 0.25,-0.717 0.38,-1.074 0.507,-1.368 1.047,-2.609 1.341,-2.636 0.664,-0.053 0.841,1.281 1.241,1.335 0.4,0.056 0.547,-1.778 1.601,-0.611 0.297,0.327 0.554,1.268 0.767,2.452 0.374,2.035 0.627,4.79 0.751,6.392 0.013,0.16 0.026,0.31 0.036,0.447 0.004,0.026 0.004,0.056 0.007,0.083 v 0.003 c 0.003,0.067 0.01,0.127 0.013,0.187 0.027,0.367 0.041,0.584 0.041,0.584 L 5.812,2.586 Z"
           style="fill:#603422;fill-opacity:1;fill-rule:nonzero;stroke:none"
           id="path1500" />
      </g>
      <g
         id="g1502"
         transform="matrix(0.35277777,0,0,-0.35277777,83.837023,211.22433)">
        <path
           d="m 0,0 c 0.507,-1.368 1.047,-2.609 1.341,-2.635 0.664,-0.054 0.841,1.281 1.241,1.334 0.4,0.057 0.547,-1.778 1.601,-0.61 C 4.48,-1.585 4.737,-0.644 4.95,0.54 4.824,0.497 1.771,-0.537 0,0"
           style="fill:#210f0a;fill-opacity:1;fill-rule:nonzero;stroke:none"
           id="path1504" />
      </g>
      <g
         id="g1506"
         transform="matrix(0.35277777,0,0,-0.35277777,86.067002,207.48086)">
        <path
           d="m 0,0 c 0,0 0.407,-3.449 0.584,-3.988 0.003,-0.006 0.003,-0.013 0.005,-0.018 0.098,-0.296 0.214,-0.648 0.342,-1.011 0.093,-0.272 0.193,-0.552 0.293,-0.827 0.391,-1.054 0.808,-2.01 1.034,-2.031 0.511,-0.041 0.647,0.987 0.956,1.028 0.308,0.044 0.422,-1.37 1.234,-0.47 0.229,0.252 0.426,0.977 0.591,1.889 0.288,1.568 0.483,3.691 0.578,4.925 0.011,0.124 0.021,0.239 0.029,0.345 0.002,0.02 0.002,0.043 0.005,0.064 v 0.003 c 0.002,0.051 0.007,0.097 0.01,0.143 0.021,0.283 0.031,4.331 0.031,4.331 L 3.64,5.06 Z"
           style="fill:#603422;fill-opacity:1;fill-rule:nonzero;stroke:none"
           id="path1508" />
      </g>
      <g
         id="g1510"
         transform="matrix(0.35277777,0,0,-0.35277777,86.498943,209.5426)">
        <path
           d="m 0,0 c 0.391,-1.054 0.807,-2.01 1.033,-2.031 0.512,-0.041 0.648,0.987 0.956,1.028 0.309,0.044 0.422,-1.37 1.234,-0.47 0.229,0.252 0.427,0.977 0.592,1.889 C 3.717,0.383 1.365,-0.414 0,0"
           style="fill:#210f0a;fill-opacity:1;fill-rule:nonzero;stroke:none"
           id="path1512" />
      </g>
      <g
         id="g1514"
         transform="matrix(0.35277777,0,0,-0.35277777,79.763568,207.48086)">
        <path
           d="m 0,0 c 0,0 -0.407,-3.449 -0.584,-3.988 -0.003,-0.006 -0.003,-0.013 -0.005,-0.018 -0.098,-0.296 -0.214,-0.648 -0.342,-1.011 -0.093,-0.272 -0.193,-0.552 -0.293,-0.827 -0.391,-1.054 -0.808,-2.01 -1.034,-2.031 -0.511,-0.041 -0.648,0.987 -0.956,1.028 -0.308,0.044 -0.422,-1.37 -1.234,-0.47 -0.229,0.252 -0.427,0.977 -0.591,1.889 -0.288,1.568 -0.483,3.691 -0.578,4.925 -0.011,0.124 -0.021,0.239 -0.029,0.345 -0.002,0.02 -0.002,0.043 -0.005,0.064 v 0.003 c -0.002,0.051 -0.007,0.097 -0.01,0.143 -0.021,0.283 -0.031,4.331 -0.031,4.331 L -3.64,5.06 Z"
           style="fill:#603422;fill-opacity:1;fill-rule:nonzero;stroke:none"
           id="path1516" />
      </g>
      <g
         id="g1518"
         transform="matrix(0.35277777,0,0,-0.35277777,79.331627,209.5426)">
        <path
           d="m 0,0 c -0.391,-1.054 -0.807,-2.01 -1.033,-2.031 -0.512,-0.041 -0.648,0.987 -0.957,1.028 -0.308,0.044 -0.421,-1.37 -1.233,-0.47 -0.229,0.252 -0.427,0.977 -0.592,1.889 C -3.717,0.383 -1.365,-0.414 0,0"
           style="fill:#210f0a;fill-opacity:1;fill-rule:nonzero;stroke:none"
           id="path1520" />
      </g>
      <g
         id="g1522"
         transform="matrix(0.35277777,0,0,-0.35277777,90.842025,201.34549)">
        <path
           d="m 0,0 c 0,0 2.156,4.484 -3.843,13.034 -5.999,8.55 -17.901,5.047 -17.901,5.047 0.545,1.584 4.908,2.098 4.908,2.098 -2.533,1.386 -6.552,-1.198 -6.562,-1.206 -0.01,0.008 -2.924,2.296 -6.456,3.324 0,0 2.684,-2.375 3.229,-3.959 0,0 -10.328,3.246 -16.327,-5.304 C -48.952,4.484 -46.796,0 -46.796,0 c 0,0 1.594,4.246 3.187,4.88 0,0 -3.374,-8.051 -2.437,-13.17 0,0 1.969,2.324 2.531,2.957 0,0 -1.031,-5.384 0.563,-8.709 l 1.916,2.534 c 0,0 0.493,-4.109 2.243,-7.125 1.476,-2.544 1.194,0.901 1.069,2.046 0.122,-0.944 0.532,-3.518 1.478,-4.501 1.167,-1.214 0.542,2.692 0.542,2.692 0,0 2.738,-5.106 4.896,-6.096 -0.663,1.742 -0.545,3.879 -0.545,3.879 0,0 1.54,-3.694 2.75,-4.433 1.211,-0.739 1.023,2.692 1.023,2.692 0,0 1.53,-2.692 4.182,-4.17 2.653,1.478 4.182,4.17 4.182,4.17 0,0 -0.187,-3.431 1.023,-2.692 1.21,0.739 2.75,4.433 2.75,4.433 0,0 0.537,-1.662 0,-3.325 1.484,0.833 4.351,5.542 4.351,5.542 0,0 -0.625,-3.906 0.543,-2.692 0.945,0.983 1.356,3.557 1.478,4.501 -0.125,-1.144 1.459,-2.213 1.3,-4.844 1.75,3.016 2.012,9.923 2.012,9.923 l 1.916,-2.534 c 1.593,3.325 0.562,8.709 0.562,8.709 C -2.718,-5.966 -0.75,-8.29 -0.75,-8.29 0.187,-3.171 -3.187,4.88 -3.187,4.88 -1.594,4.246 0,0 0,0"
           style="fill:#7f412b;fill-opacity:1;fill-rule:nonzero;stroke:none"
           id="path1524" />
      </g>
      <g
         id="g1526"
         transform="matrix(0.35277777,0,0,-0.35277777,-89.066312,227.90994)">
        <g
           id="g1528" />
        <g
           id="g1540">
          <g
             clip-path="url(#clipPath1532)"
             id="g1538">
            <g
               transform="translate(474.6378,61.222)"
               id="g1536">
              <path
                 d="m 0,0 c 0,0 3.017,-3.948 11.941,-4.317 8.924,-0.37 13.414,3.378 14.045,6.333 0.632,2.956 -1.051,5.907 -1.051,5.907 0,0 -0.349,7.183 -0.851,8.713 0,0 4.455,0.842 4.985,5.105 L 16.854,19.579"
                 style="fill:#e2997d;fill-opacity:1;fill-rule:nonzero;stroke:none"
                 id="path1534" />
            </g>
          </g>
        </g>
      </g>
      <g
         id="g1542"
         transform="matrix(0.35277777,0,0,-0.35277777,-89.066312,227.90994)">
        <g
           id="g1544" />
        <g
           id="g1556">
          <g
             clip-path="url(#clipPath1548)"
             id="g1554">
            <g
               transform="translate(471.6814,86.171)"
               id="g1552">
              <path
                 d="m 0,0 c 0,0 -0.51,-6.017 5.428,-6.122 5.937,-0.106 0.264,2.914 0.264,2.914"
                 style="fill:#e2997d;fill-opacity:1;fill-rule:nonzero;stroke:none"
                 id="path1550" />
            </g>
          </g>
        </g>
      </g>
      <g
         id="g1558"
         transform="matrix(0.35277777,0,0,-0.35277777,81.229007,196.95069)">
        <path
           d="M 0,0 -1.352,-3.005 -2.619,-5.83 c 0,0 -2.977,0.253 -5.725,4.497 -1.622,2.47 -0.95,7.486 -2.04,10.501 -0.823,2.255 -2.951,3.217 -3.661,3.901 -0.012,0.013 -0.025,0.013 -0.025,0.013 -0.215,0.215 -0.279,0.405 -0.101,0.595 0.76,0.799 4.649,1.153 6.422,-1.824 C -5.051,7.319 -6.316,4.194 -4.468,2.594 -2.779,1.131 0,0 0,0"
           style="fill:#a0654b;fill-opacity:1;fill-rule:nonzero;stroke:none"
           id="path1560" />
      </g>
      <g
         id="g1562"
         transform="matrix(0.35277777,0,0,-0.35277777,80.751981,198.01086)">
        <path
           d="m 0,0 -1.267,-2.825 c 0,0 -2.976,0.254 -5.725,4.497 -1.622,2.47 -0.95,7.486 -2.04,10.501 -0.823,2.255 -2.951,3.217 -3.66,3.901 0.304,-0.088 2.698,-0.823 3.888,-2.406 C -7.537,11.97 -7.327,6.625 -5.823,3.793 -5.031,2.302 -2.331,0.481 0,0"
           style="fill:#8e5640;fill-opacity:1;fill-rule:nonzero;stroke:none"
           id="path1564" />
      </g>
      <g
         id="g1566"
         transform="matrix(0.35277777,0,0,-0.35277777,77.019804,192.79536)">
        <path
           d="M 0,0 C 0,0 0.471,0.442 0.852,0.92 1.053,1.153 1.217,1.414 1.341,1.614 1.468,1.813 1.543,1.959 1.543,1.959 1.536,1.962 1.54,1.794 1.471,1.557 1.406,1.318 1.25,1.022 1.049,0.761 0.836,0.508 0.585,0.293 0.371,0.171 0.158,0.047 0,0 0,0"
           style="fill:#4c2416;fill-opacity:1;fill-rule:nonzero;stroke:none"
           id="path1568" />
      </g>
      <g
         id="g1570"
         transform="matrix(0.35277777,0,0,-0.35277777,77.564317,193.58082)">
        <path
           d="m 0,0 c 0,0 0.21,0.064 0.515,0.17 0.303,0.107 0.712,0.234 1.083,0.427 0.38,0.174 0.717,0.421 0.89,0.673 0.075,0.129 0.15,0.244 0.163,0.337 0.025,0.092 0.039,0.144 0.039,0.144 0,0 10e-4,-0.054 0.003,-0.15 C 2.702,1.504 2.68,1.36 2.613,1.201 2.536,1.048 2.426,0.871 2.26,0.735 2.101,0.59 1.906,0.475 1.709,0.37 1.303,0.18 0.873,0.073 0.547,0.032 0.22,-0.009 0,0 0,0"
           style="fill:#4c2416;fill-opacity:1;fill-rule:nonzero;stroke:none"
           id="path1572" />
      </g>
      <g
         id="g1574"
         transform="matrix(0.35277777,0,0,-0.35277777,77.838672,194.46255)">
        <path
           d="M 0,0 C 0,0 0.879,0.123 1.651,0.469 2.438,0.788 3.082,1.401 3.082,1.401 3.073,1.409 2.983,1.2 2.756,0.95 2.644,0.825 2.501,0.687 2.327,0.566 2.154,0.446 1.958,0.329 1.752,0.237 1.335,0.061 0.89,-0.027 0.555,-0.035 0.219,-0.047 0,0 0,0"
           style="fill:#4c2416;fill-opacity:1;fill-rule:nonzero;stroke:none"
           id="path1576" />
      </g>
      <g
         id="g1578"
         transform="matrix(0.35277777,0,0,-0.35277777,77.895716,195.44772)">
        <path
           d="M 0,0 C 0,0 0.245,0.011 0.602,0.057 0.958,0.105 1.431,0.168 1.878,0.314 2.332,0.439 2.751,0.655 3.045,0.852 3.189,0.955 3.316,1.039 3.39,1.114 3.471,1.184 3.517,1.224 3.517,1.224 3.506,1.235 3.407,1 3.135,0.742 2.87,0.477 2.427,0.221 1.951,0.071 1.471,-0.065 0.974,-0.106 0.607,-0.085 0.238,-0.063 0,0 0,0"
           style="fill:#4c2416;fill-opacity:1;fill-rule:nonzero;stroke:none"
           id="path1580" />
      </g>
      <g
         id="g1582"
         transform="matrix(0.35277777,0,0,-0.35277777,78.079725,196.64028)">
        <path
           d="M 0,0 C 0,0 1.179,0.039 2.271,0.362 2.819,0.515 3.326,0.78 3.672,1.03 3.841,1.162 3.988,1.268 4.072,1.364 4.165,1.453 4.217,1.504 4.217,1.504 4.204,1.517 4.088,1.235 3.764,0.921 3.446,0.604 2.914,0.296 2.343,0.12 1.767,-0.042 1.173,-0.098 0.731,-0.082 0.288,-0.064 0,0 0,0"
           style="fill:#4c2416;fill-opacity:1;fill-rule:nonzero;stroke:none"
           id="path1584" />
      </g>
      <g
         id="g1586"
         transform="matrix(0.35277777,0,0,-0.35277777,79.008236,198.02748)">
        <path
           d="M 0,0 C 0,0 0.997,0.63 1.776,1.461 2.172,1.87 2.475,2.355 2.647,2.746 2.726,2.945 2.8,3.111 2.823,3.237 2.858,3.36 2.878,3.431 2.878,3.431 2.86,3.434 2.902,3.133 2.781,2.698 2.668,2.263 2.364,1.73 1.961,1.288 1.546,0.858 1.061,0.509 0.672,0.299 0.281,0.09 0,0 0,0"
           style="fill:#4c2416;fill-opacity:1;fill-rule:nonzero;stroke:none"
           id="path1588" />
      </g>
      <g
         id="g1590"
         transform="matrix(0.35277777,0,0,-0.35277777,84.826847,196.95069)">
        <path
           d="M 0,0 1.352,-3.005 2.619,-5.83 c 0,0 2.977,0.253 5.726,4.497 1.621,2.47 0.95,7.486 2.039,10.501 0.823,2.255 2.951,3.217 3.661,3.901 0.012,0.013 0.025,0.013 0.025,0.013 0.215,0.215 0.279,0.405 0.101,0.595 C 13.411,14.476 9.523,14.83 7.749,11.853 5.051,7.319 6.316,4.194 4.468,2.594 2.779,1.131 0,0 0,0"
           style="fill:#a0654b;fill-opacity:1;fill-rule:nonzero;stroke:none"
           id="path1592" />
      </g>
      <g
         id="g1594"
         transform="matrix(0.35277777,0,0,-0.35277777,85.303943,198.01086)">
        <path
           d="m 0,0 1.267,-2.825 c 0,0 2.976,0.254 5.725,4.497 1.622,2.47 0.95,7.486 2.04,10.501 0.823,2.255 2.951,3.217 3.66,3.901 C 12.388,15.986 9.994,15.251 8.804,13.668 7.537,11.97 7.327,6.625 5.823,3.793 5.031,2.302 2.331,0.481 0,0"
           style="fill:#8e5640;fill-opacity:1;fill-rule:nonzero;stroke:none"
           id="path1596" />
      </g>
      <g
         id="g1598"
         transform="matrix(0.35277777,0,0,-0.35277777,89.036085,192.79536)">
        <path
           d="m 0,0 c 0,0 -0.158,0.047 -0.371,0.171 -0.214,0.122 -0.465,0.337 -0.678,0.59 -0.201,0.261 -0.357,0.557 -0.422,0.796 -0.069,0.237 -0.065,0.405 -0.072,0.402 0,0 0.075,-0.146 0.203,-0.345 0.123,-0.2 0.287,-0.461 0.488,-0.694 C -0.471,0.442 0,0 0,0"
           style="fill:#4c2416;fill-opacity:1;fill-rule:nonzero;stroke:none"
           id="path1600" />
      </g>
      <g
         id="g1602"
         transform="matrix(0.35277777,0,0,-0.35277777,88.491608,193.58082)">
        <path
           d="M 0,0 C 0,0 -0.22,-0.009 -0.547,0.032 -0.873,0.073 -1.303,0.18 -1.709,0.37 -1.906,0.475 -2.101,0.59 -2.26,0.735 c -0.166,0.136 -0.276,0.313 -0.353,0.466 -0.067,0.159 -0.089,0.303 -0.08,0.4 0.002,0.096 0.003,0.15 0.003,0.15 0,0 0.014,-0.052 0.039,-0.144 0.013,-0.093 0.087,-0.208 0.163,-0.337 0.173,-0.252 0.51,-0.499 0.89,-0.673 0.371,-0.193 0.78,-0.32 1.083,-0.427 C -0.21,0.064 0,0 0,0"
           style="fill:#4c2416;fill-opacity:1;fill-rule:nonzero;stroke:none"
           id="path1604" />
      </g>
      <g
         id="g1606"
         transform="matrix(0.35277777,0,0,-0.35277777,88.217182,194.46255)">
        <path
           d="m 0,0 c 0,0 -0.219,-0.047 -0.555,-0.035 -0.335,0.008 -0.78,0.096 -1.197,0.272 -0.206,0.092 -0.402,0.209 -0.575,0.329 -0.174,0.121 -0.317,0.259 -0.429,0.384 -0.227,0.25 -0.317,0.459 -0.326,0.451 0,0 0.644,-0.613 1.431,-0.932 C -0.879,0.123 0,0 0,0"
           style="fill:#4c2416;fill-opacity:1;fill-rule:nonzero;stroke:none"
           id="path1608" />
      </g>
      <g
         id="g1610"
         transform="matrix(0.35277777,0,0,-0.35277777,88.160173,195.44772)">
        <path
           d="m 0,0 c 0,0 -0.238,-0.063 -0.607,-0.085 -0.367,-0.021 -0.864,0.02 -1.344,0.156 -0.476,0.15 -0.919,0.406 -1.184,0.671 -0.271,0.258 -0.371,0.493 -0.382,0.482 0,0 0.046,-0.04 0.127,-0.11 0.074,-0.075 0.201,-0.159 0.345,-0.262 0.294,-0.197 0.713,-0.413 1.167,-0.538 0.447,-0.146 0.92,-0.209 1.276,-0.257 C -0.245,0.011 0,0 0,0"
           style="fill:#4c2416;fill-opacity:1;fill-rule:nonzero;stroke:none"
           id="path1612" />
      </g>
      <g
         id="g1614"
         transform="matrix(0.35277777,0,0,-0.35277777,87.9762,196.64028)">
        <path
           d="m 0,0 c 0,0 -0.288,-0.064 -0.731,-0.082 -0.442,-0.016 -1.036,0.04 -1.612,0.202 -0.571,0.176 -1.103,0.484 -1.421,0.801 -0.324,0.314 -0.44,0.596 -0.453,0.583 0,0 0.052,-0.051 0.145,-0.14 0.084,-0.096 0.231,-0.202 0.4,-0.334 C -3.326,0.78 -2.819,0.515 -2.27,0.362 -1.179,0.039 0,0 0,0"
           style="fill:#4c2416;fill-opacity:1;fill-rule:nonzero;stroke:none"
           id="path1616" />
      </g>
      <g
         id="g1618"
         transform="matrix(0.35277777,0,0,-0.35277777,87.047689,198.02748)">
        <path
           d="m 0,0 c 0,0 -0.281,0.09 -0.672,0.299 -0.389,0.21 -0.874,0.559 -1.289,0.989 -0.403,0.442 -0.707,0.975 -0.821,1.41 -0.12,0.435 -0.078,0.736 -0.096,0.733 0,0 0.02,-0.071 0.055,-0.194 C -2.8,3.111 -2.726,2.945 -2.647,2.746 -2.475,2.355 -2.172,1.87 -1.776,1.461 -0.997,0.63 0,0 0,0"
           style="fill:#4c2416;fill-opacity:1;fill-rule:nonzero;stroke:none"
           id="path1620" />
      </g>
      <g
         id="g1622"
         transform="matrix(0.35277777,0,0,-0.35277777,85.799808,199.78103)">
        <path
           d="M 0,0 C 1.479,-1.073 3.469,-1.936 5.024,-0.976 6.578,-0.016 8.867,2.322 7.708,4.387 5.789,3.292 3.064,2.001 0.857,1.903"
           style="fill:#603422;fill-opacity:1;fill-rule:nonzero;stroke:none"
           id="path1624" />
      </g>
      <g
         id="g1626"
         transform="matrix(0.35277777,0,0,-0.35277777,86.256972,199.09752)">
        <path
           d="m 0,0 c -0.254,-0.199 -0.503,-0.418 -0.72,-0.659 l -0.576,-1.278 c 1.329,-0.965 3.07,-1.755 4.538,-1.209 -0.008,0.048 -0.014,0.097 -0.03,0.144 -0.094,0.289 -0.317,0.533 -0.352,0.835 -0.031,0.268 0.097,0.534 0.279,0.733 0.182,0.199 0.415,0.344 0.64,0.493 0.809,0.535 1.545,0.499 2.225,1.191 C 6.176,0.425 6.366,1.268 6.45,1.499 6.534,1.73 6.509,2.018 6.327,2.183 L 6.359,2.42 C 4.569,1.403 2.1,0.23 0,0"
           style="fill:#4c2416;fill-opacity:1;fill-rule:nonzero;stroke:none"
           id="path1628" />
      </g>
      <g
         id="g1630"
         transform="matrix(0.35277777,0,0,-0.35277777,85.338657,198.66435)">
        <path
           d="M 0,0 C 3.043,-0.39 6.186,0.036 9.015,1.222 9.221,0.383 8.55,-0.417 7.839,-0.907 5.804,-2.312 2.99,-2.493 0.792,-1.36"
           style="fill:#210f0a;fill-opacity:1;fill-rule:nonzero;stroke:none"
           id="path1632" />
      </g>
      <g
         id="g1634"
         transform="matrix(0.35277777,0,0,-0.35277777,79.654207,199.27567)">
        <path
           d="M 0,0 C -1.762,-0.486 -3.93,-0.594 -5.052,0.853 -6.173,2.3 -7.5,5.297 -5.691,6.825 -4.275,5.123 -2.172,2.954 -0.137,2.085"
           style="fill:#603422;fill-opacity:1;fill-rule:nonzero;stroke:none"
           id="path1636" />
      </g>
      <g
         id="g1638"
         transform="matrix(0.35277777,0,0,-0.35277777,79.464977,198.4742)">
        <path
           d="M 0,0 C 0.168,-0.275 1.464,-0.2 1.583,-0.503 L 0.536,-2.272 c -1.583,-0.436 -3.492,-0.564 -4.677,0.464 0.024,0.043 0.047,0.087 0.078,0.126 0.19,0.237 0.485,0.387 0.623,0.657 0.123,0.241 0.096,0.535 -0.005,0.786 -0.101,0.251 -0.269,0.468 -0.427,0.687 -0.572,0.786 -1.274,1.012 -1.67,1.9 -0.1,0.225 0.018,1.081 0.02,1.327 0.002,0.246 0.126,0.507 0.354,0.598 l 0.054,0.233 C -3.793,2.923 -1.889,0.955 0,0"
           style="fill:#4c2416;fill-opacity:1;fill-rule:nonzero;stroke:none"
           id="path1640" />
      </g>
      <g
         id="g1642"
         transform="matrix(0.35277777,0,0,-0.35277777,80.477555,198.39144)">
        <path
           d="m 0,0 c -2.989,0.705 -5.787,2.211 -8.024,4.318 -0.487,-0.713 -0.137,-1.699 0.357,-2.409 1.416,-2.033 3.992,-3.193 6.448,-2.905"
           style="fill:#210f0a;fill-opacity:1;fill-rule:nonzero;stroke:none"
           id="path1644" />
      </g>
      <g
         id="g1646"
         transform="matrix(0.35277777,0,0,-0.35277777,78.000914,204.22303)">
        <path
           d="m 0,0 c 0.141,4.055 1.013,8.12 2.569,11.964 1.114,2.752 2.64,5.469 5.033,7.38 2.393,1.912 7.007,3.154 11.07,1.403 2.332,-1.005 4.635,-4.887 5.492,-7.701 0.974,-3.201 1.425,-10.899 1.125,-14.028"
           style="fill:#603422;fill-opacity:1;fill-rule:nonzero;stroke:none"
           id="path1648" />
      </g>
      <g
         id="g1650"
         transform="matrix(0.35277777,0,0,-0.35277777,87.166151,204.14796)">
        <path
           d="m 0,0 c -0.466,0.988 -1.049,6.992 -14.772,6.475 -3.766,-0.142 -6.99,-0.999 -9.673,-2.799 -1.688,-1.132 -2.682,-3.369 -2.821,-5.397 -0.15,-2.185 1.827,-4.255 3.694,-5.401 1.867,-1.146 4.437,-2.081 6.623,-2.22 4.601,-0.294 8.357,0.121 12.773,1.445 C 2.102,-6.015 0.466,-0.988 0,0"
           style="fill:#a0654b;fill-opacity:1;fill-rule:nonzero;stroke:none"
           id="path1652" />
      </g>
      <g
         id="g1654"
         transform="matrix(0.35277777,0,0,-0.35277777,-89.066312,227.90994)">
        <g
           id="g1656">
          <g
             id="g1662">
            <g
               id="g1664">
              <path
                 d="m 479.346,69.009 c -1.107,-0.125 -0.896,-2.939 -0.754,-3.859 v 0 c 0.142,-0.921 0.82,-0.863 1.184,-0.128 v 0 c 0.358,0.722 0.666,3.99 -0.371,3.991 v 0 c -0.019,0 -0.039,-0.001 -0.059,-0.004"
                 style="fill:url(#linearGradient1672);stroke:none"
                 id="path1674" />
            </g>
          </g>
        </g>
      </g>
      <g
         id="g1676"
         transform="matrix(0.35277777,0,0,-0.35277777,-89.066312,227.90994)">
        <g
           id="g1678"
           clip-path="url(#clipPath1682)">
          <g
             id="g1684">
            <g
               id="g1686" />
            <g
               id="g1716">
              <g
                 clip-path="url(#clipPath1690)"
                 id="g1714">
                <g
                   id="g1712">
                  <g
                     id="g1710">
                    <g
                       id="g1708">
                      <g
                         id="g1706">
                        <path
                           d="m 478.849,65.66 c -0.084,0.67 -0.174,2.335 0.206,3.236 -0.774,-0.552 -0.591,-2.917 -0.463,-3.746 0.142,-0.921 0.82,-0.863 1.184,-0.128 0.029,0.058 0.057,0.136 0.084,0.224 -0.389,-0.465 -0.912,-0.387 -1.011,0.414"
                           style="fill:url(#linearGradient1702);stroke:none"
                           id="path1704" />
                      </g>
                    </g>
                  </g>
                </g>
              </g>
            </g>
          </g>
        </g>
      </g>
      <g
         id="g1718"
         transform="matrix(0.35277777,0,0,-0.35277777,-89.066312,227.90994)">
        <g
           id="g1720">
          <g
             id="g1726">
            <g
               id="g1728">
              <path
                 d="m 492.935,69.281 c -1.094,-0.213 -0.656,-3.001 -0.44,-3.908 v 0 c 0.216,-0.905 0.887,-0.794 1.19,-0.031 v 0 c 0.295,0.739 0.34,3.949 -0.654,3.949 v 0 c -0.031,0 -0.063,-0.003 -0.096,-0.01"
                 style="fill:url(#linearGradient1736);stroke:none"
                 id="path1738" />
            </g>
          </g>
        </g>
      </g>
      <g
         id="g1748"
         transform="matrix(0.35277777,0,0,-0.35277777,-89.066312,227.90994)">
        <g
           id="g1750" />
        <g
           id="g1780">
          <g
             clip-path="url(#clipPath1754)"
             id="g1778">
            <g
               id="g1776">
              <g
                 id="g1774">
                <g
                   id="g1772">
                  <g
                     id="g1770">
                    <path
                       d="m 492.71,65.903 c -0.138,0.661 -0.362,2.314 -0.057,3.242 -0.727,-0.613 -0.352,-2.955 -0.158,-3.771 0.216,-0.906 0.887,-0.794 1.191,-0.032 0.023,0.06 0.045,0.14 0.065,0.23 -0.35,-0.495 -0.877,-0.459 -1.041,0.331"
                       style="fill:url(#linearGradient1766);stroke:none"
                       id="path1768" />
                  </g>
                </g>
              </g>
            </g>
          </g>
        </g>
      </g>
      <g
         id="g1782"
         transform="matrix(0.35277777,0,0,-0.35277777,81.037096,200.96855)">
        <path
           d="m 0,0 c 0,-0.761 -0.617,-1.377 -1.377,-1.377 -0.761,0 -1.378,0.616 -1.378,1.377 0,0.761 0.617,1.377 1.378,1.377 C -0.617,1.377 0,0.761 0,0"
           style="fill:#210f0a;fill-opacity:1;fill-rule:nonzero;stroke:none"
           id="path1784" />
      </g>
      <g
         id="g1786"
         transform="matrix(0.35277777,0,0,-0.35277777,80.664316,200.85217)">
        <path
           d="m 0,0 c 0,-0.325 -0.264,-0.589 -0.589,-0.589 -0.326,0 -0.589,0.264 -0.589,0.589 0,0.325 0.263,0.589 0.589,0.589 C -0.264,0.589 0,0.325 0,0"
           style="fill:#ffffff;fill-opacity:1;fill-rule:nonzero;stroke:none"
           id="path1788" />
      </g>
      <g
         id="g1790"
         transform="matrix(0.35277777,0,0,-0.35277777,80.065335,201.25772)">
        <path
           d="m 0,0 c 0,0 0.079,-0.145 0.245,-0.318 0.155,-0.181 0.427,-0.367 0.734,-0.421 0.625,-0.141 1.24,0.215 1.239,0.181 0,0 -0.135,-0.092 -0.363,-0.188 C 1.629,-0.841 1.292,-0.915 0.955,-0.856 0.621,-0.775 0.345,-0.557 0.196,-0.36 0.044,-0.162 0,0 0,0"
           style="fill:#210f0a;fill-opacity:1;fill-rule:nonzero;stroke:none"
           id="path1792" />
      </g>
      <g
         id="g1794"
         transform="matrix(0.35277777,0,0,-0.35277777,84.430818,201.05628)">
        <path
           d="m 0,0 c 0,-0.761 0.617,-1.377 1.377,-1.377 0.761,0 1.378,0.616 1.378,1.377 0,0.761 -0.617,1.377 -1.378,1.377 C 0.617,1.377 0,0.761 0,0"
           style="fill:#210f0a;fill-opacity:1;fill-rule:nonzero;stroke:none"
           id="path1796" />
      </g>
      <g
         id="g1798"
         transform="matrix(0.35277777,0,0,-0.35277777,84.803599,200.9399)">
        <path
           d="m 0,0 c 0,-0.325 0.264,-0.589 0.589,-0.589 0.325,0 0.589,0.264 0.589,0.589 0,0.325 -0.264,0.589 -0.589,0.589 C 0.264,0.589 0,0.325 0,0"
           style="fill:#ffffff;fill-opacity:1;fill-rule:nonzero;stroke:none"
           id="path1800" />
      </g>
      <g
         id="g1802"
         transform="matrix(0.35277777,0,0,-0.35277777,85.402615,201.34549)">
        <path
           d="m 0,0 c 0,0 -0.044,-0.161 -0.196,-0.36 -0.149,-0.197 -0.425,-0.415 -0.759,-0.496 -0.337,-0.059 -0.674,0.015 -0.9,0.11 -0.228,0.096 -0.363,0.189 -0.363,0.189 -10e-4,0.033 0.614,-0.323 1.239,-0.182 0.307,0.054 0.579,0.24 0.734,0.421 C -0.079,-0.145 0,0 0,0"
           style="fill:#210f0a;fill-opacity:1;fill-rule:nonzero;stroke:none"
           id="path1804" />
      </g>
      <g
         id="g1806"
         transform="matrix(0.35277777,0,0,-0.35277777,82.47777,196.2167)">
        <path
           d="m 0,0 c 0,0 -4.616,-0.111 -6.971,-4.525 0,0 -1.296,-2.943 0.014,-2.099 1.309,0.845 2.502,2.903 3.186,2.903 0.683,0 -0.399,-2.442 0.102,-3.055 0.502,-0.613 1.663,2.95 2.243,3.055 0.581,0.106 1.425,-3.507 2.059,-3.126 0.633,0.382 -0.185,3.68 0.818,3.733 1.003,0.053 2.217,-3.826 2.85,-3.589 0.633,0.238 -0.765,3.431 -0.343,3.721 0.422,0.29 2.164,-2.877 2.824,-2.982 0.659,-0.106 -1.003,2.85 -0.871,3.193 0.132,0.343 2.938,-4.021 3.694,-4.104 C 10.362,-6.958 9.817,0.66 0,0"
           style="fill:#210f0a;fill-opacity:1;fill-rule:nonzero;stroke:none"
           id="path1808" />
      </g>
      <g
         id="g1810"
         transform="matrix(0.35277777,0,0,-0.35277777,74.760298,199.36133)">
        <path
           d="M 0,0 C 0.19,0.106 0.222,0.29 0.319,0.481 0.462,0.764 0.607,1.027 0.734,1.318 0.801,1.471 0.635,1.612 0.501,1.498 0.196,1.238 -0.555,0.406 -0.066,0.009 -0.047,-0.007 -0.023,-0.013 0,0"
           style="fill:#603422;fill-opacity:1;fill-rule:nonzero;stroke:none"
           id="path1812" />
      </g>
      <g
         id="g1814"
         transform="matrix(0.35277777,0,0,-0.35277777,75.110571,201.88919)">
        <path
           d="M 0,0 C 0.248,0.386 0.364,0.857 0.516,1.286 0.681,1.753 0.894,2.242 1.006,2.723 1.051,2.917 0.799,3.097 0.65,2.93 0.057,2.262 -0.556,0.946 -0.317,0.041 -0.277,-0.108 -0.079,-0.122 0,0"
           style="fill:#603422;fill-opacity:1;fill-rule:nonzero;stroke:none"
           id="path1816" />
      </g>
      <g
         id="g1818"
         transform="matrix(0.35277777,0,0,-0.35277777,75.042555,203.14364)">
        <path
           d="M 0,0 C 0.265,0.555 0.483,1.363 0.424,1.981 0.408,2.148 0.177,2.306 0.044,2.138 -0.368,1.617 -0.812,0.749 -0.579,0.076 -0.498,-0.159 -0.126,-0.264 0,0"
           style="fill:#603422;fill-opacity:1;fill-rule:nonzero;stroke:none"
           id="path1820" />
      </g>
      <g
         id="g1822"
         transform="matrix(0.35277777,0,0,-0.35277777,75.797429,205.12977)">
        <path
           d="m 0,0 c 0.155,0.679 0.277,1.522 0.059,2.197 -0.057,0.176 -0.294,0.171 -0.353,0 C -0.529,1.518 -0.573,0.546 -0.066,-0.017 -0.047,-0.039 -0.006,-0.028 0,0"
           style="fill:#603422;fill-opacity:1;fill-rule:nonzero;stroke:none"
           id="path1824" />
      </g>
      <g
         id="g1826"
         transform="matrix(0.35277777,0,0,-0.35277777,76.146714,204.84646)">
        <path
           d="M 0,0 C 0.251,0.321 0.308,0.755 0.428,1.139 0.562,1.569 0.684,2.003 0.713,2.453 0.73,2.703 0.391,2.757 0.271,2.573 -0.131,1.961 -0.748,0.765 -0.35,0.045 -0.287,-0.069 -0.089,-0.114 0,0"
           style="fill:#603422;fill-opacity:1;fill-rule:nonzero;stroke:none"
           id="path1828" />
      </g>
      <g
         id="g1830"
         transform="matrix(0.35277777,0,0,-0.35277777,76.744637,206.12687)">
        <path
           d="m 0,0 c -0.102,-0.415 -0.193,-0.651 -0.108,-1.089 0.084,-0.434 0.255,-0.847 0.408,-1.26 0.046,-0.122 0.258,-0.158 0.287,0 0.067,0.375 0.032,0.724 -0.063,1.091 C 0.418,-0.845 0.159,-0.413 0.095,0 0.088,0.049 0.011,0.045 0,0"
           style="fill:#603422;fill-opacity:1;fill-rule:nonzero;stroke:none"
           id="path1832" />
      </g>
      <g
         id="g1834"
         transform="matrix(0.35277777,0,0,-0.35277777,77.074802,206.4655)">
        <path
           d="M 0,0 C -0.34,-0.62 -0.163,-1.711 0.276,-2.244 0.429,-2.43 0.702,-2.263 0.715,-2.062 0.738,-1.703 0.607,-1.345 0.541,-0.993 0.476,-0.652 0.446,-0.31 0.282,0 0.225,0.107 0.058,0.105 0,0"
           style="fill:#603422;fill-opacity:1;fill-rule:nonzero;stroke:none"
           id="path1836" />
      </g>
      <g
         id="g1838"
         transform="matrix(0.35277777,0,0,-0.35277777,82.989968,208.5181)">
        <path
           d="M 0,0 C -0.185,-0.597 -0.134,-1.232 -0.345,-1.813 -0.4,-1.964 -0.196,-2.129 -0.062,-2.031 0.635,-1.519 0.562,-0.73 0.315,0 0.264,0.152 0.049,0.158 0,0"
           style="fill:#603422;fill-opacity:1;fill-rule:nonzero;stroke:none"
           id="path1840" />
      </g>
      <g
         id="g1842"
         transform="matrix(0.35277777,0,0,-0.35277777,83.532964,208.74155)">
        <path
           d="m 0,0 c -0.356,-0.356 -0.542,-0.873 -0.818,-1.293 -0.29,-0.441 -0.658,-0.861 -0.802,-1.376 -0.061,-0.215 0.176,-0.379 0.363,-0.28 0.812,0.432 1.938,1.905 1.546,2.873 C 0.242,0.04 0.1,0.1 0,0"
           style="fill:#603422;fill-opacity:1;fill-rule:nonzero;stroke:none"
           id="path1844" />
      </g>
      <g
         id="g1846"
         transform="matrix(0.35277777,0,0,-0.35277777,84.697518,208.85578)">
        <path
           d="M 0,0 C 0.529,0.158 0.786,0.704 0.824,1.23 0.837,1.405 0.593,1.499 0.478,1.374 0.152,1.021 0.11,0.489 -0.055,0.055 -0.067,0.023 -0.03,-0.009 0,0"
           style="fill:#603422;fill-opacity:1;fill-rule:nonzero;stroke:none"
           id="path1848" />
      </g>
      <g
         id="g1850"
         transform="matrix(0.35277777,0,0,-0.35277777,88.016593,206.82942)">
        <path
           d="M 0,0 C 0.94,0.939 1.078,2.782 0.816,4.008 0.776,4.194 0.501,4.179 0.453,4.008 0.104,2.758 0.277,1.446 -0.35,0.27 -0.467,0.05 -0.184,-0.183 0,0"
           style="fill:#603422;fill-opacity:1;fill-rule:nonzero;stroke:none"
           id="path1852" />
      </g>
      <g
         id="g1854"
         transform="matrix(0.35277777,0,0,-0.35277777,88.646477,205.10229)">
        <path
           d="m 0,0 c 0.18,0.538 0.346,1.173 0.186,1.738 -0.064,0.225 -0.394,0.226 -0.458,0 C -0.432,1.173 -0.266,0.539 -0.086,0 -0.072,-0.042 -0.014,-0.042 0,0"
           style="fill:#603422;fill-opacity:1;fill-rule:nonzero;stroke:none"
           id="path1856" />
      </g>
      <g
         id="g1858"
         transform="matrix(0.35277777,0,0,-0.35277777,89.154125,203.41453)">
        <path
           d="m 0,0 c -0.243,-0.27 -0.152,-0.612 -0.101,-0.951 0.063,-0.418 0.103,-0.888 0.238,-1.286 0.097,-0.287 0.458,-0.266 0.563,0 0.161,0.409 0.04,0.888 -0.079,1.298 C 0.522,-0.602 0.462,-0.197 0.174,0.022 0.126,0.059 0.039,0.043 0,0"
           style="fill:#603422;fill-opacity:1;fill-rule:nonzero;stroke:none"
           id="path1860" />
      </g>
      <g
         id="g1862"
         transform="matrix(0.35277777,0,0,-0.35277777,89.275304,204.78712)">
        <path
           d="m 0,0 c -0.261,-0.489 -0.197,-1.06 -0.023,-1.564 0.06,-0.173 0.293,-0.173 0.353,0 C 0.504,-1.061 0.568,-0.488 0.308,0 0.246,0.116 0.062,0.116 0,0"
           style="fill:#603422;fill-opacity:1;fill-rule:nonzero;stroke:none"
           id="path1864" />
      </g>
      <g
         id="g1866"
         transform="matrix(0.35277777,0,0,-0.35277777,88.902524,200.36784)">
        <path
           d="M 0,0 C 0.094,-0.391 0.503,-0.761 0.708,-1.108 0.935,-1.491 1.075,-1.98 1.421,-2.273 1.573,-2.402 1.795,-2.355 1.859,-2.157 2.036,-1.614 1.647,-0.994 1.337,-0.57 1.071,-0.205 0.633,0.308 0.131,0.231 0.029,0.216 -0.022,0.089 0,0"
           style="fill:#603422;fill-opacity:1;fill-rule:nonzero;stroke:none"
           id="path1868" />
      </g>
      <g
         id="g1870"
         transform="matrix(0.35277777,0,0,-0.35277777,89.633056,201.53264)">
        <path
           d="M 0,0 C -0.192,-0.364 -0.054,-0.727 0.125,-1.065 0.359,-1.509 0.634,-1.926 0.86,-2.374 0.938,-2.527 1.208,-2.499 1.24,-2.324 1.319,-1.893 1.144,-1.509 0.906,-1.156 0.648,-0.775 0.398,-0.406 0.179,0 0.143,0.067 0.036,0.068 0,0"
           style="fill:#603422;fill-opacity:1;fill-rule:nonzero;stroke:none"
           id="path1872" />
      </g>
      <g
         id="g1874"
         transform="matrix(0.35277777,0,0,-0.35277777,89.161074,198.50778)">
        <path
           d="m 0,0 c 0.254,-0.258 0.568,-0.451 0.858,-0.666 0.297,-0.22 0.559,-0.438 0.909,-0.566 0.169,-0.062 0.345,0.164 0.24,0.313 C 1.629,-0.383 0.868,0.094 0.276,0.357 0.052,0.457 -0.194,0.197 0,0"
           style="fill:#603422;fill-opacity:1;fill-rule:nonzero;stroke:none"
           id="path1876" />
      </g>
      <g
         id="g1878"
         transform="matrix(0.35277777,0,0,-0.35277777,88.793656,197.21358)">
        <path
           d="M 0,0 C 0.321,-0.549 0.778,-1.138 1.282,-1.528 1.48,-1.68 1.746,-1.497 1.632,-1.258 1.344,-0.651 0.683,-0.226 0.149,0.149 0.057,0.214 -0.052,0.089 0,0"
           style="fill:#603422;fill-opacity:1;fill-rule:nonzero;stroke:none"
           id="path1880" />
      </g>
      <g
         id="g1882"
         transform="matrix(0.35277777,0,0,-0.35277777,88.520218,196.62649)">
        <path
           d="m 0,0 c 0.258,-0.184 0.52,-0.354 0.752,-0.574 0.2,-0.189 0.352,-0.456 0.598,-0.583 0.186,-0.096 0.476,0.018 0.454,0.26 C 1.744,-0.229 0.7,0.551 0.037,0.28 -0.089,0.229 -0.113,0.081 0,0"
           style="fill:#603422;fill-opacity:1;fill-rule:nonzero;stroke:none"
           id="path1884" />
      </g>
      <g
         id="g1886"
         transform="matrix(0.35277777,0,0,-0.35277777,81.581644,194.69217)">
        <path
           d="M 0,0 C 0.333,-0.403 0.654,-0.821 0.95,-1.252 1.217,-1.642 1.437,-2.087 1.772,-2.424 1.9,-2.553 2.182,-2.466 2.16,-2.263 2.049,-1.201 1.191,-0.028 0.154,0.265 -0.009,0.311 -0.096,0.115 0,0"
           style="fill:#603422;fill-opacity:1;fill-rule:nonzero;stroke:none"
           id="path1888" />
      </g>
      <g
         id="g1890"
         transform="matrix(0.35277777,0,0,-0.35277777,82.610238,195.83725)">
        <path
           d="M 0,0 C 0.251,0.248 0.459,0.455 0.779,0.619 1.048,0.756 1.322,0.855 1.536,1.077 1.654,1.2 1.572,1.428 1.392,1.423 0.735,1.404 -0.231,0.835 -0.27,0.112 -0.278,-0.028 -0.094,-0.093 0,0"
           style="fill:#603422;fill-opacity:1;fill-rule:nonzero;stroke:none"
           id="path1892" />
      </g>
      <g
         id="g1894"
         transform="matrix(0.35277777,0,0,-0.35277777,83.504459,195.61807)">
        <path
           d="M 0,0 C 0.322,0.136 0.676,0.236 0.971,0.426 1.074,0.493 1.009,0.653 0.887,0.625 0.547,0.546 0.22,0.378 -0.099,0.235 -0.231,0.176 -0.135,-0.057 0,0"
           style="fill:#603422;fill-opacity:1;fill-rule:nonzero;stroke:none"
           id="path1896" />
      </g>
      <g
         id="g1898"
         transform="matrix(0.35277777,0,0,-0.35277777,84.376843,195.38454)">
        <path
           d="m 0,0 c 0.358,-0.139 0.869,-0.052 1.251,-0.057 0.451,-0.007 0.874,-0.048 1.283,0.163 0.172,0.09 0.169,0.363 0,0.453 C 1.925,0.883 0.24,0.916 -0.069,0.122 -0.09,0.068 -0.046,0.018 0,0"
           style="fill:#603422;fill-opacity:1;fill-rule:nonzero;stroke:none"
           id="path1900" />
      </g>
      <g
         id="g1902"
         transform="matrix(0.35277777,0,0,-0.35277777,79.741626,195.62181)">
        <path
           d="m 0,0 c 0.496,-0.118 1.004,-0.127 1.508,-0.201 0.446,-0.065 0.944,-0.25 1.388,-0.19 0.241,0.033 0.348,0.374 0.227,0.56 C 2.85,0.588 2.183,0.734 1.712,0.795 1.141,0.87 0.558,0.903 0,0.744 -0.356,0.643 -0.379,0.09 0,0"
           style="fill:#603422;fill-opacity:1;fill-rule:nonzero;stroke:none"
           id="path1904" />
      </g>
      <g
         id="g1906"
         transform="matrix(0.35277777,0,0,-0.35277777,81.320694,195.61049)">
        <path
           d="m 0,0 c 0.436,-0.217 0.911,-0.467 1.406,-0.466 0.16,0 0.251,0.25 0.087,0.322 C 1.05,0.052 0.545,0.196 0.06,0.221 -0.055,0.227 -0.105,0.052 0,0"
           style="fill:#603422;fill-opacity:1;fill-rule:nonzero;stroke:none"
           id="path1908" />
      </g>
    </g>
  </g>
</svg>
