<?xml version="1.0" encoding="UTF-8" standalone="no"?>
<!-- Created with Inkscape (http://www.inkscape.org/) -->

<svg
   width="31.081587mm"
   height="26.819576mm"
   viewBox="0 0 31.081587 26.819576"
   version="1.1"
   id="svg61117"
   inkscape:version="1.1-rc (52f87abb86, 2021-05-02)"
   sodipodi:docname="z-zebra.svg"
   xmlns:inkscape="http://www.inkscape.org/namespaces/inkscape"
   xmlns:sodipodi="http://sodipodi.sourceforge.net/DTD/sodipodi-0.dtd"
   xmlns="http://www.w3.org/2000/svg"
   xmlns:svg="http://www.w3.org/2000/svg">
  <sodipodi:namedview
     id="namedview61119"
     pagecolor="#ffffff"
     bordercolor="#666666"
     borderopacity="1.0"
     objecttolerance="10.0"
     gridtolerance="10.0"
     guidetolerance="10.0"
     inkscape:pageshadow="2"
     inkscape:pageopacity="0.0"
     inkscape:pagecheckerboard="0"
     inkscape:document-units="mm"
     showgrid="false"
     fit-margin-top="0"
     fit-margin-left="0"
     fit-margin-right="0"
     fit-margin-bottom="0"
     inkscape:zoom="0.94875842"
     inkscape:cx="-75.888655"
     inkscape:cy="-154.41233"
     inkscape:window-width="3840"
     inkscape:window-height="2066"
     inkscape:window-x="2869"
     inkscape:window-y="-11"
     inkscape:window-maximized="1"
     inkscape:current-layer="layer1" />
  <defs
     id="defs61114" />
  <g
     inkscape:label="Layer 1"
     inkscape:groupmode="layer"
     id="layer1"
     transform="translate(-125.29019,-189.33106)">
    <g
       id="g27092"
       transform="translate(21.303812,6.770556)">
      <g
         id="g842"
         transform="matrix(0.35277777,0,0,-0.35277777,103.98638,205.357)">
        <path
           d="M 0,0 C 11.838,18.897 20.527,32.798 29.975,51.262 20.092,50.719 11.077,49.849 3.801,48.764 L 1.738,61.471 c 8.253,1.737 24.327,2.932 42.682,3.149 l 1.847,-9.448 C 36.492,36.6 27.585,20.526 16.726,3.475 c 2.606,0.217 5.321,0.326 7.928,0.326 6.625,0 13.14,-0.652 18.898,-1.521 l -1.847,-12.923 c -6.517,0.868 -14.011,1.629 -20.744,1.629 -3.476,0 -9.448,-0.761 -19.223,-2.39 z"
           style="fill:#2f3533;fill-opacity:1;fill-rule:nonzero;stroke:none"
           id="path844" />
      </g>
      <g
         id="g846"
         transform="matrix(0.35277777,0,0,-0.35277777,133.56207,201.69333)">
        <path
           d="m 0,0 c 1.22,0.566 2.54,1.264 3.268,2.316 2.422,3.501 0.34,9.086 -5.083,8.778 -0.052,-0.003 -0.103,-0.007 -0.155,-0.011 l 0.498,-0.464 C 0.208,10.332 1.803,9.455 2.544,8.155 3.286,6.855 3.019,4.882 2.321,3.564 1.624,2.246 0.118,1.245 -1.554,1.093"
           style="fill:#ffffff;fill-opacity:1;fill-rule:nonzero;stroke:none"
           id="path848" />
      </g>
      <g
         id="g850"
         transform="matrix(0.35277777,0,0,-0.35277777,123.69647,204.47255)">
        <path
           d="m 0,0 c 0.116,-4.273 0.309,-8.53 0.589,-12.705 h 2.21 c 0.68,4.461 0.623,6.873 1.621,11.295"
           style="fill:#bfbfbf;fill-opacity:1;fill-rule:nonzero;stroke:none"
           id="path852" />
      </g>
      <g
         id="g854"
         transform="matrix(0.35277777,0,0,-0.35277777,131.97193,204.47255)">
        <path
           d="m 0,0 c -0.116,-4.273 -0.309,-8.53 -0.588,-12.705 h -2.207 c -0.679,4.461 -0.622,6.873 -1.618,11.295"
           style="fill:#bfbfbf;fill-opacity:1;fill-rule:nonzero;stroke:none"
           id="path856" />
      </g>
      <g
         id="g858"
         transform="matrix(0.35277777,0,0,-0.35277777,120.48136,197.08464)">
        <path
           d="M 0,0 C 0.445,-1.133 0.415,-2.357 0.387,-3.552 0.151,-13.64 0.415,-23.736 1.178,-33.804 l 2.432,-0.455 c 0.769,4.461 0.705,6.873 1.834,11.295 8.825,-0.704 19.051,-0.582 27.888,0 0,0 0.604,-5.768 1.041,-11.295 h 2.256 c 0,0 1.671,13.933 2.014,17.519 0.189,1.975 0.156,4.186 -1.408,5.638 -1.427,1.324 -3.686,1.612 -5.746,1.951 -3.834,0.632 -7.612,1.725 -10.868,3.58 -3.256,1.856 -5.97,4.52 -7.245,7.699 -0.882,2.196 -1.057,4.547 -1.35,6.856 -0.621,4.904 -0.714,10.498 -3.519,14.461"
           style="fill:#ffffff;fill-opacity:1;fill-rule:nonzero;stroke:none"
           id="path860" />
      </g>
      <g
         id="g862"
         transform="matrix(0.35277777,0,0,-0.35277777,124.76729,208.36083)">
        <path
           d="M 0,0 C -0.069,-0.532 -0.146,-1.088 -0.236,-1.683 H -2.447 C -2.484,-1.115 -2.517,-0.541 -2.552,0.03 -1.701,0.02 -0.851,0.01 0,0"
           style="fill:#494949;fill-opacity:1;fill-rule:nonzero;stroke:none"
           id="path864" />
      </g>
      <g
         id="g866"
         transform="matrix(0.35277777,0,0,-0.35277777,130.90266,208.36083)">
        <path
           d="M 0,0 C 0.069,-0.532 0.145,-1.088 0.236,-1.683 H 2.443 C 2.481,-1.115 2.513,-0.541 2.548,0.03 1.699,0.02 0.849,0.01 0,0"
           style="fill:#494949;fill-opacity:1;fill-rule:nonzero;stroke:none"
           id="path868" />
      </g>
      <g
         id="g870"
         transform="matrix(0.35277777,0,0,-0.35277777,120.85181,208.36154)">
        <path
           d="M 0,0 C 0.964,-0.053 1.928,-0.103 2.893,-0.148 2.8,-0.817 2.693,-1.523 2.56,-2.293 L 0.128,-1.837 C 0.081,-1.225 0.043,-0.612 0,0"
           style="fill:#494949;fill-opacity:1;fill-rule:nonzero;stroke:none"
           id="path872" />
      </g>
      <g
         id="g874"
         transform="matrix(0.35277777,0,0,-0.35277777,132.56276,208.62171)">
        <path
           d="M 0,0 C 0.856,-0.003 1.712,-0.005 2.568,-0.008 2.454,-0.966 2.383,-1.555 2.383,-1.555 H 0.127 C 0.086,-1.037 0.043,-0.517 0,0"
           style="fill:#494949;fill-opacity:1;fill-rule:nonzero;stroke:none"
           id="path876" />
      </g>
      <g
         id="g878"
         transform="matrix(0.35277777,0,0,-0.35277777,131.18989,198.15419)">
        <path
           d="M 0,0 C 0.75,0.791 1.751,2.024 2.878,2.313 3.89,2.571 5.612,2.387 6.363,1.752 7.563,0.739 7.283,-0.73 6.437,-1.579 5.882,-2.136 4.99,-2.463 4.154,-2.32 3.415,-2.193 2.82,-1.741 2.222,-1.346 1.624,-0.951 0.747,0.084 0,0"
           style="fill:#494949;fill-opacity:1;fill-rule:nonzero;stroke:none"
           id="path880" />
      </g>
      <g
         id="g882"
         transform="matrix(0.35277777,0,0,-0.35277777,124.68685,198.57097)">
        <path
           d="m 0,0 c -0.544,-0.439 -1.118,-0.881 -1.823,-1.09 -0.705,-0.21 -1.577,-0.133 -2.068,0.35 -0.423,0.417 -0.473,1.029 -0.368,1.575 0.163,0.855 0.645,1.644 1.246,2.338 1.168,1.348 2.75,2.341 4.471,3.161 C 1.933,5.153 2.606,4.043 3.432,3.019 2.336,1.973 1.193,0.964 0,0"
           style="fill:#494949;fill-opacity:1;fill-rule:nonzero;stroke:none"
           id="path884" />
      </g>
      <g
         id="g886"
         transform="matrix(0.35277777,0,0,-0.35277777,131.76234,200.34082)">
        <path
           d="m 0,0 c -0.906,-1.09 -1.884,-2.137 -2.935,-3.126 -0.585,-0.551 -1.261,-1.116 -2.121,-1.21 -0.342,-0.037 -0.717,0.015 -0.965,0.22 -0.21,0.174 -0.298,0.428 -0.357,0.673 -0.27,1.137 -0.062,2.327 0.376,3.425 0.165,0.416 0.369,0.818 0.585,1.215 C -3.809,0.723 -2.156,0.354 -0.488,0.08 -0.327,0.053 -0.163,0.026 0,0"
           style="fill:#494949;fill-opacity:1;fill-rule:nonzero;stroke:none"
           id="path888" />
      </g>
      <g
         id="g890"
         transform="matrix(0.35277777,0,0,-0.35277777,128.25584,199.31095)">
        <path
           d="m 0,0 c -1.363,-1.674 -2.224,-3.703 -3.989,-5.077 -0.502,-0.392 -1.153,-0.738 -1.817,-0.623 -0.608,0.105 -1.056,0.587 -1.215,1.103 -0.159,0.516 -0.078,1.064 0.037,1.589 0.443,2.027 1.404,3.965 2.779,5.654 0.863,-0.704 1.8,-1.343 2.788,-1.906 C -0.956,0.477 -0.481,0.233 0,0"
           style="fill:#494949;fill-opacity:1;fill-rule:nonzero;stroke:none"
           id="path892" />
      </g>
      <g
         id="g894"
         transform="matrix(0.35277777,0,0,-0.35277777,133.42816,201.57141)">
        <path
           d="M 0,0 C -0.149,0.424 -0.409,0.756 -0.786,1.056 -1.135,1.333 -1.578,1.522 -1.874,1.843 -1.955,1.93 -1.883,2.068 -1.742,2.038 -0.751,1.827 0.207,0.909 0.335,0.039 0.36,-0.13 0.054,-0.153 0,0"
           style="fill:#bfbfbf;fill-opacity:1;fill-rule:nonzero;stroke:none"
           id="path896" />
      </g>
      <g
         id="g898"
         transform="matrix(0.35277777,0,0,-0.35277777,132.54247,200.87926)">
        <path
           d="M 0,0 C -0.37,0.059 -0.863,0.088 -1.158,0.299 -1.262,0.373 -1.19,0.503 -1.086,0.536 -0.708,0.656 -0.191,0.456 0.152,0.31 0.365,0.22 0.206,-0.033 0,0"
           style="fill:#bfbfbf;fill-opacity:1;fill-rule:nonzero;stroke:none"
           id="path900" />
      </g>
      <g
         id="g902"
         transform="matrix(0.35277777,0,0,-0.35277777,133.00609,201.32507)">
        <path
           d="M 0,0 C -0.367,0.253 -0.774,0.42 -1.159,0.644 -1.309,0.732 -1.215,0.927 -1.036,0.895 -0.55,0.807 -0.111,0.496 0.204,0.176 0.325,0.052 0.144,-0.099 0,0"
           style="fill:#bfbfbf;fill-opacity:1;fill-rule:nonzero;stroke:none"
           id="path904" />
      </g>
      <g
         id="g906"
         transform="matrix(0.35277777,0,0,-0.35277777,132.15544,201.03607)">
        <path
           d="M 0,0 C -0.203,0.067 -0.384,0.119 -0.547,0.245 -0.644,0.32 -0.563,0.453 -0.445,0.457 -0.243,0.463 -0.077,0.408 0.113,0.352 0.371,0.276 0.253,-0.083 0,0"
           style="fill:#bfbfbf;fill-opacity:1;fill-rule:nonzero;stroke:none"
           id="path908" />
      </g>
      <g
         id="g910"
         transform="matrix(0.35277777,0,0,-0.35277777,132.43791,201.38349)">
        <path
           d="M 0,0 C -0.215,0.109 -0.459,0.161 -0.65,0.298 -0.789,0.397 -0.659,0.556 -0.519,0.57 -0.252,0.598 0.012,0.461 0.238,0.35 0.501,0.221 0.262,-0.132 0,0"
           style="fill:#bfbfbf;fill-opacity:1;fill-rule:nonzero;stroke:none"
           id="path912" />
      </g>
      <g
         id="g914"
         transform="matrix(0.35277777,0,0,-0.35277777,120.92935,204.64308)">
        <path
           d="M 0,0 C 0.091,-0.903 0.24,-1.838 0.213,-2.744 0.209,-2.892 -0.05,-2.931 -0.093,-2.78 -0.347,-1.892 -0.343,-0.909 -0.294,0 -0.286,0.165 -0.016,0.161 0,0"
           style="fill:#bfbfbf;fill-opacity:1;fill-rule:nonzero;stroke:none"
           id="path916" />
      </g>
      <g
         id="g918"
         transform="matrix(0.35277777,0,0,-0.35277777,120.98047,205.8886)">
        <path
           d="m 0,0 c 0.026,-0.26 0.04,-0.516 0.043,-0.777 0.002,-0.221 0.032,-0.395 -0.09,-0.592 -0.059,-0.096 -0.235,-0.096 -0.295,0 -0.12,0.194 -0.092,0.375 -0.089,0.592 0.003,0.261 0.017,0.517 0.043,0.777 0.021,0.215 0.367,0.215 0.388,0"
           style="fill:#bfbfbf;fill-opacity:1;fill-rule:nonzero;stroke:none"
           id="path920" />
      </g>
      <g
         id="g922"
         transform="matrix(0.35277777,0,0,-0.35277777,121.23418,205.62557)">
        <path
           d="m 0,0 c 0.024,-0.296 0.099,-0.598 -0.062,-0.871 -0.039,-0.066 -0.141,-0.052 -0.183,0 C -0.45,-0.624 -0.426,-0.292 -0.453,0 -0.477,0.25 -0.021,0.25 0,0"
           style="fill:#bfbfbf;fill-opacity:1;fill-rule:nonzero;stroke:none"
           id="path924" />
      </g>
      <g
         id="g926"
         transform="matrix(0.35277777,0,0,-0.35277777,121.25912,205.17923)">
        <path
           d="m 0,0 c 0.068,-0.301 0.195,-0.75 -0.036,-1.01 -0.051,-0.057 -0.146,-0.083 -0.213,-0.024 -0.263,0.237 -0.205,0.68 -0.173,0.985 C -0.402,0.143 -0.05,0.22 0,0"
           style="fill:#bfbfbf;fill-opacity:1;fill-rule:nonzero;stroke:none"
           id="path928" />
      </g>
      <g
         id="g930"
         transform="matrix(0.35277777,0,0,-0.35277777,124.83015,190.50012)">
        <path
           d="M 0,0 C 1.03,-0.069 2.056,0.389 2.794,1.11 3.532,1.832 4,2.797 4.251,3.799 3.818,4.169 2.95,4.346 2.38,4.363 1.402,4.393 0.645,4.276 -0.267,3.922 -1.179,3.568 -1.978,2.732 -1.975,1.754"
           style="fill:#494949;fill-opacity:1;fill-rule:nonzero;stroke:none"
           id="path932" />
      </g>
      <g
         id="g934"
         transform="matrix(0.35277777,0,0,-0.35277777,121.2502,188.54608)">
        <path
           d="M 0,0 C 0.309,0.931 0.201,1.992 -0.289,2.842 -0.727,3.601 -1.433,4.168 -2.166,4.648 -2.212,4.678 -2.263,4.71 -2.318,4.703 -2.365,4.697 -2.404,4.663 -2.439,4.631 -3.603,3.542 -3.955,1.678 -3.268,0.24 -2.8,-0.741 -1.939,-1.468 -1.294,-2.343"
           style="fill:#494949;fill-opacity:1;fill-rule:nonzero;stroke:none"
           id="path936" />
      </g>
      <g
         id="g938"
         transform="matrix(0.35277777,0,0,-0.35277777,124.78919,190.10832)">
        <path
           d="m 0,0 c 0.362,-0.033 1.044,0.18 1.356,0.367 0.965,0.577 1.345,1.885 1.345,1.885 0,0 -1.392,0.034 -1.981,-0.17 C 0.132,1.878 -0.411,1.439 -0.571,0.838"
           style="fill:#ffffff;fill-opacity:1;fill-rule:nonzero;stroke:none"
           id="path940" />
      </g>
      <g
         id="g942"
         transform="matrix(0.35277777,0,0,-0.35277777,120.87601,188.63406)">
        <path
           d="M 0,0 C 0.336,0.572 0.432,1.28 0.261,1.92 0.091,2.561 -0.344,3.127 -0.92,3.457 -2.335,1.603 -1.237,0.335 -0.172,-0.736"
           style="fill:#ffffff;fill-opacity:1;fill-rule:nonzero;stroke:none"
           id="path944" />
      </g>
      <g
         id="g946"
         transform="matrix(0.35277777,0,0,-0.35277777,115.73427,193.33056)">
        <path
           d="m 0,0 c 0.56,2.476 2.605,4.926 4.228,6.675 4.053,4.368 9.512,8.857 15.895,7.825 2.905,-0.469 5.393,-2.551 5.94,-5.502 C 26.994,3.98 25.92,-1.863 23.391,-6.29 21.266,-10.011 17.588,-12.481 13.212,-12.202 9.114,-11.941 4.658,-9.977 1.969,-6.828 0.585,-5.206 -0.214,-3.244 -0.145,-1.097 -0.133,-0.732 -0.083,-0.366 0,0"
           style="fill:#ffffff;fill-opacity:1;fill-rule:nonzero;stroke:none"
           id="path948" />
      </g>
      <g
         id="g950"
         transform="matrix(0.35277777,0,0,-0.35277777,123.46758,191.2902)">
        <path
           d="M 0,0 C 0.148,0.268 0.506,0.315 0.812,0.325 2.033,0.361 3.257,0.277 4.461,0.078 4.491,-1.029 4.436,-2.151 4.302,-3.27 2.841,-2.714 1.398,-2.064 0.317,-0.951 0.067,-0.694 -0.174,-0.315 0,0"
           style="fill:#494949;fill-opacity:1;fill-rule:nonzero;stroke:none"
           id="path952" />
      </g>
      <g
         id="g954"
         transform="matrix(0.35277777,0,0,-0.35277777,124.09581,192.87272)">
        <path
           d="m 0,0 c 0.756,-0.182 1.495,-0.435 2.206,-0.749 -0.241,-1.195 -0.57,-2.37 -0.982,-3.5 -0.785,0.952 -1.509,1.953 -2.157,3.001 -0.194,0.314 -0.383,0.717 -0.189,1.03 C -0.907,0.13 -0.397,0.096 0,0"
           style="fill:#494949;fill-opacity:1;fill-rule:nonzero;stroke:none"
           id="path956" />
      </g>
      <g
         id="g958"
         transform="matrix(0.35277777,0,0,-0.35277777,122.92907,188.23415)">
        <path
           d="M 0,0 C 1.159,-0.23 2.243,-0.713 3.151,-1.41 2.388,-2.266 1.574,-3.076 0.71,-3.83 0.157,-4.312 -0.425,-4.778 -1.104,-5.055 -1.56,-5.242 -2.219,-5.26 -2.407,-4.804 c -0.072,0.173 -0.049,0.37 -0.01,0.553 0.332,1.6 1.659,2.819 2.417,4.251"
           style="fill:#494949;fill-opacity:1;fill-rule:nonzero;stroke:none"
           id="path960" />
      </g>
      <g
         id="g962"
         transform="matrix(0.35277777,0,0,-0.35277777,120.0183,190.31713)">
        <path
           d="m 0,0 c -0.463,-0.039 -0.915,0.133 -1.344,0.311 -0.98,0.408 -1.938,0.869 -2.87,1.376 0.933,0.777 1.913,1.499 2.939,2.125 C -0.475,3.203 0.266,2.525 0.764,1.661 0.914,1.402 1.043,1.11 1.001,0.814 0.936,0.354 0.463,0.039 0,0"
           style="fill:#494949;fill-opacity:1;fill-rule:nonzero;stroke:none"
           id="path964" />
      </g>
      <g
         id="g966"
         transform="matrix(0.35277777,0,0,-0.35277777,119.22709,191.08636)">
        <path
           d="m 0,0 c -0.04,-0.275 -0.374,-0.388 -0.65,-0.419 -1.66,-0.191 -3.267,0.422 -4.895,0.87 0.628,0.671 1.288,1.343 1.979,1.997 C -2.455,1.915 -1.387,1.293 -0.383,0.579 -0.184,0.437 0.035,0.242 0,0"
           style="fill:#494949;fill-opacity:1;fill-rule:nonzero;stroke:none"
           id="path968" />
      </g>
      <g
         id="g970"
         transform="matrix(0.35277777,0,0,-0.35277777,119.45361,192.88189)">
        <path
           d="m 0,0 c 2.702,-1.381 8.629,-5.254 4.842,-13.378 -0.702,-0.105 -1.426,-0.143 -2.173,-0.096 -4.098,0.261 -8.554,2.225 -11.243,5.375 -1.384,1.621 -2.183,3.583 -2.114,5.73 0.012,0.365 0.062,0.731 0.145,1.097 0.105,0.465 0.263,0.929 0.46,1.388 C -6.927,1.685 -3.191,1.63 0,0"
           style="fill:#7a7a7a;fill-opacity:1;fill-rule:nonzero;stroke:none"
           id="path972" />
      </g>
      <g
         id="g974"
         transform="matrix(0.35277777,0,0,-0.35277777,117.9616,196.13521)">
        <path
           d="M 0,0 C 0.027,0.061 0.065,0.122 0.115,0.178 0.459,0.565 1.192,0.682 1.681,0.692 1.826,0.695 1.977,0.684 2.104,0.614 2.231,0.544 2.328,0.401 2.303,0.259 2.278,0.107 2.134,0.007 2,-0.068 1.692,-0.242 -0.531,-1.205 0,0"
           style="fill:#494949;fill-opacity:1;fill-rule:nonzero;stroke:none"
           id="path976" />
      </g>
      <g
         id="g978"
         transform="matrix(0.35277777,0,0,-0.35277777,116.729,194.9031)">
        <path
           d="M 0,0 C 0.071,0.181 0.176,0.361 0.346,0.455 0.516,0.549 0.763,0.525 0.867,0.361 0.939,0.248 0.929,0.102 0.912,-0.032 0.859,-0.448 1.039,-1.923 0.224,-1.737 -0.388,-1.598 -0.157,-0.402 0,0"
           style="fill:#494949;fill-opacity:1;fill-rule:nonzero;stroke:none"
           id="path980" />
      </g>
      <g
         id="g982"
         transform="matrix(0.35277777,0,0,-0.35277777,124.41606,194.63414)">
        <path
           d="m 0,0 c -1.228,-3.123 -3.984,-7.796 -9.458,-8.54 -0.073,-0.009 -0.151,0.104 -0.069,0.12 4.651,0.879 7.86,5.035 9.419,8.466 C -0.077,0.115 0.028,0.071 0,0"
           style="fill:#bfbfbf;fill-opacity:1;fill-rule:nonzero;stroke:none"
           id="path984" />
      </g>
      <g
         id="g986"
         transform="matrix(0.35277777,0,0,-0.35277777,117.87263,191.34029)">
        <path
           d="m 0,0 c 0.245,-0.119 0.491,-0.274 0.612,-0.512 0.207,-0.404 0.229,-0.781 0.008,-1.193 -0.385,-0.72 -1.434,-0.686 -1.868,-0.124 -0.29,0.376 -0.327,0.896 -0.139,1.331 C -1.167,0.013 -0.545,0.265 0,0"
           style="fill:#682f2c;fill-opacity:1;fill-rule:nonzero;stroke:none"
           id="path988" />
      </g>
      <g
         id="g990"
         transform="matrix(0.35277777,0,0,-0.35277777,117.72994,191.49731)">
        <path
           d="M 0,0 C 0.098,-0.048 0.197,-0.11 0.245,-0.205 0.328,-0.367 0.337,-0.518 0.249,-0.683 0.094,-0.972 -0.326,-0.958 -0.5,-0.733 -0.616,-0.582 -0.631,-0.374 -0.556,-0.2 -0.468,0.005 -0.218,0.106 0,0"
           style="fill:#ffffff;fill-opacity:1;fill-rule:nonzero;stroke:none"
           id="path992" />
      </g>
      <g
         id="g994"
         transform="matrix(0.35277777,0,0,-0.35277777,122.87287,193.91751)">
        <path
           d="m 0,0 c 0.245,-0.119 0.491,-0.274 0.612,-0.512 0.207,-0.404 0.229,-0.781 0.008,-1.193 -0.386,-0.72 -1.434,-0.686 -1.868,-0.124 -0.29,0.376 -0.327,0.896 -0.14,1.331 C -1.167,0.013 -0.545,0.265 0,0"
           style="fill:#682f2c;fill-opacity:1;fill-rule:nonzero;stroke:none"
           id="path996" />
      </g>
      <g
         id="g998"
         transform="matrix(0.35277777,0,0,-0.35277777,122.73007,194.07457)">
        <path
           d="M 0,0 C 0.098,-0.048 0.197,-0.11 0.245,-0.205 0.328,-0.367 0.337,-0.518 0.249,-0.683 0.094,-0.972 -0.326,-0.958 -0.5,-0.733 -0.616,-0.582 -0.631,-0.374 -0.556,-0.2 -0.468,0.005 -0.218,0.106 0,0"
           style="fill:#ffffff;fill-opacity:1;fill-rule:nonzero;stroke:none"
           id="path1000" />
      </g>
      <g
         id="g1002"
         transform="matrix(0.35277777,0,0,-0.35277777,122.50111,195.35106)">
        <path
           d="m 0,0 c 0.651,-0.304 1.216,-0.847 1.572,-1.431 0.12,-0.197 0.225,-0.428 0.171,-0.653 -0.061,-0.257 -0.315,-0.428 -0.574,-0.479 -0.314,-0.062 -0.64,0.018 -0.938,0.135 -0.75,0.296 -1.399,0.841 -1.819,1.529 -0.093,0.152 -0.176,0.314 -0.2,0.49 -0.025,0.176 0.017,0.369 0.144,0.493 0.132,0.129 0.33,0.162 0.515,0.167 C -0.74,0.261 -0.357,0.167 0,0"
           style="fill:#ffb8c2;fill-opacity:1;fill-rule:nonzero;stroke:none"
           id="path1004" />
      </g>
      <g
         id="g1006"
         transform="matrix(0.35277777,0,0,-0.35277777,116.4569,191.41967)">
        <path
           d="m 0,0 c 0.651,-0.304 1.216,-0.847 1.572,-1.431 0.12,-0.197 0.225,-0.428 0.171,-0.653 -0.061,-0.257 -0.315,-0.428 -0.574,-0.479 -0.314,-0.061 -0.64,0.018 -0.938,0.135 -0.75,0.296 -1.399,0.841 -1.819,1.529 -0.093,0.152 -0.176,0.314 -0.2,0.49 -0.025,0.176 0.017,0.369 0.144,0.493 0.132,0.129 0.33,0.162 0.515,0.167 C -0.74,0.261 -0.357,0.167 0,0"
           style="fill:#ffb8c2;fill-opacity:1;fill-rule:nonzero;stroke:none"
           id="path1008" />
      </g>
    </g>
  </g>
</svg>
